<?xml version="1.0" standalone="no"?>
<!DOCTYPE svg PUBLIC "-//W3C//DTD SVG 1.1//EN" "http://www.w3.org/Graphics/SVG/1.1/DTD/svg11.dtd" >
<svg xmlns="http://www.w3.org/2000/svg" xmlns:xlink="http://www.w3.org/1999/xlink" version="1.1">
<metadata>
Created by FontForge 20170731 at Tue Jun 26 18:24:10 2018
 By Aleksey,,,
Copyright (c) 2018 by Fontcraft : Jutipong Poosumas. All rights reserved.
</metadata>
<defs>
<font id="FCActiveLight" horiz-adv-x="0" >
  <font-face 
    font-family="FC Active"
    font-weight="300"
    font-stretch="normal"
    units-per-em="2048"
    panose-1="2 0 0 0 0 0 0 0 0 0"
    ascent="1638"
    descent="-410"
    x-height="826"
    cap-height="1126"
    bbox="-836 -676 1280 1553"
    underline-thickness="72"
    underline-position="-293"
    unicode-range="U+0020-25CC"
  />
<missing-glyph horiz-adv-x="1536" 
d="M256 0v1280h1024v-1280h-1024zM1238 32q10 0 10 10v1196q0 10 -10 10h-940q-10 0 -10 -10v-1196q0 -10 10 -10h940z" />
    <glyph glyph-name="quotedblleft" unicode="&#x91;&#x91;" horiz-adv-x="564" 
d="M110 1204h104l-11 -330h-82zM350 1204h104l-11 -330h-82z" />
    <glyph glyph-name="quotedblright" unicode="&#x92;&#x92;" horiz-adv-x="564" 
d="M110 1204h104l-11 -330h-82zM350 1204h104l-11 -330h-82z" />
    <glyph glyph-name="copyright2" unicode="&#x3b;&#x3b;For&#x20;Education&#x20;Used&#x20;Only&#x3b;&#x3b;" horiz-adv-x="1296" 
d="M256 0v1280h1024v-1280h-1024zM1238 32q10 0 10 10v1196q0 10 -10 10h-940q-10 0 -10 -10v-1196q0 -10 10 -10h940z" />
    <glyph glyph-name="registered2" unicode="&#x3b;&#x3b;Registered&#x3b;&#x3b;" horiz-adv-x="1296" 
d="M256 0v1280h1024v-1280h-1024zM1238 32q10 0 10 10v1196q0 10 -10 10h-940q-10 0 -10 -10v-1196q0 -10 10 -10h940z" />
    <glyph glyph-name="trademark2" unicode="&#x3b;&#x3b;Trademark&#x3b;&#x3b;" horiz-adv-x="1938" 
d="M256 0v1280h1024v-1280h-1024zM1238 32q10 0 10 10v1196q0 10 -10 10h-940q-10 0 -10 -10v-1196q0 -10 10 -10h940z" />
    <glyph glyph-name="multiply2" unicode="&#x3b;&#x3b;Multiply&#x3b;&#x3b;" horiz-adv-x="844" 
d="M734 761l-255 -256l255 -255l-57 -57l-255 256l-255 -256l-57 57l255 255l-255 256l57 57l255 -256l255 256z" />
    <glyph glyph-name="divide2" unicode="&#x3b;&#x3b;Divide&#x3b;&#x3b;" horiz-adv-x="867" 
d="M110 538h647v-79h-647v79zM433 816q30 0 51.5 -21t21.5 -51q0 -29 -21.5 -49.5t-51.5 -20.5q-29 0 -49.5 20.5t-20.5 49.5q0 30 20.5 51t49.5 21zM433 317q30 0 51.5 -21t21.5 -50q0 -30 -21.5 -50.5t-51.5 -20.5q-29 0 -49.5 20.5t-20.5 50.5q0 29 20.5 50t49.5 21z" />
    <glyph glyph-name="rulakkhangyao" unicode="&#xc4;&#xd2;" horiz-adv-x="1277" 
d="M953 873q51 0 93.5 -14.5t74 -43t49 -70.5t17.5 -97v-948h-80v953q0 24 -7.5 47.5t-25.5 43t-49 33t-78 15.5q-55 3 -116 -5t-124 -19q20 -27 31.5 -60t11.5 -71v-937h-79v937q0 24 -11 50t-34 48.5t-59 38.5t-86 19q-17 1 -33 1h-32q-57 0 -118 -5t-141 -19l18 -199
v-405q0 -28 4.5 -45.5t14 -27t23.5 -12.5t32 -3h78v-79h-78q-72 0 -112 44t-40 123v405l-17 264q93 18 180 28t183 10h25.5t26.5 -1q73 -3 135 -37q75 14 158.5 26t164.5 12z" />
    <glyph glyph-name="lulakkhangyao" unicode="&#xc6;&#xd2;" horiz-adv-x="1305" 
d="M981 873q51 0 93.5 -14.5t74 -43t49 -70.5t17.5 -97v-948h-80v953q0 24 -7.5 47.5t-25.5 43t-49 33t-78 15.5q-54 3 -115.5 -5t-123.5 -19q20 -27 31.5 -60t11.5 -71v-937h-80v937q0 24 -10.5 50t-33.5 48.5t-59 38.5t-86 19q-17 1 -32.5 1h-29.5q-25 0 -49.5 -1t-52 -4
t-59.5 -7.5t-72 -11.5q4 -45 9.5 -99.5t9.5 -99.5v-493q0 -33 -22.5 -55.5t-54.5 -22.5h-107v79h76q17 0 23 5.5t6 22.5v466l-25 262q46 9 87.5 16t82.5 12t83 7.5t88 2.5h25t27 -1q73 -3 135 -37q75 14 158.5 26t164.5 12z" />
    <glyph glyph-name=".notdef" horiz-adv-x="1536" 
d="M256 0v1280h1024v-1280h-1024zM1238 32q10 0 10 10v1196q0 10 -10 10h-940q-10 0 -10 -10v-1196q0 -10 10 -10h940z" />
    <glyph glyph-name=".null" 
 />
    <glyph glyph-name="nonmarkingreturn" horiz-adv-x="579" 
 />
    <glyph glyph-name="space" unicode=" " horiz-adv-x="532" 
 />
    <glyph glyph-name="exclam" unicode="!" horiz-adv-x="353" 
d="M140 281l-13 845h99l-10 -845h-76zM110 143h133v-143h-133v143z" />
    <glyph glyph-name="quotedbl" unicode="&#x22;" horiz-adv-x="564" 
d="M110 1204h104l-11 -330h-82zM350 1204h104l-11 -330h-82z" />
    <glyph glyph-name="numbersign" unicode="#" horiz-adv-x="1038" 
d="M792 821h176v-79h-197l-98 -374h207v-79h-228q-18 -69 -38.5 -144t-38.5 -145h-83l77 289h-248q-18 -69 -38.5 -144t-38.5 -145h-84l77 289h-167v79h189l99 374h-200v79h220l82 305h82l-81 -305h250l81 305h82zM689 742h-249l-99 -374h250z" />
    <glyph glyph-name="dollar" unicode="$" horiz-adv-x="849" 
d="M464 1237v-106q44 -2 80 -5.5t68.5 -8t62 -10t61.5 -11.5v-87q-30 7 -93 17.5t-179 18.5v-448l229 -135q30 -16 48 -45.5t18 -64.5v-103q-4 -56 -22.5 -103t-52 -82t-81.5 -54.5t-111 -19.5h-28v-103h-79v105q-91 5 -160 14t-133 22v87q60 -14 129.5 -23.5t163.5 -13.5
v464l-230 135q-29 17 -47 47t-18 66v76q0 60 19.5 109t54.5 84t83.5 54.5t106.5 19.5h31v104h79zM385 644v405h-31q-63 0 -99 -22.5t-54 -53t-22.5 -61t-4.5 -46.5v-76q0 -14 7.5 -24t18.5 -15zM464 497v-421h28q63 0 99 22.5t54.5 52.5t23.5 60t5 46v95q0 13 -7 21t-12 12z
" />
    <glyph glyph-name="percent" unicode="%" horiz-adv-x="1019" 
d="M817 1126l-518 -1126h-89l519 1126h88zM472 929q0 -94 -49.5 -141.5t-145.5 -47.5q-63 0 -101.5 18.5t-60 46.5t-28.5 61t-7 63q0 31 7.5 65t29 63t60 48t100.5 19q93 0 144 -47.5t51 -147.5zM152 929q0 -65 28 -91t97 -26q30 0 53 4.5t38.5 17t23.5 35.5t8 60
q0 41 -9.5 65.5t-26 37t-39 16.5t-48.5 4q-30 0 -53.5 -4.5t-39 -17.5t-24 -37.5t-8.5 -63.5zM939 189q0 -94 -49.5 -141.5t-145.5 -47.5q-63 0 -101.5 18.5t-60 46.5t-28.5 61t-7 63q0 31 7.5 65t29 63t60 48t100.5 19q93 0 144 -47.5t51 -147.5zM619 189q0 -65 28 -91
t97 -26q30 0 53 4.5t38.5 17t23.5 35.5t8 60q0 41 -9.5 65.5t-26 37t-39 16.5t-48.5 4q-30 0 -53.5 -4.5t-39 -17.5t-24 -37.5t-8.5 -63.5z" />
    <glyph glyph-name="ampersand" unicode="&#x26;" horiz-adv-x="925" 
d="M855 596v-79h-88q0 -118 -0.5 -244.5t-0.5 -245.5q-30 -7 -67 -13t-84.5 -11t-106 -8t-132.5 -3q-66 0 -120 18.5t-92.5 54t-59 87t-20.5 117.5q0 103 42.5 179.5t133.5 110.5q-47 21 -75 52t-43 66t-19.5 72.5t-4.5 71.5q0 59 19.5 108.5t54.5 85.5t83.5 56.5
t107.5 20.5q89 0 176.5 -7.5t182.5 -24.5v-81q-88 18 -175.5 26t-183.5 8q-51 0 -86.5 -17t-57.5 -44.5t-32 -62t-10 -68.5q0 -54 8.5 -96t36.5 -70.5t82 -43.5t145 -15h219v86h79v-86h88zM688 517h-219q-83 0 -141 -12.5t-95 -41.5t-53.5 -76.5t-16.5 -117.5
q0 -100 53 -149t155 -49q59 0 104 1.5t82 4t68 6.5t63 9v425z" />
    <glyph glyph-name="quotesingle" unicode="'" horiz-adv-x="324" 
d="M110 1204h104l-11 -330h-82z" />
    <glyph glyph-name="parenleft" unicode="(" horiz-adv-x="442" 
d="M332 1204q-63 -164 -93 -326t-30 -326q0 -161 29.5 -317.5t89.5 -318.5h-84q-114 321 -114 636q0 162 29 325t89 327h84z" />
    <glyph glyph-name="parenright" unicode=")" horiz-adv-x="442" 
d="M194 1204q60 -164 89 -327t29 -325q0 -315 -114 -636h-84q60 162 89.5 318.5t29.5 317.5q0 164 -30 326t-93 326h84z" />
    <glyph glyph-name="asterisk" unicode="*" horiz-adv-x="762" 
d="M672 969l-238 -70l160 -202q-20 -15 -34.5 -26t-31.5 -24l-146 216l-71 -106.5t-74 -109.5q-19 14 -34.5 26t-30.5 23l157 203l-239 70l26 76l233 -85q-1 27 -2 57.5t-2.5 62.5t-2.5 63.5t-2 60.5h83l-10 -244l234 85z" />
    <glyph glyph-name="plus" unicode="+" horiz-adv-x="867" 
d="M473 538h284v-79h-284v-279h-79v279h-284v79h284v278h79v-278z" />
    <glyph glyph-name="comma" unicode="," horiz-adv-x="239" 
d="M81 153h108l-70 -328h-79z" />
    <glyph glyph-name="hyphen" unicode="-" horiz-adv-x="867" 
d="M110 538h647v-79h-647v79z" />
    <glyph glyph-name="period" unicode="." horiz-adv-x="253" 
d="M60 133h133v-133h-133v133z" />
    <glyph glyph-name="slash" unicode="/" horiz-adv-x="503" 
d="M359 1126h84q-76 -286 -150 -564t-150 -562h-83z" />
    <glyph glyph-name="zero" unicode="0" horiz-adv-x="944" 
d="M851 847q11 -73 17 -147t6 -148q0 -30 -1.5 -65t-4.5 -71.5t-7.5 -72.5t-9.5 -66q-12 -73 -48 -126.5t-87.5 -89t-114.5 -52.5t-130 -17q-71 0 -134.5 18t-113.5 53.5t-84 88.5t-46 124q-11 67 -17 142t-6 144q0 70 5.5 141.5t17.5 143.5q12 75 46 129t84 88.5t114 51
t136 16.5q66 0 129 -15t114.5 -49t87.5 -88t47 -133zM768 289q24 123 24 263q0 136 -24 283q-9 55 -35 94.5t-65 65.5t-89 38.5t-107 12.5q-58 0 -107.5 -14.5t-88 -41.5t-64.5 -66.5t-36 -88.5q-11 -65 -16 -132.5t-5 -135.5q0 -69 5.5 -140.5t15.5 -138.5q10 -59 37 -99.5
t66 -65t88 -35.5t105 -11t105 9.5t87.5 33.5t65 65t38.5 104z" />
    <glyph glyph-name="one" unicode="1" horiz-adv-x="547" 
d="M356 1126v-1126h-85v1042h-160v84h245z" />
    <glyph glyph-name="two" unicode="2" horiz-adv-x="837" 
d="M747 869q0 -74 -34 -150.5t-102.5 -169t-171 -205.5t-239.5 -260h537v-84h-647v85q139 146 246 262.5t179.5 210.5t109.5 170t37 141q0 20 -5.5 50.5t-24 59t-55 49t-97.5 20.5q-128 0 -217.5 -11t-152.5 -25v88q33 7 68.5 13t79 10.5t97.5 6.5t125 2q62 0 111.5 -18.5
t84 -53t53 -83t18.5 -108.5z" />
    <glyph glyph-name="three" unicode="3" horiz-adv-x="865" 
d="M741 861q0 -35 -5 -76.5t-20.5 -81.5t-45 -73t-77.5 -50q51 -20 86 -50t56.5 -68.5t30.5 -84.5t9 -97q0 -66 -21 -119t-59 -90.5t-93 -58t-122 -20.5q-74 0 -132.5 3t-106 8t-84.5 11t-67 12v88q27 -6 64 -12.5t85 -12t108 -9t133 -3.5q103 0 156.5 51.5t53.5 151.5
q0 68 -16 116.5t-52 79t-93.5 45t-139.5 14.5h-65v84h65q93 0 146.5 18t80 50t33.5 76.5t7 97.5q0 34 -9.5 67.5t-31 60t-56 43t-84.5 16.5q-69 0 -124.5 -3t-99.5 -7.5t-78 -10.5t-60 -12v86q33 7 67.5 12.5t77.5 9.5t95.5 6.5t121.5 2.5q58 0 107 -20t84 -56t55 -85.5
t20 -109.5z" />
    <glyph glyph-name="four" unicode="4" horiz-adv-x="827" 
d="M779 360v-84h-126v-276h-83v276h-499v78l417 771h94l-415 -765h403v343h83v-343h126z" />
    <glyph glyph-name="five" unicode="5" horiz-adv-x="848" 
d="M385 664q114 0 188 -27t117 -75t59.5 -113.5t16.5 -142.5q0 -72 -21.5 -130t-60.5 -99t-93.5 -63t-119.5 -22q-78 0 -137.5 3t-106 8t-82 11.5t-64.5 13.5v89q55 -13 149 -26.5t241 -13.5q98 0 154 60t56 169q0 77 -16 129.5t-51.5 84.5t-93 45.5t-140.5 13.5h-269
q12 142 25.5 274t26.5 273h543v-84h-467l-34 -378h180z" />
    <glyph glyph-name="six" unicode="6" horiz-adv-x="864" 
d="M434 707q81 0 139 -16t98 -42.5t64 -62t37.5 -74.5t17.5 -80t4 -78q0 -38 -4 -80t-17.5 -82t-37.5 -76.5t-64 -64t-98 -43.5t-139 -16q-102 0 -173.5 27.5t-114.5 79.5q-14 19 -28 47.5t-24.5 73.5t-17 110.5t-6.5 158.5q0 59 2.5 130t13 142t32 138t60 119t96 83
t140.5 31h51q66 0 133 -8t139 -23v-87q-52 12 -122 23t-149 11h-52q-70 0 -116 -29t-75 -86t-44 -141t-23 -194q60 62 131.5 85.5t146.5 23.5zM433 77q73 0 125.5 14.5t85.5 47t48.5 85.5t15.5 130q0 76 -14.5 127.5t-47 82.5t-85 44.5t-128.5 13.5q-144 0 -208 -66
t-64 -205q0 -68 14 -119.5t46.5 -86t84.5 -51.5t127 -17z" />
    <glyph glyph-name="seven" unicode="7" horiz-adv-x="800" 
d="M740 1126q-50 -145 -98.5 -285t-97 -278.5t-97 -278t-97.5 -284.5h-87l357 1042h-553v84h673z" />
    <glyph glyph-name="eight" unicode="8" horiz-adv-x="859" 
d="M429 -8q-81 0 -147 17t-113.5 53t-73 92t-25.5 134q0 50 15 97.5t43.5 87.5t70 69.5t95.5 42.5q-51 10 -87.5 40t-59.5 67.5t-34 76.5t-11 68q0 150 84.5 221.5t242.5 73.5q154 0 240.5 -72t86.5 -223q0 -29 -11 -68t-34.5 -77t-60 -68t-88.5 -40q56 -13 98.5 -41.5
t71 -68.5t43 -87.5t14.5 -98.5q0 -78 -26 -134t-73 -92t-113.5 -53t-147.5 -17zM429 77q74 0 126 13t85 39.5t48.5 66t15.5 92.5q0 55 -15.5 100t-48.5 77t-85.5 49.5t-125.5 17.5q-74 0 -126 -17.5t-85 -49.5t-48.5 -77t-15.5 -100q0 -53 15.5 -92.5t48.5 -66t85 -39.5
t126 -13zM429 618q51 0 96.5 16.5t78.5 46t51.5 70t15.5 87.5q0 57 -13.5 97t-43 65t-75 36.5t-110.5 11.5t-111 -11.5t-75 -36.5t-42.5 -65t-13.5 -97q-3 -47 15.5 -87.5t52 -70t78.5 -46t96 -16.5z" />
    <glyph glyph-name="nine" unicode="9" horiz-adv-x="865" 
d="M430 417q-81 0 -139 16t-98 42.5t-64 62t-37.5 74.5t-17.5 79.5t-4 78.5t4 80t17.5 82t37.5 76.5t64 64t98 43.5t139 16q102 0 173.5 -27.5t114.5 -79.5q14 -19 28 -47.5t24.5 -73.5t17 -110.5t6.5 -158.5q0 -59 -1.5 -130t-11 -142t-30 -138t-58.5 -119t-97.5 -83
t-145.5 -31h-51q-66 0 -133 8t-139 23v87q52 -12 122 -23t149 -11h52q73 0 120 29t75 86t41.5 141t21.5 194q-60 -62 -131.5 -85.5t-146.5 -23.5zM431 1047q-74 0 -126 -14.5t-85 -47t-48.5 -85.5t-15.5 -130q0 -76 14.5 -127.5t47 -82.5t85 -44.5t128.5 -13.5q144 0 208 66
t64 205q0 68 -14 119.5t-46.5 86t-84.5 51.5t-127 17z" />
    <glyph glyph-name="colon" unicode=":" horiz-adv-x="313" 
d="M90 133h133v-133h-133v133zM90 867h133v-133h-133v133z" />
    <glyph glyph-name="semicolon" unicode=";" horiz-adv-x="299" 
d="M70 867h133v-133h-133v133zM91 153h118l-70 -328h-89z" />
    <glyph glyph-name="less" unicode="&#x3c;" horiz-adv-x="703" 
d="M110 606l483 392v-101l-411 -335l411 -335v-102q-65 52 -124 100.5t-117.5 96t-118 95.5t-123.5 101v88z" />
    <glyph glyph-name="equal" unicode="=" horiz-adv-x="790" 
d="M110 655h570v-79h-570v79zM110 421h570v-80h-570v80z" />
    <glyph glyph-name="greater" unicode="&#x3e;" horiz-adv-x="703" 
d="M593 518l-483 -393v102l412 335l-412 335v101q64 -53 123.5 -101t118 -95.5t118 -95.5t123.5 -100v-88z" />
    <glyph glyph-name="question" unicode="?" horiz-adv-x="791" 
d="M432 1134q54 0 99.5 -18t78.5 -49.5t52 -74.5t19 -94v-146l-247 -311v-160h-80v187l248 312v118q0 35 -12 64t-34.5 49.5t-54 32t-69.5 11.5h-93q-38 0 -69 -11.5t-53.5 -32t-35 -49.5t-12.5 -64v-48h-79v48q0 51 19 94t52 74.5t78.5 49.5t99.5 18h93zM326 143h133v-143
h-133v143z" />
    <glyph glyph-name="at" unicode="@" horiz-adv-x="1355" 
d="M677 1104q133 0 241.5 -46.5t185.5 -126t119 -187t42 -228.5q0 -166 -90 -313h-336v93l-143 -93h-102q-36 0 -66.5 12t-52 33.5t-33.5 51t-12 65.5v54q0 37 11.5 68t32.5 53t51.5 34.5t68.5 12.5h1.5t8.5 -1t21.5 -3.5t41.5 -6.5t69 -11t103 -16v112q0 33 -14.5 52.5
t-38.5 30t-54 14t-61 3.5q-18 0 -42 -2t-50.5 -5.5t-52.5 -8t-49 -8.5v77q53 10 105 17t89 7q58 0 103.5 -9t77 -30t48 -55t16.5 -83v-381h199q58 116 58 236q0 105 -30.5 196.5t-92 159t-154.5 106.5t-219 39q-121 0 -213.5 -38t-155 -105t-94.5 -159t-32 -199
q0 -106 30 -197.5t91.5 -159t154.5 -106t219 -38.5h229v-86h-229q-132 0 -240.5 46t-185.5 126t-119 186.5t-42 228.5q0 121 42 228.5t119 187t185.5 126t240.5 46.5zM839 385v87l-247 38q-30 0 -47 -10t-26 -24.5t-11 -30t-2 -26.5v-54q0 -28 9 -44.5t22.5 -25.5t28.5 -12
t28 -3h80z" />
    <glyph glyph-name="A" unicode="A" horiz-adv-x="946" 
d="M607 1126l284 -1126h-89l-70 276h-518q-17 -65 -35.5 -137.5t-35.5 -138.5h-88l285 1126h267zM711 360l-172 682h-132l-172 -682h476z" />
    <glyph glyph-name="B" unicode="B" horiz-adv-x="862" 
d="M723 848q-2 -70 -37 -131.5t-112 -115.5q106 -54 162 -130.5t56 -185.5q0 -77 -18.5 -131t-59 -88.5t-103.5 -50t-152 -15.5h-369v1126h318q152 0 233.5 -71t81.5 -207zM638 848q0 61 -16.5 99t-46.5 59t-72.5 28.5t-94.5 7.5h-233v-514l323 131q45 24 72.5 48.5
t42.5 48.5t20 47t5 45zM459 84q61 0 106.5 5.5t76 26t46.5 60.5t19 110q0 44 -10 82.5t-36 72t-71.5 63.5t-116.5 56l-298 -125v-351h284z" />
    <glyph glyph-name="C" unicode="C" horiz-adv-x="831" 
d="M413 1129q14 1 28.5 1h28.5q72 0 147.5 -8t148.5 -24v-90q-46 10 -89 17t-86 11t-86.5 6t-89.5 2q-49 -4 -89.5 -24t-71 -49.5t-49.5 -65.5t-25 -71q-12 -67 -17 -134t-5 -136t5 -137t17 -139q6 -35 25 -70t49.5 -65t71.5 -50.5t89 -24.5q36 0 80.5 1t91.5 4t93.5 9
t85.5 17v-86q-136 -32 -283 -32h-35.5t-34.5 2q-57 3 -110.5 26t-96.5 60t-73 86.5t-39 106.5q-11 71 -17.5 142t-6.5 143q0 69 6.5 143.5t17.5 147.5q11 57 40 107t71.5 87.5t95.5 60.5t112 26z" />
    <glyph glyph-name="D" unicode="D" horiz-adv-x="923" 
d="M441 1130q74 0 140.5 -17t118.5 -53t87 -93t46 -138q10 -73 15 -140.5t5 -134.5q0 -61 -5 -127t-15 -135q-12 -71 -44.5 -126.5t-82 -94.5t-116 -59.5t-146.5 -20.5q-38 0 -76 1t-80.5 3.5t-91 5.5t-106.5 7v1105q56 4 102 7t87 5.5t80 3.5t82 1zM439 76q60 0 111.5 9.5
t91.5 34.5t67.5 69.5t40.5 113.5q21 118 21 245q0 65 -5.5 133t-15.5 137q-20 110 -97.5 168.5t-205.5 58.5q-63 0 -135 -3.5t-138 -8.5v-946q57 -3 97.5 -5.5t70.5 -3.5t53 -1.5t44 -0.5z" />
    <glyph glyph-name="E" unicode="E" horiz-adv-x="785" 
d="M176 157q0 -26 31.5 -42t77 -25t95.5 -12t88 -2q62 2 124 9t123 22v-88q-57 -13 -119 -19.5t-126 -8.5q-27 0 -65.5 1.5t-81 6.5t-84 15.5t-75 29t-54 46t-20.5 67.5v968h159.5t153.5 0.5t153 0.5h159v-84h-539v-438h465v-84h-465v-363z" />
    <glyph glyph-name="F" unicode="F" horiz-adv-x="755" 
d="M715 1126v-84h-541v-438h467v-84h-467v-520h-84v1125z" />
    <glyph glyph-name="G" unicode="G" horiz-adv-x="915" 
d="M825 45q-83 -21 -170.5 -37.5t-177.5 -16.5q-35 0 -72 3q-55 4 -107.5 26.5t-94.5 59.5t-71 86.5t-38 106.5q-24 141 -24 286q0 139 24 289q10 62 42 113.5t80.5 89t109.5 58.5t130 21q88 0 176 -9.5t177 -26.5v-86q-84 17 -169.5 27t-173.5 10q-56 0 -105 -14t-87 -41
t-63 -66t-34 -89q-11 -63 -16 -131t-5 -133q0 -140 21 -284q6 -35 24.5 -71t48 -65.5t69.5 -49t89 -22.5q72 0 157 5.5t176 26.5v409h-184v84h268v-559z" />
    <glyph glyph-name="H" unicode="H" horiz-adv-x="980" 
d="M796 1126h84v-1126h-84v520h-612v-520h-84v1126h84v-522h612v522z" />
    <glyph glyph-name="I" unicode="I" horiz-adv-x="325" 
d="M120 1126h85v-1126h-85v1126z" />
    <glyph glyph-name="J" unicode="J" horiz-adv-x="593" 
d="M483 220q0 -108 -55 -167.5t-164 -59.5q-44 0 -98.5 7t-97.5 17v89q49 -13 97.5 -20t96.5 -7q37 0 63 7t42.5 23.5t24 43.5t7.5 66v823h-157v84h241v-906z" />
    <glyph glyph-name="K" unicode="K" horiz-adv-x="877" 
d="M807 1126l-312 -563q78 -139 156 -281t156 -282h-97l-290 520h-246v-520h-84v1126h84v-522h246q72 128 145 261t145 261h97z" />
    <glyph glyph-name="L" unicode="L" horiz-adv-x="690" 
d="M175 158q0 -26 26 -42t63.5 -25t78.5 -12t71 -3q57 0 118 8t118 23v-87q-60 -14 -120 -21.5t-116 -7.5q-70 0 -129 10t-102.5 30t-68 51.5t-24.5 75.5v968h85v-968z" />
    <glyph glyph-name="M" unicode="M" horiz-adv-x="1121" 
d="M990 1126l76 -1126h-86l-70 1042h-70l-184 -766h-191l-184 766h-70q-17 -257 -35 -521t-36 -521h-85l77 1126h219l183 -766h53q45 189 92 383t92 383h219z" />
    <glyph glyph-name="N" unicode="N" horiz-adv-x="1001" 
d="M817 83v1042h84v-1125h-230l-398 1042h-88v-1042h-85v1125q62 0 114.5 0.5t113.5 0.5l401 -1043h88z" />
    <glyph glyph-name="O" unicode="O" horiz-adv-x="950" 
d="M475 1130q68 0 132.5 -18t117 -54t89.5 -89.5t50 -124.5v1q10 -64 15.5 -135t5.5 -145q0 -73 -6 -148.5t-16 -141.5q-15 -69 -52 -122t-88.5 -88.5t-114.5 -54t-131 -18.5q-69 0 -132.5 18t-115.5 54t-89.5 89t-52.5 122q-10 66 -16 141.5t-6 148.5q0 74 5.5 145
t15.5 135v-1q13 71 50 124.5t89.5 89.5t117 54t132.5 18zM474 1044q-59 0 -110 -13t-90.5 -39t-66.5 -66t-37 -94q-9 -73 -14.5 -141.5t-5.5 -136.5q0 -69 5.5 -134t14.5 -131q7 -48 35.5 -87t70.5 -67t94 -43t106 -15t105.5 15t93 43t69.5 67t36 87q9 66 14.5 131t5.5 134
q0 68 -5.5 136.5t-14.5 141.5q-11 54 -37.5 94t-66.5 66.5t-91.5 39t-110.5 12.5z" />
    <glyph glyph-name="P" unicode="P" horiz-adv-x="811" 
d="M441 1126q77 0 138 -17.5t103 -55t64.5 -95t23.5 -138.5q1 -151 -82.5 -226.5t-246.5 -75.5h-267v-518h-84v1125zM441 602q75 0 122.5 16t74.5 45t37 69.5t10 90.5q0 49 -10 89.5t-37 69t-74.5 44.5t-122.5 16h-267v-440h267z" />
    <glyph glyph-name="Q" unicode="Q" horiz-adv-x="951" 
d="M475 1130q68 0 133.5 -17.5t119 -52.5t90.5 -89t49 -126q10 -58 14.5 -130.5t4.5 -149.5q0 -78 -5 -153t-16 -137q-11 -67 -42 -117t-77 -84.5t-104.5 -54t-122.5 -25.5l-88 -132v-31q0 -33 15 -40.5t35 -7.5h248v-75h-280q-50 0 -76 37.5t-26 94.5v51l87 102
q-72 10 -131 34t-104 60.5t-74 84t-39 104.5v-1q-11 63 -16 132t-5 143t5.5 149t16.5 146q12 70 49 123.5t90 89.5t117 54t132 18zM782 289q9 66 14.5 131t5.5 134q0 68 -5 136.5t-14 141.5q-11 54 -38 94t-67 66.5t-91 39t-110 12.5q-48 0 -97 -11.5t-91.5 -37t-74.5 -66
t-44 -97.5q-14 -61 -17 -125t-3 -130q0 -73 5 -144.5t14 -143.5v1q6 -48 34.5 -87.5t71 -67t95 -43t106.5 -15.5t106 15t94 43t70 67t36 87z" />
    <glyph glyph-name="R" unicode="R" horiz-adv-x="871" 
d="M538 544l61 -124q51 -106 103 -210t104 -210h-94l-256 516l-282 -100v-416h-84v1126h381q74 0 133 -14.5t99.5 -48t62 -88t21.5 -133.5q0 -94 -45.5 -161t-145.5 -112zM174 505l388 140q44 16 71.5 38.5t42.5 48.5t20.5 54t5.5 56q0 61 -13 100t-41 61.5t-72 30.5t-105 8
h-297v-537z" />
    <glyph glyph-name="S" unicode="S" horiz-adv-x="808" 
d="M673 462q30 -16 47.5 -45.5t17.5 -64.5v-102q-3 -56 -21.5 -103t-52 -82t-81.5 -54.5t-111 -19.5q-67 0 -121.5 2.5t-102 7.5t-90.5 12t-86 16v88q40 -10 82.5 -17.5t90.5 -12.5t104 -7.5t123 -2.5q63 0 99 22.5t54 52.5t23 60t5 46v94q0 13 -6.5 21t-11.5 12l-500 292
q-29 17 -47 46.5t-18 66.5v73q0 60 19.5 109t54.5 84t83.5 54.5t106.5 19.5q68 0 120 -2.5t95.5 -7t83 -11.5t83.5 -16v-88q-46 10 -143.5 25.5t-238.5 15.5q-63 0 -99 -22.5t-54 -53t-22.5 -61t-4.5 -46.5v-73q0 -14 7 -24t18 -15z" />
    <glyph glyph-name="T" unicode="T" horiz-adv-x="746" 
d="M40 1126h666v-84h-292v-1042h-85v1042h-289v84z" />
    <glyph glyph-name="U" unicode="U" horiz-adv-x="961" 
d="M778 1126h83v-814q0 -152 -72 -232t-202 -80h-212q-133 0 -204 81t-71 231v814h84v-814q0 -120 45.5 -174t145.5 -54h212q100 0 145.5 55.5t45.5 172.5v814z" />
    <glyph glyph-name="V" unicode="V" horiz-adv-x="946" 
d="M802 1126h89l-285 -1126h-267l-284 1126h88l264 -1042h132z" />
    <glyph glyph-name="W" unicode="W" horiz-adv-x="1257" 
d="M1117 1126h85q-34 -287 -67.5 -563.5t-67.5 -562.5h-173l-246 896h-37l-246 -896h-174l-136 1126h86l126 -1046h37q60 223 122.5 447.5t123.5 448.5h157l246 -896h37z" />
    <glyph glyph-name="X" unicode="X" horiz-adv-x="870" 
d="M809 1126l-225 -563q54 -137 112.5 -281.5t113.5 -281.5h-92l-207 520h-149q-25 -62 -52 -127.5t-54 -132t-53.5 -132.5t-51.5 -128h-91l229 563q-57 140 -114 281.5t-114 281.5h90l211 -522h149l207 522h91z" />
    <glyph glyph-name="Y" unicode="Y" horiz-adv-x="859" 
d="M804 1126l-245 -606h-85v-520h-85v520h-85l-249 606h91l211 -522h149l207 522h91z" />
    <glyph glyph-name="Z" unicode="Z" horiz-adv-x="814" 
d="M186 84h548v-84h-653v72l549 970h-550v84h653v-73z" />
    <glyph glyph-name="bracketleft" unicode="[" horiz-adv-x="469" 
d="M359 1207v-79h-150v-1132h150v-79q-63 0 -115.5 0.5t-113.5 0.5v1289h229z" />
    <glyph glyph-name="backslash" unicode="\" horiz-adv-x="503" 
d="M443 0h-83q-76 284 -150 562t-150 564h84z" />
    <glyph glyph-name="bracketright" unicode="]" horiz-adv-x="469" 
d="M339 1207v-1289q-61 0 -113.5 -0.5t-115.5 -0.5v79h150v1132h-150v79h229z" />
    <glyph glyph-name="asciicircum" unicode="^" horiz-adv-x="774" 
d="M704 847h-98l-218 294l-218 -294h-100q70 94 139.5 183t138.5 182h81z" />
    <glyph glyph-name="underscore" unicode="_" horiz-adv-x="872" 
d="M40 0h792v-79h-792v79z" />
    <glyph glyph-name="grave" unicode="`" horiz-adv-x="427" 
d="M60 1204h115l192 -330h-96z" />
    <glyph glyph-name="a" unicode="a" horiz-adv-x="803" 
d="M132 801q44 9 84 15t80.5 9.5t83.5 5t94 1.5q52 -2 96 -20t76 -48.5t49.5 -71.5t17.5 -87v-605h-80v132q-22 -14 -49 -30.5t-55 -34.5t-55 -35.5t-49 -31.5h-135q-46 0 -84.5 15t-66.5 42.5t-43.5 65t-15.5 82.5v82q0 45 15 83t43 65t66.5 42.5t85.5 15.5l343 -54v165
q0 24 -9 49t-28.5 46t-50 35t-75.5 16q-102 0 -181.5 -8t-156.5 -24v83zM633 227v131l-345 55q-16 0 -38 -4.5t-42 -18t-34 -38.5t-14 -65v-82q0 -43 15 -68t35.5 -37.5t42.5 -16t37 -3.5h111z" />
    <glyph glyph-name="b" unicode="b" horiz-adv-x="826" 
d="M452 832q109 0 184.5 -52t99.5 -156q9 -48 14.5 -103t5.5 -103q0 -51 -4.5 -103t-15.5 -106q-19 -99 -83 -154t-156 -55h-122l-205 107v-107h-80v1126h80v-330q75 16 146.5 26t135.5 10zM497 80q41 0 69.5 13.5t47.5 34.5t29 46.5t15 50.5q8 47 12 94.5t4 98.5
q0 48 -4 96t-13 96q-5 27 -17 52.5t-36 45.5t-62 32t-95 12q-68 0 -137 -11t-140 -27v-514l224 -120h103z" />
    <glyph glyph-name="c" unicode="c" horiz-adv-x="715" 
d="M363 828q71 5 141 1t146 -17v-82q-69 12 -138 15t-146 3q-50 -2 -84.5 -15.5t-57 -34.5t-34.5 -46t-18 -49q-10 -47 -15.5 -96t-5.5 -100q0 -98 20 -190q6 -24 19.5 -48t38 -44.5t61 -35t89.5 -18.5q64 -5 130 0.5t141 17.5v-83q-68 -10 -135.5 -13.5t-137.5 -3.5
q-58 0 -106 15.5t-84 43t-60 66t-34 84.5q-11 49 -17 107.5t-6 108.5q0 21 2 47.5t5 54.5t7 55t9 50q10 46 34 83.5t59.5 64.5t80.5 42t96 17z" />
    <glyph glyph-name="d" unicode="d" horiz-adv-x="828" 
d="M341 831q77 7 156.5 -4.5t160.5 -27.5v327h80v-1126h-80v107l-205 -107h-123q-92 0 -156 55t-83 154q-20 103 -21 206t21 209q19 94 86.5 148t163.5 59zM433 80l225 120v516q-72 16 -140 26t-133 10q-58 0 -96.5 -12t-63.5 -31.5t-37.5 -45.5t-17.5 -53
q-17 -93 -18.5 -190.5t17.5 -194.5q4 -25 15 -50.5t29.5 -46.5t47 -34.5t69.5 -13.5h103z" />
    <glyph glyph-name="e" unicode="e" horiz-adv-x="806" 
d="M404 832q100 0 164.5 -35.5t101.5 -94t51.5 -135t14.5 -157.5v-20t-1 -20h-582q4 -59 13 -111t32.5 -92t66.5 -64.5t116 -27.5q15 -2 32 -2.5t33 -0.5q66 0 129 9t126 21v-82q-65 -13 -130.5 -21t-131.5 -8q-15 0 -29.5 0.5t-29.5 1.5q-93 4 -153 38t-95 90.5
t-48.5 130.5t-13.5 159q0 75 12 150t47.5 135t101 98t173.5 38zM655 452q-4 61 -16.5 115t-40.5 94.5t-74.5 64.5t-119.5 24q-72 0 -117.5 -21t-73.5 -60t-41 -94t-19 -123h502z" />
    <glyph glyph-name="f" unicode="f" horiz-adv-x="432" 
d="M90 920q0 49 8 90.5t28 72t52.5 47.5t82.5 17q39 0 75 -3.5t65 -8.5v-81q-27 5 -62.5 9t-77.5 4q-12 0 -27.5 -2.5t-29.5 -16t-23.5 -43.5t-9.5 -85l-1 -94h178v-80h-178v-746h-80v920z" />
    <glyph glyph-name="g" unicode="g" horiz-adv-x="826" 
d="M736 -95q0 -62 -24.5 -105.5t-66.5 -71t-98 -40.5t-119 -13q-69 0 -140 8.5t-158 25.5v82q70 -16 142 -25t150 -9q67 0 112 11.5t72.5 32t39 47.5t11.5 57v202l-205 -107h-123q-92 0 -155.5 55t-82.5 155q-10 54 -15.5 105.5t-5.5 102.5q0 108 17.5 186t58 128.5
t107 74.5t164.5 24q78 0 161.5 -11t157.5 -29v-886zM657 200v525q-63 13 -124 19.5t-125 6.5t-107 -12t-70 -32t-41 -46t-20 -54q-10 -44 -14 -92.5t-4 -96.5t4 -97.5t13 -97.5q5 -24 15.5 -49.5t29.5 -46.5t47 -34t68 -13h103z" />
    <glyph glyph-name="h" unicode="h" horiz-adv-x="846" 
d="M556 826q99 0 149.5 -54t50.5 -149v-623h-80v623q0 66 -28 94.5t-92 28.5h-140l-245 -144v-602h-81v1126h81v-429l213 124q4 2 9.5 3.5t10.5 1.5h152z" />
    <glyph glyph-name="i" unicode="i" horiz-adv-x="300" 
d="M110 826h80v-826h-80v826zM110 1126h80v-170h-80v170z" />
    <glyph glyph-name="j" unicode="j" horiz-adv-x="312" 
d="M212 4q0 -48 -8.5 -89.5t-28.5 -72.5t-53 -48.5t-82 -17.5q-82 0 -139 12v82q27 -6 62 -9.5t77 -3.5q12 0 28 2.5t30 16t23.5 43.5t9.5 85v822h81v-822zM212 956h-81v170h81v-170z" />
    <glyph glyph-name="k" unicode="k" horiz-adv-x="746" 
d="M686 826l-231 -414q57 -102 115.5 -205.5t115.5 -206.5h-92l-209 372h-216v-372h-79v1126h79v-674h216l209 374h92z" />
    <glyph glyph-name="l" unicode="l" horiz-adv-x="349" 
d="M179 135q0 -30 11 -47t33 -17h86v-71h-110q-24 0 -42.5 10t-31 28t-19 42t-6.5 52v994h79v-991v0z" />
    <glyph glyph-name="m" unicode="m" horiz-adv-x="1196" 
d="M935 826q43 0 75 -14t53.5 -39.5t32 -61t10.5 -78.5v-633h-80v633q0 46 -9.5 69.5t-24 33t-30 10t-27.5 0.5h-99l-199 -141v-605h-79v633q0 39 -8.5 62t-21.5 34t-29 14t-32 3h-99l-199 -141v-605h-79v826h79v-123l162 116h-1q10 7 24 7h113q33 0 63.5 -8.5t53 -26
t36 -42.5t13.5 -58l167 128h-1q10 7 24 7h112z" />
    <glyph glyph-name="n" unicode="n" horiz-adv-x="833" 
d="M543 826q98 0 149 -54t51 -149v-623h-80v623q0 66 -28 94.5t-92 28.5h-127l-245 -144v-602h-81v826h81v-129l213 124q4 2 9.5 3.5t10.5 1.5h139z" />
    <glyph glyph-name="o" unicode="o" horiz-adv-x="798" 
d="M399 831q97 0 162 -28t104.5 -81.5t56 -131t16.5 -177.5q0 -95 -14.5 -173t-53 -134t-104.5 -86t-168 -28q-105 1 -170.5 32t-103 85.5t-51 131.5t-13.5 172q0 99 15 176.5t53 131.5t104 82t167 28zM398 71q85 0 136.5 22.5t79 66t36 107t8.5 146.5q0 82 -8 145t-35 106
t-78.5 65t-138.5 22q-84 0 -135 -22t-78.5 -65t-36 -106t-8.5 -145q0 -81 7.5 -144.5t34 -107.5t77.5 -67t139 -23z" />
    <glyph glyph-name="p" unicode="p" horiz-adv-x="826" 
d="M735 625q21 -102 21 -207q0 -49 -5 -103t-15 -105q-9 -47 -31 -86t-53 -66.5t-70.5 -42.5t-84.5 -15h-121l-205 107v-423h-81v1107q75 19 155.5 29.5t161.5 10.5h29.5t29.5 -1q110 -4 179.5 -57.5t89.5 -147.5zM657 223q19 95 19 198q0 48 -5 95.5t-14 90.5
q-5 23 -17.5 47.5t-35 45.5t-57 34.5t-84.5 15.5h-36q-61 0 -123 -5.5t-133 -19.5v-525l225 -120h101q41 0 69.5 13t47 34t28.5 46.5t15 49.5z" />
    <glyph glyph-name="q" unicode="q" horiz-adv-x="826" 
d="M91 626q20 94 89.5 147.5t179.5 57.5q15 1 29.5 1h29.5q81 0 161.5 -10.5t155.5 -29.5v-1108h-81v423l-205 -107h-121q-45 0 -84.5 15t-70.5 42.5t-53 66.5t-31 86q-10 51 -15 105t-5 104q0 105 21 207zM169 223q4 -24 14.5 -49.5t29 -46.5t47 -34t69.5 -13h101l225 120
v525q-71 14 -133 19.5t-123 5.5h-36q-50 -2 -84.5 -15.5t-57 -34.5t-35 -45.5t-17.5 -47.5q-9 -43 -14 -90.5t-5 -95.5q0 -103 19 -198z" />
    <glyph glyph-name="r" unicode="r" horiz-adv-x="659" 
d="M413 826q91 0 139.5 -54t48.5 -149v-9h-79v9q0 65 -22.5 94t-86.5 29h-70l-174 -141v-605h-79v826h79v-126l140 120l-2 -1q10 7 24 7h82v0z" />
    <glyph glyph-name="s" unicode="s" horiz-adv-x="700" 
d="M571 346q26 -14 42.5 -37.5t16.5 -52.5v-66q-2 -42 -18.5 -77.5t-46 -62t-70 -41t-89.5 -14.5q-43 0 -88.5 2.5t-88 6t-80.5 8.5t-66 10v81q81 -16 158.5 -21.5t164.5 -7.5q68 -2 106 31.5t38 90.5v71l-422 214q-26 14 -42 37.5t-16 51.5v61q0 44 16 80.5t45 63t70.5 41
t91.5 15.5h38q69 0 137 -5t136 -20v-83q-37 6 -117.5 17t-193.5 11q-69 0 -106.5 -31t-37.5 -89v-71z" />
    <glyph glyph-name="t" unicode="t" horiz-adv-x="448" 
d="M180 826h189v-80h-189v-611q0 -30 10.5 -47t32.5 -17h146v-71h-168q-49 0 -75 37.5t-26 94.5v889h80v-195z" />
    <glyph glyph-name="u" unicode="u" horiz-adv-x="821" 
d="M653 826h78v-826h-78v130l-217 -124q-5 -2 -9.5 -4t-9.5 -2h-127q-104 0 -152 54t-48 149v623h80v-622q0 -65 28.5 -93.5t91.5 -28.5h117l246 144v600z" />
    <glyph glyph-name="v" unicode="v" horiz-adv-x="791" 
d="M658 826h83l-211 -826h-267q-54 211 -106.5 413t-106.5 413h85l191 -747h141z" />
    <glyph glyph-name="w" unicode="w" horiz-adv-x="1059" 
d="M908 826h81q-26 -212 -51 -413t-50 -413h-165l-176 683h-35l-176 -683h-165q-24 207 -50 413.5t-51 412.5h81l91 -746h39q43 171 87 341.5t87 341.5h149l174 -683h39z" />
    <glyph glyph-name="x" unicode="x" horiz-adv-x="785" 
d="M526 413q46 -102 94 -206t95 -207h-89l-171 373h-127l-169 -373h-89l189 413l-189 413h88l170 -373h127l170 373h90z" />
    <glyph glyph-name="y" unicode="y" horiz-adv-x="811" 
d="M678 826h83l-314 -1147h-260v80h204l64 241h-183l-222 826h83l201 -747h142z" />
    <glyph glyph-name="z" unicode="z" horiz-adv-x="726" 
d="M646 80v-80h-566v78l467 667h-467v82h566v-79l-466 -668h466z" />
    <glyph glyph-name="braceleft" unicode="{" horiz-adv-x="557" 
d="M447 1207v-79h-151v-443l-92 -122q21 -26 45 -58t47 -58v-451h151v-79h-190q-17 0 -28.5 11.5t-11.5 27.5v465l-107 141l107 150v456q0 16 11.5 27.5t28.5 11.5h190z" />
    <glyph glyph-name="bar" unicode="|" horiz-adv-x="398" 
d="M238 1207v-1290h-78v1290h78z" />
    <glyph glyph-name="braceright" unicode="}" horiz-adv-x="557" 
d="M300 1207q17 0 28.5 -11.5t11.5 -27.5v-456l107 -150l-107 -141v-465q0 -16 -11.5 -27.5t-28.5 -11.5h-190v79h151v451q23 26 47 58t45 58l-92 122v443h-151v79h190z" />
    <glyph glyph-name="asciitilde" unicode="~" horiz-adv-x="801" 
d="M434 536q41 -8 78 -15.5t76 -7.5q26 0 52 4t51 15v-82q-26 -8 -51.5 -10.5t-51.5 -2.5q-41 0 -83 6.5t-89 16.5q-43 10 -85 17.5t-88 7.5q-33 0 -65.5 -5.5t-67.5 -18.5v84q36 11 68.5 15t64.5 4q50 0 98 -8.5t93 -19.5z" />
    <glyph glyph-name="thothannobasethai" horiz-adv-x="788" 
d="M783 817l-141 -20q21 -32 34.5 -64.5t18.5 -65.5q12 -113 11.5 -231t-11.5 -239q-5 -39 -23.5 -75t-47 -63t-65.5 -43t-79 -16h-189l-117 384h-94v77h39t35.5 0.5t35.5 0.5h38l117 -383h95q80 0 125 34.5t53 92.5q11 108 11.5 221t-11.5 228q-8 43 -25 69.5t-41 41
t-52.5 20t-58.5 6.5q-12 1 -24.5 1h-24.5q-76 0 -151 -9t-161 -24v81q75 13 152 22.5t162 9.5h24t26 -1q53 -2 110 -21l229 45v-79z" />
    <glyph glyph-name="thothannobasethai" unicode="&#xf700;" horiz-adv-x="788" 
d="M783 817l-141 -20q21 -32 34.5 -64.5t18.5 -65.5q12 -113 11.5 -231t-11.5 -239q-5 -39 -23.5 -75t-47 -63t-65.5 -43t-79 -16h-189l-117 384h-94v77h39t35.5 0.5t35.5 0.5h38l117 -383h95q80 0 125 34.5t53 92.5q11 108 11.5 221t-11.5 228q-8 43 -25 69.5t-41 41
t-52.5 20t-58.5 6.5q-12 1 -24.5 1h-24.5q-76 0 -151 -9t-161 -24v81q75 13 152 22.5t162 9.5h24t26 -1q53 -2 110 -21l229 45v-79z" />
    <glyph glyph-name="thothannobasethai" unicode="&#x20ac;" horiz-adv-x="788" 
d="M783 817l-141 -20q21 -32 34.5 -64.5t18.5 -65.5q12 -113 11.5 -231t-11.5 -239q-5 -39 -23.5 -75t-47 -63t-65.5 -43t-79 -16h-189l-117 384h-94v77h39t35.5 0.5t35.5 0.5h38l117 -383h95q80 0 125 34.5t53 92.5q11 108 11.5 221t-11.5 228q-8 43 -25 69.5t-41 41
t-52.5 20t-58.5 6.5q-12 1 -24.5 1h-24.5q-76 0 -151 -9t-161 -24v81q75 13 152 22.5t162 9.5h24t26 -1q53 -2 110 -21l229 45v-79z" />
    <glyph glyph-name="saraileftthai" 
d="M-270 1000h-566v77h566v-77z" />
    <glyph glyph-name="saraileftthai" unicode="&#xf701;" 
d="M-270 1000h-566v77h566v-77z" />
    <glyph glyph-name="saraiileftthai" 
d="M-270 1180v-180h-566v77h486v103h80z" />
    <glyph glyph-name="saraiileftthai" unicode="&#xf702;" 
d="M-270 1180v-180h-566v77h486v103h80z" />
    <glyph glyph-name="saraiileftthai" unicode="&#x201a;" 
d="M-270 1180v-180h-566v77h486v103h80z" />
    <glyph glyph-name="saraueleftthai" 
d="M-359 1222q22 0 42 -8.5t35 -23t23.5 -34.5t8.5 -42q0 -23 -9 -43.5t-24 -36t-35.5 -25t-43.5 -9.5h-474v77h376q-5 17 -6 24.5t-1 12.5q0 22 8.5 42t23.5 34.5t34.5 23t41.5 8.5zM-408 1114q0 -20 14.5 -34t34.5 -14t34 14t14 34t-14 34.5t-34 14.5t-34.5 -14.5
t-14.5 -34.5z" />
    <glyph glyph-name="saraueleftthai" unicode="&#xf703;" 
d="M-359 1222q22 0 42 -8.5t35 -23t23.5 -34.5t8.5 -42q0 -23 -9 -43.5t-24 -36t-35.5 -25t-43.5 -9.5h-474v77h376q-5 17 -6 24.5t-1 12.5q0 22 8.5 42t23.5 34.5t34.5 23t41.5 8.5zM-408 1114q0 -20 14.5 -34t34.5 -14t34 14t14 34t-14 34.5t-34 14.5t-34.5 -14.5
t-14.5 -34.5z" />
    <glyph glyph-name="saraueleftthai" unicode="&#x192;" 
d="M-359 1222q22 0 42 -8.5t35 -23t23.5 -34.5t8.5 -42q0 -23 -9 -43.5t-24 -36t-35.5 -25t-43.5 -9.5h-474v77h376q-5 17 -6 24.5t-1 12.5q0 22 8.5 42t23.5 34.5t34.5 23t41.5 8.5zM-408 1114q0 -20 14.5 -34t34.5 -14t34 14t14 34t-14 34.5t-34 14.5t-34.5 -14.5
t-14.5 -34.5z" />
    <glyph glyph-name="saraueeleftthai" 
d="M-270 1180v-180h-566v77h306v103h80v-103h100v103h80z" />
    <glyph glyph-name="saraueeleftthai" unicode="&#xf704;" 
d="M-270 1180v-180h-566v77h306v103h80v-103h100v103h80z" />
    <glyph glyph-name="saraueeleftthai" unicode="&#x201e;" 
d="M-270 1180v-180h-566v77h306v103h80v-103h100v103h80z" />
    <glyph glyph-name="ellipsis" unicode="&#x85;" horiz-adv-x="779" 
d="M60 133h133v-133h-133v133zM323 133h133v-133h-133v133zM586 133h133v-133h-133v133z" />
    <glyph glyph-name="ellipsis" unicode="&#x2026;" horiz-adv-x="779" 
d="M60 133h133v-133h-133v133zM323 133h133v-133h-133v133zM586 133h133v-133h-133v133z" />
    <glyph glyph-name="maieklowleftthai" 
d="M-311 1000h-79v252h79v-252z" />
    <glyph glyph-name="maieklowleftthai" unicode="&#xf705;" 
d="M-311 1000h-79v252h79v-252z" />
    <glyph glyph-name="maieklowleftthai" unicode="&#x2020;" 
d="M-311 1000h-79v252h79v-252z" />
    <glyph glyph-name="maitholowleftthai" 
d="M-270 1077v-77h-388l9 120h-87v77h169l-8 -120h305z" />
    <glyph glyph-name="maitholowleftthai" unicode="&#xf706;" 
d="M-270 1077v-77h-388l9 120h-87v77h169l-8 -120h305z" />
    <glyph glyph-name="maitholowleftthai" unicode="&#x2021;" 
d="M-270 1077v-77h-388l9 120h-87v77h169l-8 -120h305z" />
    <glyph glyph-name="maitrilowleftthai" 
d="M-250 1078v-78h-107q-17 0 -26.5 10t-9.5 22v121q0 29 -14 51.5t-38 22.5q-25 -13 -44 -29.5t-45 -30.5l-85 58q-51 0 -51 -80q0 -25 11 -46t41 -21h48v-78h-51q-35 0 -58.5 12t-38 31.5t-21.5 44.5t-8 52q0 30 7 59.5t23 52.5t41.5 37t63.5 14h9l69 -54l69 54h10
q27 0 51.5 -11t43 -30.5t29.5 -46t11 -57.5v-80h70z" />
    <glyph glyph-name="maitrilowleftthai" unicode="&#xf707;" 
d="M-250 1078v-78h-107q-17 0 -26.5 10t-9.5 22v121q0 29 -14 51.5t-38 22.5q-25 -13 -44 -29.5t-45 -30.5l-85 58q-51 0 -51 -80q0 -25 11 -46t41 -21h48v-78h-51q-35 0 -58.5 12t-38 31.5t-21.5 44.5t-8 52q0 30 7 59.5t23 52.5t41.5 37t63.5 14h9l69 -54l69 54h10
q27 0 51.5 -11t43 -30.5t29.5 -46t11 -57.5v-80h70z" />
    <glyph glyph-name="maitrilowleftthai" unicode="&#x2c6;" 
d="M-250 1078v-78h-107q-17 0 -26.5 10t-9.5 22v121q0 29 -14 51.5t-38 22.5q-25 -13 -44 -29.5t-45 -30.5l-85 58q-51 0 -51 -80q0 -25 11 -46t41 -21h48v-78h-51q-35 0 -58.5 12t-38 31.5t-21.5 44.5t-8 52q0 30 7 59.5t23 52.5t41.5 37t63.5 14h9l69 -54l69 54h10
q27 0 51.5 -11t43 -30.5t29.5 -46t11 -57.5v-80h70z" />
    <glyph glyph-name="maichattawalowleftthai" 
d="M-240 1092h-111v-92h-79v92h-111v68h111v92h79v-92h111v-68z" />
    <glyph glyph-name="maichattawalowleftthai" unicode="&#xf708;" 
d="M-240 1092h-111v-92h-79v92h-111v68h111v92h79v-92h111v-68z" />
    <glyph glyph-name="maichattawalowleftthai" unicode="&#x2030;" 
d="M-240 1092h-111v-92h-79v92h-111v68h111v92h79v-92h111v-68z" />
    <glyph glyph-name="thanthakhatlowleftthai" 
d="M-217 1185v-77l-279 -24v-84h-79v151z" />
    <glyph glyph-name="thanthakhatlowleftthai" unicode="&#xf709;" 
d="M-217 1185v-77l-279 -24v-84h-79v151z" />
    <glyph glyph-name="thanthakhatlowleftthai" unicode="&#x160;" 
d="M-217 1185v-77l-279 -24v-84h-79v151z" />
    <glyph glyph-name="maieklowrightthai" 
d="M-90 1000h-79v252h79v-252z" />
    <glyph glyph-name="maieklowrightthai" unicode="&#xf70a;" 
d="M-90 1000h-79v252h79v-252z" />
    <glyph glyph-name="maieklowrightthai" unicode="&#x2039;" 
d="M-90 1000h-79v252h79v-252z" />
    <glyph glyph-name="maitholowrightthai" 
d="M-90 1077v-77h-428l9 120h-87v77h169l-8 -120h345z" />
    <glyph glyph-name="maitholowrightthai" unicode="&#xf70b;" 
d="M-90 1077v-77h-428l9 120h-87v77h169l-8 -120h345z" />
    <glyph glyph-name="maitholowrightthai" unicode="&#x152;" 
d="M-90 1077v-77h-428l9 120h-87v77h169l-8 -120h345z" />
    <glyph glyph-name="maitrilowrightthai" 
d="M-90 1078v-78h-127q-17 0 -26.5 10t-9.5 22v121q0 29 -14 51.5t-38 22.5q-25 -13 -54 -29.5t-55 -30.5l-105 58q-51 0 -51 -80q0 -25 11 -46t41 -21h48v-78h-51q-35 0 -58.5 12t-38 31.5t-21.5 44.5t-8 52q0 30 7 59.5t23 52.5t41.5 37t63.5 14h9l89 -54l89 54h10
q27 0 51.5 -11t43 -30.5t29.5 -46t11 -57.5v-80h90z" />
    <glyph glyph-name="maitrilowrightthai" unicode="&#xf70c;" 
d="M-90 1078v-78h-127q-17 0 -26.5 10t-9.5 22v121q0 29 -14 51.5t-38 22.5q-25 -13 -54 -29.5t-55 -30.5l-105 58q-51 0 -51 -80q0 -25 11 -46t41 -21h48v-78h-51q-35 0 -58.5 12t-38 31.5t-21.5 44.5t-8 52q0 30 7 59.5t23 52.5t41.5 37t63.5 14h9l89 -54l89 54h10
q27 0 51.5 -11t43 -30.5t29.5 -46t11 -57.5v-80h90z" />
    <glyph glyph-name="maichattawalowrightthai" 
d="M-90 1092h-111v-92h-79v92h-111v68h111v92h79v-92h111v-68z" />
    <glyph glyph-name="maichattawalowrightthai" unicode="&#xf70d;" 
d="M-90 1092h-111v-92h-79v92h-111v68h111v92h79v-92h111v-68z" />
    <glyph glyph-name="maichattawalowrightthai" unicode="&#x17d;" 
d="M-90 1092h-111v-92h-79v92h-111v68h111v92h79v-92h111v-68z" />
    <glyph glyph-name="thanthakhatlowrightthai" 
d="M-20 1185v-80l-329 -24v-81h-79v151z" />
    <glyph glyph-name="thanthakhatlowrightthai" unicode="&#xf70e;" 
d="M-20 1185v-80l-329 -24v-81h-79v151z" />
    <glyph glyph-name="yoyingnobasethai" horiz-adv-x="1270" 
d="M1180 866v-625q0 -115 -55 -180.5t-173 -65.5h-95q-59 0 -102 17t-71 48.5t-41 77.5t-13 103v396q0 24 -11 50t-34 48.5t-59 38.5t-86 19q-17 1 -32 1h-28q-24 0 -47 -1t-48.5 -4t-56.5 -7.5t-71 -11.5q4 -45 9.5 -99.5t10.5 -99.5v-404q0 -28 4 -45.5t13 -27t22.5 -12.5
t32.5 -3h78v-79h-78q-72 0 -112 44t-40 123v404l-17 264q45 9 84.5 16t78 12t77.5 7.5t83 2.5h24.5t25.5 -1q51 -2 97 -19.5t81 -47.5t56 -72.5t21 -95.5v-396q0 -54 12 -86.5t32.5 -50.5t47.5 -24t57 -6h95q29 0 55.5 5.5t47 23.5t33 51t12.5 87v625h80z" />
    <glyph glyph-name="yoyingnobasethai" unicode="&#xf70f;" horiz-adv-x="1270" 
d="M1180 866v-625q0 -115 -55 -180.5t-173 -65.5h-95q-59 0 -102 17t-71 48.5t-41 77.5t-13 103v396q0 24 -11 50t-34 48.5t-59 38.5t-86 19q-17 1 -32 1h-28q-24 0 -47 -1t-48.5 -4t-56.5 -7.5t-71 -11.5q4 -45 9.5 -99.5t10.5 -99.5v-404q0 -28 4 -45.5t13 -27t22.5 -12.5
t32.5 -3h78v-79h-78q-72 0 -112 44t-40 123v404l-17 264q45 9 84.5 16t78 12t77.5 7.5t83 2.5h24.5t25.5 -1q51 -2 97 -19.5t81 -47.5t56 -72.5t21 -95.5v-396q0 -54 12 -86.5t32.5 -50.5t47.5 -24t57 -6h95q29 0 55.5 5.5t47 23.5t33 51t12.5 87v625h80z" />
    <glyph glyph-name="quoteleft" horiz-adv-x="324" 
d="M110 1204h104l-11 -330h-82z" />
    <glyph glyph-name="quoteleft" unicode="&#x2018;" horiz-adv-x="324" 
d="M110 1204h104l-11 -330h-82z" />
    <glyph glyph-name="quoteright" horiz-adv-x="324" 
d="M110 1204h104l-11 -330h-82z" />
    <glyph glyph-name="quoteright" unicode="&#x2019;" horiz-adv-x="324" 
d="M110 1204h104l-11 -330h-82z" />
    <glyph glyph-name="bullet" horiz-adv-x="633" 
d="M317 235q-42 0 -80 16.5t-66 45t-44.5 66t-16.5 79.5q0 43 16.5 80.5t45 65.5t66 44.5t79.5 16.5t79 -16.5t65.5 -44.5t45 -65.5t16.5 -80.5q0 -41 -16.5 -78.5t-45 -66t-65.5 -45.5t-79 -17z" />
    <glyph glyph-name="bullet" unicode="&#x2022;" horiz-adv-x="633" 
d="M317 235q-42 0 -80 16.5t-66 45t-44.5 66t-16.5 79.5q0 43 16.5 80.5t45 65.5t66 44.5t79.5 16.5t79 -16.5t65.5 -44.5t45 -65.5t16.5 -80.5q0 -41 -16.5 -78.5t-45 -66t-65.5 -45.5t-79 -17z" />
    <glyph glyph-name="endash" horiz-adv-x="867" 
d="M110 538h647v-79h-647v79z" />
    <glyph glyph-name="endash" unicode="&#x2013;" horiz-adv-x="867" 
d="M110 538h647v-79h-647v79z" />
    <glyph glyph-name="emdash" horiz-adv-x="1077" 
d="M110 538h857v-79h-857v79z" />
    <glyph glyph-name="emdash" unicode="&#x2014;" horiz-adv-x="1077" 
d="M110 538h857v-79h-857v79z" />
    <glyph glyph-name="maihanakatleftthai" 
d="M-270 1077v-77h-441v180h79v-103h362z" />
    <glyph glyph-name="maihanakatleftthai" unicode="&#xf710;" 
d="M-270 1077v-77h-441v180h79v-103h362z" />
    <glyph glyph-name="maihanakatleftthai" unicode="&#x2dc;" 
d="M-270 1077v-77h-441v180h79v-103h362z" />
    <glyph glyph-name="nikhahitleftthai" 
d="M-397 947q-29 0 -53.5 11t-43.5 29.5t-29.5 43.5t-10.5 54q0 28 10.5 53t29.5 44t43.5 30t53.5 11t54 -11t43.5 -30t29 -44t10.5 -53q0 -29 -10.5 -54t-29 -43.5t-43.5 -29.5t-54 -11zM-397 1151q-28 0 -46.5 -18.5t-18.5 -47.5q0 -27 18.5 -47t46.5 -20q29 0 48 20
t19 47q0 29 -19 47.5t-48 18.5z" />
    <glyph glyph-name="nikhahitleftthai" unicode="&#xf711;" 
d="M-397 947q-29 0 -53.5 11t-43.5 29.5t-29.5 43.5t-10.5 54q0 28 10.5 53t29.5 44t43.5 30t53.5 11t54 -11t43.5 -30t29 -44t10.5 -53q0 -29 -10.5 -54t-29 -43.5t-43.5 -29.5t-54 -11zM-397 1151q-28 0 -46.5 -18.5t-18.5 -47.5q0 -27 18.5 -47t46.5 -20q29 0 48 20
t19 47q0 29 -19 47.5t-48 18.5z" />
    <glyph glyph-name="nikhahitleftthai" unicode="&#x2122;" 
d="M-397 947q-29 0 -53.5 11t-43.5 29.5t-29.5 43.5t-10.5 54q0 28 10.5 53t29.5 44t43.5 30t53.5 11t54 -11t43.5 -30t29 -44t10.5 -53q0 -29 -10.5 -54t-29 -43.5t-43.5 -29.5t-54 -11zM-397 1151q-28 0 -46.5 -18.5t-18.5 -47.5q0 -27 18.5 -47t46.5 -20q29 0 48 20
t19 47q0 29 -19 47.5t-48 18.5z" />
    <glyph glyph-name="maitaikhuleftthai" 
d="M-536 1238q-11 0 -28.5 -3.5t-34 -13t-28.5 -28t-12 -48.5q0 -24 9 -41t22.5 -27t29 -14.5t28.5 -4.5q32 0 53.5 22t34.5 54h55q10 -30 34.5 -53.5t75.5 -23.5h36v-77h-36q-42 0 -79.5 21t-60.5 55q-25 -38 -50.5 -57t-62.5 -19q-36 0 -66.5 12.5t-53 34.5t-35 52
t-12.5 66t14 66.5t39 52.5t57.5 34.5t70.5 12.5h301v-73h-301z" />
    <glyph glyph-name="maitaikhuleftthai" unicode="&#xf712;" 
d="M-536 1238q-11 0 -28.5 -3.5t-34 -13t-28.5 -28t-12 -48.5q0 -24 9 -41t22.5 -27t29 -14.5t28.5 -4.5q32 0 53.5 22t34.5 54h55q10 -30 34.5 -53.5t75.5 -23.5h36v-77h-36q-42 0 -79.5 21t-60.5 55q-25 -38 -50.5 -57t-62.5 -19q-36 0 -66.5 12.5t-53 34.5t-35 52
t-12.5 66t14 66.5t39 52.5t57.5 34.5t70.5 12.5h301v-73h-301z" />
    <glyph glyph-name="maitaikhuleftthai" unicode="&#x161;" 
d="M-536 1238q-11 0 -28.5 -3.5t-34 -13t-28.5 -28t-12 -48.5q0 -24 9 -41t22.5 -27t29 -14.5t28.5 -4.5q32 0 53.5 22t34.5 54h55q10 -30 34.5 -53.5t75.5 -23.5h36v-77h-36q-42 0 -79.5 21t-60.5 55q-25 -38 -50.5 -57t-62.5 -19q-36 0 -66.5 12.5t-53 34.5t-35 52
t-12.5 66t14 66.5t39 52.5t57.5 34.5t70.5 12.5h301v-73h-301z" />
    <glyph glyph-name="maiekupperleftthai" 
d="M-270 1280h-79v228h79v-228z" />
    <glyph glyph-name="maiekupperleftthai" unicode="&#xf713;" 
d="M-270 1280h-79v228h79v-228z" />
    <glyph glyph-name="maiekupperleftthai" unicode="&#x203a;" 
d="M-270 1280h-79v228h79v-228z" />
    <glyph glyph-name="maithoupperleftthai" 
d="M-90 1357v-77h-428l9 120h-87v77h169l-8 -120h345z" />
    <glyph glyph-name="maithoupperleftthai" unicode="&#xf714;" 
d="M-90 1357v-77h-428l9 120h-87v77h169l-8 -120h345z" />
    <glyph glyph-name="maithoupperleftthai" unicode="&#x153;" 
d="M-90 1357v-77h-428l9 120h-87v77h169l-8 -120h345z" />
    <glyph glyph-name="maitriupperleftthai" 
d="M-90 1348v-78h-127q-17 0 -26.5 10t-9.5 22v111q0 29 -14 46.5t-38 17.5q-25 -13 -54 -29.5t-55 -30.5l-105 58q-26 0 -38.5 -14.5t-12.5 -55.5q0 -25 11 -41t41 -16h48v-78h-51q-35 0 -58.5 10.5t-38 28t-21.5 41t-8 50.5q0 30 7 58t23 49t41.5 33.5t63.5 12.5h9l89 -54
l89 54h10q27 0 51.5 -9.5t43 -27t29.5 -42.5t11 -56v-70h90z" />
    <glyph glyph-name="maitriupperleftthai" unicode="&#xf715;" 
d="M-90 1348v-78h-127q-17 0 -26.5 10t-9.5 22v111q0 29 -14 46.5t-38 17.5q-25 -13 -54 -29.5t-55 -30.5l-105 58q-26 0 -38.5 -14.5t-12.5 -55.5q0 -25 11 -41t41 -16h48v-78h-51q-35 0 -58.5 10.5t-38 28t-21.5 41t-8 50.5q0 30 7 58t23 49t41.5 33.5t63.5 12.5h9l89 -54
l89 54h10q27 0 51.5 -9.5t43 -27t29.5 -42.5t11 -56v-70h90z" />
    <glyph glyph-name="maichattawaupperleftthai" 
d="M-159 1363h-111v-88h-79v88h-111v68h111v88h79v-88h111v-68z" />
    <glyph glyph-name="maichattawaupperleftthai" unicode="&#xf716;" 
d="M-159 1363h-111v-88h-79v88h-111v68h111v88h79v-88h111v-68z" />
    <glyph glyph-name="maichattawaupperleftthai" unicode="&#x17e;" 
d="M-159 1363h-111v-88h-79v88h-111v68h111v88h79v-88h111v-68z" />
    <glyph glyph-name="thanthakhatupperleftthai" 
d="M-90 1455v-80l-329 -24v-81h-79v151z" />
    <glyph glyph-name="thanthakhatupperleftthai" unicode="&#xf717;" 
d="M-90 1455v-80l-329 -24v-81h-79v151z" />
    <glyph glyph-name="thanthakhatupperleftthai" unicode="&#x178;" 
d="M-90 1455v-80l-329 -24v-81h-79v151z" />
    <glyph glyph-name="uni00A0" unicode="&#xa0;" horiz-adv-x="463" 
 />
    <glyph glyph-name="uni00A0" unicode="&#xe00;" horiz-adv-x="463" 
 />
    <glyph glyph-name="kokaithai" unicode="&#xa1;" horiz-adv-x="840" 
d="M495 872q50 -2 96 -19.5t81.5 -47.5t56.5 -72.5t21 -95.5v-637h-79v637q0 24 -11 50t-34 48.5t-59 38.5t-86 19q-17 1 -33 1h-32q-57 0 -118 -5t-141 -19q4 -45 9.5 -99.5t9.5 -99.5v-571h-79v571l-17 264q93 18 180 28t183 10h25.5t26.5 -1z" />
    <glyph glyph-name="kokaithai" unicode="&#xe01;" horiz-adv-x="840" 
d="M495 872q50 -2 96 -19.5t81.5 -47.5t56.5 -72.5t21 -95.5v-637h-79v637q0 24 -11 50t-34 48.5t-59 38.5t-86 19q-17 1 -33 1h-32q-57 0 -118 -5t-141 -19q4 -45 9.5 -99.5t9.5 -99.5v-571h-79v571l-17 264q93 18 180 28t183 10h25.5t26.5 -1z" />
    <glyph glyph-name="khokhaithai" unicode="&#xa2;" horiz-adv-x="778" 
d="M688 241q0 -57 -18 -103t-51.5 -77.5t-81.5 -48.5t-108 -17h-81q-60 0 -108 17t-81 48.5t-51 77.5t-18 103v141q0 19 4 37t13 35l132 244v89h-132v79h182q12 0 20.5 -8.5t8.5 -20.5v-135q0 -11 -2.5 -23t-9.5 -23l-129 -237q-8 -19 -8 -37v-141q0 -54 17.5 -86.5
t43.5 -50.5t57.5 -24t60.5 -6h81q28 0 59.5 6t58.5 24t44.5 50.5t17.5 86.5v625h79v-625z" />
    <glyph glyph-name="khokhaithai" unicode="&#xe02;" horiz-adv-x="778" 
d="M688 241q0 -57 -18 -103t-51.5 -77.5t-81.5 -48.5t-108 -17h-81q-60 0 -108 17t-81 48.5t-51 77.5t-18 103v141q0 19 4 37t13 35l132 244v89h-132v79h182q12 0 20.5 -8.5t8.5 -20.5v-135q0 -11 -2.5 -23t-9.5 -23l-129 -237q-8 -19 -8 -37v-141q0 -54 17.5 -86.5
t43.5 -50.5t57.5 -24t60.5 -6h81q28 0 59.5 6t58.5 24t44.5 50.5t17.5 86.5v625h79v-625z" />
    <glyph glyph-name="khokhuatthai" unicode="&#xa3;" horiz-adv-x="789" 
d="M699 866v-625q0 -57 -18 -103t-51 -77.5t-81 -48.5t-108 -17h-81q-60 0 -108 17t-81.5 48.5t-51.5 77.5t-18 103v125q0 17 5 36.5t13 35.5l177 246v112q-15 -9 -34 -21t-39.5 -24.5t-40 -25t-34.5 -21.5h-78v162h77v-89q34 21 73.5 44t74.5 45h77v-208l-185 -259
q-3 -10 -5 -17.5t-2 -15.5v-125q0 -53 17 -85.5t43.5 -50.5t58.5 -24.5t61 -6.5h81q28 0 60 6t58.5 24t44 50.5t17.5 86.5v625h78z" />
    <glyph glyph-name="khokhuatthai" unicode="&#xe03;" horiz-adv-x="789" 
d="M699 866v-625q0 -57 -18 -103t-51 -77.5t-81 -48.5t-108 -17h-81q-60 0 -108 17t-81.5 48.5t-51.5 77.5t-18 103v125q0 17 5 36.5t13 35.5l177 246v112q-15 -9 -34 -21t-39.5 -24.5t-40 -25t-34.5 -21.5h-78v162h77v-89q34 21 73.5 44t74.5 45h77v-208l-185 -259
q-3 -10 -5 -17.5t-2 -15.5v-125q0 -53 17 -85.5t43.5 -50.5t58.5 -24.5t61 -6.5h81q28 0 60 6t58.5 24t44 50.5t17.5 86.5v625h78z" />
    <glyph glyph-name="khokhwaithai" unicode="&#xa4;" horiz-adv-x="861" 
d="M431 873q60 0 120.5 -13.5t109 -43.5t79.5 -79t31 -119v-618h-79v618q0 88 -70.5 132t-190.5 44t-191 -43t-71 -133v-300l164 103h-1q12 7 21 7h133v-80h-121l-196 -123v-225h-79v618q0 69 29.5 117t77.5 79t109.5 45t124.5 14z" />
    <glyph glyph-name="khokhwaithai" unicode="&#xe04;" horiz-adv-x="861" 
d="M431 873q60 0 120.5 -13.5t109 -43.5t79.5 -79t31 -119v-618h-79v618q0 88 -70.5 132t-190.5 44t-191 -43t-71 -133v-300l164 103h-1q12 7 21 7h133v-80h-121l-196 -123v-225h-79v618q0 69 29.5 117t77.5 79t109.5 45t124.5 14z" />
    <glyph glyph-name="khokhonthai" unicode="&#xa5;" horiz-adv-x="860" 
d="M270 791q-54 0 -77.5 -34.5t-23.5 -89.5v-349l164 103q12 7 20 7h133v-80h-122l-195 -123v-225h-79v669q0 40 10 76.5t29 64t46 44t62 16.5h53l140 -82l140 82h53q34 0 61.5 -16.5t46.5 -44t29 -64t10 -76.5v-669h-79v667q0 55 -23.5 89.5t-76.5 34.5l-161 -88z" />
    <glyph glyph-name="khokhonthai" unicode="&#xe05;" horiz-adv-x="860" 
d="M270 791q-54 0 -77.5 -34.5t-23.5 -89.5v-349l164 103q12 7 20 7h133v-80h-122l-195 -123v-225h-79v669q0 40 10 76.5t29 64t46 44t62 16.5h53l140 -82l140 82h53q34 0 61.5 -16.5t46.5 -44t29 -64t10 -76.5v-669h-79v667q0 55 -23.5 89.5t-76.5 34.5l-161 -88z" />
    <glyph glyph-name="khorakhangthai" unicode="&#xa6;" horiz-adv-x="829" 
d="M434 79h102q65 0 94.5 30t29.5 97v660h79v-660q0 -97 -53.5 -151.5t-149.5 -54.5h-113q-10 0 -20 4l-224 131v-135h-78v366q0 17 3.5 37.5t14.5 34.5l177 246v112l-148 -92h-78v162h77v-89q34 21 73.5 44t74.5 45h77v-208l-181 -253q-6 -8 -8 -19.5t-2 -19.5v-140z" />
    <glyph glyph-name="khorakhangthai" unicode="&#xe06;" horiz-adv-x="829" 
d="M434 79h102q65 0 94.5 30t29.5 97v660h79v-660q0 -97 -53.5 -151.5t-149.5 -54.5h-113q-10 0 -20 4l-224 131v-135h-78v366q0 17 3.5 37.5t14.5 34.5l177 246v112l-148 -92h-78v162h77v-89q34 21 73.5 44t74.5 45h77v-208l-181 -253q-6 -8 -8 -19.5t-2 -19.5v-140z" />
    <glyph glyph-name="ngonguthai" unicode="&#xa7;" horiz-adv-x="706" 
d="M399 866q67 0 111 -30t70 -79t36.5 -112.5t10.5 -130.5v-85q0 -57 -1 -115t-7 -116q-12 -94 -69 -146t-151 -52h-148q-54 118 -104 231t-104 230h82l173 -382h101q51 0 80.5 16t44.5 49.5t19 84.5t4 121v112q0 29 -0.5 64.5t-5 71.5t-13 70t-25 60.5t-42 42.5t-62.5 16
h-68v79h68z" />
    <glyph glyph-name="ngonguthai" unicode="&#xe07;" horiz-adv-x="706" 
d="M399 866q67 0 111 -30t70 -79t36.5 -112.5t10.5 -130.5v-85q0 -57 -1 -115t-7 -116q-12 -94 -69 -146t-151 -52h-148q-54 118 -104 231t-104 230h82l173 -382h101q51 0 80.5 16t44.5 49.5t19 84.5t4 121v112q0 29 -0.5 64.5t-5 71.5t-13 70t-25 60.5t-42 42.5t-62.5 16
h-68v79h68z" />
    <glyph glyph-name="chochanthai" unicode="&#xa8;" horiz-adv-x="786" 
d="M695 670q9 -118 10.5 -235t-10.5 -236q-5 -45 -22.5 -81.5t-49 -62.5t-77.5 -40.5t-107 -14.5h-148l-117 384h-94v78h148l117 -383h94q81 0 126 35t52 93q3 26 5 66t3 86.5t0.5 94.5t-1.5 89.5t-3 72t-4 41.5q-6 42 -23 68t-41 41t-53 20.5t-59 6.5q-87 4 -175.5 -6
t-185.5 -26v82q95 20 184.5 25t178.5 5q37 0 79.5 -9t79.5 -31.5t62.5 -62t30.5 -100.5z" />
    <glyph glyph-name="chochanthai" unicode="&#xe08;" horiz-adv-x="786" 
d="M695 670q9 -118 10.5 -235t-10.5 -236q-5 -45 -22.5 -81.5t-49 -62.5t-77.5 -40.5t-107 -14.5h-148l-117 384h-94v78h148l117 -383h94q81 0 126 35t52 93q3 26 5 66t3 86.5t0.5 94.5t-1.5 89.5t-3 72t-4 41.5q-6 42 -23 68t-41 41t-53 20.5t-59 6.5q-87 4 -175.5 -6
t-185.5 -26v82q95 20 184.5 25t178.5 5q37 0 79.5 -9t79.5 -31.5t62.5 -62t30.5 -100.5z" />
    <glyph glyph-name="chochingthai" unicode="&#xa9;" horiz-adv-x="806" 
d="M465 872q48 -2 93 -18t80.5 -44.5t56.5 -69t21 -92.5v-648h-80v135l-222 -131q-10 -4 -20 -4h-100q-94 0 -149 54.5t-55 151.5v229h79v-229q0 -69 29.5 -98t95.5 -29h89l253 147v422q0 24 -9.5 48.5t-30.5 45t-54 34.5t-79 16q-14 1 -28 1h-27q-82 0 -157.5 -9
t-149.5 -23v80q75 13 152 22.5t162 9.5h24.5t25.5 -1z" />
    <glyph glyph-name="chochingthai" unicode="&#xe09;" horiz-adv-x="806" 
d="M465 872q48 -2 93 -18t80.5 -44.5t56.5 -69t21 -92.5v-648h-80v135l-222 -131q-10 -4 -20 -4h-100q-94 0 -149 54.5t-55 151.5v229h79v-229q0 -69 29.5 -98t95.5 -29h89l253 147v422q0 24 -9.5 48.5t-30.5 45t-54 34.5t-79 16q-14 1 -28 1h-27q-82 0 -157.5 -9
t-149.5 -23v80q75 13 152 22.5t162 9.5h24.5t25.5 -1z" />
    <glyph glyph-name="chochangthai" unicode="&#xaa;" horiz-adv-x="779" 
d="M689 513v-272q0 -57 -18 -103t-52 -77.5t-81.5 -48.5t-107.5 -17h-81q-60 0 -108 17t-81.5 48.5t-51.5 77.5t-18 103v140q0 19 4 37t13 35l133 243v91h-133v79h183q11 0 20 -8.5t9 -20.5v-136q0 -25 -12 -46v1l-130 -238q-8 -19 -8 -37v-140q0 -53 17 -85.5t43.5 -50.5
t58 -24.5t61.5 -6.5h81q27 0 58.5 5.5t58.5 23.5t45 51t18 87v246l-137 206l159 190l58 -50l-122 -144z" />
    <glyph glyph-name="chochangthai" unicode="&#xe0a;" horiz-adv-x="779" 
d="M689 513v-272q0 -57 -18 -103t-52 -77.5t-81.5 -48.5t-107.5 -17h-81q-60 0 -108 17t-81.5 48.5t-51.5 77.5t-18 103v140q0 19 4 37t13 35l133 243v91h-133v79h183q11 0 20 -8.5t9 -20.5v-136q0 -25 -12 -46v1l-130 -238q-8 -19 -8 -37v-140q0 -53 17 -85.5t43.5 -50.5
t58 -24.5t61.5 -6.5h81q27 0 58.5 5.5t58.5 23.5t45 51t18 87v246l-137 206l159 190l58 -50l-122 -144z" />
    <glyph glyph-name="sosothai" unicode="&#xab;" horiz-adv-x="789" 
d="M441 74q28 0 60 6t58.5 24t44 50.5t17.5 86.5v246l-138 206l159 190l58 -50l-122 -144l121 -176v-272q0 -57 -18 -103t-51 -77.5t-81 -48.5t-108 -17h-81q-60 0 -108 17t-81.5 48.5t-51.5 77.5t-18 103v125q0 17 5 36.5t13 35.5l177 246v112l-148 -92h-78v162h77v-89
q34 21 73.5 44t74.5 45h77v-208l-185 -259q-3 -10 -5 -17.5t-2 -15.5v-125q0 -53 17 -85.5t43.5 -50.5t58.5 -24.5t61 -6.5h81v0z" />
    <glyph glyph-name="sosothai" unicode="&#xe0b;" horiz-adv-x="789" 
d="M441 74q28 0 60 6t58.5 24t44 50.5t17.5 86.5v246l-138 206l159 190l58 -50l-122 -144l121 -176v-272q0 -57 -18 -103t-51 -77.5t-81 -48.5t-108 -17h-81q-60 0 -108 17t-81.5 48.5t-51.5 77.5t-18 103v125q0 17 5 36.5t13 35.5l177 246v112l-148 -92h-78v162h77v-89
q34 21 73.5 44t74.5 45h77v-208l-185 -259q-3 -10 -5 -17.5t-2 -15.5v-125q0 -53 17 -85.5t43.5 -50.5t58.5 -24.5t61 -6.5h81v0z" />
    <glyph glyph-name="chochoethai" unicode="&#xac;" horiz-adv-x="1271" 
d="M1181 866v-660q0 -97 -55.5 -151.5t-148.5 -54.5h-86h-10.5t-8.5 2l-163 136v-138h-79v637q0 24 -10.5 50t-33.5 48.5t-59 38.5t-86 19q-17 1 -32 1h-28q-24 0 -46.5 -1t-48.5 -4t-57 -7.5t-72 -11.5l21 -199l-1 -404q0 -28 4.5 -45.5t13.5 -27t23 -12.5t32 -3h77v-79
h-77q-72 0 -112 44t-40 123v404l-18 264q45 9 84.5 16t78 12t77.5 7.5t84 2.5h24.5t25.5 -1q51 -2 97 -19.5t81 -47.5t56 -72.5t21 -95.5v-407l189 -151h79q66 0 95 29t29 98v660h80z" />
    <glyph glyph-name="chochoethai" unicode="&#xe0c;" horiz-adv-x="1271" 
d="M1181 866v-660q0 -97 -55.5 -151.5t-148.5 -54.5h-86h-10.5t-8.5 2l-163 136v-138h-79v637q0 24 -10.5 50t-33.5 48.5t-59 38.5t-86 19q-17 1 -32 1h-28q-24 0 -46.5 -1t-48.5 -4t-57 -7.5t-72 -11.5l21 -199l-1 -404q0 -28 4.5 -45.5t13.5 -27t23 -12.5t32 -3h77v-79
h-77q-72 0 -112 44t-40 123v404l-18 264q45 9 84.5 16t78 12t77.5 7.5t84 2.5h24.5t25.5 -1q51 -2 97 -19.5t81 -47.5t56 -72.5t21 -95.5v-407l189 -151h79q66 0 95 29t29 98v660h80z" />
    <glyph glyph-name="yoyingthai" unicode="&#xad;" horiz-adv-x="1285" 
d="M808 0q-44 0 -76 17t-53 45.5t-31.5 66.5t-10.5 81v425q0 24 -11 50t-34.5 49t-59.5 39t-87 20q-17 1 -32 1h-29q-24 0 -47.5 -1.5t-49.5 -4.5t-57.5 -7.5t-71.5 -11.5q2 -22 4.5 -48t5.5 -52.5t5.5 -52.5t4.5 -48l-1 -399q0 -28 4.5 -45.5t14 -27t23.5 -13t32 -3.5h79
v-80h-79q-72 0 -113 44.5t-41 124.5v399l-17 268q46 9 86 16t79 11.5t78 7t84 2.5h25.5t25.5 -1q51 -2 98 -19t83 -47.5t57 -73.5t21 -97v-425q0 -49 10 -75.5t24 -38.5t30 -14t27 -2h106l200 94v692h80l1 -937q0 -55 -22 -96.5t-59 -70t-86 -43.5t-102 -18q-13 -1 -25 -1
h-24q-57 0 -110.5 5t-115.5 14v83q51 -9 105 -14.5t118 -5.5h24.5t25.5 1q51 3 87 17.5t59 35.5t33.5 45.5t10.5 48.5v155l-174 -82q-5 -3 -16 -3h-116v0z" />
    <glyph glyph-name="yoyingthai" unicode="&#xe0d;" horiz-adv-x="1285" 
d="M808 0q-44 0 -76 17t-53 45.5t-31.5 66.5t-10.5 81v425q0 24 -11 50t-34.5 49t-59.5 39t-87 20q-17 1 -32 1h-29q-24 0 -47.5 -1.5t-49.5 -4.5t-57.5 -7.5t-71.5 -11.5q2 -22 4.5 -48t5.5 -52.5t5.5 -52.5t4.5 -48l-1 -399q0 -28 4.5 -45.5t14 -27t23.5 -13t32 -3.5h79
v-80h-79q-72 0 -113 44.5t-41 124.5v399l-17 268q46 9 86 16t79 11.5t78 7t84 2.5h25.5t25.5 -1q51 -2 98 -19t83 -47.5t57 -73.5t21 -97v-425q0 -49 10 -75.5t24 -38.5t30 -14t27 -2h106l200 94v692h80l1 -937q0 -55 -22 -96.5t-59 -70t-86 -43.5t-102 -18q-13 -1 -25 -1
h-24q-57 0 -110.5 5t-115.5 14v83q51 -9 105 -14.5t118 -5.5h24.5t25.5 1q51 3 87 17.5t59 35.5t33.5 45.5t10.5 48.5v155l-174 -82q-5 -3 -16 -3h-116v0z" />
    <glyph glyph-name="yoyingthai" unicode="&#xde;" horiz-adv-x="1285" 
d="M808 0q-44 0 -76 17t-53 45.5t-31.5 66.5t-10.5 81v425q0 24 -11 50t-34.5 49t-59.5 39t-87 20q-17 1 -32 1h-29q-24 0 -47.5 -1.5t-49.5 -4.5t-57.5 -7.5t-71.5 -11.5q2 -22 4.5 -48t5.5 -52.5t5.5 -52.5t4.5 -48l-1 -399q0 -28 4.5 -45.5t14 -27t23.5 -13t32 -3.5h79
v-80h-79q-72 0 -113 44.5t-41 124.5v399l-17 268q46 9 86 16t79 11.5t78 7t84 2.5h25.5t25.5 -1q51 -2 98 -19t83 -47.5t57 -73.5t21 -97v-425q0 -49 10 -75.5t24 -38.5t30 -14t27 -2h106l200 94v692h80l1 -937q0 -55 -22 -96.5t-59 -70t-86 -43.5t-102 -18q-13 -1 -25 -1
h-24q-57 0 -110.5 5t-115.5 14v83q51 -9 105 -14.5t118 -5.5h24.5t25.5 1q51 3 87 17.5t59 35.5t33.5 45.5t10.5 48.5v155l-174 -82q-5 -3 -16 -3h-116v0z" />
    <glyph glyph-name="dochadathai" unicode="&#xae;" horiz-adv-x="869" 
d="M779 -130q0 -52 -22 -92t-58.5 -68t-84.5 -44t-100 -21q-13 -1 -26 -1h-27q-69 0 -143 9t-152 23v80q72 -14 149 -23.5t158 -9.5q9 0 18.5 0.5t19.5 0.5q54 2 90 16t57.5 35t31 46t9.5 49v767q0 24 -10.5 50t-33.5 48.5t-59 38.5t-86 19q-17 1 -32.5 1h-29.5
q-25 0 -49.5 -1t-52 -4t-59.5 -7.5t-72 -11.5q4 -45 9.5 -99.5t9.5 -99.5v-493q0 -33 -22.5 -55.5t-54.5 -22.5h-107v79h76q16 0 22.5 5.5t6.5 22.5v466q-6 66 -12.5 131t-12.5 131q46 9 87.5 16t82.5 12t83 7.5t89 2.5h25.5t26.5 -1q50 -2 96 -19.5t81.5 -47.5t56.5 -72.5
t21 -95.5v-767z" />
    <glyph glyph-name="dochadathai" unicode="&#xe0e;" horiz-adv-x="869" 
d="M779 -130q0 -52 -22 -92t-58.5 -68t-84.5 -44t-100 -21q-13 -1 -26 -1h-27q-69 0 -143 9t-152 23v80q72 -14 149 -23.5t158 -9.5q9 0 18.5 0.5t19.5 0.5q54 2 90 16t57.5 35t31 46t9.5 49v767q0 24 -10.5 50t-33.5 48.5t-59 38.5t-86 19q-17 1 -32.5 1h-29.5
q-25 0 -49.5 -1t-52 -4t-59.5 -7.5t-72 -11.5q4 -45 9.5 -99.5t9.5 -99.5v-493q0 -33 -22.5 -55.5t-54.5 -22.5h-107v79h76q16 0 22.5 5.5t6.5 22.5v466q-6 66 -12.5 131t-12.5 131q46 9 87.5 16t82.5 12t83 7.5t89 2.5h25.5t26.5 -1q50 -2 96 -19.5t81.5 -47.5t56.5 -72.5
t21 -95.5v-767z" />
    <glyph glyph-name="topatakthai" unicode="&#xaf;" horiz-adv-x="869" 
d="M779 -158q0 -90 -49.5 -143.5t-134.5 -53.5q-60 0 -104 23.5t-73 55.5q-29 -36 -61 -56.5t-65 -22.5h1q-49 -2 -93.5 3t-92.5 19v83q42 -14 84.5 -20.5t96.5 -4.5q30 2 54.5 34t29.5 90h82q5 -57 41 -90.5t100 -33.5q39 0 60.5 14t31.5 32.5t11.5 38t1.5 31.5v796
q0 24 -11 50t-34.5 48.5t-59.5 38.5t-86 19q-17 1 -32.5 1h-29.5q-25 0 -49.5 -1t-52 -4t-59 -7.5t-71.5 -11.5q4 -45 9.5 -99.5t9.5 -99.5v-493q0 -33 -22.5 -55.5t-54.5 -22.5h-107v79h75q17 0 23.5 5.5t6.5 22.5v466q-6 66 -13 131t-13 131q46 9 87.5 16t83 12t83.5 7.5
t88 2.5h25.5t26.5 -1q50 -2 96.5 -19t82 -47.5t56.5 -73t21 -95.5v-795z" />
    <glyph glyph-name="topatakthai" unicode="&#xe0f;" horiz-adv-x="869" 
d="M779 -158q0 -90 -49.5 -143.5t-134.5 -53.5q-60 0 -104 23.5t-73 55.5q-29 -36 -61 -56.5t-65 -22.5h1q-49 -2 -93.5 3t-92.5 19v83q42 -14 84.5 -20.5t96.5 -4.5q30 2 54.5 34t29.5 90h82q5 -57 41 -90.5t100 -33.5q39 0 60.5 14t31.5 32.5t11.5 38t1.5 31.5v796
q0 24 -11 50t-34.5 48.5t-59.5 38.5t-86 19q-17 1 -32.5 1h-29.5q-25 0 -49.5 -1t-52 -4t-59 -7.5t-71.5 -11.5q4 -45 9.5 -99.5t9.5 -99.5v-493q0 -33 -22.5 -55.5t-54.5 -22.5h-107v79h75q17 0 23.5 5.5t6.5 22.5v466q-6 66 -13 131t-13 131q46 9 87.5 16t83 12t83.5 7.5
t88 2.5h25.5t26.5 -1q50 -2 96.5 -19t82 -47.5t56.5 -73t21 -95.5v-795z" />
    <glyph glyph-name="thothanthai" unicode="&#xb0;" horiz-adv-x="788" 
d="M783 817l-141 -20q21 -32 34.5 -64.5t18.5 -65.5q6 -57 9 -117t3 -117t-3 -117.5t-9 -118.5q-7 -54 -37.5 -100.5t-88.5 -78.5q29 -29 67.5 -56.5t69.5 -56.5l1 -71q0 -42 -13 -76.5t-36 -59t-55.5 -38.5t-70.5 -14q-57 0 -98 22t-69 51q-27 -32 -58 -51.5t-67 -21.5
q-37 -4 -75 1.5t-85 17.5v82q36 -12 75.5 -18t87.5 -4q21 2 35.5 14.5t23 31t12.5 39.5t6 39h82q5 -53 36 -88.5t94 -35.5q31 0 50 11.5t29 28t13 35.5t3 34v39l-148 127h-188l-117 384h-94v77h39t35.5 0.5t35.5 0.5h38l117 -383h95q80 0 125 34.5t53 92.5q6 56 9 114.5
t3 114.5q0 55 -3 111.5t-9 108.5q-8 43 -25 69.5t-41 41t-52.5 20t-58.5 6.5q-12 1 -24.5 1h-24.5q-76 0 -151 -9t-161 -24v81q75 13 152 22.5t162 9.5h24t26 -1q53 -2 110 -21l229 45v-79z" />
    <glyph glyph-name="thothanthai" unicode="&#xe10;" horiz-adv-x="788" 
d="M783 817l-141 -20q21 -32 34.5 -64.5t18.5 -65.5q6 -57 9 -117t3 -117t-3 -117.5t-9 -118.5q-7 -54 -37.5 -100.5t-88.5 -78.5q29 -29 67.5 -56.5t69.5 -56.5l1 -71q0 -42 -13 -76.5t-36 -59t-55.5 -38.5t-70.5 -14q-57 0 -98 22t-69 51q-27 -32 -58 -51.5t-67 -21.5
q-37 -4 -75 1.5t-85 17.5v82q36 -12 75.5 -18t87.5 -4q21 2 35.5 14.5t23 31t12.5 39.5t6 39h82q5 -53 36 -88.5t94 -35.5q31 0 50 11.5t29 28t13 35.5t3 34v39l-148 127h-188l-117 384h-94v77h39t35.5 0.5t35.5 0.5h38l117 -383h95q80 0 125 34.5t53 92.5q6 56 9 114.5
t3 114.5q0 55 -3 111.5t-9 108.5q-8 43 -25 69.5t-41 41t-52.5 20t-58.5 6.5q-12 1 -24.5 1h-24.5q-76 0 -151 -9t-161 -24v81q75 13 152 22.5t162 9.5h24t26 -1q53 -2 110 -21l229 45v-79z" />
    <glyph glyph-name="thonangmonthothai" unicode="&#xb1;" horiz-adv-x="918" 
d="M624 866q46 0 83.5 -14t64.5 -40.5t41.5 -65t14.5 -86.5v-660h-79v660q0 68 -29 98t-96 30h-54l-320 -306v-482h-78v514l114 110v172l-148 -92h-78v162h77v-89q34 21 73.5 44t74.5 45h77v-168l175 168h87v0z" />
    <glyph glyph-name="thonangmonthothai" unicode="&#xe11;" horiz-adv-x="918" 
d="M624 866q46 0 83.5 -14t64.5 -40.5t41.5 -65t14.5 -86.5v-660h-79v660q0 68 -29 98t-96 30h-54l-320 -306v-482h-78v514l114 110v172l-148 -92h-78v162h77v-89q34 21 73.5 44t74.5 45h77v-168l175 168h87v0z" />
    <glyph glyph-name="thophuthaothai" unicode="&#xb2;" horiz-adv-x="1333" 
d="M388 377v130h85v-153l-302 -354h-81v672q0 40 10 76.5t29 64t46 44t62 16.5h53l140 -82l140 82h53q34 0 61.5 -16.5t47 -44t29.5 -64t10 -76.5v-442l189 -151h78q67 0 96 29t29 98v660h80v-660q0 -48 -14.5 -86t-41.5 -65t-65 -41t-84 -14h-86h-10t-8 2l-163 136v-138
h-80v670q0 27 -5 50t-16.5 39.5t-30.5 25.5t-48 9l-161 -88l-161 88q-54 0 -77 -34.5t-23 -89.5v-551z" />
    <glyph glyph-name="thophuthaothai" unicode="&#xe12;" horiz-adv-x="1333" 
d="M388 377v130h85v-153l-302 -354h-81v672q0 40 10 76.5t29 64t46 44t62 16.5h53l140 -82l140 82h53q34 0 61.5 -16.5t47 -44t29.5 -64t10 -76.5v-442l189 -151h78q67 0 96 29t29 98v660h80v-660q0 -48 -14.5 -86t-41.5 -65t-65 -41t-84 -14h-86h-10t-8 2l-163 136v-138
h-80v670q0 27 -5 50t-16.5 39.5t-30.5 25.5t-48 9l-161 -88l-161 88q-54 0 -77 -34.5t-23 -89.5v-551z" />
    <glyph glyph-name="nonenthai" unicode="&#xb3;" horiz-adv-x="1271" 
d="M1181 866v-866h-80v135l-182 -132q-3 -2 -8.5 -2.5t-11.5 -0.5h-65q-94 0 -149 54.5t-55 151.5v431q0 24 -10.5 50t-33.5 48.5t-59 38.5t-86 19q-17 1 -32 1h-28q-24 0 -46.5 -1t-48.5 -4t-57 -7.5t-72 -11.5l21 -199l-1 -404q0 -28 4.5 -45.5t13.5 -27t23 -12.5t32 -3
h77v-79h-77q-72 0 -112 44t-40 123v404l-18 264q45 9 84.5 16t78 12t77.5 7.5t84 2.5h24.5t25.5 -1q51 -2 97 -19.5t81 -47.5t56 -72.5t21 -95.5v-431q0 -69 29.5 -98t95.5 -29h56l211 151v636h80z" />
    <glyph glyph-name="nonenthai" unicode="&#xe13;" horiz-adv-x="1271" 
d="M1181 866v-866h-80v135l-182 -132q-3 -2 -8.5 -2.5t-11.5 -0.5h-65q-94 0 -149 54.5t-55 151.5v431q0 24 -10.5 50t-33.5 48.5t-59 38.5t-86 19q-17 1 -32 1h-28q-24 0 -46.5 -1t-48.5 -4t-57 -7.5t-72 -11.5l21 -199l-1 -404q0 -28 4.5 -45.5t13.5 -27t23 -12.5t32 -3
h77v-79h-77q-72 0 -112 44t-40 123v404l-18 264q45 9 84.5 16t78 12t77.5 7.5t84 2.5h24.5t25.5 -1q51 -2 97 -19.5t81 -47.5t56 -72.5t21 -95.5v-431q0 -69 29.5 -98t95.5 -29h56l211 151v636h80z" />
    <glyph glyph-name="dodekthai" unicode="&#xb4;" horiz-adv-x="862" 
d="M431 873q59 0 120 -13.5t110 -43.5t80 -79t31 -119v-618h-79v618q0 88 -70.5 132t-191.5 44t-191.5 -44t-70.5 -132v-499l220 258v130h85v-153l-303 -354h-81v618q0 69 29.5 117t77.5 79t109.5 45t124.5 14z" />
    <glyph glyph-name="dodekthai" unicode="&#xe14;" horiz-adv-x="862" 
d="M431 873q59 0 120 -13.5t110 -43.5t80 -79t31 -119v-618h-79v618q0 88 -70.5 132t-191.5 44t-191.5 -44t-70.5 -132v-499l220 258v130h85v-153l-303 -354h-81v618q0 69 29.5 117t77.5 79t109.5 45t124.5 14z" />
    <glyph glyph-name="totaothai" unicode="&#xb5;" horiz-adv-x="870" 
d="M393 383v130h86v-155l-307 -358h-82v670q0 41 10 78t29.5 64.5t47.5 44t63 16.5h53l142 -83l142 83h54q35 0 62.5 -16.5t47 -44t29.5 -64.5t10 -78v-670h-80v668q0 56 -25.5 90.5t-76.5 34.5l-163 -89l-163 89q-52 0 -77 -34.5t-25 -90.5v-547z" />
    <glyph glyph-name="totaothai" unicode="&#xe15;" horiz-adv-x="870" 
d="M393 383v130h86v-155l-307 -358h-82v670q0 41 10 78t29.5 64.5t47.5 44t63 16.5h53l142 -83l142 83h54q35 0 62.5 -16.5t47 -44t29.5 -64.5t10 -78v-670h-80v668q0 56 -25.5 90.5t-76.5 34.5l-163 -89l-163 89q-52 0 -77 -34.5t-25 -90.5v-547z" />
    <glyph glyph-name="thothungthai" unicode="&#xb6;" horiz-adv-x="840" 
d="M750 0h-79v637q0 24 -11 50t-34 48.5t-59 38.5t-86 19q-17 1 -33 1h-32q-57 0 -118 -5t-141 -19l18 -199v-405q0 -28 4.5 -45.5t14 -27t23.5 -12.5t32 -3h78v-79h-78q-72 0 -112 44t-40 123v405l-17 264q93 18 180 28t183 10h25.5t26.5 -1q50 -2 96 -19.5t81.5 -47.5
t56.5 -72.5t21 -95.5v-637z" />
    <glyph glyph-name="thothungthai" unicode="&#xe16;" horiz-adv-x="840" 
d="M750 0h-79v637q0 24 -11 50t-34 48.5t-59 38.5t-86 19q-17 1 -33 1h-32q-57 0 -118 -5t-141 -19l18 -199v-405q0 -28 4.5 -45.5t14 -27t23.5 -12.5t32 -3h78v-79h-78q-72 0 -112 44t-40 123v405l-17 264q93 18 180 28t183 10h25.5t26.5 -1q50 -2 96 -19.5t81.5 -47.5
t56.5 -72.5t21 -95.5v-637z" />
    <glyph glyph-name="thothahanthai" unicode="&#xb7;" horiz-adv-x="850" 
d="M556 866q46 0 83.5 -14t64.5 -41t41.5 -65t14.5 -86v-660h-80v660q0 68 -29 98t-95 30h-132l-255 -150v-638h-79v866h79v-134l224 129q7 5 21 5h142v0z" />
    <glyph glyph-name="thothahanthai" unicode="&#x2219;" horiz-adv-x="850" 
d="M556 866q46 0 83.5 -14t64.5 -41t41.5 -65t14.5 -86v-660h-80v660q0 68 -29 98t-95 30h-132l-255 -150v-638h-79v866h79v-134l224 129q7 5 21 5h142v0z" />
    <glyph glyph-name="thothahanthai" unicode="&#xe17;" horiz-adv-x="850" 
d="M556 866q46 0 83.5 -14t64.5 -41t41.5 -65t14.5 -86v-660h-80v660q0 68 -29 98t-95 30h-132l-255 -150v-638h-79v866h79v-134l224 129q7 5 21 5h142v0z" />
    <glyph glyph-name="thothongthai" unicode="&#xb8;" horiz-adv-x="758" 
d="M609 436q27 -9 43 -34.5t16 -55.5v-143q0 -45 -17 -83.5t-47.5 -66t-73 -43t-93.5 -15.5q-83 0 -170.5 5t-168.5 27v260h80v-191q63 -12 125 -16t134 -6q74 -2 113.5 33t39.5 96v157l-441 145q-26 9 -42.5 35t-16.5 56v69q0 46 17 84t47.5 65.5t73 43t93.5 15.5h67
q77 0 145.5 -10t115.5 -18v-81q-19 4 -47.5 9t-63 9.5t-73 7.5t-75.5 3h-69q-73 0 -112.5 -33t-39.5 -95v-83z" />
    <glyph glyph-name="thothongthai" unicode="&#xe18;" horiz-adv-x="758" 
d="M609 436q27 -9 43 -34.5t16 -55.5v-143q0 -45 -17 -83.5t-47.5 -66t-73 -43t-93.5 -15.5q-83 0 -170.5 5t-168.5 27v260h80v-191q63 -12 125 -16t134 -6q74 -2 113.5 33t39.5 96v157l-441 145q-26 9 -42.5 35t-16.5 56v69q0 46 17 84t47.5 65.5t73 43t93.5 15.5h67
q77 0 145.5 -10t115.5 -18v-81q-19 4 -47.5 9t-63 9.5t-73 7.5t-75.5 3h-69q-73 0 -112.5 -33t-39.5 -95v-83z" />
    <glyph glyph-name="nonuthai" unicode="&#xb9;" horiz-adv-x="849" 
d="M759 866v-866h-79v135l-224 -131q-10 -4 -20 -4h-143q-94 0 -148.5 54.5t-54.5 151.5v660h79v-660q0 -69 29 -98t95 -29h132l255 148v639h79z" />
    <glyph glyph-name="nonuthai" unicode="&#xe19;" horiz-adv-x="849" 
d="M759 866v-866h-79v135l-224 -131q-10 -4 -20 -4h-143q-94 0 -148.5 54.5t-54.5 151.5v660h79v-660q0 -69 29 -98t95 -29h132l255 148v639h79z" />
    <glyph glyph-name="bobaimaithai" unicode="&#xba;" horiz-adv-x="843" 
d="M753 866v-625q0 -57 -18 -103t-52 -77.5t-82 -48.5t-108 -17h-145q-60 0 -107.5 17t-81 48.5t-51.5 77.5t-18 103v625h79v-625q0 -54 17.5 -86.5t44 -50.5t58 -24t59.5 -6h145q28 0 59.5 5.5t58.5 23.5t44.5 51t17.5 87v625h80z" />
    <glyph glyph-name="bobaimaithai" unicode="&#xe1a;" horiz-adv-x="843" 
d="M753 866v-625q0 -57 -18 -103t-52 -77.5t-82 -48.5t-108 -17h-145q-60 0 -107.5 17t-81 48.5t-51.5 77.5t-18 103v625h79v-625q0 -54 17.5 -86.5t44 -50.5t58 -24t59.5 -6h145q28 0 59.5 5.5t58.5 23.5t44.5 51t17.5 87v625h80z" />
    <glyph glyph-name="poplathai" unicode="&#xbb;" horiz-adv-x="843" 
d="M753 1105v-864q0 -57 -18 -103t-52 -77.5t-82 -48.5t-108 -17h-145q-60 0 -107.5 17t-81 48.5t-51.5 77.5t-18 103v625h79v-625q0 -54 17.5 -86.5t44 -50.5t58 -24t59.5 -6h145q28 0 59.5 5.5t58.5 23.5t44.5 51t17.5 87v864h80z" />
    <glyph glyph-name="poplathai" unicode="&#xe1b;" horiz-adv-x="843" 
d="M753 1105v-864q0 -57 -18 -103t-52 -77.5t-82 -48.5t-108 -17h-145q-60 0 -107.5 17t-81 48.5t-51.5 77.5t-18 103v625h79v-625q0 -54 17.5 -86.5t44 -50.5t58 -24t59.5 -6h145q28 0 59.5 5.5t58.5 23.5t44.5 51t17.5 87v864h80z" />
    <glyph glyph-name="phophungthai" unicode="&#xbc;" horiz-adv-x="1052" 
d="M982 866l-104 -866h-161l-174 698h-35l-173 -698h-163l-102 866h201v-79h-113l84 -707h37l171 688h152l171 -688h37l93 786h79z" />
    <glyph glyph-name="phophungthai" unicode="&#xe1c;" horiz-adv-x="1052" 
d="M982 866l-104 -866h-161l-174 698h-35l-173 -698h-163l-102 866h201v-79h-113l84 -707h37l171 688h152l171 -688h37l93 786h79z" />
    <glyph glyph-name="fofathai" unicode="&#xbd;" horiz-adv-x="1053" 
d="M1014 1105l-136 -1105h-161l-174 698h-35l-173 -698h-163l-102 866h201v-79h-113l84 -707h37l171 688h152l171 -688h37l125 1025h79z" />
    <glyph glyph-name="fofathai" unicode="&#xe1d;" horiz-adv-x="1053" 
d="M1014 1105l-136 -1105h-161l-174 698h-35l-173 -698h-163l-102 866h201v-79h-113l84 -707h37l171 688h152l171 -688h37l125 1025h79z" />
    <glyph glyph-name="phophanthai" unicode="&#xbe;" horiz-adv-x="1052" 
d="M982 866l-104 -866h-162l-174 698h-35l-172 -698h-163l-102 866h77l94 -786h37l171 688h153l170 -688h37l94 786h79z" />
    <glyph glyph-name="phophanthai" unicode="&#xe1e;" horiz-adv-x="1052" 
d="M982 866l-104 -866h-162l-174 698h-35l-172 -698h-163l-102 866h77l94 -786h37l171 688h153l170 -688h37l94 786h79z" />
    <glyph glyph-name="fofanthai" unicode="&#xbf;" horiz-adv-x="1051" 
d="M1008 1105l-130 -1105h-162l-174 698h-35l-172 -698h-163l-102 866h77l94 -786h37l171 688h153l170 -688h37l120 1025h79z" />
    <glyph glyph-name="fofanthai" unicode="&#xe1f;" horiz-adv-x="1051" 
d="M1008 1105l-130 -1105h-162l-174 698h-35l-172 -698h-163l-102 866h77l94 -786h37l171 688h153l170 -688h37l120 1025h79z" />
    <glyph glyph-name="phosamphaothai" unicode="&#xc0;" horiz-adv-x="869" 
d="M523 872q51 -2 97 -19.5t81.5 -47.5t56.5 -72.5t21 -95.5v-636h-80v636q0 24 -10.5 50t-33.5 48.5t-59 38.5t-86 19q-17 1 -32.5 1h-29.5q-25 0 -49.5 -1t-52 -4t-59.5 -7.5t-72 -11.5q4 -45 9.5 -99.5t9.5 -99.5v-493q0 -33 -22.5 -55.5t-54.5 -22.5h-107v79h76
q17 0 23 5.5t6 22.5v466q-6 66 -12.5 131t-12.5 131q46 9 87.5 16t82.5 12t83 7.5t88 2.5h25t27 -1z" />
    <glyph glyph-name="phosamphaothai" unicode="&#xe20;" horiz-adv-x="869" 
d="M523 872q51 -2 97 -19.5t81.5 -47.5t56.5 -72.5t21 -95.5v-636h-80v636q0 24 -10.5 50t-33.5 48.5t-59 38.5t-86 19q-17 1 -32.5 1h-29.5q-25 0 -49.5 -1t-52 -4t-59.5 -7.5t-72 -11.5q4 -45 9.5 -99.5t9.5 -99.5v-493q0 -33 -22.5 -55.5t-54.5 -22.5h-107v79h76
q17 0 23 5.5t6 22.5v466q-6 66 -12.5 131t-12.5 131q46 9 87.5 16t82.5 12t83 7.5t88 2.5h25t27 -1z" />
    <glyph glyph-name="momathai" unicode="&#xc1;" horiz-adv-x="849" 
d="M169 866v-639l254 -148h132q66 0 95.5 29t29.5 98v660h79v-660q0 -97 -55.5 -151.5t-148.5 -54.5h-142q-11 0 -21 4l-223 132v-136h-79v866h79z" />
    <glyph glyph-name="momathai" unicode="&#xe21;" horiz-adv-x="849" 
d="M169 866v-639l254 -148h132q66 0 95.5 29t29.5 98v660h79v-660q0 -97 -55.5 -151.5t-148.5 -54.5h-142q-11 0 -21 4l-223 132v-136h-79v866h79z" />
    <glyph glyph-name="yoyakthai" unicode="&#xc2;" horiz-adv-x="803" 
d="M713 241q0 -60 -18.5 -106t-51.5 -77t-78.5 -47t-99.5 -16h-137q-57 0 -103 17t-78.5 48.5t-49.5 77.5t-17 103v64q0 65 34 115t94 82q-13 16 -28 35t-31 38.5t-31.5 38.5t-28.5 36v187q0 12 8.5 20.5t21.5 8.5h157v-79h-109v-110l128 -158h98v-79h-86q-21 0 -46.5 -4.5
t-48 -19t-37.5 -41t-15 -70.5v-64q0 -85 41 -126t127 -41h137q86 0 127 41t41 126v625h80v-625z" />
    <glyph glyph-name="yoyakthai" unicode="&#xe22;" horiz-adv-x="803" 
d="M713 241q0 -60 -18.5 -106t-51.5 -77t-78.5 -47t-99.5 -16h-137q-57 0 -103 17t-78.5 48.5t-49.5 77.5t-17 103v64q0 65 34 115t94 82q-13 16 -28 35t-31 38.5t-31.5 38.5t-28.5 36v187q0 12 8.5 20.5t21.5 8.5h157v-79h-109v-110l128 -158h98v-79h-86q-21 0 -46.5 -4.5
t-48 -19t-37.5 -41t-15 -70.5v-64q0 -85 41 -126t127 -41h137q86 0 127 41t41 126v625h80v-625z" />
    <glyph glyph-name="roruathai" unicode="&#xc3;" horiz-adv-x="715" 
d="M581 360q25 -14 42 -38t17 -53v-74q0 -44 -17 -81t-47 -63.5t-71.5 -41t-90.5 -14.5h-53q-26 0 -61.5 2.5t-74 6.5t-75 9t-63.5 10v80q64 -12 128.5 -20t144.5 -8q12 0 25.5 -0.5t27.5 -0.5q70 -2 109 32.5t39 95.5v80l-428 224q-26 13 -42 37t-16 53v69q0 45 16.5 83
t46 66t71 43.5t91.5 15.5h66q75 0 141 -10t112 -18v-80q-54 10 -114 19t-138 9h-67q-71 0 -108.5 -33t-37.5 -95v-81z" />
    <glyph glyph-name="roruathai" unicode="&#xe23;" horiz-adv-x="715" 
d="M581 360q25 -14 42 -38t17 -53v-74q0 -44 -17 -81t-47 -63.5t-71.5 -41t-90.5 -14.5h-53q-26 0 -61.5 2.5t-74 6.5t-75 9t-63.5 10v80q64 -12 128.5 -20t144.5 -8q12 0 25.5 -0.5t27.5 -0.5q70 -2 109 32.5t39 95.5v80l-428 224q-26 13 -42 37t-16 53v69q0 45 16.5 83
t46 66t71 43.5t91.5 15.5h66q75 0 141 -10t112 -18v-80q-54 10 -114 19t-138 9h-67q-71 0 -108.5 -33t-37.5 -95v-81z" />
    <glyph glyph-name="ruthai" unicode="&#xc4;" horiz-adv-x="840" 
d="M750 -300h-79v937q0 24 -11 50t-34 48.5t-59 38.5t-86 19q-17 1 -33 1h-32q-57 0 -118 -5t-141 -19l18 -199v-405q0 -28 4.5 -45.5t14 -27t23.5 -12.5t32 -3h78v-79h-78q-72 0 -112 44t-40 123v405l-17 264q93 18 180 28t183 10h25.5t26.5 -1q50 -2 96 -19.5t81.5 -47.5
t56.5 -72.5t21 -95.5v-937z" />
    <glyph glyph-name="ruthai" unicode="&#xe24;" horiz-adv-x="840" 
d="M750 -300h-79v937q0 24 -11 50t-34 48.5t-59 38.5t-86 19q-17 1 -33 1h-32q-57 0 -118 -5t-141 -19l18 -199v-405q0 -28 4.5 -45.5t14 -27t23.5 -12.5t32 -3h78v-79h-78q-72 0 -112 44t-40 123v405l-17 264q93 18 180 28t183 10h25.5t26.5 -1q50 -2 96 -19.5t81.5 -47.5
t56.5 -72.5t21 -95.5v-937z" />
    <glyph glyph-name="lolingthai" unicode="&#xc5;" horiz-adv-x="836" 
d="M496 872q49 -2 94.5 -17.5t80 -44t55 -69t20.5 -93.5v-648h-79v356l-369 74q-68 -2 -103.5 -34.5t-35.5 -89.5v-103q0 -60 37 -92t104 -32h110v-79h-110q-43 0 -83 14t-70.5 40t-48.5 64t-18 85v103q0 46 17 83.5t47 64t70 41t86 14.5q-1 0 10.5 -2.5t50 -10t111.5 -22
t195 -38.5v212q0 24 -10 48.5t-31 45t-54 34.5t-79 16q-14 1 -28 1h-27q-81 0 -156.5 -9t-149.5 -23v80q75 13 151.5 22.5t162.5 9.5h24.5t25.5 -1z" />
    <glyph glyph-name="lolingthai" unicode="&#xe25;" horiz-adv-x="836" 
d="M496 872q49 -2 94.5 -17.5t80 -44t55 -69t20.5 -93.5v-648h-79v356l-369 74q-68 -2 -103.5 -34.5t-35.5 -89.5v-103q0 -60 37 -92t104 -32h110v-79h-110q-43 0 -83 14t-70.5 40t-48.5 64t-18 85v103q0 46 17 83.5t47 64t70 41t86 14.5q-1 0 10.5 -2.5t50 -10t111.5 -22
t195 -38.5v212q0 24 -10 48.5t-31 45t-54 34.5t-79 16q-14 1 -28 1h-27q-81 0 -156.5 -9t-149.5 -23v80q75 13 151.5 22.5t162.5 9.5h24.5t25.5 -1z" />
    <glyph glyph-name="luthai" unicode="&#xc6;" horiz-adv-x="869" 
d="M523 872q51 -2 97 -19.5t81.5 -47.5t56.5 -72.5t21 -95.5v-937h-80v937q0 24 -10.5 50t-33.5 48.5t-59 38.5t-86 19q-17 1 -32.5 1h-29.5q-25 0 -49.5 -1t-52 -4t-59.5 -7.5t-72 -11.5q4 -45 9.5 -99.5t9.5 -99.5v-493q0 -33 -22.5 -55.5t-54.5 -22.5h-107v79h76
q17 0 23 5.5t6 22.5v466q-6 66 -12.5 131t-12.5 131q46 9 87.5 16t82.5 12t83 7.5t88 2.5h25t27 -1z" />
    <glyph glyph-name="luthai" unicode="&#xe26;" horiz-adv-x="869" 
d="M523 872q51 -2 97 -19.5t81.5 -47.5t56.5 -72.5t21 -95.5v-937h-80v937q0 24 -10.5 50t-33.5 48.5t-59 38.5t-86 19q-17 1 -32.5 1h-29.5q-25 0 -49.5 -1t-52 -4t-59.5 -7.5t-72 -11.5q4 -45 9.5 -99.5t9.5 -99.5v-493q0 -33 -22.5 -55.5t-54.5 -22.5h-107v79h76
q17 0 23 5.5t6 22.5v466q-6 66 -12.5 131t-12.5 131q46 9 87.5 16t82.5 12t83 7.5t88 2.5h25t27 -1z" />
    <glyph glyph-name="wowaenthai" unicode="&#xc7;" horiz-adv-x="740" 
d="M640 655q8 -47 12.5 -104t4.5 -116.5t-4 -117t-13 -105.5q-9 -47 -31.5 -85.5t-56 -67t-77 -45t-95.5 -18.5q-12 -1 -24.5 -1h-24.5q-61 0 -122 8t-129 22v81q66 -15 130 -23t136 -8h30q50 2 83.5 17t55 36.5t32.5 48t16 51.5q7 42 10.5 98t3.5 113.5t-3.5 110.5
t-10.5 90q-5 24 -17 50t-34 47.5t-55 37t-80 18.5q-9 1 -21.5 1h-21.5q-62 0 -124 -9t-130 -23v81q66 13 128.5 21.5t131.5 8.5q8 0 20 -0.5t20 -0.5q51 -4 94.5 -20.5t77.5 -44t56.5 -66t31.5 -86.5z" />
    <glyph glyph-name="wowaenthai" unicode="&#xe27;" horiz-adv-x="740" 
d="M640 655q8 -47 12.5 -104t4.5 -116.5t-4 -117t-13 -105.5q-9 -47 -31.5 -85.5t-56 -67t-77 -45t-95.5 -18.5q-12 -1 -24.5 -1h-24.5q-61 0 -122 8t-129 22v81q66 -15 130 -23t136 -8h30q50 2 83.5 17t55 36.5t32.5 48t16 51.5q7 42 10.5 98t3.5 113.5t-3.5 110.5
t-10.5 90q-5 24 -17 50t-34 47.5t-55 37t-80 18.5q-9 1 -21.5 1h-21.5q-62 0 -124 -9t-130 -23v81q66 13 128.5 21.5t131.5 8.5q8 0 20 -0.5t20 -0.5q51 -4 94.5 -20.5t77.5 -44t56.5 -66t31.5 -86.5z" />
    <glyph glyph-name="sosalathai" unicode="&#xc8;" horiz-adv-x="862" 
d="M838 814l-144 -22q20 -16 34.5 -37.5t24.5 -44.5t14.5 -47t4.5 -45v-618h-79v618q0 45 -19 78.5t-53.5 55t-82.5 32t-106 10.5q-60 0 -108.5 -10.5t-83 -32.5t-53 -55t-18.5 -78v-300l164 105h-1q7 5 22 5h132v-79h-121l-196 -123v-226h-79v618q0 69 29.5 117t78 79
t110 45t124.5 14q33 0 78 -5.5t93 -21.5q57 11 116.5 22.5t118.5 22.5v-77z" />
    <glyph glyph-name="sosalathai" unicode="&#xe28;" horiz-adv-x="862" 
d="M838 814l-144 -22q20 -16 34.5 -37.5t24.5 -44.5t14.5 -47t4.5 -45v-618h-79v618q0 45 -19 78.5t-53.5 55t-82.5 32t-106 10.5q-60 0 -108.5 -10.5t-83 -32.5t-53 -55t-18.5 -78v-300l164 105h-1q7 5 22 5h132v-79h-121l-196 -123v-226h-79v618q0 69 29.5 117t78 79
t110 45t124.5 14q33 0 78 -5.5t93 -21.5q57 11 116.5 22.5t118.5 22.5v-77z" />
    <glyph glyph-name="sorusithai" unicode="&#xc9;" horiz-adv-x="843" 
d="M829 410h-76v-169q0 -57 -18 -103t-51.5 -77.5t-81.5 -48.5t-108 -17h-144q-60 0 -108.5 17t-82 48.5t-51.5 77.5t-18 103v625h79v-625q0 -54 17.5 -86.5t44.5 -50.5t58.5 -24t60.5 -6h144q30 0 61.5 6.5t58 24.5t43.5 50.5t17 85.5v169h-285v169h79v-102h206v389h79
v-389h76v-67z" />
    <glyph glyph-name="sorusithai" unicode="&#xe29;" horiz-adv-x="843" 
d="M829 410h-76v-169q0 -57 -18 -103t-51.5 -77.5t-81.5 -48.5t-108 -17h-144q-60 0 -108.5 17t-82 48.5t-51.5 77.5t-18 103v625h79v-625q0 -54 17.5 -86.5t44.5 -50.5t58.5 -24t60.5 -6h144q30 0 61.5 6.5t58 24.5t43.5 50.5t17 85.5v169h-285v169h79v-102h206v389h79
v-389h76v-67z" />
    <glyph glyph-name="sosuathai" unicode="&#xca;" horiz-adv-x="836" 
d="M831 818l-148 -22q16 -15 28 -34t20 -38.5t11.5 -39t3.5 -35.5v-649h-79v356l-369 74q-66 -2 -102.5 -34.5t-36.5 -89.5v-103q0 -60 36.5 -92t104.5 -32h110v-79h-110q-44 0 -83.5 14t-70 40t-48.5 63.5t-18 85.5v103q0 47 17 84.5t47 64t70 40.5t86 14q-1 0 10.5 -2.5
t50 -10t111.5 -22t195 -38.5v213q0 23 -10.5 47.5t-33.5 45t-58.5 35t-86.5 17.5q-9 1 -21 1h-21q-80 0 -153 -10t-151 -24v81q76 13 151 22.5t153 9.5h22.5t22.5 -1q38 -1 66 -6.5t55 -14.5l229 45v-79z" />
    <glyph glyph-name="sosuathai" unicode="&#xe2a;" horiz-adv-x="836" 
d="M831 818l-148 -22q16 -15 28 -34t20 -38.5t11.5 -39t3.5 -35.5v-649h-79v356l-369 74q-66 -2 -102.5 -34.5t-36.5 -89.5v-103q0 -60 36.5 -92t104.5 -32h110v-79h-110q-44 0 -83.5 14t-70 40t-48.5 63.5t-18 85.5v103q0 47 17 84.5t47 64t70 40.5t86 14q-1 0 10.5 -2.5
t50 -10t111.5 -22t195 -38.5v213q0 23 -10.5 47.5t-33.5 45t-58.5 35t-86.5 17.5q-9 1 -21 1h-21q-80 0 -153 -10t-151 -24v81q76 13 151 22.5t153 9.5h22.5t22.5 -1q38 -1 66 -6.5t55 -14.5l229 45v-79z" />
    <glyph glyph-name="hohipthai" unicode="&#xcb;" horiz-adv-x="805" 
d="M540 518q48 -6 82 -28t56 -55t32 -74.5t10 -86.5v-274h-79v274q0 84 -38 125.5t-132 41.5h-302v-441h-79v866h79v-345h282l174 343h90z" />
    <glyph glyph-name="hohipthai" unicode="&#xe2b;" horiz-adv-x="805" 
d="M540 518q48 -6 82 -28t56 -55t32 -74.5t10 -86.5v-274h-79v274q0 84 -38 125.5t-132 41.5h-302v-441h-79v866h79v-345h282l174 343h90z" />
    <glyph glyph-name="lochulathai" unicode="&#xcc;" horiz-adv-x="1055" 
d="M865 776l97 -106l-82 -670h-158l-177 594h-35q-21 -71 -43.5 -147t-45.5 -153t-45 -152t-42 -142h-160l-104 866h78l96 -786h37l177 594h139l176 -594h38l68 567l-106 130l161 193l60 -50z" />
    <glyph glyph-name="lochulathai" unicode="&#xe2c;" horiz-adv-x="1055" 
d="M865 776l97 -106l-82 -670h-158l-177 594h-35q-21 -71 -43.5 -147t-45.5 -153t-45 -152t-42 -142h-160l-104 866h78l96 -786h37l177 594h139l176 -594h38l68 567l-106 130l161 193l60 -50z" />
    <glyph glyph-name="oangthai" unicode="&#xcd;" horiz-adv-x="802" 
d="M705 668q17 -113 17 -230.5t-17 -239.5q-12 -91 -84.5 -143.5t-193.5 -57.5q-85 -4 -167.5 5.5t-168.5 41.5v433h215v-79h-136v-290q63 -18 124 -25t129 -7q187 7 205 133q14 108 16 220.5t-15 227.5q-7 41 -24.5 66.5t-43 40.5t-57 21.5t-66.5 8.5q-83 5 -169 -6
t-179 -27v80q86 15 174 26t176 6q43 -2 86.5 -11.5t80.5 -32.5t63.5 -62t34.5 -99z" />
    <glyph glyph-name="oangthai" unicode="&#xe2d;" horiz-adv-x="802" 
d="M705 668q17 -113 17 -230.5t-17 -239.5q-12 -91 -84.5 -143.5t-193.5 -57.5q-85 -4 -167.5 5.5t-168.5 41.5v433h215v-79h-136v-290q63 -18 124 -25t129 -7q187 7 205 133q14 108 16 220.5t-15 227.5q-7 41 -24.5 66.5t-43 40.5t-57 21.5t-66.5 8.5q-83 5 -169 -6
t-179 -27v80q86 15 174 26t176 6q43 -2 86.5 -11.5t80.5 -32.5t63.5 -62t34.5 -99z" />
    <glyph glyph-name="honokhukthai" unicode="&#xce;" horiz-adv-x="802" 
d="M705 668q17 -115 16.5 -233.5t-16.5 -236.5q-12 -92 -85 -144t-193 -57q-85 -4 -168 5.5t-168 41.5v433h214v-79h-135v-290q62 -18 123.5 -25t129.5 -7q186 8 204 133q15 108 17 220.5t-16 227.5q-6 41 -24 66.5t-43.5 40.5t-57 21t-66.5 9q-82 6 -169 -5.5t-178 -27.5
v80q85 15 173 26.5t176 5.5q32 -2 65.5 -8t60.5 -15l230 44v-78l-147 -18q11 -12 20.5 -27.5t17 -33t12.5 -35.5t7 -34z" />
    <glyph glyph-name="honokhukthai" unicode="&#xe2e;" horiz-adv-x="802" 
d="M705 668q17 -115 16.5 -233.5t-16.5 -236.5q-12 -92 -85 -144t-193 -57q-85 -4 -168 5.5t-168 41.5v433h214v-79h-135v-290q62 -18 123.5 -25t129.5 -7q186 8 204 133q15 108 17 220.5t-16 227.5q-6 41 -24 66.5t-43.5 40.5t-57 21t-66.5 9q-82 6 -169 -5.5t-178 -27.5
v80q85 15 173 26.5t176 5.5q32 -2 65.5 -8t60.5 -15l230 44v-78l-147 -18q11 -12 20.5 -27.5t17 -33t12.5 -35.5t7 -34z" />
    <glyph glyph-name="paiyannoithai" unicode="&#xcf;" horiz-adv-x="736" 
d="M139 626q0 -24 4 -43t15 -32.5t30.5 -20.5t50.5 -7h86q52 45 111 95t113 95h77v-670l-244 -179q-14 20 -22.5 32.5t-20.5 29.5l208 157v537q-20 -18 -45.5 -40.5t-51.5 -45.5t-51.5 -45.5t-45.5 -39.5q-4 -2 -9.5 -3.5t-10.5 -1.5h-94q-85 0 -132 48.5t-47 133.5v59
q0 85 47 133t132 48h22v-78h-22q-31 0 -50.5 -7t-30.5 -20.5t-15 -32.5t-4 -43v-59v0z" />
    <glyph glyph-name="paiyannoithai" unicode="&#xe2f;" horiz-adv-x="736" 
d="M139 626q0 -24 4 -43t15 -32.5t30.5 -20.5t50.5 -7h86q52 45 111 95t113 95h77v-670l-244 -179q-14 20 -22.5 32.5t-20.5 29.5l208 157v537q-20 -18 -45.5 -40.5t-51.5 -45.5t-51.5 -45.5t-45.5 -39.5q-4 -2 -9.5 -3.5t-10.5 -1.5h-94q-85 0 -132 48.5t-47 133.5v59
q0 85 47 133t132 48h22v-78h-22q-31 0 -50.5 -7t-30.5 -20.5t-15 -32.5t-4 -43v-59v0z" />
    <glyph glyph-name="saraathai" unicode="&#xd0;" horiz-adv-x="504" 
d="M434 640v-72h-364v152h79v-80h285zM434 137v-71h-364v151h79v-80h285z" />
    <glyph glyph-name="saraathai" unicode="&#xe30;" horiz-adv-x="504" 
d="M434 640v-72h-364v152h79v-80h285zM434 137v-71h-364v151h79v-80h285z" />
    <glyph glyph-name="maihanakatthai" unicode="&#xd1;" 
d="M-90 1077v-77h-469v180h79v-103h390z" />
    <glyph glyph-name="maihanakatthai" unicode="&#xe31;" 
d="M-90 1077v-77h-469v180h79v-103h390z" />
    <glyph glyph-name="saraaathai" unicode="&#xd2;" horiz-adv-x="667" 
d="M363 874q102 0 158 -57.5t56 -167.5v-649h-80v653q0 24 -5.5 47.5t-21 43t-43 33t-70.5 15.5q-72 5 -144.5 -3.5t-152.5 -22.5v82q75 14 148.5 20t154.5 6z" />
    <glyph glyph-name="saraaathai" unicode="&#xe32;" horiz-adv-x="667" 
d="M363 874q102 0 158 -57.5t56 -167.5v-649h-80v653q0 24 -5.5 47.5t-21 43t-43 33t-70.5 15.5q-72 5 -144.5 -3.5t-152.5 -22.5v82q75 14 148.5 20t154.5 6z" />
    <glyph glyph-name="saraamthai" unicode="&#xd3;" horiz-adv-x="667" 
d="M363 874q-81 0 -154.5 -6t-148.5 -20v-82q80 14 152.5 22.5t144.5 3.5q43 -2 70.5 -15.5t43 -33t21 -43t5.5 -47.5v-653h80v649q0 110 -56 167.5t-158 57.5zM-217 947q-29 0 -53.5 11t-43.5 29.5t-29.5 43.5t-10.5 54q0 28 10.5 53t29.5 44t43.5 30t53.5 11t54 -11
t43.5 -30t29 -44t10.5 -53q0 -29 -10.5 -54t-29 -43.5t-43.5 -29.5t-54 -11zM-217 1151q-28 0 -46.5 -18.5t-18.5 -47.5q0 -27 18.5 -47t46.5 -20q29 0 48 20t19 47q0 29 -19 47.5t-48 18.5z" />
    <glyph glyph-name="saraamthai" unicode="&#xe33;" horiz-adv-x="667" 
d="M363 874q-81 0 -154.5 -6t-148.5 -20v-82q80 14 152.5 22.5t144.5 3.5q43 -2 70.5 -15.5t43 -33t21 -43t5.5 -47.5v-653h80v649q0 110 -56 167.5t-158 57.5zM-217 947q-29 0 -53.5 11t-43.5 29.5t-29.5 43.5t-10.5 54q0 28 10.5 53t29.5 44t43.5 30t53.5 11t54 -11
t43.5 -30t29 -44t10.5 -53q0 -29 -10.5 -54t-29 -43.5t-43.5 -29.5t-54 -11zM-217 1151q-28 0 -46.5 -18.5t-18.5 -47.5q0 -27 18.5 -47t46.5 -20q29 0 48 20t19 47q0 29 -19 47.5t-48 18.5z" />
    <glyph glyph-name="saraithai" unicode="&#xd4;" 
d="M-90 1000h-596v77h596v-77z" />
    <glyph glyph-name="saraithai" unicode="&#xe34;" 
d="M-90 1000h-596v77h596v-77z" />
    <glyph glyph-name="saraiithai" unicode="&#xd5;" 
d="M-90 1180v-180h-596v77h516v103h80z" />
    <glyph glyph-name="saraiithai" unicode="&#xe35;" 
d="M-90 1180v-180h-596v77h516v103h80z" />
    <glyph glyph-name="sarauethai" unicode="&#xd6;" 
d="M-179 1222q22 0 42 -8.5t35 -23t23.5 -34.5t8.5 -42q0 -23 -9 -43.5t-24 -36t-35.5 -25t-43.5 -9.5h-504v77h406q-5 17 -6 24.5t-1 12.5q0 22 8.5 42t23.5 34.5t34.5 23t41.5 8.5zM-228 1114q0 -20 14.5 -34t34.5 -14t34 14t14 34t-14 34.5t-34 14.5t-34.5 -14.5
t-14.5 -34.5z" />
    <glyph glyph-name="sarauethai" unicode="&#xe36;" 
d="M-179 1222q22 0 42 -8.5t35 -23t23.5 -34.5t8.5 -42q0 -23 -9 -43.5t-24 -36t-35.5 -25t-43.5 -9.5h-504v77h406q-5 17 -6 24.5t-1 12.5q0 22 8.5 42t23.5 34.5t34.5 23t41.5 8.5zM-228 1114q0 -20 14.5 -34t34.5 -14t34 14t14 34t-14 34.5t-34 14.5t-34.5 -14.5
t-14.5 -34.5z" />
    <glyph glyph-name="saraueethai" unicode="&#xd7;" 
d="M-90 1180v-180h-596v77h336v103h80v-103h100v103h80z" />
    <glyph glyph-name="saraueethai" unicode="&#xe37;" 
d="M-90 1180v-180h-596v77h336v103h80v-103h100v103h80z" />
    <glyph glyph-name="sarauthai" unicode="&#xd8;" 
d="M-132 -110q17 0 29.5 -12.5t12.5 -30.5v-223h-79v192h-106v74h143v0z" />
    <glyph glyph-name="sarauthai" unicode="&#xe38;" 
d="M-132 -110q17 0 29.5 -12.5t12.5 -30.5v-223h-79v192h-106v74h143v0z" />
    <glyph glyph-name="sarauuthai" unicode="&#xd9;" 
d="M-80 -255q0 -57 -35 -94t-108 -37h-36q-72 0 -107.5 37t-35.5 94v71h-72v74h108q18 0 30.5 -12.5t12.5 -30.5v-95q0 -43 22.5 -57.5t56.5 -14.5h7q33 0 56 14.5t23 57.5v138h78v-145z" />
    <glyph glyph-name="sarauuthai" unicode="&#xe39;" 
d="M-80 -255q0 -57 -35 -94t-108 -37h-36q-72 0 -107.5 37t-35.5 94v71h-72v74h108q18 0 30.5 -12.5t12.5 -30.5v-95q0 -43 22.5 -57.5t56.5 -14.5h7q33 0 56 14.5t23 57.5v138h78v-145z" />
    <glyph glyph-name="phinthuthai" unicode="&#xda;" 
d="M-174 -110q19 0 36.5 -7.5t30 -20t20 -30t7.5 -36.5q0 -20 -7.5 -37t-20 -29.5t-30 -20t-36.5 -7.5q-39 0 -66 27.5t-27 66.5t27 66.5t66 27.5z" />
    <glyph glyph-name="phinthuthai" unicode="&#xe3a;" 
d="M-174 -110q19 0 36.5 -7.5t30 -20t20 -30t7.5 -36.5q0 -20 -7.5 -37t-20 -29.5t-30 -20t-36.5 -7.5q-39 0 -66 27.5t-27 66.5t27 66.5t66 27.5z" />
    <glyph glyph-name="nptp3.001march2007p" unicode="&#xdb;" 
 />
    <glyph glyph-name="nptp3.001march2007p" unicode="&#xe3b;" 
 />
    <glyph glyph-name="nptp3.001march2007u" unicode="&#xdc;" 
 />
    <glyph glyph-name="nptp3.001march2007u" unicode="&#xe3c;" 
 />
    <glyph glyph-name="nptp3.001march2007c" unicode="&#xdd;" 
 />
    <glyph glyph-name="nptp3.001march2007c" unicode="&#xe3d;" 
 />
    <glyph glyph-name="bahtthai" unicode="&#xdf;" horiz-adv-x="911" 
d="M463 1237v-96q140 -11 214.5 -83t74.5 -198q-2 -72 -38 -134t-114 -116q107 -55 164 -132.5t57 -188.5q0 -78 -20 -133t-63.5 -89.5t-111 -50.5t-163.5 -16v-113h-80v113h-273v1141h273v96h80zM484 85q62 0 108 5.5t77 26t47.5 61.5t18.5 112q0 45 -10 84t-36.5 73.5
t-72.5 64.5t-119 57l-34 -16v-447zM196 535l187 76v445h-187v-521zM196 85h187v434l-187 -78v-356zM666 860q0 54 -14 89.5t-40.5 58t-64 33.5t-84.5 15v-413l61 25q46 24 74 48.5t43 49t20 48.5t5 46z" />
    <glyph glyph-name="bahtthai" unicode="&#xe3f;" horiz-adv-x="911" 
d="M463 1237v-96q140 -11 214.5 -83t74.5 -198q-2 -72 -38 -134t-114 -116q107 -55 164 -132.5t57 -188.5q0 -78 -20 -133t-63.5 -89.5t-111 -50.5t-163.5 -16v-113h-80v113h-273v1141h273v96h80zM484 85q62 0 108 5.5t77 26t47.5 61.5t18.5 112q0 45 -10 84t-36.5 73.5
t-72.5 64.5t-119 57l-34 -16v-447zM196 535l187 76v445h-187v-521zM196 85h187v434l-187 -78v-356zM666 860q0 54 -14 89.5t-40.5 58t-64 33.5t-84.5 15v-413l61 25q46 24 74 48.5t43 49t20 48.5t5 46z" />
    <glyph glyph-name="saraethai" unicode="&#xe0;" horiz-adv-x="349" 
d="M309 71v-71h-110q-24 0 -42.5 10t-31 28t-19 42t-6.5 52v736h79v-733q0 -30 12 -47t41 -17h77z" />
    <glyph glyph-name="saraethai" unicode="&#xe40;" horiz-adv-x="349" 
d="M309 71v-71h-110q-24 0 -42.5 10t-31 28t-19 42t-6.5 52v736h79v-733q0 -30 12 -47t41 -17h77z" />
    <glyph glyph-name="saraaethai" unicode="&#xe1;" horiz-adv-x="669" 
d="M309 71v-71h-110q-24 0 -42.5 10t-31 28t-19 42t-6.5 52v736h79v-733q0 -30 12 -47t41 -17h77zM629 71v-71h-110q-24 0 -42.5 10t-31 28t-19 42t-6.5 52v736h79v-733q0 -30 12 -47t41 -17h77z" />
    <glyph glyph-name="saraaethai" unicode="&#xe41;" horiz-adv-x="669" 
d="M309 71v-71h-110q-24 0 -42.5 10t-31 28t-19 42t-6.5 52v736h79v-733q0 -30 12 -47t41 -17h77zM629 71v-71h-110q-24 0 -42.5 10t-31 28t-19 42t-6.5 52v736h79v-733q0 -30 12 -47t41 -17h77z" />
    <glyph glyph-name="saraothai" unicode="&#xe2;" horiz-adv-x="424" 
d="M188 1220q-31 0 -50 -7t-29 -18t-13.5 -26.5t-3.5 -31.5v-52l162 -162v-788q0 -30 10 -47t32 -17h87v-71h-109q-24 0 -42.5 10t-31.5 28t-19.5 42t-6.5 52v757l-162 161v87q0 75 47.5 119t128.5 44h231v-80h-231z" />
    <glyph glyph-name="saraothai" unicode="&#xe42;" horiz-adv-x="424" 
d="M188 1220q-31 0 -50 -7t-29 -18t-13.5 -26.5t-3.5 -31.5v-52l162 -162v-788q0 -30 10 -47t32 -17h87v-71h-109q-24 0 -42.5 10t-31.5 28t-19.5 42t-6.5 52v757l-162 161v87q0 75 47.5 119t128.5 44h231v-80h-231z" />
    <glyph glyph-name="saraaimaimuanthai" unicode="&#xe3;" horiz-adv-x="425" 
d="M255 821v-686q0 -30 10.5 -47t33.5 -17h86v-71h-110q-49 0 -75 37.5t-26 94.5v697l173 255v46q0 17 -5.5 34.5t-18 31t-32.5 22t-48 8.5h-68q-29 0 -48.5 -8.5t-32 -22t-18 -31t-5.5 -34.5v-48h-80v48q0 38 14 70t38.5 55.5t58 36.5t73.5 13h68q40 0 73.5 -13t58 -36.5
t38.5 -55.5t14 -70v-55z" />
    <glyph glyph-name="saraaimaimuanthai" unicode="&#xe43;" horiz-adv-x="425" 
d="M255 821v-686q0 -30 10.5 -47t33.5 -17h86v-71h-110q-49 0 -75 37.5t-26 94.5v697l173 255v46q0 17 -5.5 34.5t-18 31t-32.5 22t-48 8.5h-68q-29 0 -48.5 -8.5t-32 -22t-18 -31t-5.5 -34.5v-48h-80v48q0 38 14 70t38.5 55.5t58 36.5t73.5 13h68q40 0 73.5 -13t58 -36.5
t38.5 -55.5t14 -70v-55z" />
    <glyph glyph-name="saraaimaimalaithai" unicode="&#xe4;" horiz-adv-x="424" 
d="M254 135q0 -30 10.5 -47t32.5 -17h87v-71h-111q-24 0 -42.5 10t-31 28t-19 42t-6.5 52v790l150 298h-303v80h393v-60l-160 -326v-779z" />
    <glyph glyph-name="saraaimaimalaithai" unicode="&#xe44;" horiz-adv-x="424" 
d="M254 135q0 -30 10.5 -47t32.5 -17h87v-71h-111q-24 0 -42.5 10t-31 28t-19 42t-6.5 52v790l150 298h-303v80h393v-60l-160 -326v-779z" />
    <glyph glyph-name="lakkhangyaothai" unicode="&#xe5;" horiz-adv-x="667" 
d="M363 874q102 0 158 -57.5t56 -167.5v-949h-80v953q0 24 -5.5 47.5t-21 43t-43 33t-70.5 15.5q-72 5 -144.5 -3.5t-152.5 -22.5v82q75 14 148.5 20t154.5 6z" />
    <glyph glyph-name="lakkhangyaothai" unicode="&#xe45;" horiz-adv-x="667" 
d="M363 874q102 0 158 -57.5t56 -167.5v-949h-80v953q0 24 -5.5 47.5t-21 43t-43 33t-70.5 15.5q-72 5 -144.5 -3.5t-152.5 -22.5v82q75 14 148.5 20t154.5 6z" />
    <glyph glyph-name="maiyamokthai" unicode="&#xe6;" horiz-adv-x="776" 
d="M512 877q38 0 70 -15t55 -43t36 -68.5t13 -91.5v-613q-66 -47 -124.5 -91t-122.5 -91l-47 64l214 159v572q0 18 -2.5 42t-10.5 45t-24.5 36t-44.5 15l-144 -90l-146 89q-27 0 -43.5 -12.5t-25 -32t-11 -42.5t-2.5 -44v-85q0 -22 9 -41t24.5 -33.5t37 -23t45.5 -8.5h78
v-80h-78q-41 0 -76.5 14.5t-62.5 40t-42.5 59.5t-15.5 72q0 22 0.5 44t0.5 43q0 39 10 76.5t30.5 67t53 48t78.5 18.5h13l122 -82l122 82h11z" />
    <glyph glyph-name="maiyamokthai" unicode="&#xe46;" horiz-adv-x="776" 
d="M512 877q38 0 70 -15t55 -43t36 -68.5t13 -91.5v-613q-66 -47 -124.5 -91t-122.5 -91l-47 64l214 159v572q0 18 -2.5 42t-10.5 45t-24.5 36t-44.5 15l-144 -90l-146 89q-27 0 -43.5 -12.5t-25 -32t-11 -42.5t-2.5 -44v-85q0 -22 9 -41t24.5 -33.5t37 -23t45.5 -8.5h78
v-80h-78q-41 0 -76.5 14.5t-62.5 40t-42.5 59.5t-15.5 72q0 22 0.5 44t0.5 43q0 39 10 76.5t30.5 67t53 48t78.5 18.5h13l122 -82l122 82h11z" />
    <glyph glyph-name="maitaikhuthai" unicode="&#xe7;" 
d="M-436 1238q-11 0 -28.5 -3.5t-34 -13t-28.5 -28t-12 -48.5q0 -24 9 -41t22.5 -27t29 -14.5t28.5 -4.5q32 0 53.5 22t34.5 54h55q10 -30 34.5 -53.5t75.5 -23.5h36v-77h-36q-42 0 -79.5 21t-60.5 55q-25 -38 -50.5 -57t-62.5 -19q-36 0 -66.5 12.5t-53 34.5t-35 52
t-12.5 66t14 66.5t39 52.5t57.5 34.5t70.5 12.5h301v-73h-301z" />
    <glyph glyph-name="maitaikhuthai" unicode="&#xe47;" 
d="M-436 1238q-11 0 -28.5 -3.5t-34 -13t-28.5 -28t-12 -48.5q0 -24 9 -41t22.5 -27t29 -14.5t28.5 -4.5q32 0 53.5 22t34.5 54h55q10 -30 34.5 -53.5t75.5 -23.5h36v-77h-36q-42 0 -79.5 21t-60.5 55q-25 -38 -50.5 -57t-62.5 -19q-36 0 -66.5 12.5t-53 34.5t-35 52
t-12.5 66t14 66.5t39 52.5t57.5 34.5t70.5 12.5h301v-73h-301z" />
    <glyph glyph-name="maiekthai" unicode="&#xe8;" 
d="M-90 1280h-79v228h79v-228z" />
    <glyph glyph-name="maiekthai" unicode="&#xe48;" 
d="M-90 1280h-79v228h79v-228z" />
    <glyph glyph-name="maithothai" unicode="&#xe9;" 
d="M-10 1357v-77h-428l9 120h-87v77h169l-8 -120h345z" />
    <glyph glyph-name="maithothai" unicode="&#xe49;" 
d="M-10 1357v-77h-428l9 120h-87v77h169l-8 -120h345z" />
    <glyph glyph-name="maitrithai" unicode="&#xea;" 
d="M-7 1348v-78h-127q-17 0 -26.5 10t-9.5 22v111q0 29 -14 46.5t-38 17.5q-25 -13 -54 -29.5t-55 -30.5l-105 58q-26 0 -38.5 -14.5t-12.5 -55.5q0 -25 11 -41t41 -16h48v-78h-51q-35 0 -58.5 10.5t-38 28t-21.5 41t-8 50.5q0 30 7 58t23 49t41.5 33.5t63.5 12.5h9l89 -54
l89 54h10q27 0 51.5 -9.5t43 -27t29.5 -42.5t11 -56v-70h90z" />
    <glyph glyph-name="maitrithai" unicode="&#xe4a;" 
d="M-7 1348v-78h-127q-17 0 -26.5 10t-9.5 22v111q0 29 -14 46.5t-38 17.5q-25 -13 -54 -29.5t-55 -30.5l-105 58q-26 0 -38.5 -14.5t-12.5 -55.5q0 -25 11 -41t41 -16h48v-78h-51q-35 0 -58.5 10.5t-38 28t-21.5 41t-8 50.5q0 30 7 58t23 49t41.5 33.5t63.5 12.5h9l89 -54
l89 54h10q27 0 51.5 -9.5t43 -27t29.5 -42.5t11 -56v-70h90z" />
    <glyph glyph-name="maichattawathai" unicode="&#xeb;" 
d="M21 1363h-111v-88h-79v88h-111v68h111v88h79v-88h111v-68z" />
    <glyph glyph-name="maichattawathai" unicode="&#xe4b;" 
d="M21 1363h-111v-88h-79v88h-111v68h111v88h79v-88h111v-68z" />
    <glyph glyph-name="thanthakhatthai" unicode="&#xec;" 
d="M10 1455v-80l-329 -24v-81h-79v151z" />
    <glyph glyph-name="thanthakhatthai" unicode="&#xe4c;" 
d="M10 1455v-80l-329 -24v-81h-79v151z" />
    <glyph glyph-name="nikhahitthai" unicode="&#xed;" 
d="M-217 947q-29 0 -53.5 11t-43.5 29.5t-29.5 43.5t-10.5 54q0 28 10.5 53t29.5 44t43.5 30t53.5 11t54 -11t43.5 -30t29 -44t10.5 -53q0 -29 -10.5 -54t-29 -43.5t-43.5 -29.5t-54 -11zM-217 1151q-28 0 -46.5 -18.5t-18.5 -47.5q0 -27 18.5 -47t46.5 -20q29 0 48 20
t19 47q0 29 -19 47.5t-48 18.5z" />
    <glyph glyph-name="nikhahitthai" unicode="&#xe4d;" 
d="M-217 947q-29 0 -53.5 11t-43.5 29.5t-29.5 43.5t-10.5 54q0 28 10.5 53t29.5 44t43.5 30t53.5 11t54 -11t43.5 -30t29 -44t10.5 -53q0 -29 -10.5 -54t-29 -43.5t-43.5 -29.5t-54 -11zM-217 1151q-28 0 -46.5 -18.5t-18.5 -47.5q0 -27 18.5 -47t46.5 -20q29 0 48 20
t19 47q0 29 -19 47.5t-48 18.5z" />
    <glyph glyph-name="yamakkanthai" unicode="&#xee;" horiz-adv-x="1104" 
d="M40 0v1280h1024v-1280h-1024zM1022 32q10 0 10 10v1196q0 10 -10 10h-940q-10 0 -10 -10v-1196q0 -10 10 -10h940z" />
    <glyph glyph-name="yamakkanthai" unicode="&#xe4e;" horiz-adv-x="1104" 
d="M40 0v1280h1024v-1280h-1024zM1022 32q10 0 10 10v1196q0 10 -10 10h-940q-10 0 -10 -10v-1196q0 -10 10 -10h940z" />
    <glyph glyph-name="fongmanthai" unicode="&#xef;" horiz-adv-x="909" 
d="M454 750q75 0 141.5 -28.5t116 -78t78.5 -116t29 -142.5q0 -75 -29 -141.5t-78.5 -116t-116 -78t-141.5 -28.5t-141.5 28.5t-116 78t-78 116t-28.5 141.5q0 76 28.5 142.5t78 116t116 78t141.5 28.5zM454 68q66 0 124 25t101 68t68 101t25 123q0 66 -25 124t-68 101
t-101 68t-124 25t-123.5 -25t-100.5 -68t-68 -101t-25 -124q0 -65 25 -123t68 -101t100.5 -68t123.5 -25zM454 636q52 0 97.5 -19.5t79.5 -53.5t54 -80t20 -98q0 -51 -20 -96.5t-54 -79.5t-79.5 -53.5t-97.5 -19.5q-51 0 -96.5 19.5t-79.5 53.5t-53.5 79.5t-19.5 96.5
q0 52 19.5 98t53.5 80t79.5 53.5t96.5 19.5zM454 183q42 0 79 16t64.5 43.5t43.5 64t16 78.5t-16 79t-43.5 64.5t-64.5 43.5t-79 16t-78.5 -16t-64.5 -43.5t-44 -64.5t-16 -79t16 -78.5t44 -64t64.5 -43.5t78.5 -16z" />
    <glyph glyph-name="fongmanthai" unicode="&#xe4f;" horiz-adv-x="909" 
d="M454 750q75 0 141.5 -28.5t116 -78t78.5 -116t29 -142.5q0 -75 -29 -141.5t-78.5 -116t-116 -78t-141.5 -28.5t-141.5 28.5t-116 78t-78 116t-28.5 141.5q0 76 28.5 142.5t78 116t116 78t141.5 28.5zM454 68q66 0 124 25t101 68t68 101t25 123q0 66 -25 124t-68 101
t-101 68t-124 25t-123.5 -25t-100.5 -68t-68 -101t-25 -124q0 -65 25 -123t68 -101t100.5 -68t123.5 -25zM454 636q52 0 97.5 -19.5t79.5 -53.5t54 -80t20 -98q0 -51 -20 -96.5t-54 -79.5t-79.5 -53.5t-97.5 -19.5q-51 0 -96.5 19.5t-79.5 53.5t-53.5 79.5t-19.5 96.5
q0 52 19.5 98t53.5 80t79.5 53.5t96.5 19.5zM454 183q42 0 79 16t64.5 43.5t43.5 64t16 78.5t-16 79t-43.5 64.5t-64.5 43.5t-79 16t-78.5 -16t-64.5 -43.5t-44 -64.5t-16 -79t16 -78.5t44 -64t64.5 -43.5t78.5 -16z" />
    <glyph glyph-name="zerothai" unicode="&#xf0;" horiz-adv-x="892" 
d="M821 415q3 -201 -90 -310.5t-287 -109.5q-86 0 -155.5 23t-118 73t-74.5 129t-26 192q0 202 96.5 310.5t279.5 108.5q85 0 154 -22.5t118 -72.5t75.5 -129t27.5 -192zM445 75q72 0 127 16t92.5 55t56.5 104t19 164q0 98 -19 163t-56.5 103.5t-92.5 54.5t-127 16
t-126.5 -15.5t-92 -54t-56.5 -103.5t-19 -164t19 -164.5t56.5 -104t92 -54.5t126.5 -16z" />
    <glyph glyph-name="zerothai" unicode="&#xe50;" horiz-adv-x="892" 
d="M821 415q3 -201 -90 -310.5t-287 -109.5q-86 0 -155.5 23t-118 73t-74.5 129t-26 192q0 202 96.5 310.5t279.5 108.5q85 0 154 -22.5t118 -72.5t75.5 -129t27.5 -192zM445 75q72 0 127 16t92.5 55t56.5 104t19 164q0 98 -19 163t-56.5 103.5t-92.5 54.5t-127 16
t-126.5 -15.5t-92 -54t-56.5 -103.5t-19 -164t19 -164.5t56.5 -104t92 -54.5t126.5 -16z" />
    <glyph glyph-name="onethai" unicode="&#xf1;" horiz-adv-x="827" 
d="M403 831q108 0 176.5 -35t108 -93t54.5 -134t15 -157q0 -85 -15.5 -161t-58.5 -133t-118.5 -90t-195.5 -33q-24 0 -55 2t-64.5 6t-69 9t-69.5 11v80q32 -6 67 -11.5t69 -9t65 -5.5t55 -2q95 0 155.5 21t95 63t47.5 105t13 147q0 69 -10 131t-39.5 108.5t-83.5 73.5
t-142 27q-122 0 -187.5 -56.5t-65.5 -163.5q0 -103 48.5 -147t139.5 -44h20.5t20.5 2v-79q-8 -1 -18.5 -1h-18.5q-58 0 -108 14.5t-86.5 47t-57 83.5t-20.5 123q0 69 24 125t67.5 95t105 60t136.5 21z" />
    <glyph glyph-name="onethai" unicode="&#xe51;" horiz-adv-x="827" 
d="M403 831q108 0 176.5 -35t108 -93t54.5 -134t15 -157q0 -85 -15.5 -161t-58.5 -133t-118.5 -90t-195.5 -33q-24 0 -55 2t-64.5 6t-69 9t-69.5 11v80q32 -6 67 -11.5t69 -9t65 -5.5t55 -2q95 0 155.5 21t95 63t47.5 105t13 147q0 69 -10 131t-39.5 108.5t-83.5 73.5
t-142 27q-122 0 -187.5 -56.5t-65.5 -163.5q0 -103 48.5 -147t139.5 -44h20.5t20.5 2v-79q-8 -1 -18.5 -1h-18.5q-58 0 -108 14.5t-86.5 47t-57 83.5t-20.5 123q0 69 24 125t67.5 95t105 60t136.5 21z" />
    <glyph glyph-name="twothai" unicode="&#xf2;" horiz-adv-x="1032" 
d="M942 250q0 -59 -22.5 -105.5t-65 -78.5t-104 -49t-138.5 -17h-192q-77 0 -138.5 17t-104 49t-65 78.5t-22.5 105.5v792h80v-792q0 -87 67 -128.5t183 -41.5h192q58 0 104 10t78.5 31t50 53t17.5 76v364q0 19 -1 39t-8.5 38.5t-23 34t-45.5 26.5l-144 -90l-141 88
q-24 -4 -39.5 -18t-24.5 -33t-12.5 -40t-3.5 -39v-215h-79v217q1 95 43 148t140 61l117 -81l117 81q45 0 79.5 -16.5t58 -44.5t35.5 -64t12 -75v-381v0z" />
    <glyph glyph-name="twothai" unicode="&#xe52;" horiz-adv-x="1032" 
d="M942 250q0 -59 -22.5 -105.5t-65 -78.5t-104 -49t-138.5 -17h-192q-77 0 -138.5 17t-104 49t-65 78.5t-22.5 105.5v792h80v-792q0 -87 67 -128.5t183 -41.5h192q58 0 104 10t78.5 31t50 53t17.5 76v364q0 19 -1 39t-8.5 38.5t-23 34t-45.5 26.5l-144 -90l-141 88
q-24 -4 -39.5 -18t-24.5 -33t-12.5 -40t-3.5 -39v-215h-79v217q1 95 43 148t140 61l117 -81l117 81q45 0 79.5 -16.5t58 -44.5t35.5 -64t12 -75v-381v0z" />
    <glyph glyph-name="threethai" unicode="&#xf3;" horiz-adv-x="935" 
d="M634 831q49 0 88 -16.5t66.5 -46t42 -69t14.5 -84.5v-615h-80v615q0 62 -27 94t-94 43l-181 -87l-181 87q-64 -7 -93.5 -35.5t-29.5 -95.5v-371q0 -170 138 -170h96v-80h-96q-39 0 -78 13t-69.5 43t-50 77.5t-19.5 116.5v366q0 47 13.5 86.5t40.5 68t66.5 44.5t91.5 16h9
l162 -84l162 84h9z" />
    <glyph glyph-name="threethai" unicode="&#xe53;" horiz-adv-x="935" 
d="M634 831q49 0 88 -16.5t66.5 -46t42 -69t14.5 -84.5v-615h-80v615q0 62 -27 94t-94 43l-181 -87l-181 87q-64 -7 -93.5 -35.5t-29.5 -95.5v-371q0 -170 138 -170h96v-80h-96q-39 0 -78 13t-69.5 43t-50 77.5t-19.5 116.5v366q0 47 13.5 86.5t40.5 68t66.5 44.5t91.5 16h9
l162 -84l162 84h9z" />
    <glyph glyph-name="fourthai" unicode="&#xf4;" horiz-adv-x="928" 
d="M888 829v-80h-433q-84 0 -142 -18t-94 -57.5t-52 -103.5t-17 -156q1 -92 17 -155.5t52 -103t94 -57.5t142 -18h108v313q0 33 23 56t56 23h134v-79h-103q-17 0 -23 -6.5t-6 -23.5v-283h173v-80h-362q-192 0 -288 99.5t-97 313.5q0 215 97 315.5t288 100.5h433z" />
    <glyph glyph-name="fourthai" unicode="&#xe54;" horiz-adv-x="928" 
d="M888 829v-80h-433q-84 0 -142 -18t-94 -57.5t-52 -103.5t-17 -156q1 -92 17 -155.5t52 -103t94 -57.5t142 -18h108v313q0 33 23 56t56 23h134v-79h-103q-17 0 -23 -6.5t-6 -23.5v-283h173v-80h-362q-192 0 -288 99.5t-97 313.5q0 215 97 315.5t288 100.5h433z" />
    <glyph glyph-name="fivethai" unicode="&#xf5;" horiz-adv-x="928" 
d="M656 882q0 -5 -2 -20.5t-12 -32.5h246v-81h-433q-84 0 -142 -18t-94.5 -57.5t-52.5 -103.5t-16 -155t16 -154.5t52.5 -103.5t94.5 -58t142 -18h107v313q0 33 23 56t56 23h135v-79h-104q-16 0 -22.5 -6.5t-6.5 -23.5v-283h174v-80h-362q-192 0 -288.5 99.5t-96.5 313.5
q0 203 91 304t275 113q-6 20 -8 32t-2 20q0 24 9 44.5t24.5 36t36 24.5t44.5 9t45 -9t37 -24.5t25 -36t9 -44.5zM491 882q0 -20 14.5 -34.5t34.5 -14.5q21 0 36 14.5t15 34.5q0 21 -15 36t-36 15q-20 0 -34.5 -15t-14.5 -36z" />
    <glyph glyph-name="fivethai" unicode="&#xe55;" horiz-adv-x="928" 
d="M656 882q0 -5 -2 -20.5t-12 -32.5h246v-81h-433q-84 0 -142 -18t-94.5 -57.5t-52.5 -103.5t-16 -155t16 -154.5t52.5 -103.5t94.5 -58t142 -18h107v313q0 33 23 56t56 23h135v-79h-104q-16 0 -22.5 -6.5t-6.5 -23.5v-283h174v-80h-362q-192 0 -288.5 99.5t-96.5 313.5
q0 203 91 304t275 113q-6 20 -8 32t-2 20q0 24 9 44.5t24.5 36t36 24.5t44.5 9t45 -9t37 -24.5t25 -36t9 -44.5zM491 882q0 -20 14.5 -34.5t34.5 -14.5q21 0 36 14.5t15 34.5q0 21 -15 36t-36 15q-20 0 -34.5 -15t-14.5 -36z" />
    <glyph glyph-name="sixthai" unicode="&#xf6;" horiz-adv-x="900" 
d="M830 413q0 -90 -17.5 -166.5t-60.5 -132.5t-114.5 -87.5t-179.5 -31.5q-168 0 -250.5 83.5t-82.5 246.5v68q0 33 23 56t56 23h134v-79h-103q-17 0 -23 -6.5t-6 -23.5v-53q0 -72 18.5 -117.5t51.5 -71.5t79.5 -36t102.5 -10q91 0 148.5 22t89.5 65t43.5 105.5t11.5 143.5
q0 83 -12 146.5t-45 106.5t-93 65t-156 22q-62 0 -125.5 -5.5t-132.5 -19.5l-157 35q5 22 9 40t9 38l140 -33q68 14 132 19.5t126 5.5q113 0 187 -30.5t117.5 -85.5t61 -132t18.5 -170z" />
    <glyph glyph-name="sixthai" unicode="&#xe56;" horiz-adv-x="900" 
d="M830 413q0 -90 -17.5 -166.5t-60.5 -132.5t-114.5 -87.5t-179.5 -31.5q-168 0 -250.5 83.5t-82.5 246.5v68q0 33 23 56t56 23h134v-79h-103q-17 0 -23 -6.5t-6 -23.5v-53q0 -72 18.5 -117.5t51.5 -71.5t79.5 -36t102.5 -10q91 0 148.5 22t89.5 65t43.5 105.5t11.5 143.5
q0 83 -12 146.5t-45 106.5t-93 65t-156 22q-62 0 -125.5 -5.5t-132.5 -19.5l-157 35q5 22 9 40t9 38l140 -33q68 14 132 19.5t126 5.5q113 0 187 -30.5t117.5 -85.5t61 -132t18.5 -170z" />
    <glyph glyph-name="seventhai" unicode="&#xf7;" horiz-adv-x="1127" 
d="M555 831q54 0 93 -16.5t65 -45.5t38.5 -67.5t12.5 -83.5v-475q0 -9 1 -20.5t8 -21t22 -16t43 -6.5h46q28 0 43.5 6.5t22.5 16t8 21t1 20.5v899h78v-899q0 -65 -42 -104t-111 -39h-46q-69 0 -111 39t-42 104v475q0 60 -27 92t-93 43q-33 -20 -71 -42.5t-71 -42.5l-144 85
q-63 -7 -92 -35t-29 -94v-377q0 -86 34 -127t102 -41h95v-79h-95q-39 0 -77 13t-68.5 42t-49.5 76.5t-19 115.5v372q0 46 13.5 85t40 67.5t65.5 44t90 15.5h7l127 -84q28 19 61.5 42t62.5 42h8z" />
    <glyph glyph-name="seventhai" unicode="&#xe57;" horiz-adv-x="1127" 
d="M555 831q54 0 93 -16.5t65 -45.5t38.5 -67.5t12.5 -83.5v-475q0 -9 1 -20.5t8 -21t22 -16t43 -6.5h46q28 0 43.5 6.5t22.5 16t8 21t1 20.5v899h78v-899q0 -65 -42 -104t-111 -39h-46q-69 0 -111 39t-42 104v475q0 60 -27 92t-93 43q-33 -20 -71 -42.5t-71 -42.5l-144 85
q-63 -7 -92 -35t-29 -94v-377q0 -86 34 -127t102 -41h95v-79h-95q-39 0 -77 13t-68.5 42t-49.5 76.5t-19 115.5v372q0 46 13.5 85t40 67.5t65.5 44t90 15.5h7l127 -84q28 19 61.5 42t62.5 42h8z" />
    <glyph glyph-name="eightthai" unicode="&#xf8;" horiz-adv-x="928" 
d="M888 829v-80h-433q-84 0 -142.5 -18.5t-94.5 -58.5t-52 -104t-16 -155q0 -81 8.5 -137.5t22 -93t30 -57t32.5 -30.5t30 -13t23 -4q40 30 79 61.5t80 62.5l158 -121q28 1 48.5 15t34 36t20 48.5t6.5 52.5v132q0 9 -6.5 18.5t-23.5 9.5h-102v79h133q33 0 56.5 -23t23.5 -56
v-161q0 -46 -12.5 -88t-38 -74t-63.5 -51t-89 -19h-13l-132 107q-28 -23 -64 -52.5t-65 -54.5h-16q-56 0 -95.5 19.5t-66 51.5t-42.5 74.5t-24 88t-10 92t-2 87.5q0 216 96 316t289 100h433z" />
    <glyph glyph-name="eightthai" unicode="&#xe58;" horiz-adv-x="928" 
d="M888 829v-80h-433q-84 0 -142.5 -18.5t-94.5 -58.5t-52 -104t-16 -155q0 -81 8.5 -137.5t22 -93t30 -57t32.5 -30.5t30 -13t23 -4q40 30 79 61.5t80 62.5l158 -121q28 1 48.5 15t34 36t20 48.5t6.5 52.5v132q0 9 -6.5 18.5t-23.5 9.5h-102v79h133q33 0 56.5 -23t23.5 -56
v-161q0 -46 -12.5 -88t-38 -74t-63.5 -51t-89 -19h-13l-132 107q-28 -23 -64 -52.5t-65 -54.5h-16q-56 0 -95.5 19.5t-66 51.5t-42.5 74.5t-24 88t-10 92t-2 87.5q0 216 96 316t289 100h433z" />
    <glyph glyph-name="ninethai" unicode="&#xf9;" horiz-adv-x="917" 
d="M670 749l-149 -157l239 -592h-86l-303 750h-89q-41 0 -65.5 -13t-37 -33t-16 -43.5t-3.5 -45.5v-365q0 -170 127 -170h90v-80h-90q-38 0 -75 13t-66 43t-47.5 77.5t-18.5 116.5v365q0 46 13 85.5t38.5 68t63.5 44.5t87 16h142l65 -154l146 154h252v-80h-217z" />
    <glyph glyph-name="ninethai" unicode="&#xe59;" horiz-adv-x="917" 
d="M670 749l-149 -157l239 -592h-86l-303 750h-89q-41 0 -65.5 -13t-37 -33t-16 -43.5t-3.5 -45.5v-365q0 -170 127 -170h90v-80h-90q-38 0 -75 13t-66 43t-47.5 77.5t-18.5 116.5v365q0 46 13 85.5t38.5 68t63.5 44.5t87 16h142l65 -154l146 154h252v-80h-217z" />
    <glyph glyph-name="angkhankhuthai" unicode="&#xfa;" horiz-adv-x="930" 
d="M139 626q0 -24 4 -43t15 -32.5t30.5 -20.5t50.5 -7h86q52 45 111 95t113 95h77v-590l-244 -179q-14 20 -22.5 32.5t-20.5 29.5l208 157v457q-20 -18 -45.5 -40.5t-51.5 -45.5t-51.5 -45.5t-45.5 -39.5q-4 -2 -9.5 -3.5t-10.5 -1.5h-94q-85 0 -132 48.5t-47 133.5v59
q0 85 47 133t132 48h22v-78h-22q-31 0 -50.5 -7t-30.5 -20.5t-15 -32.5t-4 -43v-59zM820 713v-670l-244 -179q-14 20 -22.5 32.5t-20.5 29.5l208 157v630h79z" />
    <glyph glyph-name="angkhankhuthai" unicode="&#xe5a;" horiz-adv-x="930" 
d="M139 626q0 -24 4 -43t15 -32.5t30.5 -20.5t50.5 -7h86q52 45 111 95t113 95h77v-590l-244 -179q-14 20 -22.5 32.5t-20.5 29.5l208 157v457q-20 -18 -45.5 -40.5t-51.5 -45.5t-51.5 -45.5t-45.5 -39.5q-4 -2 -9.5 -3.5t-10.5 -1.5h-94q-85 0 -132 48.5t-47 133.5v59
q0 85 47 133t132 48h22v-78h-22q-31 0 -50.5 -7t-30.5 -20.5t-15 -32.5t-4 -43v-59zM820 713v-670l-244 -179q-14 20 -22.5 32.5t-20.5 29.5l208 157v630h79z" />
    <glyph glyph-name="saraulowthai" unicode="&#xfc;" 
d="M-132 -410q17 0 29.5 -12.5t12.5 -30.5v-213h-79v182h-106v74h143v0z" />
    <glyph glyph-name="saraulowthai" unicode="&#xf718;" 
d="M-132 -410q17 0 29.5 -12.5t12.5 -30.5v-213h-79v182h-106v74h143v0z" />
    <glyph glyph-name="sarauulowthai" unicode="&#xfd;" 
d="M-80 -545q0 -57 -35 -94t-108 -37h-36q-72 0 -107.5 37t-35.5 94v61h-72v74h108q18 0 30.5 -12.5t12.5 -30.5v-85q0 -43 22.5 -57.5t56.5 -14.5h7q33 0 56 14.5t23 57.5v128h78v-135z" />
    <glyph glyph-name="sarauulowthai" unicode="&#xf719;" 
d="M-80 -545q0 -57 -35 -94t-108 -37h-36q-72 0 -107.5 37t-35.5 94v61h-72v74h108q18 0 30.5 -12.5t12.5 -30.5v-85q0 -43 22.5 -57.5t56.5 -14.5h7q33 0 56 14.5t23 57.5v128h78v-135z" />
    <glyph glyph-name="phinthulowthai" unicode="&#xfe;" 
d="M-174 -410q19 0 36.5 -7.5t30 -20t20 -30t7.5 -36.5q0 -20 -7.5 -37t-20 -29.5t-30 -20t-36.5 -7.5q-39 0 -66 27.5t-27 66.5t27 66.5t66 27.5z" />
    <glyph glyph-name="phinthulowthai" unicode="&#xf71a;" 
d="M-174 -410q19 0 36.5 -7.5t30 -20t20 -30t7.5 -36.5q0 -20 -7.5 -37t-20 -29.5t-30 -20t-36.5 -7.5q-39 0 -66 27.5t-27 66.5t27 66.5t66 27.5z" />
    <glyph glyph-name="nptp3.001march2007r" unicode="&#xe3e;" 
 />
    <glyph glyph-name="khomutthai" unicode="&#xe5b;" horiz-adv-x="1104" 
d="M40 0v1280h1024v-1280h-1024zM1022 32q10 0 10 10v1196q0 10 -10 10h-940q-10 0 -10 -10v-1196q0 -10 10 -10h940z" />
    <glyph glyph-name="ZWSP" unicode="&#x200b;" 
 />
    <glyph glyph-name="uni25CC" unicode="&#x25cc;" horiz-adv-x="1069" 
d="M536 95q19 0 34 -14t15 -34q0 -19 -15 -33t-34 -14q-20 0 -33.5 14t-13.5 33q0 20 13.5 34t33.5 14zM914 477q21 0 35 -14t14 -33q0 -21 -13 -35.5t-36 -14.5q-19 0 -32.5 14.5t-13.5 35.5q0 19 13.5 33t32.5 14zM155 477q17 0 32 -14t15 -33q0 -21 -14 -35.5t-33 -14.5
q-20 0 -34.5 14.5t-14.5 35.5q0 19 14.5 33t34.5 14zM536 857q19 0 34 -13.5t15 -33.5q0 -19 -15 -32.5t-34 -13.5q-20 0 -33.5 13.5t-13.5 32.5q0 20 13.5 33.5t33.5 13.5zM268 744q21 0 35 -13t14 -36q0 -20 -14 -33.5t-35 -13.5q-19 0 -33 13.5t-14 33.5q0 23 14 36
t33 13zM803 744q18 0 32.5 -13t14.5 -36q0 -20 -13.5 -33.5t-33.5 -13.5t-34.5 13.5t-14.5 33.5q0 23 14.5 36t34.5 13zM803 209q18 0 32.5 -13.5t14.5 -33.5t-13.5 -33.5t-33.5 -13.5t-34.5 13.5t-14.5 33.5t14.5 33.5t34.5 13.5zM268 209q21 0 35 -13.5t14 -33.5
t-14 -33.5t-35 -13.5q-19 0 -33 13.5t-14 33.5t14 33.5t33 13.5z" />
    <glyph glyph-name="Fontcraft" horiz-adv-x="897" 
d="M248 136q0 -4 -0.5 -7.5t-1.5 -8.5q-7 -27 -22.5 -40t-36.5 -13q-25 0 -34 13.5t-9 27.5q0 20 6.5 33.5t16 21.5t20 11t18.5 3q20 0 31.5 -11t11.5 -30zM225 125q3 11 -1.5 20.5t-18.5 9.5q-18 0 -28.5 -15t-10.5 -35q0 -3 3.5 -9.5t17.5 -6.5q29 0 38 36zM421 174
q5 0 8 -3.5t3 -6.5q0 -12 -11 -12h-19l-10 -43v-12q0 -8 4 -8q2 0 5 1t5 1q11 0 11 -10q0 -8 -6.5 -10.5t-12.5 -2.5q-14 0 -21.5 9t-7.5 23q0 3 1 6.5t1 7.5l9 38h-12q-11 0 -11 12q0 10 11 10h16l8 37q0 8 10 8q5 0 8 -4t3 -9l-6 -32h14zM149 164q0 -12 -11 -12h-16
l-16 -75q-4 -21 -17 -31.5t-31 -10.5q-12 0 -12 11q0 8 5.5 9t12 2.5t12.5 5.5t8 18l15 71h-13q-5 0 -8.5 3.5t-3.5 8.5q0 4 3.5 7t8.5 3h17l4 17q3 19 16 30t33 11q4 0 7.5 -3t3.5 -8q0 -9 -5 -9.5t-11.5 -1t-13 -4.5t-9.5 -19l-2 -13h12q11 0 11 -10zM345 158q3 -6 3 -14
q0 -2 -0.5 -3.5t-0.5 -4.5l-13 -59q-3 -10 -11 -10q-5 0 -8 3.5t-3 7.5q0 2 1 3l12 60q0 9 -2.5 11t-4.5 4q-3 0 -14 -3.5t-21 -12.5l-14 -63q-2 -10 -11 -10q-5 0 -7.5 3.5t-2.5 7.5v3l19 87q2 9 10 9q5 0 8 -3t3 -6h1q6 3 12 5.5t12 3.5q6 0 16.5 -2.5t15.5 -16.5z
M836 174q5 0 7.5 -3.5t2.5 -6.5q0 -12 -10 -12h-20l-9 -43q-1 -5 -1 -7v-5q0 -2 0.5 -5t4.5 -3q2 0 5 1t5 1q4 0 7.5 -3t3.5 -8q0 -7 -6 -9.5t-13 -2.5q-11 0 -20 8t-9 24q0 4 2 14l8 38h-31l-15 -75q-4 -18 -16 -30t-33 -12q-11 0 -11 11q0 8 5.5 9.5t12 2t12.5 5t8 18.5
l15 71h-14q-10 0 -10 12q0 10 10 10h19l2 17q1 3 3 10t7.5 14t15 12t24.5 5q10 0 10 -11q0 -7 -5 -8.5t-11 -3t-12.5 -5.5t-9.5 -17l-3 -13h31l4 14q0 8 10 8q11 0 11 -10q0 -1 -0.5 -2.5t-1.5 -9.5h15zM615 166q0 -5 -3.5 -7.5t-8.5 -2.5q-23 0 -27 -24l-12 -56
q-2 -9 -10 -9q-5 0 -8 3.5t-3 7.5v3l11 55q11 41 49 41q5 0 8.5 -3t3.5 -8zM692 88q-17 -19 -45 -19q-15 0 -27 9.5t-9 29.5q3 19 20 24.5t31 7.5h10t10 -1q0 2 0.5 3.5t0.5 3.5q0 5 -3 8t-13 3q-5 0 -14.5 -2.5t-17.5 -2.5q-9 0 -9 6q0 11 16.5 15.5t29.5 4.5q12 0 19 -3.5
t10.5 -8.5t4 -9.5t0.5 -7.5q0 -2 -1 -5.5t-2 -5.5zM678 118q-24 0 -35 -3t-12 -14q0 -6 7.5 -9t15.5 -3t18 4zM543 156q0 -1 0.5 -2.5t0.5 -2.5q0 -4 -2.5 -7.5t-7.5 -3.5q-4 0 -6.5 2.5l-5.5 5.5t-7.5 5.5t-11.5 2.5q-11 0 -23.5 -12t-12.5 -36q0 -19 21 -19q8 0 14 4t12 4
q10 0 10 -12q0 -9 -13.5 -13.5t-22.5 -4.5q-24 0 -33.5 13.5t-9.5 27.5q0 36 19 52.5t39 16.5q17 0 26 -7t14 -14zM448 1063q84 0 158 -31.5t130 -87t88.5 -130t32.5 -159.5q0 -84 -32 -158.5t-87 -130t-130 -87.5t-160 -32q-84 0 -158.5 31.5t-130 87t-87.5 129.5t-32 160
q0 85 32 159t87.5 129.5t130 87.5t158.5 32zM448 322q68 0 128.5 26t106.5 71.5t72.5 106t26.5 129.5q0 51 -14.5 97t-40.5 86l-53 -231q-4 -23 -17.5 -45t-33.5 -39.5t-45 -28t-53 -10.5q-26 0 -48 10.5t-39 28.5q-22 -18 -46 -28.5t-53 -10.5q-26 0 -47 9.5t-35.5 25
t-22.5 35.5t-8 42q0 3 0.5 7.5t2 14t5 26.5t9.5 45q-15 -5 -28.5 8.5t-13.5 28.5q0 17 12 29.5t51 12.5q11 0 23 -2.5t21.5 -8t14.5 -15t3 -24.5l-24 -111q-3 -18 6 -33t31 -15q14 0 26.5 5.5t23 14.5t17.5 20.5t10 23.5l23 111q3 14 13 22t24 8q16 0 26.5 -11.5t10.5 -26.5
q0 -1 -0.5 -4t-3 -14t-7.5 -34.5t-14 -66.5q-3 -18 6 -33t31 -15q12 0 24.5 5t23.5 14t19 20.5t10 24.5l65 284q-44 38 -100 59.5t-119 21.5q-69 0 -129.5 -26t-106 -71.5t-72 -106t-26.5 -129.5t26.5 -129.5t72 -106t106 -71.5t129.5 -26z" />
    <glyph glyph-name="lochula.short" horiz-adv-x="1055" 
d="M865 776l97 -106l-82 -670h-158l-177 594h-35q-21 -71 -43.5 -147t-45.5 -153t-45 -152t-42 -142h-160l-104 866h78l96 -786h37l177 594h139l176 -594h38l68 567l-106 130l161 193l60 -50z" />
    <glyph glyph-name="saraamleft" horiz-adv-x="667" 
d="M-397 947q-29 0 -53.5 11t-43.5 29.5t-29.5 43.5t-10.5 54q0 28 10.5 53t29.5 44t43.5 30t53.5 11t54 -11t43.5 -30t29 -44t10.5 -53q0 -29 -10.5 -54t-29 -43.5t-43.5 -29.5t-54 -11zM-397 1151q-28 0 -46.5 -18.5t-18.5 -47.5q0 -27 18.5 -47t46.5 -20q29 0 48 20
t19 47q0 29 -19 47.5t-48 18.5zM363 874q-81 0 -154.5 -6t-148.5 -20v-82q80 14 152.5 22.5t144.5 3.5q43 -2 70.5 -15.5t43 -33t21 -43t5.5 -47.5v-653h80v649q0 110 -56 167.5t-158 57.5z" />
    <glyph glyph-name="yamakkanleftthai" 
d="M256 0v1280h1024v-1280h-1024zM1238 32q10 0 10 10v1196q0 10 -10 10h-940q-10 0 -10 -10v-1196q0 -10 10 -10h940z" />
    </font>
</defs>
</svg>
