<?xml version="1.0" standalone="no"?>
<!DOCTYPE svg PUBLIC "-//W3C//DTD SVG 1.1//EN" "http://www.w3.org/Graphics/SVG/1.1/DTD/svg11.dtd" >
<svg xmlns="http://www.w3.org/2000/svg" xmlns:xlink="http://www.w3.org/1999/xlink" version="1.1">
<metadata>
Created by FontForge 20170731 at Mon Aug 24 19:45:29 2015
 By Aleksey,,,
Copyright (c) 2013 by Fontcraft : Jutipong Poosumas. All rights reserved.
</metadata>
<defs>
<font id="SuperspaceRegularSlant" horiz-adv-x="0" >
  <font-face 
    font-family="Superspace Regular Slant"
    font-weight="400"
    font-stretch="normal"
    units-per-em="2048"
    panose-1="2 0 0 0 0 0 0 0 0 0"
    ascent="1638"
    descent="-410"
    x-height="966"
    cap-height="1161"
    bbox="-1246.74 -808 1884 1846"
    underline-thickness="72"
    underline-position="-365"
    unicode-range="U+0020-25CC"
  />
<missing-glyph horiz-adv-x="1536" 
d="M1280 0h-1024v1280h1024v-1280zM298 32h940q10 0 10 10v1196q0 10 -10 10h-940q-10 0 -10 -10v-1196q0 -10 10 -10z" />
    <glyph glyph-name="quotedblleft" unicode="&#x91;&#x91;" horiz-adv-x="623" 
d="M-89 914l-96 400h156l77 -400h-137zM175 914l-96 400h156l78 -400h-138z" />
    <glyph glyph-name="quotedblright" unicode="&#x92;&#x92;" horiz-adv-x="626" 
d="M-81 914l-96 400h156l77 -400h-137zM183 914l-96 400h156l78 -400h-138z" />
    <glyph glyph-name="copyright2" unicode="&#x3b;&#x3b;For&#x20;Education&#x20;Used&#x20;Only&#x3b;&#x3b;" horiz-adv-x="1306" 
d="M497 1228q182 0 356.5 -90.5t298.5 -246t163 -338.5q21 -112 10.5 -212.5t-57 -185t-115.5 -145.5t-164.5 -95.5t-204.5 -34.5q-137 0 -273 53.5t-245.5 143.5t-189 214.5t-108.5 261.5q-21 113 -11 213t56 185t114.5 146.5t164.5 96t205 34.5zM1093 179h1
q59 73 78.5 168.5t-2.5 205.5q-31 143 -127.5 265t-234 193.5t-280.5 71.5q-144 0 -251 -71t-152 -193t-14 -266q31 -143 127.5 -264.5t233.5 -192.5t281 -71h6q101 0 244 68l-3 -1q60 40 93 87zM696 301q91 0 236 57l76 -135q-163 -63 -283 -63q-131 0 -232.5 60
t-135.5 159q-35 111 -48 174q-19 90 -22 153l1 -1q-8 99 67.5 158t209.5 59q119 0 308 -63l-19 -134q-162 56 -260 56q-81 0 -123 -27t-41 -69l1 1q5 -69 19 -133q12 -54 34 -126v1q2 -6 5 -18t4 -15q18 -42 71.5 -68t131.5 -26z" />
    <glyph glyph-name="registered2" unicode="&#x3b;&#x3b;Registered&#x3b;&#x3b;" horiz-adv-x="1306" 
d="M497 1216q135 0 269.5 -53.5t243 -142.5t188 -213t108.5 -259q38 -181 -19 -334.5t-191.5 -243t-314.5 -89.5q-182 0 -354.5 89.5t-294.5 243t-160 334.5q-21 111 -11 210.5t55.5 183.5t113.5 144.5t163 95t204 34.5zM1087 177h1q58 72 77.5 166.5t-2.5 204.5
q-30 142 -126 263t-232 191.5t-278 70.5q-143 0 -249 -70.5t-150.5 -191.5t-14.5 -263t126 -263t232 -191t279 -70h6q97 0 241 68l-3 -1q60 41 93 86zM880 432q70 -109 192 -251h-166q-89 108 -184 265h-199l56 -264h-140l-156 735h251q96 0 145 -5h-1q105 -11 160.5 -67.5
t80.5 -172.5q35 -163 -61 -203l1 -2q3 -5 6.5 -11t8 -13.5t6.5 -10.5zM643 588q108 0 122 3q25 6 23 33q0 14 -8 49q-5 26 -11 42.5t-19 29t-24.5 18t-39 9t-51 4t-71.5 0.5h-111l40 -188h150z" />
    <glyph glyph-name="trademark2" unicode="&#x3b;&#x3b;Trademark&#x3b;&#x3b;" horiz-adv-x="1990" 
d="M-72 1164h674l32 -149h-261l113 -531h-149l-113 531h-264zM1411 1164h153l145 -680h-148l-90 422q-36 -71 -114 -208t-112 -205l-390 409l89 -418h-148l-145 680h154l385 -410q35 73 110.5 206t110.5 204z" />
    <glyph glyph-name="multiply2" unicode="&#x3b;&#x3b;Multiply&#x3b;&#x3b;" horiz-adv-x="1069" 
d="M772 332l-82 -103l-294 242q-31 -41 -97 -125t-93 -118l-127 105l191 242l-293 243l80 104l294 -243l192 243l127 -105l-192 -243z" />
    <glyph glyph-name="divide2" unicode="&#x3b;&#x3b;Divide&#x3b;&#x3b;" horiz-adv-x="1050" 
d="M553 282q9 -43 -14.5 -73t-66.5 -30t-79 30t-45 73q-10 43 14 73t67 30t78.5 -30t45.5 -73zM426 876q9 -43 -14 -73t-66 -30t-79.5 30t-45.5 73t14.5 73t66.5 30t79 -30t45 -73zM-16 502l-31 147h832l31 -147h-832z" />
    <glyph glyph-name="rulakkhangyao" unicode="&#xc4;&#xd2;" horiz-adv-x="1870" 
d="M617 942q146 -85 176 -224l243 -1146h-147l-243 1146q-14 63 -100 111t-217 48q-109 0 -235 -42l111 -522q23 -108 69 -143.5t135 -35.5l31 -147q-152 0 -247 76.5t-135 248.5l-132 628q199 83 372 83q185 0 319 -81zM1557 714l242 -1142h-146l-242 1141q-16 67 -85 115
t-177 48q-123 0 -282 -83l-92 134q186 96 343 96q166 0 288.5 -89.5t150.5 -219.5z" />
    <glyph glyph-name="lulakkhangyao" unicode="&#xc6;&#xd2;" horiz-adv-x="1846" 
d="M617 942q145 -87 175 -223l243 -1147h-147l-243 1147q-14 63 -100 110.5t-218 47.5q-116 0 -235 -41l143 -673q16 -74 -37.5 -125t-135.5 -51l-31 147q23 0 42 9.5t17 19.5l-164 777q197 83 370 83q184 0 321 -81zM1542 714l242 -1142h-146l-242 1141q-15 67 -85 115
t-177 48q-123 0 -283 -83l-91 134q185 96 343 96q166 0 288.5 -89.5t150.5 -219.5z" />
    <glyph glyph-name=".notdef" horiz-adv-x="1536" 
d="M1280 0h-1024v1280h1024v-1280zM298 32h940q10 0 10 10v1196q0 10 -10 10h-940q-10 0 -10 -10v-1196q0 -10 10 -10z" />
    <glyph glyph-name=".null" 
 />
    <glyph glyph-name="nonmarkingreturn" horiz-adv-x="579" 
 />
    <glyph glyph-name="space" unicode=" " horiz-adv-x="690" 
 />
    <glyph glyph-name="exclam" unicode="!" horiz-adv-x="423" 
d="M67 328l-215 927h171l182 -927h-138zM295 119q11 -48 -15.5 -82.5t-76.5 -34.5q-47 0 -89.5 35t-52.5 82t17.5 82t74.5 35q50 0 91 -34.5t51 -82.5z" />
    <glyph glyph-name="quotedbl" unicode="&#x22;" horiz-adv-x="614" 
d="M-77 834l-96 400h156l77 -400h-137zM187 834l-96 400h156l78 -400h-138z" />
    <glyph glyph-name="numbersign" unicode="#" horiz-adv-x="1364" 
d="M1094 443l32 -148h-264q-2 -33 -11 -138.5t-12 -157.5h-156l24 296h-357q-22 -291 -22 -296h-156l24 296h-241l-31 147h283q16 192 22 267h-245l-31 146h288q9 126 24 297h153l-23 -297h357q6 72 23 297h154l-22 -296h215l31 -147h-260q-14 -189 -20 -266h221zM362 442
h357q4 54 11.5 142.5t10.5 124.5h-358q-14 -173 -21 -267z" />
    <glyph glyph-name="dollar" unicode="$" horiz-adv-x="1084" 
d="M891 320l1 -4q23 -145 -51 -222.5t-213 -92.5l26 -121h-148l-25 117q-200 15 -426 109l31 135q241 -100 423 -100q121 0 183 45t50 141q-7 30 -22 54t-39.5 41.5t-46 29.5t-57 21.5t-56 14.5t-61 12t-54.5 10q-10 2 -61.5 11t-92.5 18t-101.5 33.5t-104 56.5t-82.5 88.5
t-54 128.5q-12 70 1 125.5t42 91t75.5 59.5t95.5 35t108 14l-25 117h148l25 -117q160 -16 333 -81l-31 -136q-182 73 -360 73q-128 0 -200.5 -48.5t-63.5 -136.5q9 -37 33 -66t50 -46t69 -31.5t69.5 -20.5t72 -14t58.5 -11h-1q15 -4 50 -10t64.5 -11.5t70.5 -18t75 -26.5
t71.5 -39t65.5 -55.5t51 -75t34 -97.5z" />
    <glyph glyph-name="percent" unicode="%" horiz-adv-x="1356" 
d="M155 1140q95 0 177.5 -68t102.5 -164l24 -111q20 -96 -33.5 -164t-148.5 -68h-122q-96 0 -177.5 68t-101.5 164l-24 111q-20 97 32.5 164.5t148.5 67.5h122zM247 707q36 0 57 26.5t13 63.5l-24 111q-7 37 -39 63t-68 26h-122q-37 0 -57 -26t-13 -63l23 -111
q8 -37 39.5 -63.5t68.5 -26.5h122zM942 584q97 0 179 -67.5t103 -164.5l23 -111q21 -97 -32 -164.5t-150 -67.5h-120q-97 0 -179 67.5t-103 164.5l-23 111q-21 97 32 164.5t150 67.5h120zM1034 152q38 0 58.5 26t12.5 63l-23 111q-8 37 -40 63.5t-69 26.5h-120
q-37 0 -58 -26.5t-13 -63.5l23 -111q8 -37 40 -63t69 -26h120zM759 1150h184l-604 -1150h-183z" />
    <glyph glyph-name="ampersand" unicode="&#x26;" horiz-adv-x="1267" 
d="M904 891l45 -211h79l30 -140h-79l39 -186q33 -156 -74 -262.5t-288 -106.5h-73q-116 0 -227.5 48t-191.5 133.5t-102 187.5l-8 41q-33 150 41 222q-103 83 -135 228l-1 5q-27 133 32.5 220t182.5 87h245l30 -141h-244q-64 0 -92.5 -45.5t-12.5 -122.5q17 -78 64.5 -122
t112.5 -46h531l-45 211h141zM877 355l-39 185h-532q-141 0 -109 -145l8 -40q20 -93 121 -160.5t227 -67.5h73q128 0 199.5 67.5t51.5 160.5z" />
    <glyph glyph-name="quotesingle" unicode="'" horiz-adv-x="301" 
d="M-98 834l-97 400h157l76 -400h-136z" />
    <glyph glyph-name="parenleft" unicode="(" horiz-adv-x="387" 
d="M71 1329l-7 -39q-61 -311 18 -687q28 -132 74 -267.5t95 -240.5t82 -168t58 -105h-158q-215 387 -298 784q-79 372 -21 723h157z" />
    <glyph glyph-name="parenright" unicode=")" horiz-adv-x="417" 
d="M-237 1329h156q208 -351 287 -726q84 -397 32 -781h-156q7 43 13 105t10 168t-7.5 241.5t-39.5 266.5q-79 376 -295 726z" />
    <glyph glyph-name="asterisk" unicode="*" horiz-adv-x="923" 
d="M621 938l-245 -75q0 -1 0.5 -2t0.5 -2q34 -34 107 -109t102 -104l-106 -92l-199 218h-3q-3 0 -2 -1h1q-1 0 -3 1q-18 -40 -56.5 -121t-46.5 -97l-147 91l119 213q-1 2 -1 2.5t-1 2.5q-44 12 -139.5 38.5t-134.5 37.5l15 150l279 -93q-12 51 -38.5 158t-28.5 117h157
l51 -274q36 14 118.5 45.5t118.5 45.5z" />
    <glyph glyph-name="plus" unicode="+" horiz-adv-x="1002" 
d="M775 649l31 -147h-342l73 -343h-148l-73 343h-343l-31 147h343l-74 344h148l74 -344h342z" />
    <glyph glyph-name="comma" unicode="," horiz-adv-x="425" 
d="M139 -85l-44 341h170l13 -341h-139z" />
    <glyph glyph-name="hyphen" unicode="-" horiz-adv-x="1063" 
d="M3 502l-30 147h832l31 -147h-833z" />
    <glyph glyph-name="period" unicode="." horiz-adv-x="394" 
d="M279 119q11 -48 -15.5 -82.5t-76.5 -34.5q-47 0 -89.5 35t-52.5 82t17.5 82t74.5 35q50 0 91 -34.5t51 -82.5z" />
    <glyph glyph-name="slash" unicode="/" horiz-adv-x="735" 
d="M389 1317h161l-350 -1487l-161 2z" />
    <glyph glyph-name="zero" unicode="0" horiz-adv-x="1170" 
d="M848 858v1q37 -104 68 -251q32 -149 46 -287q14 -145 -87.5 -234.5t-280.5 -92.5q-179 3 -319 94.5t-189 235.5q-49 155 -77 284q-30 152 -36 251q-9 141 91 231t277 95q179 -5 319 -94t188 -233zM810 359v-1q-18 141 -41 250q-24 116 -63 231q-30 81 -120.5 136
t-213.5 62q-121 -7 -187 -61.5t-63 -136.5q8 -103 35 -231q32 -152 67 -251q25 -90 114.5 -149t223.5 -66q129 9 191.5 67.5t56.5 149.5z" />
    <glyph glyph-name="one" unicode="1" horiz-adv-x="924" 
d="M326 1149h139l245 -1149h-147l-205 962q-59 -49 -171.5 -144.5t-149.5 -126.5l-112 118z" />
    <glyph glyph-name="two" unicode="2" horiz-adv-x="1146" 
d="M479 472q-34 -8 -64.5 -21t-65.5 -38.5t-57.5 -59.5t-34 -87t-2.5 -118h681l32 -148h-832l-26 120q-13 63 -13.5 119t11.5 100t30.5 81t46 65t55 49.5t60.5 37.5t60 26t55 18q133 32 186 67q82 57 65 150q-27 90 -120.5 137.5t-222.5 47.5q-85 0 -173.5 -20.5
t-153.5 -52.5l-90 135q183 86 386 86q84 0 162 -17t153 -53.5t130 -103.5t78 -158q50 -235 -209 -327q-36 -12 -100 -29h1q-25 -5 -29 -6h1z" />
    <glyph glyph-name="three" unicode="3" horiz-adv-x="1115" 
d="M879 395l31 -148q11 -44 7 -79.5t-14 -62.5t-32 -46.5t-47 -32.5t-58 -21t-65.5 -12t-70.5 -4h-185q-326 6 -395 328h146q22 -103 77.5 -141.5t154.5 -38.5h161q103 0 145 25t29 85l-31 147q-7 32 -15 49t-30 32.5t-62.5 21.5t-108.5 6h-115l-32 147h118q41 1 66 2
t47.5 5.5t32.5 11.5t17 19.5t6 29.5t-6 42l-22 105q-19 86 -72.5 119t-153.5 33h-161q-30 0 -52 -2.5t-44.5 -9.5t-35 -19.5t-23 -32.5t-8.5 -49t8 -68h-145q-69 322 251 328h184q71 0 131 -14.5t115.5 -47.5t95.5 -93t58 -144l22 -107q24 -120 -21 -181q77 -66 102 -182z
" />
    <glyph glyph-name="four" unicode="4" horiz-adv-x="1112" 
d="M771 401h127l32 -148h-127l54 -253h-146l-54 253h-634l-27 129l416 767h200zM625 401l-122 574q-14 -26 -132 -241.5t-181 -332.5h435z" />
    <glyph glyph-name="five" unicode="5" horiz-adv-x="1142" 
d="M835 580h1q41 -55 55 -123l45 -211q11 -44 6.5 -79.5t-15 -62.5t-33 -46.5t-47.5 -32.5t-58 -21t-65 -12t-69 -4h-185q-149 2 -254.5 79.5t-142.5 248.5h147q21 -98 75.5 -138.5t156.5 -40.5h162q102 0 145 25.5t30 83.5l-45 211q-12 57 -65 82.5t-156 25.5h-475
l-124 589h795l32 -148h-649l62 -293h353q223 -7 318 -133z" />
    <glyph glyph-name="six" unicode="6" horiz-adv-x="1126" 
d="M820 609q79 -94 115 -240q27 -151 -18.5 -251.5t-155.5 -115.5h-4q-110 -10 -206 -10q-119 0 -188 12h1q-117 15 -204.5 115.5t-125.5 249.5q-20 109 -1 191l137 593h160l-96 -414q60 9 157 9q121 0 214 -12q121 -15 215 -127zM786 206v-1q26 62 6 164q-23 101 -72 158.5
t-108 66.5q-72 12 -191 12q-83 0 -163 -12q-48 -7 -74.5 -60t-6.5 -164q16 -64 43 -109.5t55 -69.5t68.5 -38t71.5 -17t74 -3h32q107 0 184 10q24 0 47 18t34 45z" />
    <glyph glyph-name="seven" unicode="7" horiz-adv-x="1040" 
d="M654 1153q23 0 39.5 -29.5t40.5 -98.5l-288 -1025h-165l281 1005h-717l-32 148h841z" />
    <glyph glyph-name="eight" unicode="8" horiz-adv-x="1131" 
d="M851 513l1 -1q26 -43 41 -116l23 -107q63 -299 -268 -303h-187q-332 5 -397 303l-23 107q-26 126 23 185q-70 62 -97 182l-21 104q-13 53 -9.5 94.5t12.5 73t30.5 54t45 37.5t55.5 24t62.5 13t65.5 5h185q334 -5 397 -301l23 -106q22 -122 -22 -179q35 -30 60 -69z
M92 867l22 -102q10 -46 27.5 -67.5t58.5 -31.5t124 -11h177q115 0 146.5 20.5t16.5 89.5l-22 102q-18 86 -71 119t-155 33h-162q-25 0 -44 -1.5t-39.5 -5.5t-34 -11t-26.5 -18t-17 -27t-6.5 -38t5.5 -51zM609 133q28 0 49.5 2t44.5 8t35.5 16.5t24.5 28t11.5 42.5t-5.5 59
l-28 131q-16 50 -58 67.5t-154 19.5q-2 -1 -162 0q-91 0 -132 -10q-37 -7 -48 -25.5t1 -75.5l23 -107q19 -87 74.5 -121.5t156.5 -34.5h167z" />
    <glyph glyph-name="nine" unicode="9" horiz-adv-x="1136" 
d="M62 543q-78 92 -114 240q-26 148 21 248t154 119q72 12 208 12q106 0 187 -12q116 -20 204.5 -119.5t124.5 -247.5q19 -105 2 -191l-137 -592h-160l94 412q-56 -7 -155 -7q-121 0 -214 11q-122 17 -215 127zM97 946h-1q-25 -59 -6 -162q23 -100 70.5 -159t102.5 -67
q8 -1 15 -1.5t10 -0.5q113 -10 173 -10q83 0 162 12q50 11 73 71t10 154q-17 63 -43.5 108t-54.5 69t-66 38t-68.5 17.5t-71.5 3.5h-41q-40 0 -81 -2t-73 -5t-36 -3h1q-52 -9 -75 -63z" />
    <glyph glyph-name="colon" unicode=":" horiz-adv-x="445" 
d="M165 748q10 -48 -16.5 -82.5t-76.5 -34.5q-47 0 -88.5 35t-51.5 82t17.5 82t73.5 35q49 0 90 -34.5t52 -82.5zM273 238q10 -48 -16.5 -82.5t-75.5 -34.5q-47 0 -89.5 35t-52.5 82t17.5 82t74.5 35q50 0 91 -34.5t51 -82.5z" />
    <glyph glyph-name="semicolon" unicode=";" horiz-adv-x="469" 
d="M139 -85l-44 341h170l13 -341h-139zM185 748q10 -48 -16.5 -82.5t-76.5 -34.5q-47 0 -88.5 35t-51.5 82t17.5 82t73.5 35q49 0 90 -34.5t52 -82.5z" />
    <glyph glyph-name="less" unicode="&#x3c;" horiz-adv-x="790" 
d="M457 1147l-323 -573q472 -478 567 -574h-186l-512 519l-22 110l290 518h186z" />
    <glyph glyph-name="equal" unicode="=" horiz-adv-x="1053" 
d="M49 354l-31 148h799l31 -148h-799zM-13 650l-31 148h798l31 -148h-798z" />
    <glyph glyph-name="greater" unicode="&#x3e;" horiz-adv-x="800" 
d="M534 666l36 -37l23 -110l-290 -519h-187l321 574q-85 87 -280.5 285t-283.5 288h186z" />
    <glyph glyph-name="question" unicode="?" horiz-adv-x="1039" 
d="M738 937l1 -2q11 -54 11 -98.5t-6.5 -75t-24.5 -55t-33.5 -37.5t-41.5 -25t-40.5 -16t-39.5 -10q-34 -8 -42 -10l2 1q-22 -5 -33 -8t-29 -10t-26.5 -14t-19 -19.5t-13.5 -27.5t-3 -37.5t6 -49.5q9 -40 38 -123l-141 -23q-38 108 -46 146q-9 41 -10 76.5t3 62t16 49.5
t23.5 38.5t32.5 29.5t36.5 22t41.5 16t41.5 11.5t41.5 9.5h-1q62 14 79 23q16 8 25 21.5t12.5 46.5t-7.5 85q-27 91 -123 139t-222 48q-85 0 -174.5 -21t-154.5 -54l-88 137q184 86 386 86q80 0 157.5 -16.5t154 -52t133.5 -103.5t78 -160zM550 119q11 -48 -15.5 -82.5
t-76.5 -34.5q-47 0 -89.5 35t-52.5 82t17.5 82t74.5 35q50 0 91 -34.5t51 -82.5z" />
    <glyph glyph-name="at" unicode="@" horiz-adv-x="1555" 
d="M512 1216q135 0 269.5 -53.5t243 -142.5t188 -213t108.5 -259q38 -181 -19 -334.5t-191.5 -243t-314.5 -89.5q-181 0 -354 89.5t-294.5 243t-159.5 334.5t18 334.5t190.5 243.5t315.5 90zM853 363l-28 133q-128 35 -210 35q-72 0 -98 -26.5t-12 -91.5q11 -51 45.5 -74.5
t100.5 -23.5q89 0 202 48zM1103 177h1q58 72 77.5 166.5t-3.5 204.5q-46 216 -232.5 370.5t-403.5 154.5q-143 0 -249 -70.5t-150 -191.5t-14 -263t125.5 -263t231.5 -191t279 -70q78 0 155 25l-35 164q-111 -41 -204 -41q-121 0 -207 62.5t-111 178.5q-28 132 33.5 197
t187.5 65q81 0 210 -31l-8 38q-10 44 -56 69t-116 25q-116 0 -228 -82l-98 120q143 105 295 105q123 0 221.5 -62.5t122.5 -174.5l119 -563q42 35 57 58z" />
    <glyph glyph-name="A" unicode="A" horiz-adv-x="1259" 
d="M1052 0l-169 268h-607q-6 -32 -26 -126.5t-29 -141.5h-163l241 1161h181l735 -1161h-163zM307 417h481q-67 107 -182.5 290t-179.5 284q-11 -55 -53 -255.5t-66 -318.5z" />
    <glyph glyph-name="B" unicode="B" horiz-adv-x="1249" 
d="M1036 370v-1q12 -58 15.5 -105t1 -83.5t-17 -63.5t-31 -46.5t-48 -32.5t-60 -20.5t-75 -11.5t-86 -5t-99.5 -1h-41l-439 1l-246 1162h449q147 0 206 -7q140 -17 214 -91t106 -223q27 -131 -17 -197q69 -38 107.5 -105t60.5 -170zM90 1016l67 -316q63 0 188 -0.5t188 -0.5
q141 0 188 30q17 12 21 34.5t-7 79.5q-7 31 -14 54t-18.5 41.5t-23.5 30.5t-33.5 21t-42 14t-56 8t-69 3.5t-87.5 0.5h-301zM887 369v1q-7 34 -15 58.5t-21 44t-24.5 32t-35.5 22t-43 14t-57.5 7t-69.5 3t-88 0.5h-345l86 -402q84 1 251.5 3.5t251.5 3.5q35 4 57 10.5
t38.5 20.5t22.5 37t4.5 58.5t-12.5 86.5z" />
    <glyph glyph-name="C" unicode="C" horiz-adv-x="1139" 
d="M591 137q172 0 379 82l80 -140q-231 -91 -427 -91q-205 0 -363 91.5t-212 239.5q-48 143 -78 292q-31 140 -38 255l1 -1q-11 151 107 240.5t327 89.5q195 0 465 -91l-20 -140q-242 82 -413 82q-157 0 -239 -57t-77 -146v1q9 -118 34 -233q32 -153 73 -270l1 -3
q35 -87 142 -144t258 -57z" />
    <glyph glyph-name="D" unicode="D" horiz-adv-x="1193" 
d="M889 864v1q39 -104 72 -255q14 -68 24 -136.5t15 -111.5t5 -45q13 -172 -96.5 -242.5t-370.5 -70.5q-163 0 -423 25l-237 1123q247 25 410 25q263 0 402 -72t199 -241zM845 417q-5 23 -15 88t-18 105q-27 126 -66 234v-1q-17 47 -40.5 77.5t-69 56.5t-121 38.5
t-186.5 12.5q-132 0 -274 -11l181 -852q153 -12 270 -12q145 0 223 20.5t104 58.5t21 106l-2 21q-1 11 -3.5 28t-3.5 30z" />
    <glyph glyph-name="E" unicode="E" horiz-adv-x="1093" 
d="M767 1015h-711l76 -360h649l32 -148h-649l76 -359h711l32 -148h-861l-247 1163h860z" />
    <glyph glyph-name="F" unicode="F" horiz-adv-x="1093" 
d="M765 1015h-711l76 -360h651l32 -148h-651l108 -507h-148l-247 1163h858z" />
    <glyph glyph-name="G" unicode="G" horiz-adv-x="1188" 
d="M965 482l87 -416q-223 -89 -419 -89q-209 0 -367 90.5t-209 241.5l-1 2q-57 191 -77 289q-30 142 -37 256q-4 147 115 238.5t319 92.5q196 -2 466 -92l-22 -139q-240 81 -412 81q-156 0 -238.5 -57t-75.5 -146q5 -107 33 -234q38 -182 73 -266l2 -6q28 -87 134.5 -144.5
t265.5 -57.5q129 0 279 47l-66 309h150z" />
    <glyph glyph-name="H" unicode="H" horiz-adv-x="1211" 
d="M693 1161h148l247 -1161h-148l-108 506h-668l108 -506h-149l-246 1161h148l107 -506h668z" />
    <glyph glyph-name="I" unicode="I" horiz-adv-x="445" 
d="M-88 1161h148l247 -1161h-149z" />
    <glyph glyph-name="J" unicode="J" horiz-adv-x="972" 
d="M612 1161l167 -787q46 -217 -20 -306t-261 -89q-141 0 -432 52l-5 146q307 -54 400 -54q126 0 163 53t6 198l-136 639h-290l-32 150z" />
    <glyph glyph-name="K" unicode="K" horiz-adv-x="1179" 
d="M807 657q127 -80 157 -215l94 -442h-150l-94 441q-15 62 -80.5 102.5t-174.5 40.5q-185 0 -385 -125l98 -459h-149l-246 1160h148l113 -532q114 59 245 89q188 31 249.5 131t22.5 282l-6 32h148l6 -32q61 -286 -76 -432q37 -13 80 -41z" />
    <glyph glyph-name="L" unicode="L" horiz-adv-x="1076" 
d="M238 150h708l32 -150h-856l-247 1164h147z" />
    <glyph glyph-name="M" unicode="M" horiz-adv-x="1327" 
d="M819 1164h132l248 -1164h-147l-195 917q-213 -323 -295 -448l-485 449l196 -918h-148l-247 1164h132l503 -466q57 86 162.5 247t143.5 219z" />
    <glyph glyph-name="N" unicode="N" horiz-adv-x="1210" 
d="M839 1164l248 -1164h-152l-30 137q-145 137 -411.5 387.5t-417.5 392.5l195 -917h-148l-247 1164h131l850 -798l-170 798h152z" />
    <glyph glyph-name="O" unicode="O" horiz-adv-x="1242" 
d="M941 861q42 -112 72 -258q30 -139 46 -293q11 -150 -108 -240t-327 -90q-135 0 -252 39t-202 115t-120 178q-1 2 -7 21.5t-14 45t-17.5 59.5t-20.5 78t-20 87q-29 138 -37 258l1 -1q-10 152 107.5 240.5t324.5 88.5q211 0 365 -90t209 -238zM906 331q0 4 -1.5 12t-1.5 10
q-12 122 -36 237q-26 128 -68 247q-39 86 -147 144t-253 58q-153 0 -236 -57.5t-78 -144.5q5 -97 33 -234q31 -145 74 -270v-3q34 -86 139.5 -144t260.5 -58q157 0 238.5 58t75.5 145z" />
    <glyph glyph-name="P" unicode="P" horiz-adv-x="1122" 
d="M794 990v2q45 -73 72 -200q12 -56 14 -101t-1 -78.5t-20.5 -59t-32 -42.5t-48.5 -28.5t-57 -17t-71 -8.5t-76 -3.5t-86 -0.5h-7h-306l97 -453h-150l-247 1163h422h70t65.5 -1.5t66 -4.5t59.5 -9t58.5 -14.5t51 -21.5t49 -30t40.5 -40.5t37 -51.5zM717 793v1
q-9 41 -17 68.5t-21.5 52t-26.5 39t-38.5 27t-50.5 18t-69 9.5t-87 5t-112 1h-239l88 -412h306q137 0 182 7q28 4 44 8.5t31 15.5t19 30t2.5 51t-11.5 79z" />
    <glyph glyph-name="Q" unicode="Q" horiz-adv-x="1245" 
d="M944 858v-1q41 -115 72 -256q30 -145 45 -294q9 -136 -87 -222t-274 -103q13 -46 46 -75t105 -29q60 0 168 26l66 -147q-125 -28 -202 -28q-62 0 -112.5 12t-84.5 34.5t-58.5 46.5t-39.5 56t-23 54.5t-14 49.5q-186 17 -318.5 103.5t-181.5 224.5q-42 120 -77 291
q-33 151 -39 257q-7 150 110.5 239.5t323.5 89.5q205 0 362 -89.5t213 -239.5zM908 333q-9 117 -41 268q-29 132 -66 233q-38 87 -143.5 145.5t-256.5 58.5t-233 -58t-81 -145q10 -119 34 -234q33 -158 72 -269l2 -5q30 -86 135.5 -143t264.5 -58q154 1 235 58t79 143z" />
    <glyph glyph-name="R" unicode="R" horiz-adv-x="1123" 
d="M802 363v1q123 -194 274 -366h-177q-175 216 -310 455q-70 -2 -114 -2h-299l96 -452h-149l-247 1164h380q156 0 241 -9h-1q162 -17 244 -101t119 -262q31 -142 1.5 -220t-125.5 -100q20 -34 45 -72l-1 1q12 -16 23 -37zM443 601q122 0 183 7t80 26h-1q33 35 7 159
q-8 36 -17 63t-18.5 50t-25.5 38.5t-30.5 27.5t-42 19t-51 12t-65.5 7t-78 2.5t-96 0.5h-232l88 -412h299z" />
    <glyph glyph-name="S" unicode="S" horiz-adv-x="1081" 
d="M908 321l-1 -1q13 -72 -0.5 -129t-46 -94t-82 -61.5t-105 -34.5t-119.5 -10q-228 0 -493 115l32 134q238 -98 424 -98q122 0 187.5 44.5t53.5 140.5q-10 39 -36.5 69.5t-56.5 48t-74.5 31.5t-76 20.5t-75.5 13.5q-17 3 -25 4q-9 2 -47 8t-65 11.5t-72.5 18t-79.5 27.5
t-75 41t-70 57t-53.5 76t-36.5 99q-11 65 -5 115t33.5 87.5t64.5 63t86.5 41t100 22.5t105.5 7q211 0 428 -88l-33 -135q-79 33 -177.5 53.5t-185.5 20.5q-139 0 -212.5 -47t-55.5 -142q7 -31 22.5 -56t41 -43t49 -30t61 -22.5t60 -15.5t61.5 -12q58 -8 101 -19l-1 1
q41 -7 63.5 -11.5t70.5 -17t79 -26.5t73.5 -40t70.5 -56.5t53.5 -76t37.5 -100.5z" />
    <glyph glyph-name="T" unicode="T" horiz-adv-x="1008" 
d="M-214 1164h944l32 -149h-396l216 -1015h-149l-216 1015h-399z" />
    <glyph glyph-name="U" unicode="U" horiz-adv-x="1211" 
d="M848 1161l108 -511q45 -207 56 -314q16 -196 -77.5 -278.5t-326.5 -82.5q-89 0 -160 9.5t-127 35t-97 51t-75 77t-56 93t-44.5 118t-36 133.5t-34.5 157l-109 512h148l109 -512q45 -214 72 -294q31 -88 68 -134t111.5 -70.5t201.5 -24.5q49 0 86.5 3t68 11.5t52.5 18.5
t37 30t24 39t11.5 51.5t1.5 63t-8.5 78t-15.5 91t-22 107.5l-115 542h149z" />
    <glyph glyph-name="V" unicode="V" horiz-adv-x="1192" 
d="M772 1163h162l-248 -1163h-182l-743 1163h162l636 -993q26 120 100 464t113 529z" />
    <glyph glyph-name="W" unicode="W" horiz-adv-x="1404" 
d="M868 1163h150l128 -1163h-130l-415 425q-22 -40 -106 -193t-127 -232h-136l-367 1163h148l294 -929q41 76 124 225.5t118 212.5l420 -430q-100 914 -101 921z" />
    <glyph glyph-name="X" unicode="X" horiz-adv-x="1228" 
d="M606 582l574 -582h-189l-482 489q-43 -77 -134.5 -242t-137.5 -247h-190l327 581q-90 91 -288 292t-286 290h190l479 -489q222 397 274 489h189z" />
    <glyph glyph-name="Y" unicode="Y" horiz-adv-x="1195" 
d="M733 1163h189l-356 -633l113 -530h-149l-112 526q-98 100 -313.5 319t-313.5 318h188l480 -489q222 397 274 489z" />
    <glyph glyph-name="Z" unicode="Z" horiz-adv-x="1167" 
d="M279 148h752l32 -148h-902q-38 0 -85 140l561 874h-744l-31 148h902q36 0 78 -131z" />
    <glyph glyph-name="bracketleft" unicode="[" horiz-adv-x="472" 
d="M208 1183h-185l258 -1215h185l32 -148h-333l-321 1512h332z" />
    <glyph glyph-name="backslash" unicode="\" horiz-adv-x="765" 
d="M-342 1317h161l978 -1487h-159z" />
    <glyph glyph-name="bracketright" unicode="]" horiz-adv-x="486" 
d="M48 -32h185l-257 1215h-185l-31 148h332l321 -1512h-333z" />
    <glyph glyph-name="asciicircum" unicode="^" horiz-adv-x="1015" 
d="M321 1229l460 -467h-186l-324 326q-34 -62 -100.5 -179.5t-82.5 -146.5h-185l260 467h158z" />
    <glyph glyph-name="underscore" unicode="_" horiz-adv-x="1135" 
d="M102 -148l-31 148h1014l31 -148h-1014z" />
    <glyph glyph-name="grave" unicode="`" horiz-adv-x="465" 
d="M103 811l-298 425h192l264 -425h-158z" />
    <glyph glyph-name="a" unicode="a" horiz-adv-x="1029" 
d="M764 671l143 -671h-99q-26 0 -55 64q-169 -67 -310 -67q-154 0 -264 81t-140 222q-36 172 40.5 255t243.5 83q126 0 311 -49l-17 82q-15 70 -85 112.5t-173 42.5q-171 0 -320 -110l-103 122q180 135 386 135q100 0 190.5 -32t160.5 -102t91 -168zM254 186q57 -43 158 -43
q134 0 301 75l-46 217q-200 57 -313 57q-108 0 -149.5 -45.5t-20.5 -142.5q17 -79 70 -118z" />
    <glyph glyph-name="b" unicode="b" horiz-adv-x="1032" 
d="M771 701l1 -1q33 -93 56 -201q7 -34 13.5 -69t10 -62.5t6 -48.5t4.5 -35l1 -15q7 -92 -36.5 -154t-114.5 -88t-164 -26q-142 0 -299 59q2 -60 -27 -60h-99l-271 1275h147l77 -365q120 60 250 60q150 0 276 -76.5t169 -192.5zM713 290q-4 37 -7 59q-11 87 -25 150
q-20 97 -51 179l1 -1q-22 58 -97.5 102t-175.5 44q-128 0 -247 -79l112 -526q155 -71 294 -71q93 0 145.5 36t50.5 107z" />
    <glyph glyph-name="c" unicode="c" horiz-adv-x="950" 
d="M502 146q130 0 294 64l79 -136q-190 -75 -341 -75q-167 0 -295 73.5t-171 197.5q-35 104 -61 227q-24 118 -29 201q-8 123 87.5 196t262.5 73q155 0 373 -75l-21 -136q-191 64 -321 64q-115 0 -175 -41t-56 -103q4 -73 26 -179q17 -83 49 -187q0 -1 2 -7
q23 -68 99 -112.5t198 -44.5z" />
    <glyph glyph-name="d" unicode="d" horiz-adv-x="1035" 
d="M494 1274h147l271 -1274h-99q-13 0 -27.5 16.5t-25.5 43.5q-133 -60 -274 -60q-93 0 -175.5 26.5t-152.5 89.5t-101 155q-38 114 -61 227q-25 117 -29 202v-1q-8 115 85.5 192.5t244.5 77.5q130 0 274 -61zM718 219l-112 525q-149 78 -278 78q-103 0 -160 -43.5
t-52 -101.5q2 -72 25 -179q9 -42 49 -187q0 -1 1 -2t1 -3q67 -159 262 -159q141 0 264 72z" />
    <glyph glyph-name="e" unicode="e" horiz-adv-x="1030" 
d="M818 507l25 -119h-663q6 -29 10.5 -47.5t7 -26.5t2.5 -10q23 -68 100.5 -113t199.5 -45q129 0 295 65l79 -138q-187 -73 -342 -73q-167 0 -294.5 73.5t-170.5 197.5q-35 106 -61 227q-24 117 -29 202q-4 118 86.5 190.5t245.5 76.5h9q158 -3 279.5 -75t166.5 -193
q34 -98 54 -192zM147 535h516q-23 94 -40 143l1 -1q-24 61 -97 100.5t-183 41.5q-110 -2 -165 -42t-53 -99q5 -59 21 -143z" />
    <glyph glyph-name="f" unicode="f" horiz-adv-x="561" 
d="M102 1086v-1q-12 -31 7 -123l3 -12h230l31 -147h-230l217 -1021q13 -112 -24 -112l-99 -1l-240 1134h-114l-31 147h114l-3 12q-6 29 -8.5 50.5t-5 52.5t1.5 53t11.5 48.5t25 44.5t42 33.5t62 23.5t85.5 8t143 -14l8 -146q-78 13 -119 13q-93 0 -107 -43z" />
    <glyph glyph-name="g" unicode="g" horiz-adv-x="1036" 
d="M608 967h99l200 -939q75 -355 -291 -355q-126 0 -325 48l4 142q185 -44 290 -44q61 0 101 14.5t58 33.5t23 51t2.5 54t-9.5 56l-7 30q-120 -60 -249 -60q-151 0 -276.5 76t-168.5 193q-31 83 -57 202q-17 82 -34 228q-5 70 18 123t67.5 84.5t101.5 47t126 15.5
q144 0 299 -59q-2 59 28 59zM718 224l-112 525q-154 72 -294 72q-96 0 -148 -36t-47 -106v1q12 -112 33 -211q22 -103 50 -179q19 -58 95 -101.5t178 -43.5q124 0 245 79z" />
    <glyph glyph-name="h" unicode="h" horiz-adv-x="1057" 
d="M772 699q30 -81 56 -201l106 -498h-147l-106 498q-19 92 -50 178q-22 59 -98 102.5t-176 43.5q-127 0 -246 -79l158 -743h-146l-270 1274h146l76 -365q121 60 251 60q150 0 277.5 -76.5t168.5 -193.5z" />
    <glyph glyph-name="i" unicode="i" horiz-adv-x="387" 
d="M51 1166q8 -40 -15 -69t-63 -29q-41 0 -75.5 29t-42.5 69q-9 40 14 69.5t63 29.5t75 -29t44 -70zM-71 970h98q36 0 72 -112l183 -858h-147z" />
    <glyph glyph-name="j" unicode="j" horiz-adv-x="387" 
d="M-27 1065q-40 0 -75 28.5t-44 69.5q-8 41 14.5 70t62.5 29t75.5 -29t43.5 -70q9 -40 -14 -69t-63 -29zM27 967q36 0 72 -112l183 -861q5 -23 8 -39.5t6 -43.5t2 -46.5t-6 -45t-15 -43.5t-27.5 -37t-42 -30.5t-60.5 -19t-81 -7.5q-57 0 -142 14l-8 146q78 -13 119 -13
q20 0 37 2t28.5 8t20.5 10.5t14 15.5t8.5 16.5t3.5 20.5t0.5 21t-3 24t-4.5 22.5t-5 24.5l-206 973h98z" />
    <glyph glyph-name="k" unicode="k" horiz-adv-x="1065" 
d="M706 652q112 -72 136 -189l99 -463h-146l-99 462q-11 47 -61.5 77.5t-136.5 30.5q-156 0 -327 -110l98 -460h-146l-270 1274h146l137 -650q135 72 253 87q137 13 183 67.5t16 194.5h146q46 -220 -42 -313q3 -2 7 -4.5t7 -3.5z" />
    <glyph glyph-name="l" unicode="l" horiz-adv-x="396" 
d="M-137 1275h99q35 0 71 -112l248 -1163h-147z" />
    <glyph glyph-name="m" unicode="m" horiz-adv-x="1440" 
d="M1064 890l-1 1q61 -63 83 -169l154 -722h-146l-154 722q-10 48 -44 75.5t-80 27.5q-96 0 -252 -106q4 -18 17.5 -80.5t51.5 -241t85 -398.5h-147l-154 723q-10 48 -43.5 75t-78.5 27q-90 0 -236 -92l156 -732h-147l-205 967h98q29 0 58 -72q138 75 245 75q64 0 129.5 -28
t104.5 -73q171 102 287 102q58 0 121.5 -22t97.5 -59z" />
    <glyph glyph-name="n" unicode="n" horiz-adv-x="1030" 
d="M753 727l155 -727h-146l-155 727q-10 47 -57 76.5t-126 29.5q-146 0 -317 -110l154 -723h-146l-205 967h98q29 0 60 -80q171 93 325 93q136 0 235.5 -69.5t124.5 -183.5z" />
    <glyph glyph-name="o" unicode="o" horiz-adv-x="1063" 
d="M846 480q25 -114 31 -209v-4q4 -122 -90.5 -197t-255.5 -75h-18q-160 8 -279.5 80t-161.5 191q-3 6 -10 28q-42 140 -58 216q-24 118 -29 206q0 1 1 4v4q-7 118 81 189.5t243 81.5q170 0 300.5 -71.5t178.5 -197.5l3 -9q48 -160 64 -237zM722 293q-6 88 -27 187
q-11 53 -50 197q-1 1 -2 3.5t-1 3.5q-23 64 -99 108.5t-191 53.5q-113 -4 -170 -44.5t-55 -103.5v1q8 -95 27 -189q26 -120 55 -201q22 -65 94.5 -111.5t186.5 -53.5q0 1 4 0h5q111 4 168 45t55 104z" />
    <glyph glyph-name="p" unicode="p" horiz-adv-x="1035" 
d="M771 698l1 -2q38 -114 62 -227q23 -108 29 -202q7 -116 -87 -192.5t-244 -76.5q-129 0 -275 60l83 -389h-147l-275 1298h99q26 0 51 -59q130 59 275 59q93 0 176 -26.5t152.5 -89t99.5 -153.5zM713 291q-4 80 -25 178q-20 94 -48 177q-4 10 -5 17q-25 77 -93.5 117.5
t-167.5 40.5q-131 0 -264 -72l112 -525q155 -79 279 -79q101 0 158 43.5t54 102.5z" />
    <glyph glyph-name="q" unicode="q" horiz-adv-x="1035" 
d="M1 469q-28 137 -34 229q-8 91 35 153.5t114.5 89t163.5 26.5q144 0 299 -59q0 59 27 59h100l276 -1298h-147l-83 389q-120 -60 -249 -60q-151 0 -277.5 76.5t-167.5 192.5q-33 91 -57 202zM198 291q21 -58 97 -102t177 -44q124 0 245 79l-112 525q-155 72 -294 72
q-103 0 -156 -45t-36 -130q11 -98 28 -177q22 -105 51 -178z" />
    <glyph glyph-name="r" unicode="r" horiz-adv-x="596" 
d="M340 978l23 -108q1 -15 -11 -25t-37 -16q-105 -12 -208 -94l157 -735h-147l-205 967h98q30 0 55 -65q123 76 275 76z" />
    <glyph glyph-name="s" unicode="s" horiz-adv-x="880" 
d="M746 272v-4q12 -75 -7.5 -130.5t-64 -86t-100.5 -45t-124 -14.5q-182 0 -406 95l33 133q194 -82 342 -82q94 0 142.5 35.5t36.5 101.5q-5 27 -21.5 47.5t-36 33t-57.5 24t-65.5 17t-80.5 15.5q-2 0 -37.5 5.5t-54 9.5t-59.5 15t-67 23.5t-62 34.5t-59.5 48.5t-44.5 65
t-31 83.5q-11 64 3 113.5t44 80t76 50.5t94.5 28t103.5 9q171 -2 353 -73l-32 -135q-147 61 -290 61q-106 0 -161.5 -34t-43.5 -104q4 -17 12 -32t22 -26.5t26.5 -21t34 -17t35 -12.5t38.5 -10t35.5 -7.5t36 -6.5t30.5 -5q8 -2 45 -8t63.5 -12.5t68.5 -19t74 -32.5t65 -48
t56.5 -69.5t34.5 -93.5z" />
    <glyph glyph-name="t" unicode="t" horiz-adv-x="658" 
d="M540 160l55 -146q-80 -14 -137 -14t-105 12.5t-81 30.5t-60 47t-42.5 54t-29 61t-18.5 57t-12 52l-104 488h-115l-31 147h116l-69 325h145l69 -325h230l31 -147h-230l104 -488q17 -79 34 -107q38 -60 136 -60q42 0 114 13z" />
    <glyph glyph-name="u" unicode="u" horiz-adv-x="1039" 
d="M564 967h146l206 -967h-98q-31 0 -62 80q-167 -91 -325 -93q-137 2 -236 70.5t-124 182.5l-153 727h145l154 -727q10 -47 57 -76.5t126 -29.5q147 0 318 110z" />
    <glyph glyph-name="v" unicode="v" horiz-adv-x="977" 
d="M605 969h159l-212 -969h-136l-616 969h123q27 0 94 -91l425 -669q80 377 163 760z" />
    <glyph glyph-name="w" unicode="w" horiz-adv-x="1328" 
d="M1141 244q23 -110 -58.5 -183.5t-205.5 -73.5q-118 0 -230 73q-80 -73 -201 -73q-80 0 -158.5 32t-138 92t-74.5 133l-153 722h145l154 -722q9 -41 66.5 -75.5t127.5 -34.5q81 0 130 55l-111 525h146l111 -523q83 -57 155 -57q70 0 113.5 34.5t34.5 75.5l-154 722h147z
" />
    <glyph glyph-name="x" unicode="x" horiz-adv-x="1068" 
d="M531 485l516 -485h-192l-396 371q-43 -69 -126 -198t-111 -173h-192l307 485q-71 67 -251.5 237.5t-261.5 247.5h192l394 -371q195 305 237 371h193z" />
    <glyph glyph-name="y" unicode="y" horiz-adv-x="1049" 
d="M574 968h147l199 -940q73 -354 -291 -354q-128 0 -327 48l7 141q181 -42 289 -42q58 0 97.5 12.5t58 30.5t25.5 46t5.5 51.5t-8.5 54.5l-9 42q-118 -59 -250 -59q-152 0 -277 75t-168 193q-33 91 -57 202l-104 499h145l106 -499q22 -103 50 -179q22 -58 98 -101.5
t176 -43.5q125 0 246 79z" />
    <glyph glyph-name="z" unicode="z" horiz-adv-x="984" 
d="M635 970q38 0 72 -112l5 -21l-441 -690h587l32 -147h-742q-35 0 -71 112l-5 23l439 689h-585l-31 146h740z" />
    <glyph glyph-name="braceleft" unicode="{" horiz-adv-x="568" 
d="M158 759q26 -121 -10 -184q63 -64 88 -182l58 -272q19 -89 81 -120.5t173 -31.5l32 -148q-369 0 -433 300l-58 272q-9 42 -26 74q-9 20 -35.5 27.5t-89.5 7.5l-32 148q87 0 97 10q26 15 8 99l-56 270q-14 54 -9.5 96.5t15 73.5t35.5 54t52 37.5t64 23t71.5 12.5t75.5 4
l31 -149q-26 0 -45.5 -1t-41 -3.5t-36.5 -7.5t-29.5 -13t-23 -19.5t-14 -26.5t-5 -35.5t5.5 -45.5z" />
    <glyph glyph-name="bar" unicode="|" horiz-adv-x="377" 
d="M-156 1321h148l316 -1491h-148z" />
    <glyph glyph-name="braceright" unicode="}" horiz-adv-x="565" 
d="M175 392q-25 122 10 183q-63 68 -88 183l-57 271q-19 89 -81 121t-174 32l-31 148q369 0 433 -301l57 -271q10 -47 26 -74q10 -20 36.5 -27.5t90.5 -7.5l31 -148q-85 0 -98 -10q-25 -14 -8 -99l58 -271q8 -47 9.5 -85t-10 -68t-26.5 -52.5t-40 -38.5t-50.5 -26.5t-59 -17
t-64 -9.5t-65.5 -3l-32 149q26 0 46 1t41.5 3.5t36 7.5t30 13t23 19t14.5 26.5t5 35.5t-5 45z" />
    <glyph glyph-name="asciitilde" unicode="~" horiz-adv-x="1095" 
d="M703 638l166 -41q-2 -34 -13.5 -66.5t-33 -64.5t-60.5 -51.5t-90 -19.5q-108 0 -269 88q-111 60 -174 60q-60 0 -68 -80l-160 40q0 33 10.5 65.5t31.5 64.5t60.5 51.5t91.5 19.5q109 0 266 -87l-1 1q118 -62 177 -62q33 0 48.5 26.5t17.5 55.5z" />
    <glyph glyph-name="thothannobasethai" horiz-adv-x="925" 
d="M571 930v1q-17 -26 -36 -44q111 -100 140 -237l60 -281q31 -148 -53.5 -254t-236.5 -117l-116 -2l-318 460h159l218 -313q105 7 162.5 71.5t38.5 154.5l-60 281q-20 93 -108.5 160t-194.5 67h-65q-69 0 -123 -38.5t-83 -102.5l-125 114q42 80 122.5 126.5t177.5 46.5h65
q98 0 195 -44q24 15 41.5 49.5t14.5 51.5h146q19 -90 -21 -150z" />
    <glyph glyph-name="thothannobasethai" unicode="&#xf700;" horiz-adv-x="925" 
d="M571 930v1q-17 -26 -36 -44q111 -100 140 -237l60 -281q31 -148 -53.5 -254t-236.5 -117l-116 -2l-318 460h159l218 -313q105 7 162.5 71.5t38.5 154.5l-60 281q-20 93 -108.5 160t-194.5 67h-65q-69 0 -123 -38.5t-83 -102.5l-125 114q42 80 122.5 126.5t177.5 46.5h65
q98 0 195 -44q24 15 41.5 49.5t14.5 51.5h146q19 -90 -21 -150z" />
    <glyph glyph-name="thothannobasethai" unicode="&#x20ac;" horiz-adv-x="925" 
d="M571 930v1q-17 -26 -36 -44q111 -100 140 -237l60 -281q31 -148 -53.5 -254t-236.5 -117l-116 -2l-318 460h159l218 -313q105 7 162.5 71.5t38.5 154.5l-60 281q-20 93 -108.5 160t-194.5 67h-65q-69 0 -123 -38.5t-83 -102.5l-125 114q42 80 122.5 126.5t177.5 46.5h65
q98 0 195 -44q24 15 41.5 49.5t14.5 51.5h146q19 -90 -21 -150z" />
    <glyph glyph-name="saraileftthai" 
d="M-678 1291q102 -13 109 -48l21 -98h-628l-21 98q-4 19 18.5 30.5t70.5 17.5h430z" />
    <glyph glyph-name="saraileftthai" unicode="&#xf701;" 
d="M-678 1291q102 -13 109 -48l21 -98h-628l-21 98q-4 19 18.5 30.5t70.5 17.5h430z" />
    <glyph glyph-name="saraiileftthai" 
d="M-693 1363h99l46 -218h-628l-21 98q-4 19 18 30.5t68 17.5h389q-3 72 29 72z" />
    <glyph glyph-name="saraiileftthai" unicode="&#xf702;" 
d="M-693 1363h99l46 -218h-628l-21 98q-4 19 18 30.5t68 17.5h389q-3 72 29 72z" />
    <glyph glyph-name="saraiileftthai" unicode="&#x201a;" 
d="M-693 1363h99l46 -218h-628l-21 98q-4 19 18 30.5t68 17.5h389q-3 72 29 72z" />
    <glyph glyph-name="saraueleftthai" 
d="M-715 1394q51 0 95.5 -36.5t55.5 -88.5q10 -52 -18.5 -88t-79.5 -36h-514l-21 98q-4 19 18.5 30.5t70.5 17.5h292q-2 45 26.5 74t74.5 29z" />
    <glyph glyph-name="saraueleftthai" unicode="&#xf703;" 
d="M-715 1394q51 0 95.5 -36.5t55.5 -88.5q10 -52 -18.5 -88t-79.5 -36h-514l-21 98q-4 19 18.5 30.5t70.5 17.5h292q-2 45 26.5 74t74.5 29z" />
    <glyph glyph-name="saraueleftthai" unicode="&#x192;" 
d="M-715 1394q51 0 95.5 -36.5t55.5 -88.5q10 -52 -18.5 -88t-79.5 -36h-514l-21 98q-4 19 18.5 30.5t70.5 17.5h292q-2 45 26.5 74t74.5 29z" />
    <glyph glyph-name="saraueeleftthai" 
d="M-593 1363l46 -218h-629l-21 98q-4 19 17.5 30t69.5 18h166q-2 72 28 72h99l15 -72h81q-3 72 29 72h99z" />
    <glyph glyph-name="saraueeleftthai" unicode="&#xf704;" 
d="M-593 1363l46 -218h-629l-21 98q-4 19 17.5 30t69.5 18h166q-2 72 28 72h99l15 -72h81q-3 72 29 72h99z" />
    <glyph glyph-name="saraueeleftthai" unicode="&#x201e;" 
d="M-593 1363l46 -218h-629l-21 98q-4 19 17.5 30t69.5 18h166q-2 72 28 72h99l15 -72h81q-3 72 29 72h99z" />
    <glyph glyph-name="ellipsis" unicode="&#x85;" horiz-adv-x="1334" 
d="M344 111q9 -42 -14 -72t-65 -30t-78 30t-45 72q-9 43 14 72.5t65 29.5q43 0 78.5 -29.5t44.5 -72.5zM742 111q9 -42 -14 -72t-65 -30t-78 30t-45 72q-9 43 14 72.5t65 29.5q43 0 78.5 -29.5t44.5 -72.5zM1140 111q9 -42 -14 -72t-65 -30t-78.5 30t-45.5 72
q-9 43 14.5 72.5t65.5 29.5q43 0 78.5 -29.5t44.5 -72.5z" />
    <glyph glyph-name="ellipsis" unicode="&#x2026;" horiz-adv-x="1334" 
d="M344 111q9 -42 -14 -72t-65 -30t-78 30t-45 72q-9 43 14 72.5t65 29.5q43 0 78.5 -29.5t44.5 -72.5zM742 111q9 -42 -14 -72t-65 -30t-78 30t-45 72q-9 43 14 72.5t65 29.5q43 0 78.5 -29.5t44.5 -72.5zM1140 111q9 -42 -14 -72t-65 -30t-78.5 30t-45.5 72
q-9 43 14.5 72.5t65.5 29.5q43 0 78.5 -29.5t44.5 -72.5z" />
    <glyph glyph-name="maieklowleftthai" 
d="M-697 1517l71 -332h-147l-71 332h147z" />
    <glyph glyph-name="maieklowleftthai" unicode="&#xf705;" 
d="M-697 1517l71 -332h-147l-71 332h147z" />
    <glyph glyph-name="maieklowleftthai" unicode="&#x2020;" 
d="M-697 1517l71 -332h-147l-71 332h147z" />
    <glyph glyph-name="maitholowleftthai" 
d="M-946 1351h341l31 -146h-486l-23 108q0 4 -0.5 11.5t-0.5 10.5h-50l-31 146h192z" />
    <glyph glyph-name="maitholowleftthai" unicode="&#xf706;" 
d="M-946 1351h341l31 -146h-486l-23 108q0 4 -0.5 11.5t-0.5 10.5h-50l-31 146h192z" />
    <glyph glyph-name="maitholowleftthai" unicode="&#x2021;" 
d="M-946 1351h341l31 -146h-486l-23 108q0 4 -0.5 11.5t-0.5 10.5h-50l-31 146h192z" />
    <glyph glyph-name="maitrilowleftthai" 
d="M-579 1525l26 -119q15 -73 -19 -131.5t-112 -89.5h-70q-35 0 -65 92l-5 23q-11 52 -57 78q-12 -5 -44 -19.5t-47 -21.5l-105 41q-35 -29 -26 -78l25 -115h-94q-15 0 -33 25.5t-33 69.5l-4 20q-16 76 22 143t105 84l110 -39q34 17 88 43q26 -8 28 -10q63 -24 113 -69.5
t75 -102.5q19 24 13 57l-26 119h135z" />
    <glyph glyph-name="maitrilowleftthai" unicode="&#xf707;" 
d="M-579 1525l26 -119q15 -73 -19 -131.5t-112 -89.5h-70q-35 0 -65 92l-5 23q-11 52 -57 78q-12 -5 -44 -19.5t-47 -21.5l-105 41q-35 -29 -26 -78l25 -115h-94q-15 0 -33 25.5t-33 69.5l-4 20q-16 76 22 143t105 84l110 -39q34 17 88 43q26 -8 28 -10q63 -24 113 -69.5
t75 -102.5q19 24 13 57l-26 119h135z" />
    <glyph glyph-name="maitrilowleftthai" unicode="&#x2c6;" 
d="M-579 1525l26 -119q15 -73 -19 -131.5t-112 -89.5h-70q-35 0 -65 92l-5 23q-11 52 -57 78q-12 -5 -44 -19.5t-47 -21.5l-105 41q-35 -29 -26 -78l25 -115h-94q-15 0 -33 25.5t-33 69.5l-4 20q-16 76 22 143t105 84l110 -39q34 17 88 43q26 -8 28 -10q63 -24 113 -69.5
t75 -102.5q19 24 13 57l-26 119h135z" />
    <glyph glyph-name="maichattawalowleftthai" 
d="M-621 1424l31 -147h-102l22 -101h-147l-22 101h-102l-31 147h102l-22 102h109q14 0 29.5 -22t25.5 -59l5 -21h102z" />
    <glyph glyph-name="maichattawalowleftthai" unicode="&#xf708;" 
d="M-621 1424l31 -147h-102l22 -101h-147l-22 101h-102l-31 147h102l-22 102h109q14 0 29.5 -22t25.5 -59l5 -21h102z" />
    <glyph glyph-name="maichattawalowleftthai" unicode="&#x2030;" 
d="M-621 1424l31 -147h-102l22 -101h-147l-22 101h-102l-31 147h102l-22 102h109q14 0 29.5 -22t25.5 -59l5 -21h102z" />
    <glyph glyph-name="thanthakhatlowleftthai" 
d="M-302 1301l-405 -35q13 -80 -22 -80h-108l-46 218l539 45z" />
    <glyph glyph-name="thanthakhatlowleftthai" unicode="&#xf709;" 
d="M-302 1301l-405 -35q13 -80 -22 -80h-108l-46 218l539 45z" />
    <glyph glyph-name="thanthakhatlowleftthai" unicode="&#x160;" 
d="M-302 1301l-405 -35q13 -80 -22 -80h-108l-46 218l539 45z" />
    <glyph glyph-name="maieklowrightthai" 
d="M-431 1517l71 -332h-147l-71 332h147z" />
    <glyph glyph-name="maieklowrightthai" unicode="&#xf70a;" 
d="M-431 1517l71 -332h-147l-71 332h147z" />
    <glyph glyph-name="maieklowrightthai" unicode="&#x2039;" 
d="M-431 1517l71 -332h-147l-71 332h147z" />
    <glyph glyph-name="maitholowrightthai" 
d="M-761 1364h440l31 -148h-586l-23 110q-3 12 -3 23q-10 0 -27.5 -0.5t-22.5 -0.5l-31 147h194z" />
    <glyph glyph-name="maitholowrightthai" unicode="&#xf70b;" 
d="M-761 1364h440l31 -148h-586l-23 110q-3 12 -3 23q-10 0 -27.5 -0.5t-22.5 -0.5l-31 147h194z" />
    <glyph glyph-name="maitholowrightthai" unicode="&#x152;" 
d="M-761 1364h440l31 -148h-586l-23 110q-3 12 -3 23q-10 0 -27.5 -0.5t-22.5 -0.5l-31 147h194z" />
    <glyph glyph-name="maitrilowrightthai" 
d="M-371 1525l26 -119q15 -73 -19 -131.5t-112 -89.5h-69q-36 0 -66 92l-5 23q-11 52 -57 78q-12 -5 -44 -19.5t-47 -21.5l-105 41q-35 -29 -26 -78l25 -115h-94q-15 0 -33 25.5t-33 69.5l-4 20q-16 76 22 143t105 84l110 -39q34 17 88 43q28 -9 29 -10q63 -24 112.5 -69.5
t74.5 -102.5q19 24 13 57l-26 119h135z" />
    <glyph glyph-name="maitrilowrightthai" unicode="&#xf70c;" 
d="M-371 1525l26 -119q15 -73 -19 -131.5t-112 -89.5h-69q-36 0 -66 92l-5 23q-11 52 -57 78q-12 -5 -44 -19.5t-47 -21.5l-105 41q-35 -29 -26 -78l25 -115h-94q-15 0 -33 25.5t-33 69.5l-4 20q-16 76 22 143t105 84l110 -39q34 17 88 43q28 -9 29 -10q63 -24 112.5 -69.5
t74.5 -102.5q19 24 13 57l-26 119h135z" />
    <glyph glyph-name="maichattawalowrightthai" 
d="M-411 1438l31 -148h-103l22 -103h-148l-22 103h-103l-31 148h103l-22 103h110q15 0 30 -22.5t25 -59.5l5 -21h103z" />
    <glyph glyph-name="maichattawalowrightthai" unicode="&#xf70d;" 
d="M-411 1438l31 -148h-103l22 -103h-148l-22 103h-103l-31 148h103l-22 103h110q15 0 30 -22.5t25 -59.5l5 -21h103z" />
    <glyph glyph-name="maichattawalowrightthai" unicode="&#x17d;" 
d="M-411 1438l31 -148h-103l22 -103h-148l-22 103h-103l-31 148h103l-22 103h110q15 0 30 -22.5t25 -59.5l5 -21h103z" />
    <glyph glyph-name="thanthakhatlowrightthai" 
d="M-301 1299l-400 -35q6 -38 1.5 -58.5t-23.5 -20.5h-107l-46 216l532 45z" />
    <glyph glyph-name="thanthakhatlowrightthai" unicode="&#xf70e;" 
d="M-301 1299l-400 -35q6 -38 1.5 -58.5t-23.5 -20.5h-107l-46 216l532 45z" />
    <glyph glyph-name="yoyingnobasethai" horiz-adv-x="1614" 
d="M1114 1014h146l154 -725q27 -125 -48 -212.5t-205 -87.5h-49q-129 0 -241.5 87.5t-139.5 212.5l-90 429q-15 64 -100 111.5t-218 47.5q-107 0 -234 -42l178 -835h-145l-199 940q197 83 369 83q187 0 326.5 -85t168.5 -219l91 -430q14 -63 72.5 -108t130.5 -45h49
q72 0 112 45t26 108z" />
    <glyph glyph-name="yoyingnobasethai" unicode="&#xf70f;" horiz-adv-x="1614" 
d="M1114 1014h146l154 -725q27 -125 -48 -212.5t-205 -87.5h-49q-129 0 -241.5 87.5t-139.5 212.5l-90 429q-15 64 -100 111.5t-218 47.5q-107 0 -234 -42l178 -835h-145l-199 940q197 83 369 83q187 0 326.5 -85t168.5 -219l91 -430q14 -63 72.5 -108t130.5 -45h49
q72 0 112 45t26 108z" />
    <glyph glyph-name="quoteleft" horiz-adv-x="311" 
d="M-107 914l-97 400h157l76 -400h-136z" />
    <glyph glyph-name="quoteleft" unicode="&#x2018;" horiz-adv-x="311" 
d="M-107 914l-97 400h157l76 -400h-136z" />
    <glyph glyph-name="quoteright" horiz-adv-x="321" 
d="M-99 914l-97 400h157l76 -400h-136z" />
    <glyph glyph-name="quoteright" unicode="&#x2019;" horiz-adv-x="321" 
d="M-99 914l-97 400h157l76 -400h-136z" />
    <glyph glyph-name="bullet" horiz-adv-x="705" 
d="M274 373q-81 0 -151.5 58t-88.5 140q-17 80 29.5 138.5t126.5 58.5q82 0 152.5 -58t87.5 -139t-28.5 -139.5t-127.5 -58.5z" />
    <glyph glyph-name="bullet" unicode="&#x2022;" horiz-adv-x="705" 
d="M274 373q-81 0 -151.5 58t-88.5 140q-17 80 29.5 138.5t126.5 58.5q82 0 152.5 -58t87.5 -139t-28.5 -139.5t-127.5 -58.5z" />
    <glyph glyph-name="endash" horiz-adv-x="1043" 
d="M-5 502l-31 147h832l31 -147h-832z" />
    <glyph glyph-name="endash" unicode="&#x2013;" horiz-adv-x="1043" 
d="M-5 502l-31 147h832l31 -147h-832z" />
    <glyph glyph-name="emdash" horiz-adv-x="1302" 
d="M6 502l-30 147h1049l31 -147h-1050z" />
    <glyph glyph-name="emdash" unicode="&#x2014;" horiz-adv-x="1302" 
d="M6 502l-30 147h1049l31 -147h-1050z" />
    <glyph glyph-name="maihanakatleftthai" 
d="M-989 1292l426 2l32 -149h-573l-58 275h107q33 0 56 -81z" />
    <glyph glyph-name="maihanakatleftthai" unicode="&#xf710;" 
d="M-989 1292l426 2l32 -149h-573l-58 275h107q33 0 56 -81z" />
    <glyph glyph-name="maihanakatleftthai" unicode="&#x2dc;" 
d="M-989 1292l426 2l32 -149h-573l-58 275h107q33 0 56 -81z" />
    <glyph glyph-name="nikhahitleftthai" 
d="M-784 1390q72 0 135.5 -52.5t79.5 -124.5q16 -74 -25.5 -125.5t-114.5 -51.5q-75 0 -136.5 51t-77.5 126q-16 73 24.5 125t114.5 52zM-733 1151q25 0 38.5 18t8.5 44q-6 25 -27 42.5t-46 17.5q-26 0 -39.5 -17.5t-7.5 -42.5q5 -26 26.5 -44t46.5 -18z" />
    <glyph glyph-name="nikhahitleftthai" unicode="&#xf711;" 
d="M-784 1390q72 0 135.5 -52.5t79.5 -124.5q16 -74 -25.5 -125.5t-114.5 -51.5q-75 0 -136.5 51t-77.5 126q-16 73 24.5 125t114.5 52zM-733 1151q25 0 38.5 18t8.5 44q-6 25 -27 42.5t-46 17.5q-26 0 -39.5 -17.5t-7.5 -42.5q5 -26 26.5 -44t46.5 -18z" />
    <glyph glyph-name="nikhahitleftthai" unicode="&#x2122;" 
d="M-784 1390q72 0 135.5 -52.5t79.5 -124.5q16 -74 -25.5 -125.5t-114.5 -51.5q-75 0 -136.5 51t-77.5 126q-16 73 24.5 125t114.5 52zM-733 1151q25 0 38.5 18t8.5 44q-6 25 -27 42.5t-46 17.5q-26 0 -39.5 -17.5t-7.5 -42.5q5 -26 26.5 -44t46.5 -18z" />
    <glyph glyph-name="maitaikhuleftthai" 
d="M-1021 1421q-5 -9 -4 -23l17 -78q8 -30 49 -30q14 0 24 4q-1 8 -2.5 18.5t-1.5 13.5h147l8 -37q8 -4 21 -4q20 0 30.5 16.5t4.5 49.5h145q21 -99 -26 -155.5t-123 -56.5q-56 0 -104 26q-38 -21 -92 -21q-75 0 -141.5 45.5t-84.5 129.5l-17 82q-17 80 27 126t116 48h456
l31 -147h-455q-16 0 -25 -7z" />
    <glyph glyph-name="maitaikhuleftthai" unicode="&#xf712;" 
d="M-1021 1421q-5 -9 -4 -23l17 -78q8 -30 49 -30q14 0 24 4q-1 8 -2.5 18.5t-1.5 13.5h147l8 -37q8 -4 21 -4q20 0 30.5 16.5t4.5 49.5h145q21 -99 -26 -155.5t-123 -56.5q-56 0 -104 26q-38 -21 -92 -21q-75 0 -141.5 45.5t-84.5 129.5l-17 82q-17 80 27 126t116 48h456
l31 -147h-455q-16 0 -25 -7z" />
    <glyph glyph-name="maitaikhuleftthai" unicode="&#x161;" 
d="M-1021 1421q-5 -9 -4 -23l17 -78q8 -30 49 -30q14 0 24 4q-1 8 -2.5 18.5t-1.5 13.5h147l8 -37q8 -4 21 -4q20 0 30.5 16.5t4.5 49.5h145q21 -99 -26 -155.5t-123 -56.5q-56 0 -104 26q-38 -21 -92 -21q-75 0 -141.5 45.5t-84.5 129.5l-17 82q-17 80 27 126t116 48h456
l31 -147h-455q-16 0 -25 -7z" />
    <glyph glyph-name="maiekupperleftthai" 
d="M-693 1827l71 -331h-147l-71 331h147z" />
    <glyph glyph-name="maiekupperleftthai" unicode="&#xf713;" 
d="M-693 1827l71 -331h-147l-71 331h147z" />
    <glyph glyph-name="maiekupperleftthai" unicode="&#x203a;" 
d="M-693 1827l71 -331h-147l-71 331h147z" />
    <glyph glyph-name="maithoupperleftthai" 
d="M-820 1633h340l31 -146h-485l-23 109q-2 14 -2 21h-50l-31 146h193z" />
    <glyph glyph-name="maithoupperleftthai" unicode="&#xf714;" 
d="M-820 1633h340l31 -146h-485l-23 109q-2 14 -2 21h-50l-31 146h193z" />
    <glyph glyph-name="maithoupperleftthai" unicode="&#x153;" 
d="M-820 1633h340l31 -146h-485l-23 109q-2 14 -2 21h-50l-31 146h193z" />
    <glyph glyph-name="maitriupperleftthai" 
d="M-482 1798l25 -118q16 -74 -18 -132.5t-112 -89.5h-69q-37 0 -65 93l-5 22q-11 51 -58 78q-12 -5 -44 -19.5t-47 -21.5l-105 41q-35 -29 -26 -78l25 -115h-93q-16 0 -34 25.5t-33 69.5l-4 20q-16 76 22.5 143t105.5 84l109 -38q22 10 88 42q28 -9 29 -10
q63 -24 112.5 -69.5t74.5 -102.5q20 24 12 58l-25 118h135z" />
    <glyph glyph-name="maitriupperleftthai" unicode="&#xf715;" 
d="M-482 1798l25 -118q16 -74 -18 -132.5t-112 -89.5h-69q-37 0 -65 93l-5 22q-11 51 -58 78q-12 -5 -44 -19.5t-47 -21.5l-105 41q-35 -29 -26 -78l25 -115h-93q-16 0 -34 25.5t-33 69.5l-4 20q-16 76 22.5 143t105.5 84l109 -38q22 10 88 42q28 -9 29 -10
q63 -24 112.5 -69.5t74.5 -102.5q20 24 12 58l-25 118h135z" />
    <glyph glyph-name="maichattawaupperleftthai" 
d="M-671 1735l31 -147h-101l21 -101h-147l-21 101h-102l-31 147h102l-22 102h109q14 0 29.5 -22t25.5 -59l5 -21h101z" />
    <glyph glyph-name="maichattawaupperleftthai" unicode="&#xf716;" 
d="M-671 1735l31 -147h-101l21 -101h-147l-21 101h-102l-31 147h102l-22 102h109q14 0 29.5 -22t25.5 -59l5 -21h101z" />
    <glyph glyph-name="maichattawaupperleftthai" unicode="&#x17e;" 
d="M-671 1735l31 -147h-101l21 -101h-147l-21 101h-102l-31 147h102l-22 102h109q14 0 29.5 -22t25.5 -59l5 -21h101z" />
    <glyph glyph-name="thanthakhatupperleftthai" 
d="M-328 1555l-405 -35q11 -80 -22 -80h-109l-46 218l539 45z" />
    <glyph glyph-name="thanthakhatupperleftthai" unicode="&#xf717;" 
d="M-328 1555l-405 -35q11 -80 -22 -80h-109l-46 218l539 45z" />
    <glyph glyph-name="thanthakhatupperleftthai" unicode="&#x178;" 
d="M-328 1555l-405 -35q11 -80 -22 -80h-109l-46 218l539 45z" />
    <glyph glyph-name="uni00A0" unicode="&#xa0;" horiz-adv-x="925" 
 />
    <glyph glyph-name="uni00A0" unicode="&#xe00;" horiz-adv-x="925" 
 />
    <glyph glyph-name="kokaithai" unicode="&#xa1;" horiz-adv-x="1046" 
d="M603 943q147 -86 177 -224l153 -719h-147l-153 719q-13 62 -99 110t-219 48q-115 0 -234 -41l178 -836h-146l-199 939q196 85 370 85q184 0 319 -81z" />
    <glyph glyph-name="kokaithai" unicode="&#xe01;" horiz-adv-x="1046" 
d="M603 943q147 -86 177 -224l153 -719h-147l-153 719q-13 62 -99 110t-219 48q-115 0 -234 -41l178 -836h-146l-199 939q196 85 370 85q184 0 319 -81z" />
    <glyph glyph-name="khokhaithai" unicode="&#xa2;" horiz-adv-x="998" 
d="M522 1017h145l139 -653q22 -103 -12 -189t-112.5 -135t-183.5 -49h-5q-160 0 -296 108.5t-170 264.5l-27 130l29 359q-5 10 -26 18t-41 8l-32 148q82 -2 157 -55t91 -127l-31 -362l25 -119q20 -95 105 -161t185 -66h5q100 0 157 66.5t37 160.5z" />
    <glyph glyph-name="khokhaithai" unicode="&#xe02;" horiz-adv-x="998" 
d="M522 1017h145l139 -653q22 -103 -12 -189t-112.5 -135t-183.5 -49h-5q-160 0 -296 108.5t-170 264.5l-27 130l29 359q-5 10 -26 18t-41 8l-32 148q82 -2 157 -55t91 -127l-31 -362l25 -119q20 -95 105 -161t185 -66h5q100 0 157 66.5t37 160.5z" />
    <glyph glyph-name="khokhuatthai" unicode="&#xa3;" horiz-adv-x="1058" 
d="M579 1015h145l139 -653q33 -155 -58 -264t-250 -109h-62q-159 0 -295.5 108.5t-169.5 264.5l-28 131l36 320q-66 9 -125.5 66.5t-76.5 135.5h146q4 -20 19 -38.5t28 -18.5q12 0 20 18t4 39h134l6 -24q1 -2 2 -6.5t2 -6.5q5 -26 -1 -97l-47 -397l26 -122
q20 -94 104.5 -160.5t184.5 -66.5h62q100 0 156.5 66.5t37.5 160.5z" />
    <glyph glyph-name="khokhuatthai" unicode="&#xe03;" horiz-adv-x="1058" 
d="M579 1015h145l139 -653q33 -155 -58 -264t-250 -109h-62q-159 0 -295.5 108.5t-169.5 264.5l-28 131l36 320q-66 9 -125.5 66.5t-76.5 135.5h146q4 -20 19 -38.5t28 -18.5q12 0 20 18t4 39h134l6 -24q1 -2 2 -6.5t2 -6.5q5 -26 -1 -97l-47 -397l26 -122
q20 -94 104.5 -160.5t184.5 -66.5h62q100 0 156.5 66.5t37.5 160.5z" />
    <glyph glyph-name="khokhwaithai" unicode="&#xa4;" horiz-adv-x="1098" 
d="M667 916q143 -110 176 -265l139 -651h-147l-139 651q-20 92 -108 159t-194 67h-66q-108 0 -167 -67t-40 -159l27 -128q19 4 42 4h225l22 -99q6 -34 -86 -48h-129q-18 0 -27.5 -4t-11 -7.5t-0.5 -6.5l77 -362h-146l-139 654q-31 155 63.5 262.5t258.5 107.5h66
q164 0 304 -108z" />
    <glyph glyph-name="khokhwaithai" unicode="&#xe04;" horiz-adv-x="1098" 
d="M667 916q143 -110 176 -265l139 -651h-147l-139 651q-20 92 -108 159t-194 67h-66q-108 0 -167 -67t-40 -159l27 -128q19 4 42 4h225l22 -99q6 -34 -86 -48h-129q-18 0 -27.5 -4t-11 -7.5t-0.5 -6.5l77 -362h-146l-139 654q-31 155 63.5 262.5t258.5 107.5h66
q164 0 304 -108z" />
    <glyph glyph-name="khokhonthai" unicode="&#xa5;" horiz-adv-x="1098" 
d="M663 932q144 -110 177 -265l142 -667h-147l-142 667q-12 56 -54.5 107.5t-100.5 81.5q-25 -11 -78.5 -37t-78.5 -37l-186 74q-50 -31 -70 -80t-7 -109l30 -144q19 4 42 4h225l22 -99q6 -34 -86 -48h-129q-18 0 -27.5 -4t-11 -7.5t-0.5 -6.5l77 -362h-146l-141 667
q-25 117 27 212t160 139l187 -73q24 11 77 35.5t78 35.5q90 -31 161 -84z" />
    <glyph glyph-name="khokhonthai" unicode="&#xe05;" horiz-adv-x="1098" 
d="M663 932q144 -110 177 -265l142 -667h-147l-142 667q-12 56 -54.5 107.5t-100.5 81.5q-25 -11 -78.5 -37t-78.5 -37l-186 74q-50 -31 -70 -80t-7 -109l30 -144q19 4 42 4h225l22 -99q6 -34 -86 -48h-129q-18 0 -27.5 -4t-11 -7.5t-0.5 -6.5l77 -362h-146l-141 667
q-25 117 27 212t160 139l187 -73q24 11 77 35.5t78 35.5q90 -31 161 -84z" />
    <glyph glyph-name="khorakhangthai" unicode="&#xa6;" horiz-adv-x="1043" 
d="M567 1014h146l166 -779q21 -111 -55 -179t-213 -68q-167 0 -375 92q3 -80 -26 -80h-99l-105 493l39 320q-68 9 -127.5 65.5t-78.5 136.5h148q4 -20 19.5 -38.5t28.5 -18.5t21 18.5t4 38.5h134q3 -13 6 -21.5t4 -12t1 -4.5q3 -16 -2 -108l-49 -383l52 -242
q217 -110 374 -110q84 0 121.5 30.5t29.5 76.5z" />
    <glyph glyph-name="khorakhangthai" unicode="&#xe06;" horiz-adv-x="1043" 
d="M567 1014h146l166 -779q21 -111 -55 -179t-213 -68q-167 0 -375 92q3 -80 -26 -80h-99l-105 493l39 320q-68 9 -127.5 65.5t-78.5 136.5h148q4 -20 19.5 -38.5t28.5 -18.5t21 18.5t4 38.5h134q3 -13 6 -21.5t4 -12t1 -4.5q3 -16 -2 -108l-49 -383l52 -242
q217 -110 374 -110q84 0 121.5 30.5t29.5 76.5z" />
    <glyph glyph-name="ngonguthai" unicode="&#xa7;" horiz-adv-x="849" 
d="M376 1014h147l139 -655q19 -89 -8 -169.5t-91 -133t-149 -63.5l-70 -1l-460 653h159l351 -496q70 25 103.5 82t17.5 128z" />
    <glyph glyph-name="ngonguthai" unicode="&#xe07;" horiz-adv-x="849" 
d="M376 1014h147l139 -655q19 -89 -8 -169.5t-91 -133t-149 -63.5l-70 -1l-460 653h159l351 -496q70 25 103.5 82t17.5 128z" />
    <glyph glyph-name="chochanthai" unicode="&#xa8;" horiz-adv-x="936" 
d="M496 943q145 -87 175 -224l74 -350q33 -157 -62 -265t-260 -108h-85l-319 460h161l217 -314q104 2 163 69t39 158l-74 350q-13 63 -98.5 110.5t-219.5 47.5q-144 0 -322 -75l-88 134q205 88 379 88q183 0 320 -81z" />
    <glyph glyph-name="chochanthai" unicode="&#xe08;" horiz-adv-x="936" 
d="M496 943q145 -87 175 -224l74 -350q33 -157 -62 -265t-260 -108h-85l-319 460h161l217 -314q104 2 163 69t39 158l-74 350q-13 63 -98.5 110.5t-219.5 47.5q-144 0 -322 -75l-88 134q205 88 379 88q183 0 320 -81z" />
    <glyph glyph-name="chochingthai" unicode="&#xa9;" horiz-adv-x="1022" 
d="M581 942q145 -87 175 -223l153 -719h-99q-26 0 -57 73q-157 -85 -318 -85q-143 0 -246.5 69t-128.5 183l-63 298h146l63 -298q10 -46 61.5 -76t136.5 -30q148 0 309 100l-103 485q-13 63 -98 110.5t-219 47.5q-145 0 -322 -75l-89 134q208 88 380 88q184 0 319 -82z" />
    <glyph glyph-name="chochingthai" unicode="&#xe09;" horiz-adv-x="1022" 
d="M581 942q145 -87 175 -223l153 -719h-99q-26 0 -57 73q-157 -85 -318 -85q-143 0 -246.5 69t-128.5 183l-63 298h146l63 -298q10 -46 61.5 -76t136.5 -30q148 0 309 100l-103 485q-13 63 -98 110.5t-219 47.5q-145 0 -322 -75l-89 134q208 88 380 88q184 0 319 -82z" />
    <glyph glyph-name="chochangthai" unicode="&#xaa;" horiz-adv-x="1063" 
d="M715 1075q37 -174 -35 -265q106 -70 132 -191l56 -265q33 -155 -57.5 -264t-249.5 -109h-63q-159 0 -295.5 108.5t-170.5 264.5l-27 129l28 361q-6 10 -26.5 17.5t-40.5 7.5l-31 147q81 0 155.5 -52.5t92.5 -127.5l-31 -362l25 -120q20 -93 105 -160t185 -67h63
q100 0 156.5 66.5t36.5 160.5l-57 265q-25 109 -224 111l-31 147q15 0 28.5 1t30.5 4.5t31.5 10t28.5 16t24 25t16 34.5t6 46.5t-7 60.5h146z" />
    <glyph glyph-name="chochangthai" unicode="&#xe0a;" horiz-adv-x="1063" 
d="M715 1075q37 -174 -35 -265q106 -70 132 -191l56 -265q33 -155 -57.5 -264t-249.5 -109h-63q-159 0 -295.5 108.5t-170.5 264.5l-27 129l28 361q-6 10 -26.5 17.5t-40.5 7.5l-31 147q81 0 155.5 -52.5t92.5 -127.5l-31 -362l25 -120q20 -93 105 -160t185 -67h63
q100 0 156.5 66.5t36.5 160.5l-57 265q-25 109 -224 111l-31 147q15 0 28.5 1t30.5 4.5t31.5 10t28.5 16t24 25t16 34.5t6 46.5t-7 60.5h146z" />
    <glyph glyph-name="sosothai" unicode="&#xab;" horiz-adv-x="1058" 
d="M712 1075q38 -176 -35 -266q106 -69 132 -192l55 -263q32 -156 -56.5 -264.5t-248.5 -108.5h-63q-159 0 -295.5 108.5t-170.5 264.5l-28 131l36 320q-66 9 -125.5 66.5t-76.5 135.5h146q5 -20 20 -38.5t28 -18.5t20.5 18.5t2.5 38.5h115l14 -11q13 -13 15 -26
q5 -20 -1 -111l-46 -384l25 -121q20 -94 105 -160.5t185 -66.5h63q99 0 155 66.5t36 160.5l-56 263q-23 109 -223 114l-31 145q14 0 27 1t30.5 4t31.5 9.5t28.5 16t24.5 25t16 35t6 47.5t-7 61h146z" />
    <glyph glyph-name="sosothai" unicode="&#xe0b;" horiz-adv-x="1058" 
d="M712 1075q38 -176 -35 -266q106 -69 132 -192l55 -263q32 -156 -56.5 -264.5t-248.5 -108.5h-63q-159 0 -295.5 108.5t-170.5 264.5l-28 131l36 320q-66 9 -125.5 66.5t-76.5 135.5h146q5 -20 20 -38.5t28 -18.5t20.5 18.5t2.5 38.5h115l14 -11q13 -13 15 -26
q5 -20 -1 -111l-46 -384l25 -121q20 -94 105 -160.5t185 -66.5h63q99 0 155 66.5t36 160.5l-56 263q-23 109 -223 114l-31 145q14 0 27 1t30.5 4t31.5 9.5t28.5 16t24.5 25t16 35t6 47.5t-7 61h146z" />
    <glyph glyph-name="chochoethai" unicode="&#xac;" horiz-adv-x="1616" 
d="M1116 1015h146l164 -775q25 -113 -37 -183.5t-184 -70.5q-125 0 -286 76q0 -62 -26 -62h-99l-153 719q-14 64 -99 111t-219 47q-110 0 -233 -41l178 -836h-146l-200 941q197 83 370 83q187 0 327 -84.5t169 -220.5l104 -490q169 -96 282 -96q62 0 88.5 29t17.5 79z" />
    <glyph glyph-name="chochoethai" unicode="&#xe0c;" horiz-adv-x="1616" 
d="M1116 1015h146l164 -775q25 -113 -37 -183.5t-184 -70.5q-125 0 -286 76q0 -62 -26 -62h-99l-153 719q-14 64 -99 111t-219 47q-110 0 -233 -41l178 -836h-146l-200 941q197 83 370 83q187 0 327 -84.5t169 -220.5l104 -490q169 -96 282 -96q62 0 88.5 29t17.5 79z" />
    <glyph glyph-name="yoyingthai" unicode="&#xad;" horiz-adv-x="1614" 
d="M1121 1024h147l155 -732q28 -126 -47.5 -214.5t-206.5 -88.5h-50q-131 0 -244.5 88.5t-140.5 214.5l-91 433q-14 64 -100.5 112t-220.5 48q-107 0 -236 -41l180 -844h-147l-201 949q197 84 373 84q189 0 329.5 -85.5t169.5 -221.5l92 -434q14 -64 73.5 -109.5
t131.5 -45.5h50q73 0 113 45.5t26 109.5zM1360 -109l150 -56q-21 -96 -92.5 -155.5t-170.5 -59.5h-50q-100 0 -195 59t-158 156l124 56q36 -54 90.5 -89t107.5 -35h50q54 0 93 35.5t51 88.5z" />
    <glyph glyph-name="yoyingthai" unicode="&#xe0d;" horiz-adv-x="1614" 
d="M1121 1024h147l155 -732q28 -126 -47.5 -214.5t-206.5 -88.5h-50q-131 0 -244.5 88.5t-140.5 214.5l-91 433q-14 64 -100.5 112t-220.5 48q-107 0 -236 -41l180 -844h-147l-201 949q197 84 373 84q189 0 329.5 -85.5t169.5 -221.5l92 -434q14 -64 73.5 -109.5
t131.5 -45.5h50q73 0 113 45.5t26 109.5zM1360 -109l150 -56q-21 -96 -92.5 -155.5t-170.5 -59.5h-50q-100 0 -195 59t-158 156l124 56q36 -54 90.5 -89t107.5 -35h50q54 0 93 35.5t51 88.5z" />
    <glyph glyph-name="yoyingthai" unicode="&#xde;" horiz-adv-x="1614" 
d="M1121 1024h147l155 -732q28 -126 -47.5 -214.5t-206.5 -88.5h-50q-131 0 -244.5 88.5t-140.5 214.5l-91 433q-14 64 -100.5 112t-220.5 48q-107 0 -236 -41l180 -844h-147l-201 949q197 84 373 84q189 0 329.5 -85.5t169.5 -221.5l92 -434q14 -64 73.5 -109.5
t131.5 -45.5h50q73 0 113 45.5t26 109.5zM1360 -109l150 -56q-21 -96 -92.5 -155.5t-170.5 -59.5h-50q-100 0 -195 59t-158 156l124 56q36 -54 90.5 -89t107.5 -35h50q54 0 93 35.5t51 88.5z" />
    <glyph glyph-name="dochadathai" unicode="&#xae;" horiz-adv-x="1045" 
d="M603 942q145 -86 175 -223l178 -840q29 -136 -74 -220t-290 -84q-174 0 -416 87l23 136q218 -77 362 -77q132 0 197.5 47.5t51.5 110.5l-178 840q-14 63 -100 110.5t-217 47.5q-108 0 -234 -42l178 -835h-146l-199 940q197 83 370 83q182 0 319 -81z" />
    <glyph glyph-name="dochadathai" unicode="&#xe0e;" horiz-adv-x="1045" 
d="M603 942q145 -86 175 -223l178 -840q29 -136 -74 -220t-290 -84q-174 0 -416 87l23 136q218 -77 362 -77q132 0 197.5 47.5t51.5 110.5l-178 840q-14 63 -100 110.5t-217 47.5q-108 0 -234 -42l178 -835h-146l-199 940q197 83 370 83q182 0 319 -81z" />
    <glyph glyph-name="topatakthai" unicode="&#xaf;" horiz-adv-x="1045" 
d="M603 942q145 -86 175 -223l238 -1120h-102q-268 155 -450 155q-84 0 -128.5 -37t-46.5 -95l-150 34q3 117 83 180.5t210 63.5q178 0 396 -104l-196 923q-14 63 -100 110.5t-218 47.5q-107 0 -233 -42l178 -835h-146l-199 940q197 83 369 83q183 0 320 -81z" />
    <glyph glyph-name="topatakthai" unicode="&#xe0f;" horiz-adv-x="1045" 
d="M603 942q145 -86 175 -223l238 -1120h-102q-268 155 -450 155q-84 0 -128.5 -37t-46.5 -95l-150 34q3 117 83 180.5t210 63.5q178 0 396 -104l-196 923q-14 63 -100 110.5t-218 47.5q-107 0 -233 -42l178 -835h-146l-199 940q197 83 369 83q183 0 320 -81z" />
    <glyph glyph-name="thothanthai" unicode="&#xb0;" horiz-adv-x="925" 
d="M669 -182l144 9q18 -82 -27 -141.5t-119 -59.5h-477l-20 98q-4 18 18.5 30t67.5 19h380q43 0 33 45zM571 930v1q-17 -26 -36 -44q111 -100 140 -237l60 -281q31 -148 -53.5 -254t-236.5 -117l-116 -2l-318 460h159l218 -313q105 7 162.5 71.5t38.5 154.5l-60 281
q-20 93 -108.5 160t-194.5 67h-65q-69 0 -123 -38.5t-83 -102.5l-125 114q42 80 122.5 126.5t177.5 46.5h65q98 0 195 -44q24 15 41.5 49.5t14.5 51.5h146q19 -90 -21 -150z" />
    <glyph glyph-name="thothanthai" unicode="&#xe10;" horiz-adv-x="925" 
d="M669 -182l144 9q18 -82 -27 -141.5t-119 -59.5h-477l-20 98q-4 18 18.5 30t67.5 19h380q43 0 33 45zM571 930v1q-17 -26 -36 -44q111 -100 140 -237l60 -281q31 -148 -53.5 -254t-236.5 -117l-116 -2l-318 460h159l218 -313q105 7 162.5 71.5t38.5 154.5l-60 281
q-20 93 -108.5 160t-194.5 67h-65q-69 0 -123 -38.5t-83 -102.5l-125 114q42 80 122.5 126.5t177.5 46.5h65q98 0 195 -44q24 15 41.5 49.5t14.5 51.5h146q19 -90 -21 -150z" />
    <glyph glyph-name="thonangmonthothai" unicode="&#xb1;" horiz-adv-x="1173" 
d="M887 774l165 -774h-146l-164 773q-11 46 -62.5 76.5t-135.5 30.5q-157 0 -326 -110l164 -770h-146l-174 815q-20 -4 -36 -4q-70 0 -138.5 59.5t-86.5 143.5h146q4 -20 19.5 -38.5t29.5 -18.5q13 0 21 18.5t5 38.5l97 -1q10 0 28 -23.5t31 -56.5q171 93 335 93
q140 0 245 -69t129 -183z" />
    <glyph glyph-name="thonangmonthothai" unicode="&#xe11;" horiz-adv-x="1173" 
d="M887 774l165 -774h-146l-164 773q-11 46 -62.5 76.5t-135.5 30.5q-157 0 -326 -110l164 -770h-146l-174 815q-20 -4 -36 -4q-70 0 -138.5 59.5t-86.5 143.5h146q4 -20 19.5 -38.5t29.5 -18.5q13 0 21 18.5t5 38.5l97 -1q10 0 28 -23.5t31 -56.5q171 93 335 93
q140 0 245 -69t129 -183z" />
    <glyph glyph-name="thophuthaothai" unicode="&#xb2;" horiz-adv-x="1667" 
d="M1310 1013l164 -773q24 -112 -37 -183t-183 -71q-127 0 -285 77q2 -63 -26 -63h-99l-142 666q-12 56 -55 107t-101 81q-18 -8 -73.5 -34.5t-83.5 -38.5l-186 72q-46 -30 -67 -80t-9 -107l75 -352q11 -52 40.5 -89t70.5 -56t83 -27t89 -8l31 -146q-34 0 -68 3.5t-76 13.5
t-80 25.5t-76.5 41t-69 58.5t-55 80t-36.5 104l-74 352q-25 116 28.5 211t160.5 138l185 -72q18 8 72.5 33.5t82.5 37.5q127 -43 220 -137t118 -211l93 -439q169 -95 282 -95q62 0 88.5 28.5t17.5 78.5l-165 774h146z" />
    <glyph glyph-name="thophuthaothai" unicode="&#xe12;" horiz-adv-x="1667" 
d="M1310 1013l164 -773q24 -112 -37 -183t-183 -71q-127 0 -285 77q2 -63 -26 -63h-99l-142 666q-12 56 -55 107t-101 81q-18 -8 -73.5 -34.5t-83.5 -38.5l-186 72q-46 -30 -67 -80t-9 -107l75 -352q11 -52 40.5 -89t70.5 -56t83 -27t89 -8l31 -146q-34 0 -68 3.5t-76 13.5
t-80 25.5t-76.5 41t-69 58.5t-55 80t-36.5 104l-74 352q-25 116 28.5 211t160.5 138l185 -72q18 8 72.5 33.5t82.5 37.5q127 -43 220 -137t118 -211l93 -439q169 -95 282 -95q62 0 88.5 28.5t17.5 78.5l-165 774h146z" />
    <glyph glyph-name="nonenthai" unicode="&#xb3;" horiz-adv-x="1615" 
d="M1114 1013h147l216 -1013h-103q-27 4 -51 63q-128 -76 -253 -76q-122 0 -213 70t-115 183l-101 479q-14 63 -100 110.5t-218 47.5q-107 0 -233 -42l178 -835h-146l-199 940q197 83 369 83q188 0 327 -84.5t168 -219.5l101 -479q11 -49 49.5 -78t101.5 -29q117 0 242 95z
" />
    <glyph glyph-name="nonenthai" unicode="&#xe13;" horiz-adv-x="1615" 
d="M1114 1013h147l216 -1013h-103q-27 4 -51 63q-128 -76 -253 -76q-122 0 -213 70t-115 183l-101 479q-14 63 -100 110.5t-218 47.5q-107 0 -233 -42l178 -835h-146l-199 940q197 83 369 83q188 0 327 -84.5t168 -219.5l101 -479q11 -49 49.5 -78t101.5 -29q117 0 242 95z
" />
    <glyph glyph-name="dodekthai" unicode="&#xb4;" horiz-adv-x="1093" 
d="M661 915q143 -109 176 -265l139 -650h-145l-139 650q-20 92 -109 159.5t-195 67.5h-65q-107 0 -166.5 -67.5t-40.5 -159.5l72 -335q11 -53 41.5 -90.5t72.5 -56t83 -26t86 -7.5l31 -147q-49 1 -98 8t-109 29t-108 56.5t-88 95t-57 138.5l-71 338q-32 156 62.5 263
t258.5 107h65q164 0 304 -108z" />
    <glyph glyph-name="dodekthai" unicode="&#xe14;" horiz-adv-x="1093" 
d="M661 915q143 -109 176 -265l139 -650h-145l-139 650q-20 92 -109 159.5t-195 67.5h-65q-107 0 -166.5 -67.5t-40.5 -159.5l72 -335q11 -53 41.5 -90.5t72.5 -56t83 -26t86 -7.5l31 -147q-49 1 -98 8t-109 29t-108 56.5t-88 95t-57 138.5l-71 338q-32 156 62.5 263
t258.5 107h65q164 0 304 -108z" />
    <glyph glyph-name="totaothai" unicode="&#xb5;" horiz-adv-x="1092" 
d="M657 932q144 -110 177 -265l142 -667h-146l-142 667q-13 59 -54 108.5t-102 79.5q-22 -10 -76 -36t-81 -38l-186 74q-48 -29 -68 -80t-8 -108l75 -352q11 -52 40.5 -89.5t71.5 -56t83 -26.5t88 -8l31 -147q-49 1 -97 8t-108.5 28.5t-108.5 56t-88.5 95t-57.5 139.5
l-74 352q-25 117 26.5 210.5t160.5 139.5l186 -73q24 11 156 73q93 -34 160 -85z" />
    <glyph glyph-name="totaothai" unicode="&#xe15;" horiz-adv-x="1092" 
d="M657 932q144 -110 177 -265l142 -667h-146l-142 667q-13 59 -54 108.5t-102 79.5q-22 -10 -76 -36t-81 -38l-186 74q-48 -29 -68 -80t-8 -108l75 -352q11 -52 40.5 -89.5t71.5 -56t83 -26.5t88 -8l31 -147q-49 1 -97 8t-108.5 28.5t-108.5 56t-88.5 95t-57.5 139.5
l-74 352q-25 117 26.5 210.5t160.5 139.5l186 -73q24 11 156 73q93 -34 160 -85z" />
    <glyph glyph-name="thothungthai" unicode="&#xb6;" horiz-adv-x="1044" 
d="M603 942q145 -84 175 -223l153 -719h-146l-153 719q-14 63 -99.5 110.5t-218.5 47.5q-107 0 -233 -42l111 -520q23 -108 69 -144t135 -36l31 -146q-313 0 -382 326l-132 625q198 83 370 83q183 0 320 -81z" />
    <glyph glyph-name="thothungthai" unicode="&#xe16;" horiz-adv-x="1044" 
d="M603 942q145 -84 175 -223l153 -719h-146l-153 719q-14 63 -99.5 110.5t-218.5 47.5q-107 0 -233 -42l111 -520q23 -108 69 -144t135 -36l31 -146q-313 0 -382 326l-132 625q198 83 370 83q183 0 320 -81z" />
    <glyph glyph-name="thothahanthai" unicode="&#xb7;" horiz-adv-x="1043" 
d="M259 0h-146l-215 1014h99q29 0 58 -80q171 93 336 93q141 0 246 -69t129 -183l165 -775h-147l-165 775q-10 46 -61 76t-136 30q-156 0 -327 -111z" />
    <glyph glyph-name="thothahanthai" unicode="&#x2219;" horiz-adv-x="1043" 
d="M259 0h-146l-215 1014h99q29 0 58 -80q171 93 336 93q141 0 246 -69t129 -183l165 -775h-147l-165 775q-10 46 -61 76t-136 30q-156 0 -327 -111z" />
    <glyph glyph-name="thothahanthai" unicode="&#xe17;" horiz-adv-x="1043" 
d="M259 0h-146l-215 1014h99q29 0 58 -80q171 93 336 93q141 0 246 -69t129 -183l165 -775h-147l-165 775q-10 46 -61 76t-136 30q-156 0 -327 -111z" />
    <glyph glyph-name="thothongthai" unicode="&#xb8;" horiz-adv-x="982" 
d="M417 611q34 -4 54.5 -7t60.5 -12.5t67 -20.5t62 -31.5t59 -46t45 -64t31 -84.5l3 -7q15 -82 21 -130.5t-1 -90.5t-24.5 -62t-59 -34.5t-94 -18t-140.5 -3.5q-164 0 -253 21t-126.5 62t-53.5 119q-6 29 -10 87.5t-7 82.5h124q22 -104 33 -157q5 -19 9.5 -29t18.5 -19.5
t29 -13t52 -6.5t77.5 -3.5t114.5 -0.5q132 0 159 15q5 3 5.5 25t-5.5 64t-17 95q-7 32 -27 54.5t-53 35.5t-60 19.5t-68 12.5q-15 2 -36 5.5t-38.5 6t-37.5 4.5q-38 3 -66 7t-72.5 14t-78.5 28t-69 44.5t-59.5 68.5t-35.5 95q-12 65 2 116.5t46 83.5t79.5 53t98 29.5
t107.5 8.5q181 0 371 -78l-31 -133q-157 65 -309 65q-106 0 -165 -39.5t-53 -110.5q5 -20 16 -35t23 -23.5t33.5 -15t35.5 -9.5t42 -7q19 -3 76 -14.5t95 -15.5z" />
    <glyph glyph-name="thothongthai" unicode="&#xe18;" horiz-adv-x="982" 
d="M417 611q34 -4 54.5 -7t60.5 -12.5t67 -20.5t62 -31.5t59 -46t45 -64t31 -84.5l3 -7q15 -82 21 -130.5t-1 -90.5t-24.5 -62t-59 -34.5t-94 -18t-140.5 -3.5q-164 0 -253 21t-126.5 62t-53.5 119q-6 29 -10 87.5t-7 82.5h124q22 -104 33 -157q5 -19 9.5 -29t18.5 -19.5
t29 -13t52 -6.5t77.5 -3.5t114.5 -0.5q132 0 159 15q5 3 5.5 25t-5.5 64t-17 95q-7 32 -27 54.5t-53 35.5t-60 19.5t-68 12.5q-15 2 -36 5.5t-38.5 6t-37.5 4.5q-38 3 -66 7t-72.5 14t-78.5 28t-69 44.5t-59.5 68.5t-35.5 95q-12 65 2 116.5t46 83.5t79.5 53t98 29.5
t107.5 8.5q181 0 371 -78l-31 -133q-157 65 -309 65q-106 0 -165 -39.5t-53 -110.5q5 -20 16 -35t23 -23.5t33.5 -15t35.5 -9.5t42 -7q19 -3 76 -14.5t95 -15.5z" />
    <glyph glyph-name="nonuthai" unicode="&#xb9;" horiz-adv-x="1044" 
d="M569 1014h146l216 -1014h-99q-28 0 -62 80q-167 -92 -334 -92q-141 0 -245.5 69t-128.5 182l-164 775h146l165 -775q10 -45 60.5 -75t135.5 -30q155 0 328 110z" />
    <glyph glyph-name="nonuthai" unicode="&#xe19;" horiz-adv-x="1044" 
d="M569 1014h146l216 -1014h-99q-28 0 -62 80q-167 -92 -334 -92q-141 0 -245.5 69t-128.5 182l-164 775h146l165 -775q10 -45 60.5 -75t135.5 -30q155 0 328 110z" />
    <glyph glyph-name="bobaimaithai" unicode="&#xba;" horiz-adv-x="1075" 
d="M597 1015h147l147 -695q30 -140 -65.5 -235t-254.5 -95h-64q-104 0 -202.5 42.5t-169 119t-90.5 168.5l-146 695h146l147 -695q16 -74 97.5 -128.5t185.5 -54.5h64q103 0 162 54.5t43 128.5z" />
    <glyph glyph-name="bobaimaithai" unicode="&#xe1a;" horiz-adv-x="1075" 
d="M597 1015h147l147 -695q30 -140 -65.5 -235t-254.5 -95h-64q-104 0 -202.5 42.5t-169 119t-90.5 168.5l-146 695h146l147 -695q16 -74 97.5 -128.5t185.5 -54.5h64q103 0 162 54.5t43 128.5z" />
    <glyph glyph-name="poplathai" unicode="&#xbb;" horiz-adv-x="1074" 
d="M544 1262h146l200 -942q30 -140 -65.5 -235t-253.5 -95h-65q-104 0 -202 42t-168.5 118.5t-90.5 169.5l-146 695h145l147 -695q16 -74 97.5 -128.5t185.5 -54.5h65q103 0 161.5 54.5t43.5 129.5z" />
    <glyph glyph-name="poplathai" unicode="&#xe1b;" horiz-adv-x="1074" 
d="M544 1262h146l200 -942q30 -140 -65.5 -235t-253.5 -95h-65q-104 0 -202 42t-168.5 118.5t-90.5 169.5l-146 695h145l147 -695q16 -74 97.5 -128.5t185.5 -54.5h65q103 0 161.5 54.5t43.5 129.5z" />
    <glyph glyph-name="phophungthai" unicode="&#xbc;" horiz-adv-x="1094" 
d="M618 1014h146l142 -666q24 -117 -29.5 -212t-159.5 -138l-187 73q-30 -14 -154 -72q-125 42 -218.5 136.5t-118.5 212.5l-104 492q-18 75 32.5 124t139.5 51l31 -146q-22 0 -41 -9.5t-17 -19.5l105 -492q13 -60 53.5 -109t103.5 -80q69 34 155 75l185 -74q47 31 68.5 81
t9.5 107z" />
    <glyph glyph-name="phophungthai" unicode="&#xe1c;" horiz-adv-x="1094" 
d="M618 1014h146l142 -666q24 -117 -29.5 -212t-159.5 -138l-187 73q-30 -14 -154 -72q-125 42 -218.5 136.5t-118.5 212.5l-104 492q-18 75 32.5 124t139.5 51l31 -146q-22 0 -41 -9.5t-17 -19.5l105 -492q13 -60 53.5 -109t103.5 -80q69 34 155 75l185 -74q47 31 68.5 81
t9.5 107z" />
    <glyph glyph-name="fofathai" unicode="&#xbd;" horiz-adv-x="1093" 
d="M564 1261h146l195 -913q16 -76 -1 -145t-62 -120q-47 -52 -126 -85l-187 73q-30 -14 -154 -72q-88 30 -160 84q-67 52 -114.5 121t-62.5 144l-104 492q-15 72 31 125q45 50 141 50l31 -146q-41 0 -52 -11q-7 -12 -6 -18l105 -492q20 -91 106 -158q28 -20 48 -30
q26 12 80.5 37.5t77.5 36.5l188 -75q15 10 36 31q57 68 39 158z" />
    <glyph glyph-name="fofathai" unicode="&#xe1d;" horiz-adv-x="1093" 
d="M564 1261h146l195 -913q16 -76 -1 -145t-62 -120q-47 -52 -126 -85l-187 73q-30 -14 -154 -72q-88 30 -160 84q-67 52 -114.5 121t-62.5 144l-104 492q-15 72 31 125q45 50 141 50l31 -146q-41 0 -52 -11q-7 -12 -6 -18l105 -492q20 -91 106 -158q28 -20 48 -30
q26 12 80.5 37.5t77.5 36.5l188 -75q15 10 36 31q57 68 39 158z" />
    <glyph glyph-name="phophanthai" unicode="&#xbe;" horiz-adv-x="1138" 
d="M658 1014h147l168 -792q21 -98 -37 -166.5t-159 -68.5h-35q-38 0 -86.5 15t-83.5 38q-27 -25 -71 -39t-88 -14h-36q-108 0 -198 68t-112 167l-167 792h145l168 -792q8 -34 48 -61.5t85 -27.5h36q56 0 81 39q-11 26 -17 50l-77 366h147l77 -366q8 -37 42.5 -63t75.5 -26
h35q41 0 64.5 26t15.5 63z" />
    <glyph glyph-name="phophanthai" unicode="&#xe1e;" horiz-adv-x="1138" 
d="M658 1014h147l168 -792q21 -98 -37 -166.5t-159 -68.5h-35q-38 0 -86.5 15t-83.5 38q-27 -25 -71 -39t-88 -14h-36q-108 0 -198 68t-112 167l-167 792h145l168 -792q8 -34 48 -61.5t85 -27.5h36q56 0 81 39q-11 26 -17 50l-77 366h147l77 -366q8 -37 42.5 -63t75.5 -26
h35q41 0 64.5 26t15.5 63z" />
    <glyph glyph-name="fofanthai" unicode="&#xbf;" horiz-adv-x="1138" 
d="M607 1260h146l221 -1040q21 -98 -41 -166.5t-169 -68.5h-37q-99 0 -179 55q-24 -26 -66 -40.5t-84 -14.5h-35q-99 0 -186.5 69t-108.5 166l-168 793h146l169 -793q8 -37 41.5 -62.5t74.5 -25.5h35q41 0 65 25.5t17 62.5l-78 367h146l78 -367q5 -30 4 -49q42 -39 97 -39
h37q45 0 74 27t22 61z" />
    <glyph glyph-name="fofanthai" unicode="&#xe1f;" horiz-adv-x="1138" 
d="M607 1260h146l221 -1040q21 -98 -41 -166.5t-169 -68.5h-37q-99 0 -179 55q-24 -26 -66 -40.5t-84 -14.5h-35q-99 0 -186.5 69t-108.5 166l-168 793h146l169 -793q8 -37 41.5 -62.5t74.5 -25.5h35q41 0 65 25.5t17 62.5l-78 367h146l78 -367q5 -30 4 -49q42 -39 97 -39
h37q45 0 74 27t22 61z" />
    <glyph glyph-name="phosamphaothai" unicode="&#xc0;" horiz-adv-x="1048" 
d="M609 953q146 -88 176 -226l155 -727h-147l-155 727q-15 64 -101 112t-221 48q-117 0 -236 -41l144 -680q16 -74 -38 -125.5t-137 -51.5l-32 148q23 0 42 9.5t17 19.5l-166 785q197 85 374 85q186 0 325 -83z" />
    <glyph glyph-name="phosamphaothai" unicode="&#xe20;" horiz-adv-x="1048" 
d="M609 953q146 -88 176 -226l155 -727h-147l-155 727q-15 64 -101 112t-221 48q-117 0 -236 -41l144 -680q16 -74 -38 -125.5t-137 -51.5l-32 148q23 0 42 9.5t17 19.5l-166 785q197 85 374 85q186 0 325 -83z" />
    <glyph glyph-name="momathai" unicode="&#xc1;" horiz-adv-x="1044" 
d="M42 1024l165 -778q219 -111 378 -111q84 0 123 30t30 77l-166 782h147l166 -782q24 -114 -51.5 -184t-217.5 -70q-169 0 -379 93q5 -81 -26 -81h-99l-217 1024h147z" />
    <glyph glyph-name="momathai" unicode="&#xe21;" horiz-adv-x="1044" 
d="M42 1024l165 -778q219 -111 378 -111q84 0 123 30t30 77l-166 782h147l166 -782q24 -114 -51.5 -184t-217.5 -70q-169 0 -379 93q5 -81 -26 -81h-99l-217 1024h147z" />
    <glyph glyph-name="yoyakthai" unicode="&#xc2;" horiz-adv-x="1073" 
d="M595 1025h147l149 -704q30 -141 -66.5 -237t-258.5 -96h-64q-105 0 -205 43t-171 120t-91 170l-8 37q-13 54 -5.5 110.5t35.5 84.5q-87 78 -113 201l-57 271h100q33 0 71 -111l34 -160q14 -64 58.5 -100t107.5 -36l32 -148q-28 0 -49.5 -4.5t-40.5 -15.5t-25.5 -34.5
t0.5 -57.5l8 -37q16 -74 100 -129.5t188 -55.5h64q106 0 165.5 55.5t43.5 129.5z" />
    <glyph glyph-name="yoyakthai" unicode="&#xe22;" horiz-adv-x="1073" 
d="M595 1025h147l149 -704q30 -141 -66.5 -237t-258.5 -96h-64q-105 0 -205 43t-171 120t-91 170l-8 37q-13 54 -5.5 110.5t35.5 84.5q-87 78 -113 201l-57 271h100q33 0 71 -111l34 -160q14 -64 58.5 -100t107.5 -36l32 -148q-28 0 -49.5 -4.5t-40.5 -15.5t-25.5 -34.5
t0.5 -57.5l8 -37q16 -74 100 -129.5t188 -55.5h64q106 0 165.5 55.5t43.5 129.5z" />
    <glyph glyph-name="roruathai" unicode="&#xc3;" horiz-adv-x="921" 
d="M776 282l-1 -1q11 -66 -3.5 -118t-47 -84t-81 -52.5t-99 -28.5t-107.5 -8q-183 0 -374 77l32 134q156 -64 310 -64q108 0 168 40t53 111q-4 19 -12 34.5t-22 28t-25.5 22.5t-34 18t-34.5 13t-39.5 11t-38 8.5t-40 7.5t-35.5 6q-12 4 -54 11.5t-81 15t-90 28.5t-91 49.5
t-74.5 79.5t-48.5 117q-12 68 3 120.5t47 84.5t81 52.5t99 28.5t107 9q182 -2 373 -77l-29 -136q-157 64 -312 64q-114 0 -174.5 -37t-45.5 -114q7 -35 30 -60.5t59 -40.5t66 -23t75 -16t62 -12q9 -2 40.5 -7t55.5 -9.5t62 -15.5t68 -24.5t64.5 -36t60 -50t47 -68
t31.5 -88.5z" />
    <glyph glyph-name="roruathai" unicode="&#xe23;" horiz-adv-x="921" 
d="M776 282l-1 -1q11 -66 -3.5 -118t-47 -84t-81 -52.5t-99 -28.5t-107.5 -8q-183 0 -374 77l32 134q156 -64 310 -64q108 0 168 40t53 111q-4 19 -12 34.5t-22 28t-25.5 22.5t-34 18t-34.5 13t-39.5 11t-38 8.5t-40 7.5t-35.5 6q-12 4 -54 11.5t-81 15t-90 28.5t-91 49.5
t-74.5 79.5t-48.5 117q-12 68 3 120.5t47 84.5t81 52.5t99 28.5t107 9q182 -2 373 -77l-29 -136q-157 64 -312 64q-114 0 -174.5 -37t-45.5 -114q7 -35 30 -60.5t59 -40.5t66 -23t75 -16t62 -12q9 -2 40.5 -7t55.5 -9.5t62 -15.5t68 -24.5t64.5 -36t60 -50t47 -68
t31.5 -88.5z" />
    <glyph glyph-name="ruthai" unicode="&#xc4;" horiz-adv-x="1048" 
d="M609 951q149 -87 177 -226l247 -1158h-148l-247 1158q-13 64 -100.5 112t-220.5 48q-108 0 -237 -41l112 -528q23 -109 70.5 -145t136.5 -36l31 -148q-154 0 -250.5 77t-134.5 251l-134 634q200 84 375 84q184 0 323 -82z" />
    <glyph glyph-name="ruthai" unicode="&#xe24;" horiz-adv-x="1048" 
d="M609 951q149 -87 177 -226l247 -1158h-148l-247 1158q-13 64 -100.5 112t-220.5 48q-108 0 -237 -41l112 -528q23 -109 70.5 -145t136.5 -36l31 -148q-154 0 -250.5 77t-134.5 251l-134 634q200 84 375 84q184 0 323 -82z" />
    <glyph glyph-name="lolingthai" unicode="&#xc5;" horiz-adv-x="1034" 
d="M595 953q147 -85 177 -226l155 -727h-148l-83 387q-210 108 -367 108q-101 0 -146.5 -45t-28.5 -125q12 -58 25 -90t39 -56.5t67.5 -33.5t109.5 -9l31 -147q-103 0 -175.5 20t-120.5 64t-76.5 103.5t-47.5 148.5q-30 144 51.5 231t240.5 87q155 0 363 -88l-37 172
q-13 63 -99.5 111t-221.5 48q-147 0 -331 -77l-84 138q209 88 384 88q183 0 323 -82z" />
    <glyph glyph-name="lolingthai" unicode="&#xe25;" horiz-adv-x="1034" 
d="M595 953q147 -85 177 -226l155 -727h-148l-83 387q-210 108 -367 108q-101 0 -146.5 -45t-28.5 -125q12 -58 25 -90t39 -56.5t67.5 -33.5t109.5 -9l31 -147q-103 0 -175.5 20t-120.5 64t-76.5 103.5t-47.5 148.5q-30 144 51.5 231t240.5 87q155 0 363 -88l-37 172
q-13 63 -99.5 111t-221.5 48q-147 0 -331 -77l-84 138q209 88 384 88q183 0 323 -82z" />
    <glyph glyph-name="luthai" unicode="&#xc6;" horiz-adv-x="1047" 
d="M608 951q147 -87 176 -225l247 -1159h-148l-247 1159q-14 64 -101 111.5t-220 47.5q-117 0 -237 -41l144 -679q16 -75 -38 -126.5t-136 -51.5l-31 148q23 0 42 9.5t16 20.5l-165 784q197 84 374 84q185 0 324 -82z" />
    <glyph glyph-name="luthai" unicode="&#xe26;" horiz-adv-x="1047" 
d="M608 951q147 -87 176 -225l247 -1159h-148l-247 1159q-14 64 -101 111.5t-220 47.5q-117 0 -237 -41l144 -679q16 -75 -38 -126.5t-136 -51.5l-31 148q23 0 42 9.5t16 20.5l-165 784q197 84 374 84q185 0 324 -82z" />
    <glyph glyph-name="wowaenthai" unicode="&#xc7;" horiz-adv-x="961" 
d="M529 951q149 -88 177 -226l77 -362q22 -103 -14.5 -190t-119 -137t-191.5 -50h-67q-99 0 -199.5 47t-179.5 128l79 115q57 -66 128 -104t141 -38h67q107 0 167.5 67.5t40.5 161.5l-77 362q-13 63 -99 111t-221 48q-153 0 -331 -78l-83 138q207 89 382 89q185 0 323 -82z
" />
    <glyph glyph-name="wowaenthai" unicode="&#xe27;" horiz-adv-x="961" 
d="M529 951q149 -88 177 -226l77 -362q22 -103 -14.5 -190t-119 -137t-191.5 -50h-67q-99 0 -199.5 47t-179.5 128l79 115q57 -66 128 -104t141 -38h67q107 0 167.5 67.5t40.5 161.5l-77 362q-13 63 -99 111t-221 48q-153 0 -331 -78l-83 138q207 89 382 89q185 0 323 -82z
" />
    <glyph glyph-name="sosalathai" unicode="&#xc8;" horiz-adv-x="1089" 
d="M754 1103q12 -58 -6.5 -110.5t-57.5 -89.5q121 -109 150 -245l140 -658h-147l-140 658q-20 93 -109.5 160.5t-197.5 67.5h-66q-109 0 -169 -67t-40 -161l27 -130q22 5 43 5h227l21 -99q4 -18 -18.5 -30.5t-68.5 -18.5h-129q-43 0 -41 -16l79 -369h-148l-140 661
q-31 156 64.5 265t261.5 109h66q91 0 186 -38q21 6 45 45t20 61h148z" />
    <glyph glyph-name="sosalathai" unicode="&#xe28;" horiz-adv-x="1089" 
d="M754 1103q12 -58 -6.5 -110.5t-57.5 -89.5q121 -109 150 -245l140 -658h-147l-140 658q-20 93 -109.5 160.5t-197.5 67.5h-66q-109 0 -169 -67t-40 -161l27 -130q22 5 43 5h227l21 -99q4 -18 -18.5 -30.5t-68.5 -18.5h-129q-43 0 -41 -16l79 -369h-148l-140 661
q-31 156 64.5 265t261.5 109h66q91 0 186 -38q21 6 45 45t20 61h148z" />
    <glyph glyph-name="sorusithai" unicode="&#xc9;" horiz-adv-x="1077" 
d="M885 622l32 -148h-49l32 -154q20 -94 -18.5 -171t-120 -119.5t-186.5 -42.5h-65q-160 0 -297.5 95.5t-168.5 237.5l-148 705h147l149 -705q16 -74 99.5 -129.5t187.5 -55.5h65q106 0 165 55t43 130l-32 154h-313l-21 99q-4 18 18.5 30.5t68.5 18.5h215l-85 403h148
l85 -403h49z" />
    <glyph glyph-name="sorusithai" unicode="&#xe29;" horiz-adv-x="1077" 
d="M885 622l32 -148h-49l32 -154q20 -94 -18.5 -171t-120 -119.5t-186.5 -42.5h-65q-160 0 -297.5 95.5t-168.5 237.5l-148 705h147l149 -705q16 -74 99.5 -129.5t187.5 -55.5h65q106 0 165 55t43 130l-32 154h-313l-21 99q-4 18 18.5 30.5t68.5 18.5h215l-85 403h148
l85 -403h49z" />
    <glyph glyph-name="sosuathai" unicode="&#xca;" horiz-adv-x="1034" 
d="M715 1006q-17 -54 -60 -96q93 -72 117 -183l155 -727h-148l-83 387q-208 108 -366 108q-101 0 -147 -45t-29 -125q12 -58 25 -90t39 -56.5t67.5 -33.5t108.5 -9l31 -147q-134 0 -218.5 37t-129.5 108t-71 191q-30 145 51.5 231.5t241.5 86.5t362 -88l-37 172
q-14 64 -100 112t-220 48q-145 0 -331 -78l-85 138q208 88 385 88q114 0 228 -39q23 3 45 46t18 61h147q14 -64 4 -97z" />
    <glyph glyph-name="sosuathai" unicode="&#xe2a;" horiz-adv-x="1034" 
d="M715 1006q-17 -54 -60 -96q93 -72 117 -183l155 -727h-148l-83 387q-208 108 -366 108q-101 0 -147 -45t-29 -125q12 -58 25 -90t39 -56.5t67.5 -33.5t108.5 -9l31 -147q-134 0 -218.5 37t-129.5 108t-71 191q-30 145 51.5 231.5t241.5 86.5t362 -88l-37 172
q-14 64 -100 112t-220 48q-145 0 -331 -78l-85 138q208 88 385 88q114 0 228 -39q23 3 45 46t18 61h147q14 -64 4 -97z" />
    <glyph glyph-name="hohipthai" unicode="&#xcb;" horiz-adv-x="1046" 
d="M830 511l109 -511h-148l-109 511q-10 47 -62 77t-137 30q-158 0 -331 -111l108 -507h-148l-218 1026h99q36 0 72 -113l51 -239q120 67 257 87q3 0 7.5 1t19.5 2q116 16 158 74t15 186h148q47 -219 -42 -315q58 -32 98 -84t53 -114z" />
    <glyph glyph-name="hohipthai" unicode="&#xe2b;" horiz-adv-x="1046" 
d="M830 511l109 -511h-148l-109 511q-10 47 -62 77t-137 30q-158 0 -331 -111l108 -507h-148l-218 1026h99q36 0 72 -113l51 -239q120 67 257 87q3 0 7.5 1t19.5 2q116 16 158 74t15 186h148q47 -219 -42 -315q58 -32 98 -84t53 -114z" />
    <glyph glyph-name="lochulathai" unicode="&#xcc;" horiz-adv-x="1138" 
d="M781 997v-1q-12 -42 -41 -76q106 -68 133 -193l107 -502q21 -99 -41.5 -168t-171.5 -69h-37q-101 0 -183 58q-61 -58 -149 -58h-35q-102 0 -189.5 69t-108.5 168l-169 800h146l170 -800q7 -37 43 -63.5t77 -26.5h35q41 0 65 26.5t16 63.5l-79 369h148l79 -369
q4 -18 4 -50q40 -40 99 -40h37q44 0 73.5 28t22.5 62l-107 501q-24 111 -226 113l-31 148q202 0 165 173l-25 115h148l25 -115q20 -90 0 -163z" />
    <glyph glyph-name="lochulathai" unicode="&#xe2c;" horiz-adv-x="1138" 
d="M781 997v-1q-12 -42 -41 -76q106 -68 133 -193l107 -502q21 -99 -41.5 -168t-171.5 -69h-37q-101 0 -183 58q-61 -58 -149 -58h-35q-102 0 -189.5 69t-108.5 168l-169 800h146l170 -800q7 -37 43 -63.5t77 -26.5h35q41 0 65 26.5t16 63.5l-79 369h148l79 -369
q4 -18 4 -50q40 -40 99 -40h37q44 0 73.5 28t22.5 62l-107 501q-24 111 -226 113l-31 148q202 0 165 173l-25 115h148l25 -115q20 -90 0 -163z" />
    <glyph glyph-name="oangthai" unicode="&#xcd;" horiz-adv-x="1027" 
d="M589 951q147 -87 176 -226l90 -422q19 -89 -17.5 -162t-113.5 -113.5t-176 -40.5h-60q-153 0 -283 90.5t-159 225.5l-50 240h145l51 -240q15 -67 91.5 -118t173.5 -51h60q96 0 150.5 50.5t39.5 118.5l-90 422q-13 64 -99 111.5t-220 47.5q-154 0 -332 -78l-83 138
q205 89 383 89q185 0 323 -82z" />
    <glyph glyph-name="oangthai" unicode="&#xe2d;" horiz-adv-x="1027" 
d="M589 951q147 -87 176 -226l90 -422q19 -89 -17.5 -162t-113.5 -113.5t-176 -40.5h-60q-153 0 -283 90.5t-159 225.5l-50 240h145l51 -240q15 -67 91.5 -118t173.5 -51h60q96 0 150.5 50.5t39.5 118.5l-90 422q-13 64 -99 111.5t-220 47.5q-154 0 -332 -78l-83 138
q205 89 383 89q185 0 323 -82z" />
    <glyph glyph-name="honokhukthai" unicode="&#xce;" horiz-adv-x="1027" 
d="M686 1100q22 -105 -53 -180q109 -82 132 -195l90 -423q19 -88 -17.5 -161t-113.5 -114t-176 -41h-60q-152 0 -282.5 91t-159.5 225l-50 241h146l51 -240q16 -69 91.5 -119t172.5 -50h60q95 0 150 50.5t40 117.5l-90 423q-13 63 -98.5 111t-220.5 48q-154 0 -332 -78
l-84 138q207 89 384 89q101 0 206 -31q33 14 56.5 41.5t9.5 56.5h148z" />
    <glyph glyph-name="honokhukthai" unicode="&#xe2e;" horiz-adv-x="1027" 
d="M686 1100q22 -105 -53 -180q109 -82 132 -195l90 -423q19 -88 -17.5 -161t-113.5 -114t-176 -41h-60q-152 0 -282.5 91t-159.5 225l-50 241h146l51 -240q16 -69 91.5 -119t172.5 -50h60q95 0 150 50.5t40 117.5l-90 423q-13 63 -98.5 111t-220.5 48q-154 0 -332 -78
l-84 138q207 89 384 89q101 0 206 -31q33 14 56.5 41.5t9.5 56.5h148z" />
    <glyph glyph-name="paiyannoithai" unicode="&#xcf;" horiz-adv-x="973" 
d="M544 1028h100l192 -905q14 -113 -23 -113h-100l-129 609q-156 -96 -315 -98q-144 0 -241 76h1q-96 72 -122 189q-30 148 86 288l125 -109q-81 -98 -64 -179q10 -48 50 -80q49 -37 133 -37q148 0 310 122l-26 124q-13 113 23 113z" />
    <glyph glyph-name="paiyannoithai" unicode="&#xe2f;" horiz-adv-x="973" 
d="M544 1028h100l192 -905q14 -113 -23 -113h-100l-129 609q-156 -96 -315 -98q-144 0 -241 76h1q-96 72 -122 189q-30 148 86 288l125 -109q-81 -98 -64 -179q10 -48 50 -80q49 -37 133 -37q148 0 310 122l-26 124q-13 113 23 113z" />
    <glyph glyph-name="saraathai" unicode="&#xd0;" horiz-adv-x="574" 
d="M336 754l21 -100h-307q-99 15 -106 49l-22 100h306q100 -13 108 -49zM428 321l21 -99h-307q-99 11 -107 48l-22 100h307q101 -16 108 -49z" />
    <glyph glyph-name="saraathai" unicode="&#xe30;" horiz-adv-x="574" 
d="M336 754l21 -100h-307q-99 15 -106 49l-22 100h306q100 -13 108 -49zM428 321l21 -99h-307q-99 11 -107 48l-22 100h307q101 -16 108 -49z" />
    <glyph glyph-name="maihanakatthai" unicode="&#xd1;" 
d="M-741 1305l432 2l32 -151h-579l-59 278h108q34 0 56 -82z" />
    <glyph glyph-name="maihanakatthai" unicode="&#xe31;" 
d="M-741 1305l432 2l32 -151h-579l-59 278h108q34 0 56 -82z" />
    <glyph glyph-name="saraaathai" unicode="&#xd2;" horiz-adv-x="836" 
d="M580 724l154 -724h-148l-154 724q-15 68 -84.5 116t-178.5 48q-122 0 -287 -83l-89 135q190 97 344 97q166 0 290 -89.5t153 -223.5z" />
    <glyph glyph-name="saraaathai" unicode="&#xe32;" horiz-adv-x="836" 
d="M580 724l154 -724h-148l-154 724q-15 68 -84.5 116t-178.5 48q-122 0 -287 -83l-89 135q190 97 344 97q166 0 290 -89.5t153 -223.5z" />
    <glyph glyph-name="saraamthai" unicode="&#xd3;" horiz-adv-x="847" 
d="M586 724l154 -724h-148l-154 724q-15 68 -84.5 116t-178.5 48q-124 0 -287 -83l-89 135q190 97 344 97q166 0 290 -89.5t153 -223.5zM-606 1441q72 0 135.5 -52.5t79.5 -124.5q16 -74 -25.5 -125.5t-114.5 -51.5q-75 0 -136.5 51t-77.5 126q-16 73 24.5 125t114.5 52z
M-555 1202q25 0 38.5 18t8.5 44q-5 25 -26.5 42.5t-46.5 17.5t-38.5 -17t-8.5 -43t26.5 -44t46.5 -18z" />
    <glyph glyph-name="saraamthai" unicode="&#xe33;" horiz-adv-x="847" 
d="M586 724l154 -724h-148l-154 724q-15 68 -84.5 116t-178.5 48q-124 0 -287 -83l-89 135q190 97 344 97q166 0 290 -89.5t153 -223.5zM-606 1441q72 0 135.5 -52.5t79.5 -124.5q16 -74 -25.5 -125.5t-114.5 -51.5q-75 0 -136.5 51t-77.5 126q-16 73 24.5 125t114.5 52z
M-555 1202q25 0 38.5 18t8.5 44q-5 25 -26.5 42.5t-46.5 17.5t-38.5 -17t-8.5 -43t26.5 -44t46.5 -18z" />
    <glyph glyph-name="saraithai" unicode="&#xd4;" 
d="M-488 1304q104 -14 111 -49l21 -99h-806l-21 99q-4 20 18 31t71 18h606z" />
    <glyph glyph-name="saraithai" unicode="&#xe34;" 
d="M-488 1304q104 -14 111 -49l21 -99h-806l-21 99q-4 20 18 31t71 18h606z" />
    <glyph glyph-name="saraiithai" unicode="&#xd5;" 
d="M-503 1376h100l47 -220h-806l-21 99q-4 20 17 31t69 18h564q0 72 30 72z" />
    <glyph glyph-name="saraiithai" unicode="&#xe35;" 
d="M-503 1376h100l47 -220h-806l-21 99q-4 20 17 31t69 18h564q0 72 30 72z" />
    <glyph glyph-name="sarauethai" unicode="&#xd6;" 
d="M-506 1407q51 0 96.5 -37t56.5 -89q11 -51 -18.5 -88t-80.5 -37h-709l-21 99q-4 20 17.5 31t70.5 18h485q-1 45 27.5 74t75.5 29z" />
    <glyph glyph-name="sarauethai" unicode="&#xe36;" 
d="M-506 1407q51 0 96.5 -37t56.5 -89q11 -51 -18.5 -88t-80.5 -37h-709l-21 99q-4 20 17.5 31t70.5 18h485q-1 45 27.5 74t75.5 29z" />
    <glyph glyph-name="saraueethai" unicode="&#xd7;" 
d="M-404 1374l47 -218h-799l-21 98q-4 19 17.5 30t69.5 18h327q-3 72 27 72h99l16 -72h90q-3 72 28 72h99z" />
    <glyph glyph-name="saraueethai" unicode="&#xe37;" 
d="M-404 1374l47 -218h-799l-21 98q-4 19 17.5 30t69.5 18h327q-3 72 27 72h99l16 -72h90q-3 72 28 72h99z" />
    <glyph glyph-name="sarauthai" unicode="&#xd8;" 
d="M-443 -140h194l67 -312h-144l-27 123q-1 15 -1 41h-57z" />
    <glyph glyph-name="sarauthai" unicode="&#xe38;" 
d="M-443 -140h194l67 -312h-144l-27 123q-1 15 -1 41h-57z" />
    <glyph glyph-name="sarauuthai" unicode="&#xd9;" 
d="M-221 -135h138l31 -144q11 -54 -14.5 -96.5t-69.5 -62.5t-92 -20q-72 0 -149 45t-96 119q0 2 -0.5 6t-0.5 5h-50l-32 148h185l32 -148q4 -13 36 -30.5t48 -17.5q17 0 42.5 18t22.5 34z" />
    <glyph glyph-name="sarauuthai" unicode="&#xe39;" 
d="M-221 -135h138l31 -144q11 -54 -14.5 -96.5t-69.5 -62.5t-92 -20q-72 0 -149 45t-96 119q0 2 -0.5 6t-0.5 5h-50l-32 148h185l32 -148q4 -13 36 -30.5t48 -17.5q17 0 42.5 18t22.5 34z" />
    <glyph glyph-name="phinthuthai" unicode="&#xda;" 
d="M-169 -254q10 -48 -16.5 -81t-73.5 -33q-48 0 -87.5 33t-50.5 81q-10 48 15.5 81t73.5 33q47 0 88 -33.5t51 -80.5z" />
    <glyph glyph-name="phinthuthai" unicode="&#xe3a;" 
d="M-169 -254q10 -48 -16.5 -81t-73.5 -33q-48 0 -87.5 33t-50.5 81q-10 48 15.5 81t73.5 33q47 0 88 -33.5t51 -80.5z" />
    <glyph glyph-name="nptp3.001march2007p" unicode="&#xdb;" 
 />
    <glyph glyph-name="nptp3.001march2007p" unicode="&#xe3b;" 
 />
    <glyph glyph-name="nptp3.001march2007u" unicode="&#xdc;" 
 />
    <glyph glyph-name="nptp3.001march2007u" unicode="&#xe3c;" 
 />
    <glyph glyph-name="nptp3.001march2007c" unicode="&#xdd;" 
 />
    <glyph glyph-name="nptp3.001march2007c" unicode="&#xe3d;" 
 />
    <glyph glyph-name="bahtthai" unicode="&#xdf;" horiz-adv-x="1261" 
d="M241 1288h147l29 -136q82 -2 134 -7q139 -17 213.5 -91t105.5 -221q27 -129 -16 -194q68 -37 106 -104t60 -170q13 -61 16.5 -110t-3.5 -86t-20 -64t-39.5 -45.5t-54.5 -30t-71.5 -18t-85 -9t-100.5 -2.5l25 -120h-147l-25 120q-59 0 -185.5 0.5t-181.5 0.5l-243 1151
h365zM873 366q-7 34 -14.5 58t-21 43.5t-24.5 32t-35 21.5t-43 13.5t-57.5 7t-68.5 3t-87 0.5h-342l84 -397q57 1 158 2.5t184.5 2.5t157.5 1q34 4 55.5 10.5t38.5 20.5t23 36.5t4.5 57.5t-12.5 85v2zM82 1006l66 -313q62 0 186 -0.5t187 -0.5q139 0 186 30q35 22 15 112
q-9 42 -19 69t-29 47t-39.5 30.5t-61 16.5t-81 7.5t-111.5 1.5h-299z" />
    <glyph glyph-name="bahtthai" unicode="&#xe3f;" horiz-adv-x="1261" 
d="M241 1288h147l29 -136q82 -2 134 -7q139 -17 213.5 -91t105.5 -221q27 -129 -16 -194q68 -37 106 -104t60 -170q13 -61 16.5 -110t-3.5 -86t-20 -64t-39.5 -45.5t-54.5 -30t-71.5 -18t-85 -9t-100.5 -2.5l25 -120h-147l-25 120q-59 0 -185.5 0.5t-181.5 0.5l-243 1151
h365zM873 366q-7 34 -14.5 58t-21 43.5t-24.5 32t-35 21.5t-43 13.5t-57.5 7t-68.5 3t-87 0.5h-342l84 -397q57 1 158 2.5t184.5 2.5t157.5 1q34 4 55.5 10.5t38.5 20.5t23 36.5t4.5 57.5t-12.5 85v2zM82 1006l66 -313q62 0 186 -0.5t187 -0.5q139 0 186 30q35 22 15 112
q-9 42 -19 69t-29 47t-39.5 30.5t-61 16.5t-81 7.5t-111.5 1.5h-299z" />
    <glyph glyph-name="saraethai" unicode="&#xe0;" horiz-adv-x="377" 
d="M124 0l-215 1015h148l216 -1015h-149z" />
    <glyph glyph-name="saraethai" unicode="&#xe40;" horiz-adv-x="377" 
d="M124 0l-215 1015h148l216 -1015h-149z" />
    <glyph glyph-name="saraaethai" unicode="&#xe1;" horiz-adv-x="702" 
d="M121 0l-215 1015h147l216 -1015h-148zM450 0l-216 1015h149l216 -1015h-149z" />
    <glyph glyph-name="saraaethai" unicode="&#xe41;" horiz-adv-x="702" 
d="M121 0l-215 1015h147l216 -1015h-148zM450 0l-216 1015h149l216 -1015h-149z" />
    <glyph glyph-name="saraothai" unicode="&#xe2;" horiz-adv-x="417" 
d="M162 1523l31 -149h-243q84 -92 114 -227l243 -1146h-149l-247 1162q-30 144 -201 221l-29 139h481z" />
    <glyph glyph-name="saraothai" unicode="&#xe42;" horiz-adv-x="417" 
d="M162 1523l31 -149h-243q84 -92 114 -227l243 -1146h-149l-247 1162q-30 144 -201 221l-29 139h481z" />
    <glyph glyph-name="saraaimaimuanthai" unicode="&#xe3;" horiz-adv-x="509" 
d="M127 1465q86 -66 107 -166l21 -98l-69 -222l209 -979h-148l-212 996l66 226l-17 77q-7 34 -38 58.5t-70 24.5h-34q-39 0 -58.5 -33t-9.5 -79h-150q-24 110 31.5 185.5t154.5 75.5h34q98 0 183 -66z" />
    <glyph glyph-name="saraaimaimuanthai" unicode="&#xe43;" horiz-adv-x="509" 
d="M127 1465q86 -66 107 -166l21 -98l-69 -222l209 -979h-148l-212 996l66 226l-17 77q-7 34 -38 58.5t-70 24.5h-34q-39 0 -58.5 -33t-9.5 -79h-150q-24 110 31.5 185.5t154.5 75.5h34q98 0 183 -66z" />
    <glyph glyph-name="saraaimaimalaithai" unicode="&#xe4;" horiz-adv-x="470" 
d="M139 1518l7 -36q7 -28 6 -87l-5 -410l210 -985h-150l-210 992l4 268q-18 -3 -38 -3h-33q-100 0 -187.5 75.5t-110.5 185.5h150q9 -45 42.5 -78t73.5 -33h33q29 0 50.5 12.5t20.5 32.5l1 66h136z" />
    <glyph glyph-name="saraaimaimalaithai" unicode="&#xe44;" horiz-adv-x="470" 
d="M139 1518l7 -36q7 -28 6 -87l-5 -410l210 -985h-150l-210 992l4 268q-18 -3 -38 -3h-33q-100 0 -187.5 75.5t-110.5 185.5h150q9 -45 42.5 -78t73.5 -33h33q29 0 50.5 12.5t20.5 32.5l1 66h136z" />
    <glyph glyph-name="lakkhangyaothai" unicode="&#xe5;" horiz-adv-x="864" 
d="M605 714l242 -1142h-146l-242 1141q-16 67 -85 115t-177 48q-123 0 -281 -83l-91 134q185 96 341 96q166 0 288.5 -89.5t150.5 -219.5z" />
    <glyph glyph-name="lakkhangyaothai" unicode="&#xe45;" horiz-adv-x="864" 
d="M605 714l242 -1142h-146l-242 1141q-16 67 -85 115t-177 48q-123 0 -281 -83l-91 134q185 96 341 96q166 0 288.5 -89.5t150.5 -219.5z" />
    <glyph glyph-name="maiyamokthai" unicode="&#xe6;" horiz-adv-x="1102" 
d="M590 932q144 -110 177 -266l232 -1094h-146l-232 1094q-12 56 -53.5 105.5t-102.5 82.5q-21 -12 -65 -37.5t-61 -35.5l-156 74q-46 -34 -66.5 -83.5t-8.5 -105.5l39 -184h-100q-34 0 -67 97l-18 87q-25 117 28.5 213t160.5 139l153 -72q5 3 123 71q94 -31 163 -85z" />
    <glyph glyph-name="maiyamokthai" unicode="&#xe46;" horiz-adv-x="1102" 
d="M590 932q144 -110 177 -266l232 -1094h-146l-232 1094q-12 56 -53.5 105.5t-102.5 82.5q-21 -12 -65 -37.5t-61 -35.5l-156 74q-46 -34 -66.5 -83.5t-8.5 -105.5l39 -184h-100q-34 0 -67 97l-18 87q-25 117 28.5 213t160.5 139l153 -72q5 3 123 71q94 -31 163 -85z" />
    <glyph glyph-name="maitaikhuthai" unicode="&#xe7;" 
d="M-817 1381q-6 -8 -4 -23l16 -78q8 -30 50 -30q14 0 24 4q-4 27 -5 32h147l8 -37q10 -4 23 -4q20 0 30.5 17t4.5 49h145q21 -99 -26 -155.5t-123 -56.5q-58 0 -106 26q-35 -21 -91 -21q-75 0 -142 45.5t-84 129.5l-18 82q-17 80 27.5 126t115.5 48h456l31 -147h-455
q-15 0 -24 -7z" />
    <glyph glyph-name="maitaikhuthai" unicode="&#xe47;" 
d="M-817 1381q-6 -8 -4 -23l16 -78q8 -30 50 -30q14 0 24 4q-4 27 -5 32h147l8 -37q10 -4 23 -4q20 0 30.5 17t4.5 49h145q21 -99 -26 -155.5t-123 -56.5q-58 0 -106 26q-35 -21 -91 -21q-75 0 -142 45.5t-84 129.5l-18 82q-17 80 27.5 126t115.5 48h456l31 -147h-455
q-15 0 -24 -7z" />
    <glyph glyph-name="maiekthai" unicode="&#xe8;" 
d="M-496 1827l71 -331h-147l-71 331h147z" />
    <glyph glyph-name="maiekthai" unicode="&#xe48;" 
d="M-496 1827l71 -331h-147l-71 331h147z" />
    <glyph glyph-name="maithothai" unicode="&#xe9;" 
d="M-818 1646h435l31 -146h-580l-23 108q0 4 -0.5 11t-1.5 11h-50l-31 146h192z" />
    <glyph glyph-name="maithothai" unicode="&#xe49;" 
d="M-818 1646h435l31 -146h-580l-23 108q0 4 -0.5 11t-1.5 11h-50l-31 146h192z" />
    <glyph glyph-name="maitrithai" unicode="&#xea;" 
d="M-431 1808l25 -119q16 -74 -18.5 -132t-112.5 -89h-69q-35 0 -65 92l-5 23q-11 51 -58 78q-78 -36 -90 -42l-106 42q-35 -32 -25 -78l24 -115h-94q-33 0 -65 95l-4 20q-16 75 22.5 142.5t104.5 84.5l110 -39q22 10 88 42q28 -8 29 -9q63 -24 112.5 -69.5t74.5 -102.5
q20 24 12 57l-25 119h135z" />
    <glyph glyph-name="maitrithai" unicode="&#xe4a;" 
d="M-431 1808l25 -119q16 -74 -18.5 -132t-112.5 -89h-69q-35 0 -65 92l-5 23q-11 51 -58 78q-78 -36 -90 -42l-106 42q-35 -32 -25 -78l24 -115h-94q-33 0 -65 95l-4 20q-16 75 22.5 142.5t104.5 84.5l110 -39q22 10 88 42q28 -8 29 -9q63 -24 112.5 -69.5t74.5 -102.5
q20 24 12 57l-25 119h135z" />
    <glyph glyph-name="maichattawathai" unicode="&#xeb;" 
d="M-471 1745l31 -147h-102l22 -102h-147l-22 102h-102l-31 147h102l-22 101h109q14 0 29.5 -22t25.5 -59l5 -20h102z" />
    <glyph glyph-name="maichattawathai" unicode="&#xe4b;" 
d="M-471 1745l31 -147h-102l22 -102h-147l-22 102h-102l-31 147h102l-22 101h109q14 0 29.5 -22t25.5 -59l5 -20h102z" />
    <glyph glyph-name="thanthakhatthai" unicode="&#xec;" 
d="M-342 1553l-400 -34q6 -37 1.5 -58.5t-23.5 -21.5h-107l-46 216l532 45z" />
    <glyph glyph-name="thanthakhatthai" unicode="&#xe4c;" 
d="M-342 1553l-400 -34q6 -37 1.5 -58.5t-23.5 -21.5h-107l-46 216l532 45z" />
    <glyph glyph-name="nikhahitthai" unicode="&#xed;" 
d="M-633 1447q72 0 135.5 -52.5t79.5 -124.5q16 -74 -25.5 -125.5t-114.5 -51.5q-75 0 -136.5 51t-77.5 126q-16 73 24.5 125t114.5 52zM-582 1208q25 0 38.5 18t8.5 44q-6 25 -27 42.5t-46 17.5q-26 0 -39.5 -17.5t-7.5 -42.5q5 -26 26.5 -44t46.5 -18z" />
    <glyph glyph-name="nikhahitthai" unicode="&#xe4d;" 
d="M-633 1447q72 0 135.5 -52.5t79.5 -124.5q16 -74 -25.5 -125.5t-114.5 -51.5q-75 0 -136.5 51t-77.5 126q-16 73 24.5 125t114.5 52zM-582 1208q25 0 38.5 18t8.5 44q-6 25 -27 42.5t-46 17.5q-26 0 -39.5 -17.5t-7.5 -42.5q5 -26 26.5 -44t46.5 -18z" />
    <glyph glyph-name="yamakkanthai" unicode="&#xee;" 
d="M-810 1270q-18 85 58 142q-17 21 -23 50q-17 77 57.5 134.5t178.5 57.5q70 0 190 -40l28 -129q-37 9 -76.5 21t-63 17.5t-51.5 5.5q-48 0 -95.5 -21.5t-42.5 -45.5l57 -13l49 -15l22 -106h-49q-4 0 -18.5 1t-17.5 1q-28 0 -55 -22t-23 -38q4 -18 25.5 -30t51.5 -12
q42 0 60.5 17.5t32.5 60.5h128l-18 -96q-33 -107 -176 -107q-85 0 -149.5 48t-79.5 119z" />
    <glyph glyph-name="yamakkanthai" unicode="&#xe4e;" 
d="M-810 1270q-18 85 58 142q-17 21 -23 50q-17 77 57.5 134.5t178.5 57.5q70 0 190 -40l28 -129q-37 9 -76.5 21t-63 17.5t-51.5 5.5q-48 0 -95.5 -21.5t-42.5 -45.5l57 -13l49 -15l22 -106h-49q-4 0 -18.5 1t-17.5 1q-28 0 -55 -22t-23 -38q4 -18 25.5 -30t51.5 -12
q42 0 60.5 17.5t32.5 60.5h128l-18 -96q-33 -107 -176 -107q-85 0 -149.5 48t-79.5 119z" />
    <glyph glyph-name="fongmanthai" unicode="&#xef;" horiz-adv-x="862" 
d="M366 243q-121 0 -224.5 86.5t-129.5 206.5q-25 122 42.5 207t187.5 85q119 0 223.5 -84.5t131.5 -207.5q26 -122 -41.5 -207.5t-189.5 -85.5z" />
    <glyph glyph-name="fongmanthai" unicode="&#xe4f;" horiz-adv-x="862" 
d="M366 243q-121 0 -224.5 86.5t-129.5 206.5q-25 122 42.5 207t187.5 85q119 0 223.5 -84.5t131.5 -207.5q26 -122 -41.5 -207.5t-189.5 -85.5z" />
    <glyph glyph-name="zerothai" unicode="&#xf0;" horiz-adv-x="1103" 
d="M673 829q66 -40 111.5 -97t59.5 -123l63 -296q18 -86 -22.5 -155.5t-121.5 -106.5t-184 -37h-63q-159 0 -294 84.5t-163 214.5l-62 296q-18 86 22.5 155.5t121.5 106.5t184 37h63q157 0 285 -79zM761 313l-63 296q-12 59 -93 105.5t-185 46.5h-63q-105 0 -165.5 -46
t-48.5 -106l63 -296q12 -60 92.5 -106.5t185.5 -46.5h63q104 0 165 47t49 106z" />
    <glyph glyph-name="zerothai" unicode="&#xe50;" horiz-adv-x="1103" 
d="M673 829q66 -40 111.5 -97t59.5 -123l63 -296q18 -86 -22.5 -155.5t-121.5 -106.5t-184 -37h-63q-159 0 -294 84.5t-163 214.5l-62 296q-18 86 22.5 155.5t121.5 106.5t184 37h63q157 0 285 -79zM761 313l-63 296q-12 59 -93 105.5t-185 46.5h-63q-105 0 -165.5 -46
t-48.5 -106l63 -296q12 -60 92.5 -106.5t185.5 -46.5h63q104 0 165 47t49 106z" />
    <glyph glyph-name="onethai" unicode="&#xf1;" horiz-adv-x="1108" 
d="M676 833q66 -40 112 -97t60 -123l63 -297q28 -130 -79 -216t-291 -86t-416 99l34 132q203 -85 350 -85q131 0 199.5 48.5t56.5 107.5l-63 297q-12 59 -93 105.5t-185 46.5h-64q-104 0 -165 -46.5t-49 -105.5l16 -75h72l21 -99q4 -17 -19 -29.5t-69 -17.5h-120l-47 221
q-26 129 72.5 214t256.5 85h64q154 0 283 -79z" />
    <glyph glyph-name="onethai" unicode="&#xe51;" horiz-adv-x="1108" 
d="M676 833q66 -40 112 -97t60 -123l63 -297q28 -130 -79 -216t-291 -86t-416 99l34 132q203 -85 350 -85q131 0 199.5 48.5t56.5 107.5l-63 297q-12 59 -93 105.5t-185 46.5h-64q-104 0 -165 -46.5t-49 -105.5l16 -75h72l21 -99q4 -17 -19 -29.5t-69 -17.5h-120l-47 221
q-26 129 72.5 214t256.5 85h64q154 0 283 -79z" />
    <glyph glyph-name="twothai" unicode="&#xf2;" horiz-adv-x="1278" 
d="M883 794l1 -1q102 -79 127 -191l54 -257q30 -141 -65.5 -236t-255.5 -95h-223q-104 0 -203 42.5t-169.5 119t-90.5 169.5l-147 697h98q20 0 36 -27.5t36 -84.5l124 -585q16 -74 98 -129.5t186 -55.5h223q104 0 163 55.5t43 129.5q-10 46 -27.5 132.5t-25.5 124.5
q-10 45 -57 83q-6 5 -18 10q-20 -5 -81 -21t-92 -25l-190 46q-44 -37 -32 -93l26 -124h-148l-26 124q-18 84 23 158t113 93l201 -45q28 7 88 23.5t89 23.5q72 -26 122 -61z" />
    <glyph glyph-name="twothai" unicode="&#xe52;" horiz-adv-x="1278" 
d="M883 794l1 -1q102 -79 127 -191l54 -257q30 -141 -65.5 -236t-255.5 -95h-223q-104 0 -203 42.5t-169.5 119t-90.5 169.5l-147 697h98q20 0 36 -27.5t36 -84.5l124 -585q16 -74 98 -129.5t186 -55.5h223q104 0 163 55.5t43 129.5q-10 46 -27.5 132.5t-25.5 124.5
q-10 45 -57 83q-6 5 -18 10q-20 -5 -81 -21t-92 -25l-190 46q-44 -37 -32 -93l26 -124h-148l-26 124q-18 84 23 158t113 93l201 -45q28 7 88 23.5t89 23.5q72 -26 122 -61z" />
    <glyph glyph-name="threethai" unicode="&#xf3;" horiz-adv-x="1226" 
d="M793 778v-1q75 -59 126.5 -136t68.5 -158l97 -455h-147l-97 455q-14 67 -63 125t-124 96q-79 -36 -178 -82l-213 83q-59 -37 -82 -95.5t-9 -126.5q4 -18 11.5 -55.5t11.5 -56.5q12 -61 46.5 -105.5t83 -66.5t97 -32t101.5 -10l31 -146q-57 0 -113 9t-120.5 34t-116 63.5
t-94.5 104t-61 149.5l-25 112q-26 123 30.5 230t177.5 155l211 -81q65 32 173 81q100 -33 177 -90z" />
    <glyph glyph-name="threethai" unicode="&#xe53;" horiz-adv-x="1226" 
d="M793 778v-1q75 -59 126.5 -136t68.5 -158l97 -455h-147l-97 455q-14 67 -63 125t-124 96q-79 -36 -178 -82l-213 83q-59 -37 -82 -95.5t-9 -126.5q4 -18 11.5 -55.5t11.5 -56.5q12 -61 46.5 -105.5t83 -66.5t97 -32t101.5 -10l31 -146q-57 0 -113 9t-120.5 34t-116 63.5
t-94.5 104t-61 149.5l-25 112q-26 123 30.5 230t177.5 155l211 -81q65 32 173 81q100 -33 177 -90z" />
    <glyph glyph-name="fourthai" unicode="&#xf4;" horiz-adv-x="1098" 
d="M191 641q-55 -55 -40 -126l36 -170q15 -73 98.5 -129t186.5 -56l32 1q111 0 152 34q-33 65 -60 188h147q14 -67 28.5 -104.5t41.5 -64.5t67.5 -36.5t106.5 -9.5l31 -148q-171 3 -253 53q-75 -59 -229 -59h-32q-105 0 -204 42.5t-169 119t-90 169.5l-36 170
q-29 140 66 236t255 96h168q104 0 163 54.5t44 128.5l-22 100h147l22 -100q20 -92 -18.5 -168t-119 -119t-184.5 -43h-168q-108 0 -167 -59z" />
    <glyph glyph-name="fourthai" unicode="&#xe54;" horiz-adv-x="1098" 
d="M191 641q-55 -55 -40 -126l36 -170q15 -73 98.5 -129t186.5 -56l32 1q111 0 152 34q-33 65 -60 188h147q14 -67 28.5 -104.5t41.5 -64.5t67.5 -36.5t106.5 -9.5l31 -148q-171 3 -253 53q-75 -59 -229 -59h-32q-105 0 -204 42.5t-169 119t-90 169.5l-36 170
q-29 140 66 236t255 96h168q104 0 163 54.5t44 128.5l-22 100h147l22 -100q20 -92 -18.5 -168t-119 -119t-184.5 -43h-168q-108 0 -167 -59z" />
    <glyph glyph-name="fivethai" unicode="&#xf5;" horiz-adv-x="1098" 
d="M191 641q-54 -55 -39 -125l36 -171q16 -74 98.5 -129t185.5 -55h32q116 0 152 34q-33 66 -59 188h146q14 -66 28 -102.5t41 -64.5t67.5 -38t107.5 -10l31 -146q-171 0 -254 51q-79 -59 -228 -59h-32q-103 0 -202 42.5t-170 119t-91 169.5l-36 171q-26 126 48.5 215.5
t208.5 109.5q-10 21 -14 43q-16 72 24.5 124t114.5 52q73 0 136 -52t79 -124q2 -12 4 -9q0 -3 -1 -7q57 23 82 66.5t14 95.5l-22 100h147l22 -100q29 -140 -67 -235t-254 -95h-169q-106 0 -167 -59zM411 951q-26 0 -41 -19.5t-10 -45.5q6 -26 29.5 -45t49.5 -19t41 19t9 45
q-5 26 -28.5 45.5t-49.5 19.5z" />
    <glyph glyph-name="fivethai" unicode="&#xe55;" horiz-adv-x="1098" 
d="M191 641q-54 -55 -39 -125l36 -171q16 -74 98.5 -129t185.5 -55h32q116 0 152 34q-33 66 -59 188h146q14 -66 28 -102.5t41 -64.5t67.5 -38t107.5 -10l31 -146q-171 0 -254 51q-79 -59 -228 -59h-32q-103 0 -202 42.5t-170 119t-91 169.5l-36 171q-26 126 48.5 215.5
t208.5 109.5q-10 21 -14 43q-16 72 24.5 124t114.5 52q73 0 136 -52t79 -124q2 -12 4 -9q0 -3 -1 -7q57 23 82 66.5t14 95.5l-22 100h147l22 -100q29 -140 -67 -235t-254 -95h-169q-106 0 -167 -59zM411 951q-26 0 -41 -19.5t-10 -45.5q6 -26 29.5 -45t49.5 -19t41 19t9 45
q-5 26 -28.5 45.5t-49.5 19.5z" />
    <glyph glyph-name="sixthai" unicode="&#xf6;" horiz-adv-x="1092" 
d="M839 609l64 -296q18 -86 -22.5 -155.5t-122 -106.5t-183.5 -37h-64q-158 0 -293 84.5t-163 214.5l-26 124h146l26 -124q12 -60 93 -106t185 -46h64q104 0 165 46t48 106l-64 296q-13 60 -103 108.5t-219 48.5q-152 0 -313 -85l-235 343h159l108 -156q132 45 249 45
q116 0 222.5 -37t183 -107.5t95.5 -159.5z" />
    <glyph glyph-name="sixthai" unicode="&#xe56;" horiz-adv-x="1092" 
d="M839 609l64 -296q18 -86 -22.5 -155.5t-122 -106.5t-183.5 -37h-64q-158 0 -293 84.5t-163 214.5l-26 124h146l26 -124q12 -60 93 -106t185 -46h64q104 0 165 46t48 106l-64 296q-13 60 -103 108.5t-219 48.5q-152 0 -313 -85l-235 343h159l108 -156q132 45 249 45
q116 0 222.5 -37t183 -107.5t95.5 -159.5z" />
    <glyph glyph-name="seventhai" unicode="&#xf7;" horiz-adv-x="1466" 
d="M1000 1044h99l149 -705q12 -59 12.5 -106t-7 -79.5t-26 -55.5t-40 -37t-54 -21.5t-63 -10t-72.5 -2.5h-73l-97 455q-14 67 -63.5 126t-123.5 97q-32 -15 -94 -44t-83 -39l-213 83q-121 -76 -92 -223q4 -18 11.5 -55t11.5 -56q12 -62 47 -106.5t84 -66.5t97 -31.5
t100 -9.5l31 -147q-53 0 -106 8t-118.5 32t-118.5 62t-98 105t-64 154l-25 111q-27 125 29.5 230.5t177.5 156.5l211 -83q124 60 176 83q143 -51 243.5 -156.5t126.5 -230.5l65 -307q55 9 66.5 42t-9.5 141l-122 574q-13 112 25 112z" />
    <glyph glyph-name="seventhai" unicode="&#xe57;" horiz-adv-x="1466" 
d="M1000 1044h99l149 -705q12 -59 12.5 -106t-7 -79.5t-26 -55.5t-40 -37t-54 -21.5t-63 -10t-72.5 -2.5h-73l-97 455q-14 67 -63.5 126t-123.5 97q-32 -15 -94 -44t-83 -39l-213 83q-121 -76 -92 -223q4 -18 11.5 -55t11.5 -56q12 -62 47 -106.5t84 -66.5t97 -31.5
t100 -9.5l31 -147q-53 0 -106 8t-118.5 32t-118.5 62t-98 105t-64 154l-25 111q-27 125 29.5 230.5t177.5 156.5l211 -83q124 60 176 83q143 -51 243.5 -156.5t126.5 -230.5l65 -307q55 9 66.5 42t-9.5 141l-122 574q-13 112 25 112z" />
    <glyph glyph-name="eightthai" unicode="&#xf8;" horiz-adv-x="1155" 
d="M197 625q-55 -55 -40 -125l53 -250q8 -37 42.5 -63.5t75.5 -26.5h35q41 0 65 27t16 63l-17 81h146l17 -81q5 -24 5 -49q41 -41 97 -41h37q45 0 73.5 27.5t20.5 62.5l-40 192h147l40 -192q22 -99 -40 -167.5t-169 -68.5h-37q-43 0 -95.5 15t-88.5 41q-58 -56 -145 -56h-35
q-101 0 -188.5 68t-108.5 168l-53 250q-19 93 19.5 169.5t119.5 119t184 42.5h168q102 0 161 55t45 130l-21 98h146l21 -99q29 -141 -66.5 -236t-254.5 -95h-168q-108 0 -167 -59z" />
    <glyph glyph-name="eightthai" unicode="&#xe58;" horiz-adv-x="1155" 
d="M197 625q-55 -55 -40 -125l53 -250q8 -37 42.5 -63.5t75.5 -26.5h35q41 0 65 27t16 63l-17 81h146l17 -81q5 -24 5 -49q41 -41 97 -41h37q45 0 73.5 27.5t20.5 62.5l-40 192h147l40 -192q22 -99 -40 -167.5t-169 -68.5h-37q-43 0 -95.5 15t-88.5 41q-58 -56 -145 -56h-35
q-101 0 -188.5 68t-108.5 168l-53 250q-19 93 19.5 169.5t119.5 119t184 42.5h168q102 0 161 55t45 130l-21 98h146l21 -99q29 -141 -66.5 -236t-254.5 -95h-168q-108 0 -167 -59z" />
    <glyph glyph-name="ninethai" unicode="&#xf9;" horiz-adv-x="1079" 
d="M843 1037q23 -109 -31 -191.5t-159 -118.5q114 -109 148 -273q32 -149 75 -218t105 -77l11 -146q-78 11 -136 49t-96 101t-61.5 129.5t-42.5 157.5q-27 124 -100 185.5t-155 69.5h-47q-104 0 -164 -54.5t-43 -128.5l31 -145q27 -119 86.5 -161.5t156.5 -42.5h183l31 -145
h-229q-303 23 -375 349l-31 145q-30 140 66.5 235t255.5 95h167q104 0 163.5 55.5t43.5 129.5l-21 99h147z" />
    <glyph glyph-name="ninethai" unicode="&#xe59;" horiz-adv-x="1079" 
d="M843 1037q23 -109 -31 -191.5t-159 -118.5q114 -109 148 -273q32 -149 75 -218t105 -77l11 -146q-78 11 -136 49t-96 101t-61.5 129.5t-42.5 157.5q-27 124 -100 185.5t-155 69.5h-47q-104 0 -164 -54.5t-43 -128.5l31 -145q27 -119 86.5 -161.5t156.5 -42.5h183l31 -145
h-229q-303 23 -375 349l-31 145q-30 140 66.5 235t255.5 95h167q104 0 163.5 55.5t43.5 129.5l-21 99h147z" />
    <glyph glyph-name="angkhankhuthai" unicode="&#xfa;" horiz-adv-x="1235" 
d="M502 1018h99l191 -897q11 -112 -24 -112h-98l-129 604q-151 -95 -302 -97q-134 0 -229 75h1q-96 73 -120 188q-31 145 86 284l122 -107q-79 -98 -62 -177q11 -50 50 -80q45 -36 121 -36q138 0 297 121l-26 122q-13 112 23 112zM765 1018h99l191 -897q11 -112 -24 -112
h-99l-191 897q-11 112 24 112z" />
    <glyph glyph-name="angkhankhuthai" unicode="&#xe5a;" horiz-adv-x="1235" 
d="M502 1018h99l191 -897q11 -112 -24 -112h-98l-129 604q-151 -95 -302 -97q-134 0 -229 75h1q-96 73 -120 188q-31 145 86 284l122 -107q-79 -98 -62 -177q11 -50 50 -80q45 -36 121 -36q138 0 297 121l-26 122q-13 112 23 112zM765 1018h99l191 -897q11 -112 -24 -112
h-99l-191 897q-11 112 24 112z" />
    <glyph glyph-name="khomutthai" unicode="&#xfb;" horiz-adv-x="2147" 
d="M529 482q-41 -47 -110 -47q-61 0 -108.5 37t-59.5 90q-11 50 21 87.5t93 37.5q47 0 85 -23q-14 70 -66 107q-51 39 -115 39q-92 0 -136 -71t-20 -186q29 -144 124.5 -230.5t214.5 -86.5q138 0 206.5 119t29.5 306l-6 26l-11 39l37 44l206 -252l59 238l150 -210l60 172
l143 -170l68 129l119 -109l21 46h350l-60 -68h-218l-73 -88l-105 86l-76 -143l-127 147l-74 -188l-129 190l-53 -217l-177 211q8 -172 -84 -275.5t-241 -103.5q-150 0 -275 101.5t-167 259.5q-34 158 28.5 254.5t201.5 96.5q115 0 196.5 -65.5t103.5 -171.5q21 -97 -26 -158
zM328 562q6 -28 27 -45.5t47 -17.5q30 0 44 17.5t8 45.5t-27.5 45.5t-50.5 17.5q-26 0 -40 -18t-8 -45z" />
    <glyph glyph-name="khomutthai" unicode="&#xe5b;" horiz-adv-x="2147" 
d="M529 482q-41 -47 -110 -47q-61 0 -108.5 37t-59.5 90q-11 50 21 87.5t93 37.5q47 0 85 -23q-14 70 -66 107q-51 39 -115 39q-92 0 -136 -71t-20 -186q29 -144 124.5 -230.5t214.5 -86.5q138 0 206.5 119t29.5 306l-6 26l-11 39l37 44l206 -252l59 238l150 -210l60 172
l143 -170l68 129l119 -109l21 46h350l-60 -68h-218l-73 -88l-105 86l-76 -143l-127 147l-74 -188l-129 190l-53 -217l-177 211q8 -172 -84 -275.5t-241 -103.5q-150 0 -275 101.5t-167 259.5q-34 158 28.5 254.5t201.5 96.5q115 0 196.5 -65.5t103.5 -171.5q21 -97 -26 -158
zM328 562q6 -28 27 -45.5t47 -17.5q30 0 44 17.5t8 45.5t-27.5 45.5t-50.5 17.5q-26 0 -40 -18t-8 -45z" />
    <glyph glyph-name="saraulowthai" unicode="&#xfc;" 
d="M-366 -487h192l66 -309h-143l-26 121q-1 15 -1 41h-57z" />
    <glyph glyph-name="saraulowthai" unicode="&#xf718;" 
d="M-366 -487h192l66 -309h-143l-26 121q-1 15 -1 41h-57z" />
    <glyph glyph-name="sarauulowthai" unicode="&#xfd;" 
d="M-164 -487h136l29 -143q11 -53 -14.5 -95.5t-68.5 -62.5t-90 -20q-72 0 -148 45t-95 118q0 5 -2 11h-49l-31 147h183l31 -146q4 -14 36 -31.5t48 -17.5t42 18.5t23 33.5z" />
    <glyph glyph-name="sarauulowthai" unicode="&#xf719;" 
d="M-164 -487h136l29 -143q11 -53 -14.5 -95.5t-68.5 -62.5t-90 -20q-72 0 -148 45t-95 118q0 5 -2 11h-49l-31 147h183l31 -146q4 -14 36 -31.5t48 -17.5t42 18.5t23 33.5z" />
    <glyph glyph-name="phinthulowthai" unicode="&#xfe;" 
d="M-76 -596q10 -45 -16 -77t-70 -32q-45 0 -83 32t-48 77t14.5 77t70.5 32q44 0 83 -32t49 -77z" />
    <glyph glyph-name="phinthulowthai" unicode="&#xf71a;" 
d="M-76 -596q10 -45 -16 -77t-70 -32q-45 0 -83 32t-48 77t14.5 77t70.5 32q44 0 83 -32t49 -77z" />
    <glyph glyph-name="nptp3.001march2007r" unicode="&#xe3e;" 
 />
    <glyph glyph-name="ZWSP" unicode="&#x200b;" 
 />
    <glyph glyph-name="uni25CC" unicode="&#x25cc;" horiz-adv-x="1082" 
d="M464 341q37 0 70.5 -27t41.5 -65q7 -37 -14.5 -64t-58.5 -27q-39 0 -71 27t-40 64q-8 39 12.5 65.5t59.5 26.5zM714 664q39 0 72 -27t41 -64q9 -43 -10 -69t-63 -26q-38 0 -70 27t-41 68q-8 37 13 64t58 27zM72 664q35 0 69 -27.5t42 -63.5q9 -41 -12 -68t-59 -27
t-70.5 27t-41.5 68q-8 37 13.5 64t58.5 27zM327 985q37 0 70.5 -27t41.5 -65t-14 -64t-59 -26q-39 0 -71 26t-40 64q-8 39 12.5 65.5t59.5 26.5zM130 881q42 0 72.5 -24.5t40.5 -68.5q8 -39 -12.5 -65t-61.5 -26q-37 0 -69.5 26.5t-40.5 64.5q-9 43 12 68t59 25zM565 881
q37 0 70 -25.5t42 -67.5q8 -38 -13 -64.5t-60 -26.5q-37 0 -70 26.5t-41 64.5q-9 43 12 68t60 25zM658 445q36 0 69.5 -26.5t41.5 -64.5q8 -37 -12.5 -64t-59.5 -27q-37 0 -70.5 27t-41.5 64q-8 38 14 64.5t59 26.5zM223 445q41 0 72.5 -26t39.5 -65q8 -38 -12.5 -64.5
t-60.5 -26.5q-37 0 -70 27t-41 64q-8 38 13.5 64.5t58.5 26.5z" />
    <glyph glyph-name="Fontcraft" horiz-adv-x="1942" 
d="M680 -161q0 -5 -2 -23q-19 -75 -84 -75q-32 0 -46 17t-14 41q0 51 27.5 74t58.5 23q28 0 44 -15.5t16 -41.5zM648 -177q5 17 -2.5 29.5t-25.5 12.5q-25 0 -40 -20.5t-15 -49.5q0 -23 29 -23q40 0 54 51zM924 -108q6 0 11 -4.5t5 -9.5q0 -17 -16 -17h-26l-15 -60v-17
q0 -12 6 -12q2 0 7 1.5t7 1.5q16 0 16 -14q0 -18 -27 -18q-19 0 -30 12t-11 33q0 3 1.5 9.5t1.5 10.5l12 53h-16q-16 0 -16 17q0 14 16 14h22l11 52q0 12 15 12q6 0 10.5 -6t4.5 -13l-8 -45h19zM541 -122q0 -17 -16 -17h-22l-23 -106q-11 -59 -68 -59q-7 0 -12 4.5t-5 11.5
q0 9 7.5 12.5t17 3.5t18.5 7.5t11 25.5l21 100h-18q-7 0 -12 5t-5 12q0 5 5 9.5t12 4.5h24l5 24q5 26 23.5 42t46.5 16q6 0 10.5 -4.5t4.5 -10.5q0 -11 -7 -14t-16 -1.5t-18.5 -6t-13.5 -26.5l-3 -19h17q16 0 16 -14zM817 -130q4 -8 4 -20q0 -2 -0.5 -5t-0.5 -6l-18 -84
q-5 -14 -16 -14q-6 0 -10.5 5t-4.5 11q0 3 1 4l17 85v0q0 8 -1.5 12t-5 6t-3.5 3q-25 0 -49 -23l-20 -89q-2 -14 -16 -14q-6 0 -10 5t-4 11v4l27 123q3 12 14 12q6 0 11 -4t5 -8h1q24 11 34 12q37 0 45 -26zM1510 -108q6 0 10 -4.5t4 -9.5q0 -17 -14 -17h-29l-12 -60
q-2 -9 -2 -17q0 -12 7 -12q3 0 7.5 1.5t6.5 1.5q16 0 16 -15q0 -17 -27 -17q-17 0 -29 12t-12 33q0 3 0.5 6t1.5 7.5t1 6.5l11 53h-43l-22 -106q-13 -59 -69 -59q-6 0 -10.5 4.5t-4.5 11.5q0 10 7.5 13.5t17 3t18 7t10.5 25.5l22 100h-20q-14 0 -14 17q0 5 4.5 9.5t9.5 4.5
h27l2 24q13 58 71 58q14 0 14 -15q0 -9 -7 -12.5t-15.5 -3.5t-17.5 -8t-13 -24l-5 -19h44l6 20q0 11 14 11q15 0 15 -14l-1 -1q0 -2 -0.5 -6t-1.5 -10h22zM1198 -119q0 -6 -5.5 -10t-11.5 -4q-32 0 -38 -34l-17 -79q-2 -13 -14 -13q-7 0 -11.5 5t-4.5 11v4l16 78
q15 57 69 57q6 0 11.5 -4.5t5.5 -10.5zM1307 -229q-25 -27 -64 -27q-23 0 -39 15t-12 40q3 16 16.5 26.5t25 13t30.5 5.5q20 0 28 -1q0 1 1 5t1 5q0 15 -23 15q-3 0 -19.5 -3.5t-25.5 -3.5q-13 0 -13 9q0 14 21 21t44 7q48 0 48 -41q0 -2 -2 -8t-2 -8zM1278 -222l9 35
q-36 0 -51 -5t-16 -19q0 -17 33 -17q11 0 25 6zM1096 -133q0 -1 1 -4l1 -3q0 -6 -4 -11t-10 -5t-17 11.5t-27 11.5q-18 0 -34.5 -18.5t-16.5 -49.5q0 -27 30 -27q8 0 19.5 6t16.5 6q15 0 15 -17q0 -11 -17.5 -18.5t-33.5 -7.5q-31 0 -46 17.5t-15 40.5q0 47 25 72t57 25
q34 0 56 -29zM962 1146q155 0 288 -76t211 -209t78 -290q0 -156 -76.5 -288.5t-209.5 -210t-291 -77.5q-156 0 -288 76t-209.5 209t-77.5 291q0 156 77 288.5t209.5 209.5t288.5 77zM962 101q126 0 234.5 62.5t172.5 171t64 236.5q0 140 -77 258l-75 -326
q-12 -67 -73.5 -120.5t-136.5 -53.5q-71 0 -123 55q-68 -55 -139 -55t-115.5 47t-44.5 111q0 16 24 132q-20 -7 -39.5 11.5t-19.5 40.5q0 59 89 59q38 0 65.5 -17t21.5 -54l-34 -156q-4 -27 10 -47.5t43 -20.5q37 0 68 28t40 62l33 157q4 19 18.5 30.5t33.5 11.5
q21 0 36.5 -16t15.5 -37q0 -2 -35 -168q-5 -27 9 -47.5t43 -20.5q34 0 68 27.5t41 62.5l91 401q-132 114 -309 114q-127 0 -235.5 -62.5t-172 -171t-63.5 -235.5q0 -128 63.5 -236t172 -171t235.5 -63z" />
    <glyph glyph-name="lochula.short" horiz-adv-x="1138" 
d="M777 987v-1q-13 -46 -41 -75q106 -68 131 -191l106 -497q21 -98 -41 -166.5t-169 -68.5h-37q-99 0 -182 57q-57 -57 -147 -57h-35q-101 0 -187.5 68.5t-107.5 166.5l-167 792h145l168 -792q8 -37 43 -63t75 -26h35q41 0 64.5 26t15.5 63l-78 366h147l78 -366q4 -18 4 -50
q39 -39 98 -39h37q44 0 73.5 27.5t21.5 61.5l-105 496q-24 110 -225 112l-31 147q201 0 164 171l-24 114h146l24 -114q19 -89 1 -162z" />
    <glyph glyph-name="saraamleft" horiz-adv-x="857" 
d="M588 717l153 -717h-147l-153 717q-15 67 -84 115t-177 48q-121 0 -283 -83l-89 133q190 97 341 97q165 0 288 -89t151 -221zM-815 1441q72 0 135.5 -52.5t79.5 -124.5q16 -74 -25.5 -125.5t-114.5 -51.5q-75 0 -136.5 51t-77.5 126q-16 73 24.5 125t114.5 52zM-764 1202
q25 0 38.5 18t8.5 44q-5 25 -26.5 42.5t-46.5 17.5t-38.5 -17t-8.5 -43t26.5 -44t46.5 -18z" />
    <glyph glyph-name="yamakkanleftthai" 
d="M-994 1320q-18 85 59 142q-18 23 -24 50q-16 78 58 135t178 57q69 0 191 -40l27 -129q-37 9 -76.5 21t-63 17.5t-51.5 5.5q-48 0 -95.5 -21.5t-42.5 -45.5l57 -13l49 -15l23 -106h-49q-4 0 -19 1t-18 1q-28 0 -55 -22t-23 -38q4 -18 25.5 -30t52.5 -12q42 0 60 17.5
t32 60.5h128l-17 -96q-34 -107 -177 -107q-85 0 -149.5 48t-79.5 119z" />
    <glyph glyph-name="Naipol" 
d="M71 617q-1 -1 -3 -1v2q3 0 3 -1zM28 649q-2 -1 -9 -1q-10 0 -26 6l-14 2h-4q-4 -2 -5 -2q6 8 11 8q24 0 35 -5q1 0 2 -1q5 -2 10 -7zM87 710q0 -10 -3 -26.5t-7 -33.5t-5 -23l-3 5q-7 -5 -17.5 -28t-10.5 -27v79q-10 9 -18 50q-25 43 -83 43q-63 0 -80 -53l-25 -45v-89
h-8q-7 78 -17 97q-3 -10 -4 -15l-3 15q-3 -6 -3 -12q0 -5 5 -22t5 -23q-22 29 -22 99v21l16 26h4q2 0 2 1v7q25 8 29 54q4 2 10.5 4.5t10 4t6 4t2.5 5.5q8 0 12 4q8 -6 20 -6q0 6 13 13l9 -13q6 15 8 17h5q3 0 9 8q20 0 76 -14q5 -8 16.5 -16.5t17.5 -10.5q2 -14 17 -55
t16 -45zM15 629h-28q-4 0 -11 1t-9 1h-4l7 6q6 6 9 6q10 0 18 -2.5t11 -5t3 -3.5zM-14 624q-2 -2 -6 -2v2h6zM41 571v-4q0 -7 -5 -7q2 8 5 11zM-180 770q0 -1 -2 -1v2q2 0 2 -1zM-76 636q0 -3 -3 -3v7q3 0 3 -4zM-88 660q-3 -1 -8 -1q-34 0 -49 4l1 1l2 2q7 5 18 5
q18 0 36 -11zM-40 584l2 -2h-12l8 2h2zM-88 641l2 -5q0 -1 -3.5 -2.5t-9.5 -4t-12 -2.5l15 4l1 2l1 2h-2q-3 0 -11.5 2t-10.5 2q-18 0 -21 1q13 10 23 10q19 0 24 -4zM-77 584h-2h-2l-1 1q-4 0 -4 2q0 1 2 1q7 0 7 -4zM-17 555q0 -11 -21.5 -21.5t-28.5 -10.5q-1 0 -6.5 0.5
t-10.5 0.5q-10 0 -22 13.5t-12 22.5q2 0 13.5 1t15.5 1q5 0 14 -2.5t10 -2.5q2 0 11.5 1.5t13.5 1.5q19 -3 23 -5zM-192 635q0 -2 -3 -2v3q3 0 3 -1zM-161 560h-3v2q3 0 3 -2zM-157 546h-4v9q4 -1 4 -9zM218 240h-594v29v12q0 8 1 12q17 103 60 132q22 14 42 22q25 16 87 41
q25 5 38 13v12v3v5q-9 19 -9 21v2q3 0 5 -5q0 -3 1 -4q2 -5 5 -9.5t8.5 -9.5t8.5 -8t12 -9.5t11 -8.5q21 -8 36 -8q23 0 57 18.5t48 55.5q0 -10 -14 -33q-13 -13 -13 -28q0 -4 1 -6h2q20 0 27 -4q89 -33 145 -90q35 -44 35 -115v-23v-8v-9zM53 800q0 4 -6 8.5t-12 4.5
l11 -17q7 0 7 4zM-17 840q0 3 -6 3v-6q6 0 6 3zM-29 843q-9 0 -9 -2t5 -4l1 2q1 2 3 4zM-157 783q0 4 -4 4v-6q4 0 4 2zM9 631q-3 0 -9 5t-20 5q-1 0 -2 -0.5t-2 -2t-3 -3t-5 -3.5h11q5 -1 8 -1l12 1h2q1 -1 8 -1zM-107 639h15l-1 3l-3 2l-4 2l-1 1q1 0 1 -3q0 -4 -7 -5z
M-100 643q0 2 -2 2t-2 -2t2 -2t2 2zM-109 639q-6 1 -6 5q0 2 5 4h-7q-2 -1 -11 -6h3l7 -2q7 -1 9 -1zM-27 553q0 2 -9 2l-11 -1q-11 -1 -15 -1q-3 0 -10.5 2t-21.5 2l-5 -1h-7h-2q1 -2 8 -11q25 -5 31 -5q2 0 12 0.5t15 0.5q2 0 8.5 5t6.5 7zM-57 532v1v2h-4v-1h-4h-2v-3h7z
M-72 529v2v1l-6 1l-2 1l-1 -2h1l1 -1l2 -2h5zM41 466q-4 16 -24 16q-2 0 -2 -2q0 -10 5 -18q-14 -33 -39 -49q6 17 11 17q2 3 5 21.5t3 24.5q0 13 -4 18q-40 -25 -66 -25q-21 0 -71 38l1 -10v1q0 -2 -6 -4l2 -27q-4 4 -19 9l-19 5q6 -62 88 -104q43 0 62 12l27 20q2 9 24 24
t22 33zM-13 640q8 0 8 -5q0 -3 -8 -3t-8 3q0 5 8 5zM-19 634q3 0 3 1q-2 2 -3 2q-2 0 -2 -2q0 -1 2 -1z" />
    </font>
</defs>
</svg>
