<?xml version="1.0" standalone="no"?>
<!DOCTYPE svg PUBLIC "-//W3C//DTD SVG 1.1//EN" "http://www.w3.org/Graphics/SVG/1.1/DTD/svg11.dtd" >
<svg xmlns="http://www.w3.org/2000/svg" xmlns:xlink="http://www.w3.org/1999/xlink" version="1.1">
<metadata>
Created by FontForge 20170731 at Mon Aug 24 19:15:30 2015
 By Aleksey,,,
Copyright (c) 2015 by Fontcraft : Jutipong Poosumas. All rights reserved.
</metadata>
<defs>
<font id="SuperspaceLight" horiz-adv-x="0" >
  <font-face 
    font-family="Superspace Light"
    font-weight="300"
    font-stretch="normal"
    units-per-em="2048"
    panose-1="2 0 0 0 0 0 0 0 0 0"
    ascent="1638"
    descent="-410"
    x-height="966"
    cap-height="1161"
    bbox="-935 -815 2015 1858"
    underline-thickness="72"
    underline-position="-365"
    unicode-range="U+0020-25CC"
  />
<missing-glyph horiz-adv-x="1536" 
d="M1280 0h-1024v1280h1024v-1280zM298 32h940q10 0 10 10v1196q0 10 -10 10h-940q-10 0 -10 -10v-1196q0 -10 10 -10z" />
    <glyph glyph-name="quotedblleft" unicode="&#x91;&#x91;" horiz-adv-x="588" 
d="M113 886l-10 364h105l-8 -364h-87zM352 886l-10 364h105l-8 -364h-87z" />
    <glyph glyph-name="quotedblright" unicode="&#x92;&#x92;" horiz-adv-x="588" 
d="M113 886l-10 364h105l-8 -364h-87zM352 886l-10 364h105l-8 -364h-87z" />
    <glyph glyph-name="copyright2" unicode="&#x3b;&#x3b;For&#x20;Education&#x20;Used&#x20;Only&#x3b;&#x3b;" horiz-adv-x="1296" 
d="M758 1231q137 0 262.5 -54t216.5 -145t145 -216.5t54 -263.5q0 -184 -91.5 -340t-247.5 -247t-339 -91q-184 0 -340.5 91t-247.5 247t-91 340t91 340t247.5 247.5t340.5 91.5zM1172 137q82 81 127 188t45 227q0 159 -78.5 294t-213.5 214t-294 79q-160 0 -295.5 -78.5
t-214 -214t-78.5 -294.5t78.5 -294t214 -213.5t295.5 -78.5q32 0 50 1t86.5 19t152.5 55q74 43 125 96zM759 257q102 0 243 51l30 -85q-151 -55 -273 -55q-126 0 -211 56t-98 147q-12 96 -12 180q0 88 12 157v-1q12 92 97 147.5t213 55.5q117 0 272 -55l-30 -85
q-137 51 -242 51q-98 0 -156 -35.5t-68 -91.5v1q-9 -71 -9 -144q0 -44 8 -152q1 -4 1 -16q12 -55 70.5 -90.5t152.5 -35.5z" />
    <glyph glyph-name="registered2" unicode="&#x3b;&#x3b;Registered&#x3b;&#x3b;" horiz-adv-x="1296" 
d="M758 1231q137 0 262.5 -54t216.5 -145t145 -216.5t54 -263.5q0 -184 -91.5 -340t-247.5 -247t-339 -91q-184 0 -340.5 91t-247.5 247t-91 340t91 340t247.5 247.5t340.5 91.5zM1172 137q82 81 127 188t45 227q0 159 -78.5 294t-213.5 214t-294 79q-160 0 -295.5 -78.5
t-214 -214t-78.5 -294.5t78.5 -294t214 -213.5t295.5 -78.5q32 0 50 1t86.5 19t152.5 55q74 43 125 96zM960 417q51 -116 121 -225h-105q-73 123 -132 283q-23 -1 -73 -1h-189v-281h-89v721h236q101 0 149 -6q95 -10 135 -63t40 -161q0 -171 -120 -197q3 -9 14 -34l5 -15
q5 -14 8 -21zM771 564q145 0 168 21q27 25 27 100q0 26 -1.5 45t-8 34t-13 24.5t-23 17t-29.5 10.5t-42.5 5t-52.5 2.5t-67 0.5h-147v-260h189z" />
    <glyph glyph-name="trademark2" unicode="&#x3b;&#x3b;Trademark&#x3b;&#x3b;" horiz-adv-x="1980" 
d="M126 1164h734v-97h-317v-558h-97v558h-320v97zM1714 1164h115v-655h-95v506l-360 -506l-349 506v-506h-96v655h116l329 -487z" />
    <glyph glyph-name="multiply2" unicode="&#x3b;&#x3b;Multiply&#x3b;&#x3b;" horiz-adv-x="1069" 
d="M837 323l-68 -68l-257 257l-257 -258l-69 70l257 257l-258 258l68 68l258 -258l258 258l69 -69l-258 -258z" />
    <glyph glyph-name="divide2" unicode="&#x3b;&#x3b;Divide&#x3b;&#x3b;" horiz-adv-x="1058" 
d="M109 533v96h825v-96h-825zM601 319q0 -32 -22.5 -55t-54.5 -23t-55 23t-23 55t23 55t55 23t54.5 -23t22.5 -55zM601 849q0 -32 -22.5 -55t-54.5 -23t-55 23t-23 55t23 55t55 23t54.5 -23t22.5 -55z" />
    <glyph glyph-name="rulakkhangyao" unicode="&#xc4;&#xd2;" horiz-adv-x="1827" 
d="M802 945q123 -83 123 -213v-1187h-96v1187q0 80 -88.5 139.5t-242.5 59.5q-129 0 -289 -52v-577q0 -69 11 -113t35 -67t54 -31.5t77 -8.5v-96q-133 0 -201.5 74.5t-71.5 241.5v645q205 79 385 79q187 0 304 -81zM1714 728v-1183h-95v1183q-2 83 -72 142.5t-199 59.5
q-139 0 -305 -78l-41 87q185 87 346 87q163 0 264.5 -86t101.5 -212z" />
    <glyph glyph-name="lulakkhangyao" unicode="&#xc6;&#xd2;" horiz-adv-x="1813" 
d="M803 945q122 -83 122 -212v-1188h-96v1188q0 79 -88.5 138.5t-242.5 59.5q-133 0 -289 -52v-736q0 -66 -50 -111.5t-113 -45.5v96q24 0 46 19.5t22 41.5v804q204 79 384 79q187 0 305 -81zM1699 728v-1183h-95v1183q-2 83 -72 142.5t-199 59.5q-139 0 -305 -78l-41 87
q185 87 346 87q163 0 264.5 -86t101.5 -212z" />
    <glyph glyph-name=".notdef" horiz-adv-x="1536" 
d="M1280 0h-1024v1280h1024v-1280zM298 32h940q10 0 10 10v1196q0 10 -10 10h-940q-10 0 -10 -10v-1196q0 -10 10 -10z" />
    <glyph glyph-name=".null" 
 />
    <glyph glyph-name="nonmarkingreturn" horiz-adv-x="579" 
 />
    <glyph glyph-name="space" unicode=" " horiz-adv-x="690" 
 />
    <glyph glyph-name="exclam" unicode="!" horiz-adv-x="423" 
d="M168 221l-18 945h121l-15 -945h-88zM290 77q0 33 -23 56t-55 23t-55 -23t-23 -56q0 -32 23 -55t55 -23t55 23t23 55z" />
    <glyph glyph-name="quotedbl" unicode="&#x22;" horiz-adv-x="553" 
d="M113 886l-10 364h105l-8 -364h-87zM352 886l-10 364h105l-8 -364h-87z" />
    <glyph glyph-name="numbersign" unicode="#" horiz-adv-x="1364" 
d="M1211 410v-97h-273l-91 -314h-102l93 314h-443l-91 -314h-102l92 314h-267v96h295l101 344h-272v95h300l92 315h100l-91 -315h442l91 315h101l-91 -314h239v-96h-268l-99 -343h244zM423 409h442l101 344h-443z" />
    <glyph glyph-name="dollar" unicode="$" horiz-adv-x="1084" 
d="M973 310v-2q-4 -75 -34 -133.5t-79 -95t-109 -56.5t-130 -25v-125h-97v122q-214 8 -419 103l40 88q95 -44 204.5 -70t206.5 -26q304 0 320 225q-1 38 -12.5 68.5t-33.5 51.5t-45 35.5t-58.5 25.5t-61.5 17.5t-66.5 14.5t-61.5 13q-8 2 -40 7t-60 9.5t-69 16.5t-74.5 26.5
t-69.5 39t-60.5 55t-40 74.5t-15.5 97v2q3 70 30 125t67.5 89.5t95 57.5t109 33t114.5 12v123h97v-123q178 -12 326 -74l-39 -89q-68 30 -162.5 49.5t-187.5 19.5q-158 0 -253 -56t-100 -170q0 -40 12.5 -71.5t37 -53.5t50.5 -37.5t64 -26t65 -17t66 -13.5t57 -11l1 -1
q13 -3 46 -9t61.5 -11.5t67.5 -17t70.5 -25.5t64.5 -38.5t55 -54t36 -73t14 -95.5z" />
    <glyph glyph-name="percent" unicode="%" horiz-adv-x="1286" 
d="M403 1150q89 0 152.5 -63t63.5 -153v-118q0 -89 -63.5 -152.5t-152.5 -63.5h-129q-90 0 -152.5 63t-62.5 153v118q0 90 62.5 153t152.5 63h129zM403 691q51 0 88 36.5t37 88.5v118q0 52 -37 88.5t-88 36.5h-129q-52 0 -88.5 -36.5t-36.5 -88.5v-118q0 -52 36.5 -88.5
t88.5 -36.5h129zM1029 560q90 0 153 -63t63 -153v-118q0 -90 -63 -153t-153 -63h-128q-89 0 -152.5 63t-63.5 153v118q0 90 63.5 153t152.5 63h128zM1029 101q52 0 89 36.5t37 88.5v118q0 52 -37 88.5t-89 36.5h-128q-51 0 -88 -36.5t-37 -88.5v-118q0 -52 37 -88.5
t88 -36.5h128zM1020 1161h121l-858 -1161h-120z" />
    <glyph glyph-name="ampersand" unicode="&#x26;" horiz-adv-x="1267" 
d="M1121 662h74v-89h-84v-227q0 -101 -60 -184.5t-160.5 -130.5t-217.5 -47h-78q-116 0 -216.5 47t-161.5 131t-61 184v43q0 155 93 220l21 13l-11 9q-100 82 -102 236v6q2 128 76.5 212t191.5 84h230v-90h-229q-81 0 -129.5 -56t-48.5 -153t48 -151.5t130 -56.5h595v224h90
v-224h10zM1021 347v226h-595q-34 0 -61.5 -6.5t-56 -24t-45 -56.5t-16.5 -97v-42q0 -111 101 -191.5t247 -80.5h78q148 0 248 81t100 191z" />
    <glyph glyph-name="quotesingle" unicode="'" horiz-adv-x="301" 
d="M108 886l-10 364h105l-8 -364h-87z" />
    <glyph glyph-name="parenleft" unicode="(" horiz-adv-x="387" 
d="M325 1351q-138 -336 -138 -741q0 -142 16.5 -282.5t42.5 -246t44.5 -168t34.5 -102.5h-102q-133 383 -133 802q0 389 133 738h102z" />
    <glyph glyph-name="parenright" unicode=")" horiz-adv-x="417" 
d="M86 1351h100q134 -348 134 -741q-1 -417 -134 -799h-100q16 41 34 102.5t44 167.5t42.5 246.5t16.5 282.5q0 400 -137 741z" />
    <glyph glyph-name="asterisk" unicode="*" horiz-adv-x="923" 
d="M555 910q-2 -20 -9 -33l167 -215l-84 -62l-153 222q-14 -2 -20 -2q-7 0 -19 2l-152 -222l-85 61l167 216q-9 17 -9 33l-264 77l32 100l262 -93q5 5 25 16l-9 280h105l-7 -280q12 -8 22 -16l263 93l33 -100z" />
    <glyph glyph-name="plus" unicode="+" horiz-adv-x="1002" 
d="M924 629v-96h-363v-364h-98v364h-365v96h365v365h98v-365h363z" />
    <glyph glyph-name="comma" unicode="," horiz-adv-x="425" 
d="M154 -90l26 302h117l-54 -302h-89z" />
    <glyph glyph-name="hyphen" unicode="-" horiz-adv-x="1053" 
d="M109 533v96h825v-96h-825z" />
    <glyph glyph-name="period" unicode="." horiz-adv-x="394" 
d="M273 88q0 -32 -22.5 -55t-54.5 -23t-55 23t-23 55t23 55t55 23t54.5 -23t22.5 -55z" />
    <glyph glyph-name="slash" unicode="/" horiz-adv-x="713" 
d="M683 1338h106l-680 -1518h-103l-2 2z" />
    <glyph glyph-name="zero" unicode="0" horiz-adv-x="1160" 
d="M1025 878q16 -107 16 -262q0 -27 -0.5 -54.5t-1.5 -51t-2 -46.5t-2.5 -42t-3 -36t-2.5 -30t-2 -22t-1 -14l-1 -5v-1q-16 -142 -136 -229.5t-299 -90.5q-181 3 -300 91t-135 229v1l-1 5q0 5 -1 14t-2.5 22t-3 30t-2.5 36t-2.5 42t-2.5 46.5t-1.5 51t-0.5 54.5
q0 148 17 262q18 141 136.5 228.5t298.5 91.5q178 -5 298.5 -92t136.5 -228zM932 347q13 140 13 269q0 139 -15 249q-14 102 -103 167t-237 69q-149 -4 -237 -69t-103 -167q-15 -110 -15 -249q0 -149 14 -269q8 -112 95 -181.5t246 -74.5q306 10 342 256z" />
    <glyph glyph-name="one" unicode="1" horiz-adv-x="914" 
d="M582 1160h108v-1160h-96v1050l-425 -305l-58 78z" />
    <glyph glyph-name="two" unicode="2" horiz-adv-x="1136" 
d="M570 500q-43 -10 -82.5 -25t-87.5 -46.5t-82.5 -73t-58.5 -109t-25 -149.5h725v-97h-823v97q0 100 30 182.5t73 133.5t103 91t107.5 59t98.5 32q142 32 200 60q140 66 140 200q-5 115 -101 170.5t-252 55.5q-92 0 -187 -19.5t-163 -49.5l-40 89q180 77 390 77
q83 0 157.5 -16.5t141.5 -52t107.5 -100.5t43.5 -152l1 -1q0 -41 -9 -77.5t-23 -64.5t-37.5 -53.5t-44.5 -43t-53 -34t-54 -26.5t-56.5 -21t-51.5 -15.5t-48 -11.5t-38 -9h-1z" />
    <glyph glyph-name="three" unicode="3" horiz-adv-x="1105" 
d="M955 389v-157q0 -240 -326 -244h-195q-317 6 -317 289h96q0 -110 57.5 -151t177.5 -41h172q125 0 182 33.5t57 113.5v156q0 43 -5.5 66t-28.5 43.5t-71 28.5t-130 8h-92v96h95q143 2 185 27.5t42 119.5v111q0 109 -56.5 150.5t-177.5 41.5h-172q-55 0 -93.5 -7t-73 -26.5
t-51.5 -59t-17 -99.5h-96q0 282 313 288h195q69 0 124.5 -14t103 -45.5t73.5 -89.5t26 -139v-112q-2 -67 -19.5 -115t-61.5 -77q47 -37 65.5 -82t18.5 -113z" />
    <glyph glyph-name="four" unicode="4" horiz-adv-x="1102" 
d="M843 366h134v-97h-134v-269h-96v269h-673v97l601 794h168v-794zM747 366v729l-551 -729h551z" />
    <glyph glyph-name="five" unicode="5" horiz-adv-x="1132" 
d="M954 572q28 -53 28 -117v-224q0 -240 -327 -244h-196q-69 1 -124 16.5t-100 48t-69.5 89.5t-24.5 135h96q0 -105 56 -148t180 -43h172q125 0 182.5 34t57.5 112v224q0 76 -57 110.5t-183 34.5h-474v565h785v-97h-689v-371h405q218 -7 282 -125z" />
    <glyph glyph-name="six" unicode="6" horiz-adv-x="1116" 
d="M945 601q58 -90 63 -239q-5 -148 -69 -246.5t-172 -111.5v-2h-6q-6 -1 -17.5 -2t-26 -2t-34 -2.5t-41 -2.5t-47 -1.5t-50.5 -0.5q-115 0 -192 13q-109 15 -172.5 113.5t-69.5 244.5q5 110 40 191l271 611h105l-199 -449q75 19 217 19q25 0 50.5 -0.5t47 -1.5t41 -2.5
t34 -3t26 -2.5t17.5 -2h6q112 -15 178 -121zM868 172q47 75 48 190q-1 119 -47 188.5t-115 80.5h-3q-76 12 -206 12q-102 0 -179 -12q-63 -9 -103 -67q-24 -24 -41 -78t-19 -124q1 -46 8.5 -84t17.5 -65.5t29 -49t34 -35t42.5 -23t44.5 -14.5t50 -7.5t49 -2.5h51h16
q92 0 206 12h3q69 11 114 79z" />
    <glyph glyph-name="seven" unicode="7" horiz-adv-x="1030" 
d="M919 1164q11 0 24 -101l-525 -1063h-108l525 1067h-780v97h864z" />
    <glyph glyph-name="eight" unicode="8" horiz-adv-x="1121" 
d="M954 503q16 -42 16 -112v-114q0 -288 -322 -292h-199q-320 5 -323 292l-1 114h4h-3q0 140 84 197q-3 3 -6.5 5.5t-8 5t-6.5 4.5q-59 62 -59 177h-1l1 111q1 69 20 121t49 82.5t73 50t84.5 27t91.5 8.5h196q323 -5 323 -289v-112q-3 -141 -80 -191q45 -34 67 -85zM226 891
v-109q0 -61 16 -89.5t63.5 -42t148.5 -15.5h188q140 0 184 27.5t44 119.5v109q0 107 -56 149t-180 42h-172q-55 0 -93 -6.5t-73 -25.5t-52.5 -58.5t-17.5 -100.5zM874 391h1q0 60 -17.5 89t-66.5 42.5t-152 15.5q-2 0 -5 -0.5t-4 -0.5v1h-164q-98 0 -148 -11q-38 -8 -56 -18
t-29 -37.5t-11 -80.5v-114q0 -109 58.5 -152.5t181.5 -43.5h177q42 0 73.5 3.5t63.5 16t52 33t33 57t13 86.5v114z" />
    <glyph glyph-name="nine" unicode="9" horiz-adv-x="1126" 
d="M175 563q-57 91 -62 238q5 151 68 248t173 112l4 1q3 0 10 0.5t16.5 1.5t22 2.5t26.5 2.5t31 2t34 1.5t37 1t40 0.5q109 0 192 -13q109 -17 172.5 -114t68.5 -246q-3 -104 -38 -190l-271 -611h-106l199 450q-7 -4 -25 -8q-77 -12 -192 -12q-20 0 -40 0.5t-37 1t-34 1.5
t-31 2t-26.5 2t-22 2t-16.5 1.5t-10 1.5h-4q-113 15 -179 121zM253 991q-46 -71 -49 -190q3 -119 48 -189t115 -79l3 -1q1 0 35 -3.5t79.5 -6t90.5 -2.5q94 0 179 13q69 11 113.5 81t50.5 187q-2 42 -8 77t-15.5 61t-23 47.5t-29.5 36t-34 25.5t-38 17t-41.5 10t-43.5 5
l-44 2t-44 0h-22q-106 0 -205 -11h-3q-72 -13 -114 -80z" />
    <glyph glyph-name="colon" unicode=":" horiz-adv-x="445" 
d="M294 754q0 -32 -22.5 -55.5t-54.5 -23.5t-55 23.5t-23 55.5t23 55t55 23t54.5 -23t22.5 -55zM294 204q0 -32 -22.5 -55t-54.5 -23t-55 23t-23 55t23 55t55 23t54.5 -23t22.5 -55z" />
    <glyph glyph-name="semicolon" unicode=";" horiz-adv-x="469" 
d="M312 754q0 -33 -22.5 -56t-55.5 -23q-32 0 -55 23.5t-23 55.5t23 55t55 23q33 0 55.5 -23t22.5 -55zM205 -90l-30 302h117l2 -302h-89z" />
    <glyph glyph-name="less" unicode="&#x3c;" horiz-adv-x="780" 
d="M650 1158l-449 -578l449 -580h-122l-387 501l-23 30v97l23 31l387 499h122z" />
    <glyph glyph-name="equal" unicode="=" horiz-adv-x="1043" 
d="M125 376v97h789v-97h-789zM125 690v97h789v-97h-789z" />
    <glyph glyph-name="greater" unicode="&#x3e;" horiz-adv-x="790" 
d="M660 659l24 -31v-97l-24 -30l-387 -501h-122l448 580l-448 578h122z" />
    <glyph glyph-name="question" unicode="?" horiz-adv-x="1029" 
d="M929 859v-2q0 -45 -6 -83.5t-18 -67t-25.5 -51t-33.5 -38.5t-36 -27t-39 -19t-36.5 -12t-35.5 -9t-29 -7q-92 -21 -120 -35q-75 -37 -84 -141q-1 -15 -1 -33q0 -44 9 -105l-96 -15q-11 69 -11 120q0 75 21 130.5t53 85t76.5 50t83 28.5t82 18t65.5 20q25 12 41 28.5
t29 57.5t14 105q-3 115 -101.5 171t-252.5 56q-93 0 -188 -19.5t-163 -50.5l-39 90q180 77 390 77q63 0 122 -9t119.5 -32.5t105.5 -58.5t74 -92.5t30 -129.5zM531 77q0 33 -22.5 56t-54.5 23t-55.5 -23t-23.5 -56q0 -32 23.5 -55t55.5 -23t54.5 23t22.5 55z" />
    <glyph glyph-name="at" unicode="@" horiz-adv-x="1545" 
d="M774 1231q137 0 262.5 -54t216.5 -145t145 -216.5t54 -263.5q0 -184 -91.5 -340t-247.5 -247t-339 -91q-184 0 -340.5 91t-247.5 247t-91 340t91 340t247.5 247.5t340.5 91.5zM973 335v185q-142 44 -245 44q-93 0 -133 -35t-40 -120q0 -70 38.5 -102.5t123.5 -32.5
q105 0 256 61zM1188 137q82 81 127 188t45 227q0 159 -78.5 294t-213.5 214t-294 79q-160 0 -295.5 -78.5t-214 -214t-78.5 -294.5t78.5 -294t214 -213.5t295.5 -78.5q99 0 199 35v238q-145 -56 -256 -56q-115 0 -184 58.5t-69 167.5q0 125 72 186.5t192 61.5q94 0 245 -43
v80q0 60 -51 95t-140 35q-132 0 -250 -75l-47 76q140 91 297 91q118 0 199.5 -58.5t81.5 -163.5v-653q74 43 125 96z" />
    <glyph glyph-name="A" unicode="A" horiz-adv-x="1249" 
d="M1089 0l-118 282h-678l-118 -282h-105l487 1161h150l487 -1161h-105zM334 379h596l-298 712z" />
    <glyph glyph-name="B" unicode="B" horiz-adv-x="1239" 
d="M1105 359v-1q0 -76 -12.5 -132t-29 -94.5t-56.5 -64t-71.5 -39t-98 -20t-112.5 -7.5t-137 -1l-430 1v1162h443q151 0 210 -7q129 -16 185 -87t56 -213v-1q0 -151 -83 -214q74 -30 105 -100.5t31 -181.5zM254 1068v-392l426 -1q155 0 219 36q29 16 42.5 47.5t13.5 96.5h1
l-1 1q0 39 -2.5 66.5t-12 50.5t-20 37.5t-33 26t-45 17t-63 9t-78.5 4.5t-100 1h-347zM1009 358v1q0 34 -1.5 60t-9.5 47.5t-12.5 37t-23.5 28t-28.5 20t-41 13.5t-48.5 8.5t-63.5 4t-72.5 1.5h-88h-30h-336v-482l565 7q75 8 112.5 27t57.5 72t20 154v1z" />
    <glyph glyph-name="C" unicode="C" horiz-adv-x="1129" 
d="M617 84q183 0 398 78l33 -91q-230 -84 -431 -84q-207 0 -344.5 87.5t-156.5 233.5v1q-18 135 -18 303q0 151 18 264q21 146 158 233.5t344 87.5q200 0 430 -84l-33 -91q-213 78 -397 78q-177 0 -283.5 -67t-123.5 -171v-1q-17 -115 -17 -249q0 -133 17 -286v-5
q16 -105 122.5 -171t283.5 -66z" />
    <glyph glyph-name="D" unicode="D" horiz-adv-x="1183" 
d="M1062 875q19 -111 19 -264q0 -34 -1 -69.5t-2.5 -64t-3.5 -55.5t-4.5 -47t-4 -35t-2.5 -24l-1 -8v-1q-24 -167 -148 -235t-384 -68q-165 0 -408 24l1 8l-1 1118q243 24 408 24q263 0 386 -70t146 -233zM976 405q8 141 8 206q0 134 -17 250q-7 44 -19.5 75t-41 60
t-74 46.5t-118.5 28t-174 10.5q-134 0 -321 -15v-950q181 -15 311 -15q162 0 254.5 24.5t131.5 70t51 125.5l3 22q1 20 6 62z" />
    <glyph glyph-name="E" unicode="E" horiz-adv-x="1083" 
d="M969 1067h-748v-438h682v-96h-682v-437h748v-96h-846v1163h846v-96z" />
    <glyph glyph-name="F" unicode="F" horiz-adv-x="1083" 
d="M966 1067h-747v-438h684v-96h-684v-533h-96v1163h843v-96z" />
    <glyph glyph-name="G" unicode="G" horiz-adv-x="1178" 
d="M1057 447v-386l-1 -1q-229 -84 -431 -84q-208 0 -345.5 87t-156.5 234l-1 9q-1 8 -2.5 23t-3.5 35.5t-4 47t-3.5 55.5t-2.5 64.5t-1 69.5q0 142 18 265q22 148 158.5 234t343.5 88q204 -2 431 -85l-33 -90q-212 77 -398 77q-176 0 -283.5 -66.5t-121.5 -171.5
q-18 -105 -18 -251q0 -179 17 -285l1 -5q13 -103 119.5 -170.5t285.5 -67.5q150 0 334 57v317h98z" />
    <glyph glyph-name="H" unicode="H" horiz-adv-x="1201" 
d="M982 1161h96v-1161h-96v532h-762v-532h-97v1161h97v-532h762v532z" />
    <glyph glyph-name="I" unicode="I" horiz-adv-x="435" 
d="M169 1161h97v-1161h-97v1161z" />
    <glyph glyph-name="J" unicode="J" horiz-adv-x="962" 
d="M839 1161h1v-798q0 -212 -82 -298.5t-271 -86.5q-146 0 -408 49l17 94q292 -52 384 -52q150 0 207 62t57 232v702h-305v98h400v-2z" />
    <glyph glyph-name="K" unicode="K" horiz-adv-x="1169" 
d="M942 637q104 -76 104 -202v-435h-97v435q-2 78 -69.5 128.5t-196.5 50.5q-209 0 -463 -143v-471h-97v1160h97v-579q158 81 305 111v1q1 0 4 0.5t4 0.5q217 34 310 146.5t93 317.5v4h96v-4q0 -323 -211 -465q73 -20 121 -56z" />
    <glyph glyph-name="L" unicode="L" horiz-adv-x="1066" 
d="M219 98h744v-98h-840v1164h96v-1066z" />
    <glyph glyph-name="M" unicode="M" horiz-adv-x="1317" 
d="M1098 1164h95v-1164h-95v1015l-440 -506l-439 506v-1015h-96v1164h96l439 -507z" />
    <glyph glyph-name="N" unicode="N" horiz-adv-x="1200" 
d="M981 1164h96v-1164h-100v125l-759 890v-1015h-95v1164h95l759 -890v890h4z" />
    <glyph glyph-name="O" unicode="O" horiz-adv-x="1232" 
d="M1116 870q18 -116 18 -266q0 -27 -0.5 -55t-1.5 -51.5t-2.5 -47t-3 -42.5t-3 -36t-3 -30t-2.5 -22.5t-2 -14.5v-5q-19 -146 -156.5 -233.5t-344.5 -87.5q-204 0 -341.5 86.5t-157.5 234.5v5q-1 5 -2 14.5t-2.5 22.5t-3.5 30t-3.5 36t-3 42.5t-2.5 47t-1.5 51.5t-0.5 55
q0 144 19 266q22 148 158 234t341 86q209 0 343.5 -87.5t157.5 -232.5zM1021 317q0 2 3 33.5t5.5 62t5 80.5t2.5 97q0 158 -17 265q-17 105 -124.5 171.5t-280.5 66.5q-174 0 -281.5 -67.5t-123.5 -170.5q-17 -109 -17 -251q0 -134 17 -287v-4q15 -102 121 -170t284 -68
q177 0 283 67.5t122 170.5z" />
    <glyph glyph-name="P" unicode="P" horiz-adv-x="1112" 
d="M993 1001q30 -71 30 -197v-1q0 -69 -12.5 -121t-28.5 -87t-53 -58t-64.5 -35t-84.5 -18t-92.5 -7t-108.5 -1h-3.5h-3.5h-352v-476h-97v1163h379h35h79t72 -2t71.5 -6t62 -11.5t58.5 -19.5t46 -28.5t40 -40.5t27 -54zM926 804v1q0 49 -2.5 81.5t-12 62t-20.5 46.5
t-37 31.5t-52.5 21.5t-75.5 11.5t-97.5 5.5t-126.5 1h-282v-493h352q148 0 198 7q36 4 57 10t42.5 19.5t32.5 37t17.5 62t6.5 94.5v1z" />
    <glyph glyph-name="Q" unicode="Q" horiz-adv-x="1235" 
d="M1118 867q18 -122 18 -265q0 -27 -0.5 -55t-1.5 -51.5t-2.5 -47t-3 -42.5t-3 -36t-3 -30t-2.5 -22.5t-2 -14.5v-5v-1q-20 -137 -140.5 -222t-311.5 -96q0 -23 0.5 -33t3 -32t8.5 -32.5t18 -26.5t29 -23.5t44.5 -13.5t62.5 -6q69 0 160 21l22 -95q-102 -23 -182 -23
q-53 0 -95.5 11t-69.5 27.5t-46.5 42t-29 47t-15 51t-6.5 46.5t-1 39q-192 11 -312.5 96t-140.5 222v1v5q-1 5 -2 14.5t-2.5 22.5t-2.5 30t-2.5 36t-3 42.5t-2.5 47t-1.5 51.5t-0.5 55q0 158 17 265q24 146 160 233.5t341 87.5q204 0 341 -87t160 -234zM1023 316
q16 108 16 286q0 150 -16 250q-18 105 -123.5 172t-282.5 67t-283 -67t-122 -172q-17 -115 -17 -250q0 -142 16 -286l1 -6q13 -102 119.5 -169t285.5 -68q179 1 284.5 67.5t121.5 169.5v6z" />
    <glyph glyph-name="R" unicode="R" horiz-adv-x="1113" 
d="M861 341q85 -198 179 -343h-114q-127 212 -220 479q-65 -3 -142 -3h-344v-475h-97v1164h371q162 0 247 -10q152 -16 213 -97t61 -253v-1q0 -146 -50.5 -222t-159.5 -91q4 -21 56 -148zM564 572q135 0 204.5 8.5t98.5 33.5q53 45 53 188v2q0 39 -2 68.5t-9 55t-14 44
t-23.5 33.5t-31 24t-44 16.5t-54 11t-69 5.5t-81.5 2.5t-98 0.5h-274v-493h344z" />
    <glyph glyph-name="S" unicode="S" horiz-adv-x="1071" 
d="M963 308v-1h-1q-3 -69 -27.5 -124t-64 -90.5t-93.5 -58.5t-110.5 -33t-119.5 -10q-234 0 -454 105l40 87q206 -94 409 -94q312 0 324 223q-1 34 -11 62.5t-24.5 48.5t-39.5 36.5t-45.5 26t-54.5 19t-55 14t-57.5 11t-53.5 10.5q-9 2 -61 11.5t-90.5 18t-95 33t-93 55.5
t-63.5 85t-27 123l1 2q3 89 43.5 154t107 100t141 51t159.5 16q215 0 391 -77l-40 -88q-68 30 -163 49.5t-188 19.5q-160 0 -256 -57t-98 -171q0 -39 12 -70.5t36 -53t48.5 -36.5t63 -26.5t65 -17.5t68.5 -14t61 -12q11 -3 45.5 -9t61 -11t66.5 -17t70.5 -26t64 -38.5
t55.5 -54t37 -73t16 -94.5v-4z" />
    <glyph glyph-name="T" unicode="T" horiz-adv-x="998" 
d="M31 1164h934v-97h-417v-1067h-97v1067h-420v97z" />
    <glyph glyph-name="U" unicode="U" horiz-adv-x="1201" 
d="M1085 1161v-508q0 -218 -12 -326q-25 -191 -134.5 -272t-337.5 -81h-3q-78 0 -141 9.5t-111 24t-84 44.5t-60.5 57.5t-41 78t-26 90.5t-14 110.5t-5.5 122.5t-1 141v509h97v-509q0 -232 11 -313q10 -76 28.5 -122.5t59.5 -81.5t110 -49t178 -14h3q71 0 123.5 5.5t94 22.5
t69 35t47 58t30 76t16 103t6.5 125t1 156v508h97z" />
    <glyph glyph-name="V" unicode="V" horiz-adv-x="1182" 
d="M1056 1163h105l-496 -1163h-151l-496 1163h105l467 -1093z" />
    <glyph glyph-name="W" unicode="W" horiz-adv-x="1394" 
d="M1162 1163h98l-121 -1163h-94l-356 467l-356 -467h-101l-120 1163h97l106 -1026l374 490l368 -483z" />
    <glyph glyph-name="X" unicode="X" horiz-adv-x="1218" 
d="M693 582l450 -582h-123l-412 533l-411 -533h-123l451 582l-451 581h123l411 -533l412 533h123z" />
    <glyph glyph-name="Y" unicode="Y" horiz-adv-x="1185" 
d="M1010 1163h123l-485 -626v-537h-97v533l-487 630h122l412 -533z" />
    <glyph glyph-name="Z" unicode="Z" horiz-adv-x="1157" 
d="M226 96h826v-96h-919q-12 0 -25 108l818 958h-1h-817v96h919q12 0 23 -99z" />
    <glyph glyph-name="bracketleft" unicode="[" horiz-adv-x="462" 
d="M429 1256h-197v-1350h197v-97h-294v1545h294v-98z" />
    <glyph glyph-name="backslash" unicode="\" horiz-adv-x="739" 
d="M-53 1338h106l679 -1516l-2 -2h-103z" />
    <glyph glyph-name="bracketright" unicode="]" horiz-adv-x="476" 
d="M47 -94h197v1350h-197v97h294v-1545h-294v98z" />
    <glyph glyph-name="asciicircum" unicode="^" horiz-adv-x="1005" 
d="M567 1245l337 -436h-122l-284 366l-284 -366h-122l338 436h137z" />
    <glyph glyph-name="underscore" unicode="_" horiz-adv-x="1100" 
d="M41 -119v97h1016v-97h-1016z" />
    <glyph glyph-name="grave" unicode="`" horiz-adv-x="455" 
d="M283 861l-192 391h134l162 -391h-104z" />
    <glyph glyph-name="a" unicode="a" horiz-adv-x="1019" 
d="M896 683v-683h-75q-10 0 -19 79q-207 -82 -368 -82q-150 0 -240.5 78t-90.5 214q0 166 92.5 247t255.5 81q140 0 349 -62v128q0 87 -72.5 140.5t-196.5 53.5q-189 0 -355 -106l-51 80q190 122 400 122q99 0 181 -30.5t136 -98t54 -161.5zM256 145q59 -53 178 -53
q154 0 366 90v273q-215 67 -349 67q-131 0 -192 -55.5t-61 -173.5q0 -98 58 -148z" />
    <glyph glyph-name="b" unicode="b" horiz-adv-x="1022" 
d="M910 709q15 -99 15 -209q0 -60 -3.5 -119t-7 -89t-4.5 -31v-1q-18 -130 -120.5 -194.5t-243.5 -64.5q-166 0 -329 77q-10 -78 -19 -78h-75v1294h96v-407q157 83 309 83q149 0 256.5 -74t125.5 -187zM822 339q7 96 7 161q0 103 -13 194q-11 72 -90.5 126t-197.5 54
q-152 0 -309 -97v-592q162 -89 327 -89q113 0 184 44t86 133z" />
    <glyph glyph-name="c" unicode="c" horiz-adv-x="940" 
d="M530 95q142 0 308 60l33 -89q-182 -67 -341 -67q-164 0 -275.5 70.5t-127.5 189.5l-1 4q0 4 -1 11.5t-2 17.5t-2 23.5t-2 28.5t-2 33.5l-2 37t-1.5 40.5t-0.5 43q0 111 14 209q18 119 128.5 189.5t274.5 70.5q159 0 341 -67l-33 -89q-166 60 -308 60q-136 0 -216 -50.5
t-92 -127.5q-13 -83 -13 -195q0 -84 11 -209q8 -85 86.5 -139.5t223.5 -54.5z" />
    <glyph glyph-name="d" unicode="d" horiz-adv-x="1025" 
d="M806 1293h96v-1293h-75q-10 0 -19 77q-163 -77 -329 -77q-91 0 -166.5 25.5t-131 86t-66.5 148.5l-1 4q0 4 -1 11.5t-2 17.5t-2 23.5t-2.5 28.5t-2.5 33.5l-2 37t-1.5 40.5t-0.5 43q0 114 15 209q17 112 125 186.5t257 74.5q154 0 309 -83v407zM806 185v591
q-155 97 -309 97q-120 0 -198.5 -54t-89.5 -125q-13 -83 -13 -195q0 -84 11 -209q17 -101 83.5 -147.5t188.5 -46.5q169 0 327 89z" />
    <glyph glyph-name="e" unicode="e" horiz-adv-x="1020" 
d="M916 508v-96h-705q2 -52 8 -122q7 -84 85.5 -139.5t223.5 -55.5q141 0 309 61l33 -90q-179 -66 -342 -66q-165 0 -275.5 70.5t-126.5 189.5v4q-1 4 -2 11.5t-2 17.5t-2 23.5t-2 28.5t-2 33.5l-2 37t-1.5 40.5t-0.5 43q0 120 14 209q18 116 122.5 185.5t261.5 72.5v1l2 -1
h2t2.5 0.5t2.5 0.5v-1q156 -3 260.5 -72.5t122.5 -185.5q14 -94 14 -200zM210 508h608q-2 133 -10 186q-12 75 -88.5 124t-205.5 52q-131 -3 -206.5 -52.5t-86.5 -123.5q-11 -75 -11 -186z" />
    <glyph glyph-name="f" unicode="f" horiz-adv-x="551" 
d="M297 1137q-24 -41 -24 -145v-43h244v-96h-244v-1111q-10 -92 -21 -92l-75 -1v1204h-122v96h122v43q1 33 2.5 56t8 57t17 58t30.5 51t47.5 43t69.5 27t94 11q54 0 114 -10l-15 -95q-50 9 -99 9q-115 0 -149 -62z" />
    <glyph glyph-name="g" unicode="g" horiz-adv-x="1026" 
d="M828 967h75v-967q0 -46 -5 -85t-26.5 -90.5t-58 -86.5t-106 -60t-163.5 -25q-126 0 -298 43l22 93q163 -41 276 -41q53 0 94.5 9t69 22t47 35t29.5 42t15.5 48.5t6.5 48t1 47.5v81q-157 -83 -309 -83q-149 0 -256.5 73.5t-125.5 187.5q-14 89 -14 209q0 21 0.5 43
t1.5 40.5l2 37t2 33.5t2 28.5t2 23.5t2 17.5t2 11.5v4q12 89 67 149t130.5 85.5t166.5 25.5q166 0 329 -77q10 77 19 77zM807 191v592q-160 89 -327 89q-114 0 -185.5 -44.5t-83.5 -132.5q-12 -128 -12 -227q0 -110 12 -194q10 -72 88.5 -126t198.5 -54q152 0 309 97z" />
    <glyph glyph-name="h" unicode="h" horiz-adv-x="1047" 
d="M911 708q13 -86 13 -209v-499h-96v499q0 112 -13 194q-11 71 -90 125.5t-197 54.5q-151 0 -310 -97v-776h-95v1293h95v-407q157 83 310 83q148 0 257.5 -74t125.5 -187z" />
    <glyph glyph-name="i" unicode="i" horiz-adv-x="387" 
d="M145 967h75q12 0 21 -91v-876h-96v967zM258 1112q0 -28 -19.5 -47.5t-46.5 -19.5q-28 0 -47.5 19.5t-19.5 47.5q0 27 19.5 46.5t47.5 19.5q27 0 46.5 -19.5t19.5 -46.5z" />
    <glyph glyph-name="j" unicode="j" horiz-adv-x="389" 
d="M244 876v-897q0 -328 -250 -328q-37 0 -73 7l15 97q37 -5 58 -5q34 1 60 9t42 25t26.5 35.5t15 47.5t6 53t1.5 59v988h78q10 0 21 -91zM259 1112q0 -28 -19.5 -47.5t-47.5 -19.5q-27 0 -46.5 19.5t-19.5 47.5q0 27 19.5 46.5t46.5 19.5q28 0 47.5 -19.5t19.5 -46.5z" />
    <glyph glyph-name="k" unicode="k" horiz-adv-x="1055" 
d="M842 638q90 -66 90 -176v-462h-95v462q-2 62 -56.5 102.5t-159.5 40.5q-181 0 -403 -130v-475h-95v1293h95v-708q166 89 323 110q81 8 133.5 23.5t91 47t55 81.5t16.5 126h95q0 -218 -141 -306q29 -13 51 -29z" />
    <glyph glyph-name="l" unicode="l" horiz-adv-x="386" 
d="M145 1294h75q11 0 21 -92v-1202h-96v1294z" />
    <glyph glyph-name="m" unicode="m" horiz-adv-x="1430" 
d="M1263 898q44 -60 44 -161v-737h-95v737q0 64 -38 101.5t-100 37.5q-114 0 -322 -124v-1q0 -11 0.5 -42t0.5 -216.5v-493.5h-96v738q0 64 -37.5 101t-99.5 37q-108 0 -301 -111v-764h-96v967h75q11 0 21 -92v-2q184 97 301 97q71 0 132 -33t81 -85q210 119 341 119
q55 0 110 -19.5t79 -53.5z" />
    <glyph glyph-name="n" unicode="n" horiz-adv-x="1029" 
d="M906 742v-742h-96v742q0 64 -50 103.5t-149 39.5q-171 0 -392 -130v-755h-96v967h76q11 0 20 -92v-10q219 116 392 116q131 0 213 -66t82 -173z" />
    <glyph glyph-name="o" unicode="o" horiz-adv-x="1053" 
d="M940 480q0 -124 -15 -217l-1 -5q-21 -117 -130.5 -190t-268.5 -73h-18q-155 8 -258 77.5t-120 183.5l-2 7q0 3 -3 32.5t-5.5 57.5t-4.5 73t-2 86q0 109 15 217l2 5q18 114 120.5 183.5t257.5 79.5q169 0 283 -69.5t134 -191.5l1 -6q15 -135 15 -250zM826 276
q14 91 14 204q0 90 -11 218q-12 85 -85.5 139.5t-214.5 60.5h-1q-133 -4 -211 -54.5t-91 -127.5q-14 -100 -14 -204q0 -134 12 -218q11 -81 85 -137t209 -64q3 1 7 1q132 4 209.5 54t91.5 128z" />
    <glyph glyph-name="p" unicode="p" horiz-adv-x="1025" 
d="M910 707v-4q1 -4 2 -11.5t2 -17.5t2 -23.5t2 -28.5t2 -33.5l2 -37t1.5 -40.5t0.5 -43q0 -111 -14 -209q-17 -113 -125.5 -187t-256.5 -74q-152 0 -309 83v-432h-96v1318h76q10 0 18 -77q163 77 329 77q91 0 166.5 -25.5t131 -86t66.5 -148.5zM816 274q13 82 13 194
q0 73 -12 209q-9 97 -80 146t-191 49q-165 0 -327 -89v-592q157 -97 309 -97q119 0 198 54t90 126z" />
    <glyph glyph-name="q" unicode="q" horiz-adv-x="1025" 
d="M115 707q11 88 66.5 148.5t131 86t166.5 25.5q166 0 329 -77q8 77 18 77h76v-1318h-96v432q-157 -83 -309 -83q-148 0 -256.5 74t-125.5 187q-14 98 -14 209q0 21 0.5 43t1.5 40.5l2 37t2 33.5t2 28.5t2 23.5t2 17.5t1 11.5zM209 274q11 -72 90 -126t198 -54
q152 0 309 97v592q-162 89 -327 89q-120 0 -191 -49t-80 -146q-12 -136 -12 -209q0 -112 13 -194z" />
    <glyph glyph-name="r" unicode="r" horiz-adv-x="586" 
d="M521 978v-83q-1 -7 -33 -15q-125 -12 -269 -115v-765h-96v967h75q12 0 20 -88q160 99 303 99z" />
    <glyph glyph-name="s" unicode="s" horiz-adv-x="870" 
d="M789 259v-2l-1 -1q-3 -72 -33.5 -125t-80.5 -82t-107.5 -43t-124.5 -14q-187 0 -370 85l40 87q167 -77 330 -77q241 0 251 173q-1 29 -9.5 52.5t-26.5 40t-34 27.5t-46.5 20.5t-48 14t-54 11.5t-50.5 10q-3 1 -46.5 8t-74.5 14.5t-78.5 27.5t-78 46t-53.5 72t-23 104v2
q2 61 26 108.5t60 76.5t86 48t99 26.5t103 8.5q178 -2 319 -63l-39 -88q-122 55 -280 55q-126 0 -201 -43t-77 -132q0 -26 8.5 -48.5t20.5 -37.5t33 -28.5t38.5 -21t46 -15t45.5 -11t46.5 -8.5t40.5 -7q9 -2 35 -6.5t49 -9t55.5 -14t59 -21.5t54.5 -32.5t47 -45.5t31 -61.5
t12 -79.5h1v-1z" />
    <glyph glyph-name="t" unicode="t" horiz-adv-x="648" 
d="M554 105l15 -95q-60 -10 -114 -10q-55 0 -98 12t-70.5 29t-47.5 45.5t-30 52.5t-15 58.5t-6 55t-1 50.5v549h-123v96h123v345h95v-345h244v-96h-244v-549v-9q0 -28 0.5 -42t3.5 -39t9.5 -38.5t19 -30.5t30.5 -26t46 -15.5t64 -6.5q49 0 99 9z" />
    <glyph glyph-name="u" unicode="u" horiz-adv-x="1029" 
d="M811 967h95v-967h-75q-10 0 -20 92v10q-214 -114 -393 -116q-132 2 -213.5 66.5t-81.5 172.5v742h96v-742q0 -64 50.5 -103.5t148.5 -39.5q171 0 393 130v755z" />
    <glyph glyph-name="v" unicode="v" horiz-adv-x="967" 
d="M845 969h103l-418 -969h-104l-411 969h85q11 0 48 -70l333 -785z" />
    <glyph glyph-name="w" unicode="w" horiz-adv-x="1318" 
d="M1195 229q0 -69 -45 -125.5t-115 -87t-147 -30.5q-128 0 -229 86q-101 -86 -229 -86q-77 0 -147 30.5t-115 87t-45 125.5v737h95v-737q0 -54 62.5 -100.5t149.5 -46.5q104 0 181 77v539h95v-539q49 -42 90 -59.5t92 -17.5q86 0 148.5 46t62.5 101v737h96v-737z" />
    <glyph glyph-name="x" unicode="x" horiz-adv-x="1058" 
d="M597 485l412 -485h-125l-350 411l-350 -411h-125l412 485l-412 485h126l349 -411l349 411h126z" />
    <glyph glyph-name="y" unicode="y" horiz-adv-x="1039" 
d="M821 968h96l-1 -968q0 -46 -5 -84.5t-26.5 -89.5t-58 -86.5t-106 -60.5t-163.5 -25q-127 0 -299 43l24 92q159 -39 275 -39q70 0 120.5 15t77.5 37.5t42.5 56.5t19.5 62.5t4 65.5v94q-155 -82 -309 -82q-150 0 -257 73t-125 187q-15 95 -15 209l1 500h95v-500
q0 -112 13 -194v-1q11 -72 90 -125.5t198 -53.5q152 0 309 97v777z" />
    <glyph glyph-name="z" unicode="z" horiz-adv-x="974" 
d="M858 970q12 0 21 -92v-8l-658 -774h658v-96h-758q-10 0 -20 92v10l657 773h-657v95h757z" />
    <glyph glyph-name="braceleft" unicode="{" horiz-adv-x="558" 
d="M280 776q0 -138 -62 -195q62 -61 62 -194v-288q0 -112 58.5 -152t177.5 -40v-97q-332 0 -332 289v288q0 57 -12 88q-8 32 -35 45t-90 13v97q70 0 93 16q22 11 33 39t11 91v287q0 70 20 123t50.5 83.5t76.5 49.5t89 25.5t96 7.5v-98q-57 0 -94.5 -6t-72.5 -25t-52 -58.5
t-17 -101.5v-287z" />
    <glyph glyph-name="bar" unicode="|" horiz-adv-x="367" 
d="M135 1343h97v-1524h-97v1524z" />
    <glyph glyph-name="braceright" unicode="}" horiz-adv-x="555" 
d="M275 386q0 138 62 195q-62 61 -62 194v288q0 112 -58.5 152t-177.5 40v97q332 0 332 -289v-288q0 -56 12 -88q8 -32 35 -45t90 -13v-97q-70 0 -93 -16q-22 -11 -33 -39t-11 -91v-287q0 -70 -20 -123t-50.5 -83.5t-76.5 -49.5t-89 -25.5t-96 -7.5v98q57 0 94.5 6t72.5 25
t52 58.5t17 101.5v287z" />
    <glyph glyph-name="asciitilde" unicode="~" horiz-adv-x="1085" 
d="M874 611l108 -28q-17 -62 -72 -113t-145 -51q-109 0 -250 89q-111 69 -187 69q-87 0 -111 -79l-105 28q14 60 69 111t147 51q106 0 247 -88q118 -70 190 -70q48 0 74 26t35 55z" />
    <glyph glyph-name="thothannobasethai" horiz-adv-x="915" 
d="M760 978q-26 -32 -72 -62q113 -106 113 -256v-298q0 -145 -105.5 -249t-257.5 -115l-102 -2h-2l-205 428h102l161 -333q133 0 223 78.5t90 192.5v298q0 111 -87.5 191t-212.5 80h-69q-81 0 -148.5 -35.5t-106.5 -94.5l-65 74q52 70 137.5 110.5t182.5 40.5h69
q104 0 196 -49q38 12 75.5 52t37.5 58h95q0 -53 -49 -109z" />
    <glyph glyph-name="thothannobasethai" unicode="&#xf700;" horiz-adv-x="915" 
d="M760 978q-26 -32 -72 -62q113 -106 113 -256v-298q0 -145 -105.5 -249t-257.5 -115l-102 -2h-2l-205 428h102l161 -333q133 0 223 78.5t90 192.5v298q0 111 -87.5 191t-212.5 80h-69q-81 0 -148.5 -35.5t-106.5 -94.5l-65 74q52 70 137.5 110.5t182.5 40.5h69
q104 0 196 -49q38 12 75.5 52t37.5 58h95q0 -53 -49 -109z" />
    <glyph glyph-name="thothannobasethai" unicode="&#x20ac;" horiz-adv-x="915" 
d="M760 978q-26 -32 -72 -62q113 -106 113 -256v-298q0 -145 -105.5 -249t-257.5 -115l-102 -2h-2l-205 428h102l161 -333q133 0 223 78.5t90 192.5v298q0 111 -87.5 191t-212.5 80h-69q-81 0 -148.5 -35.5t-106.5 -94.5l-65 74q52 70 137.5 110.5t182.5 40.5h69
q104 0 196 -49q38 12 75.5 52t37.5 58h95q0 -53 -49 -109z" />
    <glyph glyph-name="saraileftthai" 
d="M-372 1311q79 -11 79 -21v-74h-607v47v27q0 10 79 21h449z" />
    <glyph glyph-name="saraileftthai" unicode="&#xf701;" 
d="M-372 1311q79 -11 79 -21v-74h-607v47v27q0 10 79 21h449z" />
    <glyph glyph-name="saraiileftthai" 
d="M-368 1387h75v-171h-607v74q0 10 76 21h435q9 76 21 76z" />
    <glyph glyph-name="saraiileftthai" unicode="&#xf702;" 
d="M-368 1387h75v-171h-607v74q0 10 76 21h435q9 76 21 76z" />
    <glyph glyph-name="saraiileftthai" unicode="&#x201a;" 
d="M-368 1387h75v-171h-607v74q0 10 76 21h435q9 76 21 76z" />
    <glyph glyph-name="saraueleftthai" 
d="M-384 1420q42 0 72 -30t30 -73q0 -42 -30 -71.5t-72 -29.5h-516v74q0 10 79 21h335q0 1 -0.5 3t-0.5 3q0 43 30 73t73 30z" />
    <glyph glyph-name="saraueleftthai" unicode="&#xf703;" 
d="M-384 1420q42 0 72 -30t30 -73q0 -42 -30 -71.5t-72 -29.5h-516v74q0 10 79 21h335q0 1 -0.5 3t-0.5 3q0 43 30 73t73 30z" />
    <glyph glyph-name="saraueleftthai" unicode="&#x192;" 
d="M-384 1420q42 0 72 -30t30 -73q0 -42 -30 -71.5t-72 -29.5h-516v74q0 10 79 21h335q0 1 -0.5 3t-0.5 3q0 43 30 73t73 30z" />
    <glyph glyph-name="saraueeleftthai" 
d="M-340 1387h48v-171h-608v74q0 10 77 21h241q10 76 20 76h75v-76h99q10 76 21 76h27z" />
    <glyph glyph-name="saraueeleftthai" unicode="&#xf704;" 
d="M-340 1387h48v-171h-608v74q0 10 77 21h241q10 76 20 76h75v-76h99q10 76 21 76h27z" />
    <glyph glyph-name="saraueeleftthai" unicode="&#x201e;" 
d="M-340 1387h48v-171h-608v74q0 10 77 21h241q10 76 20 76h75v-76h99q10 76 21 76h27z" />
    <glyph glyph-name="ellipsis" unicode="&#x85;" horiz-adv-x="1317" 
d="M341 88q0 -32 -22.5 -55t-54.5 -23t-55 23t-23 55t23 55t55 23t54.5 -23t22.5 -55zM721 88q0 -32 -22.5 -55t-54.5 -23t-55 23t-23 55t23 55t55 23t54.5 -23t22.5 -55zM1101 88q0 -32 -22.5 -55t-54.5 -23t-55 23t-23 55t23 55t55 23t54.5 -23t22.5 -55z" />
    <glyph glyph-name="ellipsis" unicode="&#x2026;" horiz-adv-x="1317" 
d="M341 88q0 -32 -22.5 -55t-54.5 -23t-55 23t-23 55t23 55t55 23t54.5 -23t22.5 -55zM721 88q0 -32 -22.5 -55t-54.5 -23t-55 23t-23 55t23 55t55 23t54.5 -23t22.5 -55zM1101 88q0 -32 -22.5 -55t-54.5 -23t-55 23t-23 55t23 55t55 23t54.5 -23t22.5 -55z" />
    <glyph glyph-name="maieklowleftthai" 
d="M-373 1508v-292h-96v292h96z" />
    <glyph glyph-name="maieklowleftthai" unicode="&#xf705;" 
d="M-373 1508v-292h-96v292h96z" />
    <glyph glyph-name="maieklowleftthai" unicode="&#x2020;" 
d="M-373 1508v-292h-96v292h96z" />
    <glyph glyph-name="maitholowleftthai" 
d="M-670 1332h362v-95h-456v84q3 55 10 55l-60 -1v95h144v-138z" />
    <glyph glyph-name="maitholowleftthai" unicode="&#xf706;" 
d="M-670 1332h362v-95h-456v84q3 55 10 55l-60 -1v95h144v-138z" />
    <glyph glyph-name="maitholowleftthai" unicode="&#x2021;" 
d="M-670 1332h362v-95h-456v84q3 55 10 55l-60 -1v95h144v-138z" />
    <glyph glyph-name="maitrilowleftthai" 
d="M-307 1517h67v-96q0 -68 -43 -122.5t-121 -82.5h-69q-10 0 -18 71v21q0 36 -19.5 67t-53.5 50l-106 -45l-105 45q-73 -43 -73 -117v-92h-69q-10 0 -18 74v18q0 71 46 133t108 77l111 -42l105 45q6 -2 10.5 -4.5t5.5 -2.5q65 -26 105 -81.5t40 -124.5q80 37 80 113v96h17z
" />
    <glyph glyph-name="maitrilowleftthai" unicode="&#xf707;" 
d="M-307 1517h67v-96q0 -68 -43 -122.5t-121 -82.5h-69q-10 0 -18 71v21q0 36 -19.5 67t-53.5 50l-106 -45l-105 45q-73 -43 -73 -117v-92h-69q-10 0 -18 74v18q0 71 46 133t108 77l111 -42l105 45q6 -2 10.5 -4.5t5.5 -2.5q65 -26 105 -81.5t40 -124.5q80 37 80 113v96h17z
" />
    <glyph glyph-name="maitrilowleftthai" unicode="&#x2c6;" 
d="M-307 1517h67v-96q0 -68 -43 -122.5t-121 -82.5h-69q-10 0 -18 71v21q0 36 -19.5 67t-53.5 50l-106 -45l-105 45q-73 -43 -73 -117v-92h-69q-10 0 -18 74v18q0 71 46 133t108 77l111 -42l105 45q6 -2 10.5 -4.5t5.5 -2.5q65 -26 105 -81.5t40 -124.5q80 37 80 113v96h17z
" />
    <glyph glyph-name="maichattawalowleftthai" 
d="M-312 1410v-96h-108v-108h-96v108h-108v96h108v108h86q5 0 10 -58v-50h108z" />
    <glyph glyph-name="maichattawalowleftthai" unicode="&#xf708;" 
d="M-312 1410v-96h-108v-108h-96v108h-108v96h108v108h86q5 0 10 -58v-50h108z" />
    <glyph glyph-name="maichattawalowleftthai" unicode="&#x2030;" 
d="M-312 1410v-96h-108v-108h-96v108h-108v96h108v108h86q5 0 10 -58v-50h108z" />
    <glyph glyph-name="thanthakhatlowleftthai" 
d="M-10 1324l-431 -37v-23q-5 -59 -11 -59h-84v171l518 44z" />
    <glyph glyph-name="thanthakhatlowleftthai" unicode="&#xf709;" 
d="M-10 1324l-431 -37v-23q-5 -59 -11 -59h-84v171l518 44z" />
    <glyph glyph-name="thanthakhatlowleftthai" unicode="&#x160;" 
d="M-10 1324l-431 -37v-23q-5 -59 -11 -59h-84v171l518 44z" />
    <glyph glyph-name="maieklowrightthai" 
d="M-113 1508v-292h-96v292h96z" />
    <glyph glyph-name="maieklowrightthai" unicode="&#xf70a;" 
d="M-113 1508v-292h-96v292h96z" />
    <glyph glyph-name="maieklowrightthai" unicode="&#x2039;" 
d="M-113 1508v-292h-96v292h96z" />
    <glyph glyph-name="maitholowrightthai" 
d="M-490 1332h462v-95h-556v84q3 53 10 55l-60 -1v95h144v-138z" />
    <glyph glyph-name="maitholowrightthai" unicode="&#xf70b;" 
d="M-490 1332h462v-95h-556v84q3 53 10 55l-60 -1v95h144v-138z" />
    <glyph glyph-name="maitholowrightthai" unicode="&#x152;" 
d="M-490 1332h462v-95h-556v84q3 53 10 55l-60 -1v95h144v-138z" />
    <glyph glyph-name="maitrilowrightthai" 
d="M-107 1517h67v-96q0 -68 -43 -122.5t-121 -82.5h-69q-10 0 -18 71v21q0 36 -19.5 67t-53.5 50l-106 -45l-105 45q-73 -43 -73 -117v-92h-69q-10 0 -18 74v18q0 71 46 133t108 77l111 -42l105 45q6 -2 10.5 -4.5t5.5 -2.5q65 -26 105 -81.5t40 -124.5q80 37 80 113v96h17z
" />
    <glyph glyph-name="maitrilowrightthai" unicode="&#xf70c;" 
d="M-107 1517h67v-96q0 -68 -43 -122.5t-121 -82.5h-69q-10 0 -18 71v21q0 36 -19.5 67t-53.5 50l-106 -45l-105 45q-73 -43 -73 -117v-92h-69q-10 0 -18 74v18q0 71 46 133t108 77l111 -42l105 45q6 -2 10.5 -4.5t5.5 -2.5q65 -26 105 -81.5t40 -124.5q80 37 80 113v96h17z
" />
    <glyph glyph-name="maichattawalowrightthai" 
d="M-102 1410v-96h-108v-108h-96v108h-108v96h108v108h86q5 0 10 -58v-50h108z" />
    <glyph glyph-name="maichattawalowrightthai" unicode="&#xf70d;" 
d="M-102 1410v-96h-108v-108h-96v108h-108v96h108v108h86q5 0 10 -58v-50h108z" />
    <glyph glyph-name="maichattawalowrightthai" unicode="&#x17d;" 
d="M-102 1410v-96h-108v-108h-96v108h-108v96h108v108h86q5 0 10 -58v-50h108z" />
    <glyph glyph-name="thanthakhatlowrightthai" 
d="M-39 1335l-431 -37v-23q-5 -59 -11 -59h-84v171l518 44z" />
    <glyph glyph-name="thanthakhatlowrightthai" unicode="&#xf70e;" 
d="M-39 1335l-431 -37v-23q-5 -59 -11 -59h-84v171l518 44z" />
    <glyph glyph-name="yoyingnobasethai" horiz-adv-x="1604" 
d="M1396 1017h95v-740q0 -121 -90.5 -205t-215.5 -84h-52q-125 0 -216 84.5t-91 204.5l1 456q-2 79 -89.5 138.5t-241.5 59.5q-128 0 -288 -52v-879h-95v947q204 79 383 79q186 0 306 -81.5t120 -211.5v-456q0 -79 61 -136t150 -57h52q89 0 150 57t61 136v740z" />
    <glyph glyph-name="yoyingnobasethai" unicode="&#xf70f;" horiz-adv-x="1604" 
d="M1396 1017h95v-740q0 -121 -90.5 -205t-215.5 -84h-52q-125 0 -216 84.5t-91 204.5l1 456q-2 79 -89.5 138.5t-241.5 59.5q-128 0 -288 -52v-879h-95v947q204 79 383 79q186 0 306 -81.5t120 -211.5v-456q0 -79 61 -136t150 -57h52q89 0 150 57t61 136v740z" />
    <glyph glyph-name="quoteleft" horiz-adv-x="321" 
d="M108 886l-10 364h105l-8 -364h-87z" />
    <glyph glyph-name="quoteleft" unicode="&#x2018;" horiz-adv-x="321" 
d="M108 886l-10 364h105l-8 -364h-87z" />
    <glyph glyph-name="quoteright" horiz-adv-x="319" 
d="M108 886l-10 364h105l-8 -364h-87z" />
    <glyph glyph-name="quoteright" unicode="&#x2019;" horiz-adv-x="319" 
d="M108 886l-10 364h105l-8 -364h-87z" />
    <glyph glyph-name="bullet" horiz-adv-x="702" 
d="M350 396q-73 0 -126.5 53t-53.5 127q0 73 54 126.5t126 53.5q75 0 127.5 -53t52.5 -127t-52.5 -127t-127.5 -53z" />
    <glyph glyph-name="bullet" unicode="&#x2022;" horiz-adv-x="702" 
d="M350 396q-73 0 -126.5 53t-53.5 127q0 73 54 126.5t126 53.5q75 0 127.5 -53t52.5 -127t-52.5 -127t-127.5 -53z" />
    <glyph glyph-name="endash" horiz-adv-x="1055" 
d="M109 533v96h825v-96h-825z" />
    <glyph glyph-name="endash" unicode="&#x2013;" horiz-adv-x="1055" 
d="M109 533v96h825v-96h-825z" />
    <glyph glyph-name="emdash" horiz-adv-x="1292" 
d="M109 533v96h1055v-96h-1055z" />
    <glyph glyph-name="emdash" unicode="&#x2014;" horiz-adv-x="1292" 
d="M109 533v96h1055v-96h-1055z" />
    <glyph glyph-name="maihanakatleftthai" 
d="M-689 1312l454 2v-98h-549v232h84q6 0 11 -58v-78z" />
    <glyph glyph-name="maihanakatleftthai" unicode="&#xf710;" 
d="M-689 1312l454 2v-98h-549v232h84q6 0 11 -58v-78z" />
    <glyph glyph-name="maihanakatleftthai" unicode="&#x2dc;" 
d="M-689 1312l454 2v-98h-549v232h84q6 0 11 -58v-78z" />
    <glyph glyph-name="nikhahitleftthai" 
d="M-432 1416q64 0 111 -47t47 -111q0 -66 -46.5 -112t-111.5 -46q-67 0 -112.5 45.5t-45.5 112.5q0 65 46 111.5t112 46.5zM-432 1190q28 0 48 20t20 48t-20 48t-48 20t-48 -20t-20 -48t20 -48t48 -20z" />
    <glyph glyph-name="nikhahitleftthai" unicode="&#xf711;" 
d="M-432 1416q64 0 111 -47t47 -111q0 -66 -46.5 -112t-111.5 -46q-67 0 -112.5 45.5t-45.5 112.5q0 65 46 111.5t112 46.5zM-432 1190q28 0 48 20t20 48t-20 48t-48 20t-48 -20t-20 -48t20 -48t48 -20z" />
    <glyph glyph-name="nikhahitleftthai" unicode="&#x2122;" 
d="M-432 1416q64 0 111 -47t47 -111q0 -66 -46.5 -112t-111.5 -46q-67 0 -112.5 45.5t-45.5 112.5q0 65 46 111.5t112 46.5zM-432 1190q28 0 48 20t20 48t-20 48t-48 20t-48 -20t-20 -48t20 -48t48 -20z" />
    <glyph glyph-name="maitaikhuleftthai" 
d="M-725 1458q-18 -16 -19 -45v-85q3 -61 75 -61q40 0 57 22l2 27h96v-17q0 -1 -0.5 -2.5t-0.5 -2.5l3 -11l9 -9q16 -12 42 -12q34 0 57 17.5t24 52.5h95q0 -77 -53.5 -121t-122.5 -44q-67 0 -105 35q-1 0 -3 -2q-41 -28 -100 -28q-67 0 -118.5 40.5t-51.5 115.5v87
q0 71 48.5 112t113.5 43h453v-96h-453q-30 0 -48 -16z" />
    <glyph glyph-name="maitaikhuleftthai" unicode="&#xf712;" 
d="M-725 1458q-18 -16 -19 -45v-85q3 -61 75 -61q40 0 57 22l2 27h96v-17q0 -1 -0.5 -2.5t-0.5 -2.5l3 -11l9 -9q16 -12 42 -12q34 0 57 17.5t24 52.5h95q0 -77 -53.5 -121t-122.5 -44q-67 0 -105 35q-1 0 -3 -2q-41 -28 -100 -28q-67 0 -118.5 40.5t-51.5 115.5v87
q0 71 48.5 112t113.5 43h453v-96h-453q-30 0 -48 -16z" />
    <glyph glyph-name="maitaikhuleftthai" unicode="&#x161;" 
d="M-725 1458q-18 -16 -19 -45v-85q3 -61 75 -61q40 0 57 22l2 27h96v-17q0 -1 -0.5 -2.5t-0.5 -2.5l3 -11l9 -9q16 -12 42 -12q34 0 57 17.5t24 52.5h95q0 -77 -53.5 -121t-122.5 -44q-67 0 -105 35q-1 0 -3 -2q-41 -28 -100 -28q-67 0 -118.5 40.5t-51.5 115.5v87
q0 71 48.5 112t113.5 43h453v-96h-453q-30 0 -48 -16z" />
    <glyph glyph-name="maiekupperleftthai" 
d="M-293 1838v-292h-96v292h96z" />
    <glyph glyph-name="maiekupperleftthai" unicode="&#xf713;" 
d="M-293 1838v-292h-96v292h96z" />
    <glyph glyph-name="maiekupperleftthai" unicode="&#x203a;" 
d="M-293 1838v-292h-96v292h96z" />
    <glyph glyph-name="maithoupperleftthai" 
d="M-520 1632h362v-95h-456v84q3 55 10 55l-60 -1v95h144v-138z" />
    <glyph glyph-name="maithoupperleftthai" unicode="&#xf714;" 
d="M-520 1632h362v-95h-456v84q3 55 10 55l-60 -1v95h144v-138z" />
    <glyph glyph-name="maithoupperleftthai" unicode="&#x153;" 
d="M-520 1632h362v-95h-456v84q3 55 10 55l-60 -1v95h144v-138z" />
    <glyph glyph-name="maitriupperleftthai" 
d="M-147 1807h67v-96q0 -68 -43 -122.5t-121 -82.5h-69q-10 0 -18 71v21q0 36 -19.5 67t-53.5 50l-106 -45l-105 45q-73 -43 -73 -117v-92h-69q-10 0 -18 74v18q0 71 46 133t108 77l111 -42l105 45q6 -2 10.5 -4.5t5.5 -2.5q65 -26 105 -81.5t40 -124.5q80 37 80 113v96h17z
" />
    <glyph glyph-name="maitriupperleftthai" unicode="&#xf715;" 
d="M-147 1807h67v-96q0 -68 -43 -122.5t-121 -82.5h-69q-10 0 -18 71v21q0 36 -19.5 67t-53.5 50l-106 -45l-105 45q-73 -43 -73 -117v-92h-69q-10 0 -18 74v18q0 71 46 133t108 77l111 -42l105 45q6 -2 10.5 -4.5t5.5 -2.5q65 -26 105 -81.5t40 -124.5q80 37 80 113v96h17z
" />
    <glyph glyph-name="maichattawaupperleftthai" 
d="M-292 1740v-96h-108v-108h-96v108h-108v96h108v108h86q5 0 10 -58v-50h108z" />
    <glyph glyph-name="maichattawaupperleftthai" unicode="&#xf716;" 
d="M-292 1740v-96h-108v-108h-96v108h-108v96h108v108h86q5 0 10 -58v-50h108z" />
    <glyph glyph-name="maichattawaupperleftthai" unicode="&#x17e;" 
d="M-292 1740v-96h-108v-108h-96v108h-108v96h108v108h86q5 0 10 -58v-50h108z" />
    <glyph glyph-name="thanthakhatupperleftthai" 
d="M-23 1591l-431 -37v-23q-5 -59 -11 -59h-84v171l518 44z" />
    <glyph glyph-name="thanthakhatupperleftthai" unicode="&#xf717;" 
d="M-23 1591l-431 -37v-23q-5 -59 -11 -59h-84v171l518 44z" />
    <glyph glyph-name="thanthakhatupperleftthai" unicode="&#x178;" 
d="M-23 1591l-431 -37v-23q-5 -59 -11 -59h-84v171l518 44z" />
    <glyph glyph-name="uni00A0" unicode="&#xa0;" horiz-adv-x="925" 
 />
    <glyph glyph-name="uni00A0" unicode="&#xe00;" horiz-adv-x="925" 
 />
    <glyph glyph-name="kokaithai" unicode="&#xa1;" horiz-adv-x="1036" 
d="M800 946q123 -83 123 -213v-733h-96v733q0 78 -87.5 138t-243.5 60q-133 0 -288 -52v-879h-95v947q201 80 383 80q185 0 304 -81z" />
    <glyph glyph-name="kokaithai" unicode="&#xe01;" horiz-adv-x="1036" 
d="M800 946q123 -83 123 -213v-733h-96v733q0 78 -87.5 138t-243.5 60q-133 0 -288 -52v-879h-95v947q201 80 383 80q185 0 304 -81z" />
    <glyph glyph-name="khokhaithai" unicode="&#xa2;" horiz-adv-x="988" 
d="M778 1020h94v-664q0 -153 -111.5 -259.5t-269.5 -106.5h-5q-157 0 -269 107t-112 259v133l114 384q0 22 -22.5 41t-45.5 19v96q64 -2 113.5 -47t49.5 -109l-115 -384v-133q0 -112 84 -191.5t203 -79.5h5q119 0 203 80t84 191v664z" />
    <glyph glyph-name="khokhaithai" unicode="&#xe02;" horiz-adv-x="988" 
d="M778 1020h94v-664q0 -153 -111.5 -259.5t-269.5 -106.5h-5q-157 0 -269 107t-112 259v133l114 384q0 22 -22.5 41t-45.5 19v96q64 -2 113.5 -47t49.5 -109l-115 -384v-133q0 -112 84 -191.5t203 -79.5h5q119 0 203 80t84 191v664z" />
    <glyph glyph-name="khokhuatthai" unicode="&#xa3;" horiz-adv-x="1048" 
d="M838 1018h94v-664q0 -152 -112 -259t-269 -107h-66q-157 0 -268.5 106.5t-111.5 259.5v133l126 377q-16 -2 -22 -2q-64 0 -113.5 45t-49.5 111h95q0 -22 21.5 -41.5t46.5 -19.5q24 0 46 19.5t22 41.5h82l1 -3q2 -2 2 -7q0 -24 -21 -94l-142 -427v-133q0 -111 83.5 -191
t202.5 -80h66q118 0 202.5 79.5t84.5 191.5v664z" />
    <glyph glyph-name="khokhuatthai" unicode="&#xe03;" horiz-adv-x="1048" 
d="M838 1018h94v-664q0 -152 -112 -259t-269 -107h-66q-157 0 -268.5 106.5t-111.5 259.5v133l126 377q-16 -2 -22 -2q-64 0 -113.5 45t-49.5 111h95q0 -22 21.5 -41.5t46.5 -19.5q24 0 46 19.5t22 41.5h82l1 -3q2 -2 2 -7q0 -24 -21 -94l-142 -427v-133q0 -111 83.5 -191
t202.5 -80h66q118 0 202.5 79.5t84.5 191.5v664z" />
    <glyph glyph-name="khokhwaithai" unicode="&#xa4;" horiz-adv-x="1088" 
d="M857 921q118 -107 118 -260v-661h-96v661q0 111 -87 190.5t-213 79.5h-70q-127 0 -214 -80t-87 -190v-179q38 18 76 18h209v-75q0 -10 -76 -21h-133q-32 0 -50.5 -10.5t-22 -20t-3.5 -19.5v-354h-95v664q1 100 55 183.5t144.5 131.5t196.5 48h70q162 0 278 -106z" />
    <glyph glyph-name="khokhwaithai" unicode="&#xe04;" horiz-adv-x="1088" 
d="M857 921q118 -107 118 -260v-661h-96v661q0 111 -87 190.5t-213 79.5h-70q-127 0 -214 -80t-87 -190v-179q38 18 76 18h209v-75q0 -10 -76 -21h-133q-32 0 -50.5 -10.5t-22 -20t-3.5 -19.5v-354h-95v664q1 100 55 183.5t144.5 131.5t196.5 48h70q162 0 278 -106z" />
    <glyph glyph-name="khokhonthai" unicode="&#xa5;" horiz-adv-x="1088" 
d="M857 938q118 -107 118 -260v-678h-96v678q0 74 -41 137t-112 97l-182 -79l-183 79q-72 -36 -112.5 -98t-40.5 -136v-196q38 18 76 18h209v-75q0 -10 -76 -21h-133q-32 0 -50.5 -10.5t-22 -20t-3.5 -19.5v-354h-95v678q0 115 69 206.5t179 132.5v1l183 -78l182 78v-1
q74 -27 131 -79z" />
    <glyph glyph-name="khokhonthai" unicode="&#xe05;" horiz-adv-x="1088" 
d="M857 938q118 -107 118 -260v-678h-96v678q0 74 -41 137t-112 97l-182 -79l-183 79q-72 -36 -112.5 -98t-40.5 -136v-196q38 18 76 18h209v-75q0 -10 -76 -21h-133q-32 0 -50.5 -10.5t-22 -20t-3.5 -19.5v-354h-95v678q0 115 69 206.5t179 132.5v1l183 -78l182 78v-1
q74 -27 131 -79z" />
    <glyph glyph-name="khorakhangthai" unicode="&#xa6;" horiz-adv-x="1033" 
d="M825 1017h95v-797q-1 -105 -89 -169t-221 -64q-186 0 -402 115v-10q-11 -92 -21 -92h-75v487l128 377q-16 -2 -22 -2q-65 0 -115 45t-51 111h96q0 -22 22.5 -41.5t47.5 -19.5q24 0 46.5 19.5t22.5 41.5h82l1 -3q2 -2 2 -8q0 -21 -25 -107l1 2l-140 -414v-276
q221 -130 402 -130q104 0 158.5 40.5t56.5 102.5v792z" />
    <glyph glyph-name="khorakhangthai" unicode="&#xe06;" horiz-adv-x="1033" 
d="M825 1017h95v-797q-1 -105 -89 -169t-221 -64q-186 0 -402 115v-10q-11 -92 -21 -92h-75v487l128 377q-16 -2 -22 -2q-65 0 -115 45t-51 111h96q0 -22 22.5 -41.5t47.5 -19.5q24 0 46.5 19.5t22.5 41.5h82l1 -3q2 -2 2 -8q0 -21 -25 -107l1 2l-140 -414v-276
q221 -130 402 -130q104 0 158.5 40.5t56.5 102.5v792z" />
    <glyph glyph-name="ngonguthai" unicode="&#xa7;" horiz-adv-x="839" 
d="M626 1017h96v-666q0 -132 -94 -236.5t-226 -121.5l-51 -2l-313 634h103l264 -533q99 25 160 96t61 163v666z" />
    <glyph glyph-name="ngonguthai" unicode="&#xe07;" horiz-adv-x="839" 
d="M626 1017h96v-666q0 -132 -94 -236.5t-226 -121.5l-51 -2l-313 634h103l264 -533q99 25 160 96t61 163v666z" />
    <glyph glyph-name="chochanthai" unicode="&#xa8;" horiz-adv-x="926" 
d="M689 946q122 -83 122 -213v-371q0 -154 -116.5 -260t-279.5 -106h-70h-1l-206 428h103l161 -333h13q126 0 213.5 80t87.5 191v371q0 78 -87.5 138t-243.5 60q-159 0 -345 -71l-39 87q203 80 384 80q185 0 304 -81z" />
    <glyph glyph-name="chochanthai" unicode="&#xe08;" horiz-adv-x="926" 
d="M689 946q122 -83 122 -213v-371q0 -154 -116.5 -260t-279.5 -106h-70h-1l-206 428h103l161 -333h13q126 0 213.5 80t87.5 191v371q0 78 -87.5 138t-243.5 60q-159 0 -345 -71l-39 87q203 80 384 80q185 0 304 -81z" />
    <glyph glyph-name="chochingthai" unicode="&#xa9;" horiz-adv-x="1012" 
d="M777 945q122 -83 122 -212v-733h-75q-11 0 -20 92q-206 -105 -381 -105q-138 0 -224 65t-86 173l-1 286h96v-286q0 -63 55.5 -103t159.5 -40q170 0 381 118v533q0 78 -87.5 138t-243.5 60q-159 0 -345 -71l-39 87q207 80 384 80q185 0 304 -82z" />
    <glyph glyph-name="chochingthai" unicode="&#xe09;" horiz-adv-x="1012" 
d="M777 945q122 -83 122 -212v-733h-75q-11 0 -20 92q-206 -105 -381 -105q-138 0 -224 65t-86 173l-1 286h96v-286q0 -63 55.5 -103t159.5 -40q170 0 381 118v533q0 78 -87.5 138t-243.5 60q-159 0 -345 -71l-39 87q207 80 384 80q185 0 304 -82z" />
    <glyph glyph-name="chochangthai" unicode="&#xaa;" horiz-adv-x="1053" 
d="M817 828q118 -65 118 -201v-281q0 -152 -112 -259t-269 -107h-67q-157 0 -268.5 106.5t-111.5 259.5v133l114 384h-1q0 22 -22 41t-46 19v96q64 0 113.5 -45.5t50.5 -110.5l-115 -384v-133q0 -111 83.5 -191t202.5 -80h67q118 0 202.5 79.5t84.5 191.5l-1 281
q0 44 -20.5 75t-55 45.5t-67 20.5t-69.5 6v1v96q27 0 50.5 3t55 16t53.5 34.5t37.5 62t15.5 95.5h95q0 -175 -118 -254z" />
    <glyph glyph-name="chochangthai" unicode="&#xe0a;" horiz-adv-x="1053" 
d="M817 828q118 -65 118 -201v-281q0 -152 -112 -259t-269 -107h-67q-157 0 -268.5 106.5t-111.5 259.5v133l114 384h-1q0 22 -22 41t-46 19v96q64 0 113.5 -45.5t50.5 -110.5l-115 -384v-133q0 -111 83.5 -191t202.5 -80h67q118 0 202.5 79.5t84.5 191.5l-1 281
q0 44 -20.5 75t-55 45.5t-67 20.5t-69.5 6v1v96q27 0 50.5 3t55 16t53.5 34.5t37.5 62t15.5 95.5h95q0 -175 -118 -254z" />
    <glyph glyph-name="sosothai" unicode="&#xab;" horiz-adv-x="1048" 
d="M815 835q118 -64 118 -202l-1 -280q-1 -153 -111.5 -259.5t-267.5 -106.5h-67q-157 0 -268.5 106.5t-111.5 259.5v133l126 377q-16 -2 -22 -2q-64 0 -113.5 45t-49.5 111h95q0 -21 21.5 -41t46.5 -20t46.5 20t21.5 41h80l3 -3q2 -2 2 -7q0 -21 -25 -108l-138 -413v-133
q0 -111 83.5 -191t202.5 -80h67q117 0 201 79.5t84 191.5v280q0 45 -21 76.5t-56 46t-67 20t-68 5.5v2v95q27 0 50 3t54.5 15.5t53.5 34t38 62.5t16 96h95q0 -175 -118 -254z" />
    <glyph glyph-name="sosothai" unicode="&#xe0b;" horiz-adv-x="1048" 
d="M815 835q118 -64 118 -202l-1 -280q-1 -153 -111.5 -259.5t-267.5 -106.5h-67q-157 0 -268.5 106.5t-111.5 259.5v133l126 377q-16 -2 -22 -2q-64 0 -113.5 45t-49.5 111h95q0 -21 21.5 -41t46.5 -20t46.5 20t21.5 41h80l3 -3q2 -2 2 -7q0 -21 -25 -108l-138 -413v-133
q0 -111 83.5 -191t202.5 -80h67q117 0 201 79.5t84 191.5v280q0 45 -21 76.5t-56 46t-67 20t-68 5.5v2v95q27 0 50 3t54.5 15.5t53.5 34t38 62.5t16 96h95q0 -175 -118 -254z" />
    <glyph glyph-name="chochoethai" unicode="&#xac;" horiz-adv-x="1606" 
d="M1398 1018h95v-793q0 -106 -73 -173t-189 -67q-139 0 -309 99q-10 -84 -20 -84h-75v733q0 80 -87.5 139t-243.5 59q-131 0 -287 -51v-880h-96v948q204 79 383 79q186 0 306.5 -81.5t120.5 -212.5v-537q173 -115 308 -115q81 0 123 38.5t44 105.5v793z" />
    <glyph glyph-name="chochoethai" unicode="&#xe0c;" horiz-adv-x="1606" 
d="M1398 1018h95v-793q0 -106 -73 -173t-189 -67q-139 0 -309 99q-10 -84 -20 -84h-75v733q0 80 -87.5 139t-243.5 59q-131 0 -287 -51v-880h-96v948q204 79 383 79q186 0 306.5 -81.5t120.5 -212.5v-537q173 -115 308 -115q81 0 123 38.5t44 105.5v793z" />
    <glyph glyph-name="yoyingthai" unicode="&#xad;" horiz-adv-x="1604" 
d="M1396 1017h95v-740q0 -121 -90.5 -205t-215.5 -84h-52q-125 0 -216 84.5t-91 204.5l1 456q-2 79 -89.5 138.5t-241.5 59.5q-128 0 -288 -52v-879h-95v947q204 79 383 79q186 0 306 -81.5t120 -211.5v-456q0 -79 61 -136t150 -57h52q89 0 150 57t61 136v740zM1380 -89
l89 -36q-35 -81 -112 -130.5t-172 -49.5h-52q-95 0 -172 49.5t-112 130.5l88 36q25 -53 78 -87t118 -34h52q66 0 119.5 34.5t75.5 86.5z" />
    <glyph glyph-name="yoyingthai" unicode="&#xe0d;" horiz-adv-x="1604" 
d="M1396 1017h95v-740q0 -121 -90.5 -205t-215.5 -84h-52q-125 0 -216 84.5t-91 204.5l1 456q-2 79 -89.5 138.5t-241.5 59.5q-128 0 -288 -52v-879h-95v947q204 79 383 79q186 0 306 -81.5t120 -211.5v-456q0 -79 61 -136t150 -57h52q89 0 150 57t61 136v740zM1380 -89
l89 -36q-35 -81 -112 -130.5t-172 -49.5h-52q-95 0 -172 49.5t-112 130.5l88 36q25 -53 78 -87t118 -34h52q66 0 119.5 34.5t75.5 86.5z" />
    <glyph glyph-name="yoyingthai" unicode="&#xde;" horiz-adv-x="1604" 
d="M1396 1017h95v-740q0 -121 -90.5 -205t-215.5 -84h-52q-125 0 -216 84.5t-91 204.5l1 456q-2 79 -89.5 138.5t-241.5 59.5q-128 0 -288 -52v-879h-95v947q204 79 383 79q186 0 306 -81.5t120 -211.5v-456q0 -79 61 -136t150 -57h52q89 0 150 57t61 136v740zM1380 -89
l89 -36q-35 -81 -112 -130.5t-172 -49.5h-52q-95 0 -172 49.5t-112 130.5l88 36q25 -53 78 -87t118 -34h52q66 0 119.5 34.5t75.5 86.5z" />
    <glyph glyph-name="dochadathai" unicode="&#xae;" horiz-adv-x="1035" 
d="M800 945q122 -83 122 -212v-891q0 -132 -120 -212.5t-306 -80.5q-180 0 -383 79l34 88q186 -72 349 -72q155 0 242.5 59.5t87.5 138.5v891q0 79 -88 138.5t-242 59.5q-129 0 -288 -52v-879h-95v947q203 79 383 79q183 0 304 -81z" />
    <glyph glyph-name="dochadathai" unicode="&#xe0e;" horiz-adv-x="1035" 
d="M800 945q122 -83 122 -212v-891q0 -132 -120 -212.5t-306 -80.5q-180 0 -383 79l34 88q186 -72 349 -72q155 0 242.5 59.5t87.5 138.5v891q0 79 -88 138.5t-242 59.5q-129 0 -288 -52v-879h-95v947q203 79 383 79q183 0 304 -81z" />
    <glyph glyph-name="topatakthai" unicode="&#xaf;" horiz-adv-x="1035" 
d="M800 945q122 -82 122 -212v-866v-293h-69q-248 165 -452 165q-101 0 -162.5 -38t-75.5 -96l-93 22q23 99 113 153t217 54q202 0 427 -132v140v891q0 79 -88.5 138.5t-242.5 59.5q-128 0 -287 -52v-879h-96v947q204 79 383 79q185 0 304 -81z" />
    <glyph glyph-name="topatakthai" unicode="&#xe0f;" horiz-adv-x="1035" 
d="M800 945q122 -82 122 -212v-866v-293h-69q-248 165 -452 165q-101 0 -162.5 -38t-75.5 -96l-93 22q23 99 113 153t217 54q202 0 427 -132v140v891q0 79 -88.5 138.5t-242.5 59.5q-128 0 -287 -52v-879h-96v947q204 79 383 79q185 0 304 -81z" />
    <glyph glyph-name="thothanthai" unicode="&#xb0;" horiz-adv-x="915" 
d="M666 -156l95 6q0 -62 -52 -107t-119 -45h-476l1 75q0 10 76 21h399q76 0 76 50zM760 978q-26 -32 -72 -62q113 -106 113 -256v-298q0 -145 -105.5 -249t-257.5 -115l-102 -2h-2l-205 428h102l161 -333q133 0 223 78.5t90 192.5v298q0 111 -87.5 191t-212.5 80h-69
q-81 0 -148.5 -35.5t-106.5 -94.5l-65 74q52 70 137.5 110.5t182.5 40.5h69q104 0 196 -49q38 12 75.5 52t37.5 58h95q0 -53 -49 -109z" />
    <glyph glyph-name="thothanthai" unicode="&#xe10;" horiz-adv-x="915" 
d="M666 -156l95 6q0 -62 -52 -107t-119 -45h-476l1 75q0 10 76 21h399q76 0 76 50zM760 978q-26 -32 -72 -62q113 -106 113 -256v-298q0 -145 -105.5 -249t-257.5 -115l-102 -2h-2l-205 428h102l161 -333q133 0 223 78.5t90 192.5v298q0 111 -87.5 191t-212.5 80h-69
q-81 0 -148.5 -35.5t-106.5 -94.5l-65 74q52 70 137.5 110.5t182.5 40.5h69q104 0 196 -49q38 12 75.5 52t37.5 58h95q0 -53 -49 -109z" />
    <glyph glyph-name="thonangmonthothai" unicode="&#xb1;" horiz-adv-x="1163" 
d="M1050 792v-792h-96l1 792q-2 62 -56.5 102t-158.5 40q-180 0 -402 -129v-805h-95v878q-32 -17 -69 -17q-64 0 -114.5 45.5t-50.5 110.5h95q0 -21 22 -41t48 -20q24 0 45.5 19t23.5 40v1v1l75 -1q5 0 11 -27.5t9 -63.5v-11q217 115 402 115q136 0 223 -65t87 -172z
M338 925q-2 18 -4 30q2 -12 4 -30z" />
    <glyph glyph-name="thonangmonthothai" unicode="&#xe11;" horiz-adv-x="1163" 
d="M1050 792v-792h-96l1 792q-2 62 -56.5 102t-158.5 40q-180 0 -402 -129v-805h-95v878q-32 -17 -69 -17q-64 0 -114.5 45.5t-50.5 110.5h95q0 -21 22 -41t48 -20q24 0 45.5 19t23.5 40v1v1l75 -1q5 0 11 -27.5t9 -63.5v-11q217 115 402 115q136 0 223 -65t87 -172z
M338 925q-2 18 -4 30q2 -12 4 -30z" />
    <glyph glyph-name="thophuthaothai" unicode="&#xb2;" horiz-adv-x="1657" 
d="M1544 1016v-791h-2h2q0 -106 -72.5 -173t-188.5 -67q-143 0 -309 99q-11 -84 -20 -84h-75v677q0 74 -41 136.5t-112 96.5l-182 -78l-183 78q-70 -36 -111 -97.5t-41 -135.5v-374q0 -64 23 -109.5t62.5 -68.5t82 -33t92.5 -10v-95q-44 0 -87.5 7t-94 28.5t-87.5 55t-62 92
t-25 133.5v374q0 114 69.5 206t178.5 132v1l183 -78l182 78v-1q111 -40 179.5 -132t68.5 -206v-482q175 -115 309 -115q81 0 122.5 39t43.5 105v792h95z" />
    <glyph glyph-name="thophuthaothai" unicode="&#xe12;" horiz-adv-x="1657" 
d="M1544 1016v-791h-2h2q0 -106 -72.5 -173t-188.5 -67q-143 0 -309 99q-11 -84 -20 -84h-75v677q0 74 -41 136.5t-112 96.5l-182 -78l-183 78q-70 -36 -111 -97.5t-41 -135.5v-374q0 -64 23 -109.5t62.5 -68.5t82 -33t92.5 -10v-95q-44 0 -87.5 7t-94 28.5t-87.5 55t-62 92
t-25 133.5v374q0 114 69.5 206t178.5 132v1l183 -78l182 78v-1q111 -40 179.5 -132t68.5 -206v-482q175 -115 309 -115q81 0 122.5 39t43.5 105v792h95z" />
    <glyph glyph-name="nonenthai" unicode="&#xb3;" horiz-adv-x="1605" 
d="M1396 1016h96v-1016h-75q-10 1 -20 84q-168 -98 -309 -98q-116 0 -188.5 66.5t-72.5 172.5v508q0 79 -88.5 138.5t-242.5 59.5q-128 0 -287 -52v-879h-96v947q204 79 383 79q187 0 306.5 -81.5t119.5 -211.5v-508q0 -65 42.5 -104.5t123.5 -39.5q136 0 308 115v820z" />
    <glyph glyph-name="nonenthai" unicode="&#xe13;" horiz-adv-x="1605" 
d="M1396 1016h96v-1016h-75q-10 1 -20 84q-168 -98 -309 -98q-116 0 -188.5 66.5t-72.5 172.5v508q0 79 -88.5 138.5t-242.5 59.5q-128 0 -287 -52v-879h-96v947q204 79 383 79q187 0 306.5 -81.5t119.5 -211.5v-508q0 -65 42.5 -104.5t123.5 -39.5q136 0 308 115v820z" />
    <glyph glyph-name="dodekthai" unicode="&#xb4;" horiz-adv-x="1083" 
d="M851 920q118 -107 118 -260v-660h-95v660q0 110 -88 190.5t-213 80.5h-69q-126 0 -213.5 -80.5t-87.5 -190.5v-356q0 -53 16.5 -93.5t42 -64t61 -38.5t69 -20t71.5 -5v-96q-45 1 -88 8t-93 28.5t-87 54.5t-62 91.5t-25 134.5v359q1 101 55 184.5t144.5 131t196.5 47.5h69
q164 0 278 -106z" />
    <glyph glyph-name="dodekthai" unicode="&#xe14;" horiz-adv-x="1083" 
d="M851 920q118 -107 118 -260v-660h-95v660q0 110 -88 190.5t-213 80.5h-69q-126 0 -213.5 -80.5t-87.5 -190.5v-356q0 -53 16.5 -93.5t42 -64t61 -38.5t69 -20t71.5 -5v-96q-45 1 -88 8t-93 28.5t-87 54.5t-62 91.5t-25 134.5v359q1 101 55 184.5t144.5 131t196.5 47.5h69
q164 0 278 -106z" />
    <glyph glyph-name="totaothai" unicode="&#xb5;" horiz-adv-x="1082" 
d="M851 938q118 -108 118 -260v-678h-96v678q0 73 -40.5 135.5t-111.5 97.5l-183 -79l-182 79q-71 -34 -112 -96.5t-41 -136.5v-374q0 -52 16 -92t41 -64t60.5 -39t69.5 -20.5t73 -5.5v-96q-44 1 -86.5 8t-93 28t-88 54t-62.5 91.5t-25 135.5v374q0 115 67.5 205t180.5 134
l182 -78l183 78q76 -30 130 -79z" />
    <glyph glyph-name="totaothai" unicode="&#xe15;" horiz-adv-x="1082" 
d="M851 938q118 -108 118 -260v-678h-96v678q0 73 -40.5 135.5t-111.5 97.5l-183 -79l-182 79q-71 -34 -112 -96.5t-41 -136.5v-374q0 -52 16 -92t41 -64t60.5 -39t69.5 -20.5t73 -5.5v-96q-44 1 -86.5 8t-93 28t-88 54t-62.5 91.5t-25 135.5v374q0 115 67.5 205t180.5 134
l182 -78l183 78q76 -30 130 -79z" />
    <glyph glyph-name="thothungthai" unicode="&#xb6;" horiz-adv-x="1034" 
d="M800 945q121 -82 121 -212v-733h-95v733q0 79 -88 138.5t-243 59.5q-128 0 -287 -52v-575q0 -132 40.5 -176.5t135.5 -44.5v-95q-133 0 -202.5 76t-69.5 240v643q204 79 383 79q184 0 305 -81z" />
    <glyph glyph-name="thothungthai" unicode="&#xe16;" horiz-adv-x="1034" 
d="M800 945q121 -82 121 -212v-733h-95v733q0 79 -88 138.5t-243 59.5q-128 0 -287 -52v-575q0 -132 40.5 -176.5t135.5 -44.5v-95q-133 0 -202.5 76t-69.5 240v643q204 79 383 79q184 0 305 -81z" />
    <glyph glyph-name="thothahanthai" unicode="&#xb7;" horiz-adv-x="1034" 
d="M208 0h-95v1017h75q11 0 20 -92v-10q217 115 402 115q137 0 224 -65t87 -172v-793h-96v793q0 61 -55 101.5t-160 40.5q-181 0 -402 -130v-805z" />
    <glyph glyph-name="thothahanthai" unicode="&#x2219;" horiz-adv-x="1034" 
d="M208 0h-95v1017h75q11 0 20 -92v-10q217 115 402 115q137 0 224 -65t87 -172v-793h-96v793q0 61 -55 101.5t-160 40.5q-181 0 -402 -130v-805z" />
    <glyph glyph-name="thothahanthai" unicode="&#xe17;" horiz-adv-x="1034" 
d="M208 0h-95v1017h75q11 0 20 -92v-10q217 115 402 115q137 0 224 -65t87 -172v-793h-96v793q0 61 -55 101.5t-160 40.5q-181 0 -402 -130v-805z" />
    <glyph glyph-name="thothongthai" unicode="&#xb8;" horiz-adv-x="972" 
d="M858 335h1v-5q-1 -56 -3 -92t-8 -72.5t-14 -58.5t-23 -42.5t-35 -31t-49.5 -19t-66 -11.5t-85.5 -3q-182 -4 -278 9t-139 47.5t-44.5 93t6.5 146.5q2 25 3 38h75q0 -40 6 -139q2 -28 4.5 -42t16 -28t30.5 -19t59.5 -9.5t89.5 -5t133 -0.5q149 0 186 19q16 8 28 68.5
t12 151.5v2q0 37 -13.5 64.5t-32.5 42.5t-52.5 26.5t-59 16t-66.5 11t-62 10.5q-11 3 -49.5 6.5t-76 7.5t-83.5 19t-80.5 38t-58 68t-23.5 106v3q3 78 38.5 134.5t94.5 87t122.5 44t135.5 13.5q188 0 337 -67l-39 -87q-131 59 -298 59q-134 0 -212.5 -46t-83.5 -141
q1 -21 6 -38t12.5 -28.5t21 -21t24.5 -15t31.5 -10.5t33.5 -7.5t37.5 -6.5t38.5 -7l92 -18q10 -2 52.5 -8t76.5 -12t79.5 -24t76.5 -43t53 -70t22 -104z" />
    <glyph glyph-name="thothongthai" unicode="&#xe18;" horiz-adv-x="972" 
d="M858 335h1v-5q-1 -56 -3 -92t-8 -72.5t-14 -58.5t-23 -42.5t-35 -31t-49.5 -19t-66 -11.5t-85.5 -3q-182 -4 -278 9t-139 47.5t-44.5 93t6.5 146.5q2 25 3 38h75q0 -40 6 -139q2 -28 4.5 -42t16 -28t30.5 -19t59.5 -9.5t89.5 -5t133 -0.5q149 0 186 19q16 8 28 68.5
t12 151.5v2q0 37 -13.5 64.5t-32.5 42.5t-52.5 26.5t-59 16t-66.5 11t-62 10.5q-11 3 -49.5 6.5t-76 7.5t-83.5 19t-80.5 38t-58 68t-23.5 106v3q3 78 38.5 134.5t94.5 87t122.5 44t135.5 13.5q188 0 337 -67l-39 -87q-131 59 -298 59q-134 0 -212.5 -46t-83.5 -141
q1 -21 6 -38t12.5 -28.5t21 -21t24.5 -15t31.5 -10.5t33.5 -7.5t37.5 -6.5t38.5 -7l92 -18q10 -2 52.5 -8t76.5 -12t79.5 -24t76.5 -43t53 -70t22 -104z" />
    <glyph glyph-name="nonuthai" unicode="&#xb9;" horiz-adv-x="1034" 
d="M826 1017h95v-1017h-75q-11 0 -20 92v10q-217 -115 -402 -115q-137 0 -224 65t-87 172v793h96v-793q0 -61 55 -101.5t160 -40.5q181 0 402 130v805z" />
    <glyph glyph-name="nonuthai" unicode="&#xe19;" horiz-adv-x="1034" 
d="M826 1017h95v-1017h-75q-11 0 -20 92v10q-217 -115 -402 -115q-137 0 -224 65t-87 172v793h96v-793q0 -61 55 -101.5t160 -40.5q181 0 402 130v805z" />
    <glyph glyph-name="bobaimaithai" unicode="&#xba;" horiz-adv-x="1065" 
d="M856 1018h96v-708q0 -136 -114.5 -228.5t-271.5 -92.5h-67q-157 0 -271.5 92.5t-114.5 228.5v708h96v-708q0 -91 83.5 -158t206.5 -67h67q122 0 206 67t84 158v708z" />
    <glyph glyph-name="bobaimaithai" unicode="&#xe1a;" horiz-adv-x="1065" 
d="M856 1018h96v-708q0 -136 -114.5 -228.5t-271.5 -92.5h-67q-157 0 -271.5 92.5t-114.5 228.5v708h96v-708q0 -91 83.5 -158t206.5 -67h67q122 0 206 67t84 158v708z" />
    <glyph glyph-name="poplathai" unicode="&#xbb;" horiz-adv-x="1064" 
d="M856 1280h95v-970q0 -136 -114.5 -228.5t-270.5 -92.5h-68q-157 0 -271 92t-114 229v708h95v-708q0 -91 83.5 -158t206.5 -67h68q122 0 205 67t85 158v970z" />
    <glyph glyph-name="poplathai" unicode="&#xe1b;" horiz-adv-x="1064" 
d="M856 1280h95v-970q0 -136 -114.5 -228.5t-270.5 -92.5h-68q-157 0 -271 92t-114 229v708h95v-708q0 -91 83.5 -158t206.5 -67h68q122 0 205 67t85 158v970z" />
    <glyph glyph-name="phophungthai" unicode="&#xbc;" horiz-adv-x="1084" 
d="M878 1017h95v-677q0 -115 -69.5 -207.5t-178.5 -132.5l-182 78l-183 -78v1q-109 40 -178.5 132t-69.5 207v522q0 64 50 110t113 46v-95q-24 0 -46 -20t-22 -41v-522q1 -74 41.5 -136.5t111.5 -97.5l183 79l182 -79q70 36 111.5 98t41.5 136v677z" />
    <glyph glyph-name="phophungthai" unicode="&#xe1c;" horiz-adv-x="1084" 
d="M878 1017h95v-677q0 -115 -69.5 -207.5t-178.5 -132.5l-182 78l-183 -78v1q-109 40 -178.5 132t-69.5 207v522q0 64 50 110t113 46v-95q-24 0 -46 -20t-22 -41v-522q1 -74 41.5 -136.5t111.5 -97.5l183 79l182 -79q70 36 111.5 98t41.5 136v677z" />
    <glyph glyph-name="fofathai" unicode="&#xbd;" horiz-adv-x="1083" 
d="M877 1279h95v-939q0 -75 -31 -142.5t-86 -117.5q-60 -54 -131 -80l-182 78l-183 -78v1q-73 27 -130 79q-118 107 -118 260v522q0 64 52 111q50 45 111 45v-95q-25 0 -47 -20q-21 -19 -21 -41v-522q2 -111 87 -190q28 -25 66 -44v1l183 78l182 -78v-1q38 19 66 44
q87 81 87 190v939z" />
    <glyph glyph-name="fofathai" unicode="&#xe1d;" horiz-adv-x="1083" 
d="M877 1279h95v-939q0 -75 -31 -142.5t-86 -117.5q-60 -54 -131 -80l-182 78l-183 -78v1q-73 27 -130 79q-118 107 -118 260v522q0 64 52 111q50 45 111 45v-95q-25 0 -47 -20q-21 -19 -21 -41v-522q2 -111 87 -190q28 -25 66 -44v1l183 78l182 -78v-1q38 19 66 44
q87 81 87 190v939z" />
    <glyph glyph-name="phophanthai" unicode="&#xbe;" horiz-adv-x="1128" 
d="M919 1017h96v-811q0 -92 -68 -156t-163 -64h-37q-48 0 -98 19t-71 52q-22 -32 -75.5 -51.5t-104.5 -19.5h-39q-102 0 -174 64t-72 156v811h95v-811q0 -48 46 -86.5t105 -38.5h39q41 0 75 18.5t52 48.5q-9 34 -9 58v358h96v-358q0 -52 39.5 -88.5t95.5 -36.5h37
q56 0 95.5 36.5t39.5 88.5v811z" />
    <glyph glyph-name="phophanthai" unicode="&#xe1e;" horiz-adv-x="1128" 
d="M919 1017h96v-811q0 -92 -68 -156t-163 -64h-37q-48 0 -98 19t-71 52q-22 -32 -75.5 -51.5t-104.5 -19.5h-39q-102 0 -174 64t-72 156v811h95v-811q0 -48 46 -86.5t105 -38.5h39q41 0 75 18.5t52 48.5q-9 34 -9 58v358h96v-358q0 -52 39.5 -88.5t95.5 -36.5h37
q56 0 95.5 36.5t39.5 88.5v811z" />
    <glyph glyph-name="fofanthai" unicode="&#xbf;" horiz-adv-x="1128" 
d="M920 1278h95v-1074q0 -91 -72.5 -155.5t-173.5 -64.5h-39q-108 0 -180 72q-22 -33 -71.5 -52.5t-97.5 -19.5h-37q-94 0 -162.5 64.5t-68.5 155.5v812h96v-812q0 -51 39 -87.5t96 -36.5h37q56 0 96 36.5t40 87.5v359h95v-359q0 -25 -9 -57q43 -67 127 -67h39
q60 0 105.5 38.5t45.5 85.5v1074z" />
    <glyph glyph-name="fofanthai" unicode="&#xe1f;" horiz-adv-x="1128" 
d="M920 1278h95v-1074q0 -91 -72.5 -155.5t-173.5 -64.5h-39q-108 0 -180 72q-22 -33 -71.5 -52.5t-97.5 -19.5h-37q-94 0 -162.5 64.5t-68.5 155.5v812h96v-812q0 -51 39 -87.5t96 -36.5h37q56 0 96 36.5t40 87.5v359h95v-359q0 -25 -9 -57q43 -67 127 -67h39
q60 0 105.5 38.5t45.5 85.5v1074z" />
    <glyph glyph-name="phosamphaothai" unicode="&#xc0;" horiz-adv-x="1038" 
d="M803 947q122 -83 122 -212v-735h-95v735q-2 80 -89 139t-243 59q-133 0 -288 -52v-736q0 -66 -50 -111.5t-114 -45.5v96q25 0 46.5 19.5t21.5 41.5v804q203 80 384 80q185 0 305 -82z" />
    <glyph glyph-name="phosamphaothai" unicode="&#xe20;" horiz-adv-x="1038" 
d="M803 947q122 -83 122 -212v-735h-95v735q-2 80 -89 139t-243 59q-133 0 -288 -52v-736q0 -66 -50 -111.5t-114 -45.5v96q25 0 46.5 19.5t21.5 41.5v804q203 80 384 80q185 0 305 -82z" />
    <glyph glyph-name="momathai" unicode="&#xc1;" horiz-adv-x="1034" 
d="M209 1017v-805q221 -130 402 -130q105 0 163 44q50 38 52 98v793h95v-793q0 -109 -90 -175q-85 -62 -220 -62q-186 0 -402 115v-10q-11 -92 -21 -92h-75v1017h96z" />
    <glyph glyph-name="momathai" unicode="&#xe21;" horiz-adv-x="1034" 
d="M209 1017v-805q221 -130 402 -130q105 0 163 44q50 38 52 98v793h95v-793q0 -109 -90 -175q-85 -62 -220 -62q-186 0 -402 115v-10q-11 -92 -21 -92h-75v1017h96z" />
    <glyph glyph-name="yoyakthai" unicode="&#xc2;" horiz-adv-x="1059" 
d="M850 1018h95v-710q0 -136 -114 -228.5t-272 -92.5h-68q-158 0 -272 92.5t-114 228.5v38q0 68 25 127.5t66 73.5q-91 81 -91 216v255h75q10 0 21 -91v-164q0 -82 39 -127.5t106 -45.5v-96q-30 0 -53.5 -6t-45.5 -20.5t-34.5 -45.5t-12.5 -76v-38q0 -90 84.5 -157.5
t206.5 -67.5h68q123 0 207 67.5t84 157.5v710z" />
    <glyph glyph-name="yoyakthai" unicode="&#xe22;" horiz-adv-x="1059" 
d="M850 1018h95v-710q0 -136 -114 -228.5t-272 -92.5h-68q-158 0 -272 92.5t-114 228.5v38q0 68 25 127.5t66 73.5q-91 81 -91 216v255h75q10 0 21 -91v-164q0 -82 39 -127.5t106 -45.5v-96q-30 0 -53.5 -6t-45.5 -20.5t-34.5 -45.5t-12.5 -76v-38q0 -90 84.5 -157.5
t206.5 -67.5h68q123 0 207 67.5t84 157.5v710z" />
    <glyph glyph-name="roruathai" unicode="&#xc3;" horiz-adv-x="911" 
d="M817 267v-1h-1q-3 -63 -28 -112t-63 -79.5t-90 -50.5t-103 -27.5t-107 -7.5q-185 0 -336 66l39 87q132 -58 297 -58q134 0 212.5 46.5t83.5 140.5q0 32 -9 57t-28 42.5t-37.5 29.5t-49.5 21.5t-52.5 14.5t-57 12t-52.5 11q-4 1 -49 8.5t-78 15t-82.5 28.5t-82 48.5
t-56.5 75.5t-24 109v2q3 64 28 114t63.5 80.5t91 50t103 27t106.5 8.5q189 -2 336 -66l-38 -88q-130 58 -298 58q-133 0 -213.5 -46t-82.5 -142q0 -38 16 -67.5t37 -46.5t57.5 -31t62 -20t67 -14t56.5 -11h1q9 -2 37 -6.5t52 -9t58.5 -15t62 -23t57 -34t49 -48t32.5 -65
t13 -84.5z" />
    <glyph glyph-name="roruathai" unicode="&#xe23;" horiz-adv-x="911" 
d="M817 267v-1h-1q-3 -63 -28 -112t-63 -79.5t-90 -50.5t-103 -27.5t-107 -7.5q-185 0 -336 66l39 87q132 -58 297 -58q134 0 212.5 46.5t83.5 140.5q0 32 -9 57t-28 42.5t-37.5 29.5t-49.5 21.5t-52.5 14.5t-57 12t-52.5 11q-4 1 -49 8.5t-78 15t-82.5 28.5t-82 48.5
t-56.5 75.5t-24 109v2q3 64 28 114t63.5 80.5t91 50t103 27t106.5 8.5q189 -2 336 -66l-38 -88q-130 58 -298 58q-133 0 -213.5 -46t-82.5 -142q0 -38 16 -67.5t37 -46.5t57.5 -31t62 -20t67 -14t56.5 -11h1q9 -2 37 -6.5t52 -9t58.5 -15t62 -23t57 -34t49 -48t32.5 -65
t13 -84.5z" />
    <glyph glyph-name="ruthai" unicode="&#xc4;" horiz-adv-x="1038" 
d="M802 945q123 -83 123 -213v-1187h-96v1187q0 80 -88.5 139.5t-242.5 59.5q-129 0 -289 -52v-577q0 -69 11 -113t35 -67t54 -31.5t77 -8.5v-96q-133 0 -201.5 74.5t-71.5 241.5v645q205 79 385 79q187 0 304 -81z" />
    <glyph glyph-name="ruthai" unicode="&#xe24;" horiz-adv-x="1038" 
d="M802 945q123 -83 123 -213v-1187h-96v1187q0 80 -88.5 139.5t-242.5 59.5q-129 0 -289 -52v-577q0 -69 11 -113t35 -67t54 -31.5t77 -8.5v-96q-133 0 -201.5 74.5t-71.5 241.5v645q205 79 385 79q187 0 304 -81z" />
    <glyph glyph-name="lolingthai" unicode="&#xc5;" horiz-adv-x="1024" 
d="M788 947q123 -83 123 -213v-734h-96v395q-214 125 -391 125q-120 0 -186 -55t-66 -153q0 -71 6 -109.5t28 -68.5t63 -40.5t113 -10.5v-95q-90 0 -150 19.5t-94 61.5t-48 99.5t-14 143.5q0 138 97 221t251 83q181 0 391 -111v229q0 78 -87.5 138t-243.5 60
q-162 0 -350 -72l-35 89q205 79 385 79q185 0 304 -81z" />
    <glyph glyph-name="lolingthai" unicode="&#xe25;" horiz-adv-x="1024" 
d="M788 947q123 -83 123 -213v-734h-96v395q-214 125 -391 125q-120 0 -186 -55t-66 -153q0 -71 6 -109.5t28 -68.5t63 -40.5t113 -10.5v-95q-90 0 -150 19.5t-94 61.5t-48 99.5t-14 143.5q0 138 97 221t251 83q181 0 391 -111v229q0 78 -87.5 138t-243.5 60
q-162 0 -350 -72l-35 89q205 79 385 79q185 0 304 -81z" />
    <glyph glyph-name="luthai" unicode="&#xc6;" horiz-adv-x="1037" 
d="M802 945q122 -83 122 -212v-1188h-96v1188q0 79 -88.5 138.5t-242.5 59.5q-133 0 -289 -52v-736q0 -66 -50 -111.5t-113 -45.5v96q24 0 46 19.5t22 41.5v804q204 79 384 79q187 0 305 -81z" />
    <glyph glyph-name="luthai" unicode="&#xe26;" horiz-adv-x="1037" 
d="M802 945q122 -83 122 -212v-1188h-96v1188q0 79 -88.5 138.5t-242.5 59.5q-133 0 -289 -52v-736q0 -66 -50 -111.5t-113 -45.5v96q24 0 46 19.5t22 41.5v804q204 79 384 79q187 0 305 -81z" />
    <glyph glyph-name="wowaenthai" unicode="&#xc7;" horiz-adv-x="951" 
d="M721 945q122 -83 122 -213v-380q0 -152 -116.5 -259.5t-279.5 -107.5h-70q-97 0 -182.5 41t-138.5 111l66 74q39 -60 106.5 -95t148.5 -35h70q125 0 213 80t88 191v380q0 79 -88 138.5t-244 59.5q-164 0 -349 -73l-35 89q203 80 384 80q184 0 305 -81z" />
    <glyph glyph-name="wowaenthai" unicode="&#xe27;" horiz-adv-x="951" 
d="M721 945q122 -83 122 -213v-380q0 -152 -116.5 -259.5t-279.5 -107.5h-70q-97 0 -182.5 41t-138.5 111l66 74q39 -60 106.5 -95t148.5 -35h70q125 0 213 80t88 191v380q0 79 -88 138.5t-244 59.5q-164 0 -349 -73l-35 89q203 80 384 80q184 0 305 -81z" />
    <glyph glyph-name="sosalathai" unicode="&#xc8;" horiz-adv-x="1079" 
d="M846 924q1 0 3 -2q117 -106 117 -260v-662h-95v662q0 110 -88 190t-213 80h-70q-127 0 -214 -79.5t-87 -190.5v-179q34 17 76 17h209v-74q0 -12 -77 -21h-132q-40 0 -58 -14.5t-18 -32.5v-4v-354h-96v665q1 151 118 257t279 106h70q95 0 182 -41q28 0 77.5 44t49.5 68v1
h96q0 -48 -37.5 -96t-91.5 -80z" />
    <glyph glyph-name="sosalathai" unicode="&#xe28;" horiz-adv-x="1079" 
d="M846 924q1 0 3 -2q117 -106 117 -260v-662h-95v662q0 110 -88 190t-213 80h-70q-127 0 -214 -79.5t-87 -190.5v-179q34 17 76 17h209v-74q0 -12 -77 -21h-132q-40 0 -58 -14.5t-18 -32.5v-4v-354h-96v665q1 151 118 257t279 106h70q95 0 182 -41q28 0 77.5 44t49.5 68v1
h96q0 -48 -37.5 -96t-91.5 -80z" />
    <glyph glyph-name="sorusithai" unicode="&#xc9;" horiz-adv-x="1067" 
d="M1005 594v-96h-51v-191q0 -137 -115 -229t-272 -92h-68q-101 0 -189.5 41t-142.5 115.5t-54 164.5v711h96v-711q0 -90 84 -157.5t206 -67.5h68q123 0 207 67t84 158v191h-329v75q0 12 77 21h252v424h96v-424h51z" />
    <glyph glyph-name="sorusithai" unicode="&#xe29;" horiz-adv-x="1067" 
d="M1005 594v-96h-51v-191q0 -137 -115 -229t-272 -92h-68q-101 0 -189.5 41t-142.5 115.5t-54 164.5v711h96v-711q0 -90 84 -157.5t206 -67.5h68q123 0 207 67t84 158v191h-329v75q0 12 77 21h252v424h96v-424h51z" />
    <glyph glyph-name="sosuathai" unicode="&#xca;" horiz-adv-x="1024" 
d="M916 1041q-31 -61 -104 -112q99 -80 99 -195v-734h-96v395q-212 125 -391 125q-120 0 -186 -55t-66 -153q0 -71 6 -109.5t28 -68.5t63 -40.5t112 -10.5v-95q-173 0 -239 75.5t-66 248.5q0 139 97 221.5t251 82.5q182 0 391 -111v229q0 79 -88 139t-243 60
q-160 0 -350 -73l-35 89q204 79 385 79q126 0 227 -41q33 0 79 46.5t46 66.5h95q0 -29 -15 -59z" />
    <glyph glyph-name="sosuathai" unicode="&#xe2a;" horiz-adv-x="1024" 
d="M916 1041q-31 -61 -104 -112q99 -80 99 -195v-734h-96v395q-212 125 -391 125q-120 0 -186 -55t-66 -153q0 -71 6 -109.5t28 -68.5t63 -40.5t112 -10.5v-95q-173 0 -239 75.5t-66 248.5q0 139 97 221.5t251 82.5q182 0 391 -111v229q0 79 -88 139t-243 60
q-160 0 -350 -73l-35 89q204 79 385 79q126 0 227 -41q33 0 79 46.5t46 66.5h95q0 -29 -15 -59z" />
    <glyph glyph-name="hohipthai" unicode="&#xcb;" horiz-adv-x="1036" 
d="M923 507v-507h-96v507q0 62 -56 102.5t-159 40.5q-181 0 -403 -130v-520h-96v1019h75q12 0 21 -92v-297q170 90 323 110q3 0 9 1t11 1.5t10 0.5q144 17 204.5 76.5t60.5 197.5h96q0 -217 -142 -305q65 -27 103.5 -82t38.5 -123z" />
    <glyph glyph-name="hohipthai" unicode="&#xe2b;" horiz-adv-x="1036" 
d="M923 507v-507h-96v507q0 62 -56 102.5t-159 40.5q-181 0 -403 -130v-520h-96v1019h75q12 0 21 -92v-297q170 90 323 110q3 0 9 1t11 1.5t10 0.5q144 17 204.5 76.5t60.5 197.5h96q0 -217 -142 -305q65 -27 103.5 -82t38.5 -123z" />
    <glyph glyph-name="lochulathai" unicode="&#xcc;" horiz-adv-x="1128" 
d="M982 1031q-32 -60 -85 -96q118 -65 118 -200v-528q0 -92 -72 -156t-174 -64h-39q-111 0 -180 71q-71 -71 -169 -71h-37q-95 0 -163 64.5t-68 155.5v811h95v-811q0 -51 40.5 -88t95.5 -37h37q56 0 95.5 36.5t39.5 88.5v358h96v-358q0 -24 -9 -58q18 -30 52 -48.5t75 -18.5
h39q59 0 105 38.5t46 86.5v526q0 36 -14 63.5t-35.5 43t-51 25.5t-56 13t-56.5 3v1v96q213 0 213 212v91h95v-91q0 -91 -33 -159z" />
    <glyph glyph-name="lochulathai" unicode="&#xe2c;" horiz-adv-x="1128" 
d="M982 1031q-32 -60 -85 -96q118 -65 118 -200v-528q0 -92 -72 -156t-174 -64h-39q-111 0 -180 71q-71 -71 -169 -71h-37q-95 0 -163 64.5t-68 155.5v811h95v-811q0 -51 40.5 -88t95.5 -37h37q56 0 95.5 36.5t39.5 88.5v358h96v-358q0 -24 -9 -58q18 -30 52 -48.5t75 -18.5
h39q59 0 105 38.5t46 86.5v526q0 36 -14 63.5t-35.5 43t-51 25.5t-56 13t-56.5 3v1v96q213 0 213 212v91h95v-91q0 -91 -33 -159z" />
    <glyph glyph-name="oangthai" unicode="&#xcd;" horiz-adv-x="1017" 
d="M782 945q122 -83 122 -213v-443q0 -129 -108 -216t-256 -87h-63q-97 0 -180 38.5t-133.5 108.5t-50.5 156v222h96v-222q0 -83 77 -145.5t191 -62.5h63q114 0 191 62t77 146v443q0 80 -88 139t-243 59q-163 0 -350 -73l-34 89q203 80 384 80q184 0 305 -81z" />
    <glyph glyph-name="oangthai" unicode="&#xe2d;" horiz-adv-x="1017" 
d="M782 945q122 -83 122 -213v-443q0 -129 -108 -216t-256 -87h-63q-97 0 -180 38.5t-133.5 108.5t-50.5 156v222h96v-222q0 -83 77 -145.5t191 -62.5h63q114 0 191 62t77 146v443q0 80 -88 139t-243 59q-163 0 -350 -73l-34 89q203 80 384 80q184 0 305 -81z" />
    <glyph glyph-name="honokhukthai" unicode="&#xce;" horiz-adv-x="1017" 
d="M790 938q114 -81 114 -206v-444q0 -128 -108 -215.5t-256 -87.5h-63q-148 0 -256 87t-108 216v223h95v-223q2 -84 78.5 -145.5t190.5 -61.5h63q113 0 190.5 62t77.5 145v444q0 78 -87.5 138t-243.5 60q-163 0 -350 -73l-35 89q204 80 385 80q107 0 204 -33v1
q31 0 74.5 37t51.5 60l1 6h96q0 -80 -114 -159z" />
    <glyph glyph-name="honokhukthai" unicode="&#xe2e;" horiz-adv-x="1017" 
d="M790 938q114 -81 114 -206v-444q0 -128 -108 -215.5t-256 -87.5h-63q-148 0 -256 87t-108 216v223h95v-223q2 -84 78.5 -145.5t190.5 -61.5h63q113 0 190.5 62t77.5 145v444q0 78 -87.5 138t-243.5 60q-163 0 -350 -73l-35 89q204 80 385 80q107 0 204 -33v1
q31 0 74.5 37t51.5 60l1 6h96q0 -80 -114 -159z" />
    <glyph glyph-name="paiyannoithai" unicode="&#xcf;" horiz-adv-x="937" 
d="M749 1021h75v-919q-10 -92 -20 -92h-75v664q-203 -124 -373 -126q-128 0 -205 72q-76 68 -76 177q0 140 124 259l66 -70q-94 -90 -94 -189q0 -67 45 -107q49 -46 140 -46q160 0 373 142v143q10 92 20 92z" />
    <glyph glyph-name="paiyannoithai" unicode="&#xe2f;" horiz-adv-x="937" 
d="M749 1021h75v-919q-10 -92 -20 -92h-75v664q-203 -124 -373 -126q-128 0 -205 72q-76 68 -76 177q0 140 124 259l66 -70q-94 -90 -94 -189q0 -67 45 -107q49 -46 140 -46q160 0 373 142v143q10 92 20 92z" />
    <glyph glyph-name="saraathai" unicode="&#xd0;" horiz-adv-x="564" 
d="M464 763v-75h-289q-76 11 -76 21l-1 75h289q77 -9 77 -21zM464 308v-75h-289q-76 9 -76 21l-1 75h289q77 -11 77 -21z" />
    <glyph glyph-name="saraathai" unicode="&#xe30;" horiz-adv-x="564" 
d="M464 763v-75h-289q-76 11 -76 21l-1 75h289q77 -9 77 -21zM464 308v-75h-289q-76 9 -76 21l-1 75h289q77 -11 77 -21z" />
    <glyph glyph-name="maihanakatthai" unicode="&#xd1;" 
d="M-509 1312l454 2v-98h-549v232h84q6 0 11 -58v-78z" />
    <glyph glyph-name="maihanakatthai" unicode="&#xe31;" 
d="M-509 1312l454 2v-98h-549v232h84q6 0 11 -58v-78z" />
    <glyph glyph-name="saraaathai" unicode="&#xd2;" horiz-adv-x="855" 
d="M742 731v-731h-96v731q0 84 -70.5 143.5t-199.5 59.5q-139 0 -306 -78l-40 87q187 87 346 87q162 0 264 -86t102 -213z" />
    <glyph glyph-name="saraaathai" unicode="&#xe32;" horiz-adv-x="855" 
d="M742 731v-731h-96v731q0 84 -70.5 143.5t-199.5 59.5q-139 0 -306 -78l-40 87q187 87 346 87q162 0 264 -86t102 -213z" />
    <glyph glyph-name="saraamthai" unicode="&#xd3;" horiz-adv-x="855" 
d="M-240 1466q64 0 111 -47t47 -111q0 -66 -46.5 -112t-111.5 -46q-67 0 -112.5 45.5t-45.5 112.5q0 65 46 111.5t112 46.5zM-240 1240q28 0 48 20t20 48t-20 48t-48 20t-48 -20t-20 -48t20 -48t48 -20zM742 731v-731h-96v731q0 84 -70.5 143.5t-199.5 59.5q-139 0 -306 -78
l-40 87q187 87 346 87q162 0 264 -86t102 -213z" />
    <glyph glyph-name="saraamthai" unicode="&#xe33;" horiz-adv-x="855" 
d="M-240 1466q64 0 111 -47t47 -111q0 -66 -46.5 -112t-111.5 -46q-67 0 -112.5 45.5t-45.5 112.5q0 65 46 111.5t112 46.5zM-240 1240q28 0 48 20t20 48t-20 48t-48 20t-48 -20t-20 -48t20 -48t48 -20zM742 731v-731h-96v731q0 84 -70.5 143.5t-199.5 59.5q-139 0 -306 -78
l-40 87q187 87 346 87q162 0 264 -86t102 -213z" />
    <glyph glyph-name="saraithai" unicode="&#xd4;" 
d="M-192 1311q79 -11 79 -21v-74h-787v47v27q0 10 79 21h629z" />
    <glyph glyph-name="saraithai" unicode="&#xe34;" 
d="M-192 1311q79 -11 79 -21v-74h-787v47v27q0 10 79 21h629z" />
    <glyph glyph-name="saraiithai" unicode="&#xd5;" 
d="M-188 1387h75v-171h-787v74q0 10 76 21h615q9 76 21 76z" />
    <glyph glyph-name="saraiithai" unicode="&#xe35;" 
d="M-188 1387h75v-171h-787v74q0 10 76 21h615q9 76 21 76z" />
    <glyph glyph-name="sarauethai" unicode="&#xd6;" 
d="M-184 1420q42 0 72 -30t30 -73q0 -42 -30 -71.5t-72 -29.5h-716v74q0 10 79 21h535q0 1 -0.5 3t-0.5 3q0 43 30 73t73 30z" />
    <glyph glyph-name="sarauethai" unicode="&#xe36;" 
d="M-184 1420q42 0 72 -30t30 -73q0 -42 -30 -71.5t-72 -29.5h-716v74q0 10 79 21h535q0 1 -0.5 3t-0.5 3q0 43 30 73t73 30z" />
    <glyph glyph-name="saraueethai" unicode="&#xd7;" 
d="M-160 1387h48v-171h-788v74q0 10 77 21h411q10 76 20 76h75v-76h109q10 76 21 76h27z" />
    <glyph glyph-name="saraueethai" unicode="&#xe37;" 
d="M-160 1387h48v-171h-788v74q0 10 77 21h411q10 76 20 76h75v-76h109q10 76 21 76h27z" />
    <glyph glyph-name="sarauthai" unicode="&#xd8;" 
d="M-457 -165h144v-268h-92v95q9 77 20 77h-72v96z" />
    <glyph glyph-name="sarauthai" unicode="&#xe38;" 
d="M-457 -165h144v-268h-92v95q9 77 20 77h-72v96z" />
    <glyph glyph-name="sarauuthai" unicode="&#xd9;" 
d="M-296 -160h95v-121q0 -72 -49 -115.5t-114 -43.5q-61 0 -109 38.5t-51 103.5q3 42 9 42h-60v96h145v-125q3 -60 66 -60q29 0 48 16t20 48v121z" />
    <glyph glyph-name="sarauuthai" unicode="&#xe39;" 
d="M-296 -160h95v-121q0 -72 -49 -115.5t-114 -43.5q-61 0 -109 38.5t-51 103.5q3 42 9 42h-60v96h145v-125q3 -60 66 -60q29 0 48 16t20 48v121z" />
    <glyph glyph-name="phinthuthai" unicode="&#xda;" 
d="M-256 -243q0 -33 -23.5 -56t-55.5 -23q-33 0 -55.5 23t-22.5 56q0 32 22.5 55t55.5 23q32 0 55.5 -23t23.5 -55z" />
    <glyph glyph-name="phinthuthai" unicode="&#xe3a;" 
d="M-256 -243q0 -33 -23.5 -56t-55.5 -23q-33 0 -55.5 23t-22.5 56q0 32 22.5 55t55.5 23q32 0 55.5 -23t23.5 -55z" />
    <glyph glyph-name="nptp3.001march2007p" unicode="&#xdb;" 
 />
    <glyph glyph-name="nptp3.001march2007p" unicode="&#xe3b;" 
 />
    <glyph glyph-name="nptp3.001march2007u" unicode="&#xdc;" 
 />
    <glyph glyph-name="nptp3.001march2007u" unicode="&#xe3c;" 
 />
    <glyph glyph-name="nptp3.001march2007c" unicode="&#xdd;" 
 />
    <glyph glyph-name="nptp3.001march2007c" unicode="&#xe3d;" 
 />
    <glyph glyph-name="bahtthai" unicode="&#xdf;" horiz-adv-x="1251" 
d="M536 1308h97v-145q99 0 168 -7q129 -16 185 -87t56 -213v-1q0 -151 -83 -214q74 -30 105 -100.5t31 -181.5v-1q0 -63 -7 -112t-23 -85.5t-35.5 -63t-52.5 -44.5t-64 -28.5t-80.5 -16t-92.5 -7t-107 -1.5v-127h-97v127l-388 1v1162h388v145zM999 359q0 34 -1.5 60
t-9.5 47.5t-12.5 37t-23.5 28t-28.5 20t-41 13.5t-48.5 8.5t-63.5 4t-72.5 1.5h-88h-30h-336v-482l565 7q75 8 112.5 27t57.5 72t20 154v2zM244 1068v-392l426 -1q155 0 219 36q29 16 42.5 47.5t13.5 96.5h1l-1 1q0 39 -2.5 66.5t-12 50.5t-20 37.5t-33 26t-45 17t-63 9
t-78.5 4.5t-100 1h-347z" />
    <glyph glyph-name="bahtthai" unicode="&#xe3f;" horiz-adv-x="1251" 
d="M536 1308h97v-145q99 0 168 -7q129 -16 185 -87t56 -213v-1q0 -151 -83 -214q74 -30 105 -100.5t31 -181.5v-1q0 -63 -7 -112t-23 -85.5t-35.5 -63t-52.5 -44.5t-64 -28.5t-80.5 -16t-92.5 -7t-107 -1.5v-127h-97v127l-388 1v1162h388v145zM999 359q0 34 -1.5 60
t-9.5 47.5t-12.5 37t-23.5 28t-28.5 20t-41 13.5t-48.5 8.5t-63.5 4t-72.5 1.5h-88h-30h-336v-482l565 7q75 8 112.5 27t57.5 72t20 154v2zM244 1068v-392l426 -1q155 0 219 36q29 16 42.5 47.5t13.5 96.5h1l-1 1q0 39 -2.5 66.5t-12 50.5t-20 37.5t-33 26t-45 17t-63 9
t-78.5 4.5t-100 1h-347z" />
    <glyph glyph-name="saraethai" unicode="&#xe0;" horiz-adv-x="367" 
d="M135 0v1018h98v-1018h-98z" />
    <glyph glyph-name="saraethai" unicode="&#xe40;" horiz-adv-x="367" 
d="M135 0v1018h98v-1018h-98z" />
    <glyph glyph-name="saraaethai" unicode="&#xe1;" horiz-adv-x="692" 
d="M126 0v1018h98v-1018h-98zM476 0v1018h98v-1018h-98z" />
    <glyph glyph-name="saraaethai" unicode="&#xe41;" horiz-adv-x="692" 
d="M126 0v1018h98v-1018h-98zM476 0v1018h98v-1018h-98z" />
    <glyph glyph-name="saraothai" unicode="&#xe2;" horiz-adv-x="407" 
d="M458 1557v-98h-298q52 -37 80.5 -115t28.5 -156v-1187h-99l-1 1204q0 172 -163 254v98h452z" />
    <glyph glyph-name="saraothai" unicode="&#xe42;" horiz-adv-x="407" 
d="M458 1557v-98h-298q52 -37 80.5 -115t28.5 -156v-1187h-99l-1 1204q0 172 -163 254v98h452z" />
    <glyph glyph-name="saraaimaimuanthai" unicode="&#xe3;" horiz-adv-x="499" 
d="M417 1504q67 -64 67 -155v-96l-123 -235v-1018h-97v1021l121 240v88q0 49 -37 83.5t-91 34.5h-36q-54 0 -91 -35t-37 -83h-99q0 91 67 154t160 63h36q93 0 160 -62z" />
    <glyph glyph-name="saraaimaimuanthai" unicode="&#xe43;" horiz-adv-x="499" 
d="M417 1504q67 -64 67 -155v-96l-123 -235v-1018h-97v1021l121 240v88q0 49 -37 83.5t-91 34.5h-36q-54 0 -91 -35t-37 -83h-99q0 91 67 154t160 63h36q93 0 160 -62z" />
    <glyph glyph-name="saraaimaimalaithai" unicode="&#xe4;" horiz-adv-x="460" 
d="M433 1552v-8q0 -33 -12 -86l-99 -439v-1019h-99v1021l74 328q-39 -14 -80 -14h-35q-94 0 -161 63t-67 154h99q0 -48 37 -83t92 -35h35q41 0 76.5 22t40.5 56l9 40h90z" />
    <glyph glyph-name="saraaimaimalaithai" unicode="&#xe44;" horiz-adv-x="460" 
d="M433 1552v-8q0 -33 -12 -86l-99 -439v-1019h-99v1021l74 328q-39 -14 -80 -14h-35q-94 0 -161 63t-67 154h99q0 -48 37 -83t92 -35h35q41 0 76.5 22t40.5 56l9 40h90z" />
    <glyph glyph-name="lakkhangyaothai" unicode="&#xe5;" horiz-adv-x="854" 
d="M741 728v-1183h-95v1183q-2 83 -72 142.5t-199 59.5q-139 0 -305 -78l-41 87q185 87 346 87q163 0 264.5 -86t101.5 -212z" />
    <glyph glyph-name="lakkhangyaothai" unicode="&#xe45;" horiz-adv-x="854" 
d="M741 728v-1183h-95v1183q-2 83 -72 142.5t-199 59.5q-139 0 -305 -78l-41 87q185 87 346 87q163 0 264.5 -86t101.5 -212z" />
    <glyph glyph-name="maiyamokthai" unicode="&#xe6;" horiz-adv-x="1092" 
d="M781 938q118 -108 118 -261v-1132h-96v1132q0 75 -40 136t-113 99l-149 -79l-150 79q-73 -39 -112.5 -99.5t-39.5 -135.5v-165h-76q-11 0 -20 77v88q0 115 69.5 207.5t178.5 132.5v1l150 -78l149 78v-1q74 -27 131 -79z" />
    <glyph glyph-name="maiyamokthai" unicode="&#xe46;" horiz-adv-x="1092" 
d="M781 938q118 -108 118 -261v-1132h-96v1132q0 75 -40 136t-113 99l-149 -79l-150 79q-73 -39 -112.5 -99.5t-39.5 -135.5v-165h-76q-11 0 -20 77v88q0 115 69.5 207.5t178.5 132.5v1l150 -78l149 78v-1q74 -27 131 -79z" />
    <glyph glyph-name="maitaikhuthai" unicode="&#xe7;" 
d="M-565 1458q-18 -16 -19 -45v-85q3 -61 75 -61q40 0 57 22l2 27h96v-17q0 -1 -0.5 -2.5t-0.5 -2.5l3 -11l9 -9q16 -12 42 -12q34 0 57 17.5t24 52.5h95q0 -77 -53.5 -121t-122.5 -44q-67 0 -105 35q-1 0 -3 -2q-41 -28 -100 -28q-67 0 -118.5 40.5t-51.5 115.5v87
q0 71 48.5 112t113.5 43h453v-96h-453q-30 0 -48 -16z" />
    <glyph glyph-name="maitaikhuthai" unicode="&#xe47;" 
d="M-565 1458q-18 -16 -19 -45v-85q3 -61 75 -61q40 0 57 22l2 27h96v-17q0 -1 -0.5 -2.5t-0.5 -2.5l3 -11l9 -9q16 -12 42 -12q34 0 57 17.5t24 52.5h95q0 -77 -53.5 -121t-122.5 -44q-67 0 -105 35q-1 0 -3 -2q-41 -28 -100 -28q-67 0 -118.5 40.5t-51.5 115.5v87
q0 71 48.5 112t113.5 43h453v-96h-453q-30 0 -48 -16z" />
    <glyph glyph-name="maiekthai" unicode="&#xe8;" 
d="M-113 1838v-292h-96v292h96z" />
    <glyph glyph-name="maiekthai" unicode="&#xe48;" 
d="M-113 1838v-292h-96v292h96z" />
    <glyph glyph-name="maithothai" unicode="&#xe9;" 
d="M-490 1645h462v-95h-556v84q3 55 10 55l-60 -1v95h144v-138z" />
    <glyph glyph-name="maithothai" unicode="&#xe49;" 
d="M-490 1645h462v-95h-556v84q3 55 10 55l-60 -1v95h144v-138z" />
    <glyph glyph-name="maitrithai" unicode="&#xea;" 
d="M-107 1817h67v-96q0 -68 -43 -122.5t-121 -82.5h-69q-10 0 -18 71v21q0 36 -19.5 67t-53.5 50l-106 -45l-105 45q-73 -43 -73 -117v-92h-69q-10 0 -18 74v18q0 71 46 133t108 77l111 -42l105 45q6 -2 10.5 -4.5t5.5 -2.5q65 -26 105 -81.5t40 -124.5q80 37 80 113v96h17z
" />
    <glyph glyph-name="maitrithai" unicode="&#xe4a;" 
d="M-107 1817h67v-96q0 -68 -43 -122.5t-121 -82.5h-69q-10 0 -18 71v21q0 36 -19.5 67t-53.5 50l-106 -45l-105 45q-73 -43 -73 -117v-92h-69q-10 0 -18 74v18q0 71 46 133t108 77l111 -42l105 45q6 -2 10.5 -4.5t5.5 -2.5q65 -26 105 -81.5t40 -124.5q80 37 80 113v96h17z
" />
    <glyph glyph-name="maichattawathai" unicode="&#xeb;" 
d="M-102 1750v-96h-108v-108h-96v108h-108v96h108v108h86q5 0 10 -58v-50h108z" />
    <glyph glyph-name="maichattawathai" unicode="&#xe4b;" 
d="M-102 1750v-96h-108v-108h-96v108h-108v96h108v108h86q5 0 10 -58v-50h108z" />
    <glyph glyph-name="thanthakhatthai" unicode="&#xec;" 
d="M-9 1605l-431 -37v-23q-5 -59 -11 -59h-84v171l518 44z" />
    <glyph glyph-name="thanthakhatthai" unicode="&#xe4c;" 
d="M-9 1605l-431 -37v-23q-5 -59 -11 -59h-84v171l518 44z" />
    <glyph glyph-name="nikhahitthai" unicode="&#xed;" 
d="M-212 1466q64 0 111 -47t47 -111q0 -66 -46.5 -112t-111.5 -46q-67 0 -112.5 45.5t-45.5 112.5q0 65 46 111.5t112 46.5zM-212 1240q28 0 48 20t20 48t-20 48t-48 20t-48 -20t-20 -48t20 -48t48 -20z" />
    <glyph glyph-name="nikhahitthai" unicode="&#xe4d;" 
d="M-212 1466q64 0 111 -47t47 -111q0 -66 -46.5 -112t-111.5 -46q-67 0 -112.5 45.5t-45.5 112.5q0 65 46 111.5t112 46.5zM-212 1240q28 0 48 20t20 48t-20 48t-48 20t-48 -20t-20 -48t20 -48t48 -20z" />
    <glyph glyph-name="yamakkanthai" unicode="&#xee;" 
d="M-542 1320q0 83 94 138q-18 22 -18 54q0 72 82.5 126t182.5 54q76 0 134 -22l36 -14v-105q-35 8 -69.5 19.5t-54.5 16t-46 4.5q-52 0 -108 -25t-56 -54q0 -8 63 -24l37 -12v-86h-37q-3 0 -17.5 1t-18.5 1q-31 0 -67 -26t-36 -46q0 -23 22.5 -38.5t58.5 -15.5q68 0 99 51
l17 27h104l-29 -73q-57 -106 -191 -106q-79 0 -130.5 44.5t-51.5 110.5z" />
    <glyph glyph-name="yamakkanthai" unicode="&#xe4e;" 
d="M-542 1320q0 83 94 138q-18 22 -18 54q0 72 82.5 126t182.5 54q76 0 134 -22l36 -14v-105q-35 8 -69.5 19.5t-54.5 16t-46 4.5q-52 0 -108 -25t-56 -54q0 -8 63 -24l37 -12v-86h-37q-3 0 -17.5 1t-18.5 1q-31 0 -67 -26t-36 -46q0 -23 22.5 -38.5t58.5 -15.5q68 0 99 51
l17 27h104l-29 -73q-57 -106 -191 -106q-79 0 -130.5 44.5t-51.5 110.5z" />
    <glyph glyph-name="fongmanthai" unicode="&#xef;" horiz-adv-x="862" 
d="M430 258q-116 0 -198 82.5t-82 198.5q0 117 82.5 198.5t197.5 81.5t198.5 -81t83.5 -199q0 -117 -82 -199t-200 -82zM670 539q0 99 -71 169t-169 70q-100 0 -169.5 -69.5t-69.5 -169.5q0 -98 69 -169t170 -71t170.5 71t69.5 169zM430 368q-72 0 -121.5 49.5t-49.5 121.5
q0 71 50 121t121 50q73 0 123 -50t50 -121q0 -73 -50 -122t-123 -49z" />
    <glyph glyph-name="fongmanthai" unicode="&#xe4f;" horiz-adv-x="862" 
d="M430 258q-116 0 -198 82.5t-82 198.5q0 117 82.5 198.5t197.5 81.5t198.5 -81t83.5 -199q0 -117 -82 -199t-200 -82zM670 539q0 99 -71 169t-169 70q-100 0 -169.5 -69.5t-69.5 -169.5q0 -98 69 -169t170 -71t170.5 71t69.5 169zM430 368q-72 0 -121.5 49.5t-49.5 121.5
q0 71 50 121t121 50q73 0 123 -50t50 -121q0 -73 -50 -122t-123 -49z" />
    <glyph glyph-name="zerothai" unicode="&#xf0;" horiz-adv-x="1093" 
d="M847 825q55 -38 87 -92t32 -116v-315q0 -124 -115 -205.5t-271 -81.5h-67q-101 0 -189 35.5t-143 102t-55 149.5v315q0 83 55 149.5t143 102t189 35.5h67q155 0 267 -79zM871 302v315q0 74 -83.5 132.5t-207.5 58.5h-67q-124 0 -207.5 -58t-83.5 -133v-315
q0 -75 83.5 -133.5t207.5 -58.5h67q123 0 207 59t84 133z" />
    <glyph glyph-name="zerothai" unicode="&#xe50;" horiz-adv-x="1093" 
d="M847 825q55 -38 87 -92t32 -116v-315q0 -124 -115 -205.5t-271 -81.5h-67q-101 0 -189 35.5t-143 102t-55 149.5v315q0 83 55 149.5t143 102t189 35.5h67q155 0 267 -79zM871 302v315q0 74 -83.5 132.5t-207.5 58.5h-67q-124 0 -207.5 -58t-83.5 -133v-315
q0 -75 83.5 -133.5t207.5 -58.5h67q123 0 207 59t84 133z" />
    <glyph glyph-name="onethai" unicode="&#xf1;" horiz-adv-x="1098" 
d="M852 829q55 -38 87 -92t32 -116v-315q0 -126 -124.5 -208.5t-307.5 -82.5q-189 0 -378 89l41 86q171 -80 337 -80q153 0 245 61t92 135v315q0 75 -84 133t-207 58h-68q-124 0 -207.5 -58t-83.5 -133v-110h76v-75q0 -11 -78 -20h-93v205q0 124 115 205.5t271 81.5h68
q155 0 267 -79z" />
    <glyph glyph-name="onethai" unicode="&#xe51;" horiz-adv-x="1098" 
d="M852 829q55 -38 87 -92t32 -116v-315q0 -126 -124.5 -208.5t-307.5 -82.5q-189 0 -378 89l41 86q171 -80 337 -80q153 0 245 61t92 135v315q0 75 -84 133t-207 58h-68q-124 0 -207.5 -58t-83.5 -133v-110h76v-75q0 -11 -78 -20h-93v205q0 124 115 205.5t271 81.5h68
q155 0 267 -79z" />
    <glyph glyph-name="twothai" unicode="&#xf2;" horiz-adv-x="1268" 
d="M1057 790q82 -74 82 -181v-273q0 -136 -114.5 -228.5t-272.5 -92.5h-236q-158 0 -272.5 92.5t-114.5 228.5v710h75q10 0 21 -92v-618q0 -91 84 -158.5t207 -67.5h236q123 0 206.5 67.5t84.5 158.5l1 273q0 63 -52 110q-1 1 -9.5 6.5t-15.5 10t-7 5.5l-198 -51l-197 51
q-81 -47 -81 -132v-101h-97v101q0 79 51.5 149t120.5 87l203 -47l198 49l18 -7q38 -16 79 -50z" />
    <glyph glyph-name="twothai" unicode="&#xe52;" horiz-adv-x="1268" 
d="M1057 790q82 -74 82 -181v-273q0 -136 -114.5 -228.5t-272.5 -92.5h-236q-158 0 -272.5 92.5t-114.5 228.5v710h75q10 0 21 -92v-618q0 -91 84 -158.5t207 -67.5h236q123 0 206.5 67.5t84.5 158.5l1 273q0 63 -52 110q-1 1 -9.5 6.5t-15.5 10t-7 5.5l-198 -51l-197 51
q-81 -47 -81 -132v-101h-97v101q0 79 51.5 149t120.5 87l203 -47l198 49l18 -7q38 -16 79 -50z" />
    <glyph glyph-name="threethai" unicode="&#xf3;" horiz-adv-x="1216" 
d="M958 773q62 -58 96.5 -133.5t34.5 -156.5v-453h-97v453q0 83 -45 154t-131 115l-209 -88l-209 88q-85 -42 -130 -113.5t-46 -155.5l-1 -119q-1 -60 17.5 -106t48 -74t70.5 -46t81 -24.5t84 -6.5v-95q-52 0 -102.5 8.5t-105 33t-94.5 62.5t-66.5 102t-27.5 146l-1 119
q-1 122 75 226.5t201 150.5l208 -87l204 87q80 -30 145 -87z" />
    <glyph glyph-name="threethai" unicode="&#xe53;" horiz-adv-x="1216" 
d="M958 773q62 -58 96.5 -133.5t34.5 -156.5v-453h-97v453q0 83 -45 154t-131 115l-209 -88l-209 88q-85 -42 -130 -113.5t-46 -155.5l-1 -119q-1 -60 17.5 -106t48 -74t70.5 -46t81 -24.5t84 -6.5v-95q-52 0 -102.5 8.5t-105 33t-94.5 62.5t-66.5 102t-27.5 146l-1 119
q-1 122 75 226.5t201 150.5l208 -87l204 87q80 -30 145 -87z" />
    <glyph glyph-name="fourthai" unicode="&#xf4;" horiz-adv-x="1088" 
d="M290 674q-82 -67 -82 -157v-181q0 -90 84.5 -158t206.5 -68l34 1q86 0 129.5 14t74.5 41q-26 75 -26 181h96q0 -72 6.5 -111.5t29 -68.5t63.5 -39t111 -10v-96q-81 2 -134 14.5t-93 49.5q-85 -71 -257 -71h-34q-159 0 -272.5 92.5t-113.5 228.5v181q0 136 114 229t272 93
h178q123 0 207 67t84 158v76h96v-76q0 -135 -115 -228t-272 -93h-178q-125 0 -209 -69z" />
    <glyph glyph-name="fourthai" unicode="&#xe54;" horiz-adv-x="1088" 
d="M290 674q-82 -67 -82 -157v-181q0 -90 84.5 -158t206.5 -68l34 1q86 0 129.5 14t74.5 41q-26 75 -26 181h96q0 -72 6.5 -111.5t29 -68.5t63.5 -39t111 -10v-96q-81 2 -134 14.5t-93 49.5q-85 -71 -257 -71h-34q-159 0 -272.5 92.5t-113.5 228.5v181q0 136 114 229t272 93
h178q123 0 207 67t84 158v76h96v-76q0 -135 -115 -228t-272 -93h-178q-125 0 -209 -69z" />
    <glyph glyph-name="fivethai" unicode="&#xf5;" horiz-adv-x="1088" 
d="M290 674q-81 -67 -81 -156v-182q0 -91 83.5 -158t206.5 -67h34q87 0 131 14.5t73 41.5q-25 69 -25 180h95q0 -70 6.5 -109t28.5 -69t63 -40.5t112 -10.5v-95q-158 0 -227 63q-87 -71 -257 -71h-34q-156 0 -271 92.5t-115 228.5v182q0 130 105 219.5t253 99.5
q-17 32 -17 72q0 65 45.5 111t111.5 46q65 0 111.5 -46t46.5 -111q0 -32 -11 -60q95 21 152.5 81t57.5 134v76h96v-76q0 -90 -54 -164.5t-142.5 -115.5t-189.5 -41h-179q-124 0 -209 -69zM611 976q-28 0 -47.5 -19.5t-19.5 -47.5t19.5 -48t47.5 -20q29 0 48.5 19.5
t19.5 48.5q0 28 -20 47.5t-48 19.5z" />
    <glyph glyph-name="fivethai" unicode="&#xe55;" horiz-adv-x="1088" 
d="M290 674q-81 -67 -81 -156v-182q0 -91 83.5 -158t206.5 -67h34q87 0 131 14.5t73 41.5q-25 69 -25 180h95q0 -70 6.5 -109t28.5 -69t63 -40.5t112 -10.5v-95q-158 0 -227 63q-87 -71 -257 -71h-34q-156 0 -271 92.5t-115 228.5v182q0 130 105 219.5t253 99.5
q-17 32 -17 72q0 65 45.5 111t111.5 46q65 0 111.5 -46t46.5 -111q0 -32 -11 -60q95 21 152.5 81t57.5 134v76h96v-76q0 -90 -54 -164.5t-142.5 -115.5t-189.5 -41h-179q-124 0 -209 -69zM611 976q-28 0 -47.5 -19.5t-19.5 -47.5t19.5 -48t47.5 -20q29 0 48.5 19.5
t19.5 48.5q0 28 -20 47.5t-48 19.5z" />
    <glyph glyph-name="sixthai" unicode="&#xf6;" horiz-adv-x="1082" 
d="M962 617l1 -315q0 -124 -115.5 -205.5t-270.5 -81.5h-68q-101 0 -189 35.5t-142.5 102t-54.5 149.5v102h95v-102q0 -75 83.5 -133t207.5 -58h68q123 0 206.5 58t83.5 133l-1 315q0 75 -93 135.5t-244 60.5q-169 0 -335 -80h-2l-140 294h103l84 -172q150 54 290 54
q178 0 305 -81.5t128 -210.5z" />
    <glyph glyph-name="sixthai" unicode="&#xe56;" horiz-adv-x="1082" 
d="M962 617l1 -315q0 -124 -115.5 -205.5t-270.5 -81.5h-68q-101 0 -189 35.5t-142.5 102t-54.5 149.5v102h95v-102q0 -75 83.5 -133t207.5 -58h68q123 0 206.5 58t83.5 133l-1 315q0 75 -93 135.5t-244 60.5q-169 0 -335 -80h-2l-140 294h103l84 -172q150 54 290 54
q178 0 305 -81.5t128 -210.5z" />
    <glyph glyph-name="seventhai" unicode="&#xf7;" horiz-adv-x="1456" 
d="M1254 1049h75v-718q-1 -67 -12 -117.5t-32.5 -83t-46 -53t-62 -31t-71.5 -14t-82 -3.5h-48v453q0 84 -46 155t-130 115l-209 -88l-210 88q-85 -43 -129.5 -114t-45.5 -156l-1 -118q-1 -61 18 -107.5t48.5 -74.5t70.5 -45.5t80.5 -23.5t82.5 -6v-96q-49 0 -96 7.5t-103 31
t-97.5 60.5t-69.5 103t-29 151l-1 118q-1 122 74.5 225.5t201.5 152.5l206 -88l206 88q126 -49 200.5 -152t74.5 -226v-360q39 4 62 9.5t44.5 19.5t32 38t17 63.5t6.5 97.5v607q10 92 21 92z" />
    <glyph glyph-name="seventhai" unicode="&#xe57;" horiz-adv-x="1456" 
d="M1254 1049h75v-718q-1 -67 -12 -117.5t-32.5 -83t-46 -53t-62 -31t-71.5 -14t-82 -3.5h-48v453q0 84 -46 155t-130 115l-209 -88l-210 88q-85 -43 -129.5 -114t-45.5 -156l-1 -118q-1 -61 18 -107.5t48.5 -74.5t70.5 -45.5t80.5 -23.5t82.5 -6v-96q-49 0 -96 7.5t-103 31
t-97.5 60.5t-69.5 103t-29 151l-1 118q-1 122 74.5 225.5t201.5 152.5l206 -88l206 88q126 -49 200.5 -152t74.5 -226v-360q39 4 62 9.5t44.5 19.5t32 38t17 63.5t6.5 97.5v607q10 92 21 92z" />
    <glyph glyph-name="eightthai" unicode="&#xf8;" horiz-adv-x="1145" 
d="M292 657q-81 -65 -81 -156v-266q0 -51 39.5 -88t95.5 -37h37q56 0 96 37t40 88v56h95v-56q0 -29 -9 -58q46 -67 128 -67h39q59 0 104.5 38.5t45.5 86.5v174h96v-174q0 -93 -72.5 -156.5t-173.5 -63.5h-39q-52 0 -105 18.5t-75 52.5q-71 -71 -170 -71h-37
q-94 0 -162.5 63.5t-68.5 156.5v266q0 136 115 228.5t272 92.5h178q121 0 205 67.5t86 158.5v75h95v-75q0 -137 -114.5 -229.5t-271.5 -92.5h-178q-125 0 -210 -69z" />
    <glyph glyph-name="eightthai" unicode="&#xe58;" horiz-adv-x="1145" 
d="M292 657q-81 -65 -81 -156v-266q0 -51 39.5 -88t95.5 -37h37q56 0 96 37t40 88v56h95v-56q0 -29 -9 -58q46 -67 128 -67h39q59 0 104.5 38.5t45.5 86.5v174h96v-174q0 -93 -72.5 -156.5t-173.5 -63.5h-39q-52 0 -105 18.5t-75 52.5q-71 -71 -170 -71h-37
q-94 0 -162.5 63.5t-68.5 156.5v266q0 136 115 228.5t272 92.5h178q121 0 205 67.5t86 158.5v75h95v-75q0 -137 -114.5 -229.5t-271.5 -92.5h-178q-125 0 -210 -69z" />
    <glyph glyph-name="ninethai" unicode="&#xf9;" horiz-adv-x="1069" 
d="M1060 1071q0 -118 -85 -202.5t-214 -110.5q5 -3 6 -4q117 -109 117 -302q0 -172 29 -251.5t91 -87.5l-13 -95q-62 9 -104 45.5t-62.5 98.5t-28 128.5t-7.5 157.5q0 78 -22 137.5t-58.5 93t-76.5 50.5t-84 20h-52q-123 0 -207.5 -67t-83.5 -158l1 -154q0 -75 17.5 -124.5
t51.5 -75.5t74.5 -36t97.5 -10h186v-94h-234q-286 21 -289 340l-1 154q0 90 54 164.5t142.5 115.5t190.5 41h177q123 0 207 67.5t84 158.5v75h96v-75z" />
    <glyph glyph-name="ninethai" unicode="&#xe59;" horiz-adv-x="1069" 
d="M1060 1071q0 -118 -85 -202.5t-214 -110.5q5 -3 6 -4q117 -109 117 -302q0 -172 29 -251.5t91 -87.5l-13 -95q-62 9 -104 45.5t-62.5 98.5t-28 128.5t-7.5 157.5q0 78 -22 137.5t-58.5 93t-76.5 50.5t-84 20h-52q-123 0 -207.5 -67t-83.5 -158l1 -154q0 -75 17.5 -124.5
t51.5 -75.5t74.5 -36t97.5 -10h186v-94h-234q-286 21 -289 340l-1 154q0 90 54 164.5t142.5 115.5t190.5 41h177q123 0 207 67.5t84 158.5v75h96v-75z" />
    <glyph glyph-name="angkhankhuthai" unicode="&#xfa;" horiz-adv-x="1150" 
d="M746 1021h75v-919q-10 -92 -20 -92h-75v664q-203 -124 -373 -126q-128 0 -205 72q-76 68 -76 177q0 140 124 259l66 -70q-94 -90 -94 -189q0 -67 45 -107q49 -46 140 -46q160 0 373 142v143q10 92 20 92zM962 1021h75v-919q-10 -92 -21 -92h-75v919q10 92 21 92z" />
    <glyph glyph-name="angkhankhuthai" unicode="&#xe5a;" horiz-adv-x="1150" 
d="M746 1021h75v-919q-10 -92 -20 -92h-75v664q-203 -124 -373 -126q-128 0 -205 72q-76 68 -76 177q0 140 124 259l66 -70q-94 -90 -94 -189q0 -67 45 -107q49 -46 140 -46q160 0 373 142v143q10 92 20 92zM962 1021h75v-919q-10 -92 -21 -92h-75v919q10 92 21 92z" />
    <glyph glyph-name="khomutthai" unicode="&#xfb;" horiz-adv-x="2147" 
d="M632 482q-52 -47 -120 -47q-61 0 -101 37t-40 90q0 51 39.5 88t101.5 37q48 0 80 -23q0 67 -42.5 106.5t-107.5 39.5q-92 0 -151.5 -71.5t-59.5 -185.5q0 -145 76 -231t196 -86q139 0 232.5 119.5t93.5 305.5v26l-3 39l46 44l153 -252l109 238l106 -210l96 172l107 -170
l95 129l96 -109l31 46h350l-74 -68h-218l-92 -88l-87 86l-106 -143l-96 147l-114 -188l-89 190l-99 -217l-132 211q-30 -173 -142.5 -276t-262.5 -103t-254 101.5t-112 259.5q0 158 83 254.5t222 96.5q115 0 182.5 -65.5t67.5 -171.5q0 -98 -60 -158zM448 562
q0 -28 17.5 -45.5t43.5 -17.5q30 0 47.5 17.5t17.5 45.5t-18 45.5t-47 17.5q-26 0 -43.5 -18t-17.5 -45z" />
    <glyph glyph-name="khomutthai" unicode="&#xe5b;" horiz-adv-x="2147" 
d="M632 482q-52 -47 -120 -47q-61 0 -101 37t-40 90q0 51 39.5 88t101.5 37q48 0 80 -23q0 67 -42.5 106.5t-107.5 39.5q-92 0 -151.5 -71.5t-59.5 -185.5q0 -145 76 -231t196 -86q139 0 232.5 119.5t93.5 305.5v26l-3 39l46 44l153 -252l109 238l106 -210l96 172l107 -170
l95 129l96 -109l31 46h350l-74 -68h-218l-92 -88l-87 86l-106 -143l-96 147l-114 -188l-89 190l-99 -217l-132 211q-30 -173 -142.5 -276t-262.5 -103t-254 101.5t-112 259.5q0 158 83 254.5t222 96.5q115 0 182.5 -65.5t67.5 -171.5q0 -98 -60 -158zM448 562
q0 -28 17.5 -45.5t43.5 -17.5q30 0 47.5 17.5t17.5 45.5t-18 45.5t-47 17.5q-26 0 -43.5 -18t-17.5 -45z" />
    <glyph glyph-name="saraulowthai" unicode="&#xfc;" 
d="M-457 -535h144v-268h-92v95q9 77 20 77h-72v96z" />
    <glyph glyph-name="saraulowthai" unicode="&#xf718;" 
d="M-457 -535h144v-268h-92v95q9 77 20 77h-72v96z" />
    <glyph glyph-name="sarauulowthai" unicode="&#xfd;" 
d="M-296 -535h95v-121q0 -72 -49 -115.5t-114 -43.5q-61 0 -109 38.5t-51 103.5q3 42 9 42h-60v96h145v-125q3 -60 66 -60q29 0 48 16t20 48v121z" />
    <glyph glyph-name="sarauulowthai" unicode="&#xf719;" 
d="M-296 -535h95v-121q0 -72 -49 -115.5t-114 -43.5q-61 0 -109 38.5t-51 103.5q3 42 9 42h-60v96h145v-125q3 -60 66 -60q29 0 48 16t20 48v121z" />
    <glyph glyph-name="phinthulowthai" unicode="&#xfe;" 
d="M-256 -613q0 -33 -23.5 -56t-55.5 -23q-33 0 -55.5 23t-22.5 56q0 32 22.5 55t55.5 23q32 0 55.5 -23t23.5 -55z" />
    <glyph glyph-name="phinthulowthai" unicode="&#xf71a;" 
d="M-256 -613q0 -33 -23.5 -56t-55.5 -23q-33 0 -55.5 23t-22.5 56q0 32 22.5 55t55.5 23q32 0 55.5 -23t23.5 -55z" />
    <glyph glyph-name="nptp3.001march2007r" unicode="&#xe3e;" 
 />
    <glyph glyph-name="ZWSP" unicode="&#x200b;" 
 />
    <glyph glyph-name="uni25CC" unicode="&#x25cc;" horiz-adv-x="1049" 
d="M527 345q27 0 47.5 -20t20.5 -48q0 -27 -20.5 -47t-47.5 -20q-28 0 -47.5 20t-19.5 47q0 29 19.5 48.5t47.5 19.5zM824 645q28 0 48 -20t20 -47q0 -31 -18 -50.5t-50 -19.5q-28 0 -47.5 20t-19.5 50q0 27 20 47t47 20zM227 645q26 0 46.5 -20t20.5 -47q0 -30 -19.5 -50
t-47.5 -20t-48 20t-20 50q0 27 20.5 47t47.5 20zM527 943q27 0 47.5 -19.5t20.5 -47.5q0 -27 -20.5 -46.5t-47.5 -19.5q-28 0 -47.5 19t-19.5 47t19 47.5t48 19.5zM316 854q31 0 50 -18t19 -50q0 -29 -19.5 -48t-49.5 -19q-27 0 -47 19.5t-20 47.5q0 31 19.5 49.5t47.5 18.5
zM736 854q27 0 47 -18.5t20 -49.5q0 -28 -19.5 -47.5t-47.5 -19.5q-27 0 -47.5 19.5t-20.5 47.5q0 31 20 49.5t48 18.5zM736 434q26 0 46.5 -19.5t20.5 -47.5q0 -27 -19.5 -47t-47.5 -20q-27 0 -47.5 20t-20.5 47q0 28 20.5 47.5t47.5 19.5zM316 434q30 0 49.5 -19t19.5 -48
q0 -28 -19.5 -47.5t-49.5 -19.5q-27 0 -47 20t-20 47q0 28 20 47.5t47 19.5z" />
    <glyph glyph-name="Fontcraft" horiz-adv-x="1942" 
d="M680 -161q0 -5 -2 -23q-19 -75 -84 -75q-32 0 -46 17t-14 41q0 51 27.5 74t58.5 23q28 0 44 -15.5t16 -41.5zM648 -177q5 17 -2.5 29.5t-25.5 12.5q-25 0 -40 -20.5t-15 -49.5q0 -23 29 -23q40 0 54 51zM924 -108q6 0 11 -4.5t5 -9.5q0 -17 -16 -17h-26l-15 -60v-17
q0 -12 6 -12q2 0 7 1.5t7 1.5q16 0 16 -14q0 -18 -27 -18q-19 0 -30 12t-11 33q0 3 1.5 9.5t1.5 10.5l12 53h-16q-16 0 -16 17q0 14 16 14h22l11 52q0 12 15 12q6 0 10.5 -6t4.5 -13l-8 -45h19zM541 -122q0 -17 -16 -17h-22l-23 -106q-11 -59 -68 -59q-7 0 -12 4.5t-5 11.5
q0 9 7.5 12.5t17 3.5t18.5 7.5t11 25.5l21 100h-18q-7 0 -12 5t-5 12q0 5 5 9.5t12 4.5h24l5 24q5 26 23.5 42t46.5 16q6 0 10.5 -4.5t4.5 -10.5q0 -11 -7 -14t-16 -1.5t-18.5 -6t-13.5 -26.5l-3 -19h17q16 0 16 -14zM817 -130q4 -8 4 -20q0 -2 -0.5 -5t-0.5 -6l-18 -84
q-5 -14 -16 -14q-6 0 -10.5 5t-4.5 11q0 3 1 4l17 85v0q0 8 -1.5 12t-5 6t-3.5 3q-25 0 -49 -23l-20 -89q-2 -14 -16 -14q-6 0 -10 5t-4 11v4l27 123q3 12 14 12q6 0 11 -4t5 -8h1q24 11 34 12q37 0 45 -26zM1510 -108q6 0 10 -4.5t4 -9.5q0 -17 -14 -17h-29l-12 -60
q-2 -9 -2 -17q0 -12 7 -12q3 0 7.5 1.5t6.5 1.5q16 0 16 -15q0 -17 -27 -17q-17 0 -29 12t-12 33q0 3 0.5 6t1.5 7.5t1 6.5l11 53h-43l-22 -106q-13 -59 -69 -59q-6 0 -10.5 4.5t-4.5 11.5q0 10 7.5 13.5t17 3t18 7t10.5 25.5l22 100h-20q-14 0 -14 17q0 5 4.5 9.5t9.5 4.5
h27l2 24q13 58 71 58q14 0 14 -15q0 -9 -7 -12.5t-15.5 -3.5t-17.5 -8t-13 -24l-5 -19h44l6 20q0 11 14 11q15 0 15 -14l-1 -1q0 -2 -0.5 -6t-1.5 -10h22zM1198 -119q0 -6 -5.5 -10t-11.5 -4q-32 0 -38 -34l-17 -79q-2 -13 -14 -13q-7 0 -11.5 5t-4.5 11v4l16 78
q15 57 69 57q6 0 11.5 -4.5t5.5 -10.5zM1307 -229q-25 -27 -64 -27q-23 0 -39 15t-12 40q3 16 16.5 26.5t25 13t30.5 5.5q20 0 28 -1q0 1 1 5t1 5q0 15 -23 15q-3 0 -19.5 -3.5t-25.5 -3.5q-13 0 -13 9q0 14 21 21t44 7q48 0 48 -41q0 -2 -2 -8t-2 -8zM1278 -222l9 35
q-36 0 -51 -5t-16 -19q0 -17 33 -17q11 0 25 6zM1096 -133q0 -1 1 -4l1 -3q0 -6 -4 -11t-10 -5t-17 11.5t-27 11.5q-18 0 -34.5 -18.5t-16.5 -49.5q0 -27 30 -27q8 0 19.5 6t16.5 6q15 0 15 -17q0 -11 -17.5 -18.5t-33.5 -7.5q-31 0 -46 17.5t-15 40.5q0 47 25 72t57 25
q34 0 56 -29zM962 1146q155 0 288 -76t211 -209t78 -290q0 -156 -76.5 -288.5t-209.5 -210t-291 -77.5q-156 0 -288 76t-209.5 209t-77.5 291q0 156 77 288.5t209.5 209.5t288.5 77zM962 101q126 0 234.5 62.5t172.5 171t64 236.5q0 140 -77 258l-75 -326
q-12 -67 -73.5 -120.5t-136.5 -53.5q-71 0 -123 55q-68 -55 -139 -55t-115.5 47t-44.5 111q0 16 24 132q-20 -7 -39.5 11.5t-19.5 40.5q0 59 89 59q38 0 65.5 -17t21.5 -54l-34 -156q-4 -27 10 -47.5t43 -20.5q37 0 68 28t40 62l33 157q4 19 18.5 30.5t33.5 11.5
q21 0 36.5 -16t15.5 -37q0 -2 -35 -168q-5 -27 9 -47.5t43 -20.5q34 0 68 27.5t41 62.5l91 401q-132 114 -309 114q-127 0 -235.5 -62.5t-172 -171t-63.5 -235.5q0 -128 63.5 -236t172 -171t235.5 -63z" />
    <glyph glyph-name="lochula.short" horiz-adv-x="1128" 
d="M982 1031q-32 -60 -85 -96q118 -65 118 -200v-528q0 -92 -72 -156t-174 -64h-39q-111 0 -180 71q-71 -71 -169 -71h-37q-95 0 -163 64.5t-68 155.5v811h95v-811q0 -51 40.5 -88t95.5 -37h37q56 0 95.5 36.5t39.5 88.5v358h96v-358q0 -24 -9 -58q18 -30 52 -48.5t75 -18.5
h39q59 0 105 38.5t46 86.5v526q0 36 -14 63.5t-35.5 43t-51 25.5t-56 13t-56.5 3v1v96q213 0 213 212v91h95v-91q0 -91 -33 -159z" />
    <glyph glyph-name="saraamleft" horiz-adv-x="855" 
d="M742 731v-731h-96v731q0 84 -70.5 143.5t-199.5 59.5q-139 0 -306 -78l-40 87q187 87 346 87q162 0 264 -86t102 -213zM-460 1416q64 0 111 -47t47 -111q0 -66 -46.5 -112t-111.5 -46q-67 0 -112.5 45.5t-45.5 112.5q0 65 46 111.5t112 46.5zM-460 1190q28 0 48 20t20 48
t-20 48t-48 20t-48 -20t-20 -48t20 -48t48 -20z" />
    <glyph glyph-name="yamakkanleftthai" 
d="M-702 1320q0 83 94 138q-18 22 -18 54q0 72 82.5 126t182.5 54q76 0 134 -22l36 -14v-105q-35 8 -69.5 19.5t-54.5 16t-46 4.5q-52 0 -108 -25t-56 -54q0 -8 63 -24l37 -12v-86h-37q-3 0 -17.5 1t-18.5 1q-31 0 -67 -26t-36 -46q0 -23 22.5 -38.5t58.5 -15.5q68 0 99 51
l17 27h104l-29 -73q-57 -106 -191 -106q-79 0 -130.5 44.5t-51.5 110.5z" />
    <glyph glyph-name="Naipol" 
d="M71 617q-1 -1 -3 -1v2q3 0 3 -1zM28 649q-2 -1 -9 -1q-10 0 -26 6l-14 2h-4q-4 -2 -5 -2q6 8 11 8q24 0 35 -5q1 0 2 -1q5 -2 10 -7zM87 710q0 -10 -3 -26.5t-7 -33.5t-5 -23l-3 5q-7 -5 -17.5 -28t-10.5 -27v79q-10 9 -18 50q-25 43 -83 43q-63 0 -80 -53l-25 -45v-89
h-8q-7 78 -17 97q-3 -10 -4 -15l-3 15q-3 -6 -3 -12q0 -5 5 -22t5 -23q-22 29 -22 99v21l16 26h4q2 0 2 1v7q25 8 29 54q4 2 10.5 4.5t10 4t6 4t2.5 5.5q8 0 12 4q8 -6 20 -6q0 6 13 13l9 -13q6 15 8 17h5q3 0 9 8q20 0 76 -14q5 -8 16.5 -16.5t17.5 -10.5q2 -14 17 -55
t16 -45zM15 629h-28q-4 0 -11 1t-9 1h-4l7 6q6 6 9 6q10 0 18 -2.5t11 -5t3 -3.5zM-14 624q-2 -2 -6 -2v2h6zM41 571v-4q0 -7 -5 -7q2 8 5 11zM-180 770q0 -1 -2 -1v2q2 0 2 -1zM-76 636q0 -3 -3 -3v7q3 0 3 -4zM-88 660q-3 -1 -8 -1q-34 0 -49 4l1 1l2 2q7 5 18 5
q18 0 36 -11zM-40 584l2 -2h-12l8 2h2zM-88 641l2 -5q0 -1 -3.5 -2.5t-9.5 -4t-12 -2.5l15 4l1 2l1 2h-2q-3 0 -11.5 2t-10.5 2q-18 0 -21 1q13 10 23 10q19 0 24 -4zM-77 584h-2h-2l-1 1q-4 0 -4 2q0 1 2 1q7 0 7 -4zM-17 555q0 -11 -21.5 -21.5t-28.5 -10.5q-1 0 -6.5 0.5
t-10.5 0.5q-10 0 -22 13.5t-12 22.5q2 0 13.5 1t15.5 1q5 0 14 -2.5t10 -2.5q2 0 11.5 1.5t13.5 1.5q19 -3 23 -5zM-192 635q0 -2 -3 -2v3q3 0 3 -1zM-161 560h-3v2q3 0 3 -2zM-157 546h-4v9q4 -1 4 -9zM218 240h-594v29v12q0 8 1 12q17 103 60 132q22 14 42 22q25 16 87 41
q25 5 38 13v12v3v5q-9 19 -9 21v2q3 0 5 -5q0 -3 1 -4q2 -5 5 -9.5t8.5 -9.5t8.5 -8t12 -9.5t11 -8.5q21 -8 36 -8q23 0 57 18.5t48 55.5q0 -10 -14 -33q-13 -13 -13 -28q0 -4 1 -6h2q20 0 27 -4q89 -33 145 -90q35 -44 35 -115v-23v-8v-9zM53 800q0 4 -6 8.5t-12 4.5
l11 -17q7 0 7 4zM-17 840q0 3 -6 3v-6q6 0 6 3zM-29 843q-9 0 -9 -2t5 -4l1 2q1 2 3 4zM-157 783q0 4 -4 4v-6q4 0 4 2zM9 631q-3 0 -9 5t-20 5q-1 0 -2 -0.5t-2 -2t-3 -3t-5 -3.5h11q5 -1 8 -1l12 1h2q1 -1 8 -1zM-107 639h15l-1 3l-3 2l-4 2l-1 1q1 0 1 -3q0 -4 -7 -5z
M-100 643q0 2 -2 2t-2 -2t2 -2t2 2zM-109 639q-6 1 -6 5q0 2 5 4h-7q-2 -1 -11 -6h3l7 -2q7 -1 9 -1zM-27 553q0 2 -9 2l-11 -1q-11 -1 -15 -1q-3 0 -10.5 2t-21.5 2l-5 -1h-7h-2q1 -2 8 -11q25 -5 31 -5q2 0 12 0.5t15 0.5q2 0 8.5 5t6.5 7zM-57 532v1v2h-4v-1h-4h-2v-3h7z
M-72 529v2v1l-6 1l-2 1l-1 -2h1l1 -1l2 -2h5zM41 466q-4 16 -24 16q-2 0 -2 -2q0 -10 5 -18q-14 -33 -39 -49q6 17 11 17q2 3 5 21.5t3 24.5q0 13 -4 18q-40 -25 -66 -25q-21 0 -71 38l1 -10v1q0 -2 -6 -4l2 -27q-4 4 -19 9l-19 5q6 -62 88 -104q43 0 62 12l27 20q2 9 24 24
t22 33zM-13 640q8 0 8 -5q0 -3 -8 -3t-8 3q0 5 8 5zM-19 634q3 0 3 1q-2 2 -3 2q-2 0 -2 -2q0 -1 2 -1z" />
    </font>
</defs>
</svg>
