<?xml version="1.0" standalone="no"?>
<!DOCTYPE svg PUBLIC "-//W3C//DTD SVG 1.1//EN" "http://www.w3.org/Graphics/SVG/1.1/DTD/svg11.dtd" >
<svg xmlns="http://www.w3.org/2000/svg" xmlns:xlink="http://www.w3.org/1999/xlink" version="1.1">
<metadata>
Created by FontForge 20170731 at Mon Aug 24 19:53:41 2015
 By Aleksey,,,
Copyright (c) 2013 by Fontcraft : Jutipong Poosumas. All rights reserved.
</metadata>
<defs>
<font id="SuperspaceBold-Italic" horiz-adv-x="0" >
  <font-face 
    font-family="Superspace Bold"
    font-weight="700"
    font-style="italic"
    font-stretch="normal"
    units-per-em="2048"
    panose-1="2 0 0 0 0 0 0 0 0 0"
    ascent="1638"
    descent="-410"
    x-height="966"
    cap-height="1161"
    bbox="-785 -786 2145 1831"
    underline-thickness="72"
    underline-position="-365"
    unicode-range="U+0020-25CC"
  />
<missing-glyph horiz-adv-x="1536" 
d="M1280 0h-1024v1280h1024v-1280zM298 32h940q10 0 10 10v1196q0 10 -10 10h-940q-10 0 -10 -10v-1196q0 -10 10 -10z" />
    <glyph glyph-name="quotedblleft" unicode="&#x91;&#x91;" horiz-adv-x="657" 
d="M288 878l78 422h188l-96 -422h-170zM572 878l79 422h188l-97 -422h-170z" />
    <glyph glyph-name="quotedblright" unicode="&#x92;&#x92;" horiz-adv-x="674" 
d="M295 878l79 422h188l-97 -422h-170zM580 878l78 422h189l-97 -422h-170z" />
    <glyph glyph-name="copyright2" unicode="&#x3b;&#x3b;For&#x20;Education&#x20;Used&#x20;Only&#x3b;&#x3b;" horiz-adv-x="1312" 
d="M1019 1226q181 0 316.5 -90.5t193 -245t18.5 -336.5q-38 -181 -161.5 -335.5t-297 -244.5t-354.5 -90q-182 0 -317.5 90t-192.5 244t-19 336q39 182 162 336.5t296.5 245t355.5 90.5zM1167 184q80 66 139.5 166t81.5 204q21 100 -1 194.5t-76.5 164t-140 112t-185.5 42.5
q-133 0 -267 -71t-230.5 -190t-124.5 -252t18 -251.5t150 -189t237 -70.5h6q105 0 257 59q83 46 136 82zM830 330q86 0 266 61l22 -168q-208 -68 -326 -68q-134 0 -211.5 62.5t-69.5 165.5q5 77 25 171q21 96 43 151v-1q34 103 138 164.5t241 61.5q118 0 296 -69l-94 -166
q-148 60 -239 60q-68 0 -114 -21.5t-60 -53.5q-22 -63 -36 -126q-10 -47 -18 -119v2q1 -2 -2 -15q1 -3 -2 -17q2 -32 38.5 -53.5t102.5 -21.5z" />
    <glyph glyph-name="registered2" unicode="&#x3b;&#x3b;Registered&#x3b;&#x3b;" horiz-adv-x="1312" 
d="M1010 1206q178 0 311 -89t190 -241t19 -330q-38 -179 -160 -331t-292.5 -240.5t-348.5 -88.5q-180 0 -313 88.5t-189 240.5t-18 331t158.5 330.5t291.5 240.5t351 89zM1018 105q61 35 103 69h-160q-43 108 -72 254h-158l-53 -253h-173l158 744h260q95 0 138 -5
q103 -12 137.5 -71.5t9.5 -177.5q-33 -155 -138 -207q0 -3 0.5 -5.5t0.5 -4.5t0.5 -4t0.5 -3v1q19 -86 83 -242q80 68 139.5 159.5t79.5 186.5q21 98 -1 191t-76 161.5t-138 110.5t-182 42q-132 0 -264 -70t-227 -187t-122 -248q-28 -131 17 -248t147 -187t234 -70h6
q85 0 250 64zM894 603q114 0 123 7q11 11 20 56q11 55 -15 67t-136 12h-87l-30 -142h125z" />
    <glyph glyph-name="trademark2" unicode="&#x3b;&#x3b;Trademark&#x3b;&#x3b;" horiz-adv-x="1996" 
d="M417 1164h609l-39 -183h-211l-109 -513h-183l109 513h-215zM1870 1164h177l-148 -696h-181l78 367q-61 -65 -182.5 -182t-179.5 -179l-197 356l-77 -362h-182l148 696h179l199 -371q63 70 185 188.5t181 182.5z" />
    <glyph glyph-name="multiply2" unicode="&#x3b;&#x3b;Multiply&#x3b;&#x3b;" horiz-adv-x="1075" 
d="M930 338l-152 -126l-184 233q-43 -37 -141.5 -117t-140.5 -117l-100 128l282 232l-183 234l153 127l183 -234l284 234l99 -128l-282 -234q29 -37 90.5 -116t91.5 -116z" />
    <glyph glyph-name="divide2" unicode="&#x3b;&#x3b;Divide&#x3b;&#x3b;" horiz-adv-x="1056" 
d="M696 252q-11 -50 -52.5 -84.5t-90.5 -34.5t-76 35t-17 84t52 84t91 35t76.5 -34.5t16.5 -84.5zM827 866q-11 -50 -53 -84.5t-91 -34.5t-75.5 35t-16.5 84t52 84t91 35t76.5 -34.5t16.5 -84.5zM208 462l38 180h838l-38 -180h-838z" />
    <glyph glyph-name="rulakkhangyao" unicode="&#xc4;&#xd2;" horiz-adv-x="1904" 
d="M1018 939v1q114 -88 83 -231l-238 -1120h-180l238 1120q11 53 -48 93t-176 40q-91 0 -223 -35l-103 -487q-20 -92 11 -122.5t116 -30.5l-38 -179q-165 0 -234 77.5t-35 253.5l131 616q243 86 414 86q181 0 282 -82zM1923 705l-237 -1116h-178l237 1115q11 56 -32 96.5
t-138 40.5q-113 0 -316 -85l-42 162q243 103 397 103q168 0 253 -91.5t56 -224.5z" />
    <glyph glyph-name="lulakkhangyao" unicode="&#xc6;&#xd2;" horiz-adv-x="1899" 
d="M1025 940v-1q112 -89 82 -229l-238 -1121h-180l238 1121q11 53 -48 92.5t-177 39.5q-103 0 -222 -34l-134 -632q-17 -80 -101.5 -134t-178.5 -54l38 179q21 0 42 3t22 6l161 759q241 86 412 86q183 0 284 -81zM1916 705l-237 -1116h-179l237 1115q11 56 -32 96.5
t-137 40.5q-113 0 -317 -85l-40 163q240 102 396 102q168 0 253 -91.5t56 -224.5z" />
    <glyph glyph-name=".notdef" horiz-adv-x="1536" 
d="M1280 0h-1024v1280h1024v-1280zM298 32h940q10 0 10 10v1196q0 10 -10 10h-940q-10 0 -10 -10v-1196q0 -10 10 -10z" />
    <glyph glyph-name=".null" 
 />
    <glyph glyph-name="nonmarkingreturn" horiz-adv-x="579" 
 />
    <glyph glyph-name="space" unicode=" " horiz-adv-x="690" 
 />
    <glyph glyph-name="exclam" unicode="!" horiz-adv-x="429" 
d="M204 355l179 929h204l-212 -929h-171zM373 133q-11 -54 -57.5 -92.5t-102.5 -38.5q-53 0 -84 39t-20 92q11 54 59 93t101 39q56 0 85.5 -38.5t18.5 -93.5z" />
    <glyph glyph-name="quotedbl" unicode="&#x22;" horiz-adv-x="620" 
d="M267 801l78 423h188l-96 -423h-170zM521 801l79 423h188l-97 -423h-170z" />
    <glyph glyph-name="numbersign" unicode="#" horiz-adv-x="1370" 
d="M1285 464l-38 -181h-258q-25 -47 -74.5 -146t-69.5 -138h-190l145 284h-303q-4 -7 -11.5 -22.5t-14 -28.5l-11.5 -23v1q-39 -79 -106 -211h-190l145 284h-226l38 180h278q33 64 111 218h-230l38 179h282q16 32 67.5 132t76.5 153h187l-144 -285h304q85 166 143 285h188
l-142 -284h201l-39 -180h-255q-13 -25 -47 -95t-61 -122h206zM588 463h302q60 114 112 218h-305q-55 -113 -109 -218z" />
    <glyph glyph-name="dollar" unicode="$" horiz-adv-x="1090" 
d="M1033 327l-1 -5q-38 -143 -141 -221t-244 -97l-25 -119h-181l24 114q-179 18 -369 112l108 165q92 -46 191.5 -74t181.5 -28q106 0 179 39.5t98 120.5q5 29 -4 52.5t-23.5 37t-44 25.5t-50 17.5t-56.5 13.5q-29 6 -53 9q-7 2 -30 5q-50 8 -83.5 15t-94 31t-94 57
t-53.5 94.5t-3 140.5q23 86 70 150t110 100.5t128 55.5t139 24l25 113h181l-25 -114q142 -17 292 -84l-109 -167q-68 33 -155.5 54.5t-168.5 21.5q-114 0 -197.5 -42t-109.5 -117q-5 -30 6 -54.5t28.5 -39t48.5 -26.5t54.5 -18t57.5 -12q18 -4 45.5 -7.5t49.5 -7.5
q25 -5 40.5 -8t43 -10t46.5 -14.5t44.5 -18.5t42.5 -25.5t36 -32.5t29.5 -41t18 -50t6.5 -61.5t-9 -73.5z" />
    <glyph glyph-name="percent" unicode="%" horiz-adv-x="1457" 
d="M643 1133q99 0 155.5 -70.5t34.5 -171.5l-23 -106q-21 -100 -107 -171t-185 -71h-118q-100 0 -155.5 70.5t-34.5 171.5l23 106q22 101 107 171.5t185 70.5h118zM555 717q26 0 50 20t30 48l23 106q6 28 -9.5 47.5t-42.5 19.5h-118q-27 0 -50.5 -19.5t-29.5 -47.5l-23 -106
q-6 -28 9.5 -48t42.5 -20h118zM1292 599q101 0 156.5 -70.5t33.5 -171.5l-22 -106q-22 -101 -107.5 -171.5t-186.5 -70.5h-115q-101 0 -156.5 70.5t-33.5 171.5l22 106q22 101 107.5 171.5t186.5 70.5h115zM1204 184q28 0 51.5 19.5t29.5 47.5l22 106q6 28 -9 47.5t-43 19.5
h-115q-28 0 -52 -19.5t-30 -47.5l-22 -106q-6 -28 9.5 -47.5t43.5 -19.5h115zM1277 1143h225l-1087 -1143h-223z" />
    <glyph glyph-name="ampersand" unicode="&#x26;" horiz-adv-x="1273" 
d="M1286 894l-44 -203h76l-36 -172h-76l-34 -160q-22 -104 -101 -190t-191 -134.5t-230 -48.5h-70q-117 0 -208.5 48.5t-135 135t-21.5 189.5l8 40q31 142 123 214q-57 83 -30 218l1 5q30 135 130 224.5t226 89.5h255l-37 -174h-254q-52 0 -92 -38.5t-53 -103.5
q-14 -66 9 -103.5t76 -39.5h491l44 203h174zM998 360l34 159h-492q-115 0 -141 -120l-8 -39q-18 -81 47.5 -140.5t178.5 -59.5h70q115 0 204.5 59.5t106.5 140.5z" />
    <glyph glyph-name="quotesingle" unicode="'" horiz-adv-x="307" 
d="M243 801l77 423h190l-97 -423h-170z" />
    <glyph glyph-name="parenleft" unicode="(" horiz-adv-x="393" 
d="M665 1315l-34 -55q-189 -305 -265 -662q-27 -125 -37.5 -256.5t-5.5 -237t11.5 -169t14.5 -106.5h-195q-51 381 32 772q78 363 285 714h194z" />
    <glyph glyph-name="parenright" unicode=")" horiz-adv-x="423" 
d="M310 1315h192q60 -353 -17 -717q-83 -385 -298 -769h-191q26 45 58.5 107t82 168t95 237.5t72.5 256.5q76 357 6 717z" />
    <glyph glyph-name="asterisk" unicode="*" horiz-adv-x="929" 
d="M1027 908l-261 -71l17 -29q14 -24 48 -86t48 -86l-177 -112l-103 205q-29 -33 -93 -103t-92 -102l-130 111l198 202q-42 12 -130.5 40.5t-97.5 31.5l95 181l224 -85q14 76 47 254h189l-61 -255q63 21 95 31h-1q42 14 164 54z" />
    <glyph glyph-name="plus" unicode="+" horiz-adv-x="1008" 
d="M1059 662l-38 -180h-329l-70 -329h-180l70 329h-331l38 180h331l70 330h180l-70 -330h329z" />
    <glyph glyph-name="comma" unicode="," horiz-adv-x="431" 
d="M94 -82l109 366h205l-143 -366h-171z" />
    <glyph glyph-name="hyphen" unicode="-" horiz-adv-x="1069" 
d="M212 482l38 180h838l-38 -180h-838z" />
    <glyph glyph-name="period" unicode="." horiz-adv-x="400" 
d="M357 133q-11 -54 -57.5 -92.5t-102.5 -38.5q-53 0 -83.5 39t-19.5 92q11 54 58.5 93t100.5 39q56 0 85.5 -38.5t18.5 -93.5z" />
    <glyph glyph-name="slash" unicode="/" horiz-adv-x="749" 
d="M936 1303h196l-968 -1466l-194 2z" />
    <glyph glyph-name="zero" unicode="0" horiz-adv-x="1176" 
d="M843 1176q177 -4 280 -94t90 -235h1q-6 -89 -37 -244q-28 -130 -74 -274v-3q-48 -148 -189 -238.5t-322 -93.5q-178 3 -279 95.5t-90 238.5q1 6 6 45.5t14.5 103.5t23.5 126q29 139 67 244q51 142 191 233.5t318 95.5zM631 175q115 10 195.5 63t108.5 132q1 2 2 5.5
t1 5.5q36 115 59 222q23 110 32 220v-1q4 70 -56.5 118.5t-167.5 55.5q-108 -7 -189 -56t-109 -118q-31 -87 -59 -219q-32 -147 -39 -240q-11 -77 47.5 -129t174.5 -59z" />
    <glyph glyph-name="one" unicode="1" horiz-adv-x="930" 
d="M806 1142h158l-242 -1142h-180l192 907q-118 -73 -401 -251l-77 144z" />
    <glyph glyph-name="two" unicode="2" horiz-adv-x="1152" 
d="M680 453v1q-42 -9 -82.5 -25.5t-88.5 -46.5t-88 -82t-62 -119h652l-38 -181h-837l28 134q21 98 68 180t101 133.5t121 91.5t119 59t104 31q39 9 52.5 12t52 14t57 19t48.5 23.5t46.5 31.5t32.5 39t22 50q6 75 -60.5 117.5t-177.5 42.5q-166 0 -356 -76l-39 164
q233 92 434 92q66 0 124.5 -10t112.5 -35t90.5 -62.5t52 -96.5t2.5 -134q-9 -43 -27 -82t-38 -68t-50.5 -55.5t-55.5 -44.5t-62 -35.5t-60.5 -27t-62 -20.5t-55 -15l-49.5 -12h1q-15 -5 -32 -7z" />
    <glyph glyph-name="three" unicode="3" horiz-adv-x="1121" 
d="M1052 399l-30 -143q-56 -263 -398 -267h-178q-329 6 -256 354h178q-21 -99 12.5 -136t119.5 -37h154q89 0 133.5 20t54.5 66l30 142q6 28 2 47t-39 28.5t-111 9.5h-130l38 180h133q101 2 133.5 16t44.5 70l21 101q15 71 -19 99t-120 28h-154q-82 0 -132.5 -35t-72.5 -139
h-178q74 347 403 353h177q57 0 103 -9t87 -30t63.5 -56.5t31.5 -87.5t-8 -123l-22 -103q-25 -110 -89 -174q42 -66 18 -174z" />
    <glyph glyph-name="four" unicode="4" horiz-adv-x="1118" 
d="M956 424h122l-39 -181h-122l-51 -243h-179l51 243h-609l32 150l726 749h221zM777 424l100 474q-55 -57 -163 -167q-85 -87 -297 -307h360z" />
    <glyph glyph-name="five" unicode="5" horiz-adv-x="1148" 
d="M1086 586l1 -1q18 -57 3 -127l-43 -203q-56 -263 -399 -267h-177q-57 1 -102.5 13t-83.5 37.5t-58 66.5t-26.5 100t11.5 137h180q-20 -95 11.5 -133.5t119.5 -38.5h156q88 0 133.5 19.5t55.5 65.5l43 203q10 45 -27 65t-126 20h-476l128 604h803l-38 -181h-623l-52 -243
h320q224 -7 266 -137z" />
    <glyph glyph-name="six" unicode="6" horiz-adv-x="1132" 
d="M1083 615q39 -97 13 -241q-38 -154 -128 -255.5t-209 -116.5h-10q-103 -10 -199 -10q-119 0 -179 12h1q-112 15 -158.5 117t-21.5 253q25 103 82 191l380 581h195l-258 -393q41 4 121 4q103 0 205 -12q58 -7 101 -41.5t65 -88.5zM772 177q36 8 81 56t67 141
q18 88 -2 138.5t-66 57.5q-102 12 -177 12q-85 0 -157 -12q-40 -4 -82.5 -51.5t-67.5 -142.5q-3 -35 -4.5 -63t6.5 -49.5t16.5 -37t24.5 -26.5t31 -17.5t36 -10t39 -5t40 -1.5h30q165 0 187 11h-2z" />
    <glyph glyph-name="seven" unicode="7" horiz-adv-x="1046" 
d="M1130 1146q33 0 40 -39t-1 -106l-705 -1001h-202l681 965h-679l38 181h828z" />
    <glyph glyph-name="eight" unicode="8" horiz-adv-x="1137" 
d="M1075 516v2q8 -40 -8 -118l-22 -103q-67 -310 -404 -310h-179q-75 1 -131 17.5t-96.5 53t-51 95t5.5 144.5l22 103q25 118 90 177q-36 61 -13 175l23 100q16 73 47.5 128.5t69 88.5t87 53.5t95 28.5t98.5 9h179q58 -1 104 -11t86 -32t62 -57.5t30 -87t-8 -120.5l-22 -103
q-27 -111 -88 -171q14 -22 24 -62zM490 852l-21 -98q-11 -52 14.5 -69t127.5 -18h170q98 0 132 16t46 71l21 98q15 71 -19 99t-121 28h-156q-81 0 -129.5 -25.5t-64.5 -101.5zM672 166q37 0 64.5 4.5t55.5 17.5t46.5 40.5t27.5 68.5l26 124q4 38 -25.5 51.5t-123.5 14.5
q-1 0 -3 -1h-3l-2 1h-152q-75 0 -127 -10q-30 -6 -43.5 -19.5t-22.5 -57.5l-22 -103q-16 -73 19.5 -102t123.5 -29h161zM892 420l-3 -20q0 1 3 20z" />
    <glyph glyph-name="nine" unicode="9" horiz-adv-x="1142" 
d="M291 530q-40 95 -14 241q37 149 129 250.5t211 121.5q70 11 207 11q119 0 178 -11q110 -20 157.5 -121.5t20.5 -250.5q-23 -102 -79 -191l-381 -580h-195l256 392q-39 -3 -120 -3q-126 0 -203 11q-120 17 -167 130zM515 909l6 8q-46 -57 -67 -145q-17 -87 2 -138.5
t63 -59.5q59 -11 179 -11q70 0 158 11h-1q44 9 85.5 63t65.5 134q10 66 -1 110t-41 64t-61.5 27t-75.5 7h-40q-66 0 -159 -8q-35 -3 -60.5 -16t-52.5 -46z" />
    <glyph glyph-name="colon" unicode=":" horiz-adv-x="451" 
d="M503 738q-11 -54 -57.5 -93t-101.5 -39q-53 0 -84 39.5t-20 92.5t59 92t101 39q56 0 85 -38.5t18 -92.5zM399 248q-11 -54 -57.5 -93t-101.5 -39q-53 0 -84 39.5t-20 92.5t59 92t101 39q56 0 85 -38.5t18 -92.5z" />
    <glyph glyph-name="semicolon" unicode=";" horiz-adv-x="475" 
d="M95 -82l108 366h205l-142 -366h-171zM523 738q-11 -54 -57.5 -93t-101.5 -39q-53 0 -84 39.5t-20 92.5t59 92t101 39q55 0 84.5 -38.5t18.5 -92.5z" />
    <glyph glyph-name="less" unicode="&#x3c;" horiz-adv-x="796" 
d="M976 1140l-563 -570q42 -69 95 -163t132 -236.5t94 -170.5h-228l-286 511l25 119l503 510h228z" />
    <glyph glyph-name="equal" unicode="=" horiz-adv-x="1059" 
d="M196 340l38 181h806l-38 -181h-806zM256 624l39 181h806l-39 -181h-806z" />
    <glyph glyph-name="greater" unicode="&#x3e;" horiz-adv-x="806" 
d="M827 670l22 -40l-25 -119l-39 -39q-67 -69 -198 -201.5t-185 -187.5l-80 -83h-229l563 570q-121 220 -321 570h229z" />
    <glyph glyph-name="question" unicode="?" horiz-adv-x="1045" 
d="M1146 959v-2q-12 -55 -31.5 -100.5t-40 -76.5t-49.5 -56t-52 -39t-54.5 -25.5t-50.5 -16t-47.5 -10.5t-37.5 -8q-34 -7 -52 -13t-42.5 -20.5t-39.5 -40.5t-23 -66q-6 -27 -14 -135l-185 -28q8 117 18 163q11 54 30.5 97.5t41.5 73.5t53.5 54.5t58.5 38.5t65 27t65.5 19.5
t67.5 15.5t63 16h-1q24 10 42.5 36.5t33.5 90.5q8 78 -60 120.5t-179 42.5q-80 0 -178 -22t-181 -56l-36 166q233 92 433 92q63 0 120.5 -9.5t113 -34t93 -61.5t54 -97t1.5 -136zM623 133q-11 -54 -57 -92.5t-102 -38.5q-53 0 -84 39t-20 92q11 54 59 93t101 39
q56 0 85 -38.5t18 -93.5z" />
    <glyph glyph-name="at" unicode="@" horiz-adv-x="1561" 
d="M1150 183q84 69 151 167.5t88 195.5q21 98 -1 191t-75.5 161.5t-138 110.5t-182.5 42q-99 0 -201 -42t-185 -110.5t-144 -161.5t-82 -191q-28 -131 16.5 -248t146.5 -187t234 -70q67 0 138 20l29 136q-106 -32 -191 -32q-125 0 -187 65t-36 186q29 136 121.5 203.5
t221.5 67.5q75 0 170 -24l3 11q7 35 -22.5 61t-86.5 26q-41 0 -70 -2t-81.5 -16.5t-102.5 -42.5l-45 145q62 35 127.5 53t104.5 20.5t101 2.5q127 0 200 -65t49 -182l-111 -522q27 18 41 31zM1025 1206q107 0 200.5 -34t161 -94t113 -143t56 -181t-10.5 -208
q-38 -179 -159.5 -331t-292.5 -240.5t-349 -88.5q-179 0 -312.5 88.5t-189 240.5t-17.5 331t158.5 330.5t291.5 240.5t350 89zM983 381l22 100q-100 29 -170 29q-59 0 -89 -21t-41 -73q-8 -39 12 -57t73 -18q74 0 193 40z" />
    <glyph glyph-name="A" unicode="A" horiz-adv-x="1245" 
d="M1018 0l-53 259h-560q-114 -177 -164 -259h-200l734 1161h200l242 -1161h-199zM517 442h408q-19 93 -51 250t-48 235q-33 -52 -139 -218.5t-170 -266.5z" />
    <glyph glyph-name="B" unicode="B" horiz-adv-x="1235" 
d="M1191 377l-1 -1q-14 -67 -32 -119.5t-43.5 -91t-51.5 -66.5t-64.5 -46t-72.5 -29t-87.5 -16t-97.5 -6.5t-113 -1.5l-482 1l247 1162h454q144 0 198 -7q137 -18 181.5 -94t12.5 -229q-26 -119 -88 -185q46 -41 54 -111.5t-14 -159.5zM537 982l-57 -267q27 0 80.5 -0.5
t81.5 -0.5h182q132 0 184 27q32 17 48 93q6 31 7 52t-2.5 38t-18 27t-30.5 16.5t-49.5 9.5t-66 4t-88.5 1h-271zM1007 376l1 1q5 23 7.5 41t0.5 33.5t-4 26.5t-12 19.5t-18.5 14.5t-28 10t-34.5 6t-45 3.5t-53.5 1.5h-64.5h-314l-75 -350q53 1 148 2.5t173 2.5t148 1
q72 9 111 47.5t60 139.5z" />
    <glyph glyph-name="C" unicode="C" horiz-adv-x="1125" 
d="M649 171q159 0 413 85l24 -172q-279 -96 -476 -96q-205 0 -325 94t-110 246q15 149 43 282q30 139 70 248q56 151 214.5 243.5t364.5 92.5q196 0 435 -96l-98 -172q-215 85 -376 85q-141 0 -237.5 -50.5t-128.5 -128.5q-40 -120 -62 -222q-27 -128 -40 -260
q1 -76 77 -127.5t212 -51.5z" />
    <glyph glyph-name="D" unicode="D" horiz-adv-x="1179" 
d="M784 1177q234 0 341.5 -56.5t122.5 -182.5t-32 -329q-9 -43 -20.5 -87.5t-21 -78t-17.5 -60t-13.5 -43t-5.5 -17.5q-62 -176 -202 -247.5t-402 -71.5q-147 0 -416 26l238 1120q276 27 428 27zM963 349q17 43 24 75l1 6q4 20 20.5 81t24.5 98q27 131 32 222
q2 40 -8.5 67.5t-42 50.5t-96 34t-164.5 11q-134 0 -250 -9l-168 -789q114 -9 237 -9q134 0 213 18t116.5 51t60.5 93z" />
    <glyph glyph-name="E" unicode="E" horiz-adv-x="1079" 
d="M1190 981h-688l-66 -309h628l-38 -182h-628l-66 -308h688l-38 -182h-871l247 1163h871z" />
    <glyph glyph-name="F" unicode="F" horiz-adv-x="1079" 
d="M1188 981h-687l-66 -309h629l-38 -182h-629l-104 -490h-182l247 1163h869z" />
    <glyph glyph-name="G" unicode="G" horiz-adv-x="1174" 
d="M1172 505l-94 -435q-270 -92 -462 -92q-210 0 -330 92t-107 247q19 162 44 282q29 137 69 251q60 150 219 242.5t362 93.5q189 -2 435 -96l-99 -172q-218 85 -375 85q-142 0 -239.5 -50.5t-125.5 -129.5q-36 -97 -63 -224q-35 -165 -39 -254l-1 -5h1q-7 -77 68 -128.5
t220 -51.5q110 0 268 41l65 304h184z" />
    <glyph glyph-name="H" unicode="H" horiz-adv-x="1197" 
d="M1148 1161h182l-246 -1161h-182l103 489h-607l-103 -489h-182l246 1161h182l-104 -489h607z" />
    <glyph glyph-name="I" unicode="I" horiz-adv-x="431" 
d="M386 1161h183l-246 -1161h-183z" />
    <glyph glyph-name="J" unicode="J" horiz-adv-x="901" 
d="M1050 1161l-166 -780q-46 -221 -152.5 -311t-305.5 -90q-142 0 -417 54l69 180q298 -56 380 -56q111 0 163.5 47t79.5 176l128 598h-281l39 184z" />
    <glyph glyph-name="K" unicode="K" horiz-adv-x="1165" 
d="M1082 670q46 -39 64 -97.5t4 -125.5l-95 -447h-184l94 445q10 52 -33 86t-138 34q-171 0 -404 -114l-95 -451h-183l246 1160h183l-107 -505q126 51 245 76l4 1q185 29 281.5 120.5t131.5 259.5l10 50h181l-10 -50q-56 -261 -234 -412q21 -14 39 -30z" />
    <glyph glyph-name="L" unicode="L" horiz-adv-x="1062" 
d="M332 184h684l-39 -184h-866l247 1164h182z" />
    <glyph glyph-name="M" unicode="M" horiz-adv-x="1313" 
d="M1284 1164h155l-247 -1164h-180l181 854q-217 -198 -445 -410l-270 411l-181 -855h-181l247 1164h156l288 -441q83 80 267.5 249t209.5 192z" />
    <glyph glyph-name="N" unicode="N" horiz-adv-x="1196" 
d="M1330 1164l-247 -1164h-185l30 145q-370 580 -453 709l-181 -854h-181l247 1164h155l473 -739l157 739h185z" />
    <glyph glyph-name="O" unicode="O" horiz-adv-x="1228" 
d="M1301 855q-7 -116 -37 -253q-14 -66 -32 -132.5t-31 -107.5t-14 -46q-54 -153 -212.5 -244t-366.5 -91q-207 0 -327 90.5t-107 247.5l13 100q13 100 30 183q31 138 71 252q58 151 215.5 242.5t361.5 91.5q212 0 328 -91t108 -242zM647 162q140 0 235.5 50.5t128.5 127.5
q1 8 27 94t41 156q25 119 35 236v-2q-2 76 -78.5 128t-209.5 52q-139 0 -238 -51.5t-126 -126.5q-38 -99 -64 -224q-24 -116 -39 -261q-2 -75 73 -127t215 -52z" />
    <glyph glyph-name="P" unicode="P" horiz-adv-x="1100" 
d="M786 1163q61 0 91 -0.5t81.5 -3.5t76.5 -9.5t63 -19.5t54.5 -32t36 -47.5t23.5 -65.5t2 -87.5t-15 -112.5q-15 -73 -39.5 -128.5t-49 -92t-67 -61.5t-73.5 -38t-91 -19t-96.5 -7t-111.5 -1h-7h-276l-93 -438h-184l247 1163h428zM1017 786v1q8 36 11 60t0 45.5t-9.5 34.5
t-25.5 24t-39.5 16t-59 8t-77.5 4t-102 1h-212l-77 -359h276q130 0 177 6q41 5 62.5 15.5t41.5 44t34 99.5z" />
    <glyph glyph-name="Q" unicode="Q" horiz-adv-x="1231" 
d="M1303 852l-1 -1q-7 -110 -36 -251q-28 -132 -75 -277q0 -2 -1.5 -5.5t-1.5 -4.5q-48 -132 -177.5 -219t-306.5 -109q0 -64 91 -64q60 0 188 29l3 -181q-151 -31 -230 -31q-278 0 -236 247q-176 18 -266 105t-80 226q6 101 45 284q34 159 69 252q57 152 214 243t365 91
q205 0 324 -90.5t112 -243.5zM1013 344q37 102 70 256q25 116 31 223v-1q0 77 -74 129.5t-212 52.5q-139 0 -236 -52t-129 -129l1 1q-41 -113 -64 -224q-29 -134 -39 -259q-6 -77 68.5 -128.5t219.5 -52.5q137 1 233.5 52.5t129.5 126.5z" />
    <glyph glyph-name="R" unicode="R" horiz-adv-x="1109" 
d="M954 414q59 -243 135 -416h-218q-78 203 -116 439q-30 -1 -98 -1h-270l-93 -437h-182l248 1164h387q153 0 230 -9q155 -19 204 -105.5t11 -264.5q-29 -137 -90 -216.5t-159 -107.5q2 -8 6 -24.5t5 -21.5zM696 620q216 0 254 27q38 28 62 139q28 135 -24.5 164t-279.5 29
h-205l-77 -359h270z" />
    <glyph glyph-name="S" unicode="S" horiz-adv-x="1067" 
d="M1046 334v-1q-23 -91 -75.5 -159.5t-123 -107t-146.5 -57t-157 -18.5q-108 0 -227 32.5t-226 88.5l109 164q203 -100 379 -100q112 0 190 38.5t95 120.5q6 30 -4 54t-27 38.5t-48.5 26.5t-55 18t-60 13.5t-50.5 11.5q-12 3 -45 10q-27 5 -41.5 8t-44 10.5t-48 15t-46 19
t-44.5 25.5t-37.5 32t-31 41t-19 50.5t-7.5 61.5t9 73q20 95 76.5 165t134 107t158 54.5t165.5 17.5q209 0 401 -95l-110 -165q-67 34 -157 55.5t-173 21.5q-82 0 -146 -17t-109 -54t-58 -92q-6 -30 5 -54t28.5 -39t51.5 -28t56.5 -19t62 -14t50.5 -11q26 -6 35 -6
q141 -25 208 -66q140 -84 103 -270z" />
    <glyph glyph-name="T" unicode="T" horiz-adv-x="994" 
d="M271 1164h952l-39 -183h-383l-208 -981h-182l208 981h-387z" />
    <glyph glyph-name="U" unicode="U" horiz-adv-x="1197" 
d="M1337 1161l-109 -513q-43 -202 -76 -307q-67 -198 -197 -281.5t-365 -83.5q-72 0 -129 6t-100 22t-75.5 33t-52 49.5t-32.5 59.5t-15 75.5t-1 86t11.5 101.5t19.5 111.5t26 126.5l109 514h183l-109 -514q-44 -204 -51 -282q-3 -56 5 -91.5t35.5 -62.5t80.5 -39t138 -12
q49 0 88 4.5t71.5 12t58 23.5t46 33t37.5 47.5t30 59.5t26.5 76.5t24 91t24.5 110.5l115 543h183z" />
    <glyph glyph-name="V" unicode="V" horiz-adv-x="1219" 
d="M1259 1163h199l-743 -1163h-201l-249 1163h198l201 -930q100 159 300 470t295 460z" />
    <glyph glyph-name="W" unicode="W" horiz-adv-x="1390" 
d="M1323 1163h184l-367 -1163h-153l-220 398q-151 -152 -387 -398h-159l127 1163h183l-94 -866q290 295 395 404l219 -397q36 115 130 411t142 448z" />
    <glyph glyph-name="X" unicode="X" horiz-adv-x="1214" 
d="M866 582l328 -582h-232l-259 460q-7 -7 -451 -460h-233l574 581q-106 190 -327 582h233l256 -460q3 3 9.5 10t9.5 10q54 55 206.5 209.5t228.5 230.5h232z" />
    <glyph glyph-name="Y" unicode="Y" horiz-adv-x="1181" 
d="M1199 1163h232l-631 -638l-111 -525h-183l110 521q-34 62 -163.5 292.5t-194.5 349.5h230l257 -460q14 14 19 20q54 55 206.5 209.5t228.5 230.5z" />
    <glyph glyph-name="Z" unicode="Z" horiz-adv-x="1153" 
d="M393 182h705l-38 -182h-892q-55 0 -39 160l875 820h-698l38 182h892q52 0 38 -152z" />
    <glyph glyph-name="bracketleft" unicode="[" horiz-adv-x="478" 
d="M721 1136h-178l-240 -1128h178l-38 -181h-358l317 1491h358z" />
    <glyph glyph-name="backslash" unicode="\" horiz-adv-x="778" 
d="M206 1303h197l343 -1466h-195z" />
    <glyph glyph-name="bracketright" unicode="]" horiz-adv-x="492" 
d="M39 8h178l240 1128h-178l38 181h358l-316 -1491h-358z" />
    <glyph glyph-name="asciicircum" unicode="^" horiz-adv-x="1021" 
d="M851 1219l272 -487h-228l-170 300q-43 -44 -93 -94.5t-110.5 -111.5t-93.5 -94h-228l481 487h170z" />
    <glyph glyph-name="underscore" unicode="_" horiz-adv-x="1141" 
d="M42 -142l39 180h1013l-39 -180h-1013z" />
    <glyph glyph-name="grave" unicode="`" horiz-adv-x="471" 
d="M436 779l-124 446h227l90 -446h-193z" />
    <glyph glyph-name="a" unicode="a" horiz-adv-x="1015" 
d="M1044 664l-141 -664h-114q-33 0 -41 55q-174 -58 -311 -58q-157 0 -233.5 82.5t-45.5 227.5q37 174 151 259t283 85q116 0 261 -41l12 54q12 58 -34 93.5t-136 35.5q-160 0 -359 -113l-64 150q252 143 455 143q75 0 138.5 -19.5t109.5 -56.5t65.5 -97t3.5 -136zM353 212
q31 -36 122 -36q115 0 300 66l38 181q-165 50 -259 50t-147 -39.5t-70 -122.5q-14 -67 16 -99z" />
    <glyph glyph-name="b" unicode="b" horiz-adv-x="1018" 
d="M1064 695v-1q-7 -97 -28 -196q-26 -127 -59 -218q-33 -95 -104.5 -160t-155 -92t-176.5 -27q-136 0 -252 49q-25 -50 -62 -50h-115l268 1263h180l-73 -341q129 48 244 48q152 0 245.5 -78t87.5 -197zM802 301q1 3 2.5 8.5t5.5 18t9 28.5q26 86 37 142q17 77 24 169
q2 49 -49 86t-139 37q-117 0 -247 -67l-102 -482q114 -61 236 -61q81 0 140.5 30.5t82.5 90.5z" />
    <glyph glyph-name="c" unicode="c" horiz-adv-x="936" 
d="M564 179q120 0 320 67l26 -167q-237 -80 -385 -80q-165 0 -262 76t-90 201q4 83 34 221q24 115 55 195q47 124 176 199.5t293 75.5q155 0 351 -80l-97 -167q-174 68 -292 68q-102 0 -170.5 -34.5t-88.5 -87.5q-27 -75 -47 -169q-10 -46 -29 -178v-7q-4 -57 47.5 -95
t158.5 -38z" />
    <glyph glyph-name="d" unicode="d" horiz-adv-x="1021" 
d="M997 1262h179l-268 -1262h-114q-16 0 -27 14t-15 37q-148 -51 -272 -51q-69 0 -127.5 16t-104 48.5t-68.5 87.5t-17 126l-1 -1q7 93 34 220q25 113 55 196q44 117 172 196.5t278 79.5q116 0 223 -49zM780 241l102 482q-99 66 -219 66q-90 0 -156 -36.5t-84 -85.5
q-30 -80 -49 -170q-10 -47 -26 -164q-1 -5 -1 -16q-1 -68 42 -102.5t129 -34.5q124 0 262 61z" />
    <glyph glyph-name="e" unicode="e" horiz-adv-x="1016" 
d="M1029 506l-28 -133h-636q0 -4 -8 -60q-4 -57 47 -95.5t158 -38.5q118 0 322 68l25 -169q-234 -78 -385 -78q-167 0 -264 75t-88 202q6 86 35 220q26 117 54 197q47 121 172.5 195t287.5 78q-1 -1 -2 -1h3q159 -3 250 -76t84 -197q-6 -85 -27 -187zM400 552h457
q9 52 16 115q2 51 -47.5 84.5t-146.5 35.5q-65 -1 -113.5 -16.5t-76 -36.5t-46 -53t-26 -58t-15.5 -60q0 -2 -0.5 -3.5t-1 -3.5t-0.5 -4z" />
    <glyph glyph-name="f" unicode="f" horiz-adv-x="547" 
d="M573 1062l-4 -10q-22 -28 -37 -101h221l-39 -180h-221l-204 -963q-40 -125 -92 -125l-114 -1l231 1089h-110l39 180h110q11 47 22.5 83t38.5 82t63 76t96 51t136 21q47 0 153 -16l-66 -179q-91 15 -125 15q-77 0 -102 -31z" />
    <glyph glyph-name="g" unicode="g" horiz-adv-x="1022" 
d="M1000 967h114l-196 -921q-75 -360 -447 -360q-121 0 -314 52l78 173q171 -46 274 -46q53 0 93.5 12.5t63 28.5t38.5 44t22 47t12 49q-127 -48 -242 -48q-150 0 -244 78.5t-89 196.5q6 89 28 197q15 67 60 221q33 94 103.5 158t154 91t177.5 27q131 0 251 -50q27 50 63 50
zM781 245l102 481q-113 62 -235 62q-85 0 -143.5 -30t-78.5 -89v1q-33 -104 -55 -200q-20 -99 -24 -170q-4 -49 46.5 -85.5t140.5 -36.5q112 0 247 67z" />
    <glyph glyph-name="h" unicode="h" horiz-adv-x="1043" 
d="M1064 693q-4 -83 -29 -196l-105 -497h-180l105 497q20 92 25 169q-1 48 -52 85.5t-137 37.5q-117 0 -247 -67l-153 -722h-179l268 1262h179l-73 -341q129 48 243 48q152 0 248 -78.5t87 -197.5z" />
    <glyph glyph-name="i" unicode="i" horiz-adv-x="373" 
d="M559 1159q-10 -46 -50.5 -79.5t-87.5 -33.5q-46 0 -72.5 33t-16.5 80t50.5 80.5t86.5 33.5t73 -33.5t17 -80.5zM434 970q50 0 39 -125l-179 -845h-180l206 970h114z" />
    <glyph glyph-name="j" unicode="j" horiz-adv-x="373" 
d="M417 1043q-47 0 -73.5 33t-16.5 80q11 47 51 80.5t87 33.5t73.5 -33.5t16.5 -80.5q-10 -46 -50.5 -79.5t-87.5 -33.5zM434 970q50 0 39 -125l-177 -832q-6 -31 -12 -53t-19.5 -58t-29.5 -61.5t-43.5 -55t-61 -47.5t-82.5 -30.5t-108 -12.5q-66 0 -154 16l66 179
q89 -16 126 -16q23 0 42 5t31.5 10.5t23.5 19t16 21.5t11 27.5t7.5 26.5t6.5 29l204 957h114z" />
    <glyph glyph-name="k" unicode="k" horiz-adv-x="1051" 
d="M1142 973q-47 -220 -160 -318q77 -74 52 -191l-98 -464h-178l98 462q6 38 -25.5 61.5t-105.5 23.5q-145 0 -339 -97l-95 -450h-179l268 1262h179l-131 -613q144 58 256 72q127 13 189.5 65.5t90.5 186.5h178z" />
    <glyph glyph-name="l" unicode="l" horiz-adv-x="382" 
d="M385 1263h114q51 0 38 -125l-241 -1138h-179z" />
    <glyph glyph-name="m" unicode="m" horiz-adv-x="1426" 
d="M1233 971q61 -1 117 -24.5t76 -63.5q32 -66 10 -170l-151 -713h-179l151 713q8 37 -9 58t-53 21q-88 0 -264 -93l-148 -700h-180l152 714q7 36 -9 57t-51 21q-79 0 -244 -79l-151 -712h-179l205 967h114q36 0 42 -60q149 63 251 63q63 0 114.5 -24t74.5 -67
q203 92 311 92z" />
    <glyph glyph-name="n" unicode="n" horiz-adv-x="1016" 
d="M1056 717l-152 -717h-178l152 717q8 37 -21 60t-96 23q-135 0 -329 -97l-149 -703h-179l205 967h115q37 0 40 -68q191 81 335 81q140 0 211 -72t46 -191z" />
    <glyph glyph-name="o" unicode="o" horiz-adv-x="1049" 
d="M1046 480q-26 -117 -59 -208q-51 -122 -179 -199.5t-287 -77.5h-19q-122 7 -204.5 51.5t-108.5 122.5q-11 35 -13 104q-4 55 35 236q23 110 55 201q1 1 1 2l4 8q45 120 164.5 192t279.5 82q171 0 272 -73t95 -202l-1 -11q-2 -9 -12.5 -88.5t-22.5 -139.5zM812 303
q29 81 51 177q24 113 30 187q6 56 -46 96.5t-152 48.5q-100 -4 -165.5 -38.5t-85.5 -86.5v1q-34 -94 -51 -179q-20 -94 -29 -191q-4 -55 42 -95t143 -46h3h6q100 3 167 38t87 88z" />
    <glyph glyph-name="p" unicode="p" horiz-adv-x="1021" 
d="M1062 691q-7 -98 -33 -221q-22 -108 -55 -197q-45 -117 -174 -196t-277 -79q-113 0 -222 48l-77 -364h-180l273 1285h116q34 0 40 -50q139 50 273 50q69 0 127.5 -16t104 -48.5t68.5 -86.5t16 -125zM803 302q26 70 47 168q19 91 30 180q4 64 -42.5 101t-129.5 37
q-123 0 -262 -62l-102 -481q105 -67 217 -67q90 0 156.5 37t85.5 87z" />
    <glyph glyph-name="q" unicode="q" horiz-adv-x="1021" 
d="M190 470q21 95 60 221q24 71 70.5 125t105.5 86.5t124.5 48.5t134.5 16q131 0 251 -50q27 50 62 50h115l-273 -1285h-179l77 364q-128 -48 -243 -48q-149 0 -243.5 79t-89.5 196q6 87 28 197zM346 302q-4 -50 46.5 -87t140.5 -37q111 0 248 67l102 481q-116 62 -236 62
q-84 0 -144.5 -35.5t-82.5 -98.5q-2 -10 -22 -74.5t-30 -109.5q-19 -91 -22 -168z" />
    <glyph glyph-name="r" unicode="r" horiz-adv-x="582" 
d="M762 978l-26 -126q-15 -39 -85 -56q-98 -12 -218 -81l-151 -715h-179l205 967h114q33 0 42 -53q146 64 298 64z" />
    <glyph glyph-name="s" unicode="s" horiz-adv-x="866" 
d="M862 279l-2 -3q-20 -77 -63.5 -134t-102 -88.5t-121.5 -46.5t-132 -15q-176 0 -375 101l109 162q165 -84 304 -84q79 0 133 30t71 84q3 17 -0.5 31t-16 24t-22 16.5t-33 13t-34 9t-38.5 8.5l-39 9h2q-1 0 -3.5 0.5t-3.5 0.5q-5 0 -19 2q-21 3 -36.5 6t-42.5 9.5t-45 14
t-45 20t-41 27.5t-34 36.5t-23.5 46.5t-9.5 58.5t7 71.5q20 80 68 139t112.5 90t129.5 45t136 15q166 -2 332 -80l-108 -164q-56 28 -127.5 46t-134.5 18q-93 0 -154.5 -28t-75.5 -86q-5 -24 7.5 -43t40.5 -31t51.5 -18.5t57.5 -13.5q4 0 11 -1.5t10 -2.5q2 0 7 -2t7 -2
l16 -2q1 0 4.5 -0.5t5.5 -0.5q125 -23 182 -61q110 -73 78 -227z" />
    <glyph glyph-name="t" unicode="t" horiz-adv-x="638" 
d="M619 195l-10 -179q-102 -16 -160 -16q-59 0 -103 12.5t-70 31t-41 48.5t-20 55t-3 62t5.5 58.5t10.5 53.5l95 449h-111l38 180h111l67 312h179l-67 -312h221l-38 -180h-221l-95 -449q-5 -24 -7 -34.5t-4 -31.5t2.5 -30.5t13.5 -22t28 -17.5t47 -5q42 0 132 15z" />
    <glyph glyph-name="u" unicode="u" horiz-adv-x="1025" 
d="M939 967h178l-205 -967h-113q-37 0 -42 68q-191 -80 -335 -80q-140 1 -211 72.5t-46 189.5l152 717h179l-152 -717q-8 -37 21 -60t95 -23q136 0 330 97z" />
    <glyph glyph-name="v" unicode="v" horiz-adv-x="963" 
d="M984 969h194l-623 -969h-155l-206 969h147q35 0 67 -90l129 -610q258 409 447 700z" />
    <glyph glyph-name="w" unicode="w" horiz-adv-x="1295" 
d="M1234 254q-24 -114 -138.5 -190t-242.5 -76q-114 0 -192 65q-108 -65 -222 -65q-126 0 -208.5 76t-58.5 190l152 712h178l-152 -712q-6 -33 31 -60t96 -27q63 0 127 42l109 515h178l-109 -513q50 -44 109 -44q60 0 108.5 27t54.5 60l152 712h180z" />
    <glyph glyph-name="x" unicode="x" horiz-adv-x="1054" 
d="M751 485l309 -485h-234l-223 346q-60 -57 -183.5 -173t-183.5 -173h-235l513 485q-35 55 -307 485h235l220 -347q68 64 193.5 182t175.5 165h235z" />
    <glyph glyph-name="y" unicode="y" horiz-adv-x="1035" 
d="M948 968h180l-197 -922q-76 -359 -447 -359q-123 0 -316 52l82 172q168 -44 272 -44q51 0 90 10.5t62 26.5t39.5 40t23.5 44t13 47l2 11q-125 -47 -243 -47q-154 0 -247 76.5t-86 197.5q4 75 28 197l107 498h178l-106 -498q-18 -86 -24 -169q-3 -49 48 -86t140 -37
q113 0 248 67z" />
    <glyph glyph-name="z" unicode="z" horiz-adv-x="970" 
d="M1027 970q53 0 39 -125l-6 -29l-678 -636h543l-38 -180h-732q-51 0 -38 125l7 31l674 635h-539l38 179h730z" />
    <glyph glyph-name="braceleft" unicode="{" horiz-adv-x="574" 
d="M503 748q-23 -113 -79 -177q27 -67 5 -174l-56 -262q-15 -74 32.5 -100t154.5 -26l-38 -181q-54 0 -99 5.5t-88.5 19.5t-73 36.5t-51.5 57t-24 81t8 107.5l56 262q7 33 5 65q-1 11 -24.5 15.5t-86.5 4.5l38 181q97 0 111 8q16 6 31 77l56 259q16 75 51 131t79 89
t102 53.5t110.5 27.5t115.5 8l-38 -182q-52 0 -86.5 -4t-69 -16.5t-55.5 -39t-30 -67.5z" />
    <glyph glyph-name="bar" unicode="|" horiz-adv-x="383" 
d="M394 1307h180l-312 -1470h-180z" />
    <glyph glyph-name="braceright" unicode="}" horiz-adv-x="571" 
d="M332 396q23 110 79 175q-26 71 -5 176l56 260q15 74 -32.5 101t-154.5 27l38 181q54 0 99.5 -6t89 -19.5t73 -36.5t51.5 -57.5t24 -81.5t-8 -108l-56 -260q-9 -42 -6 -59q0 -15 23.5 -20.5t88.5 -5.5l-38 -181q-96 0 -112 -8q-15 -7 -30 -77l-56 -261q-16 -74 -51 -130
t-79 -88.5t-102 -53t-111 -27.5t-115 -8l38 182q41 0 70 2t60 9.5t51 21t36 36.5t23 56z" />
    <glyph glyph-name="asciitilde" unicode="~" horiz-adv-x="1101" 
d="M955 655l177 -49q-26 -52 -65 -100t-103.5 -87.5t-133.5 -39.5q-109 0 -231 88q-76 54 -134 54q-42 0 -85 -80l-172 48q16 37 42.5 74t64 72.5t87.5 57.5t104 22q112 0 230 -86h-1q83 -57 136 -57q24 0 47 27t37 56z" />
    <glyph glyph-name="thothannobasethai" horiz-adv-x="931" 
d="M924 861l4 5q56 -101 30 -223l-57 -269q-32 -149 -163.5 -257t-289.5 -119l-124 -2l-129 480h196l81 -299q92 10 163.5 66t87.5 131l57 269q17 81 -36.5 140t-147.5 59h-63q-61 0 -129 -40t-127 -108l-94 141q81 86 185.5 136t203.5 50h63q88 0 168 -39q24 16 48.5 47
t27.5 47h179q-12 -59 -49 -118t-82 -90l1 -2q-4 -4 -4 -5zM944 881q-10 -10 -16 -15l26 25q-1 -2 -2.5 -3.5t-4 -3.5t-3.5 -3zM965 901l-7 -7zM958 894l-4 -3z" />
    <glyph glyph-name="thothannobasethai" unicode="&#xf700;" horiz-adv-x="931" 
d="M924 861l4 5q56 -101 30 -223l-57 -269q-32 -149 -163.5 -257t-289.5 -119l-124 -2l-129 480h196l81 -299q92 10 163.5 66t87.5 131l57 269q17 81 -36.5 140t-147.5 59h-63q-61 0 -129 -40t-127 -108l-94 141q81 86 185.5 136t203.5 50h63q88 0 168 -39q24 16 48.5 47
t27.5 47h179q-12 -59 -49 -118t-82 -90l1 -2q-4 -4 -4 -5zM944 881q-10 -10 -16 -15l26 25q-1 -2 -2.5 -3.5t-4 -3.5t-3.5 -3zM965 901l-7 -7zM958 894l-4 -3z" />
    <glyph glyph-name="thothannobasethai" unicode="&#x20ac;" horiz-adv-x="931" 
d="M924 861l4 5q56 -101 30 -223l-57 -269q-32 -149 -163.5 -257t-289.5 -119l-124 -2l-129 480h196l81 -299q92 10 163.5 66t87.5 131l57 269q17 81 -36.5 140t-147.5 59h-63q-61 0 -129 -40t-127 -108l-94 141q81 86 185.5 136t203.5 50h63q88 0 168 -39q24 16 48.5 47
t27.5 47h179q-12 -59 -49 -118t-82 -90l1 -2q-4 -4 -4 -5zM944 881q-10 -10 -16 -15l26 25q-1 -2 -2.5 -3.5t-4 -3.5t-3.5 -3zM965 901l-7 -7zM958 894l-4 -3z" />
    <glyph glyph-name="saraileftthai" 
d="M-203 1278q54 -6 78.5 -21.5t18.5 -43.5l-24 -113h-602l24 113q12 52 126 65h379z" />
    <glyph glyph-name="saraileftthai" unicode="&#xf701;" 
d="M-203 1278q54 -6 78.5 -21.5t18.5 -43.5l-24 -113h-602l24 113q12 52 126 65h379z" />
    <glyph glyph-name="saraiileftthai" 
d="M-191 1347h114l-53 -247h-602l24 113q12 52 123 65h320q31 69 74 69z" />
    <glyph glyph-name="saraiileftthai" unicode="&#xf702;" 
d="M-191 1347h114l-53 -247h-602l24 113q12 52 123 65h320q31 69 74 69z" />
    <glyph glyph-name="saraiileftthai" unicode="&#x201a;" 
d="M-191 1347h114l-53 -247h-602l24 113q12 52 123 65h320q31 69 74 69z" />
    <glyph glyph-name="saraueleftthai" 
d="M-192 1377q57 0 89.5 -40.5t20.5 -98.5q-13 -58 -62.5 -98t-106.5 -40h-472l24 113q12 52 125 65h228q22 44 64.5 71.5t89.5 27.5z" />
    <glyph glyph-name="saraueleftthai" unicode="&#xf703;" 
d="M-192 1377q57 0 89.5 -40.5t20.5 -98.5q-13 -58 -62.5 -98t-106.5 -40h-472l24 113q12 52 125 65h228q22 44 64.5 71.5t89.5 27.5z" />
    <glyph glyph-name="saraueleftthai" unicode="&#x192;" 
d="M-192 1377q57 0 89.5 -40.5t20.5 -98.5q-13 -58 -62.5 -98t-106.5 -40h-472l24 113q12 52 125 65h228q22 44 64.5 71.5t89.5 27.5z" />
    <glyph glyph-name="saraueeleftthai" 
d="M-76 1347l-53 -247h-602l24 113q10 49 123 65h77q31 69 72 69h114l-15 -69h72q31 69 74 69h114z" />
    <glyph glyph-name="saraueeleftthai" unicode="&#xf704;" 
d="M-76 1347l-53 -247h-602l24 113q10 49 123 65h77q31 69 72 69h114l-15 -69h72q31 69 74 69h114z" />
    <glyph glyph-name="saraueeleftthai" unicode="&#x201e;" 
d="M-76 1347l-53 -247h-602l24 113q10 49 123 65h77q31 69 72 69h114l-15 -69h72q31 69 74 69h114z" />
    <glyph glyph-name="ellipsis" unicode="&#x85;" horiz-adv-x="1340" 
d="M425 126q-11 -49 -51.5 -83t-89.5 -34t-75.5 34t-16.5 83q11 49 52 83t90 34t75.5 -34t15.5 -83zM807 126q-11 -49 -51.5 -83t-89.5 -34t-75.5 34t-15.5 83t51.5 83t89.5 34t75.5 -34t15.5 -83zM1189 126q-11 -49 -51.5 -83t-89.5 -34q-48 0 -75 34t-17 83t52 83t90 34
q49 0 75.5 -34t15.5 -83z" />
    <glyph glyph-name="ellipsis" unicode="&#x2026;" horiz-adv-x="1340" 
d="M425 126q-11 -49 -51.5 -83t-89.5 -34t-75.5 34t-16.5 83q11 49 52 83t90 34t75.5 -34t15.5 -83zM807 126q-11 -49 -51.5 -83t-89.5 -34t-75.5 34t-15.5 83t51.5 83t89.5 34t75.5 -34t15.5 -83zM1189 126q-11 -49 -51.5 -83t-89.5 -34q-48 0 -75 34t-17 83t52 83t90 34
q49 0 75.5 -34t15.5 -83z" />
    <glyph glyph-name="maieklowleftthai" 
d="M-70 1495l-76 -357h-179l76 357h179z" />
    <glyph glyph-name="maieklowleftthai" unicode="&#xf705;" 
d="M-70 1495l-76 -357h-179l76 357h179z" />
    <glyph glyph-name="maieklowleftthai" unicode="&#x2020;" 
d="M-70 1495l-76 -357h-179l76 357h179z" />
    <glyph glyph-name="maitholowleftthai" 
d="M-401 1336h327l-38 -179h-505l27 124v1h-45l38 179h223z" />
    <glyph glyph-name="maitholowleftthai" unicode="&#xf706;" 
d="M-401 1336h327l-38 -179h-505l27 124v1h-45l38 179h223z" />
    <glyph glyph-name="maitholowleftthai" unicode="&#x2021;" 
d="M-401 1336h327l-38 -179h-505l27 124v1h-45l38 179h223z" />
    <glyph glyph-name="maitrilowleftthai" 
d="M54 1503l-28 -133q-17 -77 -78.5 -138t-156.5 -94h-71q-49 0 -40 106l5 24q7 35 -11 53q-37 -15 -64 -25q-33 -12 -38 -14l-81 39q-29 -22 -35 -53l-28 -130h-110q-22 0 -32.5 29.5t-5.5 79.5l4 21q16 78 87.5 148.5t152.5 89.5l89 -38q69 30 101 43q30 -12 32 -15
q40 -19 67.5 -62t39.5 -91l34 160h167z" />
    <glyph glyph-name="maitrilowleftthai" unicode="&#xf707;" 
d="M54 1503l-28 -133q-17 -77 -78.5 -138t-156.5 -94h-71q-49 0 -40 106l5 24q7 35 -11 53q-37 -15 -64 -25q-33 -12 -38 -14l-81 39q-29 -22 -35 -53l-28 -130h-110q-22 0 -32.5 29.5t-5.5 79.5l4 21q16 78 87.5 148.5t152.5 89.5l89 -38q69 30 101 43q30 -12 32 -15
q40 -19 67.5 -62t39.5 -91l34 160h167z" />
    <glyph glyph-name="maitrilowleftthai" unicode="&#x2c6;" 
d="M54 1503l-28 -133q-17 -77 -78.5 -138t-156.5 -94h-71q-49 0 -40 106l5 24q7 35 -11 53q-37 -15 -64 -25q-33 -12 -38 -14l-81 39q-29 -22 -35 -53l-28 -130h-110q-22 0 -32.5 29.5t-5.5 79.5l4 21q16 78 87.5 148.5t152.5 89.5l89 -38q69 30 101 43q30 -12 32 -15
q40 -19 67.5 -62t39.5 -91l34 160h167z" />
    <glyph glyph-name="maichattawalowleftthai" 
d="M-78 1406l-38 -180h-118l-25 -117h-179l25 117h-118l38 180h118l25 118h123q22 0 32 -26t4 -70l-5 -22h118z" />
    <glyph glyph-name="maichattawalowleftthai" unicode="&#xf708;" 
d="M-78 1406l-38 -180h-118l-25 -117h-179l25 117h-118l38 180h118l25 118h123q22 0 32 -26t4 -70l-5 -22h118z" />
    <glyph glyph-name="maichattawalowleftthai" unicode="&#x2030;" 
d="M-78 1406l-38 -180h-118l-25 -117h-179l25 117h-118l38 180h118l25 118h123q22 0 32 -26t4 -70l-5 -22h118z" />
    <glyph glyph-name="thanthakhatlowleftthai" 
d="M227 1260l-406 -34q-12 -41 -29 -60t-44 -19h-124l53 248l577 46z" />
    <glyph glyph-name="thanthakhatlowleftthai" unicode="&#xf709;" 
d="M227 1260l-406 -34q-12 -41 -29 -60t-44 -19h-124l53 248l577 46z" />
    <glyph glyph-name="thanthakhatlowleftthai" unicode="&#x160;" 
d="M227 1260l-406 -34q-12 -41 -29 -60t-44 -19h-124l53 248l577 46z" />
    <glyph glyph-name="maieklowrightthai" 
d="M208 1495l-76 -357h-179l75 357h180z" />
    <glyph glyph-name="maieklowrightthai" unicode="&#xf70a;" 
d="M208 1495l-76 -357h-179l75 357h180z" />
    <glyph glyph-name="maieklowrightthai" unicode="&#x2039;" 
d="M208 1495l-76 -357h-179l75 357h180z" />
    <glyph glyph-name="maitholowrightthai" 
d="M-174 1357h425l-39 -181h-605l27 125v2h-46l39 181h226z" />
    <glyph glyph-name="maitholowrightthai" unicode="&#xf70b;" 
d="M-174 1357h425l-39 -181h-605l27 125v2h-46l39 181h226z" />
    <glyph glyph-name="maitholowrightthai" unicode="&#x152;" 
d="M-174 1357h425l-39 -181h-605l27 125v2h-46l39 181h226z" />
    <glyph glyph-name="maitrilowrightthai" 
d="M265 1503l-28 -133q-17 -77 -78.5 -138t-157.5 -94h-69q-50 0 -41 106l5 24q7 35 -11 53q-37 -15 -64 -25q-33 -12 -38 -14l-81 39q-29 -21 -35 -53l-28 -130h-110q-22 0 -32.5 29.5t-5.5 79.5l4 21q16 78 87.5 148.5t152.5 89.5l88 -37q19 8 55 22.5t43 17.5q1 0 6 -1h5
q25 -10 26 -12q42 -19 70 -54t39 -79l30 140h168z" />
    <glyph glyph-name="maitrilowrightthai" unicode="&#xf70c;" 
d="M265 1503l-28 -133q-17 -77 -78.5 -138t-157.5 -94h-69q-50 0 -41 106l5 24q7 35 -11 53q-37 -15 -64 -25q-33 -12 -38 -14l-81 39q-29 -21 -35 -53l-28 -130h-110q-22 0 -32.5 29.5t-5.5 79.5l4 21q16 78 87.5 148.5t152.5 89.5l88 -37q19 8 55 22.5t43 17.5q1 0 6 -1h5
q25 -10 26 -12q42 -19 70 -54t39 -79l30 140h168z" />
    <glyph glyph-name="maichattawalowrightthai" 
d="M195 1429l-38 -182h-119l-26 -119h-181l26 119h-120l38 182h120l26 119h125q22 0 31.5 -26.5t3.5 -71.5l-5 -21h119z" />
    <glyph glyph-name="maichattawalowrightthai" unicode="&#xf70d;" 
d="M195 1429l-38 -182h-119l-26 -119h-181l26 119h-120l38 182h120l26 119h125q22 0 31.5 -26.5t3.5 -71.5l-5 -21h119z" />
    <glyph glyph-name="maichattawalowrightthai" unicode="&#x17d;" 
d="M195 1429l-38 -182h-119l-26 -119h-181l26 119h-120l38 182h120l26 119h125q22 0 31.5 -26.5t3.5 -71.5l-5 -21h119z" />
    <glyph glyph-name="thanthakhatlowrightthai" 
d="M236 1249l-401 -34q-13 -39 -29.5 -58t-42.5 -19h-122l52 244l566 47z" />
    <glyph glyph-name="thanthakhatlowrightthai" unicode="&#xf70e;" 
d="M236 1249l-401 -34q-13 -39 -29.5 -58t-42.5 -19h-122l52 244l566 47z" />
    <glyph glyph-name="yoyingnobasethai" horiz-adv-x="1620" 
d="M1502 1012h179l-152 -715q-28 -128 -142.5 -218t-247.5 -90h-47q-132 0 -209 90t-49 218l88 412q11 53 -47.5 93t-177.5 40q-90 0 -222 -35l-171 -807h-177l198 935q241 86 411 86q188 0 291.5 -87t73.5 -224l-87 -413q-11 -53 22 -90.5t94 -37.5h47q61 0 111.5 38
t61.5 90z" />
    <glyph glyph-name="yoyingnobasethai" unicode="&#xf70f;" horiz-adv-x="1620" 
d="M1502 1012h179l-152 -715q-28 -128 -142.5 -218t-247.5 -90h-47q-132 0 -209 90t-49 218l88 412q11 53 -47.5 93t-177.5 40q-90 0 -222 -35l-171 -807h-177l198 935q241 86 411 86q188 0 291.5 -87t73.5 -224l-87 -413q-11 -53 22 -90.5t94 -37.5h47q61 0 111.5 38
t61.5 90z" />
    <glyph glyph-name="quoteleft" horiz-adv-x="317" 
d="M267 878l77 422h190l-98 -422h-169z" />
    <glyph glyph-name="quoteleft" unicode="&#x2018;" horiz-adv-x="317" 
d="M267 878l77 422h190l-98 -422h-169z" />
    <glyph glyph-name="quoteright" horiz-adv-x="327" 
d="M275 878l77 422h190l-98 -422h-169z" />
    <glyph glyph-name="quoteright" unicode="&#x2019;" horiz-adv-x="327" 
d="M275 878l77 422h190l-98 -422h-169z" />
    <glyph glyph-name="bullet" horiz-adv-x="711" 
d="M436 358q-85 0 -134.5 61.5t-30.5 148.5q18 85 93.5 146.5t159.5 61.5q87 0 135 -61.5t30 -146.5q-18 -87 -92 -148.5t-161 -61.5z" />
    <glyph glyph-name="bullet" unicode="&#x2022;" horiz-adv-x="711" 
d="M436 358q-85 0 -134.5 61.5t-30.5 148.5q18 85 93.5 146.5t159.5 61.5q87 0 135 -61.5t30 -146.5q-18 -87 -92 -148.5t-161 -61.5z" />
    <glyph glyph-name="endash" horiz-adv-x="1049" 
d="M203 482l38 180h838l-38 -180h-838z" />
    <glyph glyph-name="endash" unicode="&#x2013;" horiz-adv-x="1049" 
d="M203 482l38 180h838l-38 -180h-838z" />
    <glyph glyph-name="emdash" horiz-adv-x="1308" 
d="M217 482l38 180h1047l-38 -180h-1047z" />
    <glyph glyph-name="emdash" unicode="&#x2014;" horiz-adv-x="1308" 
d="M217 482l38 180h1047l-38 -180h-1047z" />
    <glyph glyph-name="maihanakatleftthai" 
d="M-437 1279l351 2l-39 -181h-528l65 302h121q48 0 36 -96z" />
    <glyph glyph-name="maihanakatleftthai" unicode="&#xf710;" 
d="M-437 1279l351 2l-39 -181h-528l65 302h121q48 0 36 -96z" />
    <glyph glyph-name="maihanakatleftthai" unicode="&#x2dc;" 
d="M-437 1279l351 2l-39 -181h-528l65 302h121q48 0 36 -96z" />
    <glyph glyph-name="nikhahitleftthai" 
d="M-252 1393q77 0 113 -46t20 -123q-17 -79 -72.5 -124t-132.5 -45q-80 0 -115.5 45t-18.5 124q17 78 71.5 123.5t134.5 45.5zM-297 1184q16 0 29.5 11.5t17.5 28.5q3 17 -5.5 28t-24.5 11q-17 0 -30.5 -11.5t-16.5 -27.5q-4 -17 5 -28.5t25 -11.5z" />
    <glyph glyph-name="nikhahitleftthai" unicode="&#xf711;" 
d="M-252 1393q77 0 113 -46t20 -123q-17 -79 -72.5 -124t-132.5 -45q-80 0 -115.5 45t-18.5 124q17 78 71.5 123.5t134.5 45.5zM-297 1184q16 0 29.5 11.5t17.5 28.5q3 17 -5.5 28t-24.5 11q-17 0 -30.5 -11.5t-16.5 -27.5q-4 -17 5 -28.5t25 -11.5z" />
    <glyph glyph-name="nikhahitleftthai" unicode="&#x2122;" 
d="M-252 1393q77 0 113 -46t20 -123q-17 -79 -72.5 -124t-132.5 -45q-80 0 -115.5 45t-18.5 124q17 78 71.5 123.5t134.5 45.5zM-297 1184q16 0 29.5 11.5t17.5 28.5q3 17 -5.5 28t-24.5 11q-17 0 -30.5 -11.5t-16.5 -27.5q-4 -17 5 -28.5t25 -11.5z" />
    <glyph glyph-name="maitaikhuleftthai" 
d="M-455 1371q-8 0 -10 -1.5t-6 -9.5l-16 -73q0 -12 20 -12h187q26 0 41 61h177q-24 -113 -100 -177.5t-157 -64.5q-57 0 -91 22q-44 -17 -95 -17q-37 0 -69 11.5t-57 33t-35 58.5t0 84l17 79q18 85 86 134.5t145 51.5h457l-38 -180h-456z" />
    <glyph glyph-name="maitaikhuleftthai" unicode="&#xf712;" 
d="M-455 1371q-8 0 -10 -1.5t-6 -9.5l-16 -73q0 -12 20 -12h187q26 0 41 61h177q-24 -113 -100 -177.5t-157 -64.5q-57 0 -91 22q-44 -17 -95 -17q-37 0 -69 11.5t-57 33t-35 58.5t0 84l17 79q18 85 86 134.5t145 51.5h457l-38 -180h-456z" />
    <glyph glyph-name="maitaikhuleftthai" unicode="&#x161;" 
d="M-455 1371q-8 0 -10 -1.5t-6 -9.5l-16 -73q0 -12 20 -12h187q26 0 41 61h177q-24 -113 -100 -177.5t-157 -64.5q-57 0 -91 22q-44 -17 -95 -17q-37 0 -69 11.5t-57 33t-35 58.5t0 84l17 79q18 85 86 134.5t145 51.5h457l-38 -180h-456z" />
    <glyph glyph-name="maiekupperleftthai" 
d="M17 1793l-75 -356h-180l76 356h179z" />
    <glyph glyph-name="maiekupperleftthai" unicode="&#xf713;" 
d="M17 1793l-75 -356h-180l76 356h179z" />
    <glyph glyph-name="maiekupperleftthai" unicode="&#x203a;" 
d="M17 1793l-75 -356h-180l76 356h179z" />
    <glyph glyph-name="maithoupperleftthai" 
d="M-101 1607h326l-38 -179h-504l26 124l1 1h-46l38 179h224z" />
    <glyph glyph-name="maithoupperleftthai" unicode="&#xf714;" 
d="M-101 1607h326l-38 -179h-504l26 124l1 1h-46l38 179h224z" />
    <glyph glyph-name="maithoupperleftthai" unicode="&#x153;" 
d="M-101 1607h326l-38 -179h-504l26 124l1 1h-46l38 179h224z" />
    <glyph glyph-name="maitriupperleftthai" 
d="M289 1765l-28 -132q-17 -77 -79 -138.5t-157 -94.5h-69q-51 0 -40 107l5 23q7 34 -12 53q-52 -21 -64 -25q-33 -12 -38 -14l-81 39q-29 -22 -35 -53l-28 -130h-109q-23 0 -33.5 29.5t-6.5 79.5l5 21q16 80 87.5 150t152.5 88l88 -35q48 18 62 24h-1q3 1 17 6.5t19 7.5
l6 -1h6q25 -10 26 -12q85 -38 109 -133l30 140h168z" />
    <glyph glyph-name="maitriupperleftthai" unicode="&#xf715;" 
d="M289 1765l-28 -132q-17 -77 -79 -138.5t-157 -94.5h-69q-51 0 -40 107l5 23q7 34 -12 53q-52 -21 -64 -25q-33 -12 -38 -14l-81 39q-29 -22 -35 -53l-28 -130h-109q-23 0 -33.5 29.5t-6.5 79.5l5 21q16 80 87.5 150t152.5 88l88 -35q48 18 62 24h-1q3 1 17 6.5t19 7.5
l6 -1h6q25 -10 26 -12q85 -38 109 -133l30 140h168z" />
    <glyph glyph-name="maichattawaupperleftthai" 
d="M81 1705l-38 -180h-96l-21 -97h-180l21 97h-98l38 180h98l21 98h124q22 0 31.5 -26t3.5 -70v-2h96z" />
    <glyph glyph-name="maichattawaupperleftthai" unicode="&#xf716;" 
d="M81 1705l-38 -180h-96l-21 -97h-180l21 97h-98l38 180h98l21 98h124q22 0 31.5 -26t3.5 -70v-2h96z" />
    <glyph glyph-name="maichattawaupperleftthai" unicode="&#x17e;" 
d="M81 1705l-38 -180h-96l-21 -97h-180l21 97h-98l38 180h98l21 98h124q22 0 31.5 -26t3.5 -70v-2h96z" />
    <glyph glyph-name="thanthakhatupperleftthai" 
d="M338 1505l-408 -34q-25 -79 -73 -79h-124l53 249l575 46z" />
    <glyph glyph-name="thanthakhatupperleftthai" unicode="&#xf717;" 
d="M338 1505l-408 -34q-25 -79 -73 -79h-124l53 249l575 46z" />
    <glyph glyph-name="thanthakhatupperleftthai" unicode="&#x178;" 
d="M338 1505l-408 -34q-25 -79 -73 -79h-124l53 249l575 46z" />
    <glyph glyph-name="uni00A0" unicode="&#xa0;" horiz-adv-x="925" 
 />
    <glyph glyph-name="uni00A0" unicode="&#xe00;" horiz-adv-x="925" 
 />
    <glyph glyph-name="kokaithai" unicode="&#xa1;" horiz-adv-x="1052" 
d="M1005 940l1 1q114 -88 83 -231l-150 -710h-180l150 710q12 52 -47 92t-179 40q-101 0 -221 -34l-171 -808h-178l198 934q239 88 411 88q182 0 283 -82z" />
    <glyph glyph-name="kokaithai" unicode="&#xe01;" horiz-adv-x="1052" 
d="M1005 940l1 1q114 -88 83 -231l-150 -710h-180l150 710q12 52 -47 92t-179 40q-101 0 -221 -34l-171 -808h-178l198 934q239 88 411 88q182 0 283 -82z" />
    <glyph glyph-name="khokhaithai" unicode="&#xa2;" horiz-adv-x="1004" 
d="M928 1015h178l-137 -646q-34 -158 -171.5 -268t-299.5 -110h-5q-161 0 -253 110.5t-58 267.5l27 128l172 339q-12 8 -56 8l39 182q93 -3 153.5 -60.5t43.5 -137.5l-177 -348l-24 -111q-18 -83 32 -141t139 -58h5q88 0 163 58.5t92 140.5z" />
    <glyph glyph-name="khokhaithai" unicode="&#xe02;" horiz-adv-x="1004" 
d="M928 1015h178l-137 -646q-34 -158 -171.5 -268t-299.5 -110h-5q-161 0 -253 110.5t-58 267.5l27 128l172 339q-12 8 -56 8l39 182q93 -3 153.5 -60.5t43.5 -137.5l-177 -348l-24 -111q-18 -83 32 -141t139 -58h5q88 0 163 58.5t92 140.5z" />
    <glyph glyph-name="khokhuatthai" unicode="&#xa3;" horiz-adv-x="1064" 
d="M982 1013h178l-137 -646q-34 -157 -173 -267.5t-299 -110.5h-60q-105 0 -184 50t-113 137t-12 191l27 129l157 290q-64 20 -110.5 84t-29.5 143h158q-4 -17 15.5 -36t28.5 -19q8 0 35.5 19t31.5 36h147l-10 -49v-6q-5 -26 -42 -98l-206 -379l-24 -114q-18 -83 31.5 -141
t137.5 -58h60q88 0 163 58t93 141z" />
    <glyph glyph-name="khokhuatthai" unicode="&#xe03;" horiz-adv-x="1064" 
d="M982 1013h178l-137 -646q-34 -157 -173 -267.5t-299 -110.5h-60q-105 0 -184 50t-113 137t-12 191l27 129l157 290q-64 20 -110.5 84t-29.5 143h158q-4 -17 15.5 -36t28.5 -19q8 0 35.5 19t31.5 36h147l-10 -49v-6q-5 -26 -42 -98l-206 -379l-24 -114q-18 -83 31.5 -141
t137.5 -58h60q88 0 163 58t93 141z" />
    <glyph glyph-name="khokhwaithai" unicode="&#xa4;" horiz-adv-x="1104" 
d="M1059 913q97 -112 63 -269l-136 -644h-179l136 644q17 81 -36 139.5t-147 58.5h-64q-95 0 -172 -59t-95 -139l-21 -99h22h235l-24 -115q-10 -48 -122 -65h-127l-21 2l-78 -367h-179l137 647q35 157 177 266t307 109h64q165 0 260 -109z" />
    <glyph glyph-name="khokhwaithai" unicode="&#xe04;" horiz-adv-x="1104" 
d="M1059 913q97 -112 63 -269l-136 -644h-179l136 644q17 81 -36 139.5t-147 58.5h-64q-95 0 -172 -59t-95 -139l-21 -99h22h235l-24 -115q-10 -48 -122 -65h-127l-21 2l-78 -367h-179l137 647q35 157 177 266t307 109h64q165 0 260 -109z" />
    <glyph glyph-name="khokhonthai" unicode="&#xa5;" horiz-adv-x="1104" 
d="M1061 929h1q97 -110 64 -269l-140 -660h-179l140 660q10 46 -6.5 89t-52.5 70q-52 -18 -178 -70l-147 71q-107 -53 -130 -160l-25 -115h6h16h235l-24 -115q-10 -48 -122 -65h-127l-21 2l-78 -367h-179l140 660q25 119 121 216t227 142l148 -71q96 33 178 68
q85 -33 133 -86z" />
    <glyph glyph-name="khokhonthai" unicode="&#xe05;" horiz-adv-x="1104" 
d="M1061 929h1q97 -110 64 -269l-140 -660h-179l140 660q10 46 -6.5 89t-52.5 70q-52 -18 -178 -70l-147 71q-107 -53 -130 -160l-25 -115h6h16h235l-24 -115q-10 -48 -122 -65h-127l-21 2l-78 -367h-179l140 660q25 119 121 216t227 142l148 -71q96 33 178 68
q85 -33 133 -86z" />
    <glyph glyph-name="khorakhangthai" unicode="&#xa6;" horiz-adv-x="1049" 
d="M971 1012h178l-163 -767q-27 -115 -134.5 -186t-246.5 -71q-154 0 -311 80q-32 -68 -70 -68h-114l105 496l159 290q-66 20 -113 83.5t-32 143.5h162q-4 -17 16 -36t28 -19q9 0 37 19t32 36h148l-9 -43v5q-1 -3 -1 -9v-8q-4 -19 -48 -110l-202 -365l-46 -219
q77 -45 156.5 -71t140.5 -26q70 0 112.5 24t53.5 60z" />
    <glyph glyph-name="khorakhangthai" unicode="&#xe06;" horiz-adv-x="1049" 
d="M971 1012h178l-163 -767q-27 -115 -134.5 -186t-246.5 -71q-154 0 -311 80q-32 -68 -70 -68h-114l105 496l159 290q-66 20 -113 83.5t-32 143.5h162q-4 -17 16 -36t28 -19q9 0 37 19t32 36h148l-9 -43v5q-1 -3 -1 -9v-8q-4 -19 -48 -110l-202 -365l-46 -219
q77 -45 156.5 -71t140.5 -26q70 0 112.5 24t53.5 60z" />
    <glyph glyph-name="ngonguthai" unicode="&#xa7;" horiz-adv-x="855" 
d="M785 1012h179l-138 -648q-29 -137 -149 -245.5t-259 -125.5l-83 -1l-186 666h197l132 -472q66 24 111 71.5t58 106.5z" />
    <glyph glyph-name="ngonguthai" unicode="&#xe07;" horiz-adv-x="855" 
d="M785 1012h179l-138 -648q-29 -137 -149 -245.5t-259 -125.5l-83 -1l-186 666h197l132 -472q66 24 111 71.5t58 106.5z" />
    <glyph glyph-name="chochanthai" unicode="&#xa8;" horiz-adv-x="942" 
d="M901 941l-1 -1q112 -88 82 -230l-71 -336q-22 -105 -95.5 -192t-177 -136.5t-212.5 -49.5h-94l-129 480h198l81 -301q89 5 161 63t89 136l71 336q12 52 -47 92t-179 40q-131 0 -351 -78l-39 165q259 93 429 93q182 0 285 -81z" />
    <glyph glyph-name="chochanthai" unicode="&#xe08;" horiz-adv-x="942" 
d="M901 941l-1 -1q112 -88 82 -230l-71 -336q-22 -105 -95.5 -192t-177 -136.5t-212.5 -49.5h-94l-129 480h198l81 -301q89 5 161 63t89 136l71 336q12 52 -47 92t-179 40q-131 0 -351 -78l-39 165q259 93 429 93q182 0 285 -81z" />
    <glyph glyph-name="chochingthai" unicode="&#xa9;" horiz-adv-x="1028" 
d="M983 939q112 -89 82 -229l-150 -710h-114q-36 0 -41 61q-176 -73 -324 -73q-146 0 -221.5 72t-50.5 190l63 305h180l-64 -305q-8 -36 25.5 -59.5t105.5 -23.5q131 0 316 89l96 454q12 52 -46.5 92t-177.5 40q-133 0 -351 -78l-40 165q263 93 430 93q181 0 282 -83z" />
    <glyph glyph-name="chochingthai" unicode="&#xe09;" horiz-adv-x="1028" 
d="M983 939q112 -89 82 -229l-150 -710h-114q-36 0 -41 61q-176 -73 -324 -73q-146 0 -221.5 72t-50.5 190l63 305h180l-64 -305q-8 -36 25.5 -59.5t105.5 -23.5q131 0 316 89l96 454q12 52 -46.5 92t-177.5 40q-133 0 -351 -78l-40 165q263 93 430 93q181 0 282 -83z" />
    <glyph glyph-name="chochangthai" unicode="&#xaa;" horiz-adv-x="1069" 
d="M1176 1071l-4 -19q-34 -161 -133 -253q64 -69 40 -185l-54 -255q-34 -157 -172 -267t-299 -110h-60q-105 0 -184 50t-113.5 137t-12.5 190l27 127l171 340q-16 9 -57 9l38 179q94 0 154.5 -56.5t45.5 -138.5l-177 -347l-24 -113q-17 -81 32.5 -140t137.5 -59h60
q88 0 163.5 58.5t92.5 140.5l53 255q5 26 -9.5 44t-44 26.5t-58 12.5t-61.5 4l38 180q191 0 232 190h178z" />
    <glyph glyph-name="chochangthai" unicode="&#xe0a;" horiz-adv-x="1069" 
d="M1176 1071l-4 -19q-34 -161 -133 -253q64 -69 40 -185l-54 -255q-34 -157 -172 -267t-299 -110h-60q-105 0 -184 50t-113.5 137t-12.5 190l27 127l171 340q-16 9 -57 9l38 179q94 0 154.5 -56.5t45.5 -138.5l-177 -347l-24 -113q-17 -81 32.5 -140t137.5 -59h60
q88 0 163.5 58.5t92.5 140.5l53 255q5 26 -9.5 44t-44 26.5t-58 12.5t-61.5 4l38 180q191 0 232 190h178z" />
    <glyph glyph-name="sosothai" unicode="&#xab;" horiz-adv-x="1064" 
d="M1173 1068l-5 -20q-34 -163 -133 -253q65 -69 40 -187l-55 -252q-34 -157 -171 -267.5t-298 -110.5h-61q-105 0 -184 50t-113.5 137.5t-12.5 190.5l28 129l156 289q-64 20 -110.5 84t-29.5 144h178q-3 -17 12 -35.5t23 -18.5t30.5 19t25.5 35h117l15 -17q9 -21 6 -37
q-4 -19 -49 -113l-200 -366l-24 -113q-17 -83 32.5 -141t137.5 -58h61q87 0 161.5 58t91.5 141l54 252q6 27 -9 45.5t-44.5 27.5t-57.5 13t-61 5l38 177q31 0 59 6t65 23.5t66 59t42 103.5h179z" />
    <glyph glyph-name="sosothai" unicode="&#xe0b;" horiz-adv-x="1064" 
d="M1173 1068l-5 -20q-34 -163 -133 -253q65 -69 40 -187l-55 -252q-34 -157 -171 -267.5t-298 -110.5h-61q-105 0 -184 50t-113.5 137.5t-12.5 190.5l28 129l156 289q-64 20 -110.5 84t-29.5 144h178q-3 -17 12 -35.5t23 -18.5t30.5 19t25.5 35h117l15 -17q9 -21 6 -37
q-4 -19 -49 -113l-200 -366l-24 -113q-17 -83 32.5 -141t137.5 -58h61q87 0 161.5 58t91.5 141l54 252q6 27 -9 45.5t-44.5 27.5t-57.5 13t-61 5l38 177q31 0 59 6t65 23.5t66 59t42 103.5h179z" />
    <glyph glyph-name="chochoethai" unicode="&#xac;" horiz-adv-x="1622" 
d="M1504 1013h179l-162 -763q-25 -118 -119.5 -190.5t-220.5 -72.5q-117 0 -234 63q-24 -50 -61 -50h-114l150 710q11 53 -47.5 92.5t-177.5 39.5q-93 0 -221 -34l-171 -808h-178l198 936q241 86 411 86q187 0 291.5 -86.5t74.5 -225.5l-97 -460q115 -84 214 -84
q100 0 123 85z" />
    <glyph glyph-name="chochoethai" unicode="&#xe0c;" horiz-adv-x="1622" 
d="M1504 1013h179l-162 -763q-25 -118 -119.5 -190.5t-220.5 -72.5q-117 0 -234 63q-24 -50 -61 -50h-114l150 710q11 53 -47.5 92.5t-177.5 39.5q-93 0 -221 -34l-171 -808h-178l198 936q241 86 411 86q187 0 291.5 -86.5t74.5 -225.5l-97 -460q115 -84 214 -84
q100 0 123 85z" />
    <glyph glyph-name="yoyingthai" unicode="&#xad;" horiz-adv-x="1620" 
d="M1520 1029h180l-154 -727q-28 -130 -144 -221.5t-250 -91.5h-49q-134 0 -211.5 91.5t-49.5 221.5l89 418q11 55 -49 95.5t-181 40.5q-89 0 -224 -35l-174 -821h-181l201 950q245 87 417 87q192 0 297 -88t75 -228l-89 -419q-12 -54 22.5 -92.5t96.5 -38.5h49
q62 0 113 38.5t62 92.5zM1296 -61l153 -69q-68 -106 -170.5 -171.5t-202.5 -65.5h-49q-102 0 -175 65t-97 172l182 69q12 -54 47.5 -90t81.5 -36h49q46 0 96 36t85 90z" />
    <glyph glyph-name="yoyingthai" unicode="&#xe0d;" horiz-adv-x="1620" 
d="M1520 1029h180l-154 -727q-28 -130 -144 -221.5t-250 -91.5h-49q-134 0 -211.5 91.5t-49.5 221.5l89 418q11 55 -49 95.5t-181 40.5q-89 0 -224 -35l-174 -821h-181l201 950q245 87 417 87q192 0 297 -88t75 -228l-89 -419q-12 -54 22.5 -92.5t96.5 -38.5h49
q62 0 113 38.5t62 92.5zM1296 -61l153 -69q-68 -106 -170.5 -171.5t-202.5 -65.5h-49q-102 0 -175 65t-97 172l182 69q12 -54 47.5 -90t81.5 -36h49q46 0 96 36t85 90z" />
    <glyph glyph-name="yoyingthai" unicode="&#xde;" horiz-adv-x="1620" 
d="M1520 1029h180l-154 -727q-28 -130 -144 -221.5t-250 -91.5h-49q-134 0 -211.5 91.5t-49.5 221.5l89 418q11 55 -49 95.5t-181 40.5q-89 0 -224 -35l-174 -821h-181l201 950q245 87 417 87q192 0 297 -88t75 -228l-89 -419q-12 -54 22.5 -92.5t96.5 -38.5h49
q62 0 113 38.5t62 92.5zM1296 -61l153 -69q-68 -106 -170.5 -171.5t-202.5 -65.5h-49q-102 0 -175 65t-97 172l182 69q12 -54 47.5 -90t81.5 -36h49q46 0 96 36t85 90z" />
    <glyph glyph-name="dochadathai" unicode="&#xae;" horiz-adv-x="1051" 
d="M1005 940q112 -87 82 -230l-171 -807q-30 -139 -169.5 -225t-328.5 -86q-173 0 -387 91l99 167q191 -80 326 -80q118 0 194 40t87 93l171 807q11 52 -48.5 92t-176.5 40q-89 0 -221 -35l-171 -807h-178l198 935q239 86 411 86q181 0 283 -81z" />
    <glyph glyph-name="dochadathai" unicode="&#xe0e;" horiz-adv-x="1051" 
d="M1005 940q112 -87 82 -230l-171 -807q-30 -139 -169.5 -225t-328.5 -86q-173 0 -387 91l99 167q191 -80 326 -80q118 0 194 40t87 93l171 807q11 52 -48.5 92t-176.5 40q-89 0 -221 -35l-171 -807h-178l198 935q239 86 411 86q181 0 283 -81z" />
    <glyph glyph-name="topatakthai" unicode="&#xaf;" horiz-adv-x="1051" 
d="M1005 940q111 -87 81 -230l-232 -1095h-123q-193 149 -363 149q-74 0 -128.5 -37t-80.5 -94l-165 41q57 128 168 198t243 70q160 0 322 -87l181 855q11 53 -48.5 92.5t-177.5 39.5q-88 0 -220 -35l-171 -807h-179l198 935q241 86 411 86q182 0 284 -81z" />
    <glyph glyph-name="topatakthai" unicode="&#xe0f;" horiz-adv-x="1051" 
d="M1005 940q111 -87 81 -230l-232 -1095h-123q-193 149 -363 149q-74 0 -128.5 -37t-80.5 -94l-165 41q57 128 168 198t243 70q160 0 322 -87l181 855q11 53 -48.5 92.5t-177.5 39.5q-88 0 -220 -35l-171 -807h-179l198 935q241 86 411 86q182 0 284 -81z" />
    <glyph glyph-name="thothanthai" unicode="&#xb0;" horiz-adv-x="931" 
d="M578 -137l182 10q-21 -95 -96.5 -163.5t-154.5 -68.5h-477l25 113q11 50 122 66h368q24 0 31 43zM924 861l4 5q56 -101 30 -223l-57 -269q-32 -149 -163.5 -257t-289.5 -119l-124 -2l-129 480h196l81 -299q92 10 163.5 66t87.5 131l57 269q17 81 -36.5 140t-147.5 59h-63
q-61 0 -129 -40t-127 -108l-94 141q81 86 185.5 136t203.5 50h63q88 0 168 -39q24 16 48.5 47t27.5 47h179q-12 -59 -49 -118t-82 -90l1 -2q-4 -4 -4 -5zM944 881q-10 -10 -16 -15l26 25q-1 -2 -2.5 -3.5t-4 -3.5t-3.5 -3zM965 901l-7 -7zM958 894l-4 -3z" />
    <glyph glyph-name="thothanthai" unicode="&#xe10;" horiz-adv-x="931" 
d="M578 -137l182 10q-21 -95 -96.5 -163.5t-154.5 -68.5h-477l25 113q11 50 122 66h368q24 0 31 43zM924 861l4 5q56 -101 30 -223l-57 -269q-32 -149 -163.5 -257t-289.5 -119l-124 -2l-129 480h196l81 -299q92 10 163.5 66t87.5 131l57 269q17 81 -36.5 140t-147.5 59h-63
q-61 0 -129 -40t-127 -108l-94 141q81 86 185.5 136t203.5 50h63q88 0 168 -39q24 16 48.5 47t27.5 47h179q-12 -59 -49 -118t-82 -90l1 -2q-4 -4 -4 -5zM944 881q-10 -10 -16 -15l26 25q-1 -2 -2.5 -3.5t-4 -3.5t-3.5 -3zM965 901l-7 -7zM958 894l-4 -3z" />
    <glyph glyph-name="thonangmonthothai" unicode="&#xb1;" horiz-adv-x="1219" 
d="M1255 763l-162 -763h-179l162 762v-1q7 37 -25.5 60.5t-104.5 23.5q-145 0 -338 -97l-158 -748h-179l165 779h-16q-81 0 -153 70t-52 163h178q-4 -17 11 -35.5t24 -18.5q8 0 32 18.5t29 35.5l110 -1q14 0 25 -19t15 -49q194 81 345 81q142 0 218.5 -71.5t52.5 -189.5z
" />
    <glyph glyph-name="thonangmonthothai" unicode="&#xe11;" horiz-adv-x="1219" 
d="M1255 763l-162 -763h-179l162 762v-1q7 37 -25.5 60.5t-104.5 23.5q-145 0 -338 -97l-158 -748h-179l165 779h-16q-81 0 -153 70t-52 163h178q-4 -17 11 -35.5t24 -18.5q8 0 32 18.5t29 35.5l110 -1q14 0 25 -19t15 -49q194 81 345 81q142 0 218.5 -71.5t52.5 -189.5z
" />
    <glyph glyph-name="thophuthaothai" unicode="&#xb2;" horiz-adv-x="1673" 
d="M1728 1011l-161 -761q-25 -117 -118.5 -190t-219.5 -73q-110 0 -233 64q-26 -51 -61 -51h-114l140 659q10 46 -7 89.5t-54 69.5q-34 -12 -76 -30q-83 -31 -102 -39l-148 68q-49 -27 -83 -68.5t-44 -89.5l-72 -338q-8 -36 0.5 -63.5t27.5 -44.5t48.5 -27.5t60 -14.5
t65.5 -4l-38 -179q-36 0 -70.5 4t-75 13.5t-73 26t-63.5 41.5t-47 60t-23 81.5t8 106.5l72 338q25 118 122 214.5t226 140.5l149 -69q16 7 70 28q97 37 108 41q112 -43 167 -140t30 -215l-88 -411q114 -83 216 -83q50 0 81 23t40 62l161 761h179z" />
    <glyph glyph-name="thophuthaothai" unicode="&#xe12;" horiz-adv-x="1673" 
d="M1728 1011l-161 -761q-25 -117 -118.5 -190t-219.5 -73q-110 0 -233 64q-26 -51 -61 -51h-114l140 659q10 46 -7 89.5t-54 69.5q-34 -12 -76 -30q-83 -31 -102 -39l-148 68q-49 -27 -83 -68.5t-44 -89.5l-72 -338q-8 -36 0.5 -63.5t27.5 -44.5t48.5 -27.5t60 -14.5
t65.5 -4l-38 -179q-36 0 -70.5 4t-75 13.5t-73 26t-63.5 41.5t-47 60t-23 81.5t8 106.5l72 338q25 118 122 214.5t226 140.5l149 -69q16 7 70 28q97 37 108 41q112 -43 167 -140t30 -215l-88 -411q114 -83 216 -83q50 0 81 23t40 62l161 761h179z" />
    <glyph glyph-name="nonenthai" unicode="&#xb3;" horiz-adv-x="1621" 
d="M1501 1011h180l-214 -1011h-121q-30 6 -36 51q-137 -63 -258 -63q-127 0 -189.5 72.5t-37.5 189.5l97 460q11 53 -48 92.5t-177 39.5q-89 0 -221 -35l-171 -807h-178l198 935q241 86 411 86q189 0 292 -86.5t73 -224.5l-97 -460q-9 -38 12.5 -61t73.5 -23q101 0 249 83z
" />
    <glyph glyph-name="nonenthai" unicode="&#xe13;" horiz-adv-x="1621" 
d="M1501 1011h180l-214 -1011h-121q-30 6 -36 51q-137 -63 -258 -63q-127 0 -189.5 72.5t-37.5 189.5l97 460q11 53 -48 92.5t-177 39.5q-89 0 -221 -35l-171 -807h-178l198 935q241 86 411 86q189 0 292 -86.5t73 -224.5l-97 -460q-9 -38 12.5 -61t73.5 -23q101 0 249 83z
" />
    <glyph glyph-name="dodekthai" unicode="&#xb4;" horiz-adv-x="1099" 
d="M1052 912h-1q99 -111 65 -269l-136 -643h-177l136 643q17 81 -37 140t-148 59h-62q-95 0 -172.5 -59t-95.5 -140l-68 -321q-10 -46 5 -78t48 -47.5t69.5 -22t79.5 -6.5l-38 -180q-36 0 -70.5 4.5t-75 14t-72.5 26t-63 41.5t-46.5 60t-23 82t7.5 106l69 324
q35 158 177.5 266.5t307.5 108.5h62q166 0 259 -109z" />
    <glyph glyph-name="dodekthai" unicode="&#xe14;" horiz-adv-x="1099" 
d="M1052 912h-1q99 -111 65 -269l-136 -643h-177l136 643q17 81 -37 140t-148 59h-62q-95 0 -172.5 -59t-95.5 -140l-68 -321q-10 -46 5 -78t48 -47.5t69.5 -22t79.5 -6.5l-38 -180q-36 0 -70.5 4.5t-75 14t-72.5 26t-63 41.5t-46.5 60t-23 82t7.5 106l69 324
q35 158 177.5 266.5t307.5 108.5h62q166 0 259 -109z" />
    <glyph glyph-name="totaothai" unicode="&#xb5;" horiz-adv-x="1098" 
d="M1055 929h1q97 -110 64 -269l-140 -660h-178l140 660q10 47 -6.5 89.5t-54.5 68.5q-31 -11 -178 -70l-147 71q-50 -25 -84 -68t-44 -91l-72 -338q-10 -45 4.5 -77t47 -48t69 -22.5t81.5 -6.5l-38 -180q-27 0 -53 2.5t-57.5 8t-58 14t-55.5 22t-50 32t-40 43.5t-27 56
t-11 70t9 86l72 338q25 119 119.5 214.5t228.5 142.5l148 -71q24 9 69 27l65 26l47 18q83 -36 129 -88z" />
    <glyph glyph-name="totaothai" unicode="&#xe15;" horiz-adv-x="1098" 
d="M1055 929h1q97 -110 64 -269l-140 -660h-178l140 660q10 47 -6.5 89.5t-54.5 68.5q-31 -11 -178 -70l-147 71q-50 -25 -84 -68t-44 -91l-72 -338q-10 -45 4.5 -77t47 -48t69 -22.5t81.5 -6.5l-38 -180q-27 0 -53 2.5t-57.5 8t-58 14t-55.5 22t-50 32t-40 43.5t-27 56
t-11 70t9 86l72 338q25 119 119.5 214.5t228.5 142.5l148 -71q24 9 69 27l65 26l47 18q83 -36 129 -88z" />
    <glyph glyph-name="thothungthai" unicode="&#xb6;" horiz-adv-x="1050" 
d="M1005 940q113 -88 82 -230l-150 -710h-179l150 710q11 52 -48 92t-178 40q-88 0 -220 -35l-103 -485q-19 -92 11 -123t116 -31l-38 -179q-166 0 -235 80t-33 253l130 613q242 86 411 86q182 0 284 -81z" />
    <glyph glyph-name="thothungthai" unicode="&#xe16;" horiz-adv-x="1050" 
d="M1005 940q113 -88 82 -230l-150 -710h-179l150 710q11 52 -48 92t-178 40q-88 0 -220 -35l-103 -485q-19 -92 11 -123t116 -31l-38 -179q-166 0 -235 80t-33 253l130 613q242 86 411 86q182 0 284 -81z" />
    <glyph glyph-name="thothahanthai" unicode="&#xb7;" horiz-adv-x="1050" 
d="M291 0h-178l215 1012h114q38 0 40 -68q192 81 344 81q144 0 221 -71.5t52 -189.5l-162 -764h-180l162 764q7 35 -26 58.5t-105 23.5q-143 0 -339 -98z" />
    <glyph glyph-name="thothahanthai" unicode="&#x2219;" horiz-adv-x="1050" 
d="M291 0h-178l215 1012h114q38 0 40 -68q192 81 344 81q144 0 221 -71.5t52 -189.5l-162 -764h-180l162 764q7 35 -26 58.5t-105 23.5q-143 0 -339 -98z" />
    <glyph glyph-name="thothahanthai" unicode="&#xe17;" horiz-adv-x="1050" 
d="M291 0h-178l215 1012h114q38 0 40 -68q192 81 344 81q144 0 221 -71.5t52 -189.5l-162 -764h-180l162 764q7 35 -26 58.5t-105 23.5q-143 0 -339 -98z" />
    <glyph glyph-name="thothongthai" unicode="&#xb8;" horiz-adv-x="988" 
d="M683 625q23 -3 35.5 -5t38 -6.5t41.5 -10t40 -14t38.5 -19.5t32 -26t27 -34.5t17 -42.5t7 -53t-7.5 -64l-1 -6q-19 -80 -35 -130.5t-41.5 -92t-53.5 -63t-75.5 -36.5t-102.5 -19t-140 -4q-165 0 -245.5 22t-100.5 65.5t-2 125.5q5 26 14 54.5t23 66.5t21 62h156l-35 -169
q-5 -36 31 -43.5t213 -7.5q124 0 149 12h-1q13 6 46 160q6 27 -9 47.5t-46.5 31t-58.5 16t-61 8.5q-7 1 -50.5 6t-79.5 11t-83.5 25t-77.5 45.5t-45.5 75.5t-1.5 113q21 83 70.5 144t116 93t135 47t141.5 15q177 0 347 -85l-106 -162q-59 29 -135 48.5t-144 19.5
q-91 0 -158 -34.5t-90 -92.5q-6 -38 43 -53q11 -3 53 -12q20 -3 63 -12.5t88 -16.5z" />
    <glyph glyph-name="thothongthai" unicode="&#xe18;" horiz-adv-x="988" 
d="M683 625q23 -3 35.5 -5t38 -6.5t41.5 -10t40 -14t38.5 -19.5t32 -26t27 -34.5t17 -42.5t7 -53t-7.5 -64l-1 -6q-19 -80 -35 -130.5t-41.5 -92t-53.5 -63t-75.5 -36.5t-102.5 -19t-140 -4q-165 0 -245.5 22t-100.5 65.5t-2 125.5q5 26 14 54.5t23 66.5t21 62h156l-35 -169
q-5 -36 31 -43.5t213 -7.5q124 0 149 12h-1q13 6 46 160q6 27 -9 47.5t-46.5 31t-58.5 16t-61 8.5q-7 1 -50.5 6t-79.5 11t-83.5 25t-77.5 45.5t-45.5 75.5t-1.5 113q21 83 70.5 144t116 93t135 47t141.5 15q177 0 347 -85l-106 -162q-59 29 -135 48.5t-144 19.5
q-91 0 -158 -34.5t-90 -92.5q-6 -38 43 -53q11 -3 53 -12q20 -3 63 -12.5t88 -16.5z" />
    <glyph glyph-name="nonuthai" unicode="&#xb9;" horiz-adv-x="1050" 
d="M973 1012h179l-215 -1012h-115q-38 0 -41 68q-191 -80 -344 -80q-143 0 -219.5 71.5t-52.5 189.5l163 763h179l-163 -763q-7 -35 26 -58.5t105 -23.5q144 0 339 97z" />
    <glyph glyph-name="nonuthai" unicode="&#xe19;" horiz-adv-x="1050" 
d="M973 1012h179l-215 -1012h-115q-38 0 -41 68q-191 -80 -344 -80q-143 0 -219.5 71.5t-52.5 189.5l163 763h179l-163 -763q-7 -35 26 -58.5t105 -23.5q144 0 339 97z" />
    <glyph glyph-name="bobaimaithai" unicode="&#xba;" horiz-adv-x="1081" 
d="M1000 1013h180l-146 -686q-20 -94 -91.5 -172t-171 -121.5t-204.5 -43.5h-61q-161 0 -257 97t-66 240l146 686h180l-146 -686q-14 -63 38.5 -110t143.5 -47h61q91 0 162.5 46.5t85.5 110.5z" />
    <glyph glyph-name="bobaimaithai" unicode="&#xe1a;" horiz-adv-x="1081" 
d="M1000 1013h180l-146 -686q-20 -94 -91.5 -172t-171 -121.5t-204.5 -43.5h-61q-161 0 -257 97t-66 240l146 686h180l-146 -686q-14 -63 38.5 -110t143.5 -47h61q91 0 162.5 46.5t85.5 110.5z" />
    <glyph glyph-name="poplathai" unicode="&#xbb;" horiz-adv-x="1080" 
d="M1050 1250h179l-196 -923q-20 -94 -91.5 -172.5t-171 -121.5t-203.5 -43h-62q-161 0 -256.5 96.5t-65.5 240.5l146 686h179l-146 -686q-14 -63 38.5 -110t143.5 -47h62q91 0 162 46.5t86 110.5z" />
    <glyph glyph-name="poplathai" unicode="&#xe1b;" horiz-adv-x="1080" 
d="M1050 1250h179l-196 -923q-20 -94 -91.5 -172.5t-171 -121.5t-203.5 -43h-62q-161 0 -256.5 96.5t-65.5 240.5l146 686h179l-146 -686q-14 -63 38.5 -110t143.5 -47h62q91 0 162 46.5t86 110.5z" />
    <glyph glyph-name="phophungthai" unicode="&#xbc;" horiz-adv-x="1100" 
d="M1021 1012h178l-140 -659q-25 -117 -122 -214t-226 -142l-149 70q-16 -6 -178 -69q-111 44 -166.5 140t-29.5 215l100 473q9 87 94.5 141.5t185.5 45.5l-38 -178q-61 0 -63 -9l-100 -473q-21 -104 61 -159q142 57 177 70l146 -70q49 28 84.5 70t45.5 89z" />
    <glyph glyph-name="phophungthai" unicode="&#xe1c;" horiz-adv-x="1100" 
d="M1021 1012h178l-140 -659q-25 -117 -122 -214t-226 -142l-149 70q-16 -6 -178 -69q-111 44 -166.5 140t-29.5 215l100 473q9 87 94.5 141.5t185.5 45.5l-38 -178q-61 0 -63 -9l-100 -473q-21 -104 61 -159q142 57 177 70l146 -70q49 28 84.5 70t45.5 89z" />
    <glyph glyph-name="fofathai" unicode="&#xbd;" horiz-adv-x="1099" 
d="M1070 1249h178l-190 -896q-27 -122 -118.5 -214.5t-229.5 -142.5l-149 71q-16 -6 -178 -69q-118 49 -170.5 141t-25.5 214l100 473q18 83 91.5 135t188.5 52l-38 -178q-63 -1 -63 -10l-100 -472q-16 -79 34 -137h-1l25 -22q28 12 88 36v-1q17 6 50.5 19.5t41.5 16.5
l149 -72q48 26 82.5 69.5t44.5 90.5z" />
    <glyph glyph-name="fofathai" unicode="&#xe1d;" horiz-adv-x="1099" 
d="M1070 1249h178l-190 -896q-27 -122 -118.5 -214.5t-229.5 -142.5l-149 71q-16 -6 -178 -69q-118 49 -170.5 141t-25.5 214l100 473q18 83 91.5 135t188.5 52l-38 -178q-63 -1 -63 -10l-100 -472q-16 -79 34 -137h-1l25 -22q28 12 88 36v-1q17 6 50.5 19.5t41.5 16.5
l149 -72q48 26 82.5 69.5t44.5 90.5z" />
    <glyph glyph-name="phophanthai" unicode="&#xbe;" horiz-adv-x="1144" 
d="M1059 1012h180l-166 -780q-22 -102 -112.5 -173t-194.5 -71h-34q-35 0 -75.5 12.5t-67.5 33.5q-77 -46 -173 -46h-35q-112 0 -175.5 70.5t-41.5 173.5l166 780h179l-166 -780q-5 -25 18 -45.5t58 -20.5h35q38 0 69 24q0 19 5 42l79 371h180l-79 -371q-6 -27 12.5 -46.5
t49.5 -19.5h34q31 0 57 19.5t32 46.5z" />
    <glyph glyph-name="phophanthai" unicode="&#xe1e;" horiz-adv-x="1144" 
d="M1059 1012h180l-166 -780q-22 -102 -112.5 -173t-194.5 -71h-34q-35 0 -75.5 12.5t-67.5 33.5q-77 -46 -173 -46h-35q-112 0 -175.5 70.5t-41.5 173.5l166 780h179l-166 -780q-5 -25 18 -45.5t58 -20.5h35q38 0 69 24q0 19 5 42l79 371h180l-79 -371q-6 -27 12.5 -46.5
t49.5 -19.5h34q31 0 57 19.5t32 46.5z" />
    <glyph glyph-name="fofanthai" unicode="&#xbf;" horiz-adv-x="1144" 
d="M1110 1249h179l-217 -1019q-22 -102 -115.5 -173t-204.5 -71h-35q-94 0 -152 47q-76 -47 -164 -47h-34q-103 0 -164.5 71.5t-39.5 172.5l166 781h180l-166 -781q-5 -27 13 -46t49 -19h34q32 0 58 19t31 46l79 372h179l-79 -372q-6 -26 -13 -42q21 -23 61 -23h35
q35 0 66.5 20.5t36.5 44.5z" />
    <glyph glyph-name="fofanthai" unicode="&#xe1f;" horiz-adv-x="1144" 
d="M1110 1249h179l-217 -1019q-22 -102 -115.5 -173t-204.5 -71h-35q-94 0 -152 47q-76 -47 -164 -47h-34q-103 0 -164.5 71.5t-39.5 172.5l166 781h180l-166 -781q-5 -27 13 -46t49 -19h34q32 0 58 19t31 46l79 372h179l-79 -372q-6 -26 -13 -42q21 -23 61 -23h35
q35 0 66.5 20.5t36.5 44.5z" />
    <glyph glyph-name="phosamphaothai" unicode="&#xc0;" horiz-adv-x="1054" 
d="M1020 957q112 -90 82 -235l-153 -722h-180l153 722q11 54 -49 95t-182 41q-100 0 -225 -35l-136 -643q-17 -79 -104 -135t-182 -56l39 182q63 0 65 9l164 772q242 88 418 88q185 0 290 -83z" />
    <glyph glyph-name="phosamphaothai" unicode="&#xe20;" horiz-adv-x="1054" 
d="M1020 957q112 -90 82 -235l-153 -722h-180l153 722q11 54 -49 95t-182 41q-100 0 -225 -35l-136 -643q-17 -79 -104 -135t-182 -56l39 182q63 0 65 9l164 772q242 88 418 88q185 0 290 -83z" />
    <glyph glyph-name="momathai" unicode="&#xc1;" horiz-adv-x="1050" 
d="M510 1029l-162 -761q161 -99 302 -99q71 0 115.5 23.5t53.5 60.5l165 776h181l-165 -776q-25 -118 -134.5 -191.5t-253.5 -73.5q-154 0 -315 81q-33 -69 -71 -69h-115l218 1029h181z" />
    <glyph glyph-name="momathai" unicode="&#xe21;" horiz-adv-x="1050" 
d="M510 1029l-162 -761q161 -99 302 -99q71 0 115.5 23.5t53.5 60.5l165 776h181l-165 -776q-25 -118 -134.5 -191.5t-253.5 -73.5q-154 0 -315 81q-33 -69 -71 -69h-115l218 1029h181z" />
    <glyph glyph-name="yoyakthai" unicode="&#xc2;" horiz-adv-x="1079" 
d="M1006 1030h181l-148 -700q-31 -145 -170.5 -243.5t-304.5 -98.5h-62q-164 0 -262 98.5t-67 243.5l7 35q27 130 103 191q-46 76 -22 192l60 282h116q52 0 41 -124l-34 -158q-10 -52 19.5 -82t89.5 -30l-39 -182q-133 0 -152 -89l-7 -35q-14 -64 39.5 -112t146.5 -48h62
q94 0 167.5 48t87.5 112z" />
    <glyph glyph-name="yoyakthai" unicode="&#xe22;" horiz-adv-x="1079" 
d="M1006 1030h181l-148 -700q-31 -145 -170.5 -243.5t-304.5 -98.5h-62q-164 0 -262 98.5t-67 243.5l7 35q27 130 103 191q-46 76 -22 192l60 282h116q52 0 41 -124l-34 -158q-10 -52 19.5 -82t89.5 -30l-39 -182q-133 0 -152 -89l-7 -35q-14 -64 39.5 -112t146.5 -48h62
q94 0 167.5 48t87.5 112z" />
    <glyph glyph-name="roruathai" unicode="&#xc3;" horiz-adv-x="927" 
d="M908 290q-21 -84 -71.5 -145.5t-118.5 -93.5t-137 -46.5t-143 -14.5q-177 0 -352 84l108 165q60 -30 137 -49t146 -19q95 0 165.5 35t86.5 94q6 20 1 37t-22.5 29.5t-33.5 21t-45.5 16t-45 10.5t-47 8t-36.5 6q-139 23 -204 68q-113 79 -80 237q18 70 56 124t85 87
t105.5 54.5t113 29.5t112.5 9q180 -2 352 -84l-106 -166q-139 68 -285 68q-101 0 -169 -31t-82 -96q-5 -23 3.5 -41.5t23.5 -30t40.5 -21t45.5 -14.5t48 -10q67 -13 76 -15q21 -4 34 -6.5t38.5 -8.5t42.5 -12.5t41 -16.5t39.5 -23t34 -29.5t28.5 -37.5t17 -46.5t6.5 -57.5
t-8.5 -68z" />
    <glyph glyph-name="roruathai" unicode="&#xe23;" horiz-adv-x="927" 
d="M908 290q-21 -84 -71.5 -145.5t-118.5 -93.5t-137 -46.5t-143 -14.5q-177 0 -352 84l108 165q60 -30 137 -49t146 -19q95 0 165.5 35t86.5 94q6 20 1 37t-22.5 29.5t-33.5 21t-45.5 16t-45 10.5t-47 8t-36.5 6q-139 23 -204 68q-113 79 -80 237q18 70 56 124t85 87
t105.5 54.5t113 29.5t112.5 9q180 -2 352 -84l-106 -166q-139 68 -285 68q-101 0 -169 -31t-82 -96q-5 -23 3.5 -41.5t23.5 -30t40.5 -21t45.5 -14.5t48 -10q67 -13 76 -15q21 -4 34 -6.5t38.5 -8.5t42.5 -12.5t41 -16.5t39.5 -23t34 -29.5t28.5 -37.5t17 -46.5t6.5 -57.5
t-8.5 -68z" />
    <glyph glyph-name="ruthai" unicode="&#xc4;" horiz-adv-x="1054" 
d="M1019 955q115 -89 85 -235l-243 -1139h-182l243 1139q11 54 -49.5 95t-180.5 41q-89 0 -226 -35l-105 -496q-20 -94 11 -125t118 -31l-38 -182q-168 0 -238.5 79t-34.5 258l133 626q246 87 419 87q185 0 288 -82z" />
    <glyph glyph-name="ruthai" unicode="&#xe24;" horiz-adv-x="1054" 
d="M1019 955q115 -89 85 -235l-243 -1139h-182l243 1139q11 54 -49.5 95t-180.5 41q-89 0 -226 -35l-105 -496q-20 -94 11 -125t118 -31l-38 -182q-168 0 -238.5 79t-34.5 258l133 626q246 87 419 87q185 0 288 -82z" />
    <glyph glyph-name="lolingthai" unicode="&#xc5;" horiz-adv-x="1040" 
d="M1006 957q116 -88 84 -235l-153 -722h-182l81 383q-152 96 -293 96q-88 0 -145 -38.5t-71 -106.5q-14 -60 -8.5 -96.5t43.5 -52t125 -15.5l-39 -181q-147 0 -222.5 38t-90.5 114.5t10 192.5q32 148 153 237t284 89q140 0 297 -74l29 136q12 54 -47.5 94.5t-181.5 40.5
q-136 0 -367 -81l-29 170q259 93 434 93q184 0 289 -82z" />
    <glyph glyph-name="lolingthai" unicode="&#xe25;" horiz-adv-x="1040" 
d="M1006 957q116 -88 84 -235l-153 -722h-182l81 383q-152 96 -293 96q-88 0 -145 -38.5t-71 -106.5q-14 -60 -8.5 -96.5t43.5 -52t125 -15.5l-39 -181q-147 0 -222.5 38t-90.5 114.5t10 192.5q32 148 153 237t284 89q140 0 297 -74l29 136q12 54 -47.5 94.5t-181.5 40.5
q-136 0 -367 -81l-29 170q259 93 434 93q184 0 289 -82z" />
    <glyph glyph-name="luthai" unicode="&#xc6;" horiz-adv-x="1053" 
d="M1018 955q113 -89 83 -234l-243 -1140h-181l243 1140q11 54 -49.5 94.5t-181.5 40.5q-99 0 -225 -35l-136 -642q-17 -81 -103.5 -136.5t-181.5 -55.5l38 182q62 0 66 10l163 771q245 87 418 87q188 0 290 -82z" />
    <glyph glyph-name="luthai" unicode="&#xe26;" horiz-adv-x="1053" 
d="M1018 955q113 -89 83 -234l-243 -1140h-181l243 1140q11 54 -49.5 94.5t-181.5 40.5q-99 0 -225 -35l-136 -642q-17 -81 -103.5 -136.5t-181.5 -55.5l38 182q62 0 66 10l163 771q245 87 418 87q188 0 290 -82z" />
    <glyph glyph-name="wowaenthai" unicode="&#xc7;" horiz-adv-x="967" 
d="M941 955q114 -90 84 -235l-75 -350q-34 -159 -179 -271.5t-313 -112.5h-65q-100 0 -183.5 51.5t-131.5 138.5l157 142q29 -70 81.5 -110t114.5 -40h65q95 0 175 60t97 142l75 350q11 54 -49 94.5t-181 40.5q-139 0 -364 -82l-31 170q263 94 434 94q183 0 289 -82z" />
    <glyph glyph-name="wowaenthai" unicode="&#xe27;" horiz-adv-x="967" 
d="M941 955q114 -90 84 -235l-75 -350q-34 -159 -179 -271.5t-313 -112.5h-65q-100 0 -183.5 51.5t-131.5 138.5l157 142q29 -70 81.5 -110t114.5 -40h65q95 0 175 60t97 142l75 350q11 54 -49 94.5t-181 40.5q-139 0 -364 -82l-31 170q263 94 434 94q183 0 289 -82z" />
    <glyph glyph-name="sosalathai" unicode="&#xc8;" horiz-adv-x="1095" 
d="M1232 1105l-4 -19q-22 -107 -137 -196q65 -102 37 -235l-139 -655h-181l139 655q17 83 -37 142.5t-150 59.5h-64q-97 0 -176.5 -59.5t-96.5 -142.5l-22 -102q9 1 23 1h239l-24 -115q-11 -51 -125 -67h-128q-23 0 -23 3l-79 -375h-182l139 658q36 159 180.5 270t312.5 111
h64q90 0 166 -35q22 12 52 46.5t34 54.5h182z" />
    <glyph glyph-name="sosalathai" unicode="&#xe28;" horiz-adv-x="1095" 
d="M1232 1105l-4 -19q-22 -107 -137 -196q65 -102 37 -235l-139 -655h-181l139 655q17 83 -37 142.5t-150 59.5h-64q-97 0 -176.5 -59.5t-96.5 -142.5l-22 -102q9 1 23 1h239l-24 -115q-11 -51 -125 -67h-128q-23 0 -23 3l-79 -375h-182l139 658q36 159 180.5 270t312.5 111
h64q90 0 166 -35q22 12 52 46.5t34 54.5h182z" />
    <glyph glyph-name="sorusithai" unicode="&#xc9;" horiz-adv-x="1083" 
d="M1162 640l-39 -182h-47l-28 -129q-20 -96 -93 -175.5t-174 -123t-208 -43.5h-62q-106 0 -188.5 43.5t-122 123t-19.5 175.5l149 701h182l-149 -701q-13 -64 40 -112t146 -48h62q94 0 168 48t87 112l28 129h-303l24 115q12 52 126 67h192l82 390h182l-82 -390h47z" />
    <glyph glyph-name="sorusithai" unicode="&#xe29;" horiz-adv-x="1083" 
d="M1162 640l-39 -182h-47l-28 -129q-20 -96 -93 -175.5t-174 -123t-208 -43.5h-62q-106 0 -188.5 43.5t-122 123t-19.5 175.5l149 701h182l-149 -701q-13 -64 40 -112t146 -48h62q94 0 168 48t87 112l28 129h-303l24 115q12 52 126 67h192l82 390h182l-82 -390h47z" />
    <glyph glyph-name="sosuathai" unicode="&#xca;" horiz-adv-x="1040" 
d="M1145 983q-32 -45 -84 -85q51 -69 29 -176l-153 -722h-182l81 383q-150 96 -292 96q-88 0 -145.5 -39t-71.5 -106q-14 -60 -8 -96.5t43.5 -52t123.5 -15.5l-39 -181q-144 0 -218.5 37t-91.5 113.5t9 194.5q32 149 152.5 237.5t284.5 88.5q143 0 296 -74l29 136
q11 54 -48 95t-180 41q-133 0 -367 -82l-30 170q259 93 435 93q115 0 208 -36q20 6 50 46t33 56h180q-18 -87 -44 -122z" />
    <glyph glyph-name="sosuathai" unicode="&#xe2a;" horiz-adv-x="1040" 
d="M1145 983q-32 -45 -84 -85q51 -69 29 -176l-153 -722h-182l81 383q-150 96 -292 96q-88 0 -145.5 -39t-71.5 -106q-14 -60 -8 -96.5t43.5 -52t123.5 -15.5l-39 -181q-144 0 -218.5 37t-91.5 113.5t9 194.5q32 149 152.5 237.5t284.5 88.5q143 0 296 -74l29 136
q11 54 -48 95t-180 41q-133 0 -367 -82l-30 170q259 93 435 93q115 0 208 -36q20 6 50 46t33 56h180q-18 -87 -44 -122z" />
    <glyph glyph-name="hohipthai" unicode="&#xcb;" horiz-adv-x="1052" 
d="M1058 513l-109 -513h-182l109 513q8 37 -26 60.5t-108 23.5q-147 0 -344 -98l-106 -499h-181l219 1031h115q52 0 39 -127l-43 -202q132 56 259 72q1 0 3 0.5t4 0.5q8 2 21 2q107 17 169 73.5t88 178.5h182q-46 -223 -163 -322q79 -75 54 -194z" />
    <glyph glyph-name="hohipthai" unicode="&#xe2b;" horiz-adv-x="1052" 
d="M1058 513l-109 -513h-182l109 513q8 37 -26 60.5t-108 23.5q-147 0 -344 -98l-106 -499h-181l219 1031h115q52 0 39 -127l-43 -202q132 56 259 72q1 0 3 0.5t4 0.5q8 2 21 2q107 17 169 73.5t88 178.5h182q-46 -223 -163 -322q79 -75 54 -194z" />
    <glyph glyph-name="lochulathai" unicode="&#xcc;" horiz-adv-x="1144" 
d="M1278 1141q-20 -92 -71 -166v-1q-34 -44 -58 -64q64 -71 40 -188l-103 -485q-22 -104 -118 -176.5t-209 -72.5h-36q-95 0 -154 51q-80 -51 -167 -51h-34q-107 0 -167.5 73t-38.5 176l168 793h181l-168 -793q-6 -28 12.5 -48t50.5 -20h34q32 0 59.5 20t33.5 48l80 376h181
l-80 -376q-2 -8 -12 -44q15 -24 59 -24h36q36 0 69 21t38 47l103 484q6 27 -8.5 45.5t-44 27.5t-59 13t-64.5 4l39 182q195 0 226 148l28 130h182z" />
    <glyph glyph-name="lochulathai" unicode="&#xe2c;" horiz-adv-x="1144" 
d="M1278 1141q-20 -92 -71 -166v-1q-34 -44 -58 -64q64 -71 40 -188l-103 -485q-22 -104 -118 -176.5t-209 -72.5h-36q-95 0 -154 51q-80 -51 -167 -51h-34q-107 0 -167.5 73t-38.5 176l168 793h181l-168 -793q-6 -28 12.5 -48t50.5 -20h34q32 0 59.5 20t33.5 48l80 376h181
l-80 -376q-2 -8 -12 -44q15 -24 59 -24h36q36 0 69 21t38 47l103 484q6 27 -8.5 45.5t-44 27.5t-59 13t-64.5 4l39 182q195 0 226 148l28 130h182z" />
    <glyph glyph-name="oangthai" unicode="&#xcd;" horiz-adv-x="1033" 
d="M1000 955q113 -89 83 -235l-87 -408q-19 -92 -88.5 -167t-165 -116.5t-196.5 -41.5h-58q-156 0 -249 93t-64 232l53 252h182l-53 -252q-12 -57 36 -100.5t133 -43.5h58q84 0 151 43t79 101l87 408q11 54 -49 94.5t-180 40.5q-140 0 -365 -82l-31 170q263 94 435 94
q183 0 289 -82z" />
    <glyph glyph-name="oangthai" unicode="&#xe2d;" horiz-adv-x="1033" 
d="M1000 955q113 -89 83 -235l-87 -408q-19 -92 -88.5 -167t-165 -116.5t-196.5 -41.5h-58q-156 0 -249 93t-64 232l53 252h182l-53 -252q-12 -57 36 -100.5t133 -43.5h58q84 0 151 43t79 101l87 408q11 54 -49 94.5t-180 40.5q-140 0 -365 -82l-31 170q263 94 435 94
q183 0 289 -82z" />
    <glyph glyph-name="honokhukthai" unicode="&#xce;" horiz-adv-x="1033" 
d="M1164 1102l-4 -19q-21 -97 -116 -175q61 -78 39 -188l-87 -409q-30 -136 -163 -230.5t-287 -94.5h-58q-155 0 -248.5 93.5t-64.5 231.5l53 253h181l-53 -252q-11 -58 37 -101t133 -43h58q84 0 151 43t79 100l87 409q11 54 -48 94.5t-181 40.5q-140 0 -365 -82l-32 170
q265 94 436 94q102 0 187 -29q37 10 74 51q0 2 2 8t2 8l6 27h182z" />
    <glyph glyph-name="honokhukthai" unicode="&#xe2e;" horiz-adv-x="1033" 
d="M1164 1102l-4 -19q-21 -97 -116 -175q61 -78 39 -188l-87 -409q-30 -136 -163 -230.5t-287 -94.5h-58q-155 0 -248.5 93.5t-64.5 231.5l53 253h181l-53 -252q-11 -58 37 -101t133 -43h58q84 0 151 43t79 100l87 409q11 54 -48 94.5t-181 40.5q-140 0 -365 -82l-32 170
q265 94 436 94q102 0 187 -29q37 10 74 51q0 2 2 8t2 8l6 27h182z" />
    <glyph glyph-name="paiyannoithai" unicode="&#xcf;" horiz-adv-x="1012" 
d="M998 1033h116l-191 -897q-39 -126 -91 -126h-116l122 575q-171 -79 -333 -81q-68 0 -130 21t-93 57q-33 38 -44.5 90.5t0.5 106.5q32 151 227 307l98 -134q-127 -101 -143 -173q-7 -39 12 -64q12 -13 44 -21.5t67 -8.5q60 0 150.5 27t188.5 83l24 111q40 127 92 127z" />
    <glyph glyph-name="paiyannoithai" unicode="&#xe2f;" horiz-adv-x="1012" 
d="M998 1033h116l-191 -897q-39 -126 -91 -126h-116l122 575q-171 -79 -333 -81q-68 0 -130 21t-93 57q-33 38 -44.5 90.5t0.5 106.5q32 151 227 307l98 -134q-127 -101 -143 -173q-7 -39 12 -64q12 -13 44 -21.5t67 -8.5q60 0 150.5 27t188.5 83l24 111q40 127 92 127z" />
    <glyph glyph-name="saraathai" unicode="&#xd0;" horiz-adv-x="580" 
d="M676 748l-24 -116h-319q-52 8 -77 24.5t-20 42.5l24 116h320q52 -7 77 -24t19 -43zM588 330l-25 -115h-318q-51 5 -77 22.5t-21 42.5l24 116h320q107 -18 97 -66z" />
    <glyph glyph-name="saraathai" unicode="&#xe30;" horiz-adv-x="580" 
d="M676 748l-24 -116h-319q-52 8 -77 24.5t-20 42.5l24 116h320q52 -7 77 -24t19 -43zM588 330l-25 -115h-318q-51 5 -77 22.5t-21 42.5l24 116h320q107 -18 97 -66z" />
    <glyph glyph-name="maihanakatthai" unicode="&#xd1;" horiz-adv-x="6" 
d="M-145 1300l417 2l-39 -184h-597l65 307h123q25 0 34.5 -25.5t1.5 -73.5z" />
    <glyph glyph-name="maihanakatthai" unicode="&#xe31;" horiz-adv-x="6" 
d="M-145 1300l417 2l-39 -184h-597l65 307h123q25 0 34.5 -25.5t1.5 -73.5z" />
    <glyph glyph-name="saraaathai" unicode="&#xd2;" horiz-adv-x="842" 
d="M900 719l-152 -719h-182l152 719q12 58 -31.5 98.5t-139.5 40.5q-115 0 -322 -86l-40 166q247 103 401 103q169 0 256.5 -92.5t57.5 -229.5z" />
    <glyph glyph-name="saraaathai" unicode="&#xe32;" horiz-adv-x="842" 
d="M900 719l-152 -719h-182l152 719q12 58 -31.5 98.5t-139.5 40.5q-115 0 -322 -86l-40 166q247 103 401 103q169 0 256.5 -92.5t57.5 -229.5z" />
    <glyph glyph-name="saraamthai" unicode="&#xd3;" horiz-adv-x="853" 
d="M902 719l-152 -719h-182l152 719q12 58 -31.5 98.5t-139.5 40.5q-115 0 -322 -86l-40 166q247 103 401 103q169 0 256.5 -92.5t57.5 -229.5zM24 1407q78 0 114.5 -46.5t19.5 -124.5q-17 -80 -72.5 -125t-133.5 -45q-80 0 -115.5 45t-18.5 125q17 78 72 124.5t134 46.5z
M-20 1196q15 0 29 12t17 28q4 17 -5 28t-24 11q-17 0 -30.5 -11t-17.5 -28q-3 -17 6 -28.5t25 -11.5z" />
    <glyph glyph-name="saraamthai" unicode="&#xe33;" horiz-adv-x="853" 
d="M902 719l-152 -719h-182l152 719q12 58 -31.5 98.5t-139.5 40.5q-115 0 -322 -86l-40 166q247 103 401 103q169 0 256.5 -92.5t57.5 -229.5zM24 1407q78 0 114.5 -46.5t19.5 -124.5q-17 -80 -72.5 -125t-133.5 -45q-80 0 -115.5 45t-18.5 125q17 78 72 124.5t134 46.5z
M-20 1196q15 0 29 12t17 28q4 17 -5 28t-24 11q-17 0 -30.5 -11t-17.5 -28q-3 -17 6 -28.5t25 -11.5z" />
    <glyph glyph-name="saraithai" unicode="&#xd4;" 
d="M45 1299q55 -8 80 -23t19 -43l-25 -115h-806l25 115q6 29 36.5 43.5t90.5 22.5h580z" />
    <glyph glyph-name="saraithai" unicode="&#xe34;" 
d="M45 1299q55 -8 80 -23t19 -43l-25 -115h-806l25 115q6 29 36.5 43.5t90.5 22.5h580z" />
    <glyph glyph-name="saraiithai" unicode="&#xd5;" 
d="M57 1369h116l-53 -251h-806l25 115q6 29 36 43.5t88 22.5h522q31 70 72 70z" />
    <glyph glyph-name="saraiithai" unicode="&#xe35;" 
d="M57 1369h116l-53 -251h-806l25 115q6 29 36 43.5t88 22.5h522q31 70 72 70z" />
    <glyph glyph-name="sarauethai" unicode="&#xd6;" 
d="M66 1399q57 0 90 -41.5t21 -99.5q-13 -58 -63.5 -99t-107.5 -41h-694l25 115q6 29 36.5 43.5t89.5 22.5h446q24 44 66.5 72t90.5 28z" />
    <glyph glyph-name="sarauethai" unicode="&#xe36;" 
d="M66 1399q57 0 90 -41.5t21 -99.5q-13 -58 -63.5 -99t-107.5 -41h-694l25 115q6 29 36.5 43.5t89.5 22.5h446q24 44 66.5 72t90.5 28z" />
    <glyph glyph-name="saraueethai" unicode="&#xd7;" 
d="M165 1367l-52 -247h-795l24 113q10 50 122 65h261q31 69 72 69h115l-15 -69h81q31 69 72 69h115z" />
    <glyph glyph-name="saraueethai" unicode="&#xe37;" 
d="M165 1367l-52 -247h-795l24 113q10 50 122 65h261q31 69 72 69h115l-15 -69h81q31 69 72 69h115z" />
    <glyph glyph-name="sarauthai" unicode="&#xd8;" 
d="M-545 -107h266l-73 -340h-178l30 139q2 4 4 11t3 9h-91z" />
    <glyph glyph-name="sarauthai" unicode="&#xe38;" 
d="M-545 -107h266l-73 -340h-178l30 139q2 4 4 11t3 9h-91z" />
    <glyph glyph-name="sarauuthai" unicode="&#xd9;" 
d="M-308 -102h172l-34 -158q-12 -58 -58.5 -103.5t-102 -67.5t-106.5 -22q-75 0 -139.5 47t-55.5 122h-59l39 182h238l-34 -161q1 -9 18.5 -18.5t27.5 -9.5q12 0 35 10.5t25 20.5z" />
    <glyph glyph-name="sarauuthai" unicode="&#xe39;" 
d="M-308 -102h172l-34 -158q-12 -58 -58.5 -103.5t-102 -67.5t-106.5 -22q-75 0 -139.5 47t-55.5 122h-59l39 182h238l-34 -161q1 -9 18.5 -18.5t27.5 -9.5q12 0 35 10.5t25 20.5z" />
    <glyph glyph-name="phinthuthai" unicode="&#xda;" 
d="M-272 -236q-11 -54 -57.5 -92t-99.5 -38q-55 0 -84 37.5t-18 92.5q11 54 57 91.5t100 37.5q53 0 83 -38t19 -91z" />
    <glyph glyph-name="phinthuthai" unicode="&#xe3a;" 
d="M-272 -236q-11 -54 -57.5 -92t-99.5 -38q-55 0 -84 37.5t-18 92.5q11 54 57 91.5t100 37.5q53 0 83 -38t19 -91z" />
    <glyph glyph-name="nptp3.001march2007p" unicode="&#xdb;" 
 />
    <glyph glyph-name="nptp3.001march2007p" unicode="&#xe3b;" 
 />
    <glyph glyph-name="nptp3.001march2007u" unicode="&#xdc;" 
 />
    <glyph glyph-name="nptp3.001march2007u" unicode="&#xe3c;" 
 />
    <glyph glyph-name="nptp3.001march2007c" unicode="&#xdd;" 
 />
    <glyph glyph-name="nptp3.001march2007c" unicode="&#xe3d;" 
 />
    <glyph glyph-name="bahtthai" unicode="&#xdf;" horiz-adv-x="1267" 
d="M772 1275h179l-28 -130q204 -6 271.5 -77t30.5 -249q-26 -115 -86 -181q46 -39 53 -108.5t-15 -159.5q-15 -70 -35.5 -123.5t-45 -92t-58.5 -66t-68.5 -44t-83.5 -26.5t-95.5 -13.5t-110.5 -4.5l-25 -115h-179l25 115q-27 0 -79.5 0.5t-81.5 0.5h-191l243 1144h352z
M997 371q5 23 7.5 40.5t0.5 32.5t-4 25.5t-12 19t-18 14t-27.5 9.5t-34 6t-44.5 3.5t-52.5 1.5h-63.5h-309l-73 -341q153 0 461 4q72 10 110 46.5t59 136.5v2zM534 966l-56 -262q27 0 79.5 -0.5t79.5 -0.5h180q128 0 180 26q31 15 47 91q8 36 9 59t-9 40t-24.5 25.5
t-48.5 14t-69.5 6.5t-99.5 1h-268z" />
    <glyph glyph-name="bahtthai" unicode="&#xe3f;" horiz-adv-x="1267" 
d="M772 1275h179l-28 -130q204 -6 271.5 -77t30.5 -249q-26 -115 -86 -181q46 -39 53 -108.5t-15 -159.5q-15 -70 -35.5 -123.5t-45 -92t-58.5 -66t-68.5 -44t-83.5 -26.5t-95.5 -13.5t-110.5 -4.5l-25 -115h-179l25 115q-27 0 -79.5 0.5t-81.5 0.5h-191l243 1144h352z
M997 371q5 23 7.5 40.5t0.5 32.5t-4 25.5t-12 19t-18 14t-27.5 9.5t-34 6t-44.5 3.5t-52.5 1.5h-63.5h-309l-73 -341q153 0 461 4q72 10 110 46.5t59 136.5v2zM534 966l-56 -262q27 0 79.5 -0.5t79.5 -0.5h180q128 0 180 26q31 15 47 91q8 36 9 59t-9 40t-24.5 25.5
t-48.5 14t-69.5 6.5t-99.5 1h-268z" />
    <glyph glyph-name="saraethai" unicode="&#xe0;" horiz-adv-x="383" 
d="M117 0l215 1013h181l-215 -1013h-181z" />
    <glyph glyph-name="saraethai" unicode="&#xe40;" horiz-adv-x="383" 
d="M117 0l215 1013h181l-215 -1013h-181z" />
    <glyph glyph-name="saraaethai" unicode="&#xe1;" horiz-adv-x="708" 
d="M117 0l215 1013h181l-215 -1013h-181zM433 0l215 1013h182l-215 -1013h-182z" />
    <glyph glyph-name="saraaethai" unicode="&#xe41;" horiz-adv-x="708" 
d="M117 0l215 1013h181l-215 -1013h-181zM433 0l215 1013h182l-215 -1013h-182z" />
    <glyph glyph-name="saraothai" unicode="&#xe2;" horiz-adv-x="423" 
d="M823 1501l-39 -181h-219q29 -92 6 -199l-238 -1120h-182l240 1135q27 126 -106 200l36 165h502z" />
    <glyph glyph-name="saraothai" unicode="&#xe42;" horiz-adv-x="423" 
d="M823 1501l-39 -181h-219q29 -92 6 -199l-238 -1120h-182l240 1135q27 126 -106 200l36 165h502z" />
    <glyph glyph-name="saraaimaimuanthai" unicode="&#xe3;" horiz-adv-x="515" 
d="M759 1441q59 -72 38 -174l-21 -99l-157 -213l-202 -955h-181l208 981l155 217l15 69q5 24 -11 42t-45 18h-32q-30 0 -56.5 -31.5t-35.5 -75.5h-183q26 122 117.5 205.5t195.5 83.5h32q104 0 163 -68z" />
    <glyph glyph-name="saraaimaimuanthai" unicode="&#xe43;" horiz-adv-x="515" 
d="M759 1441q59 -72 38 -174l-21 -99l-157 -213l-202 -955h-181l208 981l155 217l15 69q5 24 -11 42t-45 18h-32q-30 0 -56.5 -31.5t-35.5 -75.5h-183q26 122 117.5 205.5t195.5 83.5h32q104 0 163 -68z" />
    <glyph glyph-name="saraaimaimalaithai" unicode="&#xe4;" horiz-adv-x="476" 
d="M797 1496l-11 -53q-7 -33 -32 -89l2 1q-15 -34 -77.5 -176t-95.5 -218l-204 -961h-182l207 976l102 231h-44q-104 0 -160 83.5t-31 205.5h182q-8 -43 5.5 -74.5t42.5 -31.5h32q22 0 41.5 8t23.5 21l34 77h165z" />
    <glyph glyph-name="saraaimaimalaithai" unicode="&#xe44;" horiz-adv-x="476" 
d="M797 1496l-11 -53q-7 -33 -32 -89l2 1q-15 -34 -77.5 -176t-95.5 -218l-204 -961h-182l207 976l102 231h-44q-104 0 -160 83.5t-31 205.5h182q-8 -43 5.5 -74.5t42.5 -31.5h32q22 0 41.5 8t23.5 21l34 77h165z" />
    <glyph glyph-name="lakkhangyaothai" unicode="&#xe5;" horiz-adv-x="870" 
d="M916 705l-237 -1116h-179l237 1115q11 57 -32 97t-138 40q-114 0 -315 -85l-40 163q240 102 394 102q168 0 253.5 -91.5t56.5 -224.5z" />
    <glyph glyph-name="lakkhangyaothai" unicode="&#xe45;" horiz-adv-x="870" 
d="M916 705l-237 -1116h-179l237 1115q11 57 -32 97t-138 40q-114 0 -315 -85l-40 163q240 102 394 102q168 0 253.5 -91.5t56.5 -224.5z" />
    <glyph glyph-name="maiyamokthai" unicode="&#xe6;" horiz-adv-x="1108" 
d="M991 929q97 -110 64 -270l-228 -1070h-178l228 1070q10 46 -7 88t-54 70q-9 -4 -37 -17.5t-44 -20.5q-9 -4 -22 -10t-27 -13t-19 -9l-119 71q-48 -30 -82 -72t-44 -87l-42 -196h-115q-50 0 -41 109l19 87q25 118 122.5 216.5t227.5 142.5l118 -69q19 8 85 40q10 5 33 15
t28 13q86 -34 134 -88z" />
    <glyph glyph-name="maiyamokthai" unicode="&#xe46;" horiz-adv-x="1108" 
d="M991 929q97 -110 64 -270l-228 -1070h-178l228 1070q10 46 -7 88t-54 70q-9 -4 -37 -17.5t-44 -20.5q-9 -4 -22 -10t-27 -13t-19 -9l-119 71q-48 -30 -82 -72t-44 -87l-42 -196h-115q-50 0 -41 109l19 87q25 118 122.5 216.5t227.5 142.5l118 -69q19 8 85 40q10 5 33 15
t28 13q86 -34 134 -88z" />
    <glyph glyph-name="maitaikhuthai" unicode="&#xe7;" 
d="M-228 1333q-10 0 -18 -11l-15 -73q-1 -12 9.5 -14t74.5 -2t122 1h1q26 0 42 63h176q-24 -112 -100.5 -177t-155.5 -65q-49 0 -92 23q-44 -18 -95 -18q-50 0 -90 19t-61.5 63t-8.5 106l16 78q18 85 86.5 135t145.5 52h456l-38 -180h-455z" />
    <glyph glyph-name="maitaikhuthai" unicode="&#xe47;" 
d="M-228 1333q-10 0 -18 -11l-15 -73q-1 -12 9.5 -14t74.5 -2t122 1h1q26 0 42 63h176q-24 -112 -100.5 -177t-155.5 -65q-49 0 -92 23q-44 -18 -95 -18q-50 0 -90 19t-61.5 63t-8.5 106l16 78q18 85 86.5 135t145.5 52h456l-38 -180h-455z" />
    <glyph glyph-name="maiekthai" unicode="&#xe8;" 
d="M266 1793l-76 -356h-180l76 356h180z" />
    <glyph glyph-name="maiekthai" unicode="&#xe48;" 
d="M266 1793l-76 -356h-180l76 356h180z" />
    <glyph glyph-name="maithothai" unicode="&#xe9;" 
d="M-120 1619h417l-38 -178h-595l26 123l2 3q-2 -1 -2 -2h-45l38 179h223z" />
    <glyph glyph-name="maithothai" unicode="&#xe49;" 
d="M-120 1619h417l-38 -178h-595l26 123l2 3q-2 -1 -2 -2h-45l38 179h223z" />
    <glyph glyph-name="maitrithai" unicode="&#xea;" 
d="M316 1775l-29 -134q-16 -77 -78 -138.5t-157 -92.5h-69q-52 0 -41 106l5 24q7 36 -11 52q-12 -4 -13 -4h1q-67 -25 -89 -34l-82 38q-28 -21 -35 -52l-28 -130h-110q-22 0 -32.5 29t-6.5 79l5 22q16 78 87.5 148.5t151.5 89.5l89 -37q11 4 32.5 12.5t29.5 11.5h-1
q6 3 21 9t18 7q33 -11 34 -13q75 -34 106 -153l34 160h168z" />
    <glyph glyph-name="maitrithai" unicode="&#xe4a;" 
d="M316 1775l-29 -134q-16 -77 -78 -138.5t-157 -92.5h-69q-52 0 -41 106l5 24q7 36 -11 52q-12 -4 -13 -4h1q-67 -25 -89 -34l-82 38q-28 -21 -35 -52l-28 -130h-110q-22 0 -32.5 29t-6.5 79l5 22q16 78 87.5 148.5t151.5 89.5l89 -37q11 4 32.5 12.5t29.5 11.5h-1
q6 3 21 9t18 7q33 -11 34 -13q75 -34 106 -153l34 160h168z" />
    <glyph glyph-name="maichattawathai" unicode="&#xeb;" 
d="M254 1714l-38 -179h-118l-25 -118h-179l25 118h-118l38 179h118l25 117h123q22 0 31.5 -25.5t3.5 -70.5l-4 -21h118z" />
    <glyph glyph-name="maichattawathai" unicode="&#xe4b;" 
d="M254 1714l-38 -179h-118l-25 -118h-179l25 118h-118l38 179h118l25 117h123q22 0 31.5 -25.5t3.5 -70.5l-4 -21h118z" />
    <glyph glyph-name="thanthakhatthai" unicode="&#xec;" 
d="M294 1493l-401 -33q-14 -40 -30.5 -59t-42.5 -19h-121l52 244l566 47z" />
    <glyph glyph-name="thanthakhatthai" unicode="&#xe4c;" 
d="M294 1493l-401 -33q-14 -40 -30.5 -59t-42.5 -19h-121l52 244l566 47z" />
    <glyph glyph-name="nikhahitthai" unicode="&#xed;" 
d="M-46 1413q77 0 113 -46t20 -123q-17 -80 -72 -124.5t-133 -44.5q-80 0 -115 44.5t-18 124.5q17 78 71.5 123.5t133.5 45.5zM-91 1204q16 0 30 11.5t18 28.5q4 16 -5 27t-26 11q-16 0 -29 -10.5t-17 -27.5t4.5 -28.5t24.5 -11.5z" />
    <glyph glyph-name="nikhahitthai" unicode="&#xe4d;" 
d="M-46 1413q77 0 113 -46t20 -123q-17 -80 -72 -124.5t-133 -44.5q-80 0 -115 44.5t-18 124.5q17 78 71.5 123.5t133.5 45.5zM-91 1204q16 0 30 11.5t18 28.5q4 16 -5 27t-26 11q-16 0 -29 -10.5t-17 -27.5t4.5 -28.5t24.5 -11.5z" />
    <glyph glyph-name="yamakkanthai" unicode="&#xee;" 
d="M-280 1239q19 86 110 143q-3 18 2 41q18 83 119 143.5t208 60.5q72 0 185 -44l-34 -162q-70 19 -100 29q-47 18 -84 18q-32 0 -70 -9.5t-56 -22.5q4 -1 9.5 -2.5t12.5 -3.5t11 -3l49 -17l-25 -117h134l-71 -118q-85 -116 -233 -116q-90 0 -137 51.5t-30 128.5zM-80 1218
q29 0 50 13.5t45 43.5h-26q-13 0 -20 1q-4 0 -9 0.5t-6 0.5q-20 0 -47 -14t-29 -24t9.5 -15.5t32.5 -5.5z" />
    <glyph glyph-name="yamakkanthai" unicode="&#xe4e;" 
d="M-280 1239q19 86 110 143q-3 18 2 41q18 83 119 143.5t208 60.5q72 0 185 -44l-34 -162q-70 19 -100 29q-47 18 -84 18q-32 0 -70 -9.5t-56 -22.5q4 -1 9.5 -2.5t12.5 -3.5t11 -3l49 -17l-25 -117h134l-71 -118q-85 -116 -233 -116q-90 0 -137 51.5t-30 128.5zM-80 1218
q29 0 50 13.5t45 43.5h-26q-13 0 -20 1q-4 0 -9 0.5t-6 0.5q-20 0 -47 -14t-29 -24t9.5 -15.5t32.5 -5.5z" />
    <glyph glyph-name="fongmanthai" unicode="&#xef;" horiz-adv-x="868" 
d="M472 233q-124 0 -193 89t-43 212q27 125 133.5 212.5t230.5 87.5q122 0 192.5 -87t43.5 -213q-26 -125 -132.5 -213t-231.5 -88z" />
    <glyph glyph-name="fongmanthai" unicode="&#xe4f;" horiz-adv-x="868" 
d="M472 233q-124 0 -193 89t-43 212q27 125 133.5 212.5t230.5 87.5q122 0 192.5 -87t43.5 -213q-26 -125 -132.5 -213t-231.5 -88z" />
    <glyph glyph-name="zerothai" unicode="&#xf0;" horiz-adv-x="1109" 
d="M1028 831h-1q50 -41 72 -100t8 -127l-60 -284q-19 -88 -90.5 -159.5t-170 -109.5t-201.5 -38h-61q-160 0 -259 87t-71 220l60 284q19 89 90 160t169.5 108.5t201.5 37.5h61q158 0 252 -79zM868 320l60 284q10 49 -44 88t-146 39h-61q-92 0 -163 -38.5t-81 -88.5l-60 -284
q-11 -50 43 -89t146 -39h61q92 0 163 39t82 89z" />
    <glyph glyph-name="zerothai" unicode="&#xe50;" horiz-adv-x="1109" 
d="M1028 831h-1q50 -41 72 -100t8 -127l-60 -284q-19 -88 -90.5 -159.5t-170 -109.5t-201.5 -38h-61q-160 0 -259 87t-71 220l60 284q19 89 90 160t169.5 108.5t201.5 37.5h61q158 0 252 -79zM868 320l60 284q10 49 -44 88t-146 39h-61q-92 0 -163 -38.5t-81 -88.5l-60 -284
q-11 -50 43 -89t146 -39h61q92 0 163 39t82 89z" />
    <glyph glyph-name="onethai" unicode="&#xf1;" horiz-adv-x="1114" 
d="M1032 835q50 -40 72.5 -99.5t7.5 -127.5l-61 -285q-28 -134 -173 -222t-330 -88q-179 0 -380 105l109 161q171 -87 309 -87q118 0 197 40.5t90 90.5l61 285q10 49 -44.5 88t-145.5 39h-62q-92 0 -163 -39t-81 -88l-12 -53h69l-24 -114q-11 -53 -125 -65h-136l50 232
q28 132 164.5 219t295.5 87h62q152 0 250 -79z" />
    <glyph glyph-name="onethai" unicode="&#xe51;" horiz-adv-x="1114" 
d="M1032 835q50 -40 72.5 -99.5t7.5 -127.5l-61 -285q-28 -134 -173 -222t-330 -88q-179 0 -380 105l109 161q171 -87 309 -87q118 0 197 40.5t90 90.5l61 285q10 49 -44.5 88t-145.5 39h-62q-92 0 -163 -39t-81 -88l-12 -53h69l-24 -114q-11 -53 -125 -65h-136l50 232
q28 132 164.5 219t295.5 87h62q152 0 250 -79z" />
    <glyph glyph-name="twothai" unicode="&#xf2;" horiz-adv-x="1284" 
d="M1217 796l1 -1q72 -82 47 -198l-52 -246q-20 -95 -91.5 -173t-171.5 -121.5t-205 -43.5h-214q-162 0 -258 97t-66 241l146 688h114q29 0 37 -30t3 -94l-120 -564q-14 -64 38.5 -111.5t143.5 -47.5h214q91 0 163.5 47.5t86.5 111.5l26 122q2 11 12 55.5t15 68.5
q8 35 -15 64v-1q-7 4 -9 6q-24 -6 -75.5 -20.5t-83.5 -22.5l-139 44q-42 -30 -51 -70l-29 -138h-180l29 138q19 87 95 164t162 97l155 -44q29 8 84 23.5t87 23.5l27 -12q35 -16 74 -53z" />
    <glyph glyph-name="twothai" unicode="&#xe52;" horiz-adv-x="1284" 
d="M1217 796l1 -1q72 -82 47 -198l-52 -246q-20 -95 -91.5 -173t-171.5 -121.5t-205 -43.5h-214q-162 0 -258 97t-66 241l146 688h114q29 0 37 -30t3 -94l-120 -564q-14 -64 38.5 -111.5t143.5 -47.5h214q91 0 163.5 47.5t86.5 111.5l26 122q2 11 12 55.5t15 68.5
q8 35 -15 64v-1q-7 4 -9 6q-24 -6 -75.5 -20.5t-83.5 -22.5l-139 44q-42 -30 -51 -70l-29 -138h-180l29 138q19 87 95 164t162 97l155 -44q29 8 84 23.5t87 23.5l27 -12q35 -16 74 -53z" />
    <glyph glyph-name="threethai" unicode="&#xf3;" horiz-adv-x="1232" 
d="M1129 775l-4 5q51 -60 69 -137t0 -160l-97 -456h-180l97 456q12 57 -7 107t-68 84q-173 -67 -203 -78l-169 79q-62 -33 -103 -83.5t-54 -108.5q0 -2 -7 -33t-17 -74q-6 -37 -2.5 -65.5t21 -49.5t39.5 -35t52.5 -22t60 -11.5t62.5 -3.5l-38 -178q-41 0 -80.5 4.5t-83 16
t-78 30t-67 46.5t-49 66t-23.5 88.5t8 113.5l22 107q26 124 131 232.5t250 157.5l169 -78q83 34 199 78q93 -36 150 -98z" />
    <glyph glyph-name="threethai" unicode="&#xe53;" horiz-adv-x="1232" 
d="M1129 775l-4 5q51 -60 69 -137t0 -160l-97 -456h-180l97 456q12 57 -7 107t-68 84q-173 -67 -203 -78l-169 79q-62 -33 -103 -83.5t-54 -108.5q0 -2 -7 -33t-17 -74q-6 -37 -2.5 -65.5t21 -49.5t39.5 -35t52.5 -22t60 -11.5t62.5 -3.5l-38 -178q-41 0 -80.5 4.5t-83 16
t-78 30t-67 46.5t-49 66t-23.5 88.5t8 113.5l22 107q26 124 131 232.5t250 157.5l169 -78q83 34 199 78q93 -36 150 -98z" />
    <glyph glyph-name="fourthai" unicode="&#xf4;" horiz-adv-x="1104" 
d="M483 620v-1q-67 -46 -79 -105l-35 -163q-13 -63 39.5 -111t143.5 -48l31 1q91 0 135 22q-3 55 25 191h179q-30 -119 -2.5 -162.5t148.5 -43.5l-38 -181q-178 3 -240 47q-100 -53 -246 -53h-30q-163 0 -258.5 97.5t-65.5 240.5l35 163q30 142 168 240t300 98h161
q91 0 163 46.5t86 109.5l24 116h180l-24 -116q-20 -93 -91.5 -171t-171.5 -121.5t-205 -43.5h-161q-98 0 -171 -52z" />
    <glyph glyph-name="fourthai" unicode="&#xe54;" horiz-adv-x="1104" 
d="M483 620v-1q-67 -46 -79 -105l-35 -163q-13 -63 39.5 -111t143.5 -48l31 1q91 0 135 22q-3 55 25 191h179q-30 -119 -2.5 -162.5t148.5 -43.5l-38 -181q-178 3 -240 47q-100 -53 -246 -53h-30q-163 0 -258.5 97.5t-65.5 240.5l35 163q30 142 168 240t300 98h161
q91 0 163 46.5t86 109.5l24 116h180l-24 -116q-20 -93 -91.5 -171t-171.5 -121.5t-205 -43.5h-161q-98 0 -171 -52z" />
    <glyph glyph-name="fivethai" unicode="&#xf5;" horiz-adv-x="1104" 
d="M483 620q-66 -45 -78 -105l-35 -164q-14 -64 39 -111t144 -47h30q97 0 135 21q-1 65 26 192h178q-30 -116 -3 -161t149 -45l-38 -179q-178 0 -241 45q-101 -53 -245 -53h-30q-161 0 -257.5 97t-66.5 241l35 164q26 124 133.5 214t246.5 114q3 23 3 25q17 78 84 133
t145 55q74 0 118.5 -50.5t33.5 -123.5q96 44 114 126l24 116h180l-24 -116q-31 -143 -169 -239.5t-298 -96.5h-162q-96 0 -171 -52zM810 932q-22 0 -44.5 -19t-27.5 -43q-5 -21 9.5 -39t36.5 -18q24 0 46 18t27 39q5 25 -9 43.5t-38 18.5z" />
    <glyph glyph-name="fivethai" unicode="&#xe55;" horiz-adv-x="1104" 
d="M483 620q-66 -45 -78 -105l-35 -164q-14 -64 39 -111t144 -47h30q97 0 135 21q-1 65 26 192h178q-30 -116 -3 -161t149 -45l-38 -179q-178 0 -241 45q-101 -53 -245 -53h-30q-161 0 -257.5 97t-66.5 241l35 164q26 124 133.5 214t246.5 114q3 23 3 25q17 78 84 133
t145 55q74 0 118.5 -50.5t33.5 -123.5q96 44 114 126l24 116h180l-24 -116q-31 -143 -169 -239.5t-298 -96.5h-162q-96 0 -171 -52zM810 932q-22 0 -44.5 -19t-27.5 -43q-5 -21 9.5 -39t36.5 -18q24 0 46 18t27 39q5 25 -9 43.5t-38 18.5z" />
    <glyph glyph-name="sixthai" unicode="&#xf6;" horiz-adv-x="1098" 
d="M1101 604l-59 -284q-19 -89 -90.5 -160t-170 -109t-201.5 -38h-61q-160 0 -259 87t-71 220l29 138h178l-29 -138q-11 -50 44 -88.5t147 -38.5h61q92 0 162 38.5t81 88.5l59 284q11 51 -52 91.5t-178 40.5q-141 0 -347 -89l-97 375h196l40 -145q134 38 246 38
q179 0 289.5 -87t82.5 -224z" />
    <glyph glyph-name="sixthai" unicode="&#xe56;" horiz-adv-x="1098" 
d="M1101 604l-59 -284q-19 -89 -90.5 -160t-170 -109t-201.5 -38h-61q-160 0 -259 87t-71 220l29 138h178l-29 -138q-11 -50 44 -88.5t147 -38.5h61q92 0 162 38.5t81 88.5l59 284q11 51 -52 91.5t-178 40.5q-141 0 -347 -89l-97 375h196l40 -145q134 38 246 38
q179 0 289.5 -87t82.5 -224z" />
    <glyph glyph-name="seventhai" unicode="&#xf7;" horiz-adv-x="1505" 
d="M1472 1041h114l-148 -696q-19 -83 -55 -143.5t-76.5 -93.5t-97 -52.5t-104 -24.5t-109.5 -5h-89l97 456q12 58 -7.5 108.5t-68.5 84.5q-22 -9 -93 -37t-108 -42l-170 79q-131 -69 -158 -193q-8 -36 -23 -106q-6 -38 -3 -67t21.5 -49.5t40.5 -34t53 -22t60 -11.5t61 -3
l-38 -179q-33 0 -65 3t-70 10.5t-70.5 20.5t-65.5 33t-54.5 47t-39 64t-18 83.5t8.5 104.5l22 106q25 125 129.5 232.5t250.5 160.5l170 -81q146 60 201 81q125 -53 182.5 -160.5t31.5 -232.5l-58 -271q111 33 136 152l117 553q40 125 93 125z" />
    <glyph glyph-name="seventhai" unicode="&#xe57;" horiz-adv-x="1505" 
d="M1472 1041h114l-148 -696q-19 -83 -55 -143.5t-76.5 -93.5t-97 -52.5t-104 -24.5t-109.5 -5h-89l97 456q12 58 -7.5 108.5t-68.5 84.5q-22 -9 -93 -37t-108 -42l-170 79q-131 -69 -158 -193q-8 -36 -23 -106q-6 -38 -3 -67t21.5 -49.5t40.5 -34t53 -22t60 -11.5t61 -3
l-38 -179q-33 0 -65 3t-70 10.5t-70.5 20.5t-65.5 33t-54.5 47t-39 64t-18 83.5t8.5 104.5l22 106q25 125 129.5 232.5t250.5 160.5l170 -81q146 60 201 81q125 -53 182.5 -160.5t31.5 -232.5l-58 -271q111 33 136 152l117 553q40 125 93 125z" />
    <glyph glyph-name="eightthai" unicode="&#xf8;" horiz-adv-x="1161" 
d="M482 605q-67 -48 -79 -106l-51 -240q-6 -27 11.5 -47t49.5 -20h34q31 0 58.5 20t33.5 47l20 97h178l-20 -97q-7 -28 -12 -42q16 -25 58 -25h35q36 0 67.5 20.5t37.5 46.5l43 204h179l-43 -204q-22 -103 -116.5 -174.5t-205.5 -71.5h-35q-38 0 -82 13.5t-72 35.5
q-80 -49 -162 -49h-34q-104 0 -164 71t-38 175l51 240q20 94 91.5 172.5t171.5 122t205 43.5h161q91 0 163 47t87 111l24 113h179l-24 -114q-20 -95 -92 -173t-171 -121t-204 -43h-161q-97 0 -172 -52z" />
    <glyph glyph-name="eightthai" unicode="&#xe58;" horiz-adv-x="1161" 
d="M482 605q-67 -48 -79 -106l-51 -240q-6 -27 11.5 -47t49.5 -20h34q31 0 58.5 20t33.5 47l20 97h178l-20 -97q-7 -28 -12 -42q16 -25 58 -25h35q36 0 67.5 20.5t37.5 46.5l43 204h179l-43 -204q-22 -103 -116.5 -174.5t-205.5 -71.5h-35q-38 0 -82 13.5t-72 35.5
q-80 -49 -162 -49h-34q-104 0 -164 71t-38 175l51 240q20 94 91.5 172.5t171.5 122t205 43.5h161q91 0 163 47t87 111l24 113h179l-24 -114q-20 -95 -92 -173t-171 -121t-204 -43h-161q-97 0 -172 -52z" />
    <glyph glyph-name="ninethai" unicode="&#xf9;" horiz-adv-x="1085" 
d="M1281 1015q-22 -105 -104.5 -186t-195.5 -121q50 -115 21 -253q-28 -137 -13.5 -198t71.5 -69l-61 -178q-66 9 -109 37.5t-63.5 67.5t-25.5 96t1 112.5t21 127.5q22 106 -19 161t-109 65h-43q-92 0 -164.5 -46.5t-85.5 -109.5l-29 -140q-11 -44 -7 -75t13 -50.5t29.5 -31
t43.5 -15.5t55 -4h155l-38 -178h-200q-298 23 -231 354l29 140q19 94 91.5 172t173 121t204.5 43h160q92 0 164.5 47t85.5 111l24 114h180z" />
    <glyph glyph-name="ninethai" unicode="&#xe59;" horiz-adv-x="1085" 
d="M1281 1015q-22 -105 -104.5 -186t-195.5 -121q50 -115 21 -253q-28 -137 -13.5 -198t71.5 -69l-61 -178q-66 9 -109 37.5t-63.5 67.5t-25.5 96t1 112.5t21 127.5q22 106 -19 161t-109 65h-43q-92 0 -164.5 -46.5t-85.5 -109.5l-29 -140q-11 -44 -7 -75t13 -50.5t29.5 -31
t43.5 -15.5t55 -4h155l-38 -178h-200q-298 23 -231 354l29 140q19 94 91.5 172t173 121t204.5 43h160q92 0 164.5 47t85.5 111l24 114h180z" />
    <glyph glyph-name="angkhankhuthai" unicode="&#xfa;" horiz-adv-x="1265" 
d="M930 1016h114l-187 -883q-42 -124 -92 -124h-114l121 566q-169 -77 -308 -79q-134 0 -200 76q-32 37 -43 89t1 106q30 146 224 301l95 -131q-126 -101 -140 -170q-9 -40 11 -63q27 -29 90 -29q124 0 314 108l23 108q40 125 91 125zM1203 1016h114l-187 -883
q-42 -124 -92 -124h-115l188 882q21 63 43 94t49 31z" />
    <glyph glyph-name="angkhankhuthai" unicode="&#xe5a;" horiz-adv-x="1265" 
d="M930 1016h114l-187 -883q-42 -124 -92 -124h-114l121 566q-169 -77 -308 -79q-134 0 -200 76q-32 37 -43 89t1 106q30 146 224 301l95 -131q-126 -101 -140 -170q-9 -40 11 -63q27 -29 90 -29q124 0 314 108l23 108q40 125 91 125zM1203 1016h114l-187 -883
q-42 -124 -92 -124h-115l188 882q21 63 43 94t49 31z" />
    <glyph glyph-name="khomutthai" unicode="&#xfb;" horiz-adv-x="2147" 
d="M734 482q-62 -47 -130 -47q-60 0 -93 37.5t-21 89.5q11 51 58.5 88t109.5 37q47 0 75 -23q14 67 -20 106.5t-99 39.5q-92 0 -167 -71.5t-99 -185.5q-30 -145 27.5 -231t177.5 -86q139 0 258 119.5t158 305.5l6 26l5 39l55 44l100 -252l159 238l62 -210l132 172l71 -170
l122 129l73 -109l41 46h350l-88 -68h-218l-111 -88l-69 86l-136 -143l-65 147l-154 -188l-49 190l-145 -217l-87 211q-67 -173 -201.5 -276t-283.5 -103q-150 0 -232.5 101.5t-57.5 259.5q34 159 137 255t243 96q114 0 168 -66t32 -171q-21 -99 -94 -158zM567 562
q-6 -28 8 -45.5t40 -17.5q30 0 51 17.5t27 45.5q6 27 -8 45t-44 18q-26 0 -47 -18t-27 -45z" />
    <glyph glyph-name="khomutthai" unicode="&#xe5b;" horiz-adv-x="2147" 
d="M734 482q-62 -47 -130 -47q-60 0 -93 37.5t-21 89.5q11 51 58.5 88t109.5 37q47 0 75 -23q14 67 -20 106.5t-99 39.5q-92 0 -167 -71.5t-99 -185.5q-30 -145 27.5 -231t177.5 -86q139 0 258 119.5t158 305.5l6 26l5 39l55 44l100 -252l159 238l62 -210l132 172l71 -170
l122 129l73 -109l41 46h350l-88 -68h-218l-111 -88l-69 86l-136 -143l-65 147l-154 -188l-49 190l-145 -217l-87 211q-67 -173 -201.5 -276t-283.5 -103q-150 0 -232.5 101.5t-57.5 259.5q34 159 137 255t243 96q114 0 168 -66t32 -171q-21 -99 -94 -158zM567 562
q-6 -28 8 -45.5t40 -17.5q30 0 51 17.5t27 45.5q6 27 -8 45t-44 18q-26 0 -47 -18t-27 -45z" />
    <glyph glyph-name="saraulowthai" unicode="&#xfc;" 
d="M-621 -439h273l-71 -335h-176l29 138l7 17h-100z" />
    <glyph glyph-name="saraulowthai" unicode="&#xf718;" 
d="M-621 -439h273l-71 -335h-176l29 138l7 17h-100z" />
    <glyph glyph-name="sarauulowthai" unicode="&#xfd;" 
d="M-397 -439h169l-33 -157q-18 -84 -101.5 -137t-162.5 -53q-46 0 -91 18.5t-76 58t-26 90.5h-67l38 180h245l-34 -159q1 -9 18 -19t27 -10q12 0 35.5 11.5t25.5 20.5z" />
    <glyph glyph-name="sarauulowthai" unicode="&#xf719;" 
d="M-397 -439h169l-33 -157q-18 -84 -101.5 -137t-162.5 -53q-46 0 -91 18.5t-76 58t-26 90.5h-67l38 180h245l-34 -159q1 -9 18 -19t27 -10q12 0 35.5 11.5t25.5 20.5z" />
    <glyph glyph-name="phinthulowthai" unicode="&#xfe;" 
d="M-321 -563q-11 -51 -56 -87.5t-95 -36.5q-52 0 -79.5 36.5t-16.5 87.5t54 87.5t95 36.5q50 0 79 -36.5t19 -87.5z" />
    <glyph glyph-name="phinthulowthai" unicode="&#xf71a;" 
d="M-321 -563q-11 -51 -56 -87.5t-95 -36.5q-52 0 -79.5 36.5t-16.5 87.5t54 87.5t95 36.5q50 0 79 -36.5t19 -87.5z" />
    <glyph glyph-name="nptp3.001march2007r" unicode="&#xe3e;" 
 />
    <glyph glyph-name="ZWSP" unicode="&#x200b;" 
 />
    <glyph glyph-name="uni25CC" unicode="&#x25cc;" horiz-adv-x="1082" 
d="M609 341q37 0 58.5 -26.5t13.5 -65.5q-7 -37 -40.5 -64t-70.5 -27q-39 0 -60 27t-13 64q8 39 40.5 65.5t71.5 26.5zM997 664q39 0 60 -27t13 -64q-9 -43 -39.5 -69t-73.5 -26q-38 0 -59 27t-12 68q8 37 41 64t70 27zM355 664q35 0 57 -27.5t14 -63.5q-9 -41 -41 -68
t-70 -27t-59.5 27t-12.5 68q8 37 41.5 64t70.5 27zM746 985q37 0 58.5 -26.5t13.5 -65.5q-8 -38 -41 -64t-70 -26q-39 0 -60 26t-13 64q8 39 40.5 65.5t71.5 26.5zM505 881q42 0 62.5 -25t10.5 -68q-8 -39 -39.5 -65t-72.5 -26q-37 0 -58.5 26.5t-13.5 64.5q9 43 41 68
t70 25zM940 881q37 0 59 -25.5t13 -67.5q-8 -38 -40 -64.5t-71 -26.5q-37 0 -59 26.5t-14 64.5q9 43 41.5 68t70.5 25zM847 445q36 0 58.5 -26.5t14.5 -64.5q-8 -37 -40.5 -64t-71.5 -27q-37 0 -58.5 27t-13.5 64q8 38 41 64.5t70 26.5zM412 445q41 0 61.5 -26t12.5 -65
q-8 -38 -40.5 -64.5t-72.5 -26.5q-37 0 -58 27t-13 64q8 39 40.5 65t69.5 26z" />
    <glyph glyph-name="Fontcraft" horiz-adv-x="1942" 
d="M680 -161q0 -5 -2 -23q-19 -75 -84 -75q-32 0 -46 17t-14 41q0 51 27.5 74t58.5 23q28 0 44 -15.5t16 -41.5zM648 -177q5 17 -2.5 29.5t-25.5 12.5q-25 0 -40 -20.5t-15 -49.5q0 -23 29 -23q40 0 54 51zM924 -108q6 0 11 -4.5t5 -9.5q0 -17 -16 -17h-26l-15 -60v-17
q0 -12 6 -12q2 0 7 1.5t7 1.5q16 0 16 -14q0 -18 -27 -18q-19 0 -30 12t-11 33q0 3 1.5 9.5t1.5 10.5l12 53h-16q-16 0 -16 17q0 14 16 14h22l11 52q0 12 15 12q6 0 10.5 -6t4.5 -13l-8 -45h19zM541 -122q0 -17 -16 -17h-22l-23 -106q-11 -59 -68 -59q-7 0 -12 4.5t-5 11.5
q0 9 7.5 12.5t17 3.5t18.5 7.5t11 25.5l21 100h-18q-7 0 -12 5t-5 12q0 5 5 9.5t12 4.5h24l5 24q5 26 23.5 42t46.5 16q6 0 10.5 -4.5t4.5 -10.5q0 -11 -7 -14t-16 -1.5t-18.5 -6t-13.5 -26.5l-3 -19h17q16 0 16 -14zM817 -130q4 -8 4 -20q0 -2 -0.5 -5t-0.5 -6l-18 -84
q-5 -14 -16 -14q-6 0 -10.5 5t-4.5 11q0 3 1 4l17 85v0q0 8 -1.5 12t-5 6t-3.5 3q-25 0 -49 -23l-20 -89q-2 -14 -16 -14q-6 0 -10 5t-4 11v4l27 123q3 12 14 12q6 0 11 -4t5 -8h1q24 11 34 12q37 0 45 -26zM1510 -108q6 0 10 -4.5t4 -9.5q0 -17 -14 -17h-29l-12 -60
q-2 -9 -2 -17q0 -12 7 -12q3 0 7.5 1.5t6.5 1.5q16 0 16 -15q0 -17 -27 -17q-17 0 -29 12t-12 33q0 3 0.5 6t1.5 7.5t1 6.5l11 53h-43l-22 -106q-13 -59 -69 -59q-6 0 -10.5 4.5t-4.5 11.5q0 10 7.5 13.5t17 3t18 7t10.5 25.5l22 100h-20q-14 0 -14 17q0 5 4.5 9.5t9.5 4.5
h27l2 24q13 58 71 58q14 0 14 -15q0 -9 -7 -12.5t-15.5 -3.5t-17.5 -8t-13 -24l-5 -19h44l6 20q0 11 14 11q15 0 15 -14l-1 -1q0 -2 -0.5 -6t-1.5 -10h22zM1198 -119q0 -6 -5.5 -10t-11.5 -4q-32 0 -38 -34l-17 -79q-2 -13 -14 -13q-7 0 -11.5 5t-4.5 11v4l16 78
q15 57 69 57q6 0 11.5 -4.5t5.5 -10.5zM1307 -229q-25 -27 -64 -27q-23 0 -39 15t-12 40q3 16 16.5 26.5t25 13t30.5 5.5q20 0 28 -1q0 1 1 5t1 5q0 15 -23 15q-3 0 -19.5 -3.5t-25.5 -3.5q-13 0 -13 9q0 14 21 21t44 7q48 0 48 -41q0 -2 -2 -8t-2 -8zM1278 -222l9 35
q-36 0 -51 -5t-16 -19q0 -17 33 -17q11 0 25 6zM1096 -133q0 -1 1 -4l1 -3q0 -6 -4 -11t-10 -5t-17 11.5t-27 11.5q-18 0 -34.5 -18.5t-16.5 -49.5q0 -27 30 -27q8 0 19.5 6t16.5 6q15 0 15 -17q0 -11 -17.5 -18.5t-33.5 -7.5q-31 0 -46 17.5t-15 40.5q0 47 25 72t57 25
q34 0 56 -29zM962 1146q155 0 288 -76t211 -209t78 -290q0 -156 -76.5 -288.5t-209.5 -210t-291 -77.5q-156 0 -288 76t-209.5 209t-77.5 291q0 156 77 288.5t209.5 209.5t288.5 77zM962 101q126 0 234.5 62.5t172.5 171t64 236.5q0 140 -77 258l-75 -326
q-12 -67 -73.5 -120.5t-136.5 -53.5q-71 0 -123 55q-68 -55 -139 -55t-115.5 47t-44.5 111q0 16 24 132q-20 -7 -39.5 11.5t-19.5 40.5q0 59 89 59q38 0 65.5 -17t21.5 -54l-34 -156q-4 -27 10 -47.5t43 -20.5q37 0 68 28t40 62l33 157q4 19 18.5 30.5t33.5 11.5
q21 0 36.5 -16t15.5 -37q0 -2 -35 -168q-5 -27 9 -47.5t43 -20.5q34 0 68 27.5t41 62.5l91 401q-132 114 -309 114q-127 0 -235.5 -62.5t-172 -171t-63.5 -235.5q0 -128 63.5 -236t172 -171t235.5 -63z" />
    <glyph glyph-name="lochula.short" horiz-adv-x="1144" 
d="M1262 1123q-20 -95 -70 -165q-29 -41 -55 -63q63 -66 38 -184l-102 -478q-22 -102 -116 -173.5t-205 -71.5h-35q-91 0 -155 49q-77 -49 -161 -49h-34q-105 0 -165 71.5t-38 173.5l166 780h179l-166 -780q-6 -27 12.5 -46.5t49.5 -19.5h34q31 0 57 19.5t32 46.5l79 371
h180l-79 -371q-5 -23 -14 -43q21 -23 61 -23h35q35 0 67 20.5t37 45.5l101 477q6 26 -8.5 44t-43.5 27t-58 13t-64 4l38 180q194 0 224 145l27 128h179z" />
    <glyph glyph-name="saraamleft" horiz-adv-x="863" 
d="M894 708l-150 -708h-179l150 708q12 57 -31.5 97t-137.5 40q-113 0 -318 -85l-40 162q246 103 396 103q167 0 253 -91t57 -226zM-178 1397q77 0 113.5 -46t20.5 -123q-17 -79 -72.5 -124t-132.5 -45q-80 0 -115.5 45t-18.5 124q16 78 70.5 123.5t134.5 45.5zM-222 1188
q16 0 29.5 11.5t17.5 28.5q3 17 -5.5 28t-24.5 11q-17 0 -30.5 -11.5t-16.5 -27.5q-4 -17 5 -28.5t25 -11.5z" />
    <glyph glyph-name="yamakkanleftthai" 
d="M-440 1287q19 86 110 143q-3 18 2 41q18 82 119.5 143t208.5 61q72 0 184 -44l-34 -162q-86 24 -99 29q-49 18 -84 18q-31 0 -69 -9.5t-57 -22.5q5 -1 34 -9l49 -17l-24 -117h132l-71 -118q-83 -116 -233 -116q-90 0 -137 51.5t-31 128.5zM-238 1266q29 0 49.5 13.5
t44.5 43.5h-27q-13 0 -20 1q-3 0 -8 0.5t-6 0.5q-21 0 -47.5 -14t-28.5 -24t10 -15.5t33 -5.5z" />
    <glyph glyph-name="Naipol" 
d="M71 617q-1 -1 -3 -1v2q3 0 3 -1zM28 649q-2 -1 -9 -1q-10 0 -26 6l-14 2h-4q-4 -2 -5 -2q6 8 11 8q24 0 35 -5q1 0 2 -1q5 -2 10 -7zM87 710q0 -10 -3 -26.5t-7 -33.5t-5 -23l-3 5q-7 -5 -17.5 -28t-10.5 -27v79q-10 9 -18 50q-25 43 -83 43q-63 0 -80 -53l-25 -45v-89
h-8q-7 78 -17 97q-3 -10 -4 -15l-3 15q-3 -6 -3 -12q0 -5 5 -22t5 -23q-22 29 -22 99v21l16 26h4q2 0 2 1v7q25 8 29 54q4 2 10.5 4.5t10 4t6 4t2.5 5.5q8 0 12 4q8 -6 20 -6q0 6 13 13l9 -13q6 15 8 17h5q3 0 9 8q20 0 76 -14q5 -8 16.5 -16.5t17.5 -10.5q2 -14 17 -55
t16 -45zM15 629h-28q-4 0 -11 1t-9 1h-4l7 6q6 6 9 6q10 0 18 -2.5t11 -5t3 -3.5zM-14 624q-2 -2 -6 -2v2h6zM41 571v-4q0 -7 -5 -7q2 8 5 11zM-180 770q0 -1 -2 -1v2q2 0 2 -1zM-76 636q0 -3 -3 -3v7q3 0 3 -4zM-88 660q-3 -1 -8 -1q-34 0 -49 4l1 1l2 2q7 5 18 5
q18 0 36 -11zM-40 584l2 -2h-12l8 2h2zM-88 641l2 -5q0 -1 -3.5 -2.5t-9.5 -4t-12 -2.5l15 4l1 2l1 2h-2q-3 0 -11.5 2t-10.5 2q-18 0 -21 1q13 10 23 10q19 0 24 -4zM-77 584h-2h-2l-1 1q-4 0 -4 2q0 1 2 1q7 0 7 -4zM-17 555q0 -11 -21.5 -21.5t-28.5 -10.5q-1 0 -6.5 0.5
t-10.5 0.5q-10 0 -22 13.5t-12 22.5q2 0 13.5 1t15.5 1q5 0 14 -2.5t10 -2.5q2 0 11.5 1.5t13.5 1.5q19 -3 23 -5zM-192 635q0 -2 -3 -2v3q3 0 3 -1zM-161 560h-3v2q3 0 3 -2zM-157 546h-4v9q4 -1 4 -9zM218 240h-594v29v12q0 8 1 12q17 103 60 132q22 14 42 22q25 16 87 41
q25 5 38 13v12v3v5q-9 19 -9 21v2q3 0 5 -5q0 -3 1 -4q2 -5 5 -9.5t8.5 -9.5t8.5 -8t12 -9.5t11 -8.5q21 -8 36 -8q23 0 57 18.5t48 55.5q0 -10 -14 -33q-13 -13 -13 -28q0 -4 1 -6h2q20 0 27 -4q89 -33 145 -90q35 -44 35 -115v-23v-8v-9zM53 800q0 4 -6 8.5t-12 4.5
l11 -17q7 0 7 4zM-17 840q0 3 -6 3v-6q6 0 6 3zM-29 843q-9 0 -9 -2t5 -4l1 2q1 2 3 4zM-157 783q0 4 -4 4v-6q4 0 4 2zM9 631q-3 0 -9 5t-20 5q-1 0 -2 -0.5t-2 -2t-3 -3t-5 -3.5h11q5 -1 8 -1l12 1h2q1 -1 8 -1zM-107 639h15l-1 3l-3 2l-4 2l-1 1q1 0 1 -3q0 -4 -7 -5z
M-100 643q0 2 -2 2t-2 -2t2 -2t2 2zM-109 639q-6 1 -6 5q0 2 5 4h-7q-2 -1 -11 -6h3l7 -2q7 -1 9 -1zM-27 553q0 2 -9 2l-11 -1q-11 -1 -15 -1q-3 0 -10.5 2t-21.5 2l-5 -1h-7h-2q1 -2 8 -11q25 -5 31 -5q2 0 12 0.5t15 0.5q2 0 8.5 5t6.5 7zM-57 532v1v2h-4v-1h-4h-2v-3h7z
M-72 529v2v1l-6 1l-2 1l-1 -2h1l1 -1l2 -2h5zM41 466q-4 16 -24 16q-2 0 -2 -2q0 -10 5 -18q-14 -33 -39 -49q6 17 11 17q2 3 5 21.5t3 24.5q0 13 -4 18q-40 -25 -66 -25q-21 0 -71 38l1 -10v1q0 -2 -6 -4l2 -27q-4 4 -19 9l-19 5q6 -62 88 -104q43 0 62 12l27 20q2 9 24 24
t22 33zM-13 640q8 0 8 -5q0 -3 -8 -3t-8 3q0 5 8 5zM-19 634q3 0 3 1q-2 2 -3 2q-2 0 -2 -2q0 -1 2 -1z" />
    </font>
</defs>
</svg>
