<?xml version="1.0" standalone="no"?>
<!DOCTYPE svg PUBLIC "-//W3C//DTD SVG 1.1//EN" "http://www.w3.org/Graphics/SVG/1.1/DTD/svg11.dtd" >
<svg xmlns="http://www.w3.org/2000/svg" xmlns:xlink="http://www.w3.org/1999/xlink" version="1.1">
<metadata>
Created by FontForge 20170731 at Mon Aug 24 19:38:39 2015
 By Aleksey,,,
Copyright (c) 2013 by Fontcraft : Jutipong Poosumas. All rights reserved.
</metadata>
<defs>
<font id="SuperspaceRegular-Italic" horiz-adv-x="0" >
  <font-face 
    font-family="Superspace Regular"
    font-weight="400"
    font-style="italic"
    font-stretch="normal"
    units-per-em="2048"
    panose-1="2 0 0 0 0 0 0 0 0 0"
    ascent="1638"
    descent="-410"
    x-height="966"
    cap-height="1161"
    bbox="-735 -808 2145 1846"
    underline-thickness="72"
    underline-position="-365"
    unicode-range="U+0020-25CC"
  />
<missing-glyph horiz-adv-x="1536" 
d="M1280 0h-1024v1280h1024v-1280zM298 32h940q10 0 10 10v1196q0 10 -10 10h-940q-10 0 -10 -10v-1196q0 -10 10 -10z" />
    <glyph glyph-name="quotedblleft" unicode="&#x91;&#x91;" horiz-adv-x="623" 
d="M299 914l74 400h156l-92 -400h-138zM564 914l74 400h156l-92 -400h-138z" />
    <glyph glyph-name="quotedblright" unicode="&#x92;&#x92;" horiz-adv-x="626" 
d="M307 914l74 400h156l-92 -400h-138zM572 914l74 400h156l-92 -400h-138z" />
    <glyph glyph-name="copyright2" unicode="&#x3b;&#x3b;For&#x20;Education&#x20;Used&#x20;Only&#x3b;&#x3b;" horiz-adv-x="1306" 
d="M1020 1228q109 0 204 -34.5t164 -96t115.5 -146.5t57 -185t-10.5 -213q-39 -182 -163 -337.5t-298 -245.5t-356 -90q-110 0 -206 34.5t-164.5 95.5t-115 145.5t-56.5 185t11 212.5q29 137 109 262t189.5 215t246 144t273.5 54zM1170 179h1q187 154 234 374
q31 143 -14 265t-152 193.5t-250 71.5q-144 0 -281.5 -71t-234 -193t-127.5 -266q-31 -143 14.5 -264.5t152.5 -192.5t251 -71h6q102 0 272 68l-3 -1q74 39 131 87zM823 301q91 0 262 57l18 -135q-189 -63 -309 -63q-131 0 -207 60t-69 159q5 72 26 174q21 96 44 153l-1 -1
q34 99 134.5 158t234.5 59q119 0 282 -63l-75 -134q-140 56 -236 56q-81 0 -135 -27t-71 -69l1 1q-22 -65 -37 -133q-13 -62 -20 -126v1q0 -16 -5 -33q1 -42 43 -68t120 -26z" />
    <glyph glyph-name="registered2" unicode="&#x3b;&#x3b;Registered&#x3b;&#x3b;" horiz-adv-x="1306" 
d="M1014 1216q108 0 202.5 -34.5t162.5 -95t114 -144.5t56.5 -183.5t-10.5 -210.5q-38 -181 -161 -334.5t-295.5 -243t-352.5 -89.5q-181 0 -316 89.5t-191.5 243t-18.5 334.5t160.5 334.5t295 243.5t354.5 90zM1162 177h1q186 153 233 371q30 142 -14.5 263t-150 191.5
t-247.5 70.5q-143 0 -279.5 -70.5t-232.5 -191.5t-126 -263q-25 -108 -2 -203.5t77.5 -167t143.5 -112.5t196 -41h6q97 0 269 68l-3 -1q78 42 129 86zM1063 432q25 -109 86 -251h-166q-46 119 -72 265h-199l-56 -264h-140l156 735h251q97 0 143 -5h-1q101 -11 132.5 -67.5
t6.5 -172.5q-35 -163 -147 -203l1 -2q0 -10 5 -35zM892 588q109 0 124 3q28 6 39 36q5 13 12 46q5 22 5 37.5t-1.5 27t-13 18.5t-21 11.5t-35 6t-46 2t-62.5 0.5h-111l-40 -188h150z" />
    <glyph glyph-name="trademark2" unicode="&#x3b;&#x3b;Trademark&#x3b;&#x3b;" horiz-adv-x="1990" 
d="M422 1164h675l-32 -149h-261l-113 -531h-149l113 531h-265zM1906 1164h153l-145 -680h-148l90 422q-68 -73 -204.5 -210t-197.5 -203l-216 409l-89 -418h-148l145 680h154l211 -410q66 73 198.5 206.5t196.5 203.5z" />
    <glyph glyph-name="multiply2" unicode="&#x3b;&#x3b;Multiply&#x3b;&#x3b;" horiz-adv-x="1069" 
d="M913 332l-126 -103l-190 242q-33 -28 -138.5 -114.5t-155.5 -128.5l-83 105l295 242l-192 243l125 104l192 -243l294 243l83 -105l-294 -243z" />
    <glyph glyph-name="divide2" unicode="&#x3b;&#x3b;Divide&#x3b;&#x3b;" horiz-adv-x="1050" 
d="M672 282q-9 -43 -44.5 -73t-78.5 -30t-67 30t-15 73q10 43 46 73t79 30t66.5 -30t13.5 -73zM799 876q-9 -43 -45 -73t-79 -30t-66.5 30t-14.5 73t45.5 73t79.5 30t66 -30t14 -73zM196 502l31 147h833l-31 -147h-833z" />
    <glyph glyph-name="rulakkhangyao" unicode="&#xc4;&#xd2;" horiz-adv-x="1870" 
d="M1018 942q110 -87 80 -224l-243 -1146h-147l243 1146q14 63 -52 111t-197 48q-109 0 -253 -42l-111 -522q-12 -45 -9.5 -77t9.5 -52t27 -31t43 -15t58 -4l-31 -147q-153 0 -215.5 76.5t-28.5 248.5l133 628q236 83 409 83q185 0 285 -81zM1860 714l-242 -1142h-146
l242 1141q12 67 -36 115t-156 48q-122 0 -318 -83l-34 134q226 96 383 96q166 0 250.5 -89.5t56.5 -219.5z" />
    <glyph glyph-name="lulakkhangyao" unicode="&#xc6;&#xd2;" horiz-adv-x="1846" 
d="M1018 942q109 -89 79 -223l-243 -1147h-147l243 1147q14 63 -52 110.5t-198 47.5q-117 0 -253 -41l-143 -673q-16 -74 -90.5 -125t-156.5 -51l31 147q23 0 46 9.5t25 19.5l165 777q233 83 407 83q184 0 287 -81zM1845 714l-242 -1142h-146l242 1141q12 67 -36.5 115
t-155.5 48q-122 0 -319 -83l-33 134q225 96 383 96q166 0 250.5 -89.5t56.5 -219.5z" />
    <glyph glyph-name=".notdef" horiz-adv-x="1536" 
d="M1280 0h-1024v1280h1024v-1280zM298 32h940q10 0 10 10v1196q0 10 -10 10h-940q-10 0 -10 -10v-1196q0 -10 10 -10z" />
    <glyph glyph-name=".null" 
 />
    <glyph glyph-name="nonmarkingreturn" horiz-adv-x="579" 
 />
    <glyph glyph-name="space" unicode=" " horiz-adv-x="690" 
 />
    <glyph glyph-name="exclam" unicode="!" horiz-adv-x="423" 
d="M206 328l178 927h172l-212 -927h-138zM346 119q-11 -48 -52 -82.5t-90 -34.5q-47 0 -74.5 35t-17.5 82t52.5 82t89.5 35q49 0 75.5 -34.5t16.5 -82.5z" />
    <glyph glyph-name="quotedbl" unicode="&#x22;" horiz-adv-x="614" 
d="M277 834l74 400h156l-92 -400h-138zM542 834l74 400h156l-92 -400h-138z" />
    <glyph glyph-name="numbersign" unicode="#" horiz-adv-x="1364" 
d="M1283 443l-32 -148h-264q-57 -114 -149 -296h-156l150 296h-357l-148 -296h-156l150 296h-242l31 147h284q62 120 136 267h-246l31 146h289q24 48 75.5 149.5t74.5 147.5h153l-149 -297h357q125 247 149 297h154l-148 -296h215l-31 -147h-260q-74 -152 -132 -266h221z
M549 442h357q122 240 136 267h-358q-59 -117 -135 -267z" />
    <glyph glyph-name="dollar" unicode="$" horiz-adv-x="1084" 
d="M1028 320l-1 -4q-27 -99 -88.5 -168t-138.5 -103t-171 -44l-26 -121h-148l25 117q-196 15 -380 109l89 135q89 -45 190.5 -72.5t188.5 -27.5q258 0 313 186q7 37 -5 65.5t-27.5 44.5t-55 30.5t-59 19t-68.5 14.5q-10 2 -15.5 3t-13.5 3t-14 3q-9 3 -30.5 6.5t-43 7.5
t-50.5 10.5t-53.5 15.5t-53.5 22.5t-49.5 30.5t-41 41t-29 53t-12.5 66.5t8 82.5q23 87 71.5 151t114 99.5t132.5 53t143 21.5l25 117h148l-25 -117q153 -15 299 -81l-89 -136q-66 32 -154.5 52.5t-173.5 20.5q-128 0 -221.5 -48.5t-122.5 -136.5q-6 -37 5.5 -66t30.5 -46
t55.5 -31.5t61 -20.5t66 -14t53.5 -11h-1q14 -4 50 -11q26 -5 40.5 -8t43 -10t46 -14t43 -18t41.5 -24.5t34.5 -30.5t28 -39t17 -48.5t7 -59.5t-8.5 -70z" />
    <glyph glyph-name="percent" unicode="%" horiz-adv-x="1356" 
d="M640 1140q95 0 148.5 -68t33.5 -164l-24 -111q-20 -96 -102.5 -164t-177.5 -68h-122q-96 0 -149 68t-33 164l24 111q20 97 101.5 164.5t178.5 67.5h122zM548 707q36 0 68 26.5t40 63.5l24 111q7 37 -14 63t-57 26h-122q-37 0 -68.5 -26t-38.5 -63l-24 -111
q-8 -37 12.5 -63.5t57.5 -26.5h122zM1191 584q97 0 150 -67.5t32 -164.5l-23 -111q-21 -97 -103 -164.5t-179 -67.5h-120q-97 0 -150 67.5t-32 164.5l23 111q21 97 103 164.5t179 67.5h120zM1099 152q37 0 69 26t40 63l23 111q8 37 -13 63.5t-58 26.5h-120q-37 0 -69 -26.5
t-40 -63.5l-23 -111q-8 -37 13 -63t58 -26h120zM1248 1150h184l-1093 -1150h-183z" />
    <glyph glyph-name="ampersand" unicode="&#x26;" horiz-adv-x="1267" 
d="M1283 891l-45 -211h79l-30 -140h-79l-39 -186q-22 -103 -100.5 -188t-190 -133t-229.5 -48h-73q-116 0 -207 48t-134.5 133.5t-21.5 187.5l8 41q33 152 137 222q-69 83 -40 228l1 5q30 133 126.5 220t219.5 87h245l-30 -141h-244q-63 0 -111 -45.5t-64 -122.5
q-17 -78 11.5 -122t93.5 -46h531l45 211h141zM1028 355l39 185h-532q-139 0 -171 -145l-8 -40q-20 -93 52 -160.5t198 -67.5h73q128 0 228.5 67.5t120.5 160.5z" />
    <glyph glyph-name="quotesingle" unicode="'" horiz-adv-x="301" 
d="M256 834l73 400h157l-93 -400h-137z" />
    <glyph glyph-name="parenleft" unicode="(" horiz-adv-x="387" 
d="M636 1329l-23 -39q-194 -311 -274 -687q-37 -171 -44 -354.5t1.5 -274t19.5 -152.5h-158q-52 385 33 784q80 374 287 723h158z" />
    <glyph glyph-name="parenright" unicode=")" horiz-adv-x="417" 
d="M327 1329h156q59 -348 -20 -726q-85 -393 -300 -781h-156q26 43 57.5 105t81 168t95.5 241.5t74 266.5q78 373 12 726z" />
    <glyph glyph-name="asterisk" unicode="*" horiz-adv-x="923" 
d="M1020 938l-277 -75q0 -1 -0.5 -2t-0.5 -2q64 -116 119 -213l-146 -92l-105 218h-3q-3 0 -4 -1h1v1h-1q-28 -32 -97 -107.5t-100 -110.5l-107 91l209 213v5q-42 13 -128 40t-115 36l79 150l240 -93q25 143 51 275h157l-67 -274q35 12 133 43.5t144 47.5z" />
    <glyph glyph-name="plus" unicode="+" horiz-adv-x="1002" 
d="M1050 649l-31 -147h-342l-73 -343h-148l73 343h-344l31 147h344l74 344h148l-74 -344h342z" />
    <glyph glyph-name="comma" unicode="," horiz-adv-x="425" 
d="M102 -85l102 341h170l-133 -341h-139z" />
    <glyph glyph-name="hyphen" unicode="-" horiz-adv-x="1063" 
d="M216 502l31 147h833l-31 -147h-833z" />
    <glyph glyph-name="period" unicode="." horiz-adv-x="394" 
d="M330 119q-11 -48 -52 -82.5t-90 -34.5q-47 0 -74.5 35t-17.5 82t52.5 82t89.5 35q49 0 75.5 -34.5t16.5 -82.5z" />
    <glyph glyph-name="slash" unicode="/" horiz-adv-x="735" 
d="M948 1317h161l-982 -1487l-158 2z" />
    <glyph glyph-name="zero" unicode="0" horiz-adv-x="1170" 
d="M1213 858v1q-6 -101 -38 -251q-26 -121 -76 -287q-48 -145 -188 -234.5t-320 -92.5q-177 3 -278 94.5t-90 235.5q16 150 45 284q27 129 69 251q51 141 190 231t317 95q178 -5 280 -94t89 -233zM963 359v-1q52 188 65 250q24 116 35 231q4 81 -63 136t-187 62
q-124 -7 -213.5 -61.5t-120.5 -136.5q-37 -104 -63 -231q-30 -141 -41 -251q-12 -90 52.5 -149t195.5 -66q132 9 219.5 67.5t120.5 149.5z" />
    <glyph glyph-name="one" unicode="1" horiz-adv-x="924" 
d="M815 1149h139l-244 -1149h-147l204 962q-17 -10 -437 -271l-63 118z" />
    <glyph glyph-name="two" unicode="2" horiz-adv-x="1146" 
d="M680 472q-38 -8 -74 -21t-81.5 -38.5t-83 -59.5t-71 -87t-52.5 -118h681l-31 -148h-832l25 120q21 99 68.5 181t101 133.5t121.5 91t119.5 58.5t104.5 32q37 8 57 12.5t58.5 15.5t62 21.5t55 27.5t51 36t37 46t24.5 58q11 90 -62.5 137.5t-202.5 47.5q-85 0 -182.5 -20.5
t-177.5 -52.5l-32 135q219 86 423 86q84 0 155 -17t130.5 -53.5t86.5 -103.5t11 -158q-12 -55 -37.5 -101.5t-54 -79t-72.5 -61t-76 -44.5t-82 -32t-73.5 -22t-65.5 -16h1q-3 0 -14.5 -2.5t-16.5 -3.5h1z" />
    <glyph glyph-name="three" unicode="3" horiz-adv-x="1115" 
d="M1046 395l-31 -148q-54 -254 -390 -258h-185q-324 6 -255 328h146q-22 -103 17.5 -141.5t138.5 -38.5h161q103 0 155 25t65 85l31 147q8 37 3.5 61t-44.5 36t-129 12h-115l32 147h118q117 2 155.5 20.5t53.5 89.5l22 105q19 86 -20.5 119t-139.5 33h-161
q-46 0 -78.5 -6.5t-65 -24.5t-55 -55.5t-34.5 -94.5h-146q69 322 392 328h184q56 0 101 -9t85.5 -29.5t62.5 -55t31 -85.5t-8 -120l-22 -107q-27 -120 -99 -181q49 -65 24 -182z" />
    <glyph glyph-name="four" unicode="4" horiz-adv-x="1112" 
d="M942 401h127l-32 -148h-127l-53 -253h-146l53 253h-634l28 129l743 767h200zM796 401l122 574q-70 -72 -260 -267.5t-297 -306.5h435z" />
    <glyph glyph-name="five" unicode="5" horiz-adv-x="1142" 
d="M1082 580h1q17 -55 3 -123l-45 -211q-54 -254 -391 -258h-185q-55 1 -100 12t-82.5 34.5t-58 61.5t-27 92.5t10.5 127.5h147q-21 -98 16.5 -138.5t139.5 -40.5h162q102 0 155 25.5t66 83.5l45 211q12 57 -30 82.5t-145 25.5h-475l125 589h796l-32 -148h-649l-62 -293h353
q220 -7 262 -133z" />
    <glyph glyph-name="six" unicode="6" horiz-adv-x="1126" 
d="M1079 609q39 -96 13 -240q-37 -151 -125.5 -251t-204.5 -116h-4q-115 -10 -210 -10q-120 0 -184 12h1q-110 15 -155 115.5t-19 249.5q26 107 81 191l389 593h160l-272 -414q62 9 159 9q123 0 210 -12q56 -7 98 -40.5t63 -86.5zM873 206v-1q53 63 76 164q20 100 -5 158
t-79 67q-72 12 -187 12q-84 0 -167 -12q-51 -7 -100 -60t-77 -164q-6 -36 -6.5 -66.5t3.5 -53t14 -40.5t21.5 -30t28.5 -21t33.5 -14t38 -7.5t39 -3.5t40.5 -1h32q105 0 188 10q24 0 54.5 18t52.5 45z" />
    <glyph glyph-name="seven" unicode="7" horiz-adv-x="1040" 
d="M1145 1153q23 0 27 -34t-3 -94l-723 -1025h-165l708 1005h-718l32 148h842z" />
    <glyph glyph-name="eight" unicode="8" horiz-adv-x="1131" 
d="M1070 513l-1 -1q8 -42 -7 -116l-23 -107q-63 -299 -396 -303h-187q-329 5 -269 303l23 107q26 126 101 185q-44 64 -20 182l23 104q66 293 391 301h185q57 -1 102.5 -11t84.5 -31.5t60.5 -56t29.5 -85t-8 -117.5l-23 -106q-28 -120 -98 -179q21 -27 32 -69zM461 867
l-22 -102q-12 -42 -1.5 -66t46.5 -33.5t119 -10.5h177q114 0 154 20.5t55 89.5l22 102q18 86 -21 119t-141 33h-162q-62 0 -102 -9t-75.5 -44t-48.5 -99zM666 133q44 0 75.5 5.5t64 21t54.5 48t32 81.5l28 131q5 50 -29.5 67.5t-146.5 19.5q-2 -1 -162 0q-89 0 -136 -10
q-40 -7 -58.5 -25.5t-30.5 -75.5l-23 -107q-19 -87 22 -121.5t143 -34.5h167z" />
    <glyph glyph-name="nine" unicode="9" horiz-adv-x="1136" 
d="M293 543q-39 96 -13 240q37 148 126.5 248t205.5 119q80 12 212 12q107 0 183 -12q107 -20 153 -119.5t20 -247.5q-25 -105 -80 -191l-388 -592h-160l269 412q-58 -7 -157 -7q-128 0 -210 11q-115 17 -161 127zM500 946h-1q-51 -57 -76 -162q-19 -101 3 -159.5t74 -66.5
q8 -1 15 -1.5t10 -0.5q107 -10 169 -10q80 0 166 12q55 11 104 71t75 154q4 41 6 72.5t-7 56t-18 41.5t-27 29t-33.5 19.5t-39 11.5t-42 5t-43.5 1h-41q-40 0 -82 -2t-75 -5t-37 -3h1q-57 -9 -101 -63z" />
    <glyph glyph-name="colon" unicode=":" horiz-adv-x="445" 
d="M482 748q-10 -48 -50.5 -82.5t-90.5 -34.5q-47 0 -75 35t-18 82t52.5 82t89.5 35q50 0 76.5 -34.5t15.5 -82.5zM374 238q-10 -48 -51 -82.5t-91 -34.5q-47 0 -74.5 35t-17.5 82t52.5 82t89.5 35q49 0 75.5 -34.5t16.5 -82.5z" />
    <glyph glyph-name="semicolon" unicode=";" horiz-adv-x="469" 
d="M102 -85l102 341h170l-133 -341h-139zM502 748q-10 -48 -50.5 -82.5t-90.5 -34.5q-47 0 -75 35t-18 82t52.5 82t89.5 35q50 0 76.5 -34.5t15.5 -82.5z" />
    <glyph glyph-name="less" unicode="&#x3c;" horiz-adv-x="790" 
d="M944 1147l-565 -573q215 -383 322 -574h-186l-291 519l23 110l511 518h186z" />
    <glyph glyph-name="equal" unicode="=" horiz-adv-x="1053" 
d="M200 354l31 148h799l-31 -148h-799zM263 650l31 148h799l-31 -148h-799z" />
    <glyph glyph-name="greater" unicode="&#x3e;" horiz-adv-x="800" 
d="M817 666l20 -37l-23 -110l-511 -519h-187l566 574q-49 86 -160.5 284.5t-162.5 288.5h187z" />
    <glyph glyph-name="question" unicode="?" horiz-adv-x="1039" 
d="M1137 937l-1 -2q-11 -54 -30 -98.5t-38.5 -75t-48 -55t-49.5 -37.5t-52 -25t-47.5 -16t-43.5 -10q-40 -9 -46 -10l2 1q-34 -7 -51 -12t-43.5 -17t-41 -27.5t-29.5 -43.5t-23 -66q-8 -35 -14 -123l-151 -23q5 94 16 146q11 53 30.5 96t40.5 72.5t52.5 53.5t55.5 37.5
t62 26t59.5 17.5t59.5 12h-1q70 15 89 23q64 27 94 153q12 91 -63.5 139t-201.5 48q-85 0 -183.5 -21t-178.5 -54l-30 137q219 86 423 86q63 0 120.5 -9.5t113 -33.5t93 -60.5t54 -95.5t2.5 -133zM601 119q-11 -48 -52 -82.5t-90 -34.5q-47 0 -74.5 35t-17.5 82t52.5 82
t89.5 35q49 0 75.5 -34.5t16.5 -82.5z" />
    <glyph glyph-name="at" unicode="@" horiz-adv-x="1555" 
d="M1029 1216q180 0 314.5 -90t191.5 -243.5t19 -334.5t-160.5 -334.5t-295.5 -243t-353 -89.5q-109 0 -204 34t-163 95t-113.5 144.5t-55.5 183t11 210.5q38 181 160 334.5t295 243.5t354 90zM1008 363l28 133q-114 35 -196 35q-72 0 -109 -26.5t-51 -91.5
q-11 -51 14 -74.5t90 -23.5q88 0 224 48zM1178 177h1q185 152 232 371q25 108 2 203.5t-76.5 167t-142 113t-195.5 41.5q-143 0 -279 -70.5t-232 -191.5t-126 -263t14.5 -263t150.5 -191t249 -70q79 0 165 25l35 164q-129 -41 -222 -41q-121 0 -181 62.5t-35 178.5
q28 132 117.5 197t215.5 65q83 0 196 -31l8 38q10 43 -25.5 68.5t-106.5 25.5q-115 0 -262 -82l-46 120q185 105 339 105q123 0 194.5 -62.5t47.5 -174.5l-119 -563q59 38 81 58z" />
    <glyph glyph-name="A" unicode="A" horiz-adv-x="1259" 
d="M1052 0l-56 268h-607q-14 -23 -76 -121t-92 -147h-163l734 1161h181l242 -1161h-163zM484 417h481q-23 113 -61.5 299t-56.5 275q-39 -62 -164 -259.5t-199 -314.5z" />
    <glyph glyph-name="B" unicode="B" horiz-adv-x="1249" 
d="M1193 370v-1q-11 -53 -25 -96t-32 -77.5t-36.5 -61.5t-44.5 -47t-50 -34.5t-59 -24t-64.5 -15.5t-74 -8.5t-81 -3.5t-90.5 -1h-41l-438 1l247 1162h450q147 0 202 -7q132 -17 175 -91t11 -223q-27 -131 -99 -197q52 -38 62.5 -109.5t-12.5 -165.5zM521 1016l-67 -316
q63 0 188 -0.5t188 -0.5q140 0 200 30q23 12 38 36.5t26 77.5q7 31 9 54t-2 41.5t-10.5 30.5t-24 21t-36.5 14t-53.5 8t-67.5 3.5t-87 0.5h-301zM1044 369v1q6 27 9 48t1 38.5t-4.5 30t-13 23t-20 17t-30.5 11.5t-38 7.5t-49.5 3.5t-59 1.5t-71.5 0.5h-345l-86 -402
q85 1 253.5 3.5t253.5 3.5q45 4 74 14t54 33t42 62.5t30 103.5z" />
    <glyph glyph-name="C" unicode="C" horiz-adv-x="1139" 
d="M650 137q171 0 413 82l20 -140q-269 -91 -465 -91q-205 0 -324.5 91.5t-110.5 239.5q18 165 45 292q34 154 72 255l-1 -1q53 150 210.5 240t366.5 90q195 0 425 -91l-80 -140q-205 82 -377 82q-157 0 -263 -57t-139 -146v1q-39 -109 -66 -233q-22 -102 -41 -270l-1 -3
q-1 -87 82 -144t234 -57z" />
    <glyph glyph-name="D" unicode="D" horiz-adv-x="1193" 
d="M1256 864v1q-4 -109 -36 -255q-14 -67 -33.5 -136.5t-32.5 -111t-14 -45.5q-60 -172 -200 -242.5t-401 -70.5q-162 0 -411 25l238 1123q260 25 423 25q263 0 371 -72t96 -241zM1022 417q4 19 22 85t27 108q25 115 34 234v-1q2 37 -3.5 63t-25.5 50.5t-57.5 39
t-100.5 23.5t-152 9q-131 0 -278 -11l-181 -852q147 -12 264 -12q145 0 231.5 20.5t128.5 58.5t66 106l8 21q4 12 8.5 29.5t8.5 28.5z" />
    <glyph glyph-name="E" unicode="E" horiz-adv-x="1093" 
d="M1198 1015h-711l-76 -360h649l-32 -148h-649l-76 -359h711l-31 -148h-861l247 1163h861z" />
    <glyph glyph-name="F" unicode="F" horiz-adv-x="1093" 
d="M1196 1015h-711l-76 -360h651l-32 -148h-651l-107 -507h-148l247 1163h859z" />
    <glyph glyph-name="G" unicode="G" horiz-adv-x="1188" 
d="M1170 482l-89 -416q-261 -89 -457 -89q-209 0 -329 90.5t-107 241.5l1 2q10 129 44 289q29 135 71 256q39 97 123.5 172t202.5 116.5t251 42.5q194 -2 426 -92l-80 -139q-206 81 -378 81q-156 0 -263 -57t-137 -146q-37 -97 -67 -234q-31 -150 -41 -266v-6
q-8 -88 73.5 -145t240.5 -57q129 0 299 47l66 309h150z" />
    <glyph glyph-name="H" unicode="H" horiz-adv-x="1211" 
d="M1186 1161h148l-246 -1161h-148l107 506h-668l-107 -506h-149l246 1161h149l-107 -506h668z" />
    <glyph glyph-name="I" unicode="I" horiz-adv-x="445" 
d="M404 1161h149l-246 -1161h-149z" />
    <glyph glyph-name="J" unicode="J" horiz-adv-x="972" 
d="M1105 1161l-167 -787q-46 -217 -150 -306t-299 -89q-141 0 -410 52l57 146q286 -54 378 -54q126 0 185 53t90 198l136 639h-290l32 150z" />
    <glyph glyph-name="K" unicode="K" horiz-adv-x="1179" 
d="M1086 657q45 -38 62 -94t3 -121l-93 -442h-150l93 441q12 62 -36 102.5t-157 40.5q-186 0 -439 -125l-97 -459h-149l246 1160h149l-113 -532q140 59 283 89q201 31 305 131t143 282l6 32h148l-6 -32q-61 -286 -260 -432q32 -13 62 -41z" />
    <glyph glyph-name="L" unicode="L" horiz-adv-x="1076" 
d="M301 150h708l-31 -150h-856l247 1164h148z" />
    <glyph glyph-name="M" unicode="M" horiz-adv-x="1327" 
d="M1314 1164h132l-247 -1164h-147l194 917q-47 -43 -222 -204.5t-263 -243.5l-293 449l-195 -918h-148l247 1164h133l305 -466q85 79 255 236t249 230z" />
    <glyph glyph-name="N" unicode="N" horiz-adv-x="1210" 
d="M1334 1164l-247 -1164h-152l29 137q-101 158 -268.5 420t-230.5 360l-194 -917h-148l247 1164h132l510 -798l170 798h152z" />
    <glyph glyph-name="O" unicode="O" horiz-adv-x="1242" 
d="M1308 861q-8 -113 -38 -258q-26 -123 -80 -293q-52 -150 -209 -240t-366 -90q-205 0 -325 89t-107 243q7 118 44 291q29 140 73 258l-1 -1q54 151 210 240t363 89q211 0 327.5 -90t108.5 -238zM1047 331q4 14 7 22q2 8 11.5 39t17 57t17.5 65.5t18 75.5q28 134 36 247
q-2 86 -85.5 144t-228.5 58q-153 0 -260.5 -57.5t-139.5 -144.5q-40 -114 -65 -234q-24 -112 -42 -270v-3q-3 -86 78 -144t236 -58q156 0 262 58t138 145z" />
    <glyph glyph-name="P" unicode="P" horiz-adv-x="1122" 
d="M1215 990v2q15 -72 -12 -200q-13 -63 -31 -112t-45 -84t-50 -60t-63.5 -40.5t-68.5 -24.5t-82 -13t-85.5 -4.5t-96.5 -0.5h-7h-306l-96 -453h-150l247 1163h423h70t64.5 -1.5t64 -4.5t56 -9t52.5 -14.5t41.5 -21.5t36 -30t23.5 -40.5t15 -51.5zM1054 793v1
q9 41 12.5 68.5t0.5 52t-10 39t-27 27t-42.5 18t-65 9.5t-85 5t-111.5 1h-239l-88 -412h306q137 0 186 7q37 5 57.5 11.5t42.5 25t36 54t27 93.5z" />
    <glyph glyph-name="Q" unicode="Q" horiz-adv-x="1245" 
d="M1309 858v-1q-9 -123 -38 -256q-9 -43 -19.5 -86.5t-20.5 -78.5t-17.5 -60t-14.5 -46.5t-7 -22.5q-49 -136 -182 -222t-317 -103q-7 -46 14 -75t93 -29q58 0 178 26l4 -147q-137 -28 -214 -28q-74 0 -124 18.5t-72.5 44.5t-30.5 64t-6 65t9 61q-180 17 -276 103.5
t-86 224.5q19 162 46 291q34 157 71 257q56 150 212.5 239.5t362.5 89.5q205 0 324 -89.5t111 -239.5zM1049 333q36 94 73 268q26 121 34 233q-1 87 -82 145.5t-232 58.5t-257.5 -58t-142.5 -145q-42 -118 -66 -234q-24 -113 -42 -269v-5q-6 -86 75 -143t239 -58
q155 1 260.5 58t139.5 143z" />
    <glyph glyph-name="R" unicode="R" horiz-adv-x="1123" 
d="M957 363v1q41 -195 118 -366h-177q-85 223 -116 455q-70 -2 -116 -2h-299l-96 -452h-149l248 1164h381q155 0 237 -9h-1q155 -17 200.5 -101t8.5 -262q-31 -144 -93 -221t-167 -99q7 -47 13 -72l1 1q6 -31 7 -37zM698 601q122 0 186.5 7t90.5 26h-1q49 36 75 159
q7 33 10.5 58t2 46.5t-4.5 36.5t-15 28t-23 21t-36 14t-46 9t-59.5 4.5t-71.5 2t-87 0.5h-232l-88 -412h299z" />
    <glyph glyph-name="S" unicode="S" horiz-adv-x="1081" 
d="M1045 321l-1 -1q-18 -72 -55.5 -129t-85.5 -94t-108 -61.5t-120 -34.5t-124 -10q-110 0 -227.5 31t-217.5 84l90 134q194 -98 382 -98q122 0 206.5 44.5t112.5 140.5q6 39 -8 69.5t-34.5 48t-62.5 32t-66 20t-71 13.5q-15 3 -22 4q-10 2 -35 6q-150 26 -222 71
q-137 84 -99 261q20 93 75 161t132 104.5t156.5 53.5t164.5 17q211 0 390 -88l-89 -135q-65 33 -155.5 53.5t-177.5 20.5q-139 0 -232.5 -47t-115.5 -142q-8 -37 3.5 -66t30 -46t56 -31.5t61.5 -20.5t68 -15q44 -7 93 -19l-1 1q140 -25 206 -64q140 -83 104 -264z" />
    <glyph glyph-name="T" unicode="T" horiz-adv-x="1008" 
d="M280 1164h945l-32 -149h-396l-215 -1015h-149l215 1015h-400z" />
    <glyph glyph-name="U" unicode="U" horiz-adv-x="1211" 
d="M1341 1161l-108 -511q-46 -214 -78 -314q-68 -196 -196.5 -278.5t-361.5 -82.5q-101 0 -173.5 16t-120 39t-71.5 73t-34 93.5t-1.5 127.5t20 147t35.5 178l109 512h149l-109 -512q-46 -220 -52 -294q-5 -66 2.5 -105.5t37.5 -69.5t88.5 -42t154.5 -12q61 0 107.5 5
t85.5 19t66.5 30t52 48.5t41 64.5t33.5 87t29.5 106.5t29.5 132.5l115 542h149z" />
    <glyph glyph-name="V" unicode="V" horiz-adv-x="1192" 
d="M1267 1163h162l-743 -1163h-182l-249 1163h162l215 -993q123 194 364.5 571t270.5 422z" />
    <glyph glyph-name="W" unicode="W" horiz-adv-x="1404" 
d="M1363 1163h150l-367 -1163h-130l-234 425q-181 -185 -414 -425h-136l127 1163h149l-102 -929q332 339 428 438l238 -430q30 94 133.5 421.5t157.5 499.5z" />
    <glyph glyph-name="X" unicode="X" horiz-adv-x="1228" 
d="M853 582l327 -582h-189l-275 489q-81 -83 -242 -247.5t-237 -241.5h-190l574 581q-58 102 -174 309.5t-153 272.5h190l272 -489q312 318 482 489h189z" />
    <glyph glyph-name="Y" unicode="Y" horiz-adv-x="1195" 
d="M1228 1163h189l-626 -633l-112 -530h-149l111 526q-55 99 -178 318t-178 319h188l273 -489q312 318 482 489z" />
    <glyph glyph-name="Z" unicode="Z" horiz-adv-x="1167" 
d="M342 148h752l-31 -148h-902q-39 0 -26 140l933 874h-745l31 148h903q37 0 24 -131z" />
    <glyph glyph-name="bracketleft" unicode="[" horiz-adv-x="472" 
d="M711 1183h-185l-258 -1215h185l-32 -148h-333l322 1512h333z" />
    <glyph glyph-name="backslash" unicode="\" horiz-adv-x="765" 
d="M216 1317h161l347 -1487h-159z" />
    <glyph glyph-name="bracketright" unicode="]" horiz-adv-x="486" 
d="M35 -32h185l258 1215h-185l31 148h333l-321 -1512h-333z" />
    <glyph glyph-name="asciicircum" unicode="^" horiz-adv-x="1015" 
d="M844 1229l260 -467h-186l-184 326q-104 -107 -323 -326h-186l461 467h158z" />
    <glyph glyph-name="underscore" unicode="_" horiz-adv-x="1135" 
d="M39 -148l32 148h1014l-32 -148h-1014z" />
    <glyph glyph-name="grave" unicode="`" horiz-adv-x="465" 
d="M448 811l-119 425h192l85 -425h-158z" />
    <glyph glyph-name="a" unicode="a" horiz-adv-x="1029" 
d="M1049 671l-142 -671h-99q-26 0 -28 64q-196 -67 -338 -67q-154 0 -230 80.5t-46 222.5q37 172 149 255t279 83q124 0 291 -49l17 82q15 70 -37 112.5t-155 42.5q-172 0 -366 -110l-52 122q237 135 443 135q156 0 250 -78.5t64 -223.5zM333 186q38 -43 140 -43
q134 0 333 75l46 217q-176 57 -289 57q-108 0 -168.5 -45.5t-81.5 -142.5q-17 -77 20 -118z" />
    <glyph glyph-name="b" unicode="b" horiz-adv-x="1032" 
d="M1070 701l-1 -1q-6 -100 -28 -201q-11 -53 -27 -109t-26 -88t-10 -33q-48 -135 -166.5 -201.5t-262.5 -66.5q-143 0 -275 59q-23 -60 -52 -60h-99l271 1275h147l-78 -365q146 60 276 60q150 0 243 -76.5t88 -192.5zM836 290q10 33 19 59q27 96 39 150q19 90 25 179l-1 -1
q4 58 -53.5 102t-157.5 44q-127 0 -279 -79l-112 -526q123 -71 264 -71q93 0 161 36t95 107z" />
    <glyph glyph-name="c" unicode="c" horiz-adv-x="950" 
d="M565 146q131 0 320 64l21 -136q-222 -75 -373 -75q-167 0 -263.5 73.5t-86.5 197.5q6 92 35 227q26 118 56 201q44 123 171 196t294 73q155 0 341 -75l-79 -136q-162 64 -293 64q-115 0 -192.5 -41t-100.5 -103q-27 -71 -50 -179q-15 -73 -31 -187v-7q-6 -68 51.5 -112.5
t179.5 -44.5z" />
    <glyph glyph-name="d" unicode="d" horiz-adv-x="1035" 
d="M1035 1274h147l-270 -1274h-99q-26 0 -28 60q-158 -60 -299 -60q-69 0 -126.5 16t-102.5 47.5t-68 84.5t-17 123q6 97 34 227q26 119 57 202v-1q42 116 168 193t277 77q129 0 250 -61zM811 219l112 525q-116 78 -246 78q-102 0 -177.5 -43.5t-96.5 -101.5
q-31 -85 -51 -179q-18 -85 -29 -187v-5q-3 -159 194 -159q139 0 294 72z" />
    <glyph glyph-name="e" unicode="e" horiz-adv-x="1030" 
d="M1033 507l-25 -119h-663q-6 -29 -9.5 -47.5t-4.5 -26.5t-2 -10q-6 -68 53 -113t181 -45q129 0 321 65l21 -138q-219 -73 -373 -73q-166 0 -262.5 73.5t-87.5 197.5q6 90 35 227q27 124 56 202q46 118 168 190.5t279 76.5h9q157 -3 248 -75t84 -193q-5 -84 -28 -192z
M374 535h516q15 76 22 143l-1 -1q3 61 -53 100.5t-165 41.5q-112 -2 -184 -42t-94 -99q-20 -53 -41 -143z" />
    <glyph glyph-name="f" unicode="f" horiz-adv-x="561" 
d="M563 1086v-1q-26 -32 -45 -123l-3 -12h230l-31 -147h-230l-217 -1021q-35 -112 -72 -112l-99 -1l241 1134h-114l31 147h114l3 12q9 40 18 68.5t26.5 69t42.5 68.5t60.5 54.5t86.5 40t115 13.5q48 0 137 -14l-54 -146q-73 13 -115 13q-92 0 -125 -43z" />
    <glyph glyph-name="g" unicode="g" horiz-adv-x="1036" 
d="M1019 967h99l-200 -939q-10 -47 -23.5 -87t-46.5 -92.5t-77.5 -88.5t-121 -61.5t-172.5 -25.5q-126 0 -305 48l64 142q167 -44 272 -44q61 0 107 14t72 33.5t44.5 51.5t25.5 54t14 56l7 30q-146 -60 -275 -60q-151 0 -244.5 76t-86.5 193q4 85 29 202q27 125 63 228
q32 92 101.5 154.5t151.5 89t175 26.5q145 0 275 -59q23 59 52 59zM813 224l112 525q-124 72 -264 72q-96 0 -163.5 -36t-91.5 -106v1q-40 -130 -57 -211q-20 -97 -26 -179q-5 -58 52 -101.5t159 -43.5q124 0 279 79z" />
    <glyph glyph-name="h" unicode="h" horiz-adv-x="1057" 
d="M1069 699q-4 -80 -30 -201l-105 -498h-147l105 498q22 106 26 178q3 58 -54.5 102t-157.5 44q-128 0 -280 -79l-157 -743h-146l270 1274h146l-77 -365q145 60 275 60q150 0 245 -77t87 -193z" />
    <glyph glyph-name="i" unicode="i" horiz-adv-x="387" 
d="M546 1166q-8 -40 -43 -69t-76 -29q-40 0 -63 28.5t-15 69.5q9 41 44 70t75 29q41 0 64 -29.5t14 -69.5zM341 970h99q35 0 24 -112l-182 -858h-147z" />
    <glyph glyph-name="j" unicode="j" horiz-adv-x="387" 
d="M425 1065q-41 0 -63.5 29t-13.5 69q8 41 43.5 70t75.5 29t63 -29t15 -70q-9 -40 -44 -69t-76 -29zM438 967q35 0 24 -112l-183 -861q-6 -31 -12 -52.5t-19 -56.5t-28.5 -60t-42.5 -54t-60 -47t-80.5 -30t-104.5 -12t-137 14l54 146q73 -13 114 -13q48 0 79.5 11.5
t49.5 41t23.5 46t14.5 59.5q1 5 2 7l207 973h99z" />
    <glyph glyph-name="k" unicode="k" horiz-adv-x="1065" 
d="M983 652q80 -72 56 -189l-98 -463h-146l98 462q8 47 -29 77.5t-123 30.5q-156 0 -375 -110l-97 -460h-146l270 1274h146l-138 -650q164 72 291 87q141 13 210 68t99 194h146q-45 -219 -174 -313q2 -1 5.5 -3.5t4.5 -4.5z" />
    <glyph glyph-name="l" unicode="l" horiz-adv-x="396" 
d="M405 1275h99q35 0 24 -112l-247 -1163h-147z" />
    <glyph glyph-name="m" unicode="m" horiz-adv-x="1440" 
d="M1443 890l-1 1q33 -65 11 -169l-153 -722h-146l153 722q10 48 -12 75.5t-68 27.5q-97 0 -298 -106q-21 -107 -152 -720h-147l154 723q10 47 -11 74.5t-67 27.5q-92 0 -276 -92l-155 -732h-147l205 967h99q30 0 28 -72q168 75 277 75q64 0 117 -28t73 -73q215 102 331 102
q58 0 112 -22t73 -59z" />
    <glyph glyph-name="n" unicode="n" horiz-adv-x="1030" 
d="M1062 727l-154 -727h-146l154 727q10 47 -24 76.5t-113 29.5q-146 0 -365 -110l-153 -723h-146l205 967h99q29 0 26 -80q210 93 365 93q136 0 206.5 -69.5t45.5 -183.5z" />
    <glyph glyph-name="o" unicode="o" horiz-adv-x="1063" 
d="M1051 480q-23 -107 -59 -209l-2 -4q-48 -122 -174.5 -197t-287.5 -75h-18q-156 8 -244.5 80.5t-80.5 190.5q0 8 2 28q10 104 34 216q25 117 58 206q0 1 1 4l2 4q44 118 163 189.5t278 81.5q170 0 270 -71.5t95 -197.5l-1 -9q-12 -122 -36 -237zM847 293q32 88 53 187
q22 106 32 197v3.5t1 3.5q4 64 -53 108.5t-169 53.5q-114 -4 -188 -44.5t-99 -103.5v1q-35 -99 -53 -189q-26 -123 -31 -201q-6 -65 47 -111.5t164 -53.5h9q112 4 187.5 45t99.5 104z" />
    <glyph glyph-name="p" unicode="p" horiz-adv-x="1035" 
d="M1068 698l-1 -2q-6 -97 -34 -227q-24 -111 -57 -202q-41 -116 -167.5 -192.5t-277.5 -76.5q-129 0 -249 60l-83 -389h-147l276 1298h100q27 0 27 -59q155 59 299 59q93 0 164.5 -26.5t114.5 -89t35 -153.5zM836 291q29 73 51 178q17 79 28 177q0 10 1 17
q9 77 -42.5 117.5t-150.5 40.5q-132 0 -294 -72l-112 -525q121 -79 245 -79q101 0 177 44t97 102z" />
    <glyph glyph-name="q" unicode="q" horiz-adv-x="1035" 
d="M200 469q23 110 63 229q30 91 100 153.5t153 89t175 26.5q145 0 275 -59q25 59 51 59h100l-276 -1298h-147l83 389q-146 -60 -275 -60q-150 0 -244 76.5t-87 192.5q6 94 29 202zM321 291q-3 -59 54 -102.5t158 -43.5q124 0 279 79l112 525q-126 72 -264 72
q-103 0 -176 -45.5t-90 -129.5q-28 -83 -48 -177q-21 -98 -25 -178z" />
    <glyph glyph-name="r" unicode="r" horiz-adv-x="596" 
d="M755 978l-23 -108q-9 -28 -64 -41q-113 -12 -248 -94l-156 -735h-147l205 967h99q31 0 27 -65q155 76 307 76z" />
    <glyph glyph-name="s" unicode="s" horiz-adv-x="880" 
d="M861 272l-2 -4q-19 -75 -62 -130.5t-100.5 -86t-119.5 -45t-130 -14.5q-181 0 -366 95l89 133q161 -82 308 -82q94 0 157.5 35.5t79.5 101.5q9 14 3 28t-4.5 23.5t-12 19.5t-19 16t-25 13t-30.5 11t-35 9.5t-38.5 8.5t-41.5 8q-6 1 -23 4q-43 7 -71 13t-78 26.5t-77 47.5
t-43 78t-2 116q20 79 67 136t110.5 87t128 43.5t134.5 14.5q172 -2 323 -73l-90 -135q-122 61 -264 61q-106 0 -176 -34t-87 -104q-6 -28 5 -50t28 -34.5t49 -23.5t52 -15.5t54 -10.5q15 -3 22 -4q9 -2 32 -6q21 -4 33 -6.5t36.5 -8t39.5 -11.5l37.5 -15t36.5 -20.5
t31 -26.5t26 -34t16 -42t6.5 -51.5t-7.5 -61.5z" />
    <glyph glyph-name="t" unicode="t" horiz-adv-x="658" 
d="M609 160l-9 -146q-85 -14 -142 -14t-100 12.5t-68 30t-39.5 47t-20 54.5t-3.5 61t5.5 57t10.5 52l104 488h-116l31 147h116l69 325h146l-69 -325h230l-31 -147h-230l-104 -488q-17 -80 -10 -108q15 -58 110 -59q41 0 120 13z" />
    <glyph glyph-name="u" unicode="u" horiz-adv-x="1039" 
d="M975 967h146l-205 -967h-98q-30 0 -27 80q-207 -91 -365 -93q-137 2 -207 70.5t-45 182.5l154 727h146l-154 -727q-10 -47 24 -76.5t113 -29.5q148 0 364 110z" />
    <glyph glyph-name="v" unicode="v" horiz-adv-x="977" 
d="M1016 969h159l-623 -969h-136l-206 969h123q26 0 57 -91l141 -669q91 144 263.5 413t221.5 347z" />
    <glyph glyph-name="w" unicode="w" horiz-adv-x="1328" 
d="M1244 244q-23 -110 -135.5 -183.5t-236.5 -73.5q-120 0 -200 73q-112 -73 -231 -73q-124 0 -205 73.5t-58 183.5l154 722h146l-154 -722q-9 -41 34.5 -75.5t113.5 -34.5q79 0 154 55l111 525h146l-111 -523q32 -31 61.5 -44t69.5 -13q70 0 127.5 34.5t66.5 75.5l154 722
h147z" />
    <glyph glyph-name="x" unicode="x" horiz-adv-x="1068" 
d="M738 485l309 -485h-192l-239 371q-66 -62 -198.5 -187t-195.5 -184h-192l514 485q-141 220 -308 485h193l236 -371q59 55 192.5 180.5t202.5 190.5h193z" />
    <glyph glyph-name="y" unicode="y" horiz-adv-x="1049" 
d="M985 968h147l-201 -940q-73 -354 -441 -354q-128 0 -307 48l67 141q164 -42 271 -42q72 0 122.5 17t78 49t40 60.5t21.5 68.5l9 42q-144 -59 -276 -59q-151 0 -244 75t-87 193q6 94 29 202l107 499h146l-106 -499q-20 -95 -26 -179q-2 -58 55 -101.5t157 -43.5
q125 0 280 79z" />
    <glyph glyph-name="z" unicode="z" horiz-adv-x="984" 
d="M1048 970q36 0 24 -112l-5 -21l-733 -690h587l-31 -147h-742q-35 0 -24 112l5 23l733 689h-586l31 146h741z" />
    <glyph glyph-name="braceleft" unicode="{" horiz-adv-x="568" 
d="M481 759q-26 -121 -88 -184q35 -66 10 -182l-58 -272q-19 -89 29.5 -120.5t160.5 -31.5l-32 -148q-51 0 -93 5.5t-82.5 19t-68 35.5t-48 55.5t-22 79t8.5 105.5l58 272q9 43 6 74q-2 20 -25 27.5t-87 7.5l32 148q85 0 102 10q32 14 50 99l57 270q16 73 49.5 128t74.5 87
t96 52t104.5 26.5t108.5 7.5l-31 -149q-54 0 -90 -5t-72.5 -20t-59.5 -46.5t-33 -80.5z" />
    <glyph glyph-name="bar" unicode="|" horiz-adv-x="377" 
d="M404 1321h148l-317 -1491h-148z" />
    <glyph glyph-name="braceright" unicode="}" horiz-adv-x="565" 
d="M342 392q25 121 88 183q-35 66 -10 183l57 271q19 89 -29.5 121t-160.5 32l31 148q51 0 93.5 -5.5t83 -19t68 -36t48 -56t22 -79t-8.5 -105.5l-57 -271q-10 -47 -6 -74q1 -20 24 -27.5t87 -7.5l-31 -148q-86 0 -102 -10q-33 -15 -50 -99l-58 -271q-15 -73 -49 -127.5
t-75 -86.5t-96 -52t-104.5 -26.5t-108.5 -7.5l31 149q43 0 73.5 2.5t63 11.5t54 25t39 44.5t25.5 67.5z" />
    <glyph glyph-name="asciitilde" unicode="~" horiz-adv-x="1095" 
d="M974 638l148 -41q-38 -76 -112.5 -139t-170.5 -63q-106 0 -231 88q-84 60 -148 60q-62 0 -102 -80l-144 40q20 45 55 88t96 78t129 35q110 0 230 -87l-1 1q91 -62 151 -62q57 0 100 82z" />
    <glyph glyph-name="thothannobasethai" horiz-adv-x="925" 
d="M966 930v1q-25 -25 -54 -44q69 -102 40 -237l-60 -281q-31 -148 -161 -254t-287 -117l-116 -2l-124 460h159l86 -313q108 7 192.5 71.5t104.5 154.5l60 281q20 93 -40.5 160t-166.5 67h-65q-69 0 -139.5 -38.5t-127.5 -102.5l-77 114q77 80 177.5 126.5t197.5 46.5h65
q98 0 177 -44q30 15 62.5 50t35.5 51h146q-19 -90 -85 -150z" />
    <glyph glyph-name="thothannobasethai" unicode="&#xf700;" horiz-adv-x="925" 
d="M966 930v1q-25 -25 -54 -44q69 -102 40 -237l-60 -281q-31 -148 -161 -254t-287 -117l-116 -2l-124 460h159l86 -313q108 7 192.5 71.5t104.5 154.5l60 281q20 93 -40.5 160t-166.5 67h-65q-69 0 -139.5 -38.5t-127.5 -102.5l-77 114q77 80 177.5 126.5t197.5 46.5h65
q98 0 177 -44q30 15 62.5 50t35.5 51h146q-19 -90 -85 -150z" />
    <glyph glyph-name="thothannobasethai" unicode="&#x20ac;" horiz-adv-x="925" 
d="M966 930v1q-25 -25 -54 -44q69 -102 40 -237l-60 -281q-31 -148 -161 -254t-287 -117l-116 -2l-124 460h159l86 -313q108 7 192.5 71.5t104.5 154.5l60 281q20 93 -40.5 160t-166.5 67h-65q-69 0 -139.5 -38.5t-127.5 -102.5l-77 114q77 80 177.5 126.5t197.5 46.5h65
q98 0 177 -44q30 15 62.5 50t35.5 51h146q-19 -90 -85 -150z" />
    <glyph glyph-name="saraileftthai" 
d="M-129 1291q48 -6 70.5 -17.5t18.5 -30.5l-21 -98h-628l21 98q7 35 109 48h430z" />
    <glyph glyph-name="saraileftthai" unicode="&#xf701;" 
d="M-129 1291q48 -6 70.5 -17.5t18.5 -30.5l-21 -98h-628l21 98q7 35 109 48h430z" />
    <glyph glyph-name="saraiileftthai" 
d="M-114 1363h99l-46 -218h-628l21 98q7 35 106 48h389q28 72 59 72z" />
    <glyph glyph-name="saraiileftthai" unicode="&#xf702;" 
d="M-114 1363h99l-46 -218h-628l21 98q7 35 106 48h389q28 72 59 72z" />
    <glyph glyph-name="saraiileftthai" unicode="&#x201a;" 
d="M-114 1363h99l-46 -218h-628l21 98q7 35 106 48h389q28 72 59 72z" />
    <glyph glyph-name="saraueleftthai" 
d="M-122 1394q51 0 79.5 -36.5t17.5 -88.5q-10 -51 -54.5 -87.5t-95.5 -36.5h-514l21 98q7 35 109 48h292q17 44 58 73.5t87 29.5z" />
    <glyph glyph-name="saraueleftthai" unicode="&#xf703;" 
d="M-122 1394q51 0 79.5 -36.5t17.5 -88.5q-10 -51 -54.5 -87.5t-95.5 -36.5h-514l21 98q7 35 109 48h292q17 44 58 73.5t87 29.5z" />
    <glyph glyph-name="saraueleftthai" unicode="&#x192;" 
d="M-122 1394q51 0 79.5 -36.5t17.5 -88.5q-10 -51 -54.5 -87.5t-95.5 -36.5h-514l21 98q7 35 109 48h292q17 44 58 73.5t87 29.5z" />
    <glyph glyph-name="saraueeleftthai" 
d="M-14 1363l-46 -218h-629l21 98q6 34 107 48h166q30 72 58 72h99l-15 -72h81q28 72 59 72h99z" />
    <glyph glyph-name="saraueeleftthai" unicode="&#xf704;" 
d="M-14 1363l-46 -218h-629l21 98q6 34 107 48h166q30 72 58 72h99l-15 -72h81q28 72 59 72h99z" />
    <glyph glyph-name="saraueeleftthai" unicode="&#x201e;" 
d="M-14 1363l-46 -218h-629l21 98q6 34 107 48h166q30 72 58 72h99l-15 -72h81q28 72 59 72h99z" />
    <glyph glyph-name="ellipsis" unicode="&#x85;" horiz-adv-x="1334" 
d="M391 111q-9 -42 -45 -72t-78 -30t-65 30t-14 72q9 43 45 72.5t78 29.5q43 0 65.5 -29.5t13.5 -72.5zM789 111q-9 -42 -45 -72t-78 -30t-65 30t-14 72q9 43 45 72.5t78 29.5q43 0 65.5 -29.5t13.5 -72.5zM1187 111q-9 -42 -45 -72t-78 -30t-65.5 30t-14.5 72
q9 43 45.5 72.5t78.5 29.5q43 0 65.5 -29.5t13.5 -72.5z" />
    <glyph glyph-name="ellipsis" unicode="&#x2026;" horiz-adv-x="1334" 
d="M391 111q-9 -42 -45 -72t-78 -30t-65 30t-14 72q9 43 45 72.5t78 29.5q43 0 65.5 -29.5t13.5 -72.5zM789 111q-9 -42 -45 -72t-78 -30t-65 30t-14 72q9 43 45 72.5t78 29.5q43 0 65.5 -29.5t13.5 -72.5zM1187 111q-9 -42 -45 -72t-78 -30t-65.5 30t-14.5 72
q9 43 45.5 72.5t78.5 29.5q43 0 65.5 -29.5t13.5 -72.5z" />
    <glyph glyph-name="maieklowleftthai" 
d="M-52 1517l-71 -332h-147l71 332h147z" />
    <glyph glyph-name="maieklowleftthai" unicode="&#xf705;" 
d="M-52 1517l-71 -332h-147l71 332h147z" />
    <glyph glyph-name="maieklowleftthai" unicode="&#x2020;" 
d="M-52 1517l-71 -332h-147l71 332h147z" />
    <glyph glyph-name="maitholowleftthai" 
d="M-371 1351h341l-31 -146h-486l23 108q1 4 3.5 11.5l3.5 10.5h-50l31 146h192z" />
    <glyph glyph-name="maitholowleftthai" unicode="&#xf706;" 
d="M-371 1351h341l-31 -146h-486l23 108q1 4 3.5 11.5l3.5 10.5h-50l31 146h192z" />
    <glyph glyph-name="maitholowleftthai" unicode="&#x2021;" 
d="M-371 1351h341l-31 -146h-486l23 108q1 4 3.5 11.5l3.5 10.5h-50l31 146h192z" />
    <glyph glyph-name="maitrilowleftthai" 
d="M69 1525l-26 -119q-15 -73 -74 -131.5t-150 -89.5h-70q-33 0 -25 92l5 23q11 51 -25 78q-19 -7 -57.5 -22t-49.5 -19l-89 41q-49 -31 -58 -78l-25 -115h-94q-15 0 -21.5 25.5t-2.5 69.5l4 20q16 76 82.5 143t140.5 84l94 -39q70 29 106 43q23 -9 24 -10
q53 -24 83.5 -69.5t30.5 -102.5q31 24 37 57l26 119h134z" />
    <glyph glyph-name="maitrilowleftthai" unicode="&#xf707;" 
d="M69 1525l-26 -119q-15 -73 -74 -131.5t-150 -89.5h-70q-33 0 -25 92l5 23q11 51 -25 78q-19 -7 -57.5 -22t-49.5 -19l-89 41q-49 -31 -58 -78l-25 -115h-94q-15 0 -21.5 25.5t-2.5 69.5l4 20q16 76 82.5 143t140.5 84l94 -39q70 29 106 43q23 -9 24 -10
q53 -24 83.5 -69.5t30.5 -102.5q31 24 37 57l26 119h134z" />
    <glyph glyph-name="maitrilowleftthai" unicode="&#x2c6;" 
d="M69 1525l-26 -119q-15 -73 -74 -131.5t-150 -89.5h-70q-33 0 -25 92l5 23q11 51 -25 78q-19 -7 -57.5 -22t-49.5 -19l-89 41q-49 -31 -58 -78l-25 -115h-94q-15 0 -21.5 25.5t-2.5 69.5l4 20q16 76 82.5 143t140.5 84l94 -39q70 29 106 43q23 -9 24 -10
q53 -24 83.5 -69.5t30.5 -102.5q31 24 37 57l26 119h134z" />
    <glyph glyph-name="maichattawalowleftthai" 
d="M-16 1424l-31 -147h-102l-22 -101h-147l22 101h-102l31 147h102l22 102h109q31 0 21 -81l-5 -21h102z" />
    <glyph glyph-name="maichattawalowleftthai" unicode="&#xf708;" 
d="M-16 1424l-31 -147h-102l-22 -101h-147l22 101h-102l31 147h102l22 102h109q31 0 21 -81l-5 -21h102z" />
    <glyph glyph-name="maichattawalowleftthai" unicode="&#x2030;" 
d="M-16 1424l-31 -147h-102l-22 -101h-147l22 101h-102l31 147h102l22 102h109q31 0 21 -81l-5 -21h102z" />
    <glyph glyph-name="thanthakhatlowleftthai" 
d="M250 1301l-418 -35q-11 -41 -24 -60.5t-32 -19.5h-108l46 218l556 45z" />
    <glyph glyph-name="thanthakhatlowleftthai" unicode="&#xf709;" 
d="M250 1301l-418 -35q-11 -41 -24 -60.5t-32 -19.5h-108l46 218l556 45z" />
    <glyph glyph-name="thanthakhatlowleftthai" unicode="&#x160;" 
d="M250 1301l-418 -35q-11 -41 -24 -60.5t-32 -19.5h-108l46 218l556 45z" />
    <glyph glyph-name="maieklowrightthai" 
d="M213 1517l-71 -332h-146l70 332h147z" />
    <glyph glyph-name="maieklowrightthai" unicode="&#xf70a;" 
d="M213 1517l-71 -332h-146l70 332h147z" />
    <glyph glyph-name="maieklowrightthai" unicode="&#x2039;" 
d="M213 1517l-71 -332h-146l70 332h147z" />
    <glyph glyph-name="maitholowrightthai" 
d="M-182 1364h439l-31 -148h-585l23 110q1 5 3.5 13t3.5 10q-10 0 -27.5 -0.5t-22.5 -0.5l31 147h194z" />
    <glyph glyph-name="maitholowrightthai" unicode="&#xf70b;" 
d="M-182 1364h439l-31 -148h-585l23 110q1 5 3.5 13t3.5 10q-10 0 -27.5 -0.5t-22.5 -0.5l31 147h194z" />
    <glyph glyph-name="maitholowrightthai" unicode="&#x152;" 
d="M-182 1364h439l-31 -148h-585l23 110q1 5 3.5 13t3.5 10q-10 0 -27.5 -0.5t-22.5 -0.5l31 147h194z" />
    <glyph glyph-name="maitrilowrightthai" 
d="M277 1525l-26 -119q-15 -73 -74.5 -131.5t-150.5 -89.5h-68q-34 0 -26 92l5 23q11 51 -25 78q-19 -7 -57.5 -22t-49.5 -19l-89 41q-49 -31 -58 -78l-25 -115h-94q-15 0 -21.5 25.5t-2.5 69.5l4 20q16 76 82.5 143t140.5 84l94 -39q70 29 106 43q24 -9 25 -10
q52 -24 82 -69.5t30 -102.5q31 24 37 57l26 119h135z" />
    <glyph glyph-name="maitrilowrightthai" unicode="&#xf70c;" 
d="M277 1525l-26 -119q-15 -73 -74.5 -131.5t-150.5 -89.5h-68q-34 0 -26 92l5 23q11 51 -25 78q-19 -7 -57.5 -22t-49.5 -19l-89 41q-49 -31 -58 -78l-25 -115h-94q-15 0 -21.5 25.5t-2.5 69.5l4 20q16 76 82.5 143t140.5 84l94 -39q70 29 106 43q24 -9 25 -10
q52 -24 82 -69.5t30 -102.5q31 24 37 57l26 119h135z" />
    <glyph glyph-name="maichattawalowrightthai" 
d="M199 1438l-31 -148h-103l-22 -103h-147l22 103h-103l31 148h103l22 103h109q14 0 20 -22.5t1 -59.5l-5 -21h103z" />
    <glyph glyph-name="maichattawalowrightthai" unicode="&#xf70d;" 
d="M199 1438l-31 -148h-103l-22 -103h-147l22 103h-103l31 148h103l22 103h109q14 0 20 -22.5t1 -59.5l-5 -21h103z" />
    <glyph glyph-name="maichattawalowrightthai" unicode="&#x17d;" 
d="M199 1438l-31 -148h-103l-22 -103h-147l22 103h-103l31 148h103l22 103h109q14 0 20 -22.5t1 -59.5l-5 -21h103z" />
    <glyph glyph-name="thanthakhatlowrightthai" 
d="M251 1299l-415 -35q-22 -79 -56 -79h-107l46 216l551 45z" />
    <glyph glyph-name="thanthakhatlowrightthai" unicode="&#xf70e;" 
d="M251 1299l-415 -35q-22 -79 -56 -79h-107l46 216l551 45z" />
    <glyph glyph-name="yoyingnobasethai" horiz-adv-x="1614" 
d="M1545 1014h146l-154 -725q-27 -125 -139 -212.5t-242 -87.5h-49q-129 0 -204.5 87.5t-48.5 212.5l92 429q13 64 -52 111.5t-198 47.5q-106 0 -252 -42l-177 -835h-145l199 940q233 83 406 83q187 0 290.5 -85t74.5 -219l-91 -430q-14 -63 25.5 -108t111.5 -45h49
q72 0 131 45t73 108z" />
    <glyph glyph-name="yoyingnobasethai" unicode="&#xf70f;" horiz-adv-x="1614" 
d="M1545 1014h146l-154 -725q-27 -125 -139 -212.5t-242 -87.5h-49q-129 0 -204.5 87.5t-48.5 212.5l92 429q13 64 -52 111.5t-198 47.5q-106 0 -252 -42l-177 -835h-145l199 940q233 83 406 83q187 0 290.5 -85t74.5 -219l-91 -430q-14 -63 25.5 -108t111.5 -45h49
q72 0 131 45t73 108z" />
    <glyph glyph-name="quoteleft" horiz-adv-x="311" 
d="M281 914l73 400h157l-93 -400h-137z" />
    <glyph glyph-name="quoteleft" unicode="&#x2018;" horiz-adv-x="311" 
d="M281 914l73 400h157l-93 -400h-137z" />
    <glyph glyph-name="quoteright" horiz-adv-x="321" 
d="M289 914l73 400h157l-93 -400h-137z" />
    <glyph glyph-name="quoteright" unicode="&#x2019;" horiz-adv-x="321" 
d="M289 914l73 400h157l-93 -400h-137z" />
    <glyph glyph-name="bullet" horiz-adv-x="705" 
d="M433 373q-81 0 -127.5 58t-28.5 140q17 80 88.5 138.5t151.5 58.5q82 0 127.5 -58t28.5 -139t-87.5 -139.5t-152.5 -58.5z" />
    <glyph glyph-name="bullet" unicode="&#x2022;" horiz-adv-x="705" 
d="M433 373q-81 0 -127.5 58t-28.5 140q17 80 88.5 138.5t151.5 58.5q82 0 127.5 -58t28.5 -139t-87.5 -139.5t-152.5 -58.5z" />
    <glyph glyph-name="endash" horiz-adv-x="1043" 
d="M207 502l31 147h833l-31 -147h-833z" />
    <glyph glyph-name="endash" unicode="&#x2013;" horiz-adv-x="1043" 
d="M207 502l31 147h833l-31 -147h-833z" />
    <glyph glyph-name="emdash" horiz-adv-x="1302" 
d="M219 502l31 147h1050l-31 -147h-1050z" />
    <glyph glyph-name="emdash" unicode="&#x2014;" horiz-adv-x="1302" 
d="M219 502l31 147h1050l-31 -147h-1050z" />
    <glyph glyph-name="maihanakatleftthai" 
d="M-440 1292l428 2l-32 -149h-573l58 275h107q33 0 22 -81z" />
    <glyph glyph-name="maihanakatleftthai" unicode="&#xf710;" 
d="M-440 1292l428 2l-32 -149h-573l58 275h107q33 0 22 -81z" />
    <glyph glyph-name="maihanakatleftthai" unicode="&#x2dc;" 
d="M-440 1292l428 2l-32 -149h-573l58 275h107q33 0 22 -81z" />
    <glyph glyph-name="nikhahitleftthai" 
d="M-193 1390q72 0 113.5 -52.5t25.5 -124.5q-16 -74 -78.5 -125.5t-135.5 -51.5q-75 0 -115.5 51t-24.5 126q16 73 78.5 125t136.5 52zM-244 1151q25 0 46.5 18.5t26.5 43.5q6 25 -8 42.5t-39 17.5t-46 -17t-27 -43q-5 -26 8.5 -44t38.5 -18z" />
    <glyph glyph-name="nikhahitleftthai" unicode="&#xf711;" 
d="M-193 1390q72 0 113.5 -52.5t25.5 -124.5q-16 -74 -78.5 -125.5t-135.5 -51.5q-75 0 -115.5 51t-24.5 126q16 73 78.5 125t136.5 52zM-244 1151q25 0 46.5 18.5t26.5 43.5q6 25 -8 42.5t-39 17.5t-46 -17t-27 -43q-5 -26 8.5 -44t38.5 -18z" />
    <glyph glyph-name="nikhahitleftthai" unicode="&#x2122;" 
d="M-193 1390q72 0 113.5 -52.5t25.5 -124.5q-16 -74 -78.5 -125.5t-135.5 -51.5q-75 0 -115.5 51t-24.5 126q16 73 78.5 125t136.5 52zM-244 1151q25 0 46.5 18.5t26.5 43.5q6 25 -8 42.5t-39 17.5t-46 -17t-27 -43q-5 -26 8.5 -44t38.5 -18z" />
    <glyph glyph-name="maitaikhuleftthai" 
d="M-416 1421q-10 -7 -14 -23l-17 -78q-3 -16 7 -23t30 -7q12 0 26 4l8 32h147l-8 -37q8 -4 21 -4q20 0 37 16.5t26 49.5h145q-21 -99 -92 -155.5t-147 -56.5q-58 0 -94 26q-46 -21 -100 -21q-75 0 -122.5 45.5t-29.5 129.5l17 82q17 80 81 126t136 48h455l-31 -147h-454
q-18 0 -27 -7z" />
    <glyph glyph-name="maitaikhuleftthai" unicode="&#xf712;" 
d="M-416 1421q-10 -7 -14 -23l-17 -78q-3 -16 7 -23t30 -7q12 0 26 4l8 32h147l-8 -37q8 -4 21 -4q20 0 37 16.5t26 49.5h145q-21 -99 -92 -155.5t-147 -56.5q-58 0 -94 26q-46 -21 -100 -21q-75 0 -122.5 45.5t-29.5 129.5l17 82q17 80 81 126t136 48h455l-31 -147h-454
q-18 0 -27 -7z" />
    <glyph glyph-name="maitaikhuleftthai" unicode="&#x161;" 
d="M-416 1421q-10 -7 -14 -23l-17 -78q-3 -16 7 -23t30 -7q12 0 26 4l8 32h147l-8 -37q8 -4 21 -4q20 0 37 16.5t26 49.5h145q-21 -99 -92 -155.5t-147 -56.5q-58 0 -94 26q-46 -21 -100 -21q-75 0 -122.5 45.5t-29.5 129.5l17 82q17 80 81 126t136 48h455l-31 -147h-454
q-18 0 -27 -7z" />
    <glyph glyph-name="maiekupperleftthai" 
d="M83 1827l-71 -331h-146l71 331h146z" />
    <glyph glyph-name="maiekupperleftthai" unicode="&#xf713;" 
d="M83 1827l-71 -331h-146l71 331h146z" />
    <glyph glyph-name="maiekupperleftthai" unicode="&#x203a;" 
d="M83 1827l-71 -331h-146l71 331h146z" />
    <glyph glyph-name="maithoupperleftthai" 
d="M-125 1633h339l-31 -146h-484l23 109q1 5 6 21h-50l31 146h193z" />
    <glyph glyph-name="maithoupperleftthai" unicode="&#xf714;" 
d="M-125 1633h339l-31 -146h-484l23 109q1 5 6 21h-50l31 146h193z" />
    <glyph glyph-name="maithoupperleftthai" unicode="&#x153;" 
d="M-125 1633h339l-31 -146h-484l23 109q1 5 6 21h-50l31 146h193z" />
    <glyph glyph-name="maitriupperleftthai" 
d="M282 1798l-25 -118q-16 -74 -75.5 -132.5t-150.5 -89.5h-68q-34 0 -25 93l5 22q11 50 -26 78q-19 -7 -57.5 -22t-49.5 -19l-89 41q-49 -31 -58 -78l-25 -115h-93q-16 0 -22.5 25.5t-2.5 69.5l4 20q16 76 82.5 143t141.5 84l93 -38q20 8 59 23.5t47 18.5q24 -9 25 -10
q52 -24 82 -69.5t30 -102.5q30 23 38 58l25 118h135z" />
    <glyph glyph-name="maitriupperleftthai" unicode="&#xf715;" 
d="M282 1798l-25 -118q-16 -74 -75.5 -132.5t-150.5 -89.5h-68q-34 0 -25 93l5 22q11 50 -26 78q-19 -7 -57.5 -22t-49.5 -19l-89 41q-49 -31 -58 -78l-25 -115h-93q-16 0 -22.5 25.5t-2.5 69.5l4 20q16 76 82.5 143t141.5 84l93 -38q20 8 59 23.5t47 18.5q24 -9 25 -10
q52 -24 82 -69.5t30 -102.5q30 23 38 58l25 118h135z" />
    <glyph glyph-name="maichattawaupperleftthai" 
d="M65 1735l-31 -147h-100l-21 -101h-147l21 101h-102l31 147h102l22 102h109q31 0 21 -81l-5 -21h100z" />
    <glyph glyph-name="maichattawaupperleftthai" unicode="&#xf716;" 
d="M65 1735l-31 -147h-100l-21 -101h-147l21 101h-102l31 147h102l22 102h109q31 0 21 -81l-5 -21h100z" />
    <glyph glyph-name="maichattawaupperleftthai" unicode="&#x17e;" 
d="M65 1735l-31 -147h-100l-21 -101h-147l21 101h-102l31 147h102l22 102h109q31 0 21 -81l-5 -21h100z" />
    <glyph glyph-name="thanthakhatupperleftthai" 
d="M332 1555l-418 -35q-12 -41 -24.5 -60.5t-31.5 -19.5h-109l46 218l556 45z" />
    <glyph glyph-name="thanthakhatupperleftthai" unicode="&#xf717;" 
d="M332 1555l-418 -35q-12 -41 -24.5 -60.5t-31.5 -19.5h-109l46 218l556 45z" />
    <glyph glyph-name="thanthakhatupperleftthai" unicode="&#x178;" 
d="M332 1555l-418 -35q-12 -41 -24.5 -60.5t-31.5 -19.5h-109l46 218l556 45z" />
    <glyph glyph-name="uni00A0" unicode="&#xa0;" horiz-adv-x="925" 
 />
    <glyph glyph-name="uni00A0" unicode="&#xe00;" horiz-adv-x="925" 
 />
    <glyph glyph-name="kokaithai" unicode="&#xa1;" horiz-adv-x="1046" 
d="M1004 943q111 -85 81 -224l-152 -719h-147l152 719q13 63 -52 110.5t-198 47.5q-116 0 -252 -41l-177 -836h-146l199 939q235 85 407 85q185 0 285 -81z" />
    <glyph glyph-name="kokaithai" unicode="&#xe01;" horiz-adv-x="1046" 
d="M1004 943q111 -85 81 -224l-152 -719h-147l152 719q13 63 -52 110.5t-198 47.5q-116 0 -252 -41l-177 -836h-146l199 939q235 85 407 85q185 0 285 -81z" />
    <glyph glyph-name="khokhaithai" unicode="&#xa2;" horiz-adv-x="998" 
d="M955 1017h145l-139 -653q-34 -157 -169.5 -265t-296.5 -108h-5q-105 0 -183.5 49t-112.5 135.5t-12 188.5l28 130l182 359q-1 10 -19.5 18t-38.5 8l32 148q82 -2 134.5 -55t36.5 -127l-185 -362l-25 -119q-20 -94 36.5 -160.5t157.5 -66.5h5q100 0 185 66.5t105 160.5z
" />
    <glyph glyph-name="khokhaithai" unicode="&#xe02;" horiz-adv-x="998" 
d="M955 1017h145l-139 -653q-34 -157 -169.5 -265t-296.5 -108h-5q-105 0 -183.5 49t-112.5 135.5t-12 188.5l28 130l182 359q-1 10 -19.5 18t-38.5 8l32 148q82 -2 134.5 -55t36.5 -127l-185 -362l-25 -119q-20 -94 36.5 -160.5t157.5 -66.5h5q100 0 185 66.5t105 160.5z
" />
    <glyph glyph-name="khokhuatthai" unicode="&#xa3;" horiz-adv-x="1058" 
d="M1010 1015h145l-139 -653q-33 -155 -170 -264t-296 -109h-62q-159 0 -249.5 108.5t-57.5 264.5l28 131l172 320q-62 9 -98 66.5t-19 135.5h146q-4 -20 3.5 -38.5t20.5 -18.5q12 0 28 18t20 39h134l-4 -24q0 -2 -1 -6.5t-1 -6.5q-4 -24 -41 -97l-217 -397l-26 -122
q-20 -94 36.5 -160.5t156.5 -66.5h62q100 0 185.5 66.5t104.5 160.5z" />
    <glyph glyph-name="khokhuatthai" unicode="&#xe03;" horiz-adv-x="1058" 
d="M1010 1015h145l-139 -653q-33 -155 -170 -264t-296 -109h-62q-159 0 -249.5 108.5t-57.5 264.5l28 131l172 320q-62 9 -98 66.5t-19 135.5h146q-4 -20 3.5 -38.5t20.5 -18.5q12 0 28 18t20 39h134l-4 -24q0 -2 -1 -6.5t-1 -6.5q-4 -24 -41 -97l-217 -397l-26 -122
q-20 -94 36.5 -160.5t156.5 -66.5h62q100 0 185.5 66.5t104.5 160.5z" />
    <glyph glyph-name="khokhwaithai" unicode="&#xa4;" horiz-adv-x="1098" 
d="M1056 916q97 -110 64 -265l-138 -651h-147l138 651q20 92 -40 159t-166 67h-66q-108 0 -196 -67t-107 -159l-27 -128q19 4 44 4h225l-22 -99q-6 -34 -106 -48h-129q-43 0 -47 -18l-76 -362h-146l139 654q34 155 174.5 262.5t304.5 107.5h66q163 0 258 -108z" />
    <glyph glyph-name="khokhwaithai" unicode="&#xe04;" horiz-adv-x="1098" 
d="M1056 916q97 -110 64 -265l-138 -651h-147l138 651q20 92 -40 159t-166 67h-66q-108 0 -196 -67t-107 -159l-27 -128q19 4 44 4h225l-22 -99q-6 -34 -106 -48h-129q-43 0 -47 -18l-76 -362h-146l139 654q34 155 174.5 262.5t304.5 107.5h66q163 0 258 -108z" />
    <glyph glyph-name="khokhonthai" unicode="&#xa5;" horiz-adv-x="1098" 
d="M1060 932q96 -111 63 -265l-141 -667h-147l141 667q12 56 -9 107.5t-66 81.5q-27 -10 -92 -36l-95 -38l-156 74q-62 -31 -103 -80.5t-54 -108.5l-30 -144q19 4 44 4h225l-22 -99q-6 -34 -106 -48h-129q-43 0 -47 -18l-76 -362h-146l141 667q25 117 118.5 212t219.5 139
l155 -73q31 11 185 71q78 -30 127 -84z" />
    <glyph glyph-name="khokhonthai" unicode="&#xe05;" horiz-adv-x="1098" 
d="M1060 932q96 -111 63 -265l-141 -667h-147l141 667q12 56 -9 107.5t-66 81.5q-27 -10 -92 -36l-95 -38l-156 74q-62 -31 -103 -80.5t-54 -108.5l-30 -144q19 4 44 4h225l-22 -99q-6 -34 -106 -48h-129q-43 0 -47 -18l-76 -362h-146l141 667q25 117 118.5 212t219.5 139
l155 -73q31 11 185 71q78 -30 127 -84z" />
    <glyph glyph-name="khorakhangthai" unicode="&#xa6;" horiz-adv-x="1043" 
d="M998 1014h146l-166 -779q-24 -111 -129.5 -179t-242.5 -68q-167 0 -335 92q-31 -80 -61 -80h-99l104 493l175 320q-64 9 -100 65.5t-21 136.5h148q-4 -20 4 -38.5t21 -18.5t29 18.5t20 38.5h134q-2 -12 -3 -21t-1.5 -12t-0.5 -5q-4 -19 -48 -108l-211 -383l-52 -242
q172 -110 328 -110q84 0 135 30.5t62 76.5z" />
    <glyph glyph-name="khorakhangthai" unicode="&#xe06;" horiz-adv-x="1043" 
d="M998 1014h146l-166 -779q-24 -111 -129.5 -179t-242.5 -68q-167 0 -335 92q-31 -80 -61 -80h-99l104 493l175 320q-64 9 -100 65.5t-21 136.5h148q-4 -20 4 -38.5t21 -18.5t29 18.5t20 38.5h134q-2 -12 -3 -21t-1.5 -12t-0.5 -5q-4 -19 -48 -108l-211 -383l-52 -242
q172 -110 328 -110q84 0 135 30.5t62 76.5z" />
    <glyph glyph-name="ngonguthai" unicode="&#xa7;" horiz-adv-x="849" 
d="M807 1014h147l-139 -655q-29 -135 -147.5 -242t-256.5 -124l-70 -1l-183 653h160l139 -496q80 25 137.5 82t73.5 128z" />
    <glyph glyph-name="ngonguthai" unicode="&#xe07;" horiz-adv-x="849" 
d="M807 1014h147l-139 -655q-29 -135 -147.5 -242t-256.5 -124l-70 -1l-183 653h160l139 -496q80 25 137.5 82t73.5 128z" />
    <glyph glyph-name="chochanthai" unicode="&#xa8;" horiz-adv-x="936" 
d="M897 943q109 -89 79 -224l-74 -350q-22 -103 -95 -189.5t-175 -135t-210 -48.5h-85l-125 460h161l85 -314q104 2 191 69t107 158l74 350q13 63 -51.5 110.5t-198.5 47.5q-144 0 -355 -75l-32 134q242 88 418 88q184 0 286 -81z" />
    <glyph glyph-name="chochanthai" unicode="&#xe08;" horiz-adv-x="936" 
d="M897 943q109 -89 79 -224l-74 -350q-22 -103 -95 -189.5t-175 -135t-210 -48.5h-85l-125 460h161l85 -314q104 2 191 69t107 158l74 350q13 63 -51.5 110.5t-198.5 47.5q-144 0 -355 -75l-32 134q242 88 418 88q184 0 286 -81z" />
    <glyph glyph-name="chochingthai" unicode="&#xa9;" horiz-adv-x="1022" 
d="M982 942q108 -89 79 -223l-152 -719h-99q-28 0 -26 73q-192 -85 -354 -85q-143 0 -217.5 69t-49.5 183l62 298h147l-63 -298q-10 -46 28.5 -76t123.5 -30q148 0 351 100l103 485q13 63 -51 110.5t-198 47.5q-146 0 -355 -75l-33 134q248 88 419 88q185 0 285 -82z" />
    <glyph glyph-name="chochingthai" unicode="&#xe09;" horiz-adv-x="1022" 
d="M982 942q108 -89 79 -223l-152 -719h-99q-28 0 -26 73q-192 -85 -354 -85q-143 0 -217.5 69t-49.5 183l62 298h147l-63 -298q-10 -46 28.5 -76t123.5 -30q148 0 351 100l103 485q13 63 -51 110.5t-198 47.5q-146 0 -355 -75l-33 134q248 88 419 88q185 0 285 -82z" />
    <glyph glyph-name="chochangthai" unicode="&#xaa;" horiz-adv-x="1063" 
d="M1172 1075q-37 -174 -147 -265q75 -70 50 -191l-56 -265q-33 -155 -170.5 -264t-296.5 -109h-63q-78 0 -143 29t-106 79t-58 118.5t1 146.5l27 129l182 361q-1 10 -19.5 17.5t-38.5 7.5l31 147q82 0 135 -52.5t38 -127.5l-185 -362l-25 -120q-20 -93 36 -160t156 -67h63
q100 0 185.5 66.5t105.5 160.5l55 265q7 33 -7.5 56t-44.5 34t-59.5 16t-64.5 5l31 147q200 0 242 198h146z" />
    <glyph glyph-name="chochangthai" unicode="&#xe0a;" horiz-adv-x="1063" 
d="M1172 1075q-37 -174 -147 -265q75 -70 50 -191l-56 -265q-33 -155 -170.5 -264t-296.5 -109h-63q-78 0 -143 29t-106 79t-58 118.5t1 146.5l27 129l182 361q-1 10 -19.5 17.5t-38.5 7.5l31 147q82 0 135 -52.5t38 -127.5l-185 -362l-25 -120q-20 -93 36 -160t156 -67h63
q100 0 185.5 66.5t105.5 160.5l55 265q7 33 -7.5 56t-44.5 34t-59.5 16t-64.5 5l31 147q200 0 242 198h146z" />
    <glyph glyph-name="sosothai" unicode="&#xab;" horiz-adv-x="1058" 
d="M1169 1075q-39 -179 -149 -266q78 -68 52 -192l-57 -263q-34 -156 -169.5 -264.5t-295.5 -108.5h-63q-78 0 -143 29t-106 79t-58 118.5t1 146.5l28 131l172 320q-64 9 -99 66t-18 136h146q-5 -20 2.5 -38.5t20.5 -18.5t28.5 18.5t20.5 38.5h115l8 -11q7 -11 5 -26
q-7 -25 -49 -111l-210 -384l-25 -121q-20 -94 36 -160.5t156 -66.5h63q99 0 184 66.5t105 160.5l56 263q7 34 -7.5 57.5t-45.5 35t-59.5 16t-62.5 5.5l31 145q199 0 241 199h146z" />
    <glyph glyph-name="sosothai" unicode="&#xe0b;" horiz-adv-x="1058" 
d="M1169 1075q-39 -179 -149 -266q78 -68 52 -192l-57 -263q-34 -156 -169.5 -264.5t-295.5 -108.5h-63q-78 0 -143 29t-106 79t-58 118.5t1 146.5l28 131l172 320q-64 9 -99 66t-18 136h146q-5 -20 2.5 -38.5t20.5 -18.5t28.5 18.5t20.5 38.5h115l8 -11q7 -11 5 -26
q-7 -25 -49 -111l-210 -384l-25 -121q-20 -94 36 -160.5t156 -66.5h63q99 0 184 66.5t105 160.5l56 263q7 34 -7.5 57.5t-45.5 35t-59.5 16t-62.5 5.5l31 145q199 0 241 199h146z" />
    <glyph glyph-name="chochoethai" unicode="&#xac;" horiz-adv-x="1616" 
d="M1547 1015h146l-164 -775q-25 -113 -116 -183.5t-213 -70.5q-125 0 -254 76q-26 -62 -53 -62h-99l152 719q14 64 -51 111t-199 47q-110 0 -251 -41l-177 -836h-146l200 941q233 83 405 83q187 0 291 -84.5t75 -220.5l-104 -490q128 -96 242 -96q62 0 101 29t51 79z" />
    <glyph glyph-name="chochoethai" unicode="&#xe0c;" horiz-adv-x="1616" 
d="M1547 1015h146l-164 -775q-25 -113 -116 -183.5t-213 -70.5q-125 0 -254 76q-26 -62 -53 -62h-99l152 719q14 64 -51 111t-199 47q-110 0 -251 -41l-177 -836h-146l200 941q233 83 405 83q187 0 291 -84.5t75 -220.5l-104 -490q128 -96 242 -96q62 0 101 29t51 79z" />
    <glyph glyph-name="yoyingthai" unicode="&#xad;" horiz-adv-x="1614" 
d="M1556 1024h147l-155 -732q-28 -127 -140.5 -215t-243.5 -88h-50q-131 0 -206.5 88.5t-48.5 214.5l93 433q12 65 -53.5 112.5t-199.5 47.5q-107 0 -254 -41l-179 -844h-147l201 949q236 84 410 84q189 0 293.5 -85.5t75.5 -221.5l-92 -434q-14 -64 26.5 -109.5
t112.5 -45.5h50q73 0 132 45.5t73 109.5zM1313 -109l126 -56q-62 -96 -158 -155.5t-195 -59.5h-50q-100 0 -171 59t-92 156l148 56q13 -54 53 -89t93 -35h50q54 0 108.5 35.5t87.5 88.5z" />
    <glyph glyph-name="yoyingthai" unicode="&#xe0d;" horiz-adv-x="1614" 
d="M1556 1024h147l-155 -732q-28 -127 -140.5 -215t-243.5 -88h-50q-131 0 -206.5 88.5t-48.5 214.5l93 433q12 65 -53.5 112.5t-199.5 47.5q-107 0 -254 -41l-179 -844h-147l201 949q236 84 410 84q189 0 293.5 -85.5t75.5 -221.5l-92 -434q-14 -64 26.5 -109.5
t112.5 -45.5h50q73 0 132 45.5t73 109.5zM1313 -109l126 -56q-62 -96 -158 -155.5t-195 -59.5h-50q-100 0 -171 59t-92 156l148 56q13 -54 53 -89t93 -35h50q54 0 108.5 35.5t87.5 88.5z" />
    <glyph glyph-name="yoyingthai" unicode="&#xde;" horiz-adv-x="1614" 
d="M1556 1024h147l-155 -732q-28 -127 -140.5 -215t-243.5 -88h-50q-131 0 -206.5 88.5t-48.5 214.5l93 433q12 65 -53.5 112.5t-199.5 47.5q-107 0 -254 -41l-179 -844h-147l201 949q236 84 410 84q189 0 293.5 -85.5t75.5 -221.5l-92 -434q-14 -64 26.5 -109.5
t112.5 -45.5h50q73 0 132 45.5t73 109.5zM1313 -109l126 -56q-62 -96 -158 -155.5t-195 -59.5h-50q-100 0 -171 59t-92 156l148 56q13 -54 53 -89t93 -35h50q54 0 108.5 35.5t87.5 88.5z" />
    <glyph glyph-name="dochadathai" unicode="&#xae;" horiz-adv-x="1045" 
d="M1004 942q109 -88 79 -223l-178 -840q-29 -136 -167.5 -220t-326.5 -84q-174 0 -378 87l81 136q184 -77 328 -77q132 0 217.5 47.5t99.5 110.5l178 840q14 63 -51.5 110.5t-197.5 47.5q-108 0 -252 -42l-177 -835h-146l199 940q233 83 407 83q183 0 285 -81z" />
    <glyph glyph-name="dochadathai" unicode="&#xe0e;" horiz-adv-x="1045" 
d="M1004 942q109 -88 79 -223l-178 -840q-29 -136 -167.5 -220t-326.5 -84q-174 0 -378 87l81 136q184 -77 328 -77q132 0 217.5 47.5t99.5 110.5l178 840q14 63 -51.5 110.5t-197.5 47.5q-108 0 -252 -42l-177 -835h-146l199 940q233 83 407 83q183 0 285 -81z" />
    <glyph glyph-name="topatakthai" unicode="&#xaf;" horiz-adv-x="1045" 
d="M1004 942q109 -88 79 -223l-238 -1120h-102q-200 155 -384 155q-84 0 -144.5 -37.5t-86.5 -94.5l-135 34q52 117 159 180.5t237 63.5q180 0 352 -104l196 923q14 63 -52 110.5t-198 47.5q-107 0 -251 -42l-177 -835h-146l199 940q233 83 406 83q184 0 286 -81z" />
    <glyph glyph-name="topatakthai" unicode="&#xe0f;" horiz-adv-x="1045" 
d="M1004 942q109 -88 79 -223l-238 -1120h-102q-200 155 -384 155q-84 0 -144.5 -37.5t-86.5 -94.5l-135 34q52 117 159 180.5t237 63.5q180 0 352 -104l196 923q14 63 -52 110.5t-198 47.5q-107 0 -251 -42l-177 -835h-146l199 940q233 83 406 83q184 0 286 -81z" />
    <glyph glyph-name="thothanthai" unicode="&#xb0;" horiz-adv-x="925" 
d="M592 -182l148 9q-18 -82 -88 -141.5t-144 -59.5h-477l22 98q7 35 106 49h380q43 0 53 45zM966 930v1q-25 -25 -54 -44q69 -102 40 -237l-60 -281q-31 -148 -161 -254t-287 -117l-116 -2l-124 460h159l86 -313q108 7 192.5 71.5t104.5 154.5l60 281q20 93 -40.5 160
t-166.5 67h-65q-69 0 -139.5 -38.5t-127.5 -102.5l-77 114q77 80 177.5 126.5t197.5 46.5h65q98 0 177 -44q30 15 62.5 50t35.5 51h146q-19 -90 -85 -150z" />
    <glyph glyph-name="thothanthai" unicode="&#xe10;" horiz-adv-x="925" 
d="M592 -182l148 9q-18 -82 -88 -141.5t-144 -59.5h-477l22 98q7 35 106 49h380q43 0 53 45zM966 930v1q-25 -25 -54 -44q69 -102 40 -237l-60 -281q-31 -148 -161 -254t-287 -117l-116 -2l-124 460h159l86 -313q108 7 192.5 71.5t104.5 154.5l60 281q20 93 -40.5 160
t-166.5 67h-65q-69 0 -139.5 -38.5t-127.5 -102.5l-77 114q77 80 177.5 126.5t197.5 46.5h65q98 0 177 -44q30 15 62.5 50t35.5 51h146q-19 -90 -85 -150z" />
    <glyph glyph-name="thonangmonthothai" unicode="&#xb1;" horiz-adv-x="1173" 
d="M1216 774l-164 -774h-146l165 773q8 47 -30 77t-122 30q-157 0 -374 -110l-163 -770h-146l173 815q-24 -4 -38 -4q-71 0 -114.5 59.5t-25.5 143.5h146q-4 -20 3.5 -38.5t21.5 -18.5q13 0 29 18t22 39l97 -1q10 0 17.5 -23.5t7.5 -56.5q209 93 375 93q140 0 215 -69
t51 -183z" />
    <glyph glyph-name="thonangmonthothai" unicode="&#xe11;" horiz-adv-x="1173" 
d="M1216 774l-164 -774h-146l165 773q8 47 -30 77t-122 30q-157 0 -374 -110l-163 -770h-146l173 815q-24 -4 -38 -4q-71 0 -114.5 59.5t-25.5 143.5h146q-4 -20 3.5 -38.5t21.5 -18.5q13 0 29 18t22 39l97 -1q10 0 17.5 -23.5t7.5 -56.5q209 93 375 93q140 0 215 -69
t51 -183z" />
    <glyph glyph-name="thophuthaothai" unicode="&#xb2;" horiz-adv-x="1667" 
d="M1741 1013l-164 -773q-24 -112 -115 -183t-213 -71q-127 0 -253 77q-27 -63 -53 -63h-99l141 666q12 56 -9 107.5t-67 80.5q-32 -12 -97 -37.5t-90 -35.5l-156 72q-60 -30 -102 -80t-54 -107l-75 -352q-11 -43 -1 -74.5t28 -51.5t49 -32t62.5 -17t68.5 -5l-31 -146
q-34 0 -66.5 3.5t-70.5 13t-68.5 25.5t-60 41t-44 59t-21.5 80t8 104l75 352q25 116 119 211t219 138l155 -72q28 10 91.5 35t93.5 36q109 -43 162 -137.5t28 -210.5l-93 -439q127 -95 242 -95q62 0 100 28.5t50 78.5l165 774h146z" />
    <glyph glyph-name="thophuthaothai" unicode="&#xe12;" horiz-adv-x="1667" 
d="M1741 1013l-164 -773q-24 -112 -115 -183t-213 -71q-127 0 -253 77q-27 -63 -53 -63h-99l141 666q12 56 -9 107.5t-67 80.5q-32 -12 -97 -37.5t-90 -35.5l-156 72q-60 -30 -102 -80t-54 -107l-75 -352q-11 -43 -1 -74.5t28 -51.5t49 -32t62.5 -17t68.5 -5l-31 -146
q-34 0 -66.5 3.5t-70.5 13t-68.5 25.5t-60 41t-44 59t-21.5 80t8 104l75 352q25 116 119 211t219 138l155 -72q28 10 91.5 35t93.5 36q109 -43 162 -137.5t28 -210.5l-93 -439q127 -95 242 -95q62 0 100 28.5t50 78.5l165 774h146z" />
    <glyph glyph-name="nonenthai" unicode="&#xb3;" horiz-adv-x="1615" 
d="M1545 1013h147l-215 -1013h-103q-24 4 -24 63q-159 -76 -285 -76q-122 0 -183 70t-37 183l101 479q14 63 -52 110.5t-198 47.5q-107 0 -251 -42l-177 -835h-146l199 940q233 83 406 83q188 0 291 -84.5t74 -219.5l-101 -479q-11 -49 15.5 -78t89.5 -29q116 0 282 95z" />
    <glyph glyph-name="nonenthai" unicode="&#xe13;" horiz-adv-x="1615" 
d="M1545 1013h147l-215 -1013h-103q-24 4 -24 63q-159 -76 -285 -76q-122 0 -183 70t-37 183l101 479q14 63 -52 110.5t-198 47.5q-107 0 -251 -42l-177 -835h-146l199 940q233 83 406 83q188 0 291 -84.5t74 -219.5l-101 -479q-11 -49 15.5 -78t89.5 -29q116 0 282 95z" />
    <glyph glyph-name="dodekthai" unicode="&#xb4;" horiz-adv-x="1093" 
d="M1050 915q45 -51 62.5 -119.5t1.5 -145.5l-138 -650h-145l138 650q20 92 -41 159.5t-167 67.5h-65q-107 0 -195.5 -67.5t-107.5 -159.5l-72 -335q-11 -53 3.5 -90.5t49 -56t72 -26t82.5 -7.5l-31 -147q-34 0 -66.5 4t-70.5 13.5t-68.5 25.5t-59.5 41t-43.5 59t-21.5 80
t8 104l72 338q35 156 175.5 263t304.5 107h65q163 0 258 -108z" />
    <glyph glyph-name="dodekthai" unicode="&#xe14;" horiz-adv-x="1093" 
d="M1050 915q45 -51 62.5 -119.5t1.5 -145.5l-138 -650h-145l138 650q20 92 -41 159.5t-167 67.5h-65q-107 0 -195.5 -67.5t-107.5 -159.5l-72 -335q-11 -53 3.5 -90.5t49 -56t72 -26t82.5 -7.5l-31 -147q-34 0 -66.5 4t-70.5 13.5t-68.5 25.5t-59.5 41t-43.5 59t-21.5 80
t8 104l72 338q35 156 175.5 263t304.5 107h65q163 0 258 -108z" />
    <glyph glyph-name="totaothai" unicode="&#xb5;" horiz-adv-x="1092" 
d="M1054 932q96 -111 63 -265l-141 -667h-146l141 667q13 59 -7 108.5t-69 79.5q-31 -12 -95.5 -38t-91.5 -36l-156 74q-60 -29 -102 -80t-54 -108l-75 -352q-11 -52 3 -89.5t47.5 -56t71.5 -26.5t85 -8l-31 -147q-29 0 -56.5 3t-61 10t-61.5 18.5t-56.5 29t-47 42t-33.5 57
t-14.5 74t8.5 93.5l75 352q25 117 117 210.5t221 139.5l154 -73q44 17 188 73q77 -34 124 -85z" />
    <glyph glyph-name="totaothai" unicode="&#xe15;" horiz-adv-x="1092" 
d="M1054 932q96 -111 63 -265l-141 -667h-146l141 667q13 59 -7 108.5t-69 79.5q-31 -12 -95.5 -38t-91.5 -36l-156 74q-60 -29 -102 -80t-54 -108l-75 -352q-11 -52 3 -89.5t47.5 -56t71.5 -26.5t85 -8l-31 -147q-29 0 -56.5 3t-61 10t-61.5 18.5t-56.5 29t-47 42t-33.5 57
t-14.5 74t8.5 93.5l75 352q25 117 117 210.5t221 139.5l154 -73q44 17 188 73q77 -34 124 -85z" />
    <glyph glyph-name="thothungthai" unicode="&#xb6;" horiz-adv-x="1044" 
d="M1004 942q109 -86 79 -223l-152 -719h-146l152 719q14 63 -51.5 110.5t-198.5 47.5q-107 0 -251 -42l-111 -520q-10 -45 -9.5 -76.5t8.5 -52t27 -32t43 -15.5t59 -4l-31 -146q-153 0 -216.5 78.5t-27.5 247.5l133 625q234 83 407 83q184 0 286 -81z" />
    <glyph glyph-name="thothungthai" unicode="&#xe16;" horiz-adv-x="1044" 
d="M1004 942q109 -86 79 -223l-152 -719h-146l152 719q14 63 -51.5 110.5t-198.5 47.5q-107 0 -251 -42l-111 -520q-10 -45 -9.5 -76.5t8.5 -52t27 -32t43 -15.5t59 -4l-31 -146q-153 0 -216.5 78.5t-27.5 247.5l133 625q234 83 407 83q184 0 286 -81z" />
    <glyph glyph-name="thothahanthai" unicode="&#xb7;" horiz-adv-x="1043" 
d="M259 0h-146l215 1014h99q30 0 25 -80q212 93 376 93q141 0 216 -69t51 -183l-164 -775h-147l164 775q10 46 -28 76t-123 30q-156 0 -375 -111z" />
    <glyph glyph-name="thothahanthai" unicode="&#x2219;" horiz-adv-x="1043" 
d="M259 0h-146l215 1014h99q30 0 25 -80q212 93 376 93q141 0 216 -69t51 -183l-164 -775h-147l164 775q10 46 -28 76t-123 30q-156 0 -375 -111z" />
    <glyph glyph-name="thothahanthai" unicode="&#xe17;" horiz-adv-x="1043" 
d="M259 0h-146l215 1014h99q30 0 25 -80q212 93 376 93q141 0 216 -69t51 -183l-164 -775h-147l164 775q10 46 -28 76t-123 30q-156 0 -375 -111z" />
    <glyph glyph-name="thothongthai" unicode="&#xb8;" horiz-adv-x="982" 
d="M676 611q60 -8 96.5 -17.5t91.5 -35.5t75.5 -80t3.5 -133l-1 -7q-19 -82 -34 -130.5t-40 -90.5t-50.5 -62t-73.5 -34.5t-102 -18t-142 -3.5q-124 0 -197.5 11t-111 35t-43.5 62.5t5 93.5q6 28 26.5 86t28.5 84h124q-22 -104 -33 -157q-7 -51 32.5 -61.5t238.5 -10.5
q132 0 165 15q10 5 27 55t34 129q5 26 -2 46t-21 32t-39 21.5t-44.5 13.5t-49.5 9q-14 2 -34 5.5t-36.5 6t-35.5 4.5q-23 2 -40 4t-44.5 7t-45.5 11t-44.5 16.5t-40 23.5t-32.5 32t-22.5 42.5t-9 54t6.5 66.5q20 81 69 140t115 90.5t134 46t140 14.5q181 0 337 -78l-87 -133
q-56 28 -132.5 46.5t-148.5 18.5q-107 0 -182.5 -39.5t-99.5 -110.5q-4 -20 1 -35t13 -23.5t26.5 -15t32 -9.5t39.5 -7q17 -3 69 -14.5t88 -15.5z" />
    <glyph glyph-name="thothongthai" unicode="&#xe18;" horiz-adv-x="982" 
d="M676 611q60 -8 96.5 -17.5t91.5 -35.5t75.5 -80t3.5 -133l-1 -7q-19 -82 -34 -130.5t-40 -90.5t-50.5 -62t-73.5 -34.5t-102 -18t-142 -3.5q-124 0 -197.5 11t-111 35t-43.5 62.5t5 93.5q6 28 26.5 86t28.5 84h124q-22 -104 -33 -157q-7 -51 32.5 -61.5t238.5 -10.5
q132 0 165 15q10 5 27 55t34 129q5 26 -2 46t-21 32t-39 21.5t-44.5 13.5t-49.5 9q-14 2 -34 5.5t-36.5 6t-35.5 4.5q-23 2 -40 4t-44.5 7t-45.5 11t-44.5 16.5t-40 23.5t-32.5 32t-22.5 42.5t-9 54t6.5 66.5q20 81 69 140t115 90.5t134 46t140 14.5q181 0 337 -78l-87 -133
q-56 28 -132.5 46.5t-148.5 18.5q-107 0 -182.5 -39.5t-99.5 -110.5q-4 -20 1 -35t13 -23.5t26.5 -15t32 -9.5t39.5 -7q17 -3 69 -14.5t88 -15.5z" />
    <glyph glyph-name="nonuthai" unicode="&#xb9;" horiz-adv-x="1044" 
d="M1000 1014h146l-215 -1014h-99q-30 0 -27 80q-207 -92 -374 -92q-141 0 -216.5 69t-51.5 182l165 775h147l-165 -775q-10 -45 28.5 -75t123.5 -30q155 0 374 110z" />
    <glyph glyph-name="nonuthai" unicode="&#xe19;" horiz-adv-x="1044" 
d="M1000 1014h146l-215 -1014h-99q-30 0 -27 80q-207 -92 -374 -92q-141 0 -216.5 69t-51.5 182l165 775h147l-165 -775q-10 -45 28.5 -75t123.5 -30q155 0 374 110z" />
    <glyph glyph-name="bobaimaithai" unicode="&#xba;" horiz-adv-x="1075" 
d="M1028 1015h147l-147 -695q-20 -92 -90.5 -168.5t-169 -119t-202.5 -42.5h-64q-159 0 -254.5 95t-65.5 235l147 695h147l-147 -695q-16 -74 42.5 -128.5t162.5 -54.5h64q103 0 185 54.5t98 128.5z" />
    <glyph glyph-name="bobaimaithai" unicode="&#xe1a;" horiz-adv-x="1075" 
d="M1028 1015h147l-147 -695q-20 -92 -90.5 -168.5t-169 -119t-202.5 -42.5h-64q-159 0 -254.5 95t-65.5 235l147 695h147l-147 -695q-16 -74 42.5 -128.5t162.5 -54.5h64q103 0 185 54.5t98 128.5z" />
    <glyph glyph-name="poplathai" unicode="&#xbb;" horiz-adv-x="1074" 
d="M1081 1262h146l-200 -942q-30 -140 -166.5 -235t-294.5 -95h-65q-159 0 -254 94.5t-65 235.5l147 695h146l-147 -695q-16 -74 42.5 -128.5t162.5 -54.5h65q103 0 184 54.5t99 129.5z" />
    <glyph glyph-name="poplathai" unicode="&#xe1b;" horiz-adv-x="1074" 
d="M1081 1262h146l-200 -942q-30 -140 -166.5 -235t-294.5 -95h-65q-159 0 -254 94.5t-65 235.5l147 695h146l-147 -695q-16 -74 42.5 -128.5t162.5 -54.5h65q103 0 184 54.5t99 129.5z" />
    <glyph glyph-name="phophungthai" unicode="&#xbc;" horiz-adv-x="1094" 
d="M1049 1014h146l-142 -666q-24 -116 -118 -211.5t-219 -138.5l-155 73q-78 -30 -186 -72q-107 42 -160.5 137t-28.5 212l105 492q14 75 85.5 124t161.5 51l-31 -146q-22 0 -45 -9.5t-25 -19.5l-105 -492q-24 -126 77 -189q83 34 187 75l155 -74q59 32 101.5 82t54.5 106z
" />
    <glyph glyph-name="phophungthai" unicode="&#xe1c;" horiz-adv-x="1094" 
d="M1049 1014h146l-142 -666q-24 -116 -118 -211.5t-219 -138.5l-155 73q-78 -30 -186 -72q-107 42 -160.5 137t-28.5 212l105 492q14 75 85.5 124t161.5 51l-31 -146q-22 0 -45 -9.5t-25 -19.5l-105 -492q-24 -126 77 -189q83 34 187 75l155 -74q59 32 101.5 82t54.5 106z
" />
    <glyph glyph-name="fofathai" unicode="&#xbd;" horiz-adv-x="1093" 
d="M1101 1261h146l-195 -913q-16 -76 -62.5 -145t-112.5 -120q-69 -52 -162 -85l-155 73q-78 -30 -186 -72q-75 30 -124 84q-96 111 -65 265l105 492q15 73 85 125q65 50 162 50l-31 -146q-42 0 -56 -11q-13 -11 -14 -18l-105 -492q-17 -91 40 -158q22 -22 36 -30
q33 13 98.5 39t89.5 35l156 -75q27 14 50 31q87 69 105 158z" />
    <glyph glyph-name="fofathai" unicode="&#xe1d;" horiz-adv-x="1093" 
d="M1101 1261h146l-195 -913q-16 -76 -62.5 -145t-112.5 -120q-69 -52 -162 -85l-155 73q-78 -30 -186 -72q-75 30 -124 84q-96 111 -65 265l105 492q15 73 85 125q65 50 162 50l-31 -146q-42 0 -56 -11q-13 -11 -14 -18l-105 -492q-17 -91 40 -158q22 -22 36 -30
q33 13 98.5 39t89.5 35l156 -75q27 14 50 31q87 69 105 158z" />
    <glyph glyph-name="phophanthai" unicode="&#xbe;" horiz-adv-x="1138" 
d="M1089 1014h147l-168 -792q-21 -98 -108 -166.5t-188 -68.5h-35q-38 0 -80.5 15t-67.5 38q-37 -25 -87 -39t-94 -14h-36q-108 0 -170 68t-40 167l168 792h146l-168 -792q-8 -34 21 -61.5t74 -27.5h36q54 0 97 39q-1 23 5 50l77 366h147l-77 -366q-8 -37 15.5 -63t64.5 -26
h35q40 0 75 26t43 63z" />
    <glyph glyph-name="phophanthai" unicode="&#xe1e;" horiz-adv-x="1138" 
d="M1089 1014h147l-168 -792q-21 -98 -108 -166.5t-188 -68.5h-35q-38 0 -80.5 15t-67.5 38q-37 -25 -87 -39t-94 -14h-36q-108 0 -170 68t-40 167l168 792h146l-168 -792q-8 -34 21 -61.5t74 -27.5h36q54 0 97 39q-1 23 5 50l77 366h147l-77 -366q-8 -37 15.5 -63t64.5 -26
h35q40 0 75 26t43 63z" />
    <glyph glyph-name="fofanthai" unicode="&#xbf;" horiz-adv-x="1138" 
d="M1142 1260h146l-221 -1040q-21 -98 -112 -166.5t-198 -68.5h-37q-99 0 -155 55q-35 -26 -83.5 -40.5t-90.5 -14.5h-35q-99 0 -157.5 69t-37.5 166l169 793h147l-169 -793q-8 -37 15.5 -62.5t64.5 -25.5h35q41 0 76 25.5t42 62.5l78 367h146l-78 -367q-4 -24 -16 -49
q26 -39 81 -39h37q45 0 85 27t47 61z" />
    <glyph glyph-name="fofanthai" unicode="&#xe1f;" horiz-adv-x="1138" 
d="M1142 1260h146l-221 -1040q-21 -98 -112 -166.5t-198 -68.5h-37q-99 0 -155 55q-35 -26 -83.5 -40.5t-90.5 -14.5h-35q-99 0 -157.5 69t-37.5 166l169 793h147l-169 -793q-8 -37 15.5 -62.5t64.5 -25.5h35q41 0 76 25.5t42 62.5l78 367h146l-78 -367q-4 -24 -16 -49
q26 -39 81 -39h37q45 0 85 27t47 61z" />
    <glyph glyph-name="phosamphaothai" unicode="&#xc0;" horiz-adv-x="1048" 
d="M1014 953q110 -87 80 -226l-154 -727h-147l154 727q13 64 -53 112t-201 48q-118 0 -254 -41l-144 -680q-16 -74 -92 -125.5t-159 -51.5l32 148q23 0 46 9.5t25 19.5l167 785q233 85 411 85q185 0 289 -83z" />
    <glyph glyph-name="phosamphaothai" unicode="&#xe20;" horiz-adv-x="1048" 
d="M1014 953q110 -87 80 -226l-154 -727h-147l154 727q13 64 -53 112t-201 48q-118 0 -254 -41l-144 -680q-16 -74 -92 -125.5t-159 -51.5l32 148q23 0 46 9.5t25 19.5l167 785q233 85 411 85q185 0 289 -83z" />
    <glyph glyph-name="momathai" unicode="&#xc1;" horiz-adv-x="1044" 
d="M477 1024l-165 -778q171 -111 330 -111q84 0 135.5 30t63.5 77l166 782h147l-166 -782q-24 -114 -129.5 -184t-247.5 -70q-169 0 -339 93q-30 -81 -61 -81h-99l217 1024h148z" />
    <glyph glyph-name="momathai" unicode="&#xe21;" horiz-adv-x="1044" 
d="M477 1024l-165 -778q171 -111 330 -111q84 0 135.5 30t63.5 77l166 782h147l-166 -782q-24 -114 -129.5 -184t-247.5 -70q-169 0 -339 93q-30 -81 -61 -81h-99l217 1024h148z" />
    <glyph glyph-name="yoyakthai" unicode="&#xc2;" horiz-adv-x="1073" 
d="M1030 1025h147l-149 -704q-30 -141 -167.5 -237t-299.5 -96h-64q-162 0 -258.5 96t-66.5 237l8 37q12 58 42 112.5t70 82.5q-54 79 -28 201l57 271h100q35 0 26 -111l-34 -160q-14 -64 15.5 -100t92.5 -36l-32 -148q-137 0 -161 -112l-8 -37q-16 -74 44 -129.5t164 -55.5
h64q105 0 189 55.5t100 129.5z" />
    <glyph glyph-name="yoyakthai" unicode="&#xe22;" horiz-adv-x="1073" 
d="M1030 1025h147l-149 -704q-30 -141 -167.5 -237t-299.5 -96h-64q-162 0 -258.5 96t-66.5 237l8 37q12 58 42 112.5t70 82.5q-54 79 -28 201l57 271h100q35 0 26 -111l-34 -160q-14 -64 15.5 -100t92.5 -36l-32 -148q-137 0 -161 -112l-8 -37q-16 -74 44 -129.5t164 -55.5
h64q105 0 189 55.5t100 129.5z" />
    <glyph glyph-name="roruathai" unicode="&#xc3;" horiz-adv-x="921" 
d="M895 282l-1 -1q-20 -82 -70 -141.5t-117 -90.5t-134.5 -45t-140.5 -14q-183 0 -340 77l88 134q132 -64 284 -64q108 0 184 40t101 111q10 48 -24 80t-67.5 41.5t-102.5 22.5q-5 1 -8.5 1.5t-8 1.5t-8.5 2q-9 3 -29.5 7t-42.5 8t-50.5 11.5t-53.5 17t-51.5 25t-44 36
t-32 49t-15.5 64.5t7 83q17 67 54.5 120t83.5 85t104 52.5t111.5 28.5t110.5 9q180 -1 341 -77l-87 -136q-130 64 -286 64q-114 0 -190 -37t-94 -114q-6 -30 3 -53t26 -36.5t45 -24.5t52 -16t55.5 -11.5t46.5 -10.5q9 -2 33 -6q21 -4 33.5 -6.5t38 -8.5t41.5 -12t40 -16
t39 -22t33 -28t27.5 -36t16.5 -44t6.5 -54.5t-7.5 -65.5z" />
    <glyph glyph-name="roruathai" unicode="&#xe23;" horiz-adv-x="921" 
d="M895 282l-1 -1q-20 -82 -70 -141.5t-117 -90.5t-134.5 -45t-140.5 -14q-183 0 -340 77l88 134q132 -64 284 -64q108 0 184 40t101 111q10 48 -24 80t-67.5 41.5t-102.5 22.5q-5 1 -8.5 1.5t-8 1.5t-8.5 2q-9 3 -29.5 7t-42.5 8t-50.5 11.5t-53.5 17t-51.5 25t-44 36
t-32 49t-15.5 64.5t7 83q17 67 54.5 120t83.5 85t104 52.5t111.5 28.5t110.5 9q180 -1 341 -77l-87 -136q-130 64 -286 64q-114 0 -190 -37t-94 -114q-6 -30 3 -53t26 -36.5t45 -24.5t52 -16t55.5 -11.5t46.5 -10.5q9 -2 33 -6q21 -4 33.5 -6.5t38 -8.5t41.5 -12t40 -16
t39 -22t33 -28t27.5 -36t16.5 -44t6.5 -54.5t-7.5 -65.5z" />
    <glyph glyph-name="ruthai" unicode="&#xc4;" horiz-adv-x="1048" 
d="M1014 951q109 -87 81 -226l-247 -1158h-148l247 1158q13 64 -53.5 112t-199.5 48q-108 0 -255 -41l-112 -528q-12 -46 -9.5 -78t9.5 -52t27 -31.5t43.5 -15.5t58.5 -4l-31 -148q-154 0 -217.5 77t-29.5 251l135 634q239 84 412 84q185 0 289 -82z" />
    <glyph glyph-name="ruthai" unicode="&#xe24;" horiz-adv-x="1048" 
d="M1014 951q109 -87 81 -226l-247 -1158h-148l247 1158q13 64 -53.5 112t-199.5 48q-108 0 -255 -41l-112 -528q-12 -46 -9.5 -78t9.5 -52t27 -31.5t43.5 -15.5t58.5 -4l-31 -148q-154 0 -217.5 77t-29.5 251l135 634q239 84 412 84q185 0 289 -82z" />
    <glyph glyph-name="lolingthai" unicode="&#xc5;" horiz-adv-x="1034" 
d="M1000 953q111 -86 81 -226l-154 -727h-148l82 387q-166 108 -321 108q-101 0 -165.5 -45t-81.5 -125q-17 -70 -12.5 -112t43 -59.5t128.5 -17.5l-31 -147q-136 0 -205 37t-82 111.5t11 187.5q30 144 148.5 231t277.5 87q157 0 325 -88l37 172q13 63 -52.5 111t-200.5 48
q-146 0 -366 -77l-24 138q248 88 421 88q184 0 289 -82z" />
    <glyph glyph-name="lolingthai" unicode="&#xe25;" horiz-adv-x="1034" 
d="M1000 953q111 -86 81 -226l-154 -727h-148l82 387q-166 108 -321 108q-101 0 -165.5 -45t-81.5 -125q-17 -70 -12.5 -112t43 -59.5t128.5 -17.5l-31 -147q-136 0 -205 37t-82 111.5t11 187.5q30 144 148.5 231t277.5 87q157 0 325 -88l37 172q13 63 -52.5 111t-200.5 48
q-146 0 -366 -77l-24 138q248 88 421 88q184 0 289 -82z" />
    <glyph glyph-name="luthai" unicode="&#xc6;" horiz-adv-x="1047" 
d="M1013 951q109 -88 80 -225l-247 -1159h-148l247 1159q14 64 -53 111.5t-200 47.5q-118 0 -255 -41l-144 -679q-16 -75 -92 -126.5t-158 -51.5l31 148q23 0 46 9.5t26 20.5l166 784q236 84 411 84q186 0 290 -82z" />
    <glyph glyph-name="luthai" unicode="&#xe26;" horiz-adv-x="1047" 
d="M1013 951q109 -88 80 -225l-247 -1159h-148l247 1159q14 64 -53 111.5t-200 47.5q-118 0 -255 -41l-144 -679q-16 -75 -92 -126.5t-158 -51.5l31 148q23 0 46 9.5t26 20.5l166 784q236 84 411 84q186 0 290 -82z" />
    <glyph glyph-name="wowaenthai" unicode="&#xc7;" horiz-adv-x="961" 
d="M934 951q109 -88 81 -226l-77 -362q-34 -157 -176.5 -267t-308.5 -110h-67q-99 0 -180 47t-125 128l127 115q28 -66 83.5 -104t125.5 -38h67q107 0 196.5 67.5t109.5 161.5l77 362q13 63 -53 111t-201 48q-151 0 -364 -78l-25 138q244 89 421 89q183 0 289 -82z" />
    <glyph glyph-name="wowaenthai" unicode="&#xe27;" horiz-adv-x="961" 
d="M934 951q109 -88 81 -226l-77 -362q-34 -157 -176.5 -267t-308.5 -110h-67q-99 0 -180 47t-125 128l127 115q28 -66 83.5 -104t125.5 -38h67q107 0 196.5 67.5t109.5 161.5l77 362q13 63 -53 111t-201 48q-151 0 -364 -78l-25 138q244 89 421 89q183 0 289 -82z" />
    <glyph glyph-name="sosalathai" unicode="&#xc8;" horiz-adv-x="1089" 
d="M1223 1103q-12 -58 -53.5 -110.5t-96.5 -89.5q76 -107 46 -245l-139 -658h-147l139 658q20 93 -40.5 160.5t-168.5 67.5h-66q-109 0 -198 -67t-109 -161l-27 -130q22 5 45 5h227l-21 -99q-8 -37 -109 -49h-129q-45 0 -47 -16l-78 -369h-148l140 661q23 103 96 189
t176.5 135.5t212.5 49.5h66q94 0 170 -38q24 6 65.5 45t45.5 61h148z" />
    <glyph glyph-name="sosalathai" unicode="&#xe28;" horiz-adv-x="1089" 
d="M1223 1103q-12 -58 -53.5 -110.5t-96.5 -89.5q76 -107 46 -245l-139 -658h-147l139 658q20 93 -40.5 160.5t-168.5 67.5h-66q-109 0 -198 -67t-109 -161l-27 -130q22 5 45 5h227l-21 -99q-8 -37 -109 -49h-129q-45 0 -47 -16l-78 -369h-148l140 661q23 103 96 189
t176.5 135.5t212.5 49.5h66q94 0 170 -38q24 6 65.5 45t45.5 61h148z" />
    <glyph glyph-name="sorusithai" unicode="&#xc9;" horiz-adv-x="1077" 
d="M1150 622l-32 -148h-49l-32 -154q-31 -142 -168.5 -237.5t-298.5 -95.5h-65q-104 0 -185.5 42.5t-120 119.5t-18.5 171l149 705h148l-149 -705q-16 -74 43.5 -129.5t163.5 -55.5h65q106 0 189 55t99 130l32 154h-313l21 99q8 37 109 49h215l85 403h148l-85 -403h49z" />
    <glyph glyph-name="sorusithai" unicode="&#xe29;" horiz-adv-x="1077" 
d="M1150 622l-32 -148h-49l-32 -154q-31 -142 -168.5 -237.5t-298.5 -95.5h-65q-104 0 -185.5 42.5t-120 119.5t-18.5 171l149 705h148l-149 -705q-16 -74 43.5 -129.5t163.5 -55.5h65q106 0 189 55t99 130l32 154h-313l21 99q8 37 109 49h215l85 403h148l-85 -403h49z" />
    <glyph glyph-name="sosuathai" unicode="&#xca;" horiz-adv-x="1034" 
d="M1142 1006q-37 -52 -100 -96q63 -72 39 -183l-154 -727h-148l82 387q-163 108 -320 108q-101 0 -166 -45.5t-82 -124.5q-17 -70 -12 -112t43 -59.5t127 -17.5l-31 -147q-197 0 -255.5 78t-19.5 258q30 145 148.5 231.5t278.5 86.5t324 -88l37 172q14 64 -52 112t-200 48
q-144 0 -366 -78l-25 138q247 88 422 88q115 0 212 -39q25 3 65 46t44 61h147q-14 -65 -38 -97z" />
    <glyph glyph-name="sosuathai" unicode="&#xe2a;" horiz-adv-x="1034" 
d="M1142 1006q-37 -52 -100 -96q63 -72 39 -183l-154 -727h-148l82 387q-163 108 -320 108q-101 0 -166 -45.5t-82 -124.5q-17 -70 -12 -112t43 -59.5t127 -17.5l-31 -147q-197 0 -255.5 78t-19.5 258q30 145 148.5 231.5t278.5 86.5t324 -88l37 172q14 64 -52 112t-200 48
q-144 0 -366 -78l-25 138q247 88 422 88q115 0 212 -39q25 3 65 46t44 61h147q-14 -65 -38 -97z" />
    <glyph glyph-name="hohipthai" unicode="&#xcb;" horiz-adv-x="1046" 
d="M1047 511l-108 -511h-148l108 511q10 47 -29 77t-124 30q-158 0 -379 -111l-107 -507h-148l218 1026h99q36 0 25 -113l-51 -239q149 67 293 87h3t2.5 0.5t3.5 0.5t7 0.5t13 1.5q122 16 189 74t94 186h148q-47 -219 -176 -315q45 -33 62.5 -84.5t4.5 -113.5z" />
    <glyph glyph-name="hohipthai" unicode="&#xe2b;" horiz-adv-x="1046" 
d="M1047 511l-108 -511h-148l108 511q10 47 -29 77t-124 30q-158 0 -379 -111l-107 -507h-148l218 1026h99q36 0 25 -113l-51 -239q149 67 293 87h3t2.5 0.5t3.5 0.5t7 0.5t13 1.5q122 16 189 74t94 186h148q-47 -219 -176 -315q45 -33 62.5 -84.5t4.5 -113.5z" />
    <glyph glyph-name="lochulathai" unicode="&#xcc;" horiz-adv-x="1138" 
d="M1204 997v-1q-33 -46 -73 -76q78 -69 51 -193l-107 -502q-21 -99 -112.5 -168t-200.5 -69h-37q-101 0 -159 58q-84 -58 -173 -58h-35q-102 0 -160.5 69t-37.5 168l170 800h147l-170 -800q-8 -37 16.5 -63.5t65.5 -26.5h35q41 0 76 26.5t43 63.5l79 369h148l-79 -369
q-4 -18 -16 -50q21 -40 81 -40h37q45 0 86 28t48 62l107 501q7 33 -7 56.5t-44 35t-60.5 16.5t-66.5 5l31 148q202 0 239 173l25 115h148l-25 -115q-21 -95 -70 -163z" />
    <glyph glyph-name="lochulathai" unicode="&#xe2c;" horiz-adv-x="1138" 
d="M1204 997v-1q-33 -46 -73 -76q78 -69 51 -193l-107 -502q-21 -99 -112.5 -168t-200.5 -69h-37q-101 0 -159 58q-84 -58 -173 -58h-35q-102 0 -160.5 69t-37.5 168l170 800h147l-170 -800q-8 -37 16.5 -63.5t65.5 -26.5h35q41 0 76 26.5t43 63.5l79 369h148l-79 -369
q-4 -18 -16 -50q21 -40 81 -40h37q45 0 86 28t48 62l107 501q7 33 -7 56.5t-44 35t-60.5 16.5t-66.5 5l31 148q202 0 239 173l25 115h148l-25 -115q-21 -95 -70 -163z" />
    <glyph glyph-name="oangthai" unicode="&#xcd;" horiz-adv-x="1027" 
d="M994 951q109 -87 80 -226l-90 -422q-29 -135 -159 -225.5t-282 -90.5h-60q-100 0 -177 40.5t-113.5 113.5t-17.5 162l51 240h146l-51 -240q-15 -67 40.5 -118t152.5 -51h60q96 0 171.5 50.5t90.5 118.5l90 422q13 64 -53 111.5t-200 47.5q-152 0 -365 -78l-25 138
q244 89 422 89q183 0 289 -82z" />
    <glyph glyph-name="oangthai" unicode="&#xe2d;" horiz-adv-x="1027" 
d="M994 951q109 -87 80 -226l-90 -422q-29 -135 -159 -225.5t-282 -90.5h-60q-100 0 -177 40.5t-113.5 113.5t-17.5 162l51 240h146l-51 -240q-15 -67 40.5 -118t152.5 -51h60q96 0 171.5 50.5t90.5 118.5l90 422q13 64 -53 111.5t-200 47.5q-152 0 -365 -78l-25 138
q244 89 422 89q183 0 289 -82z" />
    <glyph glyph-name="honokhukthai" unicode="&#xce;" horiz-adv-x="1027" 
d="M1153 1100q-21 -104 -129 -180q73 -81 50 -195l-90 -423q-29 -133 -159 -224.5t-282 -91.5h-60q-152 0 -244.5 91t-63.5 225l51 241h147l-51 -240q-13 -69 41 -119t151 -50h60q95 0 171 50.5t91 117.5l90 423q13 63 -52.5 111t-200.5 48q-152 0 -365 -78l-26 138
q245 89 423 89q101 0 192 -31q40 14 74.5 41.5t33.5 56.5h148z" />
    <glyph glyph-name="honokhukthai" unicode="&#xe2e;" horiz-adv-x="1027" 
d="M1153 1100q-21 -104 -129 -180q73 -81 50 -195l-90 -423q-29 -133 -159 -224.5t-282 -91.5h-60q-152 0 -244.5 91t-63.5 225l51 241h147l-51 -240q-13 -69 41 -119t151 -50h60q95 0 171 50.5t91 117.5l90 423q13 63 -52.5 111t-200.5 48q-152 0 -365 -78l-26 138
q245 89 423 89q101 0 192 -31q40 14 74.5 41.5t33.5 56.5h148z" />
    <glyph glyph-name="paiyannoithai" unicode="&#xcf;" horiz-adv-x="973" 
d="M981 1028h100l-192 -905q-36 -113 -71 -113h-100l129 609q-195 -96 -357 -98q-68 0 -123 20t-86 56h1q-67 74 -41 189q30 146 208 288l80 -109q-123 -97 -140 -179q-10 -49 16 -80q32 -37 117 -37q148 0 362 122l26 124q35 113 71 113z" />
    <glyph glyph-name="paiyannoithai" unicode="&#xe2f;" horiz-adv-x="973" 
d="M981 1028h100l-192 -905q-36 -113 -71 -113h-100l129 609q-195 -96 -357 -98q-68 0 -123 20t-86 56h1q-67 74 -41 189q30 146 208 288l80 -109q-123 -97 -140 -179q-10 -49 16 -80q32 -37 117 -37q148 0 362 122l26 124q35 113 71 113z" />
    <glyph glyph-name="saraathai" unicode="&#xd0;" horiz-adv-x="574" 
d="M657 754l-21 -100h-307q-46 7 -68.5 19t-18.5 30l20 100h307q46 -6 69 -18.5t19 -30.5zM565 321l-21 -99h-307q-45 5 -68 17.5t-19 30.5l20 100h307q47 -8 69.5 -20t18.5 -29z" />
    <glyph glyph-name="saraathai" unicode="&#xe30;" horiz-adv-x="574" 
d="M657 754l-21 -100h-307q-46 7 -68.5 19t-18.5 30l20 100h307q46 -6 69 -18.5t19 -30.5zM565 321l-21 -99h-307q-45 5 -68 17.5t-19 30.5l20 100h307q47 -8 69.5 -20t18.5 -29z" />
    <glyph glyph-name="maihanakatthai" unicode="&#xd1;" 
d="M-186 1305l431 2l-32 -151h-578l59 278h108q34 0 22 -82z" />
    <glyph glyph-name="maihanakatthai" unicode="&#xe31;" 
d="M-186 1305l431 2l-32 -151h-578l59 278h108q34 0 22 -82z" />
    <glyph glyph-name="saraaathai" unicode="&#xd2;" horiz-adv-x="836" 
d="M887 724l-153 -724h-148l153 724q15 67 -34.5 115.5t-158.5 48.5q-124 0 -322 -83l-33 135q231 97 387 97q166 0 252 -90t57 -223z" />
    <glyph glyph-name="saraaathai" unicode="&#xe32;" horiz-adv-x="836" 
d="M887 724l-153 -724h-148l153 724q15 67 -34.5 115.5t-158.5 48.5q-124 0 -322 -83l-33 135q231 97 387 97q166 0 252 -90t57 -223z" />
    <glyph glyph-name="saraamthai" unicode="&#xd3;" horiz-adv-x="847" 
d="M893 724l-153 -724h-148l153 724q15 67 -34.5 115.5t-158.5 48.5q-124 0 -322 -83l-33 135q231 97 387 97q166 0 252 -90t57 -223zM6 1441q72 0 113.5 -52.5t25.5 -124.5q-16 -74 -78.5 -125.5t-134.5 -51.5q-75 0 -115.5 51t-24.5 126q16 73 78 125t136 52zM-44 1202
q25 0 46 18t26 44q5 25 -8.5 42.5t-37.5 17.5q-26 0 -47 -17.5t-26 -42.5q-5 -26 8.5 -44t38.5 -18z" />
    <glyph glyph-name="saraamthai" unicode="&#xe33;" horiz-adv-x="847" 
d="M893 724l-153 -724h-148l153 724q15 67 -34.5 115.5t-158.5 48.5q-124 0 -322 -83l-33 135q231 97 387 97q166 0 252 -90t57 -223zM6 1441q72 0 113.5 -52.5t25.5 -124.5q-16 -74 -78.5 -125.5t-134.5 -51.5q-75 0 -115.5 51t-24.5 126q16 73 78 125t136 52zM-44 1202
q25 0 46 18t26 44q5 25 -8.5 42.5t-37.5 17.5q-26 0 -47 -17.5t-26 -42.5q-5 -26 8.5 -44t38.5 -18z" />
    <glyph glyph-name="saraithai" unicode="&#xd4;" 
d="M66 1304q49 -7 71 -18t18 -31l-21 -99h-805l21 99q7 35 111 49h605z" />
    <glyph glyph-name="saraithai" unicode="&#xe34;" 
d="M66 1304q49 -7 71 -18t18 -31l-21 -99h-805l21 99q7 35 111 49h605z" />
    <glyph glyph-name="saraiithai" unicode="&#xd5;" 
d="M81 1376h100l-47 -220h-805l21 99q7 35 108 49h563q28 72 60 72z" />
    <glyph glyph-name="saraiithai" unicode="&#xe35;" 
d="M81 1376h100l-47 -220h-805l21 99q7 35 108 49h563q28 72 60 72z" />
    <glyph glyph-name="sarauethai" unicode="&#xd6;" 
d="M92 1407q51 0 80.5 -37t18.5 -89t-56.5 -88.5t-96.5 -36.5h-708l21 99q7 35 110 49h485q17 45 58 74t88 29z" />
    <glyph glyph-name="sarauethai" unicode="&#xe36;" 
d="M92 1407q51 0 80.5 -37t18.5 -89t-56.5 -88.5t-96.5 -36.5h-708l21 99q7 35 110 49h485q17 45 58 74t88 29z" />
    <glyph glyph-name="saraueethai" unicode="&#xd7;" 
d="M180 1374l-47 -218h-798l21 98q8 34 107 48h327q28 72 59 72h99l-16 -72h89q28 72 60 72h99z" />
    <glyph glyph-name="saraueethai" unicode="&#xe37;" 
d="M180 1374l-47 -218h-798l21 98q8 34 107 48h327q28 72 59 72h99l-16 -72h89q28 72 60 72h99z" />
    <glyph glyph-name="sarauthai" unicode="&#xd8;" 
d="M-502 -140h194l-67 -312h-144l27 123q3 8 8 21.5t7 19.5h-57z" />
    <glyph glyph-name="sarauthai" unicode="&#xe38;" 
d="M-502 -140h194l-67 -312h-144l27 123q3 8 8 21.5t7 19.5h-57z" />
    <glyph glyph-name="sarauuthai" unicode="&#xd9;" 
d="M-278 -135h138l-31 -144q-17 -80 -96 -129.5t-156 -49.5q-72 0 -130 45t-45 119q3 6 3 11h-50l32 148h185l-32 -148q-1 -13 23.5 -30.5t40.5 -17.5q17 0 50.5 18t36.5 34z" />
    <glyph glyph-name="sarauuthai" unicode="&#xe39;" 
d="M-278 -135h138l-31 -144q-17 -80 -96 -129.5t-156 -49.5q-72 0 -130 45t-45 119q3 6 3 11h-50l32 148h185l-32 -148q-1 -13 23.5 -30.5t40.5 -17.5q17 0 50.5 18t36.5 34z" />
    <glyph glyph-name="phinthuthai" unicode="&#xda;" 
d="M-276 -254q-10 -48 -51.5 -81t-88.5 -33q-48 0 -73.5 33t-14.5 81q10 47 49.5 80.5t87.5 33.5q47 0 74 -33.5t17 -80.5z" />
    <glyph glyph-name="phinthuthai" unicode="&#xe3a;" 
d="M-276 -254q-10 -48 -51.5 -81t-88.5 -33q-48 0 -73.5 33t-14.5 81q10 47 49.5 80.5t87.5 33.5q47 0 74 -33.5t17 -80.5z" />
    <glyph glyph-name="nptp3.001march2007p" unicode="&#xdb;" 
 />
    <glyph glyph-name="nptp3.001march2007p" unicode="&#xe3b;" 
 />
    <glyph glyph-name="nptp3.001march2007u" unicode="&#xdc;" 
 />
    <glyph glyph-name="nptp3.001march2007u" unicode="&#xe3c;" 
 />
    <glyph glyph-name="nptp3.001march2007c" unicode="&#xdd;" 
 />
    <glyph glyph-name="nptp3.001march2007c" unicode="&#xe3d;" 
 />
    <glyph glyph-name="bahtthai" unicode="&#xdf;" horiz-adv-x="1261" 
d="M788 1288h147l-29 -136q83 -2 132 -7q132 -17 175 -91t12 -221q-28 -130 -100 -194q52 -37 62.5 -108.5t-12.5 -165.5q-17 -82 -41.5 -141.5t-60 -99.5t-73.5 -64.5t-95 -37.5t-110.5 -17t-132.5 -5l-26 -120h-147l26 120q-59 0 -185 0.5t-181 0.5l244 1151h366z
M1028 366q6 27 8.5 47.5t1 38t-4 30t-13.5 23t-20 17t-30.5 11t-38 7t-49.5 3.5t-58.5 1.5t-70.5 0.5h-342l-84 -397q57 1 158.5 2.5t185.5 2.5t158 1q45 5 73.5 14.5t53.5 32t42 62t30 101.5v2zM509 1006l-66 -313q62 0 186.5 -0.5t186.5 -0.5q138 0 198 30q22 11 37 35.5
t26 76.5q9 42 10.5 69t-9.5 47t-27 30.5t-54 16.5t-78 7.5t-111 1.5h-299z" />
    <glyph glyph-name="bahtthai" unicode="&#xe3f;" horiz-adv-x="1261" 
d="M788 1288h147l-29 -136q83 -2 132 -7q132 -17 175 -91t12 -221q-28 -130 -100 -194q52 -37 62.5 -108.5t-12.5 -165.5q-17 -82 -41.5 -141.5t-60 -99.5t-73.5 -64.5t-95 -37.5t-110.5 -17t-132.5 -5l-26 -120h-147l26 120q-59 0 -185 0.5t-181 0.5l244 1151h366z
M1028 366q6 27 8.5 47.5t1 38t-4 30t-13.5 23t-20 17t-30.5 11t-38 7t-49.5 3.5t-58.5 1.5t-70.5 0.5h-342l-84 -397q57 1 158.5 2.5t185.5 2.5t158 1q45 5 73.5 14.5t53.5 32t42 62t30 101.5v2zM509 1006l-66 -313q62 0 186.5 -0.5t186.5 -0.5q138 0 198 30q22 11 37 35.5
t26 76.5q9 42 10.5 69t-9.5 47t-27 30.5t-54 16.5t-78 7.5t-111 1.5h-299z" />
    <glyph glyph-name="saraethai" unicode="&#xe0;" horiz-adv-x="377" 
d="M124 0l215 1015h149l-215 -1015h-149z" />
    <glyph glyph-name="saraethai" unicode="&#xe40;" horiz-adv-x="377" 
d="M124 0l215 1015h149l-215 -1015h-149z" />
    <glyph glyph-name="saraaethai" unicode="&#xe1;" horiz-adv-x="702" 
d="M121 0l215 1015h148l-215 -1015h-148zM450 0l215 1015h149l-215 -1015h-149z" />
    <glyph glyph-name="saraaethai" unicode="&#xe41;" horiz-adv-x="702" 
d="M121 0l215 1015h148l-215 -1015h-148zM450 0l215 1015h149l-215 -1015h-149z" />
    <glyph glyph-name="saraothai" unicode="&#xe2;" horiz-adv-x="417" 
d="M809 1523l-31 -149h-244q22 -45 26 -109.5t-9 -117.5l-243 -1146h-149l246 1162q30 144 -107 221l29 139h482z" />
    <glyph glyph-name="saraothai" unicode="&#xe42;" horiz-adv-x="417" 
d="M809 1523l-31 -149h-244q22 -45 26 -109.5t-9 -117.5l-243 -1146h-149l246 1162q30 144 -107 221l29 139h482z" />
    <glyph glyph-name="saraaimaimuanthai" unicode="&#xe3;" horiz-adv-x="509" 
d="M750 1465q58 -68 37 -166l-21 -98l-163 -222l-208 -979h-148l211 996l162 226l17 77q7 34 -14.5 58.5t-60.5 24.5h-34q-39 0 -72.5 -33t-43.5 -79h-150q24 110 111.5 185.5t186.5 75.5h34q99 0 156 -66z" />
    <glyph glyph-name="saraaimaimuanthai" unicode="&#xe43;" horiz-adv-x="509" 
d="M750 1465q58 -68 37 -166l-21 -98l-163 -222l-208 -979h-148l211 996l162 226l17 77q7 34 -14.5 58.5t-60.5 24.5h-34q-39 0 -72.5 -33t-43.5 -79h-150q24 110 111.5 185.5t186.5 75.5h34q99 0 156 -66z" />
    <glyph glyph-name="saraaimaimalaithai" unicode="&#xe4;" horiz-adv-x="470" 
d="M784 1518l-7 -36q-11 -42 -32 -87l-179 -410l-209 -985h-150l210 992l119 268q-19 -3 -39 -3h-33q-100 0 -155.5 75.5t-32.5 185.5h150q-9 -45 10.5 -78t59.5 -33h33q29 0 56 12.5t34 32.5l29 66h136z" />
    <glyph glyph-name="saraaimaimalaithai" unicode="&#xe44;" horiz-adv-x="470" 
d="M784 1518l-7 -36q-11 -42 -32 -87l-179 -410l-209 -985h-150l210 992l119 268q-19 -3 -39 -3h-33q-100 0 -155.5 75.5t-32.5 185.5h150q-9 -45 10.5 -78t59.5 -33h33q29 0 56 12.5t34 32.5l29 66h136z" />
    <glyph glyph-name="lakkhangyaothai" unicode="&#xe5;" horiz-adv-x="864" 
d="M908 714l-242 -1142h-146l242 1141q12 67 -36 115t-156 48q-122 0 -318 -83l-33 134q225 96 382 96q166 0 250.5 -89.5t56.5 -219.5z" />
    <glyph glyph-name="lakkhangyaothai" unicode="&#xe45;" horiz-adv-x="864" 
d="M908 714l-242 -1142h-146l242 1141q12 67 -36 115t-156 48q-122 0 -318 -83l-33 134q225 96 382 96q166 0 250.5 -89.5t56.5 -219.5z" />
    <glyph glyph-name="maiyamokthai" unicode="&#xe6;" horiz-adv-x="1102" 
d="M987 932q45 -52 62 -120.5t1 -145.5l-232 -1094h-146l232 1094q12 57 -8.5 106t-67.5 82q-29 -13 -91 -42t-65 -31l-126 74q-60 -34 -101.5 -83.5t-53.5 -105.5l-39 -184h-100q-35 0 -26 97l18 87q25 117 119.5 213t220.5 139l123 -72q27 12 81 37.5t72 33.5
q80 -32 127 -85z" />
    <glyph glyph-name="maiyamokthai" unicode="&#xe46;" horiz-adv-x="1102" 
d="M987 932q45 -52 62 -120.5t1 -145.5l-232 -1094h-146l232 1094q12 57 -8.5 106t-67.5 82q-29 -13 -91 -42t-65 -31l-126 74q-60 -34 -101.5 -83.5t-53.5 -105.5l-39 -184h-100q-35 0 -26 97l18 87q25 117 119.5 213t220.5 139l123 -72q27 12 81 37.5t72 33.5
q80 -32 127 -85z" />
    <glyph glyph-name="maitaikhuthai" unicode="&#xe7;" 
d="M-230 1381q-9 -7 -14 -23l-16 -78q-3 -16 6.5 -23t29.5 -7q16 0 26 4q2 7 9 32h147l-8 -37q10 -4 21 -4q19 0 36 16.5t26 49.5h145q-21 -98 -92 -155t-146 -57q-58 0 -94 26q-46 -21 -101 -21q-75 0 -122 45.5t-30 129.5l18 82q17 80 81 126t136 48h455l-31 -147h-454
q-16 0 -28 -7z" />
    <glyph glyph-name="maitaikhuthai" unicode="&#xe47;" 
d="M-230 1381q-9 -7 -14 -23l-16 -78q-3 -16 6.5 -23t29.5 -7q16 0 26 4q2 7 9 32h147l-8 -37q10 -4 21 -4q19 0 36 16.5t26 49.5h145q-21 -98 -92 -155t-146 -57q-58 0 -94 26q-46 -21 -101 -21q-75 0 -122 45.5t-30 129.5l18 82q17 80 81 126t136 48h455l-31 -147h-454
q-16 0 -28 -7z" />
    <glyph glyph-name="maiekthai" unicode="&#xe8;" 
d="M280 1827l-71 -331h-147l71 331h147z" />
    <glyph glyph-name="maiekthai" unicode="&#xe48;" 
d="M280 1827l-71 -331h-147l71 331h147z" />
    <glyph glyph-name="maithothai" unicode="&#xe9;" 
d="M-119 1646h434l-31 -146h-579l23 108l3.5 10.5t4.5 11.5h-50l31 146h192z" />
    <glyph glyph-name="maithothai" unicode="&#xe49;" 
d="M-119 1646h434l-31 -146h-579l23 108l3.5 10.5t4.5 11.5h-50l31 146h192z" />
    <glyph glyph-name="maitrithai" unicode="&#xea;" 
d="M337 1808l-25 -119q-16 -74 -75 -132t-150 -89h-69q-34 0 -26 92l5 23q10 52 -24 78q-89 -34 -108 -42l-88 42q-48 -31 -59 -78l-24 -115h-94q-15 0 -22 25.5t-3 69.5l4 20q16 75 82.5 142.5t140.5 84.5l94 -39q27 10 105 42q24 -8 25 -9q52 -24 82.5 -69.5t30.5 -102.5
q30 23 38 57l25 119h135z" />
    <glyph glyph-name="maitrithai" unicode="&#xe4a;" 
d="M337 1808l-25 -119q-16 -74 -75 -132t-150 -89h-69q-34 0 -26 92l5 23q10 52 -24 78q-89 -34 -108 -42l-88 42q-48 -31 -59 -78l-24 -115h-94q-15 0 -22 25.5t-3 69.5l4 20q16 75 82.5 142.5t140.5 84.5l94 -39q27 10 105 42q24 -8 25 -9q52 -24 82.5 -69.5t30.5 -102.5
q30 23 38 57l25 119h135z" />
    <glyph glyph-name="maichattawathai" unicode="&#xeb;" 
d="M269 1745l-31 -147h-102l-22 -102h-146l22 102h-102l31 147h101l22 101h109q31 0 21 -81l-5 -20h102z" />
    <glyph glyph-name="maichattawathai" unicode="&#xe4b;" 
d="M269 1745l-31 -147h-102l-22 -102h-146l22 102h-102l31 147h101l22 101h109q31 0 21 -81l-5 -20h102z" />
    <glyph glyph-name="thanthakhatthai" unicode="&#xec;" 
d="M318 1553l-415 -34q-22 -80 -56 -80h-107l46 216l551 45z" />
    <glyph glyph-name="thanthakhatthai" unicode="&#xe4c;" 
d="M318 1553l-415 -34q-22 -80 -56 -80h-107l46 216l551 45z" />
    <glyph glyph-name="nikhahitthai" unicode="&#xed;" 
d="M-18 1447q71 0 112.5 -52.5t25.5 -124.5q-16 -74 -78.5 -125.5t-134.5 -51.5q-75 0 -115.5 51t-24.5 126q16 73 78.5 125t136.5 52zM-69 1208q25 0 46.5 18.5t25.5 43.5q6 25 -7.5 42.5t-38.5 17.5t-46 -17t-27 -43q-5 -26 8.5 -44t38.5 -18z" />
    <glyph glyph-name="nikhahitthai" unicode="&#xe4d;" 
d="M-18 1447q71 0 112.5 -52.5t25.5 -124.5q-16 -74 -78.5 -125.5t-134.5 -51.5q-75 0 -115.5 51t-24.5 126q16 73 78.5 125t136.5 52zM-69 1208q25 0 46.5 18.5t25.5 43.5q6 25 -7.5 42.5t-38.5 17.5t-46 -17t-27 -43q-5 -26 8.5 -44t38.5 -18z" />
    <glyph glyph-name="yamakkanthai" unicode="&#xee;" 
d="M-271 1270q18 85 120 142q-9 22 -3 50q17 78 115 135t202 57q70 0 174 -40l-28 -129q-33 8 -67.5 20.5t-56 18t-49.5 5.5q-48 0 -104 -21.5t-61 -45.5q1 0 50 -13l43 -15l-22 -106h-48q-4 0 -18.5 1t-17.5 1q-28 0 -64 -22t-40 -38q-4 -18 13 -30t48 -12q42 0 66.5 17.5
t57.5 60.5h128l-58 -96q-80 -107 -221 -107q-85 0 -129.5 48t-29.5 119z" />
    <glyph glyph-name="yamakkanthai" unicode="&#xe4e;" 
d="M-271 1270q18 85 120 142q-9 22 -3 50q17 78 115 135t202 57q70 0 174 -40l-28 -129q-33 8 -67.5 20.5t-56 18t-49.5 5.5q-48 0 -104 -21.5t-61 -45.5q1 0 50 -13l43 -15l-22 -106h-48q-4 0 -18.5 1t-17.5 1q-28 0 -64 -22t-40 -38q-4 -18 13 -30t48 -12q42 0 66.5 17.5
t57.5 60.5h128l-58 -96q-80 -107 -221 -107q-85 0 -129.5 48t-29.5 119z" />
    <glyph glyph-name="fongmanthai" unicode="&#xef;" horiz-adv-x="862" 
d="M469 243q-121 0 -188.5 86.5t-41.5 206.5q26 122 130 207t224 85t189 -84.5t42 -207.5q-25 -122 -129 -207.5t-226 -85.5z" />
    <glyph glyph-name="fongmanthai" unicode="&#xe4f;" horiz-adv-x="862" 
d="M469 243q-121 0 -188.5 86.5t-41.5 206.5q26 122 130 207t224 85t189 -84.5t42 -207.5q-25 -122 -129 -207.5t-226 -85.5z" />
    <glyph glyph-name="zerothai" unicode="&#xf0;" horiz-adv-x="1103" 
d="M1026 829q48 -40 69.5 -97t7.5 -123l-63 -296q-28 -129 -162.5 -214t-293.5 -85h-63q-103 0 -184.5 37t-122 106.5t-22.5 155.5l63 296q28 130 163 214.5t294 84.5h63q155 0 251 -79zM894 313l63 296q12 59 -48.5 105.5t-165.5 46.5h-63q-105 0 -185.5 -46t-92.5 -106
l-63 -296q-12 -60 48.5 -106.5t165.5 -46.5h63q104 0 185 47t93 106z" />
    <glyph glyph-name="zerothai" unicode="&#xe50;" horiz-adv-x="1103" 
d="M1026 829q48 -40 69.5 -97t7.5 -123l-63 -296q-28 -129 -162.5 -214t-293.5 -85h-63q-103 0 -184.5 37t-122 106.5t-22.5 155.5l63 296q28 130 163 214.5t294 84.5h63q155 0 251 -79zM894 313l63 296q12 59 -48.5 105.5t-165.5 46.5h-63q-105 0 -185.5 -46t-92.5 -106
l-63 -296q-12 -60 48.5 -106.5t165.5 -46.5h63q104 0 185 47t93 106z" />
    <glyph glyph-name="onethai" unicode="&#xf1;" horiz-adv-x="1108" 
d="M1031 833q49 -40 70.5 -97t7.5 -123l-63 -297q-28 -130 -172 -216t-328 -86q-182 0 -372 99l90 132q166 -85 314 -85q131 0 220.5 48.5t101.5 107.5l63 297q12 59 -49 105.5t-165 46.5h-64q-104 0 -185 -46.5t-93 -105.5l-16 -75h72l-21 -99q-8 -36 -108 -47h-120l47 221
q27 129 161.5 214t293.5 85h64q154 0 251 -79z" />
    <glyph glyph-name="onethai" unicode="&#xe51;" horiz-adv-x="1108" 
d="M1031 833q49 -40 70.5 -97t7.5 -123l-63 -297q-28 -130 -172 -216t-328 -86q-182 0 -372 99l90 132q166 -85 314 -85q131 0 220.5 48.5t101.5 107.5l63 297q12 59 -49 105.5t-165 46.5h-64q-104 0 -185 -46.5t-93 -105.5l-16 -75h72l-21 -99q-8 -36 -108 -47h-120l47 221
q27 129 161.5 214t293.5 85h64q154 0 251 -79z" />
    <glyph glyph-name="twothai" unicode="&#xf2;" horiz-adv-x="1278" 
d="M1220 794l1 -1q70 -80 45 -191l-54 -257q-20 -93 -90.5 -169.5t-169.5 -119t-203 -42.5h-223q-160 0 -255.5 95t-65.5 236l148 697h99q20 0 25 -30t-1 -82l-124 -585q-16 -74 43 -129.5t163 -55.5h223q104 0 186 55.5t98 129.5q8 36 26.5 123t28.5 134q10 43 -21 83
q-2 4 -14 10q-12 -3 -193 -46l-170 46q-60 -37 -72 -93l-26 -124h-148l26 124q18 84 90.5 158t153.5 93l181 -45q32 8 99 23.5t98 23.5q63 -26 96 -61z" />
    <glyph glyph-name="twothai" unicode="&#xe52;" horiz-adv-x="1278" 
d="M1220 794l1 -1q70 -80 45 -191l-54 -257q-20 -93 -90.5 -169.5t-169.5 -119t-203 -42.5h-223q-160 0 -255.5 95t-65.5 236l148 697h99q20 0 25 -30t-1 -82l-124 -585q-16 -74 43 -129.5t163 -55.5h223q104 0 186 55.5t98 129.5q8 36 26.5 123t28.5 134q10 43 -21 83
q-2 4 -14 10q-12 -3 -193 -46l-170 46q-60 -37 -72 -93l-26 -124h-148l26 124q18 84 90.5 158t153.5 93l181 -45q32 8 99 23.5t98 23.5q63 -26 96 -61z" />
    <glyph glyph-name="threethai" unicode="&#xf3;" horiz-adv-x="1226" 
d="M1124 778v-1q50 -59 68 -136t1 -158l-97 -455h-147l97 455q14 67 -10 125t-83 96q-18 -7 -96 -37t-116 -45l-179 83q-74 -37 -122 -95.5t-63 -126.5q-4 -19 -12.5 -56.5t-12.5 -55.5q-7 -43 -4 -75.5t20.5 -56.5t40 -39.5t54.5 -25t62.5 -13.5t64.5 -4l-31 -146
q-39 0 -76.5 4.5t-79 15.5t-74.5 29.5t-63.5 46t-46 65t-22 87t8.5 112.5l23 112q26 123 128 230t244 155l177 -81q75 30 207 81q88 -34 139 -90z" />
    <glyph glyph-name="threethai" unicode="&#xe53;" horiz-adv-x="1226" 
d="M1124 778v-1q50 -59 68 -136t1 -158l-97 -455h-147l97 455q14 67 -10 125t-83 96q-18 -7 -96 -37t-116 -45l-179 83q-74 -37 -122 -95.5t-63 -126.5q-4 -19 -12.5 -56.5t-12.5 -55.5q-7 -43 -4 -75.5t20.5 -56.5t40 -39.5t54.5 -25t62.5 -13.5t64.5 -4l-31 -146
q-39 0 -76.5 4.5t-79 15.5t-74.5 29.5t-63.5 46t-46 65t-22 87t8.5 112.5l23 112q26 123 128 230t244 155l177 -81q75 30 207 81q88 -34 139 -90z" />
    <glyph glyph-name="fourthai" unicode="&#xf4;" horiz-adv-x="1098" 
d="M464 641q-79 -54 -94 -126l-36 -170q-15 -73 44.5 -129t162.5 -56l32 1q111 0 166 34q-6 71 20 188h147q-31 -125 -2.5 -170t154.5 -45l-31 -148q-170 3 -231 53q-100 -59 -255 -59h-32q-161 0 -256 95t-65 236l36 170q30 139 166.5 235.5t296.5 96.5h168q104 0 186 54.5
t97 128.5l22 100h147l-22 -100q-30 -139 -166.5 -234.5t-295.5 -95.5h-168q-109 0 -191 -59z" />
    <glyph glyph-name="fourthai" unicode="&#xe54;" horiz-adv-x="1098" 
d="M464 641q-79 -54 -94 -126l-36 -170q-15 -73 44.5 -129t162.5 -56l32 1q111 0 166 34q-6 71 20 188h147q-31 -125 -2.5 -170t154.5 -45l-31 -148q-170 3 -231 53q-100 -59 -255 -59h-32q-161 0 -256 95t-65 236l36 170q30 139 166.5 235.5t296.5 96.5h168q104 0 186 54.5
t97 128.5l22 100h147l-22 -100q-30 -139 -166.5 -234.5t-295.5 -95.5h-168q-109 0 -191 -59z" />
    <glyph glyph-name="fivethai" unicode="&#xf5;" horiz-adv-x="1098" 
d="M464 641q-78 -55 -93 -125l-36 -171q-16 -74 43 -129t163 -55h32q117 0 166 34q-5 64 21 188h146q-32 -121 -3.5 -168t155.5 -47l-31 -146q-170 0 -232 51q-103 -59 -254 -59h-32q-159 0 -255 95.5t-66 235.5l36 171q27 126 140 215.5t255 109.5q0 23 4 43
q16 72 78.5 124t136.5 52q73 0 114 -52t25 -124q-2 -11 1 -9v-1l-4 -6q67 23 110 66.5t54 95.5l22 100h147l-22 -100q-19 -93 -90 -169.5t-169.5 -118.5t-201.5 -42h-169q-107 0 -191 -59zM816 951q-26 0 -50 -19.5t-29 -45.5q-6 -26 9.5 -45t41.5 -19t49 19t29 45
q5 26 -9.5 45.5t-40.5 19.5z" />
    <glyph glyph-name="fivethai" unicode="&#xe55;" horiz-adv-x="1098" 
d="M464 641q-78 -55 -93 -125l-36 -171q-16 -74 43 -129t163 -55h32q117 0 166 34q-5 64 21 188h146q-32 -121 -3.5 -168t155.5 -47l-31 -146q-170 0 -232 51q-103 -59 -254 -59h-32q-159 0 -255 95.5t-66 235.5l36 171q27 126 140 215.5t255 109.5q0 23 4 43
q16 72 78.5 124t136.5 52q73 0 114 -52t25 -124q-2 -11 1 -9v-1l-4 -6q67 23 110 66.5t54 95.5l22 100h147l-22 -100q-19 -93 -90 -169.5t-169.5 -118.5t-201.5 -42h-169q-107 0 -191 -59zM816 951q-26 0 -50 -19.5t-29 -45.5q-6 -26 9.5 -45t41.5 -19t49 19t29 45
q5 26 -9.5 45.5t-40.5 19.5z" />
    <glyph glyph-name="sixthai" unicode="&#xf6;" horiz-adv-x="1092" 
d="M1098 609l-62 -296q-18 -86 -89 -155.5t-168 -106.5t-199 -37h-64q-102 0 -183.5 37t-122 106.5t-22.5 155.5l26 124h146l-26 -124q-12 -60 49 -106t165 -46h64q104 0 184 46t93 106l62 296q13 60 -57 108.5t-199 48.5q-151 0 -349 -85l-90 343h159l43 -156
q151 45 269 45q116 0 206.5 -37t136.5 -107.5t28 -159.5z" />
    <glyph glyph-name="sixthai" unicode="&#xe56;" horiz-adv-x="1092" 
d="M1098 609l-62 -296q-18 -86 -89 -155.5t-168 -106.5t-199 -37h-64q-102 0 -183.5 37t-122 106.5t-22.5 155.5l26 124h146l-26 -124q-12 -60 49 -106t165 -46h64q104 0 184 46t93 106l62 296q13 60 -57 108.5t-199 48.5q-151 0 -349 -85l-90 343h159l43 -156
q151 45 269 45q116 0 206.5 -37t136.5 -107.5t28 -159.5z" />
    <glyph glyph-name="seventhai" unicode="&#xf7;" horiz-adv-x="1466" 
d="M1443 1044h99l-149 -705q-19 -82 -49 -140.5t-63 -91.5t-80.5 -51.5t-89.5 -23.5t-102 -5h-73l97 455q14 68 -10 126.5t-83 96.5q-21 -8 -211 -83l-179 83q-75 -38 -123 -96t-63 -127q-4 -19 -12.5 -56t-12.5 -55q-14 -62 2.5 -106.5t56 -66.5t83.5 -31.5t96 -9.5
l-31 -147q-31 0 -62 3t-67 10.5t-66.5 20.5t-61.5 32.5t-51.5 46.5t-36.5 63t-16.5 82t8.5 103l23 111q25 124 126.5 230t244.5 157l177 -83q114 47 210 83q122 -51 177 -156.5t29 -230.5l-65 -307q58 9 85.5 44t49.5 139l122 574q35 112 71 112z" />
    <glyph glyph-name="seventhai" unicode="&#xe57;" horiz-adv-x="1466" 
d="M1443 1044h99l-149 -705q-19 -82 -49 -140.5t-63 -91.5t-80.5 -51.5t-89.5 -23.5t-102 -5h-73l97 455q14 68 -10 126.5t-83 96.5q-21 -8 -211 -83l-179 83q-75 -38 -123 -96t-63 -127q-4 -19 -12.5 -56t-12.5 -55q-14 -62 2.5 -106.5t56 -66.5t83.5 -31.5t96 -9.5
l-31 -147q-31 0 -62 3t-67 10.5t-66.5 20.5t-61.5 32.5t-51.5 46.5t-36.5 63t-16.5 82t8.5 103l23 111q25 124 126.5 230t244.5 157l177 -83q114 47 210 83q122 -51 177 -156.5t29 -230.5l-65 -307q58 9 85.5 44t49.5 139l122 574q35 112 71 112z" />
    <glyph glyph-name="eightthai" unicode="&#xf8;" horiz-adv-x="1155" 
d="M462 625q-77 -55 -92 -125l-53 -250q-8 -36 15 -63t65 -27h35q41 0 76 27t43 63l17 81h146l-17 -81q-5 -26 -17 -49q23 -41 81 -41h37q45 0 84.5 27.5t47.5 62.5l40 192h147l-40 -192q-22 -99 -113 -167.5t-198 -68.5h-37q-42 0 -88 15t-72 41q-79 -56 -169 -56h-35
q-100 0 -158 68t-37 168l53 250q19 93 90 169.5t170.5 119t202.5 42.5h168q102 0 184.5 55t99.5 130l21 98h146l-21 -99q-19 -93 -90 -169.5t-169 -119t-202 -42.5h-168q-108 0 -193 -59z" />
    <glyph glyph-name="eightthai" unicode="&#xe58;" horiz-adv-x="1155" 
d="M462 625q-77 -55 -92 -125l-53 -250q-8 -36 15 -63t65 -27h35q41 0 76 27t43 63l17 81h146l-17 -81q-5 -26 -17 -49q23 -41 81 -41h37q45 0 84.5 27.5t47.5 62.5l40 192h147l-40 -192q-22 -99 -113 -167.5t-198 -68.5h-37q-42 0 -88 15t-72 41q-79 -56 -169 -56h-35
q-100 0 -158 68t-37 168l53 250q19 93 90 169.5t170.5 119t202.5 42.5h168q102 0 184.5 55t99.5 130l21 98h146l-21 -99q-19 -93 -90 -169.5t-169 -119t-202 -42.5h-168q-108 0 -193 -59z" />
    <glyph glyph-name="ninethai" unicode="&#xf9;" horiz-adv-x="1079" 
d="M1284 1037q-23 -109 -112 -191.5t-210 -118.5q66 -108 32 -273q-31 -152 -18 -219.5t72 -75.5l-51 -146q-49 7 -84 27t-54.5 51.5t-29 69t-8.5 86.5t7.5 96.5t18.5 106.5q12 68 6 115t-32 77t-55.5 44.5t-65.5 18.5h-47q-104 0 -187 -54.5t-98 -128.5l-29 -145
q-25 -119 16 -161.5t139 -42.5h183l-31 -145h-229q-292 23 -225 349l29 145q19 92 90.5 168.5t171 119t202.5 42.5h167q104 0 186.5 55.5t98.5 129.5l21 99h147z" />
    <glyph glyph-name="ninethai" unicode="&#xe59;" horiz-adv-x="1079" 
d="M1284 1037q-23 -109 -112 -191.5t-210 -118.5q66 -108 32 -273q-31 -152 -18 -219.5t72 -75.5l-51 -146q-49 7 -84 27t-54.5 51.5t-29 69t-8.5 86.5t7.5 96.5t18.5 106.5q12 68 6 115t-32 77t-55.5 44.5t-65.5 18.5h-47q-104 0 -187 -54.5t-98 -128.5l-29 -145
q-25 -119 16 -161.5t139 -42.5h183l-31 -145h-229q-292 23 -225 349l29 145q19 92 90.5 168.5t171 119t202.5 42.5h167q104 0 186.5 55.5t98.5 129.5l21 99h147z" />
    <glyph glyph-name="angkhankhuthai" unicode="&#xfa;" horiz-adv-x="1235" 
d="M935 1018h99l-191 -897q-37 -112 -72 -112h-98l129 604q-193 -95 -344 -97q-133 0 -197 75h1q-66 72 -41 188q30 143 206 284l79 -107q-121 -97 -138 -177q-11 -50 16 -80q31 -36 105 -36q138 0 349 121l26 122q35 112 71 112zM1198 1018h99l-191 -897q-37 -112 -72 -112
h-99l191 897q36 112 72 112z" />
    <glyph glyph-name="angkhankhuthai" unicode="&#xe5a;" horiz-adv-x="1235" 
d="M935 1018h99l-191 -897q-37 -112 -72 -112h-98l129 604q-193 -95 -344 -97q-133 0 -197 75h1q-66 72 -41 188q30 143 206 284l79 -107q-121 -97 -138 -177q-11 -50 16 -80q31 -36 105 -36q138 0 349 121l26 122q35 112 71 112zM1198 1018h99l-191 -897q-37 -112 -72 -112
h-99l191 897q36 112 72 112z" />
    <glyph glyph-name="khomutthai" unicode="&#xfb;" horiz-adv-x="2147" 
d="M734 482q-62 -47 -130 -47q-60 0 -93 37.5t-21 89.5q11 51 58.5 88t109.5 37q47 0 75 -23q14 67 -20 106.5t-99 39.5q-92 0 -167 -71.5t-99 -185.5q-30 -145 27.5 -231t177.5 -86q139 0 258 119.5t158 305.5l6 26l5 39l55 44l100 -252l159 238l62 -210l132 172l71 -170
l122 129l73 -109l41 46h350l-88 -68h-218l-111 -88l-69 86l-136 -143l-65 147l-154 -188l-49 190l-145 -217l-87 211q-67 -173 -201.5 -276t-283.5 -103q-150 0 -232.5 101.5t-57.5 259.5q34 159 137 255t243 96q114 0 168 -66t32 -171q-21 -99 -94 -158zM567 562
q-6 -28 8 -45.5t40 -17.5q30 0 51 17.5t27 45.5q6 27 -8 45t-44 18q-26 0 -47 -18t-27 -45z" />
    <glyph glyph-name="khomutthai" unicode="&#xe5b;" horiz-adv-x="2147" 
d="M734 482q-62 -47 -130 -47q-60 0 -93 37.5t-21 89.5q11 51 58.5 88t109.5 37q47 0 75 -23q14 67 -20 106.5t-99 39.5q-92 0 -167 -71.5t-99 -185.5q-30 -145 27.5 -231t177.5 -86q139 0 258 119.5t158 305.5l6 26l5 39l55 44l100 -252l159 238l62 -210l132 172l71 -170
l122 129l73 -109l41 46h350l-88 -68h-218l-111 -88l-69 86l-136 -143l-65 147l-154 -188l-49 190l-145 -217l-87 211q-67 -173 -201.5 -276t-283.5 -103q-150 0 -232.5 101.5t-57.5 259.5q34 159 137 255t243 96q114 0 168 -66t32 -171q-21 -99 -94 -158zM567 562
q-6 -28 8 -45.5t40 -17.5q30 0 51 17.5t27 45.5q6 27 -8 45t-44 18q-26 0 -47 -18t-27 -45z" />
    <glyph glyph-name="saraulowthai" unicode="&#xfc;" 
d="M-573 -487h192l-66 -309h-143l26 121q7 21 17 41h-57z" />
    <glyph glyph-name="saraulowthai" unicode="&#xf718;" 
d="M-573 -487h192l-66 -309h-143l26 121q7 21 17 41h-57z" />
    <glyph glyph-name="sarauulowthai" unicode="&#xfd;" 
d="M-371 -487h136l-30 -143q-17 -79 -95.5 -128.5t-154.5 -49.5q-72 0 -129.5 45t-45.5 118q1 2 4 11h-49l31 147h183l-31 -146q-1 -14 23.5 -31.5t40.5 -17.5t49.5 18.5t37.5 33.5z" />
    <glyph glyph-name="sarauulowthai" unicode="&#xf719;" 
d="M-371 -487h136l-30 -143q-17 -79 -95.5 -128.5t-154.5 -49.5q-72 0 -129.5 45t-45.5 118q1 2 4 11h-49l31 147h183l-31 -146q-1 -14 23.5 -31.5t40.5 -17.5t49.5 18.5t37.5 33.5z" />
    <glyph glyph-name="phinthulowthai" unicode="&#xfe;" 
d="M-329 -596q-10 -45 -49 -77t-83 -32q-46 0 -70.5 32t-14.5 77t48 77t83 32q44 0 70 -32t16 -77z" />
    <glyph glyph-name="phinthulowthai" unicode="&#xf71a;" 
d="M-329 -596q-10 -45 -49 -77t-83 -32q-46 0 -70.5 32t-14.5 77t48 77t83 32q44 0 70 -32t16 -77z" />
    <glyph glyph-name="nptp3.001march2007r" unicode="&#xe3e;" 
 />
    <glyph glyph-name="ZWSP" unicode="&#x200b;" 
 />
    <glyph glyph-name="uni25CC" unicode="&#x25cc;" horiz-adv-x="1082" 
d="M609 341q37 0 58.5 -26.5t13.5 -65.5q-7 -37 -40.5 -64t-70.5 -27q-39 0 -60 27t-13 64q8 39 40.5 65.5t71.5 26.5zM997 664q39 0 60 -27t13 -64q-9 -43 -39.5 -69t-73.5 -26q-38 0 -59 27t-12 68q8 37 41 64t70 27zM355 664q35 0 57 -27.5t14 -63.5q-9 -41 -41 -68
t-70 -27t-59.5 27t-12.5 68q8 37 41.5 64t70.5 27zM746 985q37 0 58.5 -26.5t13.5 -65.5q-8 -38 -41 -64t-70 -26q-39 0 -60 26t-13 64q8 39 40.5 65.5t71.5 26.5zM505 881q42 0 62.5 -25t10.5 -68q-8 -39 -39.5 -65t-72.5 -26q-37 0 -58.5 26.5t-13.5 64.5q9 43 41 68
t70 25zM940 881q37 0 59 -25.5t13 -67.5q-8 -38 -40 -64.5t-71 -26.5q-37 0 -59 26.5t-14 64.5q9 43 41.5 68t70.5 25zM847 445q36 0 58.5 -26.5t14.5 -64.5q-8 -37 -40.5 -64t-71.5 -27q-37 0 -58.5 27t-13.5 64q8 38 41 64.5t70 26.5zM412 445q41 0 61.5 -26t12.5 -65
q-8 -38 -40.5 -64.5t-72.5 -26.5q-37 0 -58 27t-13 64q8 39 40.5 65t69.5 26z" />
    <glyph glyph-name="Fontcraft" horiz-adv-x="1942" 
d="M680 -161q0 -5 -2 -23q-19 -75 -84 -75q-32 0 -46 17t-14 41q0 51 27.5 74t58.5 23q28 0 44 -15.5t16 -41.5zM648 -177q5 17 -2.5 29.5t-25.5 12.5q-25 0 -40 -20.5t-15 -49.5q0 -23 29 -23q40 0 54 51zM924 -108q6 0 11 -4.5t5 -9.5q0 -17 -16 -17h-26l-15 -60v-17
q0 -12 6 -12q2 0 7 1.5t7 1.5q16 0 16 -14q0 -18 -27 -18q-19 0 -30 12t-11 33q0 3 1.5 9.5t1.5 10.5l12 53h-16q-16 0 -16 17q0 14 16 14h22l11 52q0 12 15 12q6 0 10.5 -6t4.5 -13l-8 -45h19zM541 -122q0 -17 -16 -17h-22l-23 -106q-11 -59 -68 -59q-7 0 -12 4.5t-5 11.5
q0 9 7.5 12.5t17 3.5t18.5 7.5t11 25.5l21 100h-18q-7 0 -12 5t-5 12q0 5 5 9.5t12 4.5h24l5 24q5 26 23.5 42t46.5 16q6 0 10.5 -4.5t4.5 -10.5q0 -11 -7 -14t-16 -1.5t-18.5 -6t-13.5 -26.5l-3 -19h17q16 0 16 -14zM817 -130q4 -8 4 -20q0 -2 -0.5 -5t-0.5 -6l-18 -84
q-5 -14 -16 -14q-6 0 -10.5 5t-4.5 11q0 3 1 4l17 85v0q0 8 -1.5 12t-5 6t-3.5 3q-25 0 -49 -23l-20 -89q-2 -14 -16 -14q-6 0 -10 5t-4 11v4l27 123q3 12 14 12q6 0 11 -4t5 -8h1q24 11 34 12q37 0 45 -26zM1510 -108q6 0 10 -4.5t4 -9.5q0 -17 -14 -17h-29l-12 -60
q-2 -9 -2 -17q0 -12 7 -12q3 0 7.5 1.5t6.5 1.5q16 0 16 -15q0 -17 -27 -17q-17 0 -29 12t-12 33q0 3 0.5 6t1.5 7.5t1 6.5l11 53h-43l-22 -106q-13 -59 -69 -59q-6 0 -10.5 4.5t-4.5 11.5q0 10 7.5 13.5t17 3t18 7t10.5 25.5l22 100h-20q-14 0 -14 17q0 5 4.5 9.5t9.5 4.5
h27l2 24q13 58 71 58q14 0 14 -15q0 -9 -7 -12.5t-15.5 -3.5t-17.5 -8t-13 -24l-5 -19h44l6 20q0 11 14 11q15 0 15 -14l-1 -1q0 -2 -0.5 -6t-1.5 -10h22zM1198 -119q0 -6 -5.5 -10t-11.5 -4q-32 0 -38 -34l-17 -79q-2 -13 -14 -13q-7 0 -11.5 5t-4.5 11v4l16 78
q15 57 69 57q6 0 11.5 -4.5t5.5 -10.5zM1307 -229q-25 -27 -64 -27q-23 0 -39 15t-12 40q3 16 16.5 26.5t25 13t30.5 5.5q20 0 28 -1q0 1 1 5t1 5q0 15 -23 15q-3 0 -19.5 -3.5t-25.5 -3.5q-13 0 -13 9q0 14 21 21t44 7q48 0 48 -41q0 -2 -2 -8t-2 -8zM1278 -222l9 35
q-36 0 -51 -5t-16 -19q0 -17 33 -17q11 0 25 6zM1096 -133q0 -1 1 -4l1 -3q0 -6 -4 -11t-10 -5t-17 11.5t-27 11.5q-18 0 -34.5 -18.5t-16.5 -49.5q0 -27 30 -27q8 0 19.5 6t16.5 6q15 0 15 -17q0 -11 -17.5 -18.5t-33.5 -7.5q-31 0 -46 17.5t-15 40.5q0 47 25 72t57 25
q34 0 56 -29zM962 1146q155 0 288 -76t211 -209t78 -290q0 -156 -76.5 -288.5t-209.5 -210t-291 -77.5q-156 0 -288 76t-209.5 209t-77.5 291q0 156 77 288.5t209.5 209.5t288.5 77zM962 101q126 0 234.5 62.5t172.5 171t64 236.5q0 140 -77 258l-75 -326
q-12 -67 -73.5 -120.5t-136.5 -53.5q-71 0 -123 55q-68 -55 -139 -55t-115.5 47t-44.5 111q0 16 24 132q-20 -7 -39.5 11.5t-19.5 40.5q0 59 89 59q38 0 65.5 -17t21.5 -54l-34 -156q-4 -27 10 -47.5t43 -20.5q37 0 68 28t40 62l33 157q4 19 18.5 30.5t33.5 11.5
q21 0 36.5 -16t15.5 -37q0 -2 -35 -168q-5 -27 9 -47.5t43 -20.5q34 0 68 27.5t41 62.5l91 401q-132 114 -309 114q-127 0 -235.5 -62.5t-172 -171t-63.5 -235.5q0 -128 63.5 -236t172 -171t235.5 -63z" />
    <glyph glyph-name="lochula.short" horiz-adv-x="1138" 
d="M1196 987v-1q-34 -46 -73 -75q76 -68 51 -191l-106 -497q-21 -98 -112 -166.5t-198 -68.5h-37q-99 0 -158 57q-82 -57 -171 -57h-35q-101 0 -158.5 68.5t-36.5 166.5l168 792h146l-168 -792q-8 -37 15.5 -63t64.5 -26h35q41 0 75.5 26t42.5 63l78 366h147l-78 -366
q-6 -25 -18 -50q23 -39 82 -39h37q44 0 84.5 27.5t48.5 61.5l105 496q7 33 -7 56.5t-43.5 34.5t-60 16t-66.5 5l31 147q201 0 238 171l24 114h146l-24 -114q-20 -93 -69 -162z" />
    <glyph glyph-name="saraamleft" horiz-adv-x="857" 
d="M893 717l-152 -717h-147l152 717q15 67 -34 115t-157 48q-123 0 -320 -83l-33 133q231 97 384 97q165 0 250 -89t57 -221zM-202 1441q72 0 113.5 -52.5t25.5 -124.5q-16 -74 -78.5 -125.5t-135.5 -51.5q-75 0 -115.5 51t-24.5 126q16 73 78.5 125t136.5 52zM-253 1202
q25 0 46.5 18.5t26.5 43.5t-8.5 42.5t-38.5 17.5q-26 0 -47 -17.5t-26 -42.5q-5 -26 8.5 -44t38.5 -18z" />
    <glyph glyph-name="yamakkanleftthai" 
d="M-433 1320q18 85 119 142q-8 21 -2 50q16 77 114.5 134.5t202.5 57.5q71 0 173 -40l-27 -129q-33 9 -67.5 21t-56 17.5t-48.5 5.5q-48 0 -104.5 -21.5t-61.5 -45.5q1 0 51 -13l43 -15l-23 -106h-49q-4 0 -18 1t-17 1q-28 0 -64 -22t-40 -38q-4 -18 13 -30t47 -12
q42 0 67.5 17.5t58.5 60.5h127l-58 -96q-79 -107 -221 -107q-85 0 -129.5 48t-29.5 119z" />
    <glyph glyph-name="Naipol" 
d="M71 617q-1 -1 -3 -1v2q3 0 3 -1zM28 649q-2 -1 -9 -1q-10 0 -26 6l-14 2h-4q-4 -2 -5 -2q6 8 11 8q24 0 35 -5q1 0 2 -1q5 -2 10 -7zM87 710q0 -10 -3 -26.5t-7 -33.5t-5 -23l-3 5q-7 -5 -17.5 -28t-10.5 -27v79q-10 9 -18 50q-25 43 -83 43q-63 0 -80 -53l-25 -45v-89
h-8q-7 78 -17 97q-3 -10 -4 -15l-3 15q-3 -6 -3 -12q0 -5 5 -22t5 -23q-22 29 -22 99v21l16 26h4q2 0 2 1v7q25 8 29 54q4 2 10.5 4.5t10 4t6 4t2.5 5.5q8 0 12 4q8 -6 20 -6q0 6 13 13l9 -13q6 15 8 17h5q3 0 9 8q20 0 76 -14q5 -8 16.5 -16.5t17.5 -10.5q2 -14 17 -55
t16 -45zM15 629h-28q-4 0 -11 1t-9 1h-4l7 6q6 6 9 6q10 0 18 -2.5t11 -5t3 -3.5zM-14 624q-2 -2 -6 -2v2h6zM41 571v-4q0 -7 -5 -7q2 8 5 11zM-180 770q0 -1 -2 -1v2q2 0 2 -1zM-76 636q0 -3 -3 -3v7q3 0 3 -4zM-88 660q-3 -1 -8 -1q-34 0 -49 4l1 1l2 2q7 5 18 5
q18 0 36 -11zM-40 584l2 -2h-12l8 2h2zM-88 641l2 -5q0 -1 -3.5 -2.5t-9.5 -4t-12 -2.5l15 4l1 2l1 2h-2q-3 0 -11.5 2t-10.5 2q-18 0 -21 1q13 10 23 10q19 0 24 -4zM-77 584h-2h-2l-1 1q-4 0 -4 2q0 1 2 1q7 0 7 -4zM-17 555q0 -11 -21.5 -21.5t-28.5 -10.5q-1 0 -6.5 0.5
t-10.5 0.5q-10 0 -22 13.5t-12 22.5q2 0 13.5 1t15.5 1q5 0 14 -2.5t10 -2.5q2 0 11.5 1.5t13.5 1.5q19 -3 23 -5zM-192 635q0 -2 -3 -2v3q3 0 3 -1zM-161 560h-3v2q3 0 3 -2zM-157 546h-4v9q4 -1 4 -9zM218 240h-594v29v12q0 8 1 12q17 103 60 132q22 14 42 22q25 16 87 41
q25 5 38 13v12v3v5q-9 19 -9 21v2q3 0 5 -5q0 -3 1 -4q2 -5 5 -9.5t8.5 -9.5t8.5 -8t12 -9.5t11 -8.5q21 -8 36 -8q23 0 57 18.5t48 55.5q0 -10 -14 -33q-13 -13 -13 -28q0 -4 1 -6h2q20 0 27 -4q89 -33 145 -90q35 -44 35 -115v-23v-8v-9zM53 800q0 4 -6 8.5t-12 4.5
l11 -17q7 0 7 4zM-17 840q0 3 -6 3v-6q6 0 6 3zM-29 843q-9 0 -9 -2t5 -4l1 2q1 2 3 4zM-157 783q0 4 -4 4v-6q4 0 4 2zM9 631q-3 0 -9 5t-20 5q-1 0 -2 -0.5t-2 -2t-3 -3t-5 -3.5h11q5 -1 8 -1l12 1h2q1 -1 8 -1zM-107 639h15l-1 3l-3 2l-4 2l-1 1q1 0 1 -3q0 -4 -7 -5z
M-100 643q0 2 -2 2t-2 -2t2 -2t2 2zM-109 639q-6 1 -6 5q0 2 5 4h-7q-2 -1 -11 -6h3l7 -2q7 -1 9 -1zM-27 553q0 2 -9 2l-11 -1q-11 -1 -15 -1q-3 0 -10.5 2t-21.5 2l-5 -1h-7h-2q1 -2 8 -11q25 -5 31 -5q2 0 12 0.5t15 0.5q2 0 8.5 5t6.5 7zM-57 532v1v2h-4v-1h-4h-2v-3h7z
M-72 529v2v1l-6 1l-2 1l-1 -2h1l1 -1l2 -2h5zM41 466q-4 16 -24 16q-2 0 -2 -2q0 -10 5 -18q-14 -33 -39 -49q6 17 11 17q2 3 5 21.5t3 24.5q0 13 -4 18q-40 -25 -66 -25q-21 0 -71 38l1 -10v1q0 -2 -6 -4l2 -27q-4 4 -19 9l-19 5q6 -62 88 -104q43 0 62 12l27 20q2 9 24 24
t22 33zM-13 640q8 0 8 -5q0 -3 -8 -3t-8 3q0 5 8 5zM-19 634q3 0 3 1q-2 2 -3 2q-2 0 -2 -2q0 -1 2 -1z" />
    </font>
</defs>
</svg>
